# https://github.com/mikedh/trimesh
v 0.00965425 0.03293923 0.05313263
v 0.01017044 0.03145996 0.05308942
v 0.00841190 0.02424196 0.01432243
v -0.00511931 0.02302069 0.00679326
v -0.00684477 0.03246924 0.05325209
v 0.00900212 0.02059674 0.01402297
v 0.00046336 0.03370402 0.04781047
v 0.00959717 0.02668347 0.02783029
v 0.00182929 0.02340301 0.00661200
v -0.00710402 0.02447879 0.02845864
v 0.00651661 0.03364225 0.04980152
v -0.00655908 0.03377481 0.05086503
v 0.00960378 0.03265956 0.04882779
v 0.01034275 0.02338192 0.02845813
v -0.00140881 0.02535413 0.01224454
v -0.00483642 0.02257120 0.01695601
v 0.00452197 0.02545156 0.01428840
v 0.00657274 0.03372660 0.05305443
v -0.00695031 0.03095567 0.04910585
v -0.00647160 0.02766375 0.02786858
v 0.01030187 0.03079726 0.05132094
v 0.01025446 0.02317346 0.02746642
v -0.00142838 0.02432532 0.00831936
v -0.00448597 0.03370318 0.04884425
v -0.00440571 0.02438183 0.00927805
v -0.00703094 0.02426758 0.02746184
v 0.00146913 0.02432438 0.00835283
v 0.00463224 0.03368015 0.04883568
v -0.00659800 0.03375506 0.05302592
v -0.00705990 0.02658426 0.03676944
v 0.00963038 0.03057641 0.04162678
v -0.00042218 0.03370892 0.04781729
v -0.00452792 0.02390288 0.00808486
v 0.00146575 0.02536608 0.01224487
v 0.01037105 0.02667229 0.03976596
v 0.01037425 0.02444666 0.03261291
f 5 2 1
f 9 6 4
f 9 3 6
f 13 1 2
f 13 11 1
f 14 3 8
f 16 4 6
f 17 13 3
f 17 11 13
f 18 1 11
f 18 5 1
f 19 12 10
f 19 5 12
f 20 4 10
f 20 10 12
f 21 13 2
f 21 14 8
f 21 2 5
f 21 5 19
f 22 14 10
f 22 6 3
f 22 3 14
f 23 9 4
f 25 24 15
f 25 12 24
f 25 20 12
f 25 4 20
f 25 15 23
f 26 10 4
f 26 4 16
f 26 16 6
f 26 22 10
f 26 6 22
f 27 17 3
f 27 3 9
f 27 9 23
f 28 18 11
f 28 7 18
f 28 11 17
f 29 18 12
f 29 12 5
f 29 5 18
f 30 19 10
f 30 10 14
f 31 21 8
f 31 13 21
f 31 8 3
f 31 3 13
f 32 24 12
f 32 15 24
f 32 18 7
f 32 12 18
f 33 25 23
f 33 23 4
f 33 4 25
f 34 27 23
f 34 23 15
f 34 7 28
f 34 28 17
f 34 17 27
f 34 32 7
f 34 15 32
f 35 21 19
f 35 19 30
f 36 35 30
f 36 30 14
f 36 14 21
f 36 21 35

