# https://github.com/mikedh/trimesh
v 0.01758791 -0.02819186 0.05325571
v 0.01675349 -0.03000089 0.05322872
v 0.01341371 -0.01987098 0.00753175
v 0.00155896 -0.02413518 0.00798804
v -0.00155915 -0.03321059 0.05331038
v 0.01056860 -0.03272947 0.04979661
v 0.01673732 -0.02281527 0.02779794
v 0.01561014 -0.03061177 0.05324896
v 0.00155447 -0.01876343 0.00930949
v 0.01541138 -0.03047018 0.04888838
v 0.00843026 -0.02317715 0.00927983
v -0.00144161 -0.03379201 0.04782676
v 0.01650312 -0.02951943 0.04789889
v 0.00654438 -0.03374291 0.05316686
v 0.01748783 -0.01851623 0.02756091
v 0.01359352 -0.03163537 0.04988210
v 0.00449039 -0.02432607 0.00925258
v 0.00744747 -0.02318054 0.00843810
v 0.01229400 -0.02108635 0.00852790
v -0.00159053 -0.02521896 0.02748976
v 0.01058745 -0.03276916 0.05301817
v 0.00550500 -0.03367317 0.04882739
v -0.00151424 -0.03422548 0.05322783
v 0.01434533 -0.01752543 0.01399730
v 0.01789250 -0.02003925 0.03363153
v 0.00747957 -0.02421798 0.01224111
v 0.00150182 -0.02559374 0.01320468
v 0.01036132 -0.02206516 0.00842603
v -0.00151028 -0.02831794 0.02772017
v 0.01356547 -0.03169368 0.05303811
v 0.00652116 -0.03369133 0.04979761
v 0.00255402 -0.03371298 0.04786531
v 0.01779799 -0.02640000 0.04920278
v 0.01781101 -0.01884572 0.02957309
v -0.00164506 -0.02884259 0.04080773
v 0.00151525 -0.02461273 0.00918324
v -0.00162532 -0.03281492 0.05237221
v -0.00163214 -0.02567962 0.02946251
v -0.00164956 -0.02668542 0.03359186
v -0.00165457 -0.03097978 0.04703610
f 8 2 1
f 8 1 5
f 9 3 4
f 13 1 2
f 13 2 10
f 13 3 7
f 14 8 5
f 16 6 11
f 16 10 2
f 16 2 8
f 18 4 3
f 18 17 4
f 18 11 17
f 19 13 10
f 19 3 13
f 20 9 4
f 21 14 6
f 21 8 14
f 23 14 5
f 24 15 3
f 24 3 9
f 24 9 15
f 26 17 11
f 26 11 6
f 26 6 17
f 27 17 22
f 28 16 11
f 28 11 18
f 28 18 3
f 28 3 19
f 28 19 10
f 28 10 16
f 29 20 4
f 30 16 8
f 30 8 21
f 30 21 6
f 30 6 16
f 31 6 14
f 31 23 22
f 31 14 23
f 31 22 17
f 31 17 6
f 32 23 12
f 32 22 23
f 32 27 22
f 32 12 27
f 33 13 7
f 33 1 13
f 34 15 9
f 34 7 3
f 34 3 15
f 34 33 7
f 34 25 33
f 35 25 34
f 36 4 17
f 36 17 27
f 36 29 4
f 36 27 12
f 36 12 29
f 37 33 25
f 37 5 1
f 37 1 33
f 37 23 5
f 37 29 12
f 37 12 23
f 38 20 29
f 38 9 20
f 39 35 34
f 39 34 9
f 39 9 38
f 39 38 29
f 40 37 25
f 40 25 35
f 40 35 39
f 40 39 29
f 40 29 37

