# https://github.com/mikedh/trimesh
v 0.03385758 0.00551561 0.05307552
v 0.03382192 -0.00555938 0.05306201
v 0.02542416 -0.00448677 0.01429369
v 0.02195638 0.00590576 0.01396169
v 0.02782103 -0.00702494 0.03984794
v 0.02531974 0.00546147 0.01428886
v 0.03372458 -0.00148158 0.04781211
v 0.03192746 -0.00706032 0.05243526
v 0.02776374 0.00601302 0.03881176
v 0.02190824 -0.00588124 0.01398526
v 0.02515406 -0.00563858 0.01415612
v 0.03377896 -0.00446959 0.04882875
v 0.03370236 0.00452408 0.04883524
v 0.03370697 0.00145871 0.04782516
v 0.03235273 -0.00689410 0.05324774
v 0.02553524 -0.00701431 0.03157542
v 0.02236130 0.00601412 0.01597629
v 0.03188792 0.00594237 0.05132868
v 0.03276802 -0.00655148 0.04681318
v 0.03373132 0.00547838 0.04981129
v 0.03346594 -0.00669898 0.05326585
v 0.02462820 -0.00680349 0.02763149
v 0.02456939 0.00604126 0.02635654
v 0.03248986 0.00584496 0.05316904
v 0.03376661 -0.00550687 0.04977817
v 0.02766037 -0.00651624 0.02784506
v 0.02239688 -0.00599581 0.01702976
v 0.02343087 -0.00606493 0.02217843
f 9 5 8
f 11 6 3
f 11 4 6
f 11 10 4
f 12 1 2
f 12 11 3
f 12 3 7
f 14 7 3
f 14 3 6
f 14 6 13
f 14 12 7
f 14 1 12
f 16 5 9
f 16 8 5
f 17 6 4
f 18 6 17
f 20 13 6
f 20 14 13
f 20 1 14
f 20 6 18
f 21 2 1
f 21 15 8
f 21 8 19
f 22 10 11
f 23 16 9
f 23 18 17
f 23 9 18
f 23 22 16
f 24 20 18
f 24 1 20
f 24 21 1
f 24 15 21
f 24 8 15
f 24 18 9
f 24 9 8
f 25 19 11
f 25 11 12
f 25 21 19
f 25 12 2
f 25 2 21
f 26 11 19
f 26 22 11
f 26 16 22
f 26 19 8
f 26 8 16
f 27 17 4
f 27 4 10
f 27 10 22
f 28 23 17
f 28 22 23
f 28 27 22
f 28 17 27

