# https://github.com/mikedh/trimesh
v 0.00164235 -0.02526132 0.02747715
v 0.01364635 -0.01801139 0.01387946
v -0.01317635 -0.02165959 0.02758603
v -0.01265382 -0.01259205 0.00040858
v 0.00147954 -0.02429942 0.00835964
v 0.01317362 -0.01316821 0.00906832
v 0.00157459 -0.02833563 0.02772552
v -0.01230520 -0.02210092 0.01131317
v -0.01315554 -0.01318477 0.00902287
v 0.01269956 -0.01262282 0.00035280
v 0.01265156 -0.02069600 0.00817509
v -0.01242566 -0.02541824 0.02791842
v -0.00638924 -0.02121042 0.00471360
v -0.00440520 -0.02431498 0.00922966
v -0.01348652 -0.02119702 0.02640473
v 0.00540845 -0.02327106 0.00734074
v -0.01237972 -0.01919088 0.00560909
v -0.00547140 -0.01735185 0.00064630
v -0.00245854 -0.02533009 0.01225516
v -0.00835988 -0.02635042 0.02370732
v -0.00246775 -0.02328955 0.00646569
v 0.01150691 -0.02142682 0.00832119
v 0.00150154 -0.02540750 0.01224279
v -0.00922076 -0.02209362 0.00751859
v 0.00545401 -0.01735398 0.00072045
v -0.00930333 -0.01718290 0.00173239
v -0.00144309 -0.02432803 0.00835239
v -0.00938945 -0.02635540 0.02587383
v -0.00835665 -0.02418631 0.01331471
v -0.00446425 -0.02748639 0.02475890
v 0.00246256 -0.02329017 0.00649372
v -0.00537021 -0.02218782 0.00561189
v -0.01129518 -0.02106993 0.00749576
v -0.00836419 -0.02117344 0.00559500
v 0.00649994 -0.02030345 0.00370208
v -0.01236260 -0.01630183 0.00265492
v -0.00836632 -0.01637427 0.00069877
v -0.00641076 -0.01824867 0.00166187
v -0.00651548 -0.02765468 0.02785726
v -0.00940929 -0.02312701 0.01035501
v -0.00250023 -0.02745390 0.02371283
v -0.00539294 -0.02329838 0.00745696
v -0.00930169 -0.01917365 0.00363481
v 0.00839649 -0.02115346 0.00560528
v 0.00537101 -0.02219708 0.00560595
v 0.01041923 -0.01625995 0.00163959
v -0.01134980 -0.01438312 0.00080563
v -0.00647181 -0.02746406 0.02685190
v -0.00736392 -0.02315915 0.00834642
v -0.01130883 -0.01813083 0.00374023
v 0.00741479 -0.02218518 0.00652998
v 0.01238148 -0.01917565 0.00557002
v 0.00842879 -0.01734096 0.00164438
v 0.01140649 -0.01429098 0.00078237
v -0.01242325 -0.01337586 0.00074136
v 0.01130355 -0.02111634 0.00753395
v 0.01236220 -0.01624001 0.00267066
v 0.00645084 -0.01929856 0.00271656
v 0.01239166 -0.02041150 0.00736710
v 0.01256655 -0.01336345 0.00070765
f 6 1 2
f 6 3 1
f 7 2 1
f 9 6 4
f 9 3 6
f 10 4 6
f 10 6 2
f 11 2 7
f 11 10 2
f 12 7 1
f 12 1 3
f 15 3 9
f 15 12 3
f 15 8 12
f 17 8 15
f 17 15 9
f 17 9 4
f 18 4 10
f 22 11 7
f 22 7 16
f 23 16 7
f 23 5 16
f 23 7 19
f 25 18 10
f 27 19 14
f 27 23 19
f 27 5 23
f 27 14 21
f 28 12 8
f 28 8 20
f 29 14 20
f 30 14 19
f 31 16 5
f 31 27 21
f 31 5 27
f 31 21 18
f 31 18 25
f 32 18 21
f 33 24 8
f 33 8 17
f 34 32 24
f 34 13 32
f 34 33 17
f 34 24 33
f 35 31 25
f 36 17 4
f 37 4 18
f 38 32 13
f 38 18 32
f 38 37 18
f 38 26 37
f 39 7 12
f 39 12 28
f 39 30 7
f 39 28 20
f 40 14 29
f 40 8 24
f 40 29 20
f 40 20 8
f 41 30 19
f 41 19 7
f 41 7 30
f 42 32 21
f 42 21 14
f 42 24 32
f 43 13 34
f 43 38 13
f 43 26 38
f 43 34 17
f 45 16 31
f 45 31 35
f 45 35 44
f 47 4 37
f 47 37 26
f 47 26 36
f 48 39 20
f 48 20 14
f 48 14 30
f 48 30 39
f 49 40 24
f 49 14 40
f 49 42 14
f 49 24 42
f 50 36 26
f 50 26 43
f 50 43 17
f 50 17 36
f 51 22 16
f 51 45 44
f 51 16 45
f 52 44 35
f 52 10 11
f 53 52 35
f 53 46 52
f 54 25 10
f 54 53 25
f 54 46 53
f 55 47 36
f 55 36 4
f 55 4 47
f 56 51 44
f 56 22 51
f 56 44 52
f 57 52 46
f 57 10 52
f 58 53 35
f 58 35 25
f 58 25 53
f 59 56 52
f 59 52 11
f 59 11 22
f 59 22 56
f 60 54 10
f 60 10 57
f 60 57 46
f 60 46 54

