# https://github.com/mikedh/trimesh
v 0.03346594 -0.00669898 0.05326585
v 0.03265137 -0.01052236 0.05306241
v 0.02515406 -0.00563858 0.01415612
v 0.01299940 -0.01295799 0.00067588
v 0.01675349 -0.03000089 0.05322872
v 0.02475645 -0.00606715 0.02734232
v 0.03265214 -0.00951877 0.04881606
v 0.02758706 -0.02057380 0.05306449
v 0.02768401 -0.00551877 0.02682946
v 0.02190824 -0.00588124 0.01398526
v 0.03211266 -0.00709582 0.05297539
v 0.01317362 -0.01316821 0.00906832
v 0.03275632 -0.01035186 0.05078778
v 0.03276802 -0.00655148 0.04681318
v 0.02954045 -0.01755996 0.05305910
v 0.01726507 -0.01818916 0.01032012
v 0.02787768 -0.00555341 0.02781434
v 0.01450245 -0.01251789 0.00132759
v 0.02566579 -0.00549422 0.01738903
v 0.01259074 -0.02158603 0.01013262
v 0.02903966 -0.00718341 0.04387147
v 0.01798706 -0.02776521 0.05306749
v 0.02275448 -0.00612747 0.01905964
v 0.02017846 -0.01422927 0.00933363
v 0.03064875 -0.01557463 0.05303061
v 0.02258845 -0.02539743 0.04800217
v 0.01260723 -0.01444565 0.00148728
v 0.01406441 -0.02442214 0.02766922
v 0.03058927 -0.01455330 0.04783190
v 0.01956992 -0.01252702 0.00636567
v 0.03163271 -0.01359012 0.05256048
v 0.02062246 -0.02751885 0.05309767
v 0.01522901 -0.02018285 0.01132129
v 0.01671657 -0.02993415 0.04979036
v 0.02634441 -0.02156446 0.04789880
v 0.01338713 -0.01422559 0.00175568
v 0.02435848 -0.00837407 0.01429066
v 0.03159581 -0.01255348 0.04884144
v 0.02951355 -0.01744775 0.04978077
v 0.01625365 -0.01615153 0.00567999
v 0.02058775 -0.02750157 0.04985094
v 0.01428122 -0.02020063 0.00940312
v 0.02751161 -0.02058923 0.04976869
v 0.01818430 -0.01721136 0.01031293
v 0.01430389 -0.01326029 0.00166273
v 0.02325615 -0.01139925 0.01537711
v 0.02035243 -0.01337386 0.00845607
v 0.03057572 -0.01553889 0.04973940
v 0.01263510 -0.01957645 0.00630634
v 0.01755419 -0.02961281 0.05304853
v 0.01335221 -0.02117310 0.01028664
v 0.01627053 -0.01815754 0.00852143
v 0.01519802 -0.01619624 0.00465096
v 0.01917906 -0.01427686 0.00752877
v 0.03164626 -0.01356505 0.05167998
v 0.01752822 -0.02944088 0.04982210
v 0.01433865 -0.02108908 0.01230024
v 0.01818447 -0.01624032 0.00854343
v 0.01427985 -0.01920244 0.00746476
v 0.01621711 -0.01524474 0.00476060
v 0.01927107 -0.01329467 0.00665206
v 0.01517935 -0.01713095 0.00564013
v 0.01334310 -0.01926769 0.00653498
f 8 1 5
f 10 6 9
f 11 5 1
f 11 1 6
f 12 10 4
f 13 7 1
f 13 1 2
f 14 7 3
f 14 1 7
f 14 3 9
f 15 1 8
f 17 9 6
f 17 6 1
f 17 14 9
f 17 1 14
f 18 10 3
f 18 4 10
f 19 10 9
f 19 9 3
f 19 3 10
f 21 12 11
f 21 11 6
f 21 6 12
f 22 12 5
f 22 5 11
f 22 11 12
f 23 12 6
f 23 6 10
f 23 10 12
f 25 2 1
f 25 1 15
f 27 20 12
f 27 12 4
f 28 20 5
f 28 5 12
f 28 12 20
f 30 18 3
f 31 13 2
f 31 2 25
f 32 8 5
f 33 16 26
f 34 5 20
f 35 26 16
f 36 27 4
f 37 3 7
f 38 7 13
f 38 37 7
f 38 29 37
f 39 25 15
f 41 8 32
f 41 33 26
f 42 16 33
f 43 26 35
f 43 41 26
f 43 8 41
f 43 35 24
f 43 24 39
f 43 39 15
f 43 15 8
f 44 35 16
f 44 24 35
f 45 36 4
f 45 4 18
f 46 37 29
f 46 29 24
f 47 30 3
f 47 3 37
f 47 46 24
f 47 37 46
f 48 29 38
f 48 25 39
f 48 39 24
f 48 24 29
f 48 38 13
f 49 20 27
f 50 41 32
f 50 32 5
f 50 5 34
f 51 34 20
f 51 42 33
f 51 20 42
f 52 16 42
f 53 36 45
f 53 49 27
f 53 27 36
f 54 47 24
f 55 31 25
f 55 25 48
f 55 48 13
f 55 13 31
f 56 50 34
f 56 41 50
f 56 51 41
f 56 34 51
f 57 51 33
f 57 33 41
f 57 41 51
f 58 44 16
f 58 16 52
f 58 52 40
f 58 40 54
f 58 54 24
f 58 24 44
f 59 52 42
f 59 42 20
f 59 20 49
f 60 40 53
f 60 18 30
f 60 53 45
f 60 45 18
f 61 30 47
f 61 47 54
f 61 60 30
f 61 54 40
f 61 40 60
f 62 40 52
f 62 52 59
f 62 53 40
f 62 49 53
f 63 62 59
f 63 59 49
f 63 49 62

