# https://github.com/mikedh/trimesh
v -0.00162171 -0.03303564 0.05305081
v -0.00151424 -0.03422548 0.05322783
v -0.00159053 -0.02521896 0.02748976
v -0.01634851 -0.01952909 0.02758473
v -0.01638629 -0.02907390 0.05334121
v -0.00165801 -0.02784463 0.03772086
v -0.01679715 -0.02105749 0.03362020
v -0.00743100 -0.02742283 0.02789098
v -0.01675280 -0.02006304 0.03057282
v -0.01660992 -0.02838285 0.05244198
v -0.00151028 -0.02831794 0.02772017
v -0.01055089 -0.03270631 0.04982793
v -0.01551267 -0.02352571 0.02785510
v -0.00163214 -0.02567962 0.02946251
v -0.00144161 -0.03379201 0.04782676
v -0.01055631 -0.03279437 0.05308886
v -0.01037338 -0.02636906 0.02782202
v -0.01551712 -0.03058797 0.04981230
v -0.01672759 -0.02756168 0.05026773
v -0.00146954 -0.02872913 0.02992148
v -0.00649832 -0.03364863 0.04980888
v -0.00659088 -0.03374322 0.05313856
v -0.01569989 -0.02005832 0.02744938
v -0.01556952 -0.03066871 0.05316226
v -0.01244289 -0.03146474 0.04791735
v -0.01331372 -0.02527091 0.02910071
v -0.00549438 -0.03359595 0.04886393
v -0.01355287 -0.03164270 0.05308219
v -0.01442811 -0.02838656 0.04072535
v -0.01348289 -0.03156496 0.04983488
v -0.01429763 -0.02430171 0.02794117
v -0.00442134 -0.02848180 0.02993722
v -0.00247684 -0.03371307 0.04784524
v -0.01544262 -0.02941641 0.04591288
f 1 2 3
f 5 2 1
f 6 1 3
f 7 1 6
f 9 3 4
f 9 7 6
f 10 5 1
f 10 1 7
f 13 9 4
f 13 7 9
f 14 9 6
f 14 6 3
f 14 3 9
f 15 3 2
f 17 11 8
f 17 8 12
f 18 5 10
f 19 10 7
f 19 7 13
f 19 18 10
f 19 13 18
f 20 15 11
f 20 11 3
f 20 3 15
f 21 15 2
f 21 12 8
f 22 2 5
f 22 21 2
f 22 16 12
f 22 12 21
f 23 3 11
f 23 11 17
f 23 4 3
f 23 17 13
f 23 13 4
f 24 5 18
f 24 22 5
f 24 16 22
f 25 17 12
f 27 21 8
f 28 24 18
f 28 12 16
f 28 16 24
f 29 26 17
f 30 25 12
f 30 18 29
f 30 29 17
f 30 17 25
f 30 28 18
f 30 12 28
f 31 13 17
f 31 17 26
f 31 29 13
f 31 26 29
f 32 27 8
f 32 8 11
f 32 11 27
f 33 27 11
f 33 11 15
f 33 15 21
f 33 21 27
f 34 29 18
f 34 18 13
f 34 13 29

