# https://github.com/mikedh/trimesh
v -0.00456780 0.02810607 0.02778744
v -0.00498375 0.02481577 0.02731073
v -0.00450875 0.02546767 0.01428210
v -0.02026622 0.01625083 0.01433933
v -0.02735861 0.00776470 0.02768690
v -0.01331873 0.02431714 0.02484149
v -0.00474996 0.02195221 0.01396712
v -0.02423609 0.00809714 0.02747049
v -0.00946205 0.02634031 0.02582949
v -0.01334550 0.02217341 0.01437472
v -0.01746863 0.02247859 0.02786421
v -0.00449189 0.02765513 0.02580619
v -0.00503183 0.02379876 0.02321683
v -0.02481962 0.00761890 0.01425047
v -0.00647160 0.02766375 0.02786858
v -0.02125868 0.00822595 0.01384251
v -0.01133254 0.02320831 0.01431852
v -0.00947744 0.02665283 0.02781740
v -0.02445722 0.01447142 0.02786511
v -0.01608804 0.02025431 0.01435432
v -0.02658942 0.00755158 0.02371777
v -0.00537077 0.02528847 0.01431094
v -0.02679216 0.00951722 0.02779792
v -0.02226409 0.01339403 0.01431631
v -0.01135170 0.02539593 0.02477165
v -0.02240434 0.01744561 0.02790390
v -0.01520828 0.02116729 0.01535977
v -0.01921926 0.02031950 0.02483387
v -0.02555035 0.00755257 0.01843838
v -0.00943088 0.02423112 0.01534431
v -0.02523218 0.01246945 0.02580083
v -0.02218720 0.01623326 0.02272062
v -0.01828292 0.01914510 0.01751894
v -0.02016430 0.01926872 0.02482976
v -0.02552692 0.01257810 0.02782714
v -0.02430974 0.01438136 0.02685117
v -0.02418336 0.00937008 0.01429445
v -0.02119656 0.01533411 0.01539934
v -0.01916531 0.01828578 0.01748657
v -0.02214608 0.01531063 0.01961506
v -0.02416495 0.01236441 0.02069361
f 8 2 1
f 8 1 5
f 11 6 10
f 12 1 2
f 12 2 7
f 12 7 3
f 12 3 1
f 13 8 7
f 13 7 2
f 13 2 8
f 16 7 8
f 17 3 7
f 17 7 16
f 18 15 9
f 18 11 15
f 20 10 17
f 20 17 16
f 20 16 4
f 21 8 5
f 21 5 14
f 22 15 1
f 22 1 3
f 22 9 15
f 22 3 17
f 23 5 1
f 23 1 15
f 23 14 5
f 24 16 14
f 24 4 16
f 25 17 10
f 25 10 6
f 25 18 9
f 25 6 11
f 25 11 18
f 26 15 11
f 26 23 15
f 26 19 23
f 27 20 11
f 27 11 10
f 27 10 20
f 28 11 20
f 28 26 11
f 29 16 8
f 29 8 21
f 29 21 14
f 29 14 16
f 30 22 17
f 30 9 22
f 30 25 9
f 30 17 25
f 32 19 26
f 32 26 4
f 33 28 20
f 33 20 4
f 34 28 4
f 34 4 26
f 34 26 28
f 35 31 23
f 35 23 19
f 35 19 31
f 36 31 19
f 36 24 31
f 36 19 32
f 37 24 14
f 37 14 23
f 37 23 31
f 38 32 4
f 38 4 24
f 39 33 4
f 39 4 28
f 39 28 33
f 40 36 32
f 40 24 36
f 40 38 24
f 40 32 38
f 41 37 31
f 41 31 24
f 41 24 37

