# https://github.com/mikedh/trimesh
v -0.03249731 -0.00584424 0.05313034
v -0.01595388 -0.03039759 0.05328021
v -0.01358728 -0.02137837 0.02740510
v -0.02553931 -0.00445758 0.01427424
v -0.02847899 -0.01953902 0.05082529
v -0.02225395 -0.00486749 0.01387865
v -0.01669079 -0.02851811 0.05299137
v -0.02760932 -0.02065938 0.05322450
v -0.03259182 -0.01051400 0.04977254
v -0.01620497 -0.02023390 0.01435177
v -0.02690539 -0.00606349 0.03669992
v -0.02526614 -0.00484332 0.02751540
v -0.02449962 -0.02445105 0.05077863
v -0.03380191 -0.00553909 0.04977578
v -0.02323591 -0.01137296 0.01431300
v -0.03270515 -0.01056112 0.05308769
v -0.01257148 -0.02254246 0.01423787
v -0.02749450 -0.00446706 0.02478477
v -0.02543419 -0.02352815 0.05075646
v -0.02064240 -0.02761755 0.05311734
v -0.03362474 -0.00649571 0.04980101
v -0.02427438 -0.00947777 0.01533253
v -0.03045690 -0.01551028 0.04882203
v -0.02531064 -0.00544141 0.01427121
v -0.03392433 -0.00554873 0.05305905
v -0.02957735 -0.01758988 0.05306974
v -0.01280973 -0.02518099 0.02773637
v -0.01360094 -0.01797754 0.01387533
v -0.02848909 -0.01958653 0.05260115
v -0.02442809 -0.02337574 0.04691022
v -0.02449354 -0.02450241 0.05260598
v -0.01749466 -0.02950205 0.04982580
v -0.02941420 -0.01746078 0.04885540
v -0.03149627 -0.01255133 0.04791560
v -0.03152017 -0.01353949 0.04973361
v -0.03372886 -0.00655407 0.05306596
v -0.02809979 -0.00458136 0.02775068
v -0.03156523 -0.01357032 0.05307351
v -0.01255628 -0.02462293 0.02469733
v -0.02012647 -0.01624285 0.01437616
v -0.02543881 -0.02352570 0.05259669
v -0.02247751 -0.02540023 0.04790407
v -0.02740464 -0.02053723 0.04888141
v -0.01569135 -0.02992904 0.04775462
v -0.01754110 -0.02964852 0.05306838
v -0.01329983 -0.02217517 0.01434650
v -0.02038463 -0.02756115 0.04981569
v -0.02943839 -0.01646627 0.04686949
v -0.02542653 -0.02237073 0.04688741
v -0.02214588 -0.01333647 0.01435326
v -0.01845071 -0.02838850 0.04792743
v -0.01944600 -0.02739099 0.04689149
f 7 1 2
f 7 2 3
f 8 2 1
f 11 7 3
f 11 1 7
f 12 1 11
f 12 11 3
f 12 3 6
f 16 8 1
f 18 12 6
f 18 6 4
f 18 4 14
f 20 2 8
f 21 14 4
f 21 9 16
f 24 4 6
f 24 6 15
f 24 15 22
f 24 21 4
f 24 9 21
f 25 14 21
f 25 18 14
f 25 1 12
f 27 3 2
f 28 6 3
f 28 15 6
f 28 17 10
f 29 5 19
f 29 26 5
f 29 8 26
f 30 13 19
f 31 19 13
f 31 13 20
f 31 20 8
f 33 5 23
f 34 22 15
f 34 15 23
f 34 24 22
f 34 9 24
f 35 16 9
f 35 34 23
f 35 9 34
f 35 23 5
f 35 5 26
f 36 25 21
f 36 21 16
f 36 16 1
f 36 1 25
f 37 25 12
f 37 12 18
f 37 18 25
f 38 26 8
f 38 8 16
f 38 35 26
f 38 16 35
f 39 3 27
f 39 28 3
f 39 17 28
f 40 28 10
f 41 29 19
f 41 8 29
f 41 31 8
f 41 19 31
f 42 30 10
f 42 13 30
f 43 19 5
f 43 5 33
f 44 2 32
f 44 17 39
f 44 39 27
f 44 27 2
f 45 32 2
f 45 2 20
f 45 20 32
f 46 10 17
f 46 44 32
f 46 17 44
f 47 32 20
f 47 20 13
f 47 13 42
f 47 42 10
f 48 33 23
f 48 23 15
f 49 40 10
f 49 10 30
f 49 43 40
f 49 30 19
f 49 19 43
f 50 15 28
f 50 28 40
f 50 48 15
f 50 33 48
f 50 43 33
f 50 40 43
f 51 46 32
f 51 10 46
f 51 32 47
f 52 51 47
f 52 47 10
f 52 10 51

