# https://github.com/mikedh/trimesh
v 0.02755992 0.02052387 0.05303243
v 0.03095919 0.01466827 0.05320388
v 0.01971602 0.01464649 0.00914464
v 0.01196512 0.01505231 0.00166057
v 0.01017044 0.03145996 0.05308942
v 0.01360547 0.01458242 0.00235567
v 0.02957110 0.01759129 0.05075875
v 0.02056850 0.02753012 0.05302567
v 0.01255415 0.01578489 0.00968942
v 0.01162609 0.02162042 0.00921179
v 0.01872033 0.01460503 0.00718591
v 0.02954426 0.01752032 0.05300935
v 0.03101789 0.01470497 0.05074443
v 0.02441793 0.02349158 0.04793960
v 0.00965425 0.03293923 0.05313263
v 0.00930739 0.02355714 0.02736230
v 0.01227333 0.01908656 0.00563514
v 0.01429321 0.02008934 0.00944768
v 0.02067447 0.01464658 0.01217408
v 0.03061519 0.01553329 0.05303143
v 0.02745327 0.02050054 0.04978857
v 0.02349617 0.02446503 0.04791914
v 0.01751350 0.02945413 0.04893841
v 0.00935942 0.02038859 0.01379778
v 0.02886739 0.01576023 0.05300241
v 0.01230755 0.01622342 0.00282600
v 0.01148193 0.01938842 0.00541495
v 0.01340874 0.01525516 0.00273055
v 0.01717475 0.01713950 0.00846707
v 0.01428680 0.01911476 0.00751729
v 0.02942607 0.01652030 0.04794705
v 0.01919334 0.01621778 0.01127662
v 0.02648753 0.02150196 0.04891652
v 0.01355105 0.03162673 0.05306321
v 0.01057470 0.03263457 0.04986524
v 0.01235017 0.02125843 0.00935251
v 0.02044703 0.02754477 0.04990155
v 0.00852782 0.02456673 0.01635333
v 0.01045776 0.02591215 0.03762487
v 0.01150299 0.01642780 0.00251888
v 0.01815369 0.01610546 0.00845664
v 0.01627293 0.01911418 0.01127721
v 0.01830836 0.01529503 0.00745817
v 0.02032391 0.01518430 0.01228909
v 0.01755551 0.02962103 0.05301245
v 0.01248242 0.03148948 0.04790258
v 0.01353163 0.03155444 0.04987874
v 0.01062646 0.03269941 0.05305665
v 0.01227628 0.02214406 0.01229845
v 0.01847808 0.02849137 0.04799177
v 0.00857664 0.02655606 0.02583700
v 0.00874045 0.02409254 0.01416235
v 0.00963014 0.03289277 0.04982550
v 0.01041190 0.02699570 0.04071522
v 0.01929648 0.01528973 0.00931496
f 8 2 1
f 9 6 2
f 9 4 6
f 11 2 6
f 12 7 1
f 12 1 2
f 15 5 2
f 15 2 8
f 16 5 15
f 19 11 3
f 19 13 2
f 19 2 11
f 20 12 2
f 20 2 13
f 20 13 7
f 20 7 12
f 21 1 7
f 21 7 19
f 24 4 9
f 24 9 16
f 25 16 9
f 25 9 2
f 25 2 5
f 27 10 17
f 27 17 26
f 28 11 6
f 28 26 17
f 28 6 4
f 28 4 26
f 30 17 10
f 30 18 29
f 30 28 17
f 31 19 7
f 31 7 13
f 31 13 19
f 32 22 14
f 33 22 8
f 33 8 1
f 33 1 21
f 33 14 22
f 33 32 14
f 33 21 19
f 34 15 8
f 36 23 18
f 36 30 10
f 36 18 30
f 37 8 22
f 38 24 16
f 39 16 25
f 40 27 26
f 40 26 4
f 40 4 24
f 42 29 18
f 42 32 29
f 42 22 32
f 42 37 22
f 43 30 29
f 43 11 28
f 43 28 30
f 43 29 41
f 44 19 3
f 44 33 19
f 44 32 33
f 45 34 8
f 45 37 23
f 45 8 37
f 47 46 35
f 47 10 46
f 47 45 23
f 47 34 45
f 48 15 34
f 48 47 35
f 48 34 47
f 49 36 10
f 49 23 36
f 49 47 23
f 49 10 47
f 50 18 23
f 50 23 37
f 50 42 18
f 50 37 42
f 51 38 16
f 51 16 15
f 52 10 27
f 52 27 40
f 52 40 24
f 52 24 38
f 52 46 10
f 52 35 46
f 53 52 38
f 53 35 52
f 53 48 35
f 53 15 48
f 53 51 15
f 53 38 51
f 54 39 25
f 54 25 5
f 54 5 16
f 54 16 39
f 55 43 41
f 55 3 11
f 55 11 43
f 55 44 3
f 55 32 44
f 55 41 29
f 55 29 32

