# https://github.com/mikedh/trimesh
v -0.02848265 0.01667807 0.05305289
v -0.01995547 0.01674878 0.03059196
v -0.02373460 0.01564202 0.02782377
v -0.02481962 0.00761890 0.01425047
v -0.03186400 -0.00597502 0.05129179
v -0.01947579 0.01633903 0.02759579
v -0.03058900 0.01553587 0.04988442
v -0.02309183 0.01673597 0.03990759
v -0.02225395 -0.00486749 0.01387865
v -0.03363259 0.00648884 0.05315191
v -0.03249731 -0.00584424 0.05313034
v -0.02146198 0.00786855 0.01406395
v -0.02554898 -0.00604213 0.03058423
v -0.03065815 0.01562873 0.05306463
v -0.03256289 0.01052768 0.04976162
v -0.02898018 0.01577751 0.05306760
v -0.03371254 -0.00458198 0.04876491
v -0.02663893 -0.00603949 0.03569092
v -0.03153275 0.01353238 0.04978309
v -0.03264217 0.01057947 0.05306544
v -0.03392433 -0.00554873 0.05305905
v -0.02553931 -0.00445758 0.01427424
v -0.03366601 0.00457280 0.04882747
v -0.03143654 0.01252469 0.04793191
v -0.03371837 0.00653691 0.05167116
v -0.03159920 0.01354881 0.05306201
v -0.02790362 -0.00558521 0.02778564
v -0.02543986 0.00543910 0.01427731
v -0.03368030 -0.00145105 0.04781568
v -0.03374240 0.00554642 0.04979342
v -0.03380191 -0.00553909 0.04977578
v -0.02500130 -0.00590081 0.02754378
v -0.02640935 0.00149458 0.01741777
v -0.02638536 -0.00145584 0.01739880
v -0.03361166 0.00249261 0.04783526
f 1 2 3
f 6 3 2
f 6 4 3
f 7 1 3
f 7 3 4
f 8 5 2
f 8 2 1
f 11 8 1
f 11 5 8
f 12 9 4
f 12 4 6
f 12 6 9
f 13 9 6
f 13 6 2
f 14 1 7
f 16 11 1
f 16 10 11
f 16 14 10
f 16 1 14
f 18 13 2
f 18 2 5
f 18 5 13
f 19 7 4
f 19 14 7
f 20 19 15
f 21 11 10
f 21 5 11
f 24 19 4
f 24 4 15
f 24 15 19
f 25 20 15
f 25 10 20
f 25 21 10
f 26 20 10
f 26 10 14
f 26 14 19
f 26 19 20
f 27 13 5
f 27 22 9
f 28 4 9
f 28 9 22
f 28 15 4
f 29 22 17
f 30 25 15
f 30 21 25
f 30 28 23
f 30 15 28
f 31 27 5
f 31 5 21
f 31 17 22
f 31 22 27
f 31 29 17
f 31 30 29
f 31 21 30
f 32 27 9
f 32 9 13
f 32 13 27
f 33 28 22
f 34 33 22
f 34 22 29
f 34 29 33
f 35 33 29
f 35 23 28
f 35 28 33
f 35 30 23
f 35 29 30

