# https://github.com/mikedh/trimesh
v -0.01295608 0.02232727 0.01410928
v -0.01295128 -0.02233197 0.01410863
v -0.01252943 -0.02160847 0.01020833
v -0.01266556 0.01265787 0.00033346
v -0.02553931 -0.00445758 0.01427424
v -0.01248749 0.02047649 0.00731266
v -0.01921888 -0.01738905 0.01437862
v -0.01725407 -0.00645250 0.00072511
v -0.01256280 0.02163673 0.01015458
v -0.01246325 -0.01452860 0.00147156
v -0.02312005 0.00835376 0.00840389
v -0.01448668 -0.02144038 0.01429781
v -0.01833095 0.01827707 0.01435090
v -0.02213500 -0.00836205 0.00660906
v -0.01250196 0.01449850 0.00138368
v -0.01265382 -0.01259205 0.00040858
v -0.01732644 0.00647450 0.00068473
v -0.01619397 -0.01919098 0.01038018
v -0.01431178 -0.02112833 0.01225767
v -0.02330633 0.01145323 0.01430566
v -0.01620590 0.01918721 0.01033980
v -0.01446622 0.02146055 0.01429032
v -0.02314445 -0.01037587 0.01124845
v -0.02426366 -0.00350982 0.00835205
v -0.01724922 -0.01122648 0.00278691
v -0.01810841 0.01324648 0.00470609
v -0.01729524 -0.01928375 0.01434306
v -0.01422306 -0.01713900 0.00468466
v -0.01332805 -0.02119306 0.01035866
v -0.02543986 0.00543910 0.01427731
v -0.01519143 0.01919049 0.00838645
v -0.02011748 0.01516548 0.01034429
v -0.01337401 0.02121600 0.01028047
v -0.02443026 -0.00850957 0.01425955
v -0.01912204 -0.01618385 0.01037775
v -0.02325825 0.00347080 0.00646709
v -0.02228235 -0.00544621 0.00552096
v -0.02429263 -0.00740054 0.01126393
v -0.02016306 -0.00937307 0.00470077
v -0.01521651 -0.01217924 0.00176957
v -0.01624099 0.01129796 0.00176850
v -0.02115827 0.00935804 0.00573674
v -0.01424828 0.01716742 0.00474880
v -0.01717064 -0.01914878 0.01334083
v -0.01251670 -0.02038204 0.00733770
v -0.02414828 0.00839301 0.01233013
v -0.02531272 0.00355735 0.01228894
v -0.02226409 0.01339403 0.01431631
v -0.01918356 0.01718759 0.01333970
v -0.02223866 0.01135319 0.00939119
v -0.01812547 0.01512391 0.00653006
v -0.01428009 0.02111987 0.01229037
v -0.01324791 0.02014761 0.00754680
v -0.02146357 -0.01445631 0.01427670
v -0.01905519 -0.01725938 0.01337884
v -0.02213013 -0.01127447 0.00931046
v -0.01517323 -0.01715709 0.00558182
v -0.02322340 -0.00647109 0.00743562
v -0.02327555 -0.00350167 0.00646790
v -0.02532091 -0.00346797 0.01226683
v -0.02428806 -0.00844519 0.01324656
v -0.01824946 -0.00937820 0.00274954
v -0.02125707 -0.00645310 0.00462288
v -0.01336852 -0.01231370 0.00060698
f 1 2 3
f 9 1 3
f 9 3 6
f 10 6 3
f 12 2 1
f 15 10 4
f 15 6 10
f 16 4 10
f 17 16 8
f 17 4 16
f 19 3 2
f 19 2 12
f 22 12 1
f 22 21 13
f 22 13 7
f 22 7 12
f 27 12 7
f 27 19 12
f 29 19 18
f 29 3 19
f 30 5 7
f 30 7 20
f 32 21 31
f 33 22 1
f 33 1 9
f 33 31 21
f 34 7 5
f 37 17 8
f 38 34 5
f 40 28 25
f 40 10 28
f 40 25 8
f 41 15 4
f 41 4 17
f 42 36 11
f 42 17 36
f 42 41 17
f 42 26 41
f 43 6 15
f 43 41 26
f 43 15 41
f 44 27 7
f 44 18 19
f 44 19 27
f 45 28 10
f 45 10 3
f 45 3 29
f 45 29 18
f 46 30 20
f 46 11 30
f 47 5 30
f 47 36 24
f 47 30 11
f 47 11 36
f 48 20 7
f 48 7 13
f 49 13 21
f 49 21 32
f 49 48 13
f 49 32 48
f 50 48 32
f 50 20 48
f 50 46 20
f 50 11 46
f 50 42 11
f 51 32 31
f 51 50 32
f 51 26 42
f 51 42 50
f 51 43 26
f 51 31 43
f 52 33 21
f 52 21 22
f 52 22 33
f 53 33 9
f 53 9 6
f 53 31 33
f 53 43 31
f 53 6 43
f 54 34 23
f 54 7 34
f 54 35 7
f 55 35 18
f 55 7 35
f 55 44 7
f 55 18 44
f 56 14 39
f 56 23 38
f 56 54 23
f 56 35 54
f 57 18 35
f 57 45 18
f 57 28 45
f 57 35 56
f 57 56 39
f 57 39 25
f 57 25 28
f 58 37 14
f 58 38 24
f 58 56 38
f 58 14 56
f 59 24 36
f 59 36 17
f 59 17 37
f 59 58 24
f 59 37 58
f 60 38 5
f 60 24 38
f 60 47 24
f 60 5 47
f 61 38 23
f 61 23 34
f 61 34 38
f 62 8 25
f 62 25 39
f 63 37 8
f 63 62 39
f 63 8 62
f 63 39 14
f 63 14 37
f 64 16 10
f 64 10 40
f 64 40 8
f 64 8 16

