# https://github.com/mikedh/trimesh
v 0.00159378 0.01512965 0.00880384
v 0.00159375 -0.01304279 0.00880011
v 0.00159434 -0.01303995 0.00000653
v -0.01243902 0.01346723 0.00063159
v -0.01313172 0.01527167 0.00957618
v -0.01315554 -0.01318477 0.00902287
v 0.00159411 0.01512756 0.00001676
v -0.01265382 -0.01259205 0.00040858
v -0.01250196 0.01449850 0.00138368
v -0.01139213 0.01436117 0.00068378
f 1 2 3
f 5 2 1
f 6 3 2
f 6 2 5
f 7 1 3
f 7 5 1
f 8 3 6
f 8 7 3
f 8 4 7
f 8 6 5
f 9 5 7
f 9 8 5
f 9 4 8
f 10 9 7
f 10 7 4
f 10 4 9

