# https://github.com/mikedh/trimesh
v 0.03095919 0.01466827 0.05320388
v 0.03362356 0.00567617 0.05333417
v 0.02525310 0.00566730 0.01413811
v 0.01651791 0.01543262 0.01399598
v 0.02436207 0.01573089 0.04084518
v 0.02195638 0.00590576 0.01396169
v 0.02137146 0.01440047 0.01435808
v 0.03261109 0.00960961 0.04888095
v 0.02866652 0.01565496 0.05233686
v 0.02901312 0.00599684 0.04290217
v 0.02562801 0.00551285 0.01634782
v 0.02149815 0.00717481 0.01376895
v 0.03270284 0.01054637 0.05302449
v 0.03287658 0.00550379 0.04682546
v 0.03066812 0.01458408 0.04887020
v 0.02929047 0.01545897 0.05328654
v 0.02432747 0.01705524 0.03500530
v 0.02113382 0.01565647 0.03162457
v 0.03248986 0.00584496 0.05316904
v 0.02381538 0.00612248 0.02318587
v 0.01703891 0.01480184 0.01381601
v 0.03270749 0.01050470 0.05077892
v 0.02448258 0.00843084 0.01430881
v 0.01681453 0.01572443 0.01599369
v 0.02690831 0.00607138 0.03565036
v 0.03154330 0.01252227 0.04889677
v 0.03159326 0.01352093 0.05086143
v 0.02325614 0.01138758 0.01439081
v 0.03160383 0.01350039 0.05305401
v 0.02221949 0.01319709 0.01439105
f 11 6 3
f 12 3 6
f 13 1 2
f 14 8 2
f 14 3 8
f 14 11 3
f 14 6 11
f 16 2 1
f 17 5 9
f 17 15 7
f 17 9 16
f 17 16 1
f 17 1 15
f 18 5 17
f 19 9 5
f 19 18 10
f 19 5 18
f 19 16 9
f 19 2 16
f 19 14 2
f 19 10 6
f 19 6 14
f 20 4 6
f 21 12 6
f 21 6 4
f 21 4 7
f 21 7 3
f 21 3 12
f 22 13 2
f 22 2 8
f 23 8 3
f 24 17 7
f 24 7 4
f 24 18 17
f 24 4 20
f 25 20 6
f 25 6 10
f 25 24 20
f 25 10 18
f 25 18 24
f 26 22 8
f 26 23 15
f 26 8 23
f 27 15 1
f 27 13 22
f 27 26 15
f 27 22 26
f 28 23 3
f 28 3 7
f 28 15 23
f 29 27 1
f 29 1 13
f 29 13 27
f 30 28 7
f 30 7 15
f 30 15 28

