# https://github.com/mikedh/trimesh
v 0.01172697 0.02285203 0.01420814
v 0.01239544 0.01882219 0.01393826
v 0.01167491 0.01464840 0.00118510
v -0.01055894 0.01463491 0.00047212
v -0.01361995 0.01803714 0.01386193
v 0.00248299 0.02326177 0.00651188
v 0.01140130 0.02029669 0.00656121
v -0.01253532 0.02259015 0.01426317
v 0.01219035 0.01534971 0.00936116
v 0.00541099 0.01730625 0.00071202
v 0.00743504 0.02313846 0.00840977
v 0.01052931 0.02341145 0.01429187
v -0.00940233 0.02211427 0.00750924
v -0.01250196 0.01449850 0.00138368
v 0.00968730 0.01471940 0.00030873
v -0.00541364 0.01735830 0.00067615
v 0.00835829 0.01725838 0.00164194
v 0.00844617 0.02025267 0.00461734
v 0.01133291 0.02216812 0.01033803
v 0.00153473 0.02575352 0.01424404
v -0.01236063 0.02111441 0.00843751
v -0.01360473 0.01580596 0.01011693
v -0.01126146 0.01916852 0.00471096
v -0.00243603 0.02330276 0.00649181
v 0.00944840 0.01533152 0.00061828
v 0.00448072 0.02229859 0.00556770
v 0.01037190 0.01620451 0.00170659
v 0.01047792 0.02323766 0.01331268
v -0.00846048 0.02436149 0.01430372
v 0.00640480 0.02428535 0.01119544
v -0.01227981 0.02013586 0.00665168
v -0.01129558 0.01821222 0.00376749
v 0.00150299 0.02459694 0.00915441
v -0.00636762 0.02026674 0.00370597
v 0.00541037 0.02327790 0.00750534
v 0.00546003 0.02128780 0.00467043
v 0.01037442 0.02012034 0.00565360
v 0.01144611 0.01531055 0.00156228
v 0.00358270 0.02558646 0.01426614
v -0.01036150 0.02328293 0.01225989
v -0.00538316 0.02440731 0.01022247
v 0.00753221 0.02452278 0.01427136
v 0.00829959 0.02313381 0.00933507
v -0.01034343 0.02212254 0.00836844
v -0.01033833 0.02113206 0.00665360
v -0.01033996 0.01523822 0.00073706
v -0.01226183 0.01524601 0.00178805
v -0.00536573 0.02217145 0.00562874
v -0.00939231 0.01919757 0.00374726
v 0.00446698 0.02428198 0.00925665
v 0.00148606 0.02556301 0.01324924
v -0.01233769 0.02226125 0.01224060
v -0.00537232 0.02330232 0.00736959
v -0.00940484 0.02318273 0.01035263
v 0.00745812 0.02435724 0.01329974
v -0.00840374 0.01625334 0.00069790
v -0.00833394 0.02122183 0.00558214
v -0.00637605 0.01821929 0.00174346
v 0.00355512 0.02539414 0.01331757
v -0.00742125 0.02319550 0.00838479
v -0.00841565 0.02418185 0.01335101
f 7 1 2
f 7 2 3
f 8 5 2
f 9 3 2
f 9 2 5
f 12 8 2
f 12 2 1
f 14 3 9
f 15 14 4
f 15 3 14
f 16 15 4
f 16 10 15
f 18 11 7
f 18 17 10
f 19 1 7
f 19 7 11
f 21 5 8
f 22 14 9
f 22 9 5
f 22 5 21
f 25 15 10
f 25 10 17
f 25 3 15
f 26 24 6
f 26 10 16
f 26 16 24
f 27 17 18
f 27 25 17
f 28 12 1
f 28 1 19
f 29 8 12
f 31 22 21
f 31 14 22
f 32 31 23
f 33 6 24
f 34 24 16
f 35 26 6
f 35 11 18
f 35 18 26
f 36 26 18
f 36 18 10
f 36 10 26
f 37 27 18
f 37 18 7
f 38 7 3
f 38 3 25
f 38 25 27
f 38 37 7
f 38 27 37
f 39 29 12
f 39 20 29
f 40 8 29
f 41 33 24
f 41 29 20
f 42 12 28
f 42 39 12
f 42 30 39
f 43 30 28
f 43 28 19
f 43 19 11
f 43 11 30
f 44 31 21
f 44 13 31
f 44 21 40
f 45 31 13
f 45 23 31
f 46 4 14
f 47 14 31
f 47 31 32
f 47 46 14
f 47 32 46
f 48 24 34
f 49 32 23
f 50 35 6
f 50 6 33
f 50 30 11
f 50 11 35
f 51 20 39
f 51 41 20
f 51 33 41
f 52 40 21
f 52 21 8
f 52 8 40
f 53 41 24
f 53 24 48
f 54 44 40
f 55 42 28
f 55 28 30
f 55 30 42
f 56 16 4
f 56 4 46
f 56 46 32
f 56 32 49
f 57 45 13
f 57 53 48
f 57 13 53
f 57 48 34
f 57 34 49
f 57 49 23
f 57 23 45
f 58 49 34
f 58 34 16
f 58 56 49
f 58 16 56
f 59 39 30
f 59 30 50
f 59 50 33
f 59 51 39
f 59 33 51
f 60 53 13
f 60 41 53
f 60 54 41
f 60 13 44
f 60 44 54
f 61 54 40
f 61 40 29
f 61 29 41
f 61 41 54

