# https://github.com/mikedh/trimesh
v -0.00670235 0.03355328 0.05332950
v -0.00684477 0.03246924 0.05325209
v -0.00647160 0.02766375 0.02786858
v -0.02057367 0.01960989 0.02783109
v -0.03036511 0.01598697 0.05324169
v -0.01749798 0.02940737 0.04899589
v -0.00653658 0.03180628 0.04356852
v -0.00703094 0.02426758 0.02746184
v -0.01634683 0.02326851 0.02786641
v -0.01955378 0.02850185 0.05306342
v -0.01140224 0.03268239 0.05093132
v -0.00713154 0.02682296 0.03774946
v -0.01901466 0.01683644 0.02743718
v -0.01038162 0.02630112 0.02786131
v -0.02345242 0.02537716 0.04988855
v -0.02345378 0.02549493 0.05306733
v -0.00656224 0.03298643 0.04775250
v -0.01349565 0.03166858 0.05308396
v -0.01946163 0.02846790 0.04985574
v -0.02848265 0.01667807 0.05305289
v -0.02373460 0.01564202 0.02782377
v -0.00739600 0.02740154 0.02789462
v -0.01349574 0.03150522 0.04984736
v -0.01926416 0.02125798 0.02897121
v -0.02848442 0.01954536 0.05077710
v -0.00856882 0.03260420 0.04786685
v -0.01148232 0.03265239 0.05250562
v -0.02045576 0.02747920 0.04901770
v -0.02247518 0.02653090 0.05249227
v -0.02262234 0.01720627 0.03968791
v -0.02443283 0.02449559 0.04989282
v -0.02760747 0.02055328 0.05307411
v -0.02989289 0.01572121 0.04775812
v -0.01058655 0.03277804 0.05311387
v -0.02246403 0.02648628 0.05091562
v -0.02043376 0.01719958 0.03355143
v -0.02546156 0.02246409 0.04787332
v -0.02548118 0.02358134 0.05239543
v -0.02853770 0.01952237 0.05241907
v -0.02840249 0.01853179 0.04791731
v -0.02949407 0.01759688 0.04983613
v -0.02326458 0.01634134 0.02793288
v -0.02547427 0.02359735 0.05079521
v -0.02441756 0.02449826 0.05304533
v -0.02960374 0.01755523 0.05305943
v -0.02950729 0.01655371 0.04791679
v -0.02737043 0.02044237 0.04888422
f 5 2 1
f 7 1 2
f 7 2 3
f 8 3 2
f 12 8 2
f 13 9 8
f 13 4 9
f 14 9 6
f 14 3 8
f 14 8 9
f 16 5 1
f 16 1 10
f 17 11 1
f 17 1 7
f 17 7 3
f 18 10 1
f 19 11 6
f 19 18 11
f 19 10 18
f 19 6 9
f 20 12 2
f 20 2 5
f 20 8 12
f 20 5 13
f 21 13 5
f 21 4 13
f 22 14 11
f 22 11 3
f 22 3 14
f 23 14 6
f 23 6 11
f 23 11 14
f 24 15 9
f 24 9 4
f 26 17 3
f 26 3 11
f 26 11 17
f 27 1 11
f 27 11 18
f 28 19 9
f 28 9 15
f 29 16 10
f 29 10 19
f 30 8 20
f 31 24 4
f 31 15 24
f 32 5 16
f 33 21 5
f 34 27 18
f 34 18 1
f 34 1 27
f 35 28 15
f 35 19 28
f 35 29 19
f 35 15 31
f 36 30 20
f 36 20 13
f 36 13 8
f 36 8 30
f 37 31 4
f 38 16 29
f 39 32 38
f 41 33 5
f 41 25 40
f 42 37 4
f 42 4 21
f 43 31 37
f 43 39 38
f 43 25 39
f 43 35 31
f 43 38 29
f 43 29 35
f 44 38 32
f 44 32 16
f 44 16 38
f 45 5 32
f 45 32 39
f 45 41 5
f 45 39 25
f 45 25 41
f 46 40 21
f 46 21 33
f 46 41 40
f 46 33 41
f 47 37 42
f 47 43 37
f 47 40 25
f 47 25 43
f 47 42 21
f 47 21 40

