# https://github.com/mikedh/trimesh
v 0.02137146 0.01440047 0.01435808
v 0.02555974 -0.00352269 0.01427095
v 0.01737276 0.00544747 0.00067904
v 0.00159411 0.01512756 0.00001676
v 0.00159375 -0.01304279 0.00880011
v 0.01434535 0.01440696 0.00273674
v 0.02419793 0.00539073 0.00931008
v 0.01853937 -0.01322290 0.01400854
v 0.00159378 0.01512965 0.00880384
v 0.00159434 -0.01303995 0.00000653
v 0.01135465 0.01430157 0.00076343
v 0.01651791 0.01543262 0.01399598
v 0.02550988 0.00449048 0.01425566
v 0.02232847 -0.00539408 0.00558596
v 0.01916655 0.01423774 0.00747235
v 0.02249318 -0.01249538 0.01426822
v 0.01426565 0.01128858 0.00076442
v 0.02448258 0.00843084 0.01430881
v 0.02543262 -0.00142641 0.01222433
v 0.02325625 0.00344245 0.00644688
v 0.01518294 -0.01035896 0.00063384
v 0.02349007 -0.01044991 0.01429386
v 0.01357451 -0.01240507 0.00064000
v 0.01625699 0.00836550 0.00074966
v 0.02423556 0.00736248 0.01124725
v 0.02539174 0.00249915 0.01227144
v 0.02437354 -0.00442731 0.00923383
v 0.02229588 0.00736260 0.00652086
v 0.01726709 -0.00547502 0.00069629
v 0.01924461 -0.01224207 0.00578875
v 0.01624456 0.01225136 0.00277900
v 0.02535037 0.00446461 0.01329623
v 0.02226308 0.01131933 0.01029981
v 0.02431591 0.00249334 0.00840695
v 0.02538101 -0.00348820 0.01327264
v 0.02464777 -0.00752281 0.01422892
v 0.02324254 0.00740299 0.00834640
v 0.02125531 0.00639923 0.00469308
v 0.02031195 -0.00649450 0.00373007
v 0.01513974 -0.01232163 0.00172369
v 0.02128923 -0.01239048 0.00925591
v 0.01920794 0.01231829 0.00565999
v 0.02013599 0.01420664 0.00937795
v 0.02229823 0.01226121 0.01232450
v 0.02325579 0.01037812 0.01228967
v 0.02428640 -0.00247324 0.00838617
v 0.02430405 -0.00743435 0.01226315
v 0.02328854 0.00834348 0.00933335
v 0.02231927 0.00533621 0.00559049
v 0.01825946 0.00640948 0.00171591
v 0.01627297 -0.00841598 0.00072867
v 0.02126981 -0.00839658 0.00559861
v 0.02217726 -0.01135660 0.01034755
v 0.02123133 0.00839681 0.00558407
v 0.01921611 0.00932222 0.00374036
v 0.02118758 0.01430108 0.01337688
v 0.02430726 0.00836161 0.01330065
v 0.02325109 -0.00348182 0.00651315
v 0.02323617 0.00931313 0.01037755
v 0.02130716 -0.00643684 0.00473362
v 0.02320205 -0.00739168 0.00837415
v 0.02220792 -0.01226236 0.01228435
v 0.02332033 -0.01038868 0.01329322
v 0.02230853 -0.00734797 0.00644897
f 9 4 5
f 10 5 4
f 10 4 3
f 10 8 5
f 11 4 6
f 12 6 4
f 12 4 9
f 12 8 1
f 12 9 5
f 12 5 8
f 15 6 12
f 16 1 8
f 17 11 6
f 17 4 11
f 18 2 13
f 19 13 2
f 20 14 3
f 22 1 16
f 22 18 1
f 22 2 18
f 23 8 10
f 23 10 21
f 24 3 4
f 24 4 17
f 25 18 13
f 26 13 19
f 29 21 10
f 29 10 3
f 29 3 14
f 31 24 17
f 31 17 6
f 32 25 13
f 32 7 25
f 32 26 7
f 32 13 26
f 34 20 7
f 34 7 26
f 34 26 19
f 35 27 19
f 35 19 2
f 36 2 22
f 37 7 20
f 37 20 28
f 39 29 14
f 40 23 21
f 40 21 30
f 41 16 8
f 41 8 23
f 41 40 30
f 41 23 40
f 42 31 6
f 42 6 15
f 42 33 28
f 42 15 33
f 43 33 15
f 43 15 12
f 43 12 1
f 44 1 18
f 44 33 43
f 45 44 18
f 45 33 44
f 46 34 19
f 46 19 27
f 46 20 34
f 47 27 35
f 47 35 2
f 47 2 36
f 47 36 22
f 48 25 7
f 48 7 37
f 48 37 28
f 48 28 33
f 49 28 20
f 49 20 3
f 49 3 38
f 50 38 3
f 50 3 24
f 51 21 29
f 51 29 39
f 52 30 21
f 52 51 39
f 52 21 51
f 52 41 30
f 54 42 28
f 54 49 38
f 54 28 49
f 55 24 31
f 55 31 42
f 55 42 54
f 55 50 24
f 55 54 38
f 55 38 50
f 56 44 43
f 56 43 1
f 56 1 44
f 57 45 18
f 57 18 25
f 57 25 45
f 58 46 27
f 58 14 20
f 58 20 46
f 59 45 25
f 59 25 48
f 59 48 33
f 59 33 45
f 60 52 39
f 60 39 14
f 61 27 47
f 61 47 53
f 61 53 41
f 62 16 41
f 62 41 53
f 63 53 47
f 63 47 22
f 63 62 53
f 63 22 16
f 63 16 62
f 64 58 27
f 64 14 58
f 64 27 61
f 64 60 14
f 64 52 60
f 64 61 41
f 64 41 52

