# https://github.com/mikedh/trimesh
v 0.01062509 0.03343830 0.05384705
v 0.01612729 0.03287142 0.04194475
v 0.00253342 0.03949707 0.03577845
v -0.01997688 0.03791300 0.03589575
v -0.02052598 0.03358027 0.05386991
v 0.01667455 0.03376076 0.03626277
v 0.01230120 0.03290483 0.05177619
v 0.00052441 0.03714646 0.04952861
v 0.01367232 0.03551680 0.03589204
v -0.02162799 0.03633747 0.03679416
v 0.01413880 0.03276307 0.04778866
v -0.01790618 0.03526640 0.05342036
v 0.00612268 0.03511049 0.05338353
v 0.01580853 0.03435112 0.03602317
v 0.00794239 0.03721349 0.03971046
v -0.02009858 0.03451728 0.05367094
v -0.01049933 0.03929092 0.03980468
v 0.01355623 0.03524715 0.03777256
v 0.01534044 0.03340637 0.04165376
v 0.00990249 0.03385388 0.05361907
v -0.01237284 0.03719238 0.04946899
v -0.00127135 0.03930668 0.03978576
v -0.01430553 0.03942932 0.03587404
v 0.01341427 0.03326463 0.04742530
v -0.01427844 0.03910533 0.03778984
f 7 1 5
f 9 4 3
f 10 4 6
f 10 6 2
f 10 2 5
f 11 7 5
f 11 5 2
f 11 1 7
f 13 3 8
f 13 8 12
f 14 6 4
f 14 4 9
f 14 2 6
f 15 9 3
f 15 3 13
f 16 10 5
f 16 4 10
f 16 12 4
f 16 5 1
f 16 13 12
f 16 1 13
f 18 14 9
f 18 9 15
f 19 11 2
f 19 2 14
f 20 15 13
f 20 13 1
f 20 18 15
f 20 1 18
f 21 12 8
f 22 8 3
f 22 3 17
f 22 21 8
f 22 17 21
f 23 17 3
f 23 3 4
f 24 18 1
f 24 1 11
f 24 11 19
f 24 19 14
f 24 14 18
f 25 21 17
f 25 17 23
f 25 12 21
f 25 23 4
f 25 4 12

