# https://github.com/mikedh/trimesh
v -0.02972646 0.02139364 0.06762216
v -0.02915691 -0.02759068 0.06436280
v -0.02982921 0.03288538 0.03610691
v -0.03641691 0.02796840 0.03582010
v -0.04645424 0.00743374 0.06418916
v -0.02977738 -0.03402680 0.03618537
v -0.03239914 0.02551912 0.06088777
v -0.02931959 0.02836084 0.05937165
v -0.03216710 -0.01312080 0.06740832
v -0.02948722 0.03240941 0.03991131
v -0.03119909 0.03202868 0.03592269
v -0.04423848 -0.01635952 0.03604519
v -0.03430500 0.02201839 0.06403119
v -0.04549181 0.01358481 0.05835254
v -0.02939059 0.02460431 0.06594412
v -0.03063270 0.02746461 0.05916306
v -0.04595466 -0.00449623 0.06370538
v -0.03036824 -0.01316622 0.06752492
v -0.03709288 0.00983706 0.06720636
v -0.02942626 -0.03363399 0.04197212
v -0.03102724 -0.03311695 0.03610641
v -0.04488687 0.01563372 0.05338169
v -0.03613401 0.02195475 0.06081031
v -0.04616956 0.01079791 0.06206846
v -0.03075034 0.02415386 0.06538251
v -0.03620765 0.02772028 0.03771032
v -0.03244730 0.02951223 0.04358097
v -0.03279512 -0.02204377 0.06539560
v -0.03782600 -0.02153419 0.05923865
v -0.03506600 0.01562195 0.06709421
v -0.03741533 -0.00334038 0.06722846
v -0.03999773 -0.02340429 0.03602392
v -0.04413337 0.01668152 0.03608800
v -0.03250767 0.02238090 0.06533685
v -0.03234335 0.02374650 0.06422161
v -0.03123077 0.02092662 0.06721466
v -0.03084730 0.03153006 0.03973248
v -0.03552679 -0.00908098 0.06718526
v -0.02973749 -0.02435295 0.06569864
v -0.04506234 -0.01114356 0.05841419
v -0.03443858 -0.02331601 0.06344736
v -0.03597214 -0.02715830 0.04578043
v -0.03657584 -0.01628403 0.06523127
v -0.03146979 -0.02413929 0.06517570
v -0.03782008 -0.02535308 0.04368370
v -0.04449063 -0.01306898 0.05509065
v -0.03780794 -0.01969879 0.06211024
v -0.03247952 -0.03064829 0.04569408
v -0.03415902 -0.02713702 0.05533253
v -0.04181583 -0.01979567 0.04180096
v -0.03599744 -0.02324868 0.06072430
v -0.04544441 -0.00787864 0.06169654
v -0.03063341 -0.03271433 0.04180477
v -0.02933772 -0.03147952 0.05558117
v -0.03986296 -0.02341431 0.03818354
v -0.02941441 -0.02986113 0.06137098
v -0.03057632 -0.03059184 0.05537324
v -0.03227618 -0.02691883 0.06194977
v -0.03045366 -0.02705027 0.06368872
v -0.03058252 -0.02898077 0.06096290
f 10 6 3
f 10 8 2
f 11 3 6
f 11 10 3
f 15 1 2
f 15 2 8
f 16 7 8
f 17 5 12
f 18 2 1
f 20 10 2
f 20 6 10
f 21 11 6
f 21 4 11
f 21 6 20
f 23 13 7
f 23 22 14
f 23 7 22
f 24 23 14
f 24 13 23
f 25 15 8
f 26 7 16
f 26 22 7
f 26 4 22
f 27 11 4
f 27 26 16
f 27 4 26
f 30 19 1
f 30 5 19
f 31 9 18
f 31 18 1
f 31 1 19
f 31 19 5
f 31 5 17
f 32 12 4
f 32 4 21
f 33 22 4
f 33 4 12
f 33 12 5
f 33 5 24
f 33 24 14
f 33 14 22
f 34 24 5
f 34 13 24
f 34 25 13
f 35 7 13
f 35 13 25
f 35 25 8
f 35 8 7
f 36 1 15
f 36 15 25
f 36 25 34
f 36 34 5
f 36 30 1
f 36 5 30
f 37 10 11
f 37 11 27
f 37 8 10
f 37 27 16
f 37 16 8
f 38 28 9
f 38 31 17
f 38 9 31
f 39 18 9
f 39 9 28
f 39 2 18
f 40 17 12
f 41 28 17
f 43 38 17
f 43 17 28
f 43 28 38
f 44 39 28
f 44 2 39
f 44 41 2
f 44 28 41
f 45 32 21
f 45 21 42
f 46 40 12
f 46 45 29
f 46 29 40
f 47 40 29
f 47 41 17
f 48 42 21
f 49 45 42
f 49 29 45
f 49 42 48
f 50 46 12
f 50 45 46
f 51 47 29
f 51 41 47
f 51 29 49
f 52 47 17
f 52 17 40
f 52 40 47
f 53 48 21
f 53 21 20
f 53 20 48
f 54 20 2
f 55 32 45
f 55 45 50
f 55 50 12
f 55 12 32
f 56 54 2
f 57 49 48
f 57 48 20
f 57 20 54
f 57 54 56
f 58 41 51
f 58 51 49
f 59 58 56
f 59 56 2
f 59 2 41
f 59 41 58
f 60 57 56
f 60 56 58
f 60 58 49
f 60 49 57

