# https://github.com/mikedh/trimesh
v 0.01919580 0.02068925 0.06721273
v 0.03051572 0.01112366 0.06085154
v 0.01357483 0.03186174 0.05350168
v -0.01251209 0.03630207 0.05362814
v -0.01206090 0.01376077 0.05858126
v 0.00057982 0.03340613 0.06417295
v 0.02222626 0.02382681 0.05889021
v 0.02377845 0.01180351 0.06789058
v 0.03169976 0.01186656 0.05378486
v 0.00438583 0.03555595 0.05350013
v -0.01258240 0.03063733 0.06735691
v 0.02239577 0.02202050 0.06287914
v 0.00089546 0.01207361 0.05779697
v 0.02630338 0.02037241 0.05519183
v 0.03021003 0.01485256 0.05333329
v 0.01141874 0.03120098 0.06097263
v 0.00032150 0.03523818 0.05927267
v -0.01229403 0.03322178 0.06439859
v -0.01320844 0.01500764 0.05982669
v 0.00817517 0.02832560 0.06724784
v 0.02668314 0.01318436 0.06558393
v 0.02857705 0.01132694 0.06460216
v 0.02640116 0.01820821 0.06093322
v 0.01930428 0.02791916 0.05367147
v 0.02966353 0.01287309 0.06068407
v 0.00990249 0.03385388 0.05361907
v 0.01879424 0.02551918 0.06264901
v 0.00422723 0.03323856 0.06278878
v -0.01234643 0.03528498 0.05920956
v -0.01327157 0.01794072 0.06797266
v 0.00846406 0.01428879 0.06799725
v 0.01732910 0.02263622 0.06719361
v 0.00247750 0.03027361 0.06724578
v 0.02411843 0.01675983 0.06589949
v 0.02714986 0.01157356 0.06581280
v 0.02789649 0.01658459 0.05932901
v 0.02652999 0.02063831 0.05345991
v 0.01327795 0.03124644 0.05710208
v 0.02797028 0.01458921 0.06242172
v 0.01886864 0.02743324 0.05700388
v 0.01508050 0.02743425 0.06423542
v 0.00963731 0.03312604 0.05715322
v 0.00430268 0.03519948 0.05531382
v 0.00429430 0.03135146 0.06583878
v 0.02394062 0.01861017 0.06445157
v 0.02317332 0.01528433 0.06714980
v 0.02807125 0.01270154 0.06423567
v 0.01539338 0.02609529 0.06558536
v 0.00790559 0.03127858 0.06396026
v 0.01182137 0.02639618 0.06713244
f 9 5 4
f 13 8 5
f 13 9 2
f 13 5 9
f 15 9 4
f 15 10 3
f 15 4 10
f 17 10 4
f 18 11 6
f 19 4 5
f 22 13 2
f 22 8 13
f 23 14 7
f 23 7 12
f 25 2 9
f 25 9 15
f 26 3 10
f 27 12 7
f 28 17 6
f 29 4 11
f 29 11 18
f 29 17 4
f 29 18 6
f 29 6 17
f 30 11 4
f 30 4 19
f 30 19 5
f 31 11 30
f 31 30 5
f 31 5 8
f 32 20 8
f 32 8 1
f 32 1 12
f 33 6 11
f 33 11 31
f 33 31 8
f 33 8 20
f 35 22 21
f 35 8 22
f 36 14 23
f 36 25 15
f 36 23 25
f 37 24 7
f 37 7 14
f 37 15 3
f 37 3 24
f 37 36 15
f 37 14 36
f 38 24 3
f 38 3 26
f 39 25 23
f 39 2 25
f 40 27 7
f 40 7 24
f 40 24 38
f 40 38 16
f 40 16 27
f 41 27 16
f 42 28 16
f 42 38 26
f 42 16 38
f 43 10 17
f 43 17 28
f 43 28 42
f 43 42 26
f 43 26 10
f 44 28 6
f 44 33 20
f 44 6 33
f 45 12 1
f 45 1 34
f 45 23 12
f 45 39 23
f 46 34 1
f 46 1 8
f 46 21 34
f 46 35 21
f 46 8 35
f 47 22 2
f 47 2 39
f 47 39 45
f 47 21 22
f 47 45 34
f 47 34 21
f 48 41 20
f 48 32 12
f 48 12 27
f 48 27 41
f 49 44 20
f 49 20 41
f 49 41 16
f 49 16 28
f 49 28 44
f 50 48 20
f 50 20 32
f 50 32 48

