# https://github.com/mikedh/trimesh
v 0.03350480 0.00996498 0.04593216
v 0.04400213 -0.00324397 0.02003327
v 0.04384869 0.01337469 0.01286603
v 0.03384998 0.01191760 0.00231676
v 0.03344990 -0.01489505 0.04004586
v 0.04154870 0.01170293 0.00761775
v 0.03322616 0.02127711 0.01843463
v 0.04424713 0.00889836 0.02051889
v 0.03386570 -0.01122826 0.04600787
v 0.03621879 -0.01200025 0.02076697
v 0.04416396 0.01231105 0.01265677
v 0.04371810 0.01252817 0.01827420
v 0.03320516 0.01939884 0.02421739
v 0.03345429 0.02141023 0.00721505
v 0.03360116 -0.01309335 0.04400420
v 0.03372543 0.00940960 0.04565778
v 0.03401161 -0.01075743 0.04580052
v 0.03390554 -0.01508172 0.03621698
v 0.03869388 0.01190680 0.00475034
v 0.03342100 0.01378108 0.03805337
v 0.03369521 0.01525494 0.00313276
v 0.03673826 0.01597935 0.00471079
v 0.03731627 -0.01099573 0.02048821
v 0.03804425 0.01362344 0.00440589
v 0.03560942 0.01516031 0.00359547
v 0.03562722 0.01186346 0.00287797
f 11 6 3
f 11 2 6
f 11 8 2
f 12 3 7
f 12 1 8
f 12 11 3
f 12 8 11
f 13 7 5
f 13 5 1
f 13 12 7
f 14 5 7
f 14 7 3
f 15 5 2
f 15 2 9
f 15 9 1
f 15 1 5
f 16 8 1
f 16 1 9
f 17 9 2
f 17 2 8
f 17 16 9
f 17 8 16
f 18 5 4
f 18 4 10
f 18 2 5
f 19 6 2
f 20 13 1
f 20 1 12
f 20 12 13
f 21 4 5
f 21 5 14
f 22 14 3
f 22 3 6
f 23 18 10
f 23 2 18
f 23 19 2
f 24 22 6
f 24 6 19
f 25 21 14
f 25 14 22
f 25 22 24
f 25 4 21
f 26 23 10
f 26 10 4
f 26 19 23
f 26 24 19
f 26 25 24
f 26 4 25

