# https://github.com/mikedh/trimesh
v 0.04904008 0.00423523 0.06345613
v 0.06117917 -0.00048118 0.04950107
v 0.06207547 0.00684585 0.04541878
v 0.05533968 0.00728834 0.03618587
v 0.04390510 -0.00546854 0.05532870
v 0.05950602 -0.00296389 0.03628119
v 0.04359271 0.00623683 0.06274530
v 0.05767089 0.00322953 0.05800772
v 0.06170624 -0.00067750 0.04577472
v 0.05972825 0.00922843 0.03619976
v 0.05596169 -0.00151593 0.03658165
v 0.05295849 -0.00502860 0.05917271
v 0.05470684 0.00609048 0.05803743
v 0.04413372 0.00662322 0.05711404
v 0.05957179 0.00352375 0.05468901
v 0.04406980 -0.00291181 0.05388135
v 0.05375053 -0.00515018 0.05405389
v 0.05780188 -0.00061291 0.05820651
v 0.04389495 -0.00581605 0.06377991
v 0.05762226 -0.00334384 0.05520174
v 0.05110480 0.00595642 0.06007585
v 0.05423594 0.00808530 0.04977851
v 0.05454675 0.00277174 0.06126352
v 0.05657992 0.00833633 0.03626749
v 0.06144825 0.00546400 0.04902202
v 0.04487736 0.00326925 0.05392943
v 0.05822030 -0.00340518 0.03846654
v 0.05935676 -0.00068216 0.05492615
v 0.04897685 -0.00567343 0.06200312
v 0.04386970 0.00516032 0.06428558
v 0.05942502 -0.00215237 0.05306687
v 0.05580740 -0.00350864 0.05833468
v 0.05903666 -0.00320827 0.03833174
v 0.05896530 0.00768840 0.04941940
v 0.05241989 0.00433924 0.06141049
v 0.05790874 0.00589887 0.05473145
v 0.05422206 -0.00083695 0.06164480
v 0.04894834 -0.00397514 0.06322006
v 0.04562211 0.00592724 0.06252610
v 0.05246151 -0.00369977 0.06147864
v 0.06174122 0.00637062 0.04714314
v 0.05564030 -0.00208675 0.05971538
v 0.04545101 -0.00574404 0.06357865
f 9 6 3
f 9 3 2
f 10 6 4
f 10 3 6
f 11 6 5
f 11 4 6
f 16 11 5
f 16 4 11
f 16 5 7
f 16 7 14
f 18 15 8
f 19 7 5
f 20 12 17
f 21 13 7
f 21 1 13
f 22 14 7
f 22 10 14
f 23 8 13
f 23 18 8
f 24 14 10
f 24 10 4
f 24 4 14
f 25 15 2
f 25 2 3
f 26 16 14
f 26 14 4
f 26 4 16
f 27 17 5
f 27 5 6
f 28 2 15
f 28 15 18
f 29 17 12
f 29 19 5
f 29 5 17
f 30 7 19
f 31 9 2
f 31 2 28
f 31 28 18
f 31 18 20
f 31 6 9
f 32 20 18
f 32 12 20
f 33 20 17
f 33 31 20
f 33 6 31
f 33 27 6
f 33 17 27
f 34 22 7
f 34 7 13
f 34 3 10
f 34 10 22
f 35 23 13
f 35 13 1
f 35 1 23
f 36 8 15
f 36 15 25
f 36 34 13
f 36 13 8
f 37 18 23
f 37 23 1
f 38 30 19
f 38 1 30
f 38 37 1
f 39 21 7
f 39 7 30
f 39 30 1
f 39 1 21
f 40 29 12
f 40 12 32
f 40 38 29
f 40 37 38
f 41 36 25
f 41 25 3
f 41 3 34
f 41 34 36
f 42 32 18
f 42 18 37
f 42 40 32
f 42 37 40
f 43 38 19
f 43 19 29
f 43 29 38

