# https://github.com/mikedh/trimesh
v 0.00073649 0.03980265 0.03586686
v 0.00081136 -0.04128542 0.03616480
v 0.00098601 -0.01923832 0.00064820
v -0.03119687 0.03164357 0.00292296
v -0.05244332 -0.00276767 0.03676146
v 0.00094376 0.04137858 0.00450834
v -0.05045701 -0.00632837 0.03685465
v -0.03460658 0.02964143 0.03573491
v -0.03843027 -0.02213253 0.00124039
v 0.00068118 0.03848676 0.00320386
v -0.05201495 0.00736870 0.03681250
v -0.01976533 0.04106774 0.01829364
v -0.04157370 -0.01508752 0.00101240
v -0.04380528 -0.02173341 0.00746616
v -0.01069666 -0.04244378 0.00402626
v 0.00098938 -0.00945161 0.00099907
v -0.01257025 0.03966971 0.00299306
v -0.01606855 0.03906109 0.03579469
v -0.03988160 0.02784460 0.00769269
v -0.00310451 0.04343744 0.01460876
v -0.01061067 -0.03925533 0.00073040
v -0.04961284 0.00603181 0.00748288
v -0.04372328 -0.02169943 0.01641083
v -0.04360249 -0.01997389 0.00463535
v 0.00068027 -0.04277446 0.01848363
v -0.02509889 -0.03835498 0.00408547
v -0.04017195 -0.01337890 0.00104707
v -0.00315986 0.04065554 0.00333091
v -0.02542395 0.03906118 0.00916563
v -0.02897234 0.03347591 0.03585912
v -0.03980771 0.02795684 0.01618878
v 0.00072768 0.04140269 0.02605269
v -0.00865550 0.04333839 0.00913723
v -0.01237947 0.04111772 0.02796485
v -0.02545216 -0.03531892 0.00110443
v -0.04742942 0.01510776 0.00757004
v -0.04985866 -0.00530409 0.00930474
v -0.04566403 -0.01810946 0.00736177
v -0.02884114 -0.03472132 0.03608814
v -0.04046661 -0.01829189 0.00126153
v 0.00075445 -0.04251867 0.02232257
v -0.01825234 -0.03906740 0.00127758
v -0.03814207 -0.02882133 0.00584898
v -0.02540815 0.03565349 0.00291114
v -0.03277168 0.03366973 0.00629856
v -0.02157911 0.03731629 0.03577837
v -0.03070119 0.03549066 0.02017299
v -0.04382516 0.02246547 0.01627201
v -0.03808629 0.02614059 0.03579109
v -0.00120596 0.04125093 0.02808995
v -0.00301090 0.04343805 0.00910122
v -0.01589529 0.04138773 0.00618973
v -0.00851200 0.04128590 0.00451947
v -0.01799854 0.04100964 0.02208911
v -0.01052307 0.04338536 0.01461107
v -0.03435229 -0.02762553 0.00127292
v -0.04230170 0.02271470 0.00521564
v -0.04782738 -0.00714743 0.00465394
v -0.04557305 -0.01801279 0.01644116
v -0.04736400 -0.01247168 0.00568092
v -0.01614165 -0.04034920 0.03622988
v -0.03999773 -0.02340429 0.03602392
v -0.04425152 -0.01453734 0.00294699
v -0.02143012 -0.04007699 0.00383409
f 6 1 2
f 7 2 1
f 11 7 1
f 11 5 7
f 16 10 6
f 16 6 2
f 16 2 3
f 17 10 16
f 18 11 1
f 21 13 3
f 22 5 11
f 23 7 5
f 25 21 3
f 25 15 21
f 27 16 3
f 27 3 13
f 27 17 16
f 28 6 10
f 28 10 17
f 30 8 11
f 30 11 18
f 32 1 6
f 34 18 1
f 35 13 21
f 36 22 11
f 37 5 22
f 38 14 23
f 38 24 14
f 40 13 9
f 40 9 24
f 41 25 3
f 41 3 2
f 42 21 15
f 42 35 21
f 43 14 24
f 43 35 26
f 43 26 39
f 43 23 14
f 44 17 27
f 44 27 13
f 44 13 4
f 45 44 4
f 45 29 44
f 46 30 18
f 47 8 30
f 47 31 8
f 47 29 45
f 47 45 19
f 47 19 31
f 47 12 29
f 47 46 12
f 47 30 46
f 48 31 19
f 48 11 31
f 48 36 11
f 48 19 36
f 49 31 11
f 49 11 8
f 49 8 31
f 50 32 20
f 50 1 32
f 50 34 1
f 51 32 6
f 51 20 32
f 52 44 29
f 52 17 44
f 53 6 28
f 53 52 33
f 53 28 17
f 53 17 52
f 53 51 6
f 53 33 51
f 54 18 34
f 54 46 18
f 54 12 46
f 55 54 34
f 55 12 54
f 55 33 52
f 55 52 29
f 55 29 12
f 55 51 33
f 55 20 51
f 55 50 20
f 55 34 50
f 56 9 13
f 56 13 35
f 56 35 43
f 56 43 24
f 56 24 9
f 57 36 19
f 57 4 13
f 57 22 36
f 57 45 4
f 57 19 45
f 58 37 22
f 58 57 13
f 58 22 57
f 59 38 23
f 59 23 5
f 59 5 38
f 60 38 5
f 60 5 37
f 60 37 58
f 60 24 38
f 61 2 7
f 61 7 39
f 61 41 2
f 61 15 25
f 61 25 41
f 62 39 7
f 62 7 23
f 62 43 39
f 62 23 43
f 63 40 24
f 63 13 40
f 63 24 60
f 63 60 58
f 63 58 13
f 64 42 15
f 64 26 35
f 64 35 42
f 64 15 61
f 64 61 39
f 64 39 26

