# https://github.com/mikedh/trimesh
v 0.05932532 0.00832557 0.04575338
v 0.06351369 0.00289037 0.04189142
v 0.05980690 0.00838366 0.01985332
v 0.03384998 0.01191760 0.00231676
v 0.03681273 -0.01031138 0.02081530
v 0.04206499 0.01389294 0.01276513
v 0.06350803 0.00692931 0.04134801
v 0.05947853 -0.00312362 0.04604305
v 0.03645110 0.01305238 0.02146214
v 0.03391284 -0.00933837 0.00143935
v 0.06217722 0.00791805 0.04152896
v 0.05081386 0.01035701 0.01274208
v 0.06207547 0.00684585 0.04541878
v 0.06331849 0.00291601 0.02493376
v 0.05682196 -0.00312490 0.01878801
v 0.04950859 0.01197941 0.01652858
v 0.06161311 0.00804168 0.02301400
v 0.04100035 0.01283094 0.00796718
v 0.05615956 0.00555960 0.01313913
v 0.06170624 -0.00067750 0.04577472
v 0.06029988 0.00799766 0.04559911
v 0.06333283 0.00684502 0.02541057
v 0.03497407 -0.00922597 0.00239231
v 0.05999803 -0.00133432 0.02097853
v 0.04914231 0.01176318 0.01391872
v 0.03672518 0.01199286 0.00334655
v 0.05453102 0.00973224 0.01569388
v 0.05607516 -0.00020958 0.01296524
v 0.06329561 0.00138258 0.02863904
v 0.06161820 0.00522707 0.01951552
v 0.05080955 -0.00484894 0.01365785
v 0.05441527 -0.00302030 0.01400289
v 0.06331506 0.00133752 0.03983765
v 0.06143035 -0.00005392 0.02309145
v 0.06051745 -0.00221513 0.04589632
v 0.05974264 0.00486160 0.01625736
v 0.05126028 -0.00500716 0.01773392
v 0.05765638 -0.00140330 0.01601286
v 0.06135064 0.00159032 0.01939017
v 0.05764247 -0.00021937 0.01446424
v 0.05949883 0.00123550 0.01616245
f 9 6 4
f 9 1 6
f 9 8 1
f 9 5 8
f 10 9 4
f 10 5 9
f 11 6 1
f 13 2 7
f 13 7 11
f 15 8 5
f 16 6 11
f 17 16 11
f 17 3 16
f 18 4 6
f 20 2 13
f 20 13 1
f 20 1 8
f 21 13 11
f 21 11 1
f 21 1 13
f 22 7 2
f 22 2 14
f 22 17 11
f 22 11 7
f 23 5 10
f 24 8 15
f 25 6 16
f 25 18 6
f 25 12 18
f 25 16 3
f 26 18 12
f 26 4 18
f 26 12 19
f 26 10 4
f 27 19 12
f 27 3 19
f 27 25 3
f 27 12 25
f 28 26 19
f 28 10 26
f 29 14 2
f 30 3 17
f 30 17 22
f 30 22 14
f 31 5 23
f 32 23 10
f 32 10 28
f 32 31 23
f 32 15 31
f 33 29 2
f 33 2 20
f 34 29 24
f 34 14 29
f 35 20 8
f 35 8 24
f 35 24 29
f 35 33 20
f 35 29 33
f 36 19 3
f 36 3 30
f 36 28 19
f 37 31 15
f 37 15 5
f 37 5 31
f 38 24 15
f 38 15 32
f 39 30 14
f 39 14 34
f 39 34 24
f 39 24 38
f 40 38 32
f 40 32 28
f 41 39 38
f 41 38 40
f 41 36 30
f 41 30 39
f 41 40 28
f 41 28 36

