# https://github.com/mikedh/trimesh
v 0.02493179 0.01147316 0.06738393
v 0.03287054 -0.00774160 0.06359522
v 0.03207045 0.01114896 0.05354689
v 0.00089546 0.01207361 0.05779697
v 0.00736587 -0.01973056 0.06629560
v 0.00979145 0.01313955 0.06795856
v 0.03428868 0.00632748 0.06396918
v 0.02187190 -0.01673382 0.06741861
v 0.03037854 -0.01819625 0.05365418
v 0.00110734 0.01224778 0.05850560
v 0.02981181 0.01099335 0.06267022
v 0.01680630 -0.01716416 0.06755056
v 0.02721619 -0.00713427 0.06715081
v 0.02489266 -0.01818713 0.06585982
v 0.03204227 -0.01436411 0.05354982
v 0.00097393 -0.01871959 0.05910378
v 0.00096818 -0.01936356 0.05984171
v 0.03328609 0.00826965 0.06215933
v 0.02717103 0.00414877 0.06726056
v 0.03218282 -0.00132695 0.06529465
v 0.02819894 -0.01818130 0.06214746
v 0.02537349 -0.01282315 0.06707363
v 0.02987168 -0.01808260 0.05728561
v 0.03259829 0.00989008 0.05800944
v 0.02665670 -0.01622267 0.06541772
v 0.03176685 -0.01204995 0.06059804
v 0.02796991 -0.01593070 0.06402110
v 0.02983110 -0.01603598 0.06091844
f 6 1 3
f 8 1 6
f 9 4 3
f 10 6 3
f 10 3 4
f 11 3 1
f 11 1 7
f 12 8 6
f 12 6 5
f 12 5 8
f 14 8 5
f 15 7 2
f 15 9 3
f 15 3 7
f 16 4 9
f 17 5 6
f 17 6 10
f 17 10 4
f 17 4 16
f 17 16 9
f 17 9 5
f 18 11 7
f 19 7 1
f 19 1 8
f 19 8 13
f 20 13 2
f 20 2 7
f 20 19 13
f 20 7 19
f 21 14 5
f 21 5 9
f 22 13 8
f 22 8 14
f 22 2 13
f 23 9 15
f 23 21 9
f 24 18 7
f 24 7 3
f 24 3 11
f 24 11 18
f 25 14 21
f 25 22 14
f 25 2 22
f 26 23 15
f 26 15 2
f 27 25 21
f 27 21 2
f 27 2 25
f 28 26 2
f 28 2 21
f 28 21 23
f 28 23 26

