# https://github.com/mikedh/trimesh
v -0.05343142 0.00665394 0.06762247
v -0.04505851 -0.01184082 0.05705872
v -0.04574437 0.01222524 0.06052231
v -0.04516138 0.01533607 0.03624523
v -0.06352387 -0.00017634 0.06070366
v -0.04547121 0.01426425 0.05703421
v -0.04671622 -0.00083002 0.06495881
v -0.04566176 -0.01314656 0.03624447
v -0.04544441 -0.00787864 0.06169654
v -0.05720306 0.01005596 0.06469031
v -0.04693197 0.00570352 0.06501332
v -0.05347162 0.00084278 0.03690478
v -0.06019501 -0.00356777 0.06444069
v -0.04529503 -0.00963640 0.06026935
v -0.05520218 0.00730165 0.06757452
v -0.04890628 0.01351664 0.05531794
v -0.06428760 0.00545138 0.06079463
v -0.04673801 0.00899835 0.06338612
v -0.05183395 0.00380931 0.06751764
v -0.05177815 -0.00428369 0.03703270
v -0.04593559 0.01435037 0.03624316
v -0.05490381 -0.00703131 0.05910724
v -0.06372942 -0.00056514 0.06270044
v -0.05890176 -0.00340738 0.06580726
v -0.05894862 0.00986910 0.06162750
v -0.06391887 0.00550694 0.06226793
v -0.06328795 0.00109994 0.05944468
v -0.05468440 -0.00149514 0.06790803
v -0.05332024 -0.00257110 0.03910728
v -0.05146680 0.00857366 0.03716101
v -0.06199302 -0.00216474 0.06404860
v -0.06175261 0.00845223 0.06257020
v -0.06019504 -0.00240000 0.06562794
v -0.05324854 -0.00039081 0.06772366
v -0.05710383 -0.00239551 0.06705731
v -0.05345448 0.00370295 0.03707038
v -0.06185188 0.00793498 0.06069418
v -0.05794572 0.00883532 0.06525609
v -0.06041286 -0.00066827 0.06547349
v -0.05579102 0.00420691 0.06763157
f 6 2 4
f 8 4 2
f 9 6 3
f 10 3 6
f 11 9 3
f 11 7 9
f 14 2 6
f 14 6 9
f 15 1 3
f 15 3 10
f 16 10 6
f 16 6 4
f 18 11 3
f 18 3 1
f 18 1 11
f 19 11 1
f 19 7 11
f 20 12 8
f 20 8 5
f 21 4 8
f 21 8 12
f 22 13 8
f 22 8 2
f 22 2 13
f 23 5 8
f 23 17 5
f 24 13 2
f 24 2 14
f 25 16 4
f 25 10 16
f 26 17 23
f 27 17 12
f 27 12 5
f 27 5 17
f 28 19 1
f 28 1 15
f 28 9 7
f 28 14 9
f 29 20 5
f 29 5 12
f 29 12 20
f 30 17 4
f 30 4 21
f 31 23 8
f 31 8 13
f 32 25 4
f 32 17 26
f 32 10 25
f 33 23 31
f 33 31 13
f 33 13 24
f 34 28 7
f 34 7 19
f 34 19 28
f 35 24 14
f 35 14 28
f 35 33 24
f 36 30 21
f 36 21 12
f 36 12 17
f 36 17 30
f 37 32 4
f 37 4 17
f 37 17 32
f 38 32 26
f 38 26 15
f 38 15 10
f 38 10 32
f 39 15 26
f 39 26 23
f 39 23 33
f 40 35 28
f 40 28 15
f 40 15 39
f 40 39 33
f 40 33 35

