# https://github.com/mikedh/trimesh
v 0.00097994 -0.01918000 0.01861890
v 0.00068027 -0.04277446 0.01848363
v 0.00098601 -0.01923832 0.00064820
v -0.01077187 -0.01923996 0.00069718
v -0.01077936 -0.01918000 0.01861890
v -0.00107365 -0.03917578 0.00047960
v 0.00071938 -0.04251169 0.00547852
v -0.01077936 -0.02113989 0.01861890
v 0.00065640 -0.03904681 0.00062330
v -0.01069666 -0.04244378 0.00402626
v -0.00117562 -0.04226249 0.00413070
v -0.01059744 -0.04294506 0.01848259
v -0.01061067 -0.03925533 0.00073040
v 0.00065176 -0.04088985 0.00266119
f 5 1 3
f 5 3 4
f 6 4 3
f 7 1 2
f 7 3 1
f 8 2 1
f 8 1 5
f 8 5 4
f 9 6 3
f 9 3 7
f 10 8 4
f 11 10 6
f 11 7 10
f 12 10 7
f 12 7 2
f 12 2 8
f 12 8 10
f 13 10 4
f 13 4 6
f 13 6 10
f 14 9 7
f 14 7 11
f 14 11 6
f 14 6 9

