# https://github.com/mikedh/trimesh
v 0.03012484 0.02057003 0.03585470
v 0.03581689 0.00047095 0.03640923
v 0.03369521 0.01525494 0.00313276
v 0.00068118 0.03848676 0.00320386
v 0.00097994 0.00041884 0.03625786
v 0.02278134 0.03351712 0.00905798
v 0.03185795 0.02235396 0.02207051
v 0.00073649 0.03980265 0.03586686
v 0.03425078 0.00040163 0.00125022
v 0.01986932 0.03133903 0.00332344
v 0.03228792 0.01703662 0.03596422
v 0.02450176 0.02752940 0.03554252
v 0.03022773 0.02612657 0.00913029
v 0.00802765 0.04103539 0.00783034
v 0.00098150 0.00040559 0.00135837
v 0.00673290 0.03881951 0.00335846
v 0.03039593 0.02083864 0.00302254
v 0.03186063 0.01848447 0.03382121
v 0.01714875 0.03353156 0.03582484
v 0.02821570 0.02593822 0.02595080
v 0.03222257 0.02231650 0.00649632
v 0.00094376 0.04137858 0.00450834
v 0.01535402 0.03740003 0.00628992
v 0.02274698 0.03345405 0.01639549
v 0.00806653 0.04106191 0.01832270
v 0.03018026 0.02619564 0.01623506
v 0.03221978 0.02057966 0.00473940
v 0.02845201 0.02790025 0.00769564
v 0.00072768 0.04140269 0.02605269
v 0.00303952 0.04133743 0.00448517
v 0.01349569 0.03753459 0.00497283
v 0.02260280 0.03142201 0.02593021
v 0.00988300 0.03724777 0.03581400
v 0.01719437 0.03726445 0.01635073
v 0.02834264 0.02786976 0.01805300
v 0.02105592 0.03348956 0.00633268
v 0.02593248 0.02637574 0.00343062
v 0.00619867 0.04106600 0.02214613
v 0.01914296 0.03348600 0.00441481
v 0.01171756 0.03901952 0.00598043
v 0.01909457 0.03331631 0.02997922
v 0.02456090 0.03155670 0.01801447
v 0.01918947 0.03535160 0.01998704
v 0.01722077 0.03736620 0.00942208
v 0.01354930 0.03710992 0.02786753
v 0.02455474 0.03159576 0.00760687
v 0.00262042 0.04117278 0.02610464
v 0.01170805 0.03907178 0.02205852
v 0.00253342 0.03949707 0.03577845
v 0.00592061 0.04113905 0.00575886
v 0.01360918 0.03919431 0.01633040
v 0.01371034 0.03888986 0.00774998
f 7 2 3
f 8 5 2
f 8 4 5
f 9 3 2
f 9 2 5
f 11 2 7
f 15 9 5
f 15 5 4
f 15 4 9
f 16 10 9
f 16 9 4
f 17 3 9
f 17 9 10
f 18 11 7
f 18 7 1
f 18 1 11
f 19 8 2
f 19 2 11
f 19 11 1
f 19 1 12
f 20 12 1
f 20 1 7
f 21 7 3
f 26 20 7
f 26 6 24
f 26 21 13
f 26 7 21
f 27 21 3
f 27 3 17
f 28 13 21
f 28 26 13
f 28 6 26
f 28 21 27
f 29 22 4
f 29 4 8
f 30 16 4
f 30 4 22
f 30 25 14
f 30 29 25
f 30 22 29
f 31 16 30
f 32 19 12
f 33 8 19
f 35 26 24
f 35 12 20
f 35 20 26
f 36 23 6
f 37 17 10
f 37 28 27
f 37 27 17
f 38 25 29
f 39 10 16
f 39 16 31
f 39 31 23
f 39 23 36
f 39 37 10
f 40 31 30
f 40 23 31
f 41 32 24
f 41 19 32
f 42 32 12
f 42 24 32
f 42 35 24
f 42 12 35
f 43 34 19
f 43 24 34
f 43 41 24
f 43 19 41
f 44 34 24
f 44 24 6
f 44 6 23
f 45 33 19
f 45 19 34
f 46 36 6
f 46 6 28
f 46 28 37
f 46 39 36
f 46 37 39
f 47 38 29
f 47 29 8
f 48 38 33
f 48 25 38
f 48 33 45
f 49 8 33
f 49 33 38
f 49 47 8
f 49 38 47
f 50 40 30
f 50 30 14
f 51 14 25
f 51 34 44
f 51 25 48
f 51 48 45
f 51 45 34
f 52 51 44
f 52 14 51
f 52 50 14
f 52 40 50
f 52 44 23
f 52 23 40

