# https://github.com/mikedh/trimesh
v 0.03581689 0.00047095 0.03640923
v 0.03532109 -0.01106052 0.03612951
v 0.03425078 0.00040163 0.00125022
v 0.00098150 0.00040559 0.00135837
v 0.00097994 0.00041884 0.03625786
v 0.00071938 -0.04251169 0.00547852
v 0.03794850 -0.00887946 0.00555912
v 0.00081136 -0.04128542 0.03616480
v 0.00065640 -0.03904681 0.00062330
v 0.03842351 -0.00856362 0.02033910
v 0.02089821 -0.03284768 0.03608290
v 0.00098938 -0.00945161 0.00099907
v 0.02263445 -0.03264225 0.00410728
v 0.00065176 -0.04088985 0.00266119
v 0.01178346 -0.04029878 0.01255630
v 0.03196343 -0.02349311 0.01633084
v 0.02058733 -0.00553279 0.00105368
v 0.02469186 -0.02581600 0.00126263
v 0.00077442 -0.04264633 0.02048173
v 0.01373536 -0.03834391 0.00406301
v 0.01174345 -0.03826932 0.03604401
v 0.01906814 -0.03647313 0.01453307
v 0.03582189 -0.01619253 0.01831626
v 0.02819828 -0.02537181 0.03601582
v 0.03207262 -0.02346465 0.00708484
v 0.03272024 -0.01261202 0.00103646
v 0.00431274 -0.04074769 0.03609100
v 0.00440743 -0.04233769 0.00732581
v 0.00800315 -0.04053874 0.00390331
v 0.01761216 -0.03319807 0.00121469
v 0.01534508 -0.03844978 0.01643096
v 0.01541848 -0.03654863 0.03603044
v 0.02639727 -0.02901897 0.02623345
v 0.01904788 -0.03647840 0.00909235
v 0.03427054 -0.01432640 0.03602831
v 0.03772723 -0.01246065 0.00926670
v 0.03373918 -0.01978456 0.02013575
v 0.03038498 -0.02186691 0.00270499
v 0.03326019 -0.00567850 0.00108611
v 0.00444522 -0.04237220 0.01452184
v 0.00255229 -0.04241509 0.02052511
v 0.00819851 -0.04034940 0.02821629
v 0.00454636 -0.04055587 0.00298360
v 0.00260270 -0.04223856 0.00546729
v 0.01181075 -0.04031106 0.00902132
v 0.02091256 -0.03333683 0.00307184
v 0.00990654 -0.03733887 0.00111367
v 0.02081606 -0.03460600 0.02240684
v 0.01734223 -0.03642658 0.02629047
v 0.02092857 -0.03462011 0.00559206
v 0.01551562 -0.03836159 0.00736739
v 0.03773787 -0.01246476 0.01460179
v 0.03633064 -0.01072115 0.03007264
v 0.03562543 -0.01632473 0.00594997
v 0.02991906 -0.02355467 0.03207869
v 0.03181082 -0.01977046 0.03393062
v 0.02808049 -0.02731587 0.00459839
v 0.02911624 -0.02052270 0.00171381
v 0.00992532 -0.04037062 0.00555138
v 0.01561335 -0.03685204 0.00335650
v 0.00455340 -0.03869014 0.00098881
v 0.01893562 -0.03456202 0.03407468
v 0.02261043 -0.03271732 0.02608278
v 0.01719371 -0.03640863 0.00384639
f 1 3 4
f 5 1 4
f 7 3 1
f 8 1 5
f 9 5 4
f 10 7 1
f 10 1 2
f 11 1 8
f 12 9 4
f 14 8 5
f 14 5 9
f 17 12 4
f 17 4 3
f 17 9 12
f 19 14 6
f 19 8 14
f 21 11 8
f 24 2 1
f 24 1 11
f 25 23 16
f 26 3 7
f 27 21 8
f 28 19 6
f 30 26 18
f 30 9 26
f 31 21 15
f 32 11 21
f 32 21 31
f 33 24 11
f 33 16 24
f 33 25 16
f 33 22 25
f 35 2 24
f 36 7 10
f 37 16 23
f 39 17 3
f 39 3 26
f 39 26 9
f 39 9 17
f 40 19 28
f 41 27 8
f 41 8 19
f 41 19 40
f 42 15 21
f 42 21 27
f 42 40 15
f 42 41 40
f 42 27 41
f 43 6 14
f 43 14 9
f 44 29 28
f 44 28 6
f 44 43 29
f 44 6 43
f 45 40 28
f 45 15 40
f 45 31 15
f 46 30 18
f 46 18 38
f 47 9 30
f 47 20 29
f 48 22 33
f 49 32 31
f 49 31 22
f 49 22 48
f 50 25 22
f 50 22 34
f 51 34 22
f 51 22 31
f 51 31 45
f 51 50 34
f 52 35 23
f 52 10 35
f 52 36 10
f 52 23 25
f 52 25 36
f 53 35 10
f 53 10 2
f 53 2 35
f 54 36 25
f 54 7 36
f 54 25 38
f 54 38 26
f 54 26 7
f 55 24 16
f 55 16 37
f 56 37 23
f 56 23 35
f 56 55 37
f 56 35 24
f 56 24 55
f 57 38 25
f 57 46 38
f 57 13 46
f 57 50 13
f 57 25 50
f 58 38 18
f 58 18 26
f 58 26 38
f 59 29 20
f 59 51 45
f 59 20 51
f 59 45 28
f 59 28 29
f 60 30 46
f 60 47 30
f 60 20 47
f 61 43 9
f 61 9 47
f 61 47 29
f 61 29 43
f 62 48 11
f 62 11 32
f 62 49 48
f 62 32 49
f 63 48 33
f 63 33 11
f 63 11 48
f 64 46 13
f 64 13 50
f 64 60 46
f 64 20 60
f 64 51 20
f 64 50 51

