# https://github.com/mikedh/trimesh
v 0.04014891 0.00231707 0.06564332
v 0.04389495 -0.00581605 0.06377991
v 0.04413372 0.00662322 0.05711404
v 0.03424259 0.00770114 0.04572566
v 0.03307603 -0.00997728 0.06103922
v 0.03401161 -0.01075743 0.04580052
v 0.03353251 0.00863225 0.06116800
v 0.04386970 0.00516032 0.06428558
v 0.03413415 -0.00645640 0.06423494
v 0.04406980 -0.00291181 0.05388135
v 0.03296960 0.00946833 0.05399388
v 0.04376665 -0.00721892 0.06115394
v 0.04487736 0.00326925 0.05392943
v 0.03428868 0.00632748 0.06396918
v 0.04359271 0.00623683 0.06274530
v 0.04006280 0.00056407 0.06555398
v 0.03386570 -0.01122826 0.04600787
v 0.03405397 0.00818355 0.04602046
v 0.04178416 -0.00708735 0.06277278
v 0.04390274 -0.00727735 0.05840591
v 0.04163380 0.00596686 0.06390805
v 0.03838562 0.00215892 0.06563345
v 0.03790196 0.00783951 0.06102200
v 0.04390510 -0.00546854 0.05532870
v 0.03832805 0.00056030 0.06558543
f 8 1 2
f 9 5 2
f 11 5 7
f 13 8 2
f 13 3 8
f 13 10 6
f 13 6 4
f 14 1 8
f 14 7 5
f 14 5 9
f 15 8 3
f 16 9 2
f 16 2 1
f 17 5 11
f 17 12 5
f 17 4 6
f 18 11 3
f 18 17 11
f 18 4 17
f 18 13 4
f 18 3 13
f 19 12 2
f 19 2 5
f 19 5 12
f 20 12 17
f 20 13 2
f 20 2 12
f 21 14 8
f 21 7 14
f 21 15 7
f 21 8 15
f 22 14 9
f 22 1 14
f 23 11 7
f 23 7 15
f 23 15 3
f 23 3 11
f 24 17 6
f 24 6 10
f 24 20 17
f 24 10 13
f 24 13 20
f 25 16 1
f 25 1 22
f 25 22 9
f 25 9 16

