# https://github.com/mikedh/trimesh
v -0.01258240 0.03063733 0.06735691
v 0.00096818 -0.01936356 0.05984171
v 0.00187671 0.03856904 0.03731938
v -0.02897234 0.03347591 0.03585912
v -0.03027696 -0.01910189 0.06699501
v 0.00097994 -0.01918000 0.03625786
v -0.01427147 0.03538882 0.05737224
v 0.00131487 0.03539874 0.05426532
v -0.01719145 -0.01996086 0.06596655
v -0.02915860 0.02269026 0.06739033
v -0.02531814 0.03563657 0.03589064
v -0.03037821 -0.01918000 0.03625786
v 0.00113188 0.01441050 0.05869708
v -0.01246655 0.03389991 0.06292154
v -0.01244016 0.03568490 0.05748744
v -0.01327157 0.01794072 0.06797266
v -0.03106064 0.00454641 0.06800466
v -0.02709803 0.02939822 0.06075941
v -0.01250668 0.03190841 0.06633043
v -0.02056512 0.03762024 0.03625031
v -0.02877579 0.02749693 0.06253608
v -0.02701830 0.03125509 0.05339224
v -0.01974520 0.03152715 0.06400471
v -0.01251209 0.03630207 0.05362814
v -0.02880502 0.03324255 0.03776108
v -0.02869751 0.02942475 0.05711474
v -0.02150100 0.03325805 0.05717079
v -0.01614542 0.03331301 0.06261902
v -0.02325423 0.03146434 0.06085241
v -0.02526810 0.02766404 0.06554983
v -0.02335804 0.03317337 0.05344190
v -0.01610297 0.03533506 0.05545671
v -0.01590763 0.03150210 0.06572804
v -0.02529499 0.02597319 0.06723294
v -0.02152834 0.02951051 0.06559547
v -0.01440040 0.03051708 0.06725041
f 6 3 2
f 9 6 2
f 11 6 4
f 11 3 6
f 12 4 6
f 12 9 5
f 12 6 9
f 13 8 1
f 13 1 2
f 13 2 3
f 13 3 8
f 15 8 3
f 15 14 8
f 15 7 14
f 16 9 2
f 16 2 1
f 16 5 9
f 16 1 10
f 17 10 4
f 17 16 10
f 17 5 16
f 17 12 5
f 17 4 12
f 19 1 8
f 19 8 14
f 20 3 11
f 21 4 10
f 24 20 7
f 24 7 15
f 24 15 3
f 24 3 20
f 25 22 11
f 25 11 4
f 26 21 18
f 26 18 22
f 26 22 25
f 26 25 4
f 26 4 21
f 28 14 7
f 28 7 27
f 28 19 14
f 29 18 21
f 29 28 27
f 29 23 28
f 29 22 18
f 30 21 10
f 30 29 21
f 30 23 29
f 31 27 20
f 31 20 11
f 31 11 22
f 31 29 27
f 31 22 29
f 32 27 7
f 32 7 20
f 32 20 27
f 33 28 23
f 33 19 28
f 34 30 10
f 34 10 1
f 35 33 23
f 35 23 30
f 35 30 34
f 36 1 19
f 36 19 33
f 36 34 1
f 36 35 34
f 36 33 35

