# https://github.com/mikedh/trimesh
v 0.02393973 -0.01875228 0.06619758
v 0.02881786 -0.01846612 0.06095986
v -0.03027696 -0.01910189 0.06699501
v -0.03037821 -0.01918000 0.03625786
v 0.00431274 -0.04074769 0.03609100
v 0.02659098 -0.01827893 0.06421554
v 0.03195620 -0.01897106 0.03621966
v -0.00314341 -0.03841460 0.06241848
v 0.03033390 -0.02196887 0.03598007
v 0.03075557 -0.01843459 0.04972742
v 0.00460621 -0.03398196 0.06527276
v -0.02884114 -0.03472132 0.03608814
v 0.01703110 -0.03253177 0.05908888
v 0.02990424 -0.02168864 0.04379730
v -0.01442722 -0.03395683 0.06529103
v -0.01425863 -0.04077345 0.03625367
v 0.01541848 -0.03654863 0.03603044
v 0.02078947 -0.02729475 0.06357417
v 0.00962586 -0.03619330 0.06053227
v 0.02810196 -0.02342964 0.04961737
v -0.01041513 -0.03688777 0.06362961
v -0.02852891 -0.03085284 0.06087440
v -0.00307364 -0.04056974 0.04977920
v 0.02596152 -0.02181884 0.06229497
v 0.02251112 -0.02531336 0.06364712
v 0.01554541 -0.02944910 0.06512811
v 0.00253352 -0.03689503 0.06341625
v 0.01161414 -0.03642388 0.05556434
v 0.01546850 -0.03247112 0.06205420
v 0.02999317 -0.01990402 0.04969663
v 0.02428758 -0.02528986 0.06078014
v 0.02456924 -0.02890929 0.04178488
v 0.02653933 -0.02737675 0.03608216
v -0.02750035 -0.02781764 0.06509461
v -0.02954605 -0.02606183 0.06512142
v -0.01791765 -0.03630460 0.06205057
v 0.00437076 -0.03852288 0.05921470
v 0.02620360 -0.01987238 0.06367719
v 0.02292118 -0.02188277 0.06537917
v 0.00803353 -0.03478615 0.06391341
v 0.01713569 -0.03448888 0.04575192
v 0.01336648 -0.03430199 0.06083900
v 0.00990977 -0.03837510 0.04386058
v 0.01869434 -0.03072344 0.06086292
v 0.02610690 -0.02352394 0.05932768
v 0.02835328 -0.01922960 0.06095498
v 0.02438862 -0.02703174 0.05363369
v 0.02629770 -0.02720091 0.03995644
v 0.02089821 -0.03284768 0.03608290
v -0.02018196 -0.03178928 0.06528614
v -0.02880756 -0.03264999 0.05139872
v -0.02510411 -0.03263125 0.06232281
v -0.01805578 -0.03507237 0.06358707
v -0.01605240 -0.03839558 0.05736631
v 0.00247989 -0.03837351 0.06088546
v 0.00251114 -0.04048355 0.04385823
v 0.01343090 -0.03635763 0.04773765
v 0.01170212 -0.03456987 0.06204592
v 0.00438906 -0.04041331 0.03998236
v 0.00616644 -0.03838270 0.05566445
v 0.02250482 -0.02889512 0.05364319
v -0.02340325 -0.03478893 0.06047295
v -0.02326394 -0.03271413 0.06369528
v -0.00870112 -0.04051743 0.04977755
f 6 4 3
f 6 3 1
f 9 4 7
f 10 6 2
f 10 7 4
f 10 4 6
f 11 1 3
f 12 3 4
f 12 4 9
f 14 9 7
f 14 7 10
f 15 11 3
f 16 12 5
f 17 12 9
f 17 5 12
f 21 11 15
f 23 16 5
f 26 1 11
f 27 21 8
f 27 11 21
f 29 18 26
f 30 20 14
f 30 14 10
f 30 10 2
f 30 2 20
f 31 25 18
f 31 24 25
f 33 9 14
f 33 14 20
f 35 3 12
f 35 34 3
f 37 28 19
f 38 24 2
f 38 2 6
f 38 25 24
f 39 18 25
f 39 26 18
f 39 1 26
f 39 25 38
f 39 38 6
f 39 6 1
f 40 26 11
f 40 11 27
f 41 13 28
f 42 28 13
f 42 19 28
f 42 13 29
f 43 5 17
f 44 29 13
f 44 18 29
f 44 31 18
f 45 20 2
f 46 2 24
f 46 24 31
f 46 45 2
f 46 31 45
f 47 32 20
f 47 45 31
f 47 20 45
f 48 33 20
f 48 20 32
f 48 32 33
f 49 33 32
f 49 17 9
f 49 9 33
f 49 41 17
f 50 15 3
f 50 3 34
f 51 35 12
f 51 22 35
f 52 35 22
f 52 34 35
f 53 36 21
f 53 21 15
f 53 15 50
f 54 8 21
f 54 21 36
f 54 12 16
f 55 8 23
f 55 23 37
f 55 27 8
f 55 37 19
f 55 40 27
f 55 19 40
f 56 37 23
f 56 23 5
f 57 41 28
f 57 17 41
f 57 43 17
f 57 28 43
f 58 40 19
f 58 19 42
f 58 42 29
f 58 29 26
f 58 26 40
f 59 5 43
f 59 56 5
f 59 37 56
f 60 43 28
f 60 28 37
f 60 59 43
f 60 37 59
f 61 47 31
f 61 31 44
f 61 44 13
f 61 32 47
f 61 49 32
f 61 13 41
f 61 41 49
f 62 52 22
f 62 22 51
f 62 51 12
f 62 12 54
f 62 54 36
f 63 50 34
f 63 34 52
f 63 53 50
f 63 36 53
f 63 62 36
f 63 52 62
f 64 54 16
f 64 16 23
f 64 23 8
f 64 8 54

