# https://github.com/mikedh/trimesh
v 0.02132524 0.02639899 0.05368203
v 0.03204227 -0.01436411 0.05354982
v 0.03228792 0.01703662 0.03596422
v 0.00187671 0.03856904 0.03731938
v 0.00097393 -0.01871959 0.05910378
v 0.01714875 0.03353156 0.03582484
v 0.03207045 0.01114896 0.05354689
v 0.00131487 0.03539874 0.05426532
v 0.00097994 -0.01918000 0.03625786
v 0.02433523 0.02580059 0.04347950
v 0.03242878 -0.01814007 0.03605950
v 0.01357483 0.03186174 0.05350168
v 0.02248321 0.02759312 0.04344047
v 0.03012484 0.02057003 0.03585470
v 0.03037854 -0.01819625 0.05365418
v 0.01580853 0.03435112 0.03602317
v 0.01700568 0.03324207 0.03771553
v 0.02797965 0.01848229 0.05346138
v 0.03184023 -0.01812106 0.04189786
v 0.01567665 0.03407445 0.03786461
v 0.01703261 0.02948917 0.05348950
v 0.03186640 0.01672628 0.03969341
v 0.02801507 0.02039127 0.04749291
v 0.03180784 -0.01610360 0.04965184
v 0.02989118 0.01677000 0.04940369
v 0.02626540 0.02203294 0.04941870
f 7 5 2
f 7 1 5
f 8 5 1
f 9 4 6
f 9 8 4
f 9 5 8
f 11 7 2
f 11 3 7
f 11 9 6
f 12 4 8
f 12 8 1
f 13 10 6
f 13 6 1
f 13 1 10
f 14 6 10
f 14 11 6
f 14 3 11
f 15 2 5
f 15 5 9
f 15 9 11
f 16 6 4
f 17 1 6
f 18 1 7
f 19 15 11
f 20 16 4
f 20 4 12
f 20 12 17
f 20 17 6
f 20 6 16
f 21 17 12
f 21 12 1
f 21 1 17
f 22 7 3
f 22 3 14
f 23 14 10
f 23 22 14
f 24 19 11
f 24 11 2
f 24 2 15
f 24 15 19
f 25 18 7
f 25 7 22
f 25 23 18
f 25 22 23
f 26 23 10
f 26 10 1
f 26 1 18
f 26 18 23

