# https://github.com/mikedh/trimesh
v 0.02295429 0.00493444 0.03864008
v 0.02730200 -0.00586325 0.03221129
v 0.02513945 0.00222975 0.03655331
v 0.02657538 0.00859994 0.03230615
v 0.02237934 -0.01415901 0.03254522
v 0.02734043 0.00579187 0.03220545
v 0.02425838 0.00757740 0.03645089
v 0.02199188 -0.00854113 0.03857943
v 0.02476330 -0.01301708 0.03231313
v 0.02435849 0.00392809 0.03733752
v 0.02451447 0.00902450 0.03328847
v 0.02509863 -0.00304830 0.03653833
v 0.02292560 0.00853438 0.03766479
v 0.02558631 -0.01128476 0.03226451
v 0.02219011 -0.01404372 0.03518222
v 0.02335348 0.00848491 0.03725037
v 0.02600917 0.00479126 0.03471900
v 0.02508551 -0.00657047 0.03568244
v 0.02245987 -0.00596560 0.03902746
v 0.02404661 -0.01405450 0.03243580
v 0.02259765 -0.01191979 0.03649002
v 0.02338426 0.00481394 0.03819713
v 0.02510112 0.00846540 0.03473057
v 0.02690709 -0.00580351 0.03289240
v 0.02596915 -0.00741407 0.03377349
v 0.02337914 -0.00491616 0.03820106
v 0.02334082 -0.00837407 0.03720951
v 0.02337160 -0.01364145 0.03381123
v 0.02325256 -0.01179875 0.03560541
v 0.02211182 -0.01215965 0.03684752
v 0.02443188 -0.01281003 0.03299242
v 0.02503385 -0.01017355 0.03376158
v 0.02520997 -0.01114737 0.03294070
f 6 3 2
f 6 5 4
f 7 6 4
f 9 5 6
f 11 4 5
f 12 2 3
f 12 3 10
f 13 8 1
f 13 5 8
f 13 11 5
f 13 4 11
f 14 9 6
f 14 6 2
f 15 8 5
f 16 10 7
f 16 13 1
f 16 4 13
f 17 10 3
f 17 3 6
f 17 6 7
f 17 7 10
f 19 1 8
f 20 15 5
f 20 5 9
f 22 16 1
f 22 1 10
f 22 10 16
f 23 16 7
f 23 7 4
f 23 4 16
f 24 18 2
f 24 2 12
f 24 12 18
f 25 18 14
f 25 14 2
f 25 2 18
f 26 19 18
f 26 18 12
f 26 12 10
f 26 10 1
f 26 1 19
f 27 19 8
f 27 18 19
f 27 21 18
f 27 8 21
f 28 15 20
f 28 21 15
f 29 18 21
f 30 21 8
f 30 8 15
f 30 15 21
f 31 21 28
f 31 29 21
f 31 9 14
f 31 14 29
f 31 28 20
f 31 20 9
f 32 18 29
f 33 32 29
f 33 29 14
f 33 14 18
f 33 18 32

