# https://github.com/mikedh/trimesh
v 0.01995046 0.00043144 0.04180093
v 0.02503771 -0.00636101 0.03355104
v 0.02554162 0.00054565 0.03390316
v 0.00922702 0.00043296 0.03558825
v 0.01001630 -0.01472439 0.04159257
v 0.00966553 -0.01426114 0.03266261
v 0.01771158 0.00048383 0.04191452
v 0.02241802 -0.00580047 0.03910789
v 0.02237934 -0.01415901 0.03254522
v 0.00973967 0.00046043 0.03672847
v 0.01091524 -0.01465646 0.04196943
v 0.02276647 0.00042524 0.03938488
v 0.01702612 -0.01426114 0.03266261
v 0.02150342 -0.01364156 0.03652839
v 0.01637115 -0.01200291 0.04177219
v 0.01995069 -0.00218763 0.04171589
v 0.01799094 -0.01374312 0.03991705
v 0.02159933 -0.00575912 0.03995033
v 0.01907523 -0.00664926 0.04169772
v 0.01480905 -0.01381074 0.04176697
v 0.02060372 -0.01093561 0.03901914
v 0.02071071 -0.00840830 0.03995384
v 0.01811018 -0.00929540 0.04166063
v 0.01900024 -0.01012446 0.04073553
f 6 4 3
f 6 5 4
f 7 1 3
f 8 2 3
f 9 6 3
f 9 3 2
f 10 7 3
f 10 3 4
f 10 4 5
f 10 5 7
f 11 7 5
f 11 5 9
f 12 8 3
f 12 3 1
f 13 9 5
f 13 5 6
f 13 6 9
f 14 9 2
f 14 2 8
f 15 1 7
f 15 7 11
f 16 12 1
f 17 11 9
f 17 9 14
f 18 8 12
f 18 12 16
f 19 16 1
f 19 1 15
f 19 18 16
f 20 17 15
f 20 15 11
f 20 11 17
f 21 17 14
f 21 14 8
f 22 21 8
f 22 8 18
f 22 18 19
f 23 22 19
f 23 19 15
f 24 23 15
f 24 15 17
f 24 17 21
f 24 21 22
f 24 22 23

