# https://github.com/mikedh/trimesh
v -0.00893841 0.01652760 0.04206042
v -0.00604782 0.01545079 0.03728872
v -0.00614679 0.01677607 0.03902210
v -0.01486241 0.01686404 0.03909387
v -0.01479547 0.01100121 0.04160033
v -0.00603295 0.01631860 0.03802952
v -0.00793887 0.01633478 0.04159830
v -0.01385279 0.01559003 0.04185366
v -0.01380832 0.01094599 0.03789517
v -0.01470033 0.01187134 0.04195580
v -0.01426838 0.01059073 0.03817535
f 1 3 4
f 6 3 2
f 6 2 4
f 6 4 3
f 7 2 3
f 7 3 1
f 7 5 2
f 7 1 5
f 8 1 4
f 9 4 2
f 10 5 1
f 10 1 8
f 10 8 4
f 10 4 5
f 11 5 4
f 11 4 9
f 11 9 2
f 11 2 5

