# https://github.com/mikedh/trimesh
v -0.01385279 0.01559003 0.04185366
v -0.01377508 -0.01912771 0.03929057
v -0.01372161 0.01108451 0.00198509
v -0.01386710 0.00584746 0.00039720
v -0.02981536 -0.00314814 0.01801175
v -0.01378323 -0.02182684 0.00948642
v -0.01380374 0.02261896 0.03584349
v -0.02607417 -0.00133158 0.03655134
v -0.02699181 0.00668918 0.01231502
v -0.01385541 -0.00937006 0.00136157
v -0.02169179 -0.02156120 0.02523749
v -0.02032086 -0.00583984 0.04167180
v -0.02324499 0.01450257 0.03477698
v -0.02422678 0.00921344 0.00965848
v -0.01389535 -0.00495102 0.00031288
v -0.02346317 -0.01544217 0.01232989
v -0.01381190 -0.02623587 0.02866536
v -0.02794211 -0.01103676 0.02772301
v -0.01404130 -0.01492089 0.04180102
v -0.01988988 0.00746245 0.04166522
v -0.01718356 0.01706445 0.03902938
v -0.02879683 0.00941865 0.02614732
v -0.01541796 0.00751911 0.00155977
v -0.01380684 0.02624836 0.01651703
v -0.02526063 -0.00483897 0.00968638
v -0.01890796 -0.01805398 0.00972166
v -0.01462194 -0.02597573 0.01663400
v -0.01985464 -0.02062702 0.03198746
v -0.02520456 -0.01630176 0.01660493
v -0.02430206 -0.01007561 0.03636229
v -0.01386739 -0.01652523 0.04111306
v -0.02107358 -0.00137057 0.04169555
v -0.02519056 0.00758740 0.03643744
v -0.01385552 0.01835624 0.04018637
v -0.01892593 0.01963024 0.03473642
v -0.01814641 0.01108609 0.04171866
v -0.02976351 0.00392887 0.01727039
v -0.02970465 -0.00406304 0.02770888
v -0.02167132 0.01452752 0.00965205
v -0.01387947 0.00935375 0.00128010
v -0.01638732 0.00486524 0.00152467
v -0.02524639 0.00485916 0.00960414
v -0.01625263 -0.00490800 0.00149457
v -0.02692817 -0.01006555 0.01388117
v -0.02160612 -0.01452057 0.00970872
v -0.01716250 -0.02518282 0.02432325
v -0.01384547 -0.02628248 0.01649837
v -0.01623261 -0.02329312 0.01308101
v -0.01443474 -0.02237503 0.03553225
v -0.01804925 -0.02428463 0.02688934
v -0.02508719 -0.01626363 0.02854135
v -0.01985764 -0.02236327 0.01665125
v -0.02879907 -0.00941009 0.02168627
v -0.02425575 -0.00481530 0.03821655
v -0.01979776 -0.01721334 0.03630815
v -0.02255872 0.00579799 0.03991945
v -0.02703518 0.00927027 0.03209542
v -0.01631885 0.01549928 0.04070616
v -0.01623522 0.02063560 0.03640472
v -0.02156620 0.01530264 0.03638342
v -0.01640812 0.02512746 0.02765710
v -0.02107701 0.00221476 0.04169341
v -0.02609703 0.01560429 0.01739278
v -0.02778628 -0.00474822 0.01303140
f 6 3 2
f 7 1 2
f 7 2 3
f 10 3 6
f 15 4 3
f 15 3 10
f 17 6 2
f 24 7 3
f 26 10 6
f 31 2 1
f 31 1 19
f 32 19 1
f 32 12 19
f 34 1 7
f 38 30 8
f 38 18 30
f 38 37 5
f 38 22 37
f 39 23 14
f 39 3 23
f 39 24 3
f 40 23 3
f 40 3 4
f 40 4 23
f 41 23 4
f 41 4 15
f 41 14 23
f 42 9 14
f 42 41 25
f 42 14 41
f 43 15 10
f 43 41 15
f 43 25 41
f 44 16 29
f 45 26 16
f 45 10 26
f 45 43 10
f 45 25 43
f 45 44 25
f 45 16 44
f 47 6 17
f 47 46 27
f 47 17 46
f 48 26 6
f 48 47 27
f 48 6 47
f 49 28 17
f 49 17 2
f 50 28 11
f 50 17 28
f 50 46 17
f 50 11 46
f 51 11 28
f 51 29 11
f 51 18 29
f 51 30 18
f 52 11 29
f 52 46 11
f 52 27 46
f 52 48 27
f 52 29 16
f 52 16 26
f 52 26 48
f 53 29 18
f 53 44 29
f 53 5 44
f 53 38 5
f 53 18 38
f 54 30 12
f 54 8 30
f 54 32 8
f 54 12 32
f 55 2 31
f 55 12 30
f 55 31 19
f 55 19 12
f 55 49 2
f 55 28 49
f 55 51 28
f 55 30 51
f 56 20 36
f 56 33 8
f 57 33 13
f 57 13 22
f 57 22 38
f 57 38 8
f 57 8 33
f 58 34 21
f 58 1 34
f 58 36 1
f 59 34 7
f 59 21 34
f 59 35 21
f 60 35 13
f 60 21 35
f 60 13 33
f 60 56 36
f 60 33 56
f 60 58 21
f 60 36 58
f 61 7 24
f 61 13 35
f 61 59 7
f 61 35 59
f 62 32 1
f 62 1 36
f 62 36 20
f 62 20 56
f 62 56 8
f 62 8 32
f 63 37 22
f 63 9 37
f 63 24 39
f 63 61 24
f 63 22 13
f 63 13 61
f 63 39 14
f 63 14 9
f 64 5 37
f 64 44 5
f 64 25 44
f 64 37 9
f 64 42 25
f 64 9 42

