# https://github.com/mikedh/trimesh
v 0.01292677 0.01561923 0.04171781
v 0.02554162 0.00054565 0.03390316
v 0.02309262 0.01581512 0.03238247
v 0.00966553 0.01610129 0.03266261
v 0.00922702 0.00043296 0.03558825
v 0.02642084 0.00947179 0.03220426
v 0.00801775 0.01648312 0.04216195
v 0.01995046 0.00043144 0.04180093
v 0.02657538 0.00859994 0.03230615
v 0.02380845 0.01488341 0.03227586
v 0.01633562 0.01552920 0.03990323
v 0.00527560 0.01663713 0.03899092
v 0.02276647 0.00042524 0.03938488
v 0.01771158 0.00048383 0.04191452
v 0.01906939 0.00668033 0.04167007
v 0.02157099 0.01374534 0.03647447
v 0.00515299 0.01532655 0.03762614
v 0.00615944 0.01647817 0.04089910
v 0.00973967 0.00046043 0.03672847
v 0.01641123 0.01195667 0.04162688
v 0.01993752 0.00135102 0.04178412
v 0.02234593 0.01449911 0.03469558
v 0.02243308 0.01535779 0.03372968
v 0.02416387 0.01095430 0.03466271
v 0.00509603 0.01622364 0.03811935
v 0.01898627 0.01194451 0.03996799
v 0.02172513 0.00484687 0.03996961
v 0.02427870 0.00922518 0.03569201
v 0.01889900 0.01357071 0.03902783
v 0.01722003 0.01278160 0.04073599
v 0.02084363 0.00394565 0.04085997
v 0.02079331 0.00835663 0.03992086
v 0.02602614 0.00935810 0.03288457
v 0.02336800 0.01014710 0.03638095
v 0.02251059 0.00482579 0.03916145
v 0.01713466 0.01459309 0.03984042
v 0.02617960 0.00850141 0.03297648
v 0.02249197 0.00835976 0.03819037
f 9 5 4
f 9 2 5
f 9 4 6
f 10 6 4
f 10 4 3
f 11 7 1
f 11 3 7
f 12 7 3
f 12 3 4
f 13 8 5
f 13 5 2
f 13 2 9
f 14 8 7
f 17 4 5
f 17 5 12
f 18 12 5
f 18 7 12
f 19 5 8
f 19 8 14
f 19 18 5
f 19 14 7
f 19 7 18
f 20 1 7
f 20 7 15
f 20 11 1
f 21 15 7
f 21 7 8
f 21 8 13
f 22 16 10
f 22 10 3
f 23 3 11
f 23 11 16
f 23 22 3
f 23 16 22
f 24 6 10
f 24 10 16
f 25 17 12
f 25 12 4
f 25 4 17
f 26 20 15
f 28 6 24
f 29 26 16
f 29 16 11
f 30 26 11
f 30 11 20
f 30 20 26
f 31 21 13
f 31 13 27
f 31 27 15
f 31 15 21
f 32 26 15
f 32 15 27
f 32 16 26
f 33 9 6
f 33 6 28
f 34 28 24
f 34 24 16
f 35 27 13
f 36 29 11
f 36 11 26
f 36 26 29
f 37 33 28
f 37 9 33
f 37 28 35
f 37 35 13
f 37 13 9
f 38 28 34
f 38 35 28
f 38 32 27
f 38 27 35
f 38 34 16
f 38 16 32

