# https://github.com/mikedh/trimesh
v 0.01419821 0.01601903 0.04081433
v 0.02547297 0.01572071 0.02775204
v 0.01390235 0.02636872 0.01644960
v 0.01421872 0.01604353 0.00700952
v 0.01572705 0.01566278 0.04022889
v 0.02555251 0.01572269 0.01727571
v 0.01381513 0.01735270 0.04013899
v 0.02171023 0.02153282 0.02426334
v 0.01539575 0.02075433 0.00978222
v 0.02279003 0.01559138 0.01216086
v 0.01396011 0.01758786 0.00764079
v 0.02074393 0.02151713 0.01669024
v 0.02428807 0.01807663 0.02078314
v 0.01382213 0.02621905 0.02860902
v 0.01579823 0.01582854 0.00756801
v 0.02277272 0.01556919 0.03306049
v 0.01397339 0.02126993 0.00941483
v 0.01711308 0.02519880 0.01985342
v 0.02240340 0.01713392 0.01303386
v 0.01614698 0.02338761 0.01299696
v 0.02423307 0.01804326 0.02608089
v 0.02527668 0.01633874 0.01738373
v 0.02332280 0.01895260 0.01742003
v 0.01838716 0.01572658 0.00879076
v 0.01653864 0.01829212 0.00902414
v 0.02000892 0.01558398 0.03664664
v 0.01794909 0.02236973 0.03116404
v 0.01629604 0.02526552 0.01663756
v 0.01894483 0.02340429 0.01738391
v 0.01713595 0.02521041 0.02515437
v 0.01984781 0.01636775 0.00982802
v 0.01396653 0.02468657 0.01291051
v 0.02147917 0.01893398 0.01390761
v 0.02517414 0.01634570 0.02757615
v 0.02159503 0.02159886 0.02255744
v 0.02431062 0.01718192 0.01663961
v 0.02014602 0.01566998 0.00964928
v 0.01571153 0.01655849 0.00786571
v 0.01825913 0.01655653 0.00904548
v 0.01625451 0.01969599 0.03645378
v 0.01964423 0.01894801 0.03373680
v 0.02244972 0.01989806 0.02765915
v 0.01556044 0.02604336 0.01804182
v 0.01801358 0.02430122 0.01801530
v 0.01616059 0.02510855 0.02848613
v 0.02250363 0.01629124 0.01241025
v 0.01472648 0.02434466 0.01289472
v 0.01794612 0.02238774 0.01395836
v 0.02155440 0.02072375 0.01667650
v 0.02242165 0.01715265 0.03190230
v 0.01631547 0.01891144 0.03715471
v 0.01387013 0.02270157 0.03494043
v 0.01967226 0.01624490 0.03646508
v 0.01619188 0.02335792 0.03187364
v 0.02148133 0.01901544 0.03116484
v 0.01468720 0.02606423 0.01658992
v 0.01556986 0.02596604 0.02696893
v 0.01889000 0.02330812 0.02756913
v 0.01537148 0.02349757 0.01238995
v 0.01547974 0.01630941 0.03993154
v 0.01716856 0.01709488 0.03808694
v 0.01801815 0.01967581 0.03462550
v 0.01446163 0.02253041 0.03471635
v 0.01470355 0.02428530 0.03198479
f 5 1 4
f 7 4 1
f 7 1 5
f 11 4 7
f 14 11 7
f 14 3 11
f 15 5 4
f 16 10 6
f 16 6 2
f 17 11 3
f 21 13 8
f 22 2 6
f 22 6 10
f 22 10 19
f 23 13 22
f 24 5 15
f 25 4 11
f 25 11 17
f 25 17 9
f 26 5 10
f 26 10 16
f 28 12 20
f 29 12 28
f 30 8 18
f 31 20 19
f 31 9 20
f 31 25 9
f 32 17 3
f 33 19 20
f 34 13 21
f 34 22 13
f 34 2 22
f 35 8 13
f 35 13 23
f 35 18 8
f 36 23 22
f 36 22 19
f 36 19 33
f 37 10 5
f 37 5 24
f 37 31 10
f 38 25 15
f 38 15 4
f 38 4 25
f 39 24 15
f 39 15 25
f 39 37 24
f 39 25 31
f 39 31 37
f 42 21 8
f 42 34 21
f 43 30 18
f 44 29 28
f 44 35 29
f 44 18 35
f 44 43 18
f 44 28 43
f 46 31 19
f 46 19 10
f 46 10 31
f 47 28 20
f 47 17 32
f 47 32 3
f 48 33 20
f 48 20 12
f 49 36 33
f 49 23 36
f 49 35 23
f 49 12 29
f 49 29 35
f 49 48 12
f 49 33 48
f 50 16 2
f 50 2 34
f 50 41 16
f 51 40 7
f 52 14 7
f 52 7 40
f 53 26 16
f 53 16 41
f 53 41 40
f 54 41 27
f 54 27 45
f 55 42 27
f 55 27 41
f 55 41 50
f 55 50 34
f 55 34 42
f 56 43 28
f 56 3 43
f 56 47 3
f 56 28 47
f 57 43 3
f 57 3 14
f 57 30 43
f 57 14 45
f 58 45 27
f 58 27 42
f 58 42 8
f 58 8 30
f 58 57 45
f 58 30 57
f 59 47 20
f 59 20 9
f 59 9 17
f 59 17 47
f 60 51 7
f 60 7 5
f 61 5 26
f 61 26 53
f 61 60 5
f 61 51 60
f 61 53 40
f 61 40 51
f 62 54 40
f 62 40 41
f 62 41 54
f 63 52 40
f 63 40 54
f 64 54 45
f 64 45 14
f 64 14 52
f 64 63 54
f 64 52 63

