# https://github.com/mikedh/trimesh
v 0.02355191 0.01553297 0.03203184
v 0.02874772 -0.00833608 0.02702801
v 0.01448800 0.00928487 0.00166376
v -0.01279761 0.00925011 0.00074698
v -0.01425639 -0.01426114 0.03266261
v 0.00307428 0.01543408 0.00064728
v 0.02878969 0.00846273 0.01800116
v 0.02446475 -0.01374030 0.03210046
v -0.01425639 0.01610129 0.03266261
v 0.00663081 -0.01365525 0.00072233
v 0.02881976 0.00481556 0.02949777
v 0.02606363 0.01552792 0.02169689
v -0.01375230 0.01020215 0.00153569
v 0.02790137 0.00224603 0.03202302
v 0.01449256 0.00575825 0.00070239
v -0.00663771 -0.01372963 0.00061049
v 0.02503288 -0.01353383 0.01391845
v 0.02619082 -0.01369117 0.01653653
v 0.02980933 0.00133162 0.01739740
v 0.02877508 0.00938250 0.02517612
v 0.02523581 0.01555046 0.02853737
v 0.01654066 0.01572087 0.00786866
v -0.01350525 0.01510715 0.00573405
v -0.00568187 0.01458463 0.00065663
v 0.02602549 0.01094370 0.03190791
v 0.02704383 -0.00746483 0.03201927
v 0.02970373 -0.00213515 0.02766666
v 0.00922389 0.01277652 0.00068212
v 0.02448642 0.00760965 0.00979304
v 0.01450270 -0.00481449 0.00068873
v 0.00930537 -0.01370295 0.00152110
v -0.01366162 -0.00755008 0.00075434
v 0.02692832 -0.01361399 0.02519932
v 0.02891444 -0.00746857 0.01738216
v 0.02792904 0.01190692 0.02168123
v 0.02975021 0.00575165 0.02255623
v -0.00749920 0.01542175 0.00160387
v -0.01368276 0.00756581 0.00065177
v 0.02790486 0.00571967 0.03125397
v 0.02702380 0.00755679 0.03200817
v 0.02416832 0.01542833 0.03125808
v 0.02794228 0.01103622 0.02760222
v 0.02592846 -0.01201714 0.03124883
v 0.02877865 -0.00049614 0.03042086
v 0.02874462 -0.00661088 0.02855764
v 0.00571457 0.01452971 0.00053410
v 0.01272960 0.00924666 0.00072866
v 0.00987545 0.01519131 0.00234624
v 0.01691273 0.00567276 0.00235202
v 0.02703124 0.00572470 0.01227796
v 0.01433818 0.01082053 0.00231691
v 0.02686156 0.00843030 0.01299879
v 0.02153694 -0.01366020 0.00971541
v 0.01273926 -0.00836112 0.00071869
v -0.01353296 -0.01338512 0.00390841
v -0.01370531 -0.01014198 0.00158025
v 0.02616542 -0.01365814 0.02858082
v 0.02597540 -0.01271243 0.01485511
v 0.02697351 -0.01295468 0.01736355
v 0.02787357 -0.01110470 0.02076968
v 0.02979046 -0.00489906 0.02357891
v 0.02979540 0.00495545 0.02076156
v 0.02882216 0.00939585 0.02258906
v 0.02976158 0.00497134 0.02612419
f 9 5 8
f 13 5 9
f 14 9 8
f 14 1 9
f 18 8 5
f 21 9 1
f 22 21 12
f 22 9 21
f 23 13 9
f 26 14 8
f 30 10 16
f 31 16 10
f 31 5 16
f 31 18 5
f 35 7 12
f 37 22 6
f 37 9 22
f 37 23 9
f 37 6 24
f 37 13 23
f 37 24 4
f 37 4 13
f 38 4 24
f 38 16 32
f 38 32 13
f 38 13 4
f 39 14 11
f 40 25 1
f 40 1 14
f 40 14 39
f 41 21 1
f 41 1 25
f 42 41 25
f 42 21 41
f 42 20 35
f 42 35 12
f 42 12 21
f 42 39 11
f 42 40 39
f 42 25 40
f 43 26 8
f 44 27 11
f 44 11 14
f 44 14 26
f 45 2 27
f 45 43 2
f 45 26 43
f 45 44 26
f 45 27 44
f 46 15 30
f 46 30 16
f 46 16 38
f 46 38 24
f 46 24 6
f 47 3 15
f 47 46 28
f 47 15 46
f 48 28 46
f 48 46 6
f 48 6 22
f 49 15 3
f 49 3 29
f 49 30 15
f 50 19 34
f 50 49 29
f 50 30 49
f 51 29 3
f 51 22 29
f 51 48 22
f 51 28 48
f 51 47 28
f 51 3 47
f 52 29 22
f 52 22 12
f 52 12 7
f 52 50 29
f 52 7 19
f 52 19 50
f 53 17 18
f 53 18 31
f 53 30 50
f 54 31 10
f 54 10 30
f 54 53 31
f 54 30 53
f 55 16 5
f 56 5 13
f 56 13 32
f 56 55 5
f 56 32 16
f 56 16 55
f 57 8 18
f 57 18 33
f 57 43 8
f 57 33 2
f 57 2 43
f 58 18 17
f 58 50 34
f 58 53 50
f 58 17 53
f 59 33 18
f 59 58 34
f 59 18 58
f 60 2 33
f 60 59 34
f 60 33 59
f 61 27 2
f 61 60 34
f 61 2 60
f 61 34 19
f 62 19 7
f 62 7 36
f 62 61 19
f 63 35 20
f 63 20 36
f 63 36 7
f 63 7 35
f 64 36 20
f 64 11 27
f 64 62 36
f 64 27 61
f 64 61 62
f 64 42 11
f 64 20 42

