# https://github.com/mikedh/trimesh
v 0.00934694 0.01565212 0.03845845
v 0.01011761 -0.01394505 0.03863248
v 0.00966553 0.01610129 0.03266261
v -0.01425639 0.01610129 0.03266261
v -0.01486241 0.01686404 0.03909387
v -0.01425639 -0.01426114 0.03266261
v 0.00979700 -0.01444181 0.03900480
v 0.00966553 -0.01426114 0.03266261
v -0.01363243 -0.01346493 0.03835880
v 0.00911104 -0.01477203 0.03872737
f 1 2 3
f 5 1 3
f 5 3 4
f 6 4 3
f 6 5 4
f 7 2 1
f 7 1 5
f 8 6 3
f 8 3 2
f 8 2 7
f 9 7 5
f 9 5 6
f 10 8 7
f 10 6 8
f 10 9 6
f 10 7 9

