# https://github.com/mikedh/trimesh
v 0.01408645 -0.01407829 0.04189950
v 0.02638354 -0.01380789 0.02779519
v -0.01363243 -0.01346493 0.03835880
v -0.00490347 -0.01388063 0.00030854
v -0.00390978 -0.02981846 0.01724171
v 0.01024327 -0.01377899 0.00193794
v 0.01749696 -0.01381618 0.04021894
v -0.00476763 -0.02597837 0.03567512
v -0.01375755 -0.02429609 0.01232609
v 0.02641834 -0.01382889 0.01722740
v -0.01379257 -0.01369949 0.00458153
v 0.00393910 -0.02521028 0.00963438
v -0.00589119 -0.01945043 0.04180978
v 0.00834805 -0.02419853 0.03647231
v -0.01369610 -0.02599977 0.02950287
v -0.01197170 -0.01371495 0.00291942
v 0.00306292 -0.01638132 0.00154038
v -0.00487426 -0.02524644 0.00965889
v 0.01373841 -0.02692435 0.02078485
v -0.00618653 -0.01764452 0.04175440
v 0.01102586 -0.01982642 0.03983778
v 0.00214134 -0.02256864 0.03993280
v -0.01382846 -0.02093902 0.03754045
v -0.01369682 -0.02690529 0.02079200
v -0.00477921 -0.02967078 0.02768787
v 0.00404036 -0.01385718 0.00029000
v -0.00916175 -0.02419684 0.00962599
v -0.01384526 -0.02103441 0.00902100
v 0.00828664 -0.02423528 0.00969190
v -0.00401604 -0.01639640 0.00153322
v 0.00388848 -0.02784793 0.01295840
v 0.02425464 -0.01821668 0.02371005
v -0.01308397 -0.02028765 0.03868234
v 0.01366926 -0.01799451 0.03986502
v -0.00312758 -0.02254917 0.03998752
v 0.00301205 -0.02602446 0.03562872
v 0.00663339 -0.02163209 0.03990954
v -0.01001930 -0.02506862 0.03472777
v -0.01101162 -0.02789455 0.01713192
v -0.01371823 -0.02694070 0.02609603
v 0.00578453 -0.02977162 0.02428945
v -0.00936542 -0.01381180 0.00135165
v 0.00661514 -0.01544518 0.00165540
v -0.00476703 -0.02781720 0.01295480
v -0.01279215 -0.02246684 0.00965653
v 0.00390958 -0.01697357 0.00223202
v 0.01714717 -0.01896295 0.00972270
v -0.00395172 -0.02611817 0.01049574
v 0.00577295 -0.02704674 0.01232286
v 0.01975185 -0.02252359 0.01797480
v 0.01623114 -0.02506538 0.02762621
v 0.01385640 -0.01480958 0.04173241
v 0.01349547 -0.02237650 0.03556067
v 0.00312017 -0.02021489 0.04170629
v -0.00757348 -0.02163451 0.03992007
v 0.00578196 -0.02424963 0.03727421
v -0.00477217 -0.02877364 0.03041767
v 0.00213281 -0.02335051 0.03914523
v 0.01106130 -0.02239926 0.03720552
v -0.01369642 -0.02325198 0.03473773
v -0.00926702 -0.02428055 0.03640044
v -0.01370472 -0.02598784 0.01571497
v -0.00940140 -0.02880831 0.02167249
v -0.00934088 -0.02878952 0.02689196
f 7 2 3
f 7 3 1
f 10 6 3
f 10 3 2
f 16 11 3
f 16 3 6
f 20 13 1
f 20 1 3
f 23 3 11
f 26 16 6
f 28 11 16
f 28 23 11
f 30 17 12
f 30 12 18
f 30 26 17
f 30 4 26
f 30 18 27
f 32 10 2
f 33 20 3
f 33 13 20
f 33 3 23
f 40 15 23
f 40 23 28
f 40 28 9
f 40 9 24
f 41 25 5
f 41 14 36
f 41 31 19
f 41 5 31
f 42 26 4
f 42 16 26
f 42 4 30
f 42 28 16
f 42 30 27
f 43 26 6
f 43 17 26
f 43 6 29
f 44 5 39
f 44 39 9
f 44 9 27
f 44 31 5
f 45 27 9
f 45 9 28
f 45 42 27
f 45 28 42
f 46 29 12
f 46 12 17
f 46 43 29
f 46 17 43
f 47 29 6
f 47 6 10
f 48 18 12
f 48 12 31
f 48 31 44
f 48 44 27
f 48 27 18
f 49 31 12
f 49 12 29
f 49 19 31
f 50 10 32
f 50 47 10
f 50 29 47
f 50 49 29
f 50 19 49
f 51 50 32
f 51 19 50
f 51 41 19
f 51 14 41
f 51 32 2
f 52 34 7
f 52 7 1
f 52 21 34
f 53 34 21
f 53 14 51
f 53 7 34
f 53 51 2
f 53 2 7
f 54 35 22
f 54 13 35
f 54 22 37
f 54 37 21
f 54 21 52
f 54 52 1
f 54 1 13
f 55 35 13
f 55 13 33
f 55 8 35
f 56 36 14
f 56 14 37
f 57 36 8
f 57 41 36
f 57 25 41
f 57 8 38
f 58 35 8
f 58 8 36
f 58 22 35
f 58 36 56
f 58 56 37
f 58 37 22
f 59 37 14
f 59 21 37
f 59 53 21
f 59 14 53
f 60 23 15
f 60 15 38
f 61 33 23
f 61 60 38
f 61 23 60
f 61 55 33
f 61 38 8
f 61 8 55
f 62 39 24
f 62 24 9
f 62 9 39
f 63 39 5
f 63 5 25
f 63 40 24
f 63 24 39
f 64 15 40
f 64 25 57
f 64 57 38
f 64 38 15
f 64 63 25
f 64 40 63

