# https://github.com/mikedh/trimesh
v 0.00110208 0.01513548 0.03614404
v 0.00139030 0.02807896 0.03217590
v -0.01390711 0.02459849 0.03226387
v -0.01513345 0.01721191 0.00911268
v 0.00138486 0.01610129 0.01150092
v -0.00847600 0.02878420 0.01725775
v -0.01425639 0.01610129 0.03266261
v -0.00480183 0.02789123 0.03205381
v -0.01366254 0.02595525 0.01572522
v 0.00138606 0.02513236 0.01077919
v -0.00849009 0.02701010 0.03208640
v -0.00391881 0.02974841 0.02767685
v -0.01370059 0.02695091 0.02169239
v -0.00938482 0.02618471 0.01228011
v -0.00389335 0.02879970 0.03041440
v 0.00137951 0.03022600 0.02165400
v -0.01368847 0.02691230 0.02518686
v -0.01272833 0.02685993 0.01666159
v -0.00573073 0.02792469 0.01380318
v -0.00586932 0.02668188 0.01187024
v -0.01370440 0.02423383 0.01241173
v 0.00138374 0.02982825 0.02771541
v -0.00844248 0.02774907 0.03040803
v -0.00572060 0.02975074 0.02166924
v -0.01185984 0.02786623 0.02169747
v -0.01001265 0.02686509 0.01385808
v -0.00578686 0.02907639 0.01646497
v -0.00845375 0.02694416 0.01302718
v 0.00138881 0.02887032 0.03042708
v -0.00569507 0.02871166 0.02949507
v -0.01010967 0.02700678 0.03124464
v -0.01095677 0.02789453 0.02768399
v -0.00479333 0.02976887 0.02694820
v -0.01091770 0.02775034 0.01666551
v -0.00939394 0.02882581 0.02076503
v -0.01183725 0.02784036 0.02518445
v -0.01190255 0.02512860 0.01242494
v -0.00754554 0.02873676 0.01661411
v 0.00046640 0.02886075 0.03045420
v -0.00844285 0.02868505 0.02765126
v -0.01099968 0.02613522 0.03209720
v -0.01364567 0.02590232 0.02947271
v -0.00939318 0.02881820 0.02518557
v -0.01374053 0.02518004 0.03135074
v -0.01278716 0.02696365 0.02769546
v -0.00571050 0.02972141 0.02518625
f 5 2 1
f 7 1 3
f 7 3 4
f 7 5 1
f 7 4 5
f 8 1 2
f 10 5 4
f 10 2 5
f 11 3 1
f 11 1 8
f 13 9 4
f 15 8 2
f 17 13 4
f 17 4 3
f 18 9 13
f 19 16 10
f 20 10 4
f 20 4 14
f 20 19 10
f 21 14 4
f 21 4 9
f 22 12 15
f 22 16 12
f 25 18 13
f 26 9 18
f 26 21 9
f 27 16 19
f 27 24 16
f 27 6 24
f 28 20 14
f 28 19 20
f 28 14 26
f 28 26 6
f 29 2 10
f 29 10 16
f 29 16 22
f 30 23 15
f 30 15 12
f 31 11 8
f 31 8 15
f 31 15 23
f 33 12 16
f 33 16 24
f 34 18 25
f 34 26 18
f 34 6 26
f 35 24 6
f 35 34 25
f 35 6 34
f 36 25 13
f 36 13 17
f 36 17 32
f 37 26 14
f 37 14 21
f 37 21 26
f 38 27 19
f 38 19 28
f 38 28 6
f 38 6 27
f 39 29 22
f 39 22 15
f 39 15 2
f 39 2 29
f 40 30 12
f 40 23 30
f 40 12 33
f 40 32 31
f 40 31 23
f 41 3 11
f 41 11 31
f 42 17 3
f 43 24 35
f 43 40 33
f 43 36 32
f 43 32 40
f 43 35 25
f 43 25 36
f 44 41 31
f 44 3 41
f 44 42 3
f 44 31 32
f 44 32 42
f 45 42 32
f 45 32 17
f 45 17 42
f 46 43 33
f 46 33 24
f 46 24 43

