# https://github.com/mikedh/trimesh
v -0.00618653 -0.01764452 0.04175440
v -0.00587803 -0.02030982 0.04138284
v -0.00620190 -0.01659168 0.03790254
v -0.01393380 -0.01104904 0.03781020
v -0.01458531 -0.01270541 0.04207696
v -0.01404456 -0.02042652 0.03788844
v -0.01471177 -0.01095516 0.04088636
v -0.00589119 -0.01945043 0.04180978
v -0.00616771 -0.02139171 0.03887022
v -0.00729957 -0.01600709 0.03774194
v -0.01393586 -0.01571073 0.04160593
v -0.00635738 -0.01708442 0.04120741
v -0.01439321 -0.01068904 0.03810049
v -0.01106731 -0.01892692 0.04079409
v -0.01127845 -0.01759876 0.04163934
v -0.01281943 -0.01905592 0.03991694
v -0.00924648 -0.01984586 0.04076621
v -0.00764310 -0.01940403 0.04163019
v -0.01365991 -0.01719050 0.04077417
v -0.01279476 -0.01993748 0.03919380
v -0.01376694 -0.02006255 0.03843522
f 7 5 1
f 7 6 5
f 8 2 3
f 8 3 1
f 8 1 5
f 9 6 3
f 9 3 2
f 9 2 6
f 10 6 4
f 10 4 3
f 10 3 6
f 11 5 6
f 12 7 1
f 12 1 3
f 12 3 7
f 13 7 3
f 13 3 4
f 13 4 6
f 13 6 7
f 15 8 5
f 15 5 11
f 16 14 15
f 18 2 8
f 18 8 15
f 18 17 2
f 18 15 14
f 18 14 17
f 19 11 6
f 19 16 15
f 19 15 11
f 20 6 2
f 20 2 17
f 20 17 14
f 20 14 16
f 21 19 6
f 21 16 19
f 21 20 16
f 21 6 20

