# https://github.com/mikedh/trimesh
v 0.01225214 0.01589911 0.04184047
v 0.01391089 0.01567011 0.04118773
v 0.00943175 0.02656809 0.03227966
v -0.01390711 0.02459849 0.03226387
v -0.01425639 0.01610129 0.03266261
v -0.00396084 0.02261330 0.03994944
v 0.01286253 0.02153047 0.03718223
v -0.01317507 0.01585242 0.04191897
v 0.01426589 0.01610129 0.03266261
v -0.00672701 0.02733087 0.03225830
v 0.01183741 0.01810690 0.04070469
v 0.00576345 0.02427099 0.03727095
v 0.00401227 0.02000452 0.04174062
v -0.01370591 0.02230516 0.03646540
v 0.01390754 0.02454678 0.03215911
v 0.01194364 0.01642696 0.04172024
v 0.01357538 0.01894067 0.03905127
v 0.00830364 0.02425938 0.03651547
v -0.00392607 0.02606914 0.03570687
v -0.00578867 0.01997707 0.04167042
v 0.00214626 0.02258822 0.03997861
v -0.01410797 0.01592146 0.04155767
v -0.01007620 0.02608010 0.03297671
v 0.01205350 0.02543788 0.03214412
v 0.00751161 0.01902664 0.04164559
v 0.01373345 0.01636116 0.04083978
v 0.01266139 0.01976899 0.03897079
v 0.01373487 0.02234262 0.03560645
v 0.00301920 0.02599179 0.03568851
v -0.01008747 0.02338370 0.03722708
v 0.00211165 0.02338373 0.03914321
v 0.00668377 0.02166270 0.03990580
v -0.01195213 0.01731074 0.04173803
v -0.01026859 0.02638374 0.03225979
v -0.01092814 0.02413270 0.03567269
v -0.00846697 0.02505686 0.03571082
v 0.00584188 0.02739478 0.03226890
v 0.01099748 0.01727702 0.04165749
v 0.01002740 0.02412448 0.03556601
v 0.00752708 0.02504934 0.03564351
v -0.00846068 0.02154983 0.03992351
v -0.00394598 0.02335043 0.03913327
v 0.00481389 0.02508016 0.03653900
v 0.00667600 0.02242707 0.03910533
v 0.00580436 0.02076826 0.04082724
v 0.00835278 0.01985720 0.04074411
v 0.01102332 0.02059283 0.03902244
v -0.01289557 0.01646161 0.04181576
v -0.00843937 0.01912781 0.04170544
v -0.01357604 0.01896364 0.03989306
v -0.00481444 0.02689379 0.03384778
v -0.01009850 0.02505543 0.03476673
v 0.00916969 0.02509878 0.03469411
v -0.00575679 0.02516056 0.03658978
v -0.00757764 0.02333629 0.03820071
v -0.01376235 0.01733520 0.04086827
v 0.00389928 0.02689492 0.03381930
f 8 5 2
f 8 2 1
f 9 2 5
f 13 8 1
f 15 2 9
f 15 9 5
f 15 5 4
f 16 1 2
f 20 13 6
f 20 8 13
f 21 6 13
f 22 14 4
f 22 4 5
f 22 5 8
f 24 15 4
f 25 13 1
f 26 17 11
f 26 2 17
f 26 16 2
f 26 11 16
f 27 17 7
f 27 11 17
f 28 7 17
f 28 18 7
f 28 15 24
f 28 17 2
f 28 2 15
f 31 6 21
f 31 29 19
f 34 23 10
f 34 4 23
f 34 24 4
f 34 10 24
f 35 4 14
f 35 14 30
f 36 10 23
f 36 35 30
f 37 24 10
f 37 3 24
f 38 25 1
f 38 1 16
f 38 16 11
f 39 28 24
f 39 18 28
f 40 18 3
f 40 37 29
f 40 3 37
f 41 20 6
f 41 30 14
f 42 31 19
f 42 6 31
f 43 31 12
f 43 29 31
f 43 40 29
f 43 12 18
f 43 18 40
f 44 32 18
f 44 18 12
f 44 12 31
f 44 31 21
f 44 21 32
f 45 32 21
f 45 21 13
f 45 13 25
f 45 25 32
f 46 32 25
f 46 38 11
f 46 25 38
f 47 27 7
f 47 7 18
f 47 18 32
f 47 32 46
f 47 46 11
f 47 11 27
f 48 22 8
f 48 8 33
f 49 33 8
f 49 8 20
f 49 41 33
f 49 20 41
f 50 14 22
f 50 41 14
f 50 33 41
f 51 36 19
f 51 10 36
f 51 37 10
f 52 36 23
f 52 35 36
f 52 23 4
f 52 4 35
f 53 3 18
f 53 18 39
f 53 39 24
f 53 24 3
f 54 36 30
f 54 42 19
f 54 19 36
f 55 41 6
f 55 6 42
f 55 42 54
f 55 54 30
f 55 30 41
f 56 48 33
f 56 33 50
f 56 50 22
f 56 22 48
f 57 51 19
f 57 19 29
f 57 29 37
f 57 37 51

