# https://github.com/mikedh/trimesh
v 0.01402794 0.02386980 0.01194696
v 0.01521309 0.01718742 0.00920504
v 0.00846923 0.01556363 0.00192863
v -0.00580046 0.01564514 0.00125055
v -0.01513345 0.01721191 0.00911268
v 0.00393932 0.02606350 0.01051138
v 0.01385302 0.02195768 0.00975906
v -0.01394283 0.02377516 0.01201831
v -0.01400563 0.01570859 0.00671787
v 0.00211735 0.01790582 0.00224446
v 0.01016729 0.01552287 0.00287624
v 0.00854173 0.02447831 0.00975785
v 0.00768872 0.02649590 0.01201654
v -0.00393204 0.02532859 0.00967823
v -0.01108387 0.01555622 0.00371853
v -0.01379687 0.02171372 0.00962252
v 0.00582284 0.01569625 0.00123452
v 0.01394746 0.01571139 0.00671602
v 0.01383626 0.02346777 0.01138564
v 0.00397708 0.02535646 0.00968666
v 0.00845916 0.02515541 0.01055170
v -0.00207607 0.01787035 0.00225377
v -0.00676066 0.02655646 0.01195959
v -0.00565693 0.01625938 0.00157829
v 0.00572034 0.01634670 0.00157986
v 0.01014026 0.02524183 0.01142368
v 0.00759346 0.02605823 0.01144270
v -0.00389562 0.02608073 0.01055224
v -0.01027226 0.02559334 0.01204303
v -0.00850132 0.02429078 0.00969378
v 0.00644276 0.01693005 0.00232784
v 0.01032497 0.02564841 0.01199417
v -0.01376087 0.02337507 0.01145157
v -0.01008028 0.02519379 0.01147648
v -0.00667449 0.02611797 0.01138139
f 7 1 2
f 8 5 2
f 8 2 1
f 9 2 5
f 11 3 7
f 12 7 3
f 15 4 3
f 15 3 11
f 16 9 5
f 16 5 8
f 16 15 9
f 17 3 4
f 17 4 10
f 18 11 7
f 18 7 2
f 18 2 9
f 18 15 11
f 18 9 15
f 19 1 7
f 19 7 12
f 20 12 10
f 20 6 12
f 20 10 14
f 21 12 6
f 22 14 10
f 22 10 4
f 23 13 6
f 24 4 15
f 24 15 16
f 24 22 4
f 25 3 17
f 25 17 10
f 25 10 12
f 26 19 12
f 26 1 19
f 27 21 6
f 27 6 13
f 27 13 21
f 28 23 6
f 28 20 14
f 28 6 20
f 29 8 13
f 29 13 23
f 30 14 22
f 30 22 24
f 30 24 16
f 30 29 23
f 30 28 14
f 31 25 12
f 31 12 3
f 31 3 25
f 32 26 12
f 32 12 21
f 32 21 13
f 32 1 26
f 32 13 8
f 32 8 1
f 33 16 8
f 33 8 29
f 34 30 16
f 34 29 30
f 34 33 29
f 34 16 33
f 35 30 23
f 35 23 28
f 35 28 30

