# https://github.com/mikedh/trimesh
v 0.01416902 0.02417778 0.03252650
v 0.01390754 0.02454678 0.03215911
v 0.00139861 0.02602397 0.03357507
v -0.00605922 0.02475095 0.01120606
v 0.01402794 0.02386980 0.01194696
v -0.00597572 0.02438195 0.02162173
v 0.00848485 0.02696152 0.03204982
v 0.01373097 0.02692460 0.01803077
v -0.00572060 0.02975074 0.02166924
v 0.01100417 0.02606874 0.03193959
v 0.01373767 0.02695094 0.02609529
v 0.00391088 0.02874558 0.01474755
v 0.00138374 0.02982825 0.02771541
v 0.01369514 0.02595187 0.02942105
v 0.00923565 0.02692551 0.01306805
v -0.00474380 0.02783638 0.01310788
v 0.00139030 0.02807896 0.03217590
v 0.00849340 0.02870760 0.02766184
v 0.00389984 0.02979714 0.01727340
v 0.01378168 0.02516425 0.03124126
v 0.01376807 0.02607883 0.01567006
v 0.00667332 0.02696359 0.01235163
v -0.00571255 0.02875129 0.01568795
v 0.00138881 0.02887032 0.03042708
v 0.00481078 0.02779615 0.03196327
v 0.01027793 0.02881071 0.02359210
v 0.01101155 0.02793195 0.02764026
v -0.00395228 0.02984465 0.01736907
v 0.00758674 0.02874935 0.01657956
v 0.01284826 0.02517562 0.03197009
v 0.01095830 0.02781088 0.01658122
v 0.01376631 0.02430246 0.01231655
v 0.01014569 0.02606961 0.01240341
v -0.00574538 0.02705743 0.01230314
v 0.00478576 0.02786123 0.01311394
v 0.00390336 0.02870590 0.03037888
v 0.00574362 0.02969666 0.02518327
v 0.01019047 0.02878912 0.02427500
v 0.01009069 0.02691487 0.03121902
v -0.00479999 0.02974300 0.01800285
v -0.00388493 0.02876083 0.01476055
v 0.00848096 0.02883759 0.01739112
v 0.01007677 0.02780955 0.01568285
v 0.01282298 0.02696602 0.01661717
v 0.00384160 0.02970462 0.02769317
v 0.00666133 0.02779185 0.03125277
v 0.00574993 0.02972137 0.02167392
v 0.00482982 0.02969661 0.02702212
v 0.01188321 0.02782475 0.02609466
v 0.01184239 0.02683012 0.02941146
v -0.00570375 0.02970087 0.02076888
v 0.01189566 0.02784284 0.01892401
v 0.00483858 0.02975716 0.01891820
v 0.00943310 0.02882592 0.01984480
f 6 1 3
f 6 5 1
f 6 4 5
f 7 3 1
f 8 1 5
f 9 6 3
f 9 4 6
f 10 7 1
f 11 1 8
f 14 1 11
f 17 9 3
f 20 2 1
f 20 1 14
f 21 8 5
f 22 5 4
f 23 4 9
f 24 13 9
f 24 9 17
f 25 17 3
f 25 3 7
f 26 11 8
f 27 14 11
f 28 9 13
f 28 13 19
f 29 15 12
f 29 12 19
f 30 20 10
f 30 2 20
f 30 10 1
f 30 1 2
f 32 21 5
f 32 15 21
f 33 22 15
f 33 5 22
f 33 32 5
f 33 15 32
f 34 22 4
f 34 23 16
f 34 4 23
f 35 12 15
f 35 15 22
f 35 34 16
f 35 22 34
f 36 24 17
f 36 17 25
f 38 18 27
f 38 26 37
f 39 10 20
f 39 7 10
f 39 27 18
f 40 28 23
f 40 9 28
f 41 16 23
f 41 23 28
f 41 35 16
f 41 12 35
f 41 28 19
f 41 19 12
f 42 29 19
f 43 21 15
f 43 42 31
f 43 15 29
f 43 29 42
f 44 31 8
f 44 8 21
f 44 43 31
f 44 21 43
f 45 13 24
f 45 24 36
f 46 36 25
f 46 25 7
f 46 7 39
f 46 39 18
f 46 45 36
f 46 18 45
f 47 37 26
f 47 19 13
f 47 13 37
f 48 38 37
f 48 18 38
f 48 45 18
f 48 37 13
f 48 13 45
f 49 38 27
f 49 27 11
f 49 11 26
f 49 26 38
f 50 14 27
f 50 27 39
f 50 39 20
f 50 20 14
f 51 40 23
f 51 23 9
f 51 9 40
f 52 26 8
f 52 8 31
f 52 31 42
f 53 42 19
f 53 19 47
f 54 47 26
f 54 53 47
f 54 42 53
f 54 52 42
f 54 26 52

