# https://github.com/mikedh/trimesh
v 0.02606363 0.01552792 0.02169689
v 0.02893874 0.00872827 0.02162479
v 0.02602149 0.01094488 0.01299052
v 0.01676499 0.00861175 0.00346866
v 0.01702612 0.00874070 0.02162173
v 0.02625611 0.00849747 0.01223853
v 0.01686884 0.01597804 0.00813427
v 0.02797279 0.01111867 0.01731599
v 0.02792904 0.01190692 0.02168123
v 0.02353072 0.01021422 0.00975542
v 0.01722846 0.00838233 0.00383708
v 0.02797138 0.00847695 0.01561274
v 0.02412743 0.01546598 0.01392089
v 0.01702612 0.01610129 0.02162173
v 0.02785669 0.01183641 0.01985703
v 0.02517484 0.01006245 0.01150647
v 0.02014602 0.01566998 0.00964928
v 0.02386656 0.00860036 0.00955156
v 0.02611401 0.00938324 0.01235573
v 0.02691134 0.01090850 0.01480502
v 0.02501225 0.01546766 0.01575509
v 0.01655402 0.00941401 0.00367480
v 0.02601014 0.01550748 0.02076889
v 0.02333797 0.01372887 0.01150406
v 0.02778307 0.00934930 0.01569938
v 0.02687855 0.01272411 0.01668039
v 0.02416668 0.01462553 0.01307924
v 0.01666878 0.01490279 0.00761202
v 0.02171428 0.01369817 0.00972546
v 0.02593008 0.01452593 0.01666379
f 9 5 2
f 9 1 5
f 9 2 8
f 11 5 4
f 12 2 5
f 12 11 6
f 12 5 11
f 12 8 2
f 14 5 1
f 14 1 7
f 15 9 8
f 15 1 9
f 17 7 13
f 18 6 11
f 18 10 16
f 18 11 4
f 18 4 10
f 19 12 6
f 19 3 12
f 19 16 3
f 19 18 16
f 19 6 18
f 21 13 7
f 21 7 1
f 22 4 5
f 22 5 14
f 22 7 17
f 23 15 8
f 23 1 15
f 23 21 1
f 24 16 10
f 24 3 16
f 25 12 3
f 25 3 20
f 25 20 8
f 25 8 12
f 26 8 20
f 26 20 3
f 27 13 21
f 27 3 24
f 27 17 13
f 27 26 3
f 27 21 26
f 28 22 14
f 28 14 7
f 28 7 22
f 29 22 17
f 29 10 4
f 29 4 22
f 29 24 10
f 29 27 24
f 29 17 27
f 30 23 8
f 30 8 26
f 30 26 21
f 30 21 23

