# https://github.com/mikedh/trimesh
v -0.03444446 0.02896924 0.06446528
v -0.03403963 0.03028673 0.06309246
v -0.04354508 0.02103831 0.06115579
v -0.04596428 0.02157346 0.04369849
v -0.04631854 0.00099813 0.05106583
v -0.04011329 0.02605363 0.05958782
v -0.03616020 0.02543215 0.05124314
v -0.05404717 0.00019575 0.06188267
v -0.03457911 0.03265224 0.05100738
v -0.04192147 0.02436158 0.05789856
v -0.04184549 0.02266742 0.06271855
v -0.03914402 0.02292172 0.04399367
v -0.04910711 0.00184969 0.06061433
v -0.04527713 0.01942303 0.05789993
v -0.05106613 0.00811227 0.04392591
v -0.03678665 0.02938267 0.05955497
v -0.03401585 0.03187411 0.05801731
v -0.03566557 0.03181564 0.05087428
v -0.03565016 0.02832068 0.06415205
v -0.04534638 0.01613094 0.06385361
v -0.04764807 0.00144616 0.05762784
v -0.04559440 0.01112295 0.06354199
v -0.04699846 0.01784820 0.05080927
v -0.04362556 0.02280415 0.05438706
v -0.04933036 0.01467772 0.04370817
v -0.05191027 0.00066546 0.05114745
v -0.04546521 0.00852345 0.04406852
v -0.03507923 0.03111582 0.05789526
v -0.03521359 0.02952143 0.06271680
v -0.04211282 0.02122346 0.06405273
v -0.04708732 0.01436533 0.06132932
v -0.03679466 0.02428781 0.06408071
v -0.05035597 0.00192351 0.06154013
v -0.04803694 0.00977506 0.06339262
v -0.05303951 0.00024258 0.05700712
v -0.04749523 0.00874593 0.06333536
v -0.04762543 0.01120185 0.06351399
v -0.04690663 0.00921941 0.06334506
f 7 2 1
f 7 1 5
f 11 10 3
f 11 6 10
f 12 7 5
f 12 9 7
f 12 4 9
f 14 3 10
f 17 2 7
f 17 7 9
f 17 16 2
f 18 9 4
f 18 4 10
f 18 10 6
f 18 6 16
f 19 1 2
f 20 11 3
f 21 13 8
f 21 8 5
f 22 1 20
f 23 14 4
f 23 8 14
f 24 14 10
f 24 10 4
f 24 4 14
f 25 15 8
f 25 4 12
f 25 23 4
f 25 8 23
f 26 15 5
f 26 8 15
f 27 12 5
f 27 5 15
f 27 25 12
f 27 15 25
f 28 17 9
f 28 9 18
f 28 18 16
f 28 16 17
f 29 6 11
f 29 11 19
f 29 16 6
f 29 19 2
f 29 2 16
f 30 19 11
f 30 11 20
f 30 20 1
f 30 1 19
f 31 14 8
f 31 8 20
f 31 20 3
f 31 3 14
f 32 21 5
f 32 5 1
f 32 13 21
f 32 22 13
f 32 1 22
f 33 8 13
f 33 13 22
f 35 26 5
f 35 5 8
f 35 8 26
f 36 8 33
f 36 34 8
f 37 22 20
f 37 20 8
f 37 8 34
f 37 36 22
f 37 34 36
f 38 36 33
f 38 33 22
f 38 22 36

