# https://github.com/mikedh/trimesh
v -0.02570920 0.03410470 0.06445612
v -0.02536464 0.03512657 0.06294818
v -0.05062809 0.02129687 0.01495528
v -0.03624374 0.03080715 0.00250051
v -0.02596685 0.01346915 0.00034928
v -0.03699645 0.03651187 0.01676575
v -0.04396872 0.02304354 0.05084888
v -0.02632667 0.01379603 0.01023808
v -0.02595206 0.04201745 0.01701727
v -0.04843662 0.01321701 0.00259290
v -0.04547708 0.02813884 0.00741108
v -0.03335612 0.03103328 0.06259644
v -0.04541388 0.02815897 0.02024152
v -0.04389377 0.01416189 0.04405207
v -0.02596618 0.02421901 0.00064500
v -0.03026945 0.03813431 0.03284557
v -0.03580499 0.03717935 0.00849197
v -0.05272219 0.01459740 0.00717743
v -0.04439446 0.02342356 0.00324105
v -0.02863022 0.03313014 0.06408506
v -0.04889454 0.02306662 0.02022582
v -0.04735373 0.02643223 0.00876952
v -0.03690327 0.03121437 0.04892683
v -0.02672142 0.03144442 0.06414734
v -0.04977306 0.01312903 0.04377633
v -0.04007536 0.01872761 0.00106995
v -0.02538616 0.04062502 0.02937105
v -0.03048817 0.04023777 0.01683803
v -0.02846376 0.03446072 0.06122423
v -0.03704893 0.03639143 0.00868639
v -0.03587077 0.03545112 0.00566673
v -0.04406469 0.02653660 0.00461563
v -0.04932883 0.01809506 0.00454639
v -0.04722764 0.02640620 0.01675551
v -0.04716372 0.01955374 0.04362070
v -0.05077198 0.02132158 0.01005049
v -0.04054027 0.03298146 0.02205955
v -0.03355252 0.03281172 0.05435327
v -0.04187909 0.02619859 0.04892715
v -0.03602828 0.02537316 0.06438937
v -0.05300962 0.01296422 0.02216212
v -0.03486839 0.02416944 0.00097589
v -0.04197398 0.01343070 0.00099829
v -0.03517318 0.03649905 0.02565097
v -0.02870968 0.03987137 0.02567561
v -0.02535475 0.03697291 0.05448687
v -0.02682298 0.03467629 0.06263885
v -0.03597882 0.03382589 0.00417264
v -0.03870484 0.03470093 0.00751234
v -0.03765114 0.03045629 0.00292101
v -0.04812747 0.01655968 0.00312408
v -0.05318250 0.01305159 0.00709359
v -0.04757988 0.02145839 0.00462522
v -0.05080350 0.01958820 0.00729171
v -0.04933036 0.01467772 0.04370817
v -0.03019583 0.03449691 0.05613624
v -0.04379260 0.02961528 0.02202831
v -0.03377606 0.02985206 0.06414640
v -0.05241365 0.01632605 0.01848646
v -0.04190338 0.01517043 0.00106585
v -0.03027004 0.03992132 0.02033068
v -0.03864527 0.03292907 0.03103299
v -0.03508358 0.03292467 0.04715131
v -0.02704883 0.04000279 0.02927432
f 8 5 2
f 8 2 1
f 20 1 2
f 24 8 1
f 25 5 8
f 25 8 14
f 26 19 4
f 26 10 19
f 27 15 9
f 27 5 15
f 28 17 6
f 28 9 17
f 29 12 20
f 30 6 17
f 30 22 6
f 31 17 9
f 31 9 15
f 34 3 21
f 34 13 22
f 34 21 7
f 34 7 13
f 35 21 3
f 35 7 21
f 36 34 22
f 36 3 34
f 37 22 13
f 37 6 22
f 38 23 12
f 38 12 29
f 39 13 7
f 39 7 12
f 39 12 23
f 39 23 37
f 40 14 8
f 40 8 24
f 40 25 14
f 40 7 25
f 40 24 1
f 41 5 25
f 42 26 4
f 42 4 15
f 42 15 5
f 43 5 10
f 43 42 5
f 43 26 42
f 44 28 6
f 44 6 37
f 45 27 9
f 46 29 2
f 46 45 16
f 46 2 5
f 46 5 27
f 47 29 20
f 47 20 2
f 47 2 29
f 48 31 15
f 48 15 4
f 48 32 11
f 49 30 17
f 49 17 31
f 49 11 22
f 49 22 30
f 49 48 11
f 49 31 48
f 50 4 19
f 50 19 32
f 50 48 4
f 50 32 48
f 51 19 10
f 51 10 33
f 52 33 10
f 52 18 33
f 52 10 5
f 52 5 41
f 52 36 18
f 53 32 19
f 53 51 33
f 53 19 51
f 53 11 32
f 54 33 18
f 54 53 33
f 54 22 11
f 54 11 53
f 54 36 22
f 54 18 36
f 55 25 7
f 55 7 35
f 55 41 25
f 56 38 29
f 56 44 38
f 56 16 44
f 56 46 16
f 56 29 46
f 57 39 37
f 57 37 13
f 57 13 39
f 58 12 7
f 58 7 40
f 58 20 12
f 58 40 1
f 58 1 20
f 59 3 36
f 59 52 41
f 59 36 52
f 59 41 55
f 59 55 35
f 59 35 3
f 60 43 10
f 60 10 26
f 60 26 43
f 61 44 16
f 61 28 44
f 61 16 45
f 61 45 9
f 61 9 28
f 62 44 37
f 62 37 23
f 63 23 38
f 63 38 44
f 63 62 23
f 63 44 62
f 64 46 27
f 64 27 45
f 64 45 46

