# https://github.com/mikedh/trimesh
v 0.00138768 -0.03313719 0.01836636
v 0.00052492 -0.04258016 0.01864044
v 0.00080491 -0.03462787 0.00104486
v -0.02597115 -0.00800180 0.00020971
v -0.05065489 -0.02036788 0.01876204
v 0.00088133 -0.00800248 0.00012831
v 0.00027773 -0.04180656 0.00585149
v -0.03748489 -0.03180027 0.00307389
v 0.00112921 -0.00813738 0.00984382
v -0.04970870 -0.01992552 0.00566532
v -0.03113033 -0.03095462 0.00110993
v -0.02195931 -0.04346966 0.00854148
v -0.03993026 -0.02163467 0.01837798
v -0.02601140 -0.00802074 0.00975845
v -0.04391906 -0.03138606 0.01011032
v -0.05138396 -0.01990318 0.01503618
v -0.02404790 -0.03451262 0.00111233
v -0.04021138 -0.02048427 0.00097471
v -0.00120443 -0.04364771 0.00999877
v -0.02706528 -0.04158505 0.01853109
v -0.00077616 -0.00809081 0.00964841
v -0.04388237 -0.02951541 0.00608423
v -0.05126267 -0.01986532 0.00857351
v -0.04902885 -0.02464928 0.01319426
v -0.01679201 -0.04196908 0.00440138
v -0.02894580 -0.03705165 0.00302956
v -0.04639299 -0.01996982 0.00272033
v -0.04010272 -0.02220151 0.00108109
v -0.01852996 -0.04365087 0.01853763
v -0.03548642 -0.03816344 0.01008925
v -0.03702255 -0.03654363 0.01852723
v -0.04712734 -0.02641392 0.00721575
v -0.05072426 -0.02139030 0.01502058
v -0.01872325 -0.03622545 0.00116772
v 0.00045616 -0.03885830 0.00278013
v -0.00482062 -0.04354308 0.00713747
v -0.03240622 -0.03531267 0.00305895
v -0.02363471 -0.04176891 0.00579437
v -0.04589730 -0.02492691 0.00451128
v -0.04267813 -0.02670442 0.00308308
v -0.00477772 -0.04358687 0.01856068
v -0.02203071 -0.04361765 0.01325530
v -0.03693894 -0.03631084 0.00733955
v -0.03201404 -0.03988631 0.01505298
v -0.04223765 -0.03297323 0.01319061
v -0.04885397 -0.02450357 0.00867504
v -0.04913577 -0.02143494 0.00586304
v -0.04931781 -0.02304306 0.01857108
v -0.05065984 -0.02139875 0.00875985
v -0.02379142 -0.03891411 0.00297554
v -0.00279670 -0.03617515 0.00115991
v -0.02015869 -0.04338915 0.00719383
v -0.00648401 -0.04195941 0.00440971
v -0.03199136 -0.03980416 0.00863643
v -0.04616990 -0.02164668 0.00312710
v -0.04733199 -0.02471892 0.00592278
v -0.04220688 -0.02968787 0.00457126
v -0.00121219 -0.04361687 0.01326145
v -0.02025986 -0.04360447 0.01680714
v -0.04229068 -0.03297544 0.01009814
v -0.03536087 -0.03649198 0.00589823
v -0.03555253 -0.03813882 0.01329552
v -0.04389579 -0.03132890 0.01322404
v -0.04720218 -0.02640824 0.01852056
f 5 2 1
f 6 1 3
f 7 1 2
f 7 3 1
f 9 1 6
f 13 9 5
f 13 5 1
f 13 1 9
f 14 6 4
f 14 5 9
f 16 14 4
f 16 5 14
f 17 11 4
f 17 6 3
f 17 4 6
f 18 4 11
f 19 7 2
f 21 14 9
f 21 9 6
f 21 6 14
f 23 16 4
f 23 4 10
f 26 11 17
f 27 10 4
f 27 4 18
f 28 18 11
f 28 11 8
f 28 27 18
f 29 2 5
f 29 5 20
f 31 20 5
f 32 22 15
f 33 5 16
f 34 17 3
f 35 3 7
f 36 7 19
f 37 8 11
f 37 11 26
f 40 28 8
f 40 27 28
f 41 29 19
f 41 2 29
f 42 19 29
f 42 36 19
f 42 12 36
f 44 20 31
f 44 42 20
f 46 32 15
f 46 15 24
f 47 23 10
f 48 33 24
f 48 5 33
f 49 33 16
f 49 16 23
f 49 24 33
f 49 46 24
f 49 23 47
f 49 47 32
f 49 32 46
f 50 26 17
f 50 17 34
f 50 34 25
f 50 38 26
f 50 25 38
f 51 34 3
f 51 3 35
f 51 25 34
f 52 36 12
f 52 25 36
f 52 38 25
f 52 12 38
f 53 35 7
f 53 7 36
f 53 36 25
f 53 51 35
f 53 25 51
f 54 38 12
f 54 30 43
f 54 44 30
f 54 12 42
f 54 42 44
f 55 10 27
f 55 40 39
f 55 27 40
f 55 47 10
f 55 39 47
f 56 39 22
f 56 22 32
f 56 47 39
f 56 32 47
f 57 40 8
f 57 22 39
f 57 39 40
f 58 41 19
f 58 19 2
f 58 2 41
f 59 42 29
f 59 29 20
f 59 20 42
f 60 43 30
f 60 15 22
f 60 22 43
f 60 45 15
f 61 8 37
f 61 37 26
f 61 54 43
f 61 26 38
f 61 38 54
f 61 57 8
f 61 43 22
f 61 22 57
f 62 44 31
f 62 30 44
f 62 31 45
f 62 60 30
f 62 45 60
f 63 24 15
f 63 15 45
f 63 45 31
f 64 31 5
f 64 5 48
f 64 63 31
f 64 48 24
f 64 24 63

