# https://github.com/mikedh/trimesh
v 0.02585681 0.02310809 0.01672796
v 0.03170271 -0.00839384 0.01726177
v 0.02381673 0.00626888 0.00115133
v -0.02596618 0.02421901 0.00064500
v -0.02607652 0.02441136 0.01254398
v -0.02597115 -0.00800180 0.00020971
v 0.01675175 0.02401861 0.00117109
v 0.02934702 0.01115923 0.00582183
v 0.01266449 0.02540913 0.01623140
v 0.02217260 -0.00799242 0.00092570
v -0.02633296 0.01940507 0.01156771
v 0.02946906 0.01479397 0.01676745
v 0.02559208 0.02295667 0.00723049
v 0.02446615 0.01820791 0.00293088
v 0.02940390 -0.00758429 0.00456012
v 0.02199064 0.01335180 0.00109409
v -0.02601140 -0.00802074 0.00975845
v 0.02747906 0.01981136 0.01676661
v 0.02913155 0.01631133 0.00863504
v 0.02123057 0.02343846 0.00268545
v 0.02801818 0.00261360 0.00293753
v 0.02727026 0.01788430 0.00582868
v 0.02935109 0.00610063 0.00453442
v 0.02679249 -0.00785014 0.00248464
v 0.02624451 0.01302060 0.00284741
v 0.02195702 -0.00828381 0.01625038
v 0.02925194 0.01631288 0.01499416
v 0.02023291 0.01866619 0.00118108
v 0.02912856 0.01471725 0.00717678
v 0.02728904 0.01964584 0.00724665
v 0.02567838 0.02142030 0.00591267
v 0.02814627 -0.00252944 0.00295848
v 0.02378362 -0.00438264 0.00111600
v 0.02771621 0.01301226 0.00428632
v 0.02271438 0.02163036 0.00293681
f 7 6 4
f 9 5 2
f 9 2 1
f 9 7 4
f 9 4 5
f 10 2 6
f 11 5 4
f 11 4 6
f 13 9 1
f 16 3 10
f 16 10 6
f 16 6 7
f 17 11 6
f 17 6 2
f 17 5 11
f 18 1 2
f 18 2 12
f 19 12 2
f 19 2 8
f 19 13 1
f 20 7 9
f 20 9 13
f 23 8 2
f 23 2 15
f 24 15 2
f 24 2 10
f 25 3 16
f 25 21 3
f 25 23 21
f 26 17 2
f 26 2 5
f 26 5 17
f 27 18 12
f 27 12 19
f 27 19 1
f 27 1 18
f 28 16 7
f 28 7 20
f 28 20 14
f 28 25 16
f 28 14 25
f 29 19 8
f 29 8 22
f 30 13 19
f 30 29 22
f 30 19 29
f 31 20 13
f 31 30 22
f 31 13 30
f 31 22 14
f 32 23 15
f 32 21 23
f 32 15 24
f 32 3 21
f 33 24 10
f 33 10 3
f 33 32 24
f 33 3 32
f 34 8 23
f 34 23 25
f 34 22 8
f 34 25 14
f 34 14 22
f 35 31 14
f 35 14 20
f 35 20 31

