# https://github.com/mikedh/trimesh
v 0.01291177 0.02725711 0.06459481
v 0.03160251 -0.00659921 0.06212889
v 0.02585681 0.02310809 0.01672796
v 0.01460654 0.02337465 0.01635520
v 0.02213837 -0.00825688 0.06447627
v 0.01301034 0.03440749 0.03307664
v 0.03165583 0.00466707 0.06182846
v 0.01382871 0.02459156 0.01680957
v 0.03170271 -0.00839384 0.01726177
v 0.01688605 0.02606655 0.05954436
v 0.03157016 -0.00246968 0.06366956
v 0.01248724 0.03200577 0.04908583
v 0.02598336 -0.01159925 0.05110083
v 0.02989965 0.01311338 0.01682758
v 0.02241511 -0.00801747 0.01703339
v 0.02041558 0.02634188 0.03821976
v 0.01862514 0.02271735 0.06263653
v 0.02454741 -0.00776881 0.06414471
v 0.03158107 0.00062942 0.06357053
v 0.01265403 0.02870153 0.06309910
v 0.01260443 0.03382678 0.03834140
v 0.01522514 0.02945273 0.05074485
v 0.03147132 -0.00806639 0.05966082
v 0.02747906 0.01981136 0.01676661
v 0.02946906 0.01479397 0.01676745
v 0.02535515 -0.01139884 0.05821068
v 0.01417519 0.03357612 0.03293987
v 0.02025134 0.02275267 0.05614738
v 0.02021665 0.01930807 0.06390676
v 0.01369799 0.02798679 0.06277239
v 0.01695688 0.02945870 0.04175594
v 0.02236331 -0.00839467 0.04405770
v 0.01259243 0.03035437 0.05806938
v 0.02041105 0.02110833 0.06118973
v 0.01397968 0.02662673 0.06427632
v 0.01519211 0.02778575 0.05957819
v 0.01369479 0.03303823 0.03819006
v 0.01367430 0.02951769 0.05791283
f 8 5 1
f 8 6 3
f 8 3 4
f 9 7 2
f 11 2 7
f 11 1 5
f 14 7 9
f 15 8 4
f 15 9 13
f 15 5 8
f 18 11 5
f 18 2 11
f 19 11 7
f 19 1 11
f 20 12 8
f 20 8 1
f 21 6 8
f 21 8 12
f 23 13 9
f 23 9 2
f 24 3 7
f 25 14 9
f 25 9 15
f 25 15 4
f 25 4 3
f 25 3 24
f 25 24 7
f 25 7 14
f 26 15 13
f 26 13 23
f 26 18 5
f 26 23 2
f 26 2 18
f 27 16 3
f 27 3 6
f 27 6 21
f 28 16 10
f 28 7 3
f 28 3 16
f 29 7 17
f 29 19 7
f 29 1 19
f 30 17 10
f 31 10 16
f 31 27 22
f 31 16 27
f 32 26 5
f 32 5 15
f 32 15 26
f 33 21 12
f 33 12 20
f 33 20 30
f 34 17 7
f 34 7 28
f 34 28 10
f 34 10 17
f 35 29 17
f 35 1 29
f 35 17 30
f 35 30 20
f 35 20 1
f 36 31 22
f 36 10 31
f 36 33 30
f 36 30 10
f 37 27 21
f 37 21 33
f 38 36 22
f 38 33 36
f 38 37 33
f 38 22 27
f 38 27 37

