# https://github.com/mikedh/trimesh
v -0.04034515 0.01350012 0.01344483
v -0.02616207 -0.02083927 0.01214788
v -0.02596685 0.01346915 0.00034928
v -0.04024950 0.01345051 0.00086190
v -0.04151289 -0.01946922 0.01843191
v -0.02597143 -0.02052920 0.00046018
v -0.03180918 0.01380429 0.01154372
v -0.04021138 -0.02048427 0.00097471
v -0.02632667 0.01379603 0.01023808
v -0.04064957 -0.02082753 0.01873478
v -0.03993026 -0.02163467 0.01837798
f 5 1 4
f 6 3 2
f 6 4 3
f 7 4 1
f 8 5 4
f 8 4 6
f 9 3 4
f 9 4 7
f 9 2 3
f 10 7 1
f 10 1 5
f 10 9 7
f 10 2 9
f 10 5 8
f 11 8 6
f 11 6 2
f 11 10 8
f 11 2 10

