# https://github.com/mikedh/trimesh
v 0.04326288 0.00213102 0.06339588
v 0.05802872 -0.00404846 0.04352543
v 0.05508812 0.00432765 0.04706283
v 0.05036906 0.00463597 0.03321796
v 0.03134150 -0.00791300 0.05533401
v 0.05811275 0.00322108 0.03315458
v 0.03165583 0.00466707 0.06182846
v 0.05263497 0.00054062 0.05680001
v 0.05776469 0.00209844 0.04346401
v 0.05705942 0.00430150 0.03318281
v 0.05036213 -0.00794064 0.03320543
v 0.04333021 0.00452076 0.06186641
v 0.03160251 -0.00659921 0.06212889
v 0.03128255 0.00376409 0.05256375
v 0.05800985 0.00313337 0.03835995
v 0.05603463 0.00052662 0.05022255
v 0.04908512 -0.00682078 0.03320902
v 0.05852654 -0.00565685 0.03318311
v 0.03843367 0.00324615 0.06342023
v 0.03124960 0.00505783 0.05375376
v 0.05137925 0.00425747 0.05556861
v 0.04488691 -0.00656036 0.06177890
v 0.05698979 0.00421513 0.03840958
v 0.05633713 0.00315125 0.04696635
v 0.05599323 -0.00406198 0.05022404
v 0.04914658 0.00342540 0.03324139
v 0.03126968 -0.00540129 0.05243839
v 0.05589726 -0.00824029 0.03319144
v 0.03696548 0.00332879 0.06335977
v 0.03160236 -0.00391792 0.06343502
v 0.05419469 0.00199806 0.05352181
v 0.04936561 0.00198067 0.05998051
v 0.04345750 -0.00778003 0.06073295
v 0.05321730 0.00424741 0.05216030
v 0.05083497 -0.00505591 0.05832402
v 0.05613898 -0.00650213 0.04688865
v 0.04347005 -0.00526096 0.06317386
v 0.03161444 0.00202094 0.06328840
v 0.05269670 0.00311119 0.05523540
v 0.04654254 0.00429113 0.06035270
v 0.03161004 -0.00765713 0.06078283
v 0.05255420 -0.00379666 0.05674729
v 0.05169508 -0.00753926 0.05396678
v 0.05799085 -0.00553157 0.04176317
v 0.04785854 0.00046629 0.06173345
v 0.04774430 -0.00372827 0.06162541
v 0.03343219 -0.00524905 0.06321078
v 0.05097996 0.00195768 0.05838878
v 0.05441168 0.00315386 0.05188427
v 0.04635285 0.00313295 0.06157730
v 0.04794218 -0.00632782 0.06012659
v 0.05342888 -0.00763162 0.05050252
v 0.05431673 -0.00630479 0.05187513
v 0.05513179 -0.00775305 0.04537296
v 0.04479156 -0.00389101 0.06316049
v 0.04490250 0.00057516 0.06320225
v 0.05106059 -0.00642739 0.05688324
v 0.04685417 -0.00765371 0.05904455
v 0.04925345 -0.00517638 0.05983037
f 10 6 4
f 10 4 3
f 15 9 2
f 16 2 9
f 17 4 6
f 17 6 11
f 17 11 5
f 18 15 2
f 18 6 15
f 19 1 12
f 20 12 3
f 20 3 4
f 20 7 12
f 21 3 12
f 23 15 6
f 23 6 10
f 23 10 3
f 24 9 15
f 24 16 9
f 24 23 3
f 24 15 23
f 25 16 8
f 25 2 16
f 26 4 17
f 26 20 4
f 26 14 20
f 27 17 5
f 27 26 17
f 27 14 26
f 27 20 14
f 27 5 20
f 28 11 6
f 28 6 18
f 28 5 11
f 29 19 12
f 29 12 7
f 30 1 19
f 30 20 5
f 30 5 13
f 31 8 16
f 33 5 28
f 34 24 3
f 34 3 21
f 36 2 25
f 37 1 30
f 37 33 22
f 37 13 33
f 38 30 19
f 38 19 29
f 38 29 7
f 38 7 20
f 38 20 30
f 39 8 31
f 39 34 21
f 40 32 21
f 40 21 12
f 41 33 13
f 41 13 5
f 41 5 33
f 42 25 8
f 44 28 18
f 44 18 2
f 44 2 36
f 45 42 8
f 46 35 42
f 46 42 45
f 47 37 30
f 47 30 13
f 47 13 37
f 48 8 39
f 48 45 8
f 48 32 45
f 48 39 21
f 48 21 32
f 49 39 31
f 49 24 34
f 49 34 39
f 49 31 16
f 49 16 24
f 50 40 12
f 50 12 1
f 50 45 32
f 50 32 40
f 51 46 22
f 53 36 25
f 53 25 42
f 53 52 36
f 53 43 52
f 54 44 36
f 54 28 44
f 54 52 28
f 54 36 52
f 55 1 37
f 55 46 45
f 55 37 22
f 55 22 46
f 56 50 1
f 56 45 50
f 56 55 45
f 56 1 55
f 57 43 53
f 57 53 42
f 57 42 35
f 58 51 22
f 58 22 33
f 58 57 51
f 58 43 57
f 58 52 43
f 58 33 28
f 58 28 52
f 59 35 46
f 59 46 51
f 59 57 35
f 59 51 57

