# https://github.com/mikedh/trimesh
v 0.02975087 -0.00773670 0.02579915
v 0.02914643 -0.01114436 0.02568286
v 0.03015989 -0.00771175 0.00545641
v 0.00088133 -0.00800248 0.00012831
v 0.00056427 -0.04280913 0.01690312
v 0.02909069 -0.01620625 0.01502250
v 0.01483061 -0.03439589 0.02591030
v 0.00045616 -0.03885830 0.00278013
v 0.02551721 -0.02129928 0.02571761
v 0.00112921 -0.00813738 0.00984382
v 0.00041116 -0.04243202 0.00696485
v 0.02190444 -0.01501917 0.00117216
v 0.01876334 -0.03305645 0.00872544
v 0.02731895 -0.01787434 0.02387732
v 0.02358072 -0.00827825 0.02601072
v 0.01658988 -0.02352391 0.02603423
v 0.00041342 -0.04052931 0.00427752
v 0.00080491 -0.03462787 0.00104486
v 0.02217260 -0.00799242 0.00092570
v 0.02207731 -0.02798597 0.02206962
v 0.01205317 -0.03814780 0.01501267
v 0.01250803 -0.03358993 0.00302341
v 0.02393751 -0.02466143 0.00589870
v 0.02737446 -0.01945337 0.01853914
v 0.00162392 -0.03173056 0.01540183
v 0.02679249 -0.00785014 0.00248464
v 0.01139925 -0.02921016 0.00113591
v 0.02378117 -0.02451821 0.02567757
v 0.01874888 -0.03317115 0.01327272
v 0.00885159 -0.03978580 0.01674032
v 0.00892919 -0.03990498 0.00868550
v 0.00606731 -0.03271600 0.00110014
v 0.00723806 -0.03829652 0.00447384
v 0.02910915 -0.01619878 0.00861467
v 0.02089752 -0.02492771 0.00307349
v 0.02386082 -0.02635905 0.01674722
v 0.01844187 -0.02210915 0.00120091
v 0.02042856 -0.02947618 0.02383755
v 0.01205962 -0.03809108 0.00851153
v 0.01541472 -0.03462416 0.02204296
v 0.00381118 -0.04181162 0.01678026
v 0.00379787 -0.04154149 0.00724008
v 0.00217648 -0.03860314 0.00299536
v 0.00249143 -0.03441477 0.00111816
v 0.02739205 -0.01788246 0.00584545
v 0.02445350 -0.01809867 0.00281459
v 0.01890926 -0.02979990 0.00453555
v 0.02368895 -0.02627591 0.00717243
v 0.02563597 -0.02315568 0.01852955
v 0.01595137 -0.03354758 0.02575341
v 0.01061475 -0.03657480 0.00445473
v 0.00209451 -0.04012381 0.00439163
v 0.02905393 -0.01268631 0.00587494
v 0.02628678 -0.01298822 0.00289169
v 0.02734549 -0.01958836 0.00714751
v 0.02042857 -0.02955016 0.00596201
v 0.01712749 -0.03296924 0.02383670
v 0.01378070 -0.03654112 0.00729105
v 0.01549501 -0.03304337 0.00451105
v 0.02748609 -0.01459352 0.00447609
v 0.01719980 -0.03301426 0.00606041
f 1 3 4
f 6 1 2
f 6 3 1
f 9 2 1
f 9 1 7
f 10 1 4
f 10 4 5
f 11 5 4
f 14 6 2
f 14 2 9
f 15 1 10
f 16 5 7
f 16 15 10
f 16 7 1
f 16 1 15
f 17 11 4
f 17 4 8
f 18 8 4
f 24 14 9
f 24 6 14
f 25 16 10
f 25 10 5
f 25 5 16
f 26 19 4
f 26 4 3
f 26 12 19
f 27 4 19
f 28 9 7
f 30 21 7
f 31 21 30
f 32 27 22
f 32 18 4
f 32 4 27
f 34 3 6
f 36 29 13
f 36 20 29
f 36 28 20
f 37 27 19
f 37 19 12
f 37 35 22
f 37 22 27
f 38 20 28
f 38 29 20
f 39 29 21
f 39 13 29
f 39 21 31
f 40 7 21
f 40 21 29
f 41 30 7
f 41 7 5
f 41 31 30
f 42 5 11
f 42 33 31
f 42 41 5
f 42 31 41
f 43 32 22
f 43 22 33
f 43 17 8
f 44 8 18
f 44 18 32
f 44 43 8
f 44 32 43
f 46 45 23
f 46 23 35
f 46 37 12
f 46 35 37
f 47 35 23
f 47 22 35
f 48 36 13
f 49 34 6
f 49 6 24
f 49 24 9
f 49 9 28
f 49 28 36
f 50 38 28
f 50 28 7
f 51 31 33
f 51 33 22
f 52 42 11
f 52 11 17
f 52 33 42
f 52 43 33
f 52 17 43
f 53 3 34
f 53 34 45
f 54 46 12
f 54 12 26
f 54 26 3
f 55 45 34
f 55 34 49
f 55 49 36
f 55 36 48
f 55 48 23
f 55 23 45
f 56 47 23
f 56 23 48
f 56 48 13
f 57 40 29
f 57 29 38
f 57 38 50
f 57 50 7
f 57 7 40
f 58 39 31
f 58 31 51
f 58 13 39
f 59 51 22
f 59 22 47
f 59 58 51
f 60 54 3
f 60 3 53
f 60 53 45
f 60 45 46
f 60 46 54
f 61 59 47
f 61 47 56
f 61 56 13
f 61 13 58
f 61 58 59

