# https://github.com/mikedh/trimesh
v 0.02454741 -0.00776881 0.06414471
v 0.02389462 -0.01444967 0.06145370
v 0.02975087 -0.00773670 0.02579915
v 0.02358072 -0.00827825 0.02601072
v 0.01261842 -0.02844556 0.06463343
v 0.02954574 -0.00768635 0.02757289
v 0.02229493 -0.01621646 0.06421133
v 0.02213837 -0.00825688 0.06447627
v 0.02243073 -0.02661750 0.02574000
v 0.02778563 -0.00768643 0.04195811
v 0.02738114 -0.01116475 0.04009287
v 0.02399470 -0.01115461 0.06397085
v 0.01466471 -0.02338250 0.05120301
v 0.01850009 -0.02440477 0.06132375
v 0.01595137 -0.03354758 0.02575341
v 0.02945527 -0.00947885 0.02576277
v 0.02764630 -0.01631339 0.02576186
v 0.02748091 -0.00944752 0.04190515
v 0.02275840 -0.00849811 0.03872504
v 0.01465362 -0.02343903 0.06447881
v 0.01868351 -0.02269814 0.06403657
v 0.02208671 -0.01938788 0.05968915
v 0.01658988 -0.02352391 0.02603423
v 0.01357163 -0.02920853 0.06125421
v 0.01725084 -0.03119019 0.03283054
v 0.02731784 -0.01454900 0.03291173
v 0.01370727 -0.02777769 0.06435653
v 0.02024104 -0.02259431 0.05965841
v 0.02212805 -0.01782118 0.06298522
v 0.02380565 -0.01619253 0.05799609
v 0.02392746 -0.02269281 0.03287609
v 0.01483061 -0.03439589 0.02591030
v 0.01247830 -0.02999585 0.06144640
v 0.02043098 -0.02775801 0.03283014
v 0.01693175 -0.02761204 0.05435358
v 0.02026209 -0.02108680 0.06292015
v 0.02563472 -0.01959181 0.03110788
v 0.01335668 -0.03120235 0.05108333
v 0.01439002 -0.03383844 0.03119498
v 0.02377808 -0.01777198 0.05262144
f 6 3 4
f 8 1 4
f 8 7 1
f 8 5 7
f 10 6 4
f 10 4 1
f 10 1 2
f 12 7 2
f 12 2 1
f 12 1 7
f 16 3 6
f 16 6 10
f 16 9 15
f 16 15 4
f 16 4 3
f 17 9 16
f 18 10 2
f 18 2 11
f 18 16 10
f 18 11 16
f 19 13 8
f 19 8 4
f 19 4 13
f 20 13 5
f 20 5 8
f 20 8 13
f 21 7 5
f 23 13 4
f 23 4 15
f 25 15 9
f 25 24 15
f 26 11 2
f 26 17 16
f 26 16 11
f 27 21 5
f 27 14 21
f 27 24 14
f 29 22 2
f 29 2 7
f 29 7 21
f 30 2 22
f 30 26 2
f 30 17 26
f 31 28 9
f 31 22 28
f 32 23 15
f 33 5 13
f 33 13 23
f 33 27 5
f 33 24 27
f 34 25 9
f 34 28 14
f 34 9 28
f 35 14 24
f 35 24 25
f 35 34 14
f 35 25 34
f 36 21 14
f 36 14 28
f 36 29 21
f 36 28 22
f 36 22 29
f 37 31 9
f 37 9 17
f 37 17 30
f 38 15 24
f 38 24 33
f 39 33 23
f 39 23 32
f 39 38 33
f 39 32 15
f 39 15 38
f 40 37 30
f 40 30 22
f 40 22 31
f 40 31 37

