# https://github.com/mikedh/trimesh
v -0.03943752 -0.01969143 0.06606619
v -0.04027604 -0.01879135 0.06597525
v -0.05088635 -0.01967240 0.00732287
v -0.04197398 0.01343070 0.00099829
v -0.04410647 0.01355518 0.04394295
v -0.04033553 -0.02056262 0.00098899
v -0.05840446 -0.01250797 0.06440200
v -0.04910711 0.00184969 0.06061433
v -0.04024950 0.01345051 0.00086190
v -0.04068210 -0.02082257 0.03500718
v -0.05282780 -0.00081536 0.00441117
v -0.04848072 -0.01653385 0.06604221
v -0.05148660 0.00142610 0.06176087
v -0.04517370 0.00841619 0.05108943
v -0.04096810 0.01373766 0.01371983
v -0.04365291 -0.01508903 0.00107502
v -0.04022242 -0.01871408 0.00090596
v -0.04908084 -0.01954202 0.03472690
v -0.05433937 -0.01103208 0.00871479
v -0.05421515 0.01130748 0.00868734
v -0.04632678 -0.01525412 0.06571727
v -0.05447155 -0.01379989 0.06541298
v -0.05256152 0.01295807 0.00602813
v -0.04372243 0.00986164 0.00104962
v -0.04639299 -0.01996982 0.00272033
v -0.04190117 -0.01868050 0.00103392
v -0.05075875 -0.01962422 0.02030614
v -0.05363363 -0.01504537 0.06535826
v -0.05088605 -0.01454195 0.00453875
v -0.05233214 -0.01767934 0.00873354
v -0.04977306 0.01312903 0.04377633
v -0.05869732 -0.00863423 0.06345647
v -0.05436707 0.00773856 0.00728260
v -0.04843662 0.01321701 0.00259290
v -0.04963256 -0.01295631 0.00300726
v -0.05721298 -0.01368104 0.06446843
v -0.05421519 -0.00932109 0.00738822
v -0.05091502 -0.01783789 0.00595182
v -0.05254141 0.01279528 0.02569340
v -0.05477822 -0.00057412 0.06184736
v -0.05287880 0.00090275 0.00448171
v -0.04975344 0.01133233 0.00302226
v -0.05251778 -0.01279015 0.00589983
v -0.04785130 -0.01815239 0.00304642
v -0.05233889 -0.01624501 0.00730782
v -0.05439245 0.01139200 0.01503944
v -0.05847029 -0.00690569 0.06286407
v -0.05117053 0.01290116 0.00444432
f 10 6 1
f 10 3 6
f 12 1 2
f 13 2 1
f 13 1 8
f 14 8 1
f 14 1 5
f 14 13 8
f 14 5 13
f 15 5 1
f 15 1 9
f 15 9 4
f 17 9 1
f 17 1 6
f 17 16 9
f 18 10 1
f 21 13 12
f 21 12 2
f 21 2 13
f 22 12 13
f 23 5 15
f 24 4 9
f 24 9 16
f 25 6 3
f 26 17 6
f 26 16 17
f 26 25 16
f 26 6 25
f 27 3 10
f 27 10 18
f 28 18 1
f 28 1 12
f 28 22 7
f 28 12 22
f 30 3 7
f 30 7 19
f 31 13 5
f 31 5 23
f 32 19 7
f 32 7 22
f 33 32 20
f 33 19 32
f 33 20 23
f 34 23 15
f 34 15 4
f 34 4 24
f 35 16 25
f 35 24 16
f 36 7 3
f 36 3 27
f 36 28 7
f 36 27 18
f 36 18 28
f 37 33 11
f 37 19 33
f 38 25 3
f 39 31 23
f 40 13 31
f 40 32 22
f 40 22 13
f 41 33 23
f 41 11 33
f 42 35 11
f 42 34 24
f 42 24 35
f 42 11 41
f 43 35 29
f 43 11 35
f 43 37 11
f 43 29 38
f 44 35 25
f 44 29 35
f 44 38 29
f 44 25 38
f 45 38 3
f 45 3 30
f 45 43 38
f 45 30 19
f 45 19 37
f 45 37 43
f 46 39 23
f 46 23 20
f 47 32 40
f 47 39 46
f 47 46 20
f 47 20 32
f 47 40 31
f 47 31 39
f 48 42 41
f 48 41 23
f 48 23 34
f 48 34 42

