# https://github.com/mikedh/trimesh
v -0.00422004 -0.03279842 0.06445872
v -0.00471219 -0.03523875 0.06456653
v -0.00453013 -0.04352343 0.01877742
v -0.05065489 -0.02036788 0.01876204
v -0.04535974 -0.01802179 0.06533627
v -0.00427660 -0.03439079 0.01849399
v -0.00476263 -0.03626332 0.06271321
v -0.04362443 -0.01832215 0.06634272
v -0.03053693 -0.04029639 0.01861617
v -0.00418306 -0.03306265 0.05305693
v -0.00813336 -0.03402363 0.06536752
v -0.04154715 -0.01951012 0.03510397
v -0.04201771 -0.03133112 0.02375664
v -0.01674141 -0.04177457 0.03282928
v -0.00652340 -0.04381941 0.01856754
v -0.03993026 -0.02163467 0.01837798
v -0.00812748 -0.03467087 0.06538020
v -0.04972374 -0.01795271 0.03663893
v -0.04682284 -0.01773315 0.05815136
v -0.03166657 -0.03083201 0.06271406
v -0.03899262 -0.03504563 0.01854039
v -0.01677412 -0.04390395 0.01857390
v -0.00647556 -0.03814043 0.05437748
v -0.01666740 -0.03616185 0.06265658
v -0.04979756 -0.01812716 0.03485202
v -0.04583696 -0.02814681 0.01849174
v -0.03500699 -0.02924897 0.05957256
v -0.02860016 -0.03120442 0.06539821
v -0.03378295 -0.03802213 0.02202928
v -0.00655580 -0.04357712 0.02032664
v -0.02540775 -0.04163215 0.02208441
v -0.02549113 -0.04206898 0.01858961
v -0.00479961 -0.04172027 0.03104684
v -0.01497409 -0.03822872 0.05434985
v -0.04364915 -0.02781934 0.03100095
v -0.04833699 -0.01780518 0.04917686
v -0.04931781 -0.02304306 0.01857108
v -0.03505599 -0.02759429 0.06420732
v -0.04030243 -0.02937051 0.03987513
v -0.02370004 -0.03309829 0.06541707
v -0.03398293 -0.03846083 0.01858574
v -0.03013100 -0.03267534 0.05958316
v -0.03692427 -0.03460286 0.02913302
v -0.01674028 -0.04365638 0.02032917
v -0.00657339 -0.04169934 0.03283689
v -0.02359146 -0.04156911 0.02564474
v -0.03363163 -0.02779851 0.06548519
v -0.02180545 -0.03444838 0.06412888
v -0.03021430 -0.03799087 0.03271090
v -0.03337278 -0.03091060 0.05778970
v -0.02847554 -0.03260723 0.06280094
v -0.03867834 -0.03465134 0.02200150
v -0.01848674 -0.03804178 0.05253890
v -0.03025041 -0.03988158 0.02197055
v -0.02343174 -0.03616065 0.05610861
v -0.02685919 -0.03263517 0.06433860
v -0.03856993 -0.03281731 0.03095066
v -0.02689149 -0.03792785 0.03987988
v -0.02349350 -0.03976763 0.03630355
v -0.02517185 -0.03450354 0.06134484
v -0.02011126 -0.03799990 0.05068287
f 7 1 2
f 7 3 1
f 10 1 3
f 10 3 6
f 11 1 8
f 12 10 6
f 12 8 1
f 12 1 10
f 15 6 3
f 16 6 15
f 16 12 6
f 17 2 1
f 17 1 11
f 17 11 8
f 19 5 8
f 19 8 12
f 19 12 18
f 22 21 16
f 22 16 15
f 24 7 2
f 24 2 17
f 25 16 4
f 25 4 18
f 25 18 12
f 25 12 16
f 26 21 13
f 26 16 21
f 30 22 15
f 30 15 3
f 32 21 22
f 32 31 9
f 33 3 7
f 33 7 23
f 33 30 3
f 34 23 7
f 34 7 24
f 35 26 13
f 35 13 5
f 35 5 26
f 36 26 5
f 36 5 19
f 36 19 18
f 36 18 4
f 37 4 16
f 37 16 26
f 37 36 4
f 37 26 36
f 38 27 20
f 38 5 27
f 39 27 5
f 39 5 13
f 40 17 8
f 40 8 28
f 41 29 21
f 41 9 29
f 41 32 9
f 41 21 32
f 43 21 29
f 43 27 39
f 43 29 42
f 44 22 30
f 45 44 30
f 45 14 44
f 45 34 14
f 45 23 34
f 45 33 23
f 45 30 33
f 46 32 22
f 46 31 32
f 46 22 44
f 46 44 14
f 47 38 20
f 47 20 28
f 47 28 8
f 47 8 5
f 47 5 38
f 48 24 17
f 48 17 40
f 49 42 29
f 50 42 20
f 50 20 27
f 50 43 42
f 50 27 43
f 51 28 20
f 51 20 42
f 52 39 13
f 52 13 21
f 52 21 43
f 53 46 14
f 53 14 34
f 53 34 24
f 54 49 29
f 54 29 9
f 54 9 31
f 54 31 49
f 55 53 24
f 56 48 40
f 56 40 28
f 56 28 51
f 57 52 43
f 57 43 39
f 57 39 52
f 58 49 31
f 59 31 46
f 59 46 53
f 59 58 31
f 59 55 58
f 60 51 42
f 60 42 49
f 60 58 55
f 60 49 58
f 60 56 51
f 60 48 56
f 60 55 24
f 60 24 48
f 61 59 53
f 61 53 55
f 61 55 59

