# https://github.com/mikedh/trimesh
v -0.00437550 0.03371930 0.06478688
v -0.00409448 0.03312695 0.06352841
v 0.00048642 0.04271804 0.01690557
v -0.02549542 0.04215976 0.01685483
v -0.02619613 0.03205449 0.06457340
v -0.01676553 0.03827503 0.05959679
v 0.00040648 0.04058445 0.03296112
v 0.00118825 0.03231193 0.01655247
v -0.01499967 0.04375251 0.02037573
v -0.01835542 0.03639543 0.06400048
v -0.02512571 0.03627751 0.05955221
v -0.00494902 0.03827395 0.05790452
v 0.00098037 0.03347659 0.03318368
v -0.02625617 0.03213247 0.01672278
v -0.00227731 0.03300851 0.01602702
v -0.01683207 0.04394363 0.01684402
v -0.02108840 0.03342441 0.06447013
v -0.02182388 0.03991459 0.04181531
v -0.02179213 0.03634983 0.06268849
v -0.00489653 0.03681391 0.06284106
v -0.01000004 0.04015756 0.04901563
v -0.00483958 0.04176947 0.03287860
v 0.00149492 0.03324828 0.02038526
v -0.00486552 0.04386658 0.01681803
v -0.02183039 0.03808795 0.05440043
v -0.02514184 0.03999028 0.03466099
v -0.02008933 0.04178362 0.03112296
v -0.02523736 0.03454101 0.06406828
v -0.00474351 0.03566469 0.06440059
v -0.00662461 0.03822579 0.05955366
v -0.00660199 0.03658562 0.06383877
v -0.01509922 0.04013517 0.04899357
v -0.00132824 0.04180892 0.02753038
v -0.00656624 0.04005780 0.04718152
v -0.00822210 0.04377102 0.02038483
v -0.02540956 0.04179106 0.02035705
v -0.01679404 0.04184835 0.03471967
v -0.00822578 0.04198389 0.03472480
v 0.00022951 0.04186685 0.02392507
v -0.00484610 0.04366284 0.01858286
v -0.01681260 0.04375435 0.01860150
f 5 2 1
f 7 1 2
f 8 2 5
f 11 4 5
f 13 7 2
f 13 2 8
f 14 8 5
f 14 5 4
f 15 3 8
f 15 14 4
f 15 8 14
f 16 15 4
f 17 10 5
f 17 5 1
f 17 1 10
f 19 10 6
f 19 6 11
f 20 7 12
f 23 13 8
f 23 8 3
f 23 3 7
f 23 7 13
f 24 3 15
f 24 15 16
f 25 11 6
f 26 25 18
f 26 11 25
f 27 16 4
f 27 26 18
f 28 19 11
f 28 11 5
f 28 5 10
f 28 10 19
f 29 1 7
f 29 7 20
f 29 10 1
f 30 20 12
f 30 21 6
f 31 6 10
f 31 29 20
f 31 10 29
f 31 30 6
f 31 20 30
f 32 6 21
f 32 27 18
f 32 25 6
f 32 18 25
f 33 22 12
f 33 12 7
f 34 12 22
f 34 30 12
f 34 21 30
f 35 24 16
f 35 16 9
f 36 4 11
f 36 11 26
f 36 27 4
f 36 26 27
f 37 32 9
f 37 27 32
f 38 32 21
f 38 9 32
f 38 35 9
f 38 21 34
f 38 34 22
f 39 33 7
f 39 7 3
f 39 3 33
f 40 22 33
f 40 38 22
f 40 24 35
f 40 35 38
f 40 33 3
f 40 3 24
f 41 37 9
f 41 9 16
f 41 16 27
f 41 27 37

