# https://github.com/mikedh/trimesh
v 0.05705942 0.00430150 0.03318281
v 0.05852654 -0.00565685 0.03318311
v 0.05284367 0.00317001 0.01675319
v 0.03053051 0.00423015 0.00533082
v 0.03072228 -0.00437076 0.02224228
v 0.03063293 -0.01139215 0.00828093
v 0.03081143 0.00978813 0.00825158
v 0.05782231 0.00054036 0.02476292
v 0.04908512 -0.00682078 0.03320902
v 0.04470623 -0.00529234 0.01021117
v 0.03050149 -0.00956589 0.00673724
v 0.05476713 0.00419329 0.02149029
v 0.04455845 0.00335579 0.01034914
v 0.03077032 0.00623411 0.02048393
v 0.05811275 0.00322108 0.03315458
v 0.04914658 0.00342540 0.03324139
v 0.05589726 -0.00824029 0.03319144
v 0.03065861 -0.00962489 0.01868033
v 0.05440592 -0.00535684 0.01835444
v 0.03053047 0.00800276 0.00670898
v 0.04636480 -0.00651180 0.01177773
v 0.03056747 -0.00596761 0.00538634
v 0.05674345 0.00420984 0.02801657
v 0.05148252 0.00429168 0.01650222
v 0.05622499 0.00211165 0.02151700
v 0.04128943 0.00215235 0.00851629
v 0.04799293 0.00207276 0.01174673
v 0.03072373 0.00975511 0.01693883
v 0.05789057 0.00217764 0.02650075
v 0.03081353 0.00271549 0.02226809
v 0.03070920 -0.00783190 0.02039767
v 0.05036213 -0.00794064 0.03320543
v 0.03077243 -0.01142190 0.01516736
v 0.05781817 -0.00406401 0.02486448
v 0.05329155 -0.00763886 0.01973489
v 0.04299725 -0.00657784 0.01019756
v 0.03976520 -0.00538291 0.00840352
v 0.05796565 0.00314029 0.02982165
v 0.04808052 0.00425518 0.01326995
v 0.05636981 0.00322972 0.02314770
v 0.05448943 0.00204530 0.01836846
v 0.04135918 -0.00395031 0.00843219
v 0.04791570 -0.00521202 0.01196608
v 0.05036906 0.00463597 0.03321796
v 0.05615876 -0.00543018 0.02158650
v 0.05508473 -0.00759225 0.02294211
v 0.05116359 -0.00643508 0.01532629
v 0.04960519 0.00321889 0.01349819
v 0.05622182 -0.00659254 0.02322767
v 0.05264350 -0.00636489 0.01679831
v 0.04661681 -0.00754389 0.01298894
v 0.05791116 -0.00533146 0.02654025
f 15 1 2
f 16 2 1
f 16 5 9
f 17 2 16
f 18 11 6
f 20 4 11
f 20 7 13
f 20 18 5
f 20 11 18
f 22 11 4
f 23 12 7
f 23 7 1
f 24 12 3
f 24 7 12
f 26 20 13
f 26 4 20
f 27 26 13
f 28 1 7
f 28 7 20
f 28 20 5
f 28 5 14
f 29 15 2
f 29 2 8
f 29 8 25
f 30 16 14
f 30 14 5
f 30 5 16
f 31 9 5
f 31 5 18
f 32 31 18
f 32 9 31
f 32 17 16
f 32 16 9
f 33 18 6
f 33 6 17
f 33 32 18
f 33 17 32
f 34 8 2
f 34 25 8
f 36 11 10
f 36 10 21
f 36 21 6
f 36 6 11
f 37 10 11
f 37 11 22
f 38 23 1
f 38 1 15
f 38 15 29
f 39 13 7
f 39 7 24
f 40 25 3
f 40 3 12
f 40 29 25
f 40 12 23
f 40 38 29
f 40 23 38
f 41 25 19
f 41 3 25
f 41 27 3
f 41 19 27
f 42 22 4
f 42 4 26
f 42 37 22
f 42 10 37
f 42 27 10
f 42 26 27
f 43 21 10
f 43 10 27
f 43 27 19
f 44 16 1
f 44 1 28
f 44 28 14
f 44 14 16
f 45 19 25
f 45 25 34
f 46 17 6
f 46 6 35
f 47 43 19
f 47 21 43
f 48 27 13
f 48 13 39
f 48 3 27
f 48 39 24
f 48 24 3
f 49 35 19
f 49 19 45
f 49 46 35
f 49 2 17
f 49 17 46
f 50 47 19
f 50 19 35
f 50 35 47
f 51 47 35
f 51 35 6
f 51 6 21
f 51 21 47
f 52 49 45
f 52 45 34
f 52 34 2
f 52 2 49

