# https://github.com/mikedh/trimesh
v 0.01229133 0.02823969 0.06418750
v 0.02309950 0.02357187 0.03301552
v 0.00369554 0.04179239 0.00871771
v 0.00084048 0.03303719 0.00096148
v 0.00087877 0.02420622 0.00056926
v 0.02441951 0.02333549 0.00560466
v -0.00489653 0.03681391 0.06284106
v 0.01373043 0.03652018 0.01675369
v 0.01423925 0.02316685 0.06446652
v 0.01411254 0.03182739 0.00306211
v -0.00456239 0.04169459 0.03310624
v 0.01685414 0.03131374 0.03273081
v 0.00528687 0.03463379 0.05957915
v 0.02388927 0.02657206 0.01503177
v -0.00401955 0.03337612 0.06446640
v 0.02457100 0.02335501 0.02400215
v 0.02123057 0.02343846 0.00268545
v 0.00061851 0.03770502 0.00240503
v 0.01537569 0.03465904 0.00744923
v -0.00412454 0.03492517 0.03322766
v 0.02039546 0.02795643 0.03103895
v 0.00534147 0.03303888 0.06364387
v 0.01184286 0.03129232 0.05613320
v -0.00323328 0.03814140 0.05616904
v 0.00692092 0.03994764 0.02025331
v 0.02043277 0.02963586 0.02206002
v 0.00097562 0.02440826 0.01247585
v -0.00474351 0.03566469 0.06440059
v 0.02375350 0.02472861 0.02385579
v 0.02386751 0.02651132 0.00859269
v 0.02090245 0.02487539 0.00314760
v 0.01507543 0.02411369 0.00097307
v 0.01132406 0.02923547 0.00113198
v 0.00553788 0.03853620 0.00443376
v 0.00041672 0.04236090 0.00711059
v 0.01373239 0.03640366 0.00877501
v -0.00491000 0.04033287 0.04367533
v -0.00393043 0.03360444 0.05307123
v 0.01193665 0.02947098 0.06273932
v 0.02222313 0.02795010 0.02025727
v 0.00348764 0.03441984 0.06256144
v 0.01536258 0.03293898 0.03101905
v 0.01020564 0.03456204 0.04355955
v 0.00374060 0.04176976 0.01502313
v 0.00195403 0.03635858 0.05793946
v 0.01708609 0.03297247 0.02209436
v 0.00021461 0.03476747 0.06394257
v 0.02216023 0.02811112 0.00719293
v 0.00900088 0.03519499 0.00309332
v 0.00431614 0.03282016 0.00110450
v 0.01491211 0.02575157 0.00112808
v 0.00679668 0.04001263 0.00725636
v 0.00038710 0.04229121 0.02039506
v -0.00490104 0.03852024 0.05620980
v 0.02232648 0.02484589 0.03289633
v 0.00852159 0.03289180 0.05958736
v 0.00858018 0.03106279 0.06383470
v 0.00684992 0.03286997 0.06258413
v 0.01194457 0.03462532 0.03639012
v 0.00696250 0.03808516 0.03281836
v -0.00317965 0.03648465 0.06269144
v 0.01531047 0.03480986 0.02029310
v 0.02386715 0.02455827 0.00590797
v 0.01222538 0.03491216 0.00447221
f 9 2 1
f 11 4 5
f 16 9 6
f 16 2 9
f 17 9 5
f 17 6 9
f 18 4 11
f 20 11 5
f 23 21 12
f 26 12 21
f 27 15 5
f 27 5 9
f 27 9 15
f 28 15 9
f 28 9 1
f 28 20 15
f 28 7 20
f 29 16 14
f 29 2 16
f 30 16 6
f 30 14 16
f 30 8 14
f 31 17 10
f 31 6 17
f 32 17 5
f 32 5 4
f 33 32 4
f 35 18 11
f 35 34 18
f 36 3 8
f 36 8 30
f 37 20 7
f 37 11 20
f 38 20 5
f 38 5 15
f 38 15 20
f 39 1 2
f 39 21 23
f 40 26 21
f 42 23 12
f 44 25 8
f 44 8 3
f 44 3 35
f 45 41 13
f 46 42 12
f 46 12 26
f 46 40 14
f 46 26 40
f 47 28 1
f 47 22 41
f 47 7 28
f 48 36 30
f 48 19 36
f 48 31 10
f 49 10 33
f 49 18 34
f 50 33 4
f 50 4 18
f 50 49 33
f 50 18 49
f 51 33 10
f 51 10 17
f 51 17 32
f 51 32 33
f 52 35 3
f 52 34 35
f 52 3 36
f 52 36 19
f 53 37 24
f 53 11 37
f 53 24 45
f 53 45 25
f 53 25 44
f 53 44 35
f 53 35 11
f 54 37 7
f 54 24 37
f 55 39 2
f 55 21 39
f 55 40 21
f 55 2 29
f 55 29 14
f 55 14 40
f 56 39 23
f 56 23 43
f 57 1 39
f 57 47 1
f 57 22 47
f 58 41 22
f 58 13 41
f 58 56 13
f 58 22 57
f 58 57 39
f 58 39 56
f 59 23 42
f 59 43 23
f 60 56 43
f 60 13 56
f 60 45 13
f 60 25 45
f 60 43 59
f 60 59 8
f 60 8 25
f 61 45 24
f 61 41 45
f 61 47 41
f 61 7 47
f 61 54 7
f 61 24 54
f 62 42 46
f 62 59 42
f 62 8 59
f 62 46 14
f 62 14 8
f 63 48 30
f 63 30 6
f 63 6 31
f 63 31 48
f 64 48 10
f 64 19 48
f 64 10 49
f 64 49 34
f 64 52 19
f 64 34 52

