# https://github.com/mikedh/trimesh
v 0.00048642 0.04271804 0.01690557
v 0.00097562 0.02440826 0.01247585
v 0.00084048 0.03303719 0.00096148
v -0.03673168 0.02423187 0.00113852
v -0.03763025 0.02502209 0.01652757
v 0.00087877 0.02420622 0.00056926
v -0.02189064 0.04185567 0.00584167
v 0.00118825 0.03231193 0.01655247
v -0.03486839 0.02416944 0.00097589
v 0.00035943 0.04173217 0.00601731
v -0.01698404 0.03477876 0.00105944
v -0.03048817 0.04023777 0.01683803
v -0.00487572 0.04356726 0.00737439
v 0.00061851 0.03770502 0.00240503
v -0.03402360 0.03363796 0.00309512
v -0.02231877 0.03295459 0.00101400
v -0.03583060 0.03731851 0.01686179
v -0.00309957 0.04363699 0.00853715
v -0.02023051 0.04370131 0.01505181
v -0.00101044 0.03463677 0.00109093
v -0.02204162 0.03894501 0.00311566
v -0.00120662 0.03898554 0.00295467
v -0.03296107 0.02761605 0.00111256
v -0.02549542 0.04215976 0.01685483
v -0.03389908 0.03846587 0.00877006
v -0.03559675 0.03678698 0.00731870
v -0.02012882 0.04364530 0.00863592
v -0.00486552 0.04386658 0.01681803
v -0.03210819 0.03666552 0.00460181
v -0.02716632 0.03709385 0.00308185
v 0.00039112 0.04048988 0.00448284
v -0.01676351 0.04354521 0.00720305
v -0.03474709 0.02582711 0.00109857
v -0.03592151 0.03220528 0.00306452
v -0.03393693 0.03840754 0.01684357
v -0.02696807 0.04163153 0.00864602
v -0.00311410 0.04369637 0.01504288
v -0.01863054 0.04374259 0.01684187
v -0.02356383 0.04019441 0.00454215
v -0.02695186 0.04187396 0.01501733
v -0.02529839 0.04179537 0.00741733
v -0.02704555 0.04021741 0.00599100
f 8 6 3
f 8 2 6
f 8 5 2
f 8 1 5
f 9 5 4
f 9 2 5
f 9 6 2
f 11 3 6
f 14 8 3
f 14 10 1
f 14 1 8
f 16 11 6
f 16 6 9
f 17 5 1
f 18 1 10
f 18 10 13
f 20 14 3
f 20 3 11
f 20 11 14
f 21 11 16
f 22 14 11
f 22 11 21
f 23 16 9
f 23 15 16
f 24 17 1
f 24 12 17
f 26 5 17
f 26 17 25
f 27 18 13
f 28 18 27
f 30 21 16
f 30 16 15
f 30 15 29
f 31 22 13
f 31 13 10
f 31 10 14
f 31 14 22
f 32 22 21
f 32 21 7
f 32 13 22
f 32 27 13
f 32 7 27
f 33 23 9
f 33 9 4
f 33 4 23
f 34 23 4
f 34 15 23
f 34 4 5
f 34 5 26
f 34 29 15
f 34 26 29
f 35 25 17
f 35 17 12
f 35 12 25
f 37 28 1
f 37 1 18
f 37 18 28
f 38 28 27
f 38 27 19
f 38 19 24
f 38 24 1
f 38 1 28
f 39 30 29
f 39 7 21
f 39 21 30
f 40 36 25
f 40 25 12
f 40 12 24
f 40 24 19
f 40 19 27
f 40 27 36
f 41 36 27
f 41 27 7
f 41 25 36
f 42 29 26
f 42 26 25
f 42 25 41
f 42 39 29
f 42 41 7
f 42 7 39

