# https://github.com/mikedh/trimesh
v 0.01388553 -0.02462232 0.06479270
v 0.01444898 -0.02323736 0.06343137
v -0.00422004 -0.03279842 0.06445872
v 0.00121000 -0.03251612 0.01640923
v 0.01730416 -0.03393691 0.01747089
v 0.01564687 -0.02268615 0.01679582
v 0.00885381 -0.03278802 0.05966202
v -0.00453013 -0.04352343 0.01877742
v 0.01540567 -0.02249619 0.05111481
v -0.00427660 -0.03439079 0.01849399
v 0.01467740 -0.02336079 0.01612784
v 0.01206079 -0.03106851 0.05792942
v 0.00534656 -0.03279187 0.06423481
v 0.00381118 -0.04181162 0.01678026
v -0.00471219 -0.03523875 0.06456653
v 0.01021983 -0.03828200 0.02202663
v 0.01360144 -0.03106240 0.05080099
v 0.01203294 -0.02911289 0.06430665
v 0.00056427 -0.04280913 0.01690312
v 0.01389417 -0.03668370 0.01680391
v -0.00476382 -0.04198300 0.02929598
v 0.01031684 -0.03281173 0.05440588
v 0.00704016 -0.03980308 0.02202933
v 0.01031905 -0.03098967 0.06273540
v 0.00027965 -0.03630476 0.05793549
v 0.01364203 -0.03635060 0.02025337
v -0.00300849 -0.04172856 0.02925711
v 0.00708539 -0.03278420 0.06274395
v 0.00024770 -0.04162391 0.02563977
v -0.00300548 -0.03647271 0.06130981
v 0.00524691 -0.03438684 0.05964397
v 0.00374732 -0.04161509 0.01854918
v 0.00028988 -0.03448154 0.06405777
v -0.00472000 -0.03667653 0.06146041
f 1 2 3
f 5 2 1
f 9 6 3
f 9 3 2
f 9 2 5
f 9 5 6
f 10 3 6
f 10 4 8
f 11 6 5
f 11 10 6
f 11 4 10
f 14 4 11
f 15 3 10
f 15 1 3
f 17 12 5
f 17 5 1
f 18 15 13
f 18 1 15
f 18 17 1
f 18 12 17
f 19 8 4
f 19 4 14
f 20 14 11
f 20 11 5
f 20 16 14
f 21 15 10
f 21 10 8
f 22 12 7
f 22 7 16
f 23 16 7
f 23 14 16
f 24 7 12
f 24 12 18
f 26 20 5
f 26 5 12
f 26 16 20
f 26 22 16
f 26 12 22
f 27 21 8
f 28 24 18
f 28 18 13
f 28 7 24
f 29 27 8
f 29 8 19
f 30 21 27
f 30 29 25
f 30 27 29
f 31 23 7
f 31 7 28
f 31 30 25
f 31 28 30
f 31 25 29
f 32 29 19
f 32 19 14
f 32 31 29
f 32 14 23
f 32 23 31
f 33 13 15
f 33 15 30
f 33 30 28
f 33 28 13
f 34 30 15
f 34 15 21
f 34 21 30

