# https://github.com/mikedh/trimesh
v -0.00864636 0.01619523 0.01410224
v -0.00978672 -0.00285085 0.00361869
v -0.00899087 0.00138146 0.00332378
v -0.00862443 0.00620400 0.00049376
v -0.01992273 0.00139696 0.01399044
v -0.00889649 0.00140965 0.00021489
v -0.00848186 0.01587761 0.01249879
v -0.01711398 -0.00295723 0.01134972
v -0.01637656 0.00194189 0.00446214
v -0.01557082 0.01090925 0.01335428
v -0.00931076 0.01310817 0.01379580
v -0.01324519 0.00284486 0.00140260
v -0.01889821 -0.00269867 0.00854617
v -0.01569626 0.01099876 0.01418026
v -0.01168397 0.01391776 0.01171319
v -0.01798703 0.00607930 0.01099812
v -0.01729903 0.00152186 0.01389672
v -0.01110078 0.00294068 0.00061688
v -0.01365447 -0.00281040 0.00128800
v -0.01979874 -0.00281775 0.01147469
v -0.01089105 0.01479472 0.01338991
v -0.00850257 0.01339137 0.00589240
v -0.01324539 0.01327896 0.01422083
v -0.01727970 0.00759118 0.01098020
v -0.01895607 0.00525913 0.01416449
v -0.01886204 0.00278557 0.01008872
v -0.01186412 0.00617978 0.00155121
v -0.00973965 -0.00282392 0.00031615
v -0.01720090 -0.00268957 0.00520611
v -0.00915089 0.01553922 0.01258026
v -0.01089575 0.01391835 0.01006356
v -0.00851260 0.01082013 0.00276583
v -0.01397618 0.01148309 0.01021945
v -0.01482379 0.01143357 0.01256122
v -0.01097643 0.01494307 0.01419709
v -0.01637268 0.00918315 0.01166447
v -0.01709546 0.00439093 0.00688007
v -0.01800974 0.00689635 0.01249228
v -0.01884076 0.00440695 0.01175875
v -0.01883922 0.00124962 0.00923968
v -0.00942586 0.00614727 0.00071100
v -0.01467913 0.00349231 0.00292909
v -0.01119805 -0.00276947 0.00049698
v -0.01802979 0.00049244 0.00689394
v -0.01721133 -0.00042430 0.00528322
v -0.00847427 0.01416858 0.00756476
v -0.01160112 0.01319932 0.00933926
v -0.01393700 0.00978992 0.00685694
v -0.01485710 0.01065420 0.01019496
v -0.01230939 0.01315720 0.01088017
v -0.00930978 0.01585208 0.01418432
v -0.01739597 0.00846695 0.01416344
v -0.01800094 0.00271487 0.00760300
v -0.01882782 0.00520855 0.01333802
v -0.01891372 -0.00120706 0.00851921
v -0.00866535 0.00871268 0.00132873
v -0.01396582 0.00367574 0.00222724
v -0.01557812 0.00599420 0.00549066
v -0.00918763 0.01309231 0.00604030
v -0.00916971 0.00990561 0.00211088
v -0.01309987 0.01144087 0.00854516
v -0.01461131 0.00832609 0.00601222
v -0.01313543 0.01315092 0.01340980
v -0.01727811 0.00838758 0.01334008
f 1 2 3
f 6 3 2
f 6 4 3
f 7 1 3
f 7 3 4
f 11 8 2
f 11 2 1
f 17 11 1
f 17 5 8
f 17 8 11
f 18 4 6
f 19 9 12
f 19 12 18
f 20 8 5
f 20 19 8
f 25 23 14
f 25 5 17
f 27 18 12
f 28 6 2
f 28 2 8
f 28 8 19
f 29 20 13
f 29 19 20
f 30 21 1
f 30 1 7
f 31 30 7
f 31 15 21
f 31 21 30
f 32 7 4
f 34 10 14
f 34 14 23
f 35 21 15
f 35 15 23
f 36 14 10
f 37 16 24
f 38 24 16
f 39 16 26
f 39 38 16
f 39 26 5
f 39 5 25
f 40 20 5
f 40 5 26
f 41 4 18
f 41 18 27
f 43 28 19
f 43 19 18
f 43 18 6
f 43 6 28
f 45 9 19
f 45 19 29
f 45 44 9
f 46 31 7
f 46 32 22
f 46 7 32
f 47 15 31
f 49 34 33
f 49 10 34
f 49 36 10
f 49 24 36
f 50 33 34
f 50 47 33
f 50 15 47
f 51 35 23
f 51 23 25
f 51 25 17
f 51 17 1
f 51 1 21
f 51 21 35
f 52 38 25
f 52 25 14
f 53 26 16
f 53 16 37
f 53 37 9
f 53 9 44
f 53 40 26
f 54 39 25
f 54 25 38
f 54 38 39
f 55 13 20
f 55 20 40
f 55 53 44
f 55 40 53
f 55 29 13
f 55 45 29
f 55 44 45
f 56 32 4
f 56 4 41
f 56 41 27
f 57 27 12
f 57 12 9
f 57 9 42
f 58 42 9
f 58 9 37
f 58 57 42
f 58 27 57
f 59 46 22
f 59 48 47
f 59 47 31
f 59 31 46
f 60 56 27
f 60 32 56
f 60 48 59
f 60 59 22
f 60 22 32
f 61 33 47
f 61 47 48
f 61 49 33
f 61 48 49
f 62 49 48
f 62 24 49
f 62 27 58
f 62 60 27
f 62 48 60
f 62 58 37
f 62 37 24
f 63 50 34
f 63 34 23
f 63 23 15
f 63 15 50
f 64 36 24
f 64 24 38
f 64 38 52
f 64 52 14
f 64 14 36

