# https://github.com/mikedh/trimesh
v 0.01687432 0.02190529 0.05029538
v 0.02627461 0.00801452 0.05041980
v 0.01721642 0.01091470 0.02611034
v 0.00771819 0.01854679 0.02599816
v 0.00835402 0.02503300 0.05067406
v 0.01607704 0.00755715 0.02574191
v 0.01655336 0.02071516 0.04415823
v 0.02472578 0.00841727 0.05071398
v 0.01922415 0.00712201 0.02597567
v 0.00851146 0.01502711 0.02562790
v 0.01177277 0.01653218 0.02619225
v 0.00933709 0.02586437 0.04723945
v 0.02232953 0.01598725 0.04722877
v 0.02334227 0.01455063 0.05028377
v 0.02050611 0.00753540 0.03921121
v 0.01900391 0.00786162 0.02600898
v 0.00789848 0.02635913 0.05040194
v 0.01645628 0.01251593 0.02704125
v 0.01591088 0.02244824 0.04719874
v 0.01174815 0.02404539 0.04496284
v 0.02510348 0.01122871 0.05032710
v 0.02094134 0.01780523 0.05027836
v 0.02322223 0.00709755 0.03814000
v 0.00860837 0.01779019 0.03390615
v 0.02305606 0.01276760 0.04320615
v 0.00785329 0.02613950 0.04647384
v 0.01438396 0.02360668 0.05031727
v 0.01233905 0.01648167 0.02713384
v 0.02073071 0.01752106 0.04578274
v 0.01493229 0.02152927 0.04333630
v 0.00859406 0.02591996 0.04656226
v 0.01174020 0.02492470 0.04728490
v 0.02400606 0.01356326 0.04800764
v 0.02321781 0.01523229 0.04999678
v 0.02598456 0.00792982 0.04562836
v 0.01026505 0.02584571 0.05012686
v 0.00780443 0.02516306 0.04399307
v 0.01118682 0.02527702 0.05031019
v 0.01750846 0.02171432 0.04999538
v 0.01732487 0.02078464 0.04580648
v 0.02223808 0.01507662 0.04490735
v 0.01427400 0.02327316 0.04647579
v 0.01347770 0.02436101 0.05015915
v 0.02317656 0.01515903 0.04890969
v 0.02494567 0.01194927 0.05005776
v 0.02382760 0.00724817 0.03957677
v 0.02388837 0.01023271 0.04237371
v 0.02471478 0.01105606 0.04575869
v 0.01019558 0.02578547 0.04888546
v 0.00868452 0.02617182 0.05033434
v 0.01508408 0.02336567 0.05009539
v 0.01993050 0.01931070 0.04999590
v 0.01987795 0.01917032 0.04810516
v 0.02149938 0.01423920 0.04157865
v 0.02309378 0.01425422 0.04574903
v 0.01506488 0.02328759 0.04891916
v 0.01337679 0.02317638 0.04497661
v 0.02567220 0.00941907 0.04648750
v 0.02587438 0.00970582 0.05018925
v 0.02575615 0.00861651 0.04568134
v 0.01820221 0.02079057 0.04817182
v 0.02062507 0.01583743 0.04242961
v 0.01746562 0.02164322 0.04894423
v 0.02481245 0.01192731 0.04801099
f 8 1 5
f 10 9 6
f 11 10 4
f 11 3 10
f 15 2 8
f 15 10 6
f 15 8 5
f 16 10 3
f 16 9 10
f 17 4 10
f 18 3 11
f 20 11 4
f 21 14 8
f 21 8 2
f 22 1 8
f 22 8 14
f 23 2 15
f 23 15 6
f 23 6 9
f 24 15 5
f 24 10 15
f 24 17 10
f 24 5 17
f 25 16 3
f 27 5 1
f 28 18 11
f 28 11 7
f 30 19 7
f 30 7 11
f 31 26 12
f 31 4 26
f 32 31 12
f 32 20 4
f 32 4 31
f 34 22 14
f 35 9 16
f 36 26 17
f 37 26 4
f 37 4 17
f 37 17 26
f 38 17 5
f 38 5 27
f 40 28 7
f 40 18 28
f 40 29 18
f 40 7 19
f 41 29 13
f 42 19 30
f 42 20 32
f 42 30 11
f 43 38 27
f 43 36 38
f 44 34 33
f 44 33 13
f 45 33 34
f 45 34 14
f 45 14 21
f 46 23 9
f 46 9 35
f 46 35 2
f 46 2 23
f 47 16 25
f 48 47 25
f 49 32 12
f 49 12 26
f 49 26 36
f 49 43 32
f 49 36 43
f 50 38 36
f 50 36 17
f 50 17 38
f 51 27 1
f 51 1 39
f 51 43 27
f 52 39 1
f 52 1 22
f 52 22 34
f 53 29 40
f 53 39 52
f 53 13 29
f 53 44 13
f 53 52 34
f 53 34 44
f 54 25 3
f 54 3 18
f 54 29 41
f 55 54 41
f 55 25 54
f 55 48 25
f 55 33 48
f 55 41 13
f 55 13 33
f 56 42 32
f 56 19 42
f 56 32 43
f 56 43 51
f 56 51 39
f 57 42 11
f 57 11 20
f 57 20 42
f 59 45 21
f 59 21 2
f 59 2 35
f 59 35 58
f 60 35 16
f 60 16 47
f 60 58 35
f 60 47 48
f 60 48 58
f 61 53 40
f 61 40 19
f 62 54 18
f 62 18 29
f 62 29 54
f 63 56 39
f 63 19 56
f 63 61 19
f 63 39 53
f 63 53 61
f 64 33 45
f 64 59 58
f 64 45 59
f 64 58 48
f 64 48 33

