# https://github.com/mikedh/trimesh
v -0.00474518 -0.02013828 0.03428109
v -0.00461428 -0.02301410 0.03437199
v -0.00389288 -0.01772207 0.01394418
v -0.01835949 -0.00925857 0.01414621
v -0.01975394 -0.01290105 0.03438267
v -0.01169043 -0.01725310 0.01419918
v -0.01548245 -0.00993052 0.02072425
v -0.00373955 -0.02202054 0.02674477
v -0.01899732 -0.01406723 0.03456756
v -0.01525258 -0.00982776 0.01390538
v -0.00405262 -0.01909107 0.02655330
v -0.01558946 -0.01381395 0.03413125
v -0.01948807 -0.00939136 0.02084243
v -0.00377703 -0.02026557 0.01406957
v -0.00702610 -0.02239433 0.03446132
v -0.01723247 -0.01239753 0.01672753
v -0.01718205 -0.01163011 0.01420038
v -0.00408745 -0.01826132 0.02067685
v -0.01916507 -0.00922965 0.01835195
v -0.00373980 -0.02062201 0.01582291
v -0.00497557 -0.01739480 0.01389077
v -0.01335362 -0.01973929 0.03457105
v -0.01390815 -0.01558822 0.01423988
v -0.01882555 -0.00990361 0.01841234
v -0.00373735 -0.02143512 0.02173374
v -0.00519786 -0.02043297 0.01584672
v -0.01557710 -0.01389653 0.01507781
v -0.01334639 -0.01629671 0.01509809
v -0.01740494 -0.01552247 0.03200997
v -0.00681924 -0.01956920 0.01418882
v -0.01558467 -0.01469422 0.01841808
v -0.01730089 -0.01308775 0.02009850
v -0.01398674 -0.01634905 0.01836111
v -0.00935829 -0.01877765 0.01500767
v -0.01397489 -0.01886514 0.03282958
v -0.01080187 -0.01795093 0.01497148
v -0.00840962 -0.02133105 0.02939072
v -0.00764878 -0.01954786 0.01586169
v -0.00991839 -0.01876183 0.01667024
v -0.00933899 -0.02153591 0.03445168
v -0.00844240 -0.02046993 0.02345994
f 8 1 2
f 10 7 3
f 10 4 7
f 11 7 1
f 11 8 3
f 11 1 8
f 12 7 5
f 12 1 7
f 12 9 1
f 12 5 9
f 13 5 7
f 15 2 1
f 15 1 9
f 16 9 5
f 16 5 13
f 17 4 10
f 18 11 3
f 18 3 7
f 18 7 11
f 19 13 7
f 19 7 4
f 19 4 17
f 19 17 16
f 20 14 3
f 20 3 8
f 21 10 3
f 21 3 14
f 21 14 6
f 21 6 10
f 22 15 9
f 23 17 10
f 23 10 6
f 24 19 16
f 24 16 13
f 24 13 19
f 25 20 8
f 25 8 2
f 26 2 15
f 26 14 20
f 26 25 2
f 26 20 25
f 27 16 17
f 27 17 23
f 28 23 6
f 28 6 22
f 29 22 9
f 30 6 14
f 30 14 26
f 31 27 23
f 31 16 27
f 32 29 9
f 32 9 16
f 32 31 29
f 32 16 31
f 33 28 22
f 33 23 28
f 33 31 23
f 33 29 31
f 34 6 30
f 35 33 22
f 35 22 29
f 35 29 33
f 36 22 6
f 36 6 34
f 37 26 15
f 38 34 30
f 38 30 26
f 39 36 34
f 39 22 36
f 40 37 15
f 40 15 22
f 40 22 37
f 41 34 38
f 41 39 34
f 41 37 22
f 41 22 39
f 41 38 26
f 41 26 37

