# https://github.com/mikedh/trimesh
v 0.02472578 0.00841727 0.05071398
v 0.02742077 -0.00514349 0.05047814
v 0.02649806 0.00713665 0.04654404
v 0.01751839 0.00140525 0.02413250
v 0.02001760 -0.00557297 0.03658018
v 0.02033236 -0.00358688 0.02423256
v 0.01607704 0.00755715 0.02574191
v 0.02760706 0.00358112 0.05042901
v 0.02570670 -0.00552811 0.05086303
v 0.01775712 -0.00546258 0.02663397
v 0.02365439 0.00800164 0.03965897
v 0.02072564 0.00851239 0.04081605
v 0.02033055 0.00137164 0.02422968
v 0.02627461 0.00801452 0.05041980
v 0.02743702 -0.00365689 0.04640956
v 0.02527811 0.00677965 0.05070278
v 0.01756823 -0.00372072 0.02412751
v 0.01824323 -0.00557175 0.02905760
v 0.02054600 -0.00527584 0.02703655
v 0.01820804 0.00774081 0.03319143
v 0.01643425 0.00776017 0.02733788
v 0.02409697 0.00845364 0.04928960
v 0.01922415 0.00712201 0.02597567
v 0.02743388 0.00462399 0.04891960
v 0.02665229 0.00700206 0.05041486
v 0.02572644 0.00787312 0.04488686
v 0.02654120 -0.00358196 0.04311026
v 0.02428402 -0.00561252 0.04751662
v 0.02656943 -0.00522626 0.04395978
v 0.02022269 0.00831311 0.03930862
v 0.02734638 0.00209881 0.04649292
v 0.02745621 0.00452351 0.05026873
v 0.02482982 0.00785686 0.04234469
v 0.02087885 -0.00560225 0.03904967
v 0.02493240 -0.00526095 0.03896495
v 0.02739257 -0.00515834 0.04793657
v 0.02649501 0.00046624 0.04319275
v 0.02645734 0.00290796 0.04401963
v 0.02569264 -0.00440409 0.04060918
v 0.02643874 0.00458707 0.04487929
f 9 2 8
f 13 4 7
f 15 8 2
f 16 9 8
f 16 1 9
f 17 6 10
f 17 13 6
f 17 4 13
f 17 10 7
f 17 7 4
f 18 5 7
f 18 7 10
f 19 10 6
f 19 18 10
f 21 12 11
f 21 20 12
f 21 7 5
f 21 5 20
f 22 1 11
f 22 11 12
f 22 9 1
f 23 13 7
f 23 21 11
f 23 7 21
f 25 14 1
f 25 24 3
f 25 3 14
f 25 16 8
f 25 1 16
f 26 11 1
f 26 1 14
f 26 14 3
f 26 3 13
f 27 6 13
f 28 9 22
f 29 9 28
f 29 27 15
f 30 20 5
f 30 5 12
f 30 12 20
f 31 24 8
f 31 8 15
f 31 3 24
f 32 25 8
f 32 8 24
f 32 24 25
f 33 23 11
f 33 11 26
f 33 26 13
f 33 13 23
f 34 5 18
f 34 18 28
f 34 12 5
f 34 28 22
f 34 22 12
f 35 28 18
f 35 18 19
f 35 29 28
f 35 19 6
f 36 2 9
f 36 9 29
f 36 29 15
f 36 15 2
f 37 31 15
f 37 15 27
f 37 27 13
f 38 37 13
f 38 31 37
f 39 35 6
f 39 6 27
f 39 27 29
f 39 29 35
f 40 38 13
f 40 13 3
f 40 3 31
f 40 31 38

