# https://github.com/mikedh/trimesh
v -0.02036855 0.00145424 0.03424145
v -0.01464186 -0.01705959 0.02674147
v -0.01342197 -0.00892847 0.00705799
v -0.01839590 -0.00274705 0.00755042
v -0.02329890 -0.00443216 0.03452244
v -0.01798242 -0.00825290 0.00994418
v -0.01692943 0.00145487 0.01136848
v -0.01445466 -0.01345478 0.02827980
v -0.01457597 -0.01614894 0.02081562
v -0.01712722 -0.00823772 0.00774178
v -0.01969799 -0.00345202 0.01166801
v -0.01532121 -0.00288545 0.00694160
v -0.01436351 -0.01678532 0.02339366
v -0.01826207 0.00154149 0.02561926
v -0.01606260 -0.01326003 0.03425925
v -0.02003254 -0.01253418 0.03452112
v -0.01894786 -0.00435391 0.00926005
v -0.01973925 -0.00685407 0.01585983
v -0.01951522 0.00134778 0.01155891
v -0.01395566 -0.00743856 0.00678772
v -0.01529235 -0.01343556 0.03168865
v -0.01737521 -0.01389388 0.02432443
v -0.02377522 0.00135366 0.03443053
v -0.01794821 -0.00743727 0.00863174
v -0.01917753 -0.00273890 0.00918342
v -0.02060633 -0.00346753 0.01666749
v -0.02166539 -0.00931668 0.03454403
v -0.01882459 -0.00905910 0.01590150
v -0.01892175 -0.00744966 0.01252651
v -0.01738640 0.00153868 0.01475455
v -0.01647247 -0.01467263 0.02346379
v -0.01507264 -0.01664180 0.02681240
v -0.01739252 -0.01316433 0.02093008
v -0.01997076 0.00152447 0.03245505
v -0.01981352 -0.00125258 0.01162526
v -0.01807498 -0.00521514 0.00770363
v -0.01968352 -0.00429519 0.01251456
v -0.01980505 -0.00827863 0.01923477
v -0.01500207 -0.01573007 0.02088465
f 10 9 6
f 10 3 9
f 12 7 3
f 13 8 2
f 13 3 8
f 13 9 3
f 13 2 9
f 14 8 3
f 14 3 7
f 16 2 15
f 16 15 1
f 19 12 4
f 19 7 12
f 20 4 12
f 20 12 3
f 20 3 10
f 21 14 1
f 21 8 14
f 21 1 15
f 21 15 2
f 21 2 8
f 24 10 6
f 25 17 11
f 25 19 4
f 26 18 5
f 26 5 23
f 27 23 5
f 27 16 1
f 27 1 23
f 29 17 24
f 29 24 6
f 29 6 28
f 30 14 7
f 30 7 19
f 30 19 23
f 32 2 16
f 32 16 22
f 32 22 31
f 32 9 2
f 33 28 6
f 33 22 16
f 33 16 28
f 34 23 1
f 34 1 14
f 34 30 23
f 34 14 30
f 35 23 19
f 35 26 23
f 35 11 26
f 35 25 11
f 35 19 25
f 36 24 17
f 36 10 24
f 36 20 10
f 36 4 20
f 36 25 4
f 36 17 25
f 37 26 11
f 37 18 26
f 37 29 18
f 37 11 17
f 37 17 29
f 38 27 5
f 38 5 18
f 38 29 28
f 38 18 29
f 38 28 16
f 38 16 27
f 39 31 22
f 39 32 31
f 39 9 32
f 39 22 33
f 39 33 6
f 39 6 9

