# https://github.com/mikedh/trimesh
v 0.00044170 0.02045952 0.02680435
v 0.00039857 0.01738643 0.02647003
v 0.00044129 0.01169212 0.00452584
v -0.00910786 0.01110751 0.00433491
v -0.01098870 0.01393350 0.02647617
v -0.00289336 0.01563434 0.00676887
v 0.00050102 0.01210869 0.00489796
v -0.00875021 0.01918353 0.02700854
v -0.01098829 0.01305151 0.02323175
v 0.00045330 0.01504176 0.00519112
v 0.00046344 0.01994256 0.02436230
v -0.00830938 0.01554445 0.01088504
v -0.00385766 0.01106202 0.00414554
v -0.01031136 0.01528662 0.01411575
v -0.00688621 0.01392565 0.00543421
v 0.00045734 0.01671516 0.00920819
v -0.00364434 0.01731666 0.01251748
v -0.00928434 0.01135067 0.00854220
v -0.01113680 0.01214364 0.01473917
v -0.01017939 0.01847143 0.02695129
v -0.00840195 0.01318293 0.00545252
v -0.00356079 0.01485974 0.00535675
v -0.00603185 0.01552678 0.00851156
v 0.00043716 0.01572603 0.00670780
v -0.00832106 0.01640143 0.01423332
v -0.00360443 0.01650500 0.00920877
v -0.00444222 0.02011003 0.02687789
v 0.00045142 0.01826384 0.01588852
v -0.01099630 0.01203851 0.01386559
v -0.00830452 0.01470766 0.00855358
v -0.00515966 0.01477455 0.00598158
v -0.00434896 0.01811595 0.01677039
v -0.00124175 0.01821492 0.01590442
v -0.00755947 0.01470552 0.00767363
f 7 2 3
f 8 5 2
f 8 2 1
f 9 3 2
f 9 2 5
f 10 7 3
f 11 1 2
f 11 2 7
f 13 3 9
f 13 10 3
f 13 4 10
f 16 11 7
f 16 7 10
f 18 13 9
f 18 4 13
f 19 9 5
f 20 5 8
f 20 19 5
f 20 14 19
f 21 4 14
f 21 15 4
f 22 10 4
f 22 4 15
f 22 6 10
f 24 16 10
f 24 10 6
f 24 6 16
f 25 20 8
f 25 12 14
f 25 14 20
f 26 17 16
f 26 16 6
f 26 23 12
f 26 25 17
f 26 12 25
f 27 8 1
f 28 1 11
f 28 11 16
f 29 19 14
f 29 14 4
f 29 4 18
f 29 18 9
f 29 9 19
f 30 21 14
f 30 14 12
f 31 22 15
f 31 23 26
f 31 26 6
f 31 6 22
f 32 25 8
f 32 17 25
f 32 8 27
f 33 1 28
f 33 17 32
f 33 32 27
f 33 27 1
f 33 28 16
f 33 16 17
f 34 15 21
f 34 21 30
f 34 31 15
f 34 23 31
f 34 30 12
f 34 12 23

