# https://github.com/mikedh/trimesh
v 0.00835402 0.02503300 0.05067406
v 0.00838970 0.02434605 0.04923356
v 0.00353620 0.01987682 0.02607936
v -0.01267292 0.01688069 0.02694924
v -0.01365035 0.01463853 0.03409808
v -0.00364408 0.02754450 0.04892462
v 0.00771819 0.01854679 0.02599816
v -0.01348635 0.02233535 0.05017331
v 0.00702172 0.02662909 0.04729776
v -0.00522963 0.01989851 0.02692239
v 0.00776929 0.02587870 0.04574337
v 0.00836829 0.01563656 0.02733023
v -0.01300634 0.01229915 0.02649817
v -0.00620590 0.02683896 0.05037535
v -0.01367004 0.01905888 0.04332951
v 0.00365543 0.02757234 0.05001105
v 0.00277856 0.02667097 0.04487882
v 0.00045093 0.02028439 0.02599054
v -0.01182001 0.02495328 0.04554059
v 0.00774938 0.02679771 0.05001810
v 0.00687855 0.01895053 0.02608292
v 0.00614422 0.02660308 0.04659135
v 0.00844678 0.02006792 0.03906434
v 0.00819131 0.01523171 0.02579102
v -0.01358011 0.01200760 0.02743297
v -0.01334993 0.02287052 0.05094088
v -0.01265190 0.02411297 0.04406943
v 0.00537381 0.02691651 0.05041184
v -0.00371504 0.02762311 0.04997158
v -0.00040090 0.02755836 0.04805283
v -0.00927147 0.01900915 0.02702966
v -0.00362742 0.02670143 0.04491013
v 0.00777590 0.02666814 0.04888651
v 0.00278986 0.02748876 0.04809570
v 0.00843248 0.01828426 0.03485233
v 0.00680145 0.01586884 0.02563594
v -0.01345745 0.01189293 0.02661868
v -0.01364630 0.01287868 0.02991286
v -0.01268904 0.02500835 0.05025179
v 0.00789848 0.02635913 0.05040194
v -0.00783161 0.02668947 0.04966958
v -0.01260432 0.02315441 0.04156822
v -0.01185862 0.02316435 0.04072588
v -0.00696799 0.02660902 0.04723977
v -0.00861925 0.02569850 0.04493076
v 0.00363750 0.02749210 0.04893665
v 0.00041150 0.01715821 0.02573143
v -0.01295541 0.02471296 0.05048632
v -0.01266100 0.02492529 0.04888874
v -0.00795912 0.02664750 0.05019345
v -0.01080745 0.01814357 0.02706985
v -0.00531666 0.02661266 0.04561415
v -0.01028729 0.02580686 0.04803378
v -0.00943120 0.02602684 0.05037447
v -0.01204823 0.02514743 0.05042794
f 8 5 2
f 8 2 1
f 11 1 2
f 11 2 7
f 15 5 8
f 18 13 4
f 18 3 7
f 18 17 3
f 21 11 7
f 21 7 3
f 21 3 11
f 22 11 3
f 22 9 11
f 22 3 17
f 23 12 7
f 23 7 2
f 24 7 12
f 25 24 12
f 26 8 1
f 27 15 8
f 27 4 15
f 28 20 16
f 28 26 1
f 28 14 26
f 29 28 16
f 29 14 28
f 30 29 16
f 30 6 29
f 31 18 4
f 31 10 18
f 32 18 10
f 32 6 30
f 32 30 17
f 32 17 18
f 33 11 9
f 33 20 1
f 33 1 11
f 34 22 17
f 34 9 22
f 34 30 16
f 34 17 30
f 35 23 2
f 35 2 5
f 35 25 12
f 35 12 23
f 36 18 7
f 36 7 24
f 36 24 13
f 37 25 4
f 37 4 13
f 37 13 24
f 37 24 25
f 38 15 4
f 38 4 25
f 38 5 15
f 38 35 5
f 38 25 35
f 40 28 1
f 40 1 20
f 40 20 28
f 41 29 6
f 42 4 27
f 42 27 31
f 43 31 27
f 43 27 19
f 43 19 31
f 44 41 6
f 45 31 19
f 45 19 44
f 45 32 10
f 45 10 31
f 46 33 9
f 46 16 20
f 46 20 33
f 46 34 16
f 46 9 34
f 47 36 13
f 47 13 18
f 47 18 36
f 48 26 14
f 48 8 26
f 48 27 8
f 49 19 27
f 49 48 39
f 49 27 48
f 50 41 39
f 50 14 29
f 50 29 41
f 51 42 31
f 51 31 4
f 51 4 42
f 52 44 6
f 52 6 32
f 52 45 44
f 52 32 45
f 53 44 19
f 53 41 44
f 53 19 49
f 53 49 39
f 53 39 41
f 54 48 14
f 54 14 50
f 55 54 50
f 55 50 39
f 55 39 48
f 55 48 54

