# https://github.com/mikedh/trimesh
v -0.00492142 -0.02562615 0.05163541
v -0.00459377 -0.02743956 0.05145333
v -0.00474518 -0.02013828 0.03428109
v -0.02191703 -0.00857912 0.03448795
v -0.02643942 -0.00869593 0.05150192
v -0.01335362 -0.01973929 0.03457105
v -0.00446124 -0.02750225 0.05060831
v -0.01751536 -0.02145188 0.05149436
v -0.02475285 -0.00898715 0.05173000
v -0.01871920 -0.00896071 0.03423566
v -0.00461428 -0.02301410 0.03437199
v -0.01090018 -0.02559535 0.05145156
v -0.02306186 -0.01492961 0.04815521
v -0.00492772 -0.02511037 0.05010846
v -0.01508032 -0.02322438 0.05149918
v -0.02315731 -0.01571283 0.05149647
v -0.01899732 -0.01406723 0.03456756
v -0.01919899 -0.00914633 0.03652995
v -0.02244833 -0.00846185 0.03627510
v -0.00444658 -0.02325763 0.03534526
v -0.00574059 -0.01987279 0.03416536
v -0.00523691 -0.02728470 0.05061384
v -0.00782073 -0.02221072 0.03447395
v -0.01909327 -0.01969454 0.04894105
v -0.01425874 -0.02297526 0.04742298
v -0.02584648 -0.01092649 0.05145160
v -0.02061544 -0.01161512 0.03459021
v -0.00468172 -0.02072862 0.03431811
v -0.00442488 -0.02652787 0.04651130
v -0.00519532 -0.02727335 0.05140942
v -0.02237239 -0.01639583 0.04982637
v -0.02313246 -0.01574558 0.05067257
v -0.01810525 -0.01566707 0.03542561
v -0.01507553 -0.02300912 0.04978731
v -0.01009576 -0.02552809 0.04897854
v -0.01580220 -0.02220593 0.04812132
v -0.02593688 -0.00853382 0.04724867
v -0.02309247 -0.01410332 0.04657669
v -0.01984450 -0.01896608 0.04895654
v -0.02148437 -0.01637509 0.04663081
v -0.02563551 -0.01093045 0.04981206
v -0.01827160 -0.01968747 0.04660719
v -0.01342041 -0.02380471 0.04897662
v -0.01745708 -0.02143603 0.05062916
v -0.00689908 -0.02632661 0.04816504
v -0.01003122 -0.02462190 0.04576020
v -0.02475784 -0.01157959 0.04735291
v -0.02391010 -0.01409065 0.04983760
v -0.01659401 -0.01713339 0.03548875
v -0.01660212 -0.02136006 0.04739699
v -0.01088343 -0.02550224 0.05068360
v -0.00521272 -0.02633694 0.04657462
v -0.01183186 -0.02044783 0.03455753
v -0.02571427 -0.00930261 0.04733672
v -0.02140533 -0.01006876 0.03463741
v -0.02561051 -0.01010875 0.04810944
f 7 1 2
f 7 3 1
f 12 2 1
f 14 9 1
f 14 1 3
f 14 3 9
f 15 9 8
f 15 1 9
f 15 12 1
f 16 8 9
f 17 10 6
f 17 4 10
f 18 10 9
f 18 9 3
f 18 3 10
f 19 10 4
f 19 5 9
f 19 9 10
f 21 10 3
f 21 3 11
f 21 6 10
f 23 21 11
f 23 6 21
f 26 16 9
f 26 9 5
f 27 4 17
f 28 20 11
f 28 11 3
f 29 11 20
f 29 23 11
f 29 20 28
f 29 28 3
f 29 3 7
f 30 2 12
f 30 12 22
f 30 22 7
f 30 7 2
f 32 8 16
f 32 16 26
f 33 17 6
f 34 12 15
f 35 25 6
f 36 6 25
f 36 25 34
f 37 5 19
f 37 19 4
f 38 27 17
f 38 17 13
f 39 8 32
f 39 32 31
f 40 32 13
f 40 31 32
f 40 13 17
f 40 17 33
f 40 39 31
f 40 33 39
f 41 32 26
f 41 26 5
f 41 5 37
f 42 39 33
f 42 24 39
f 43 34 25
f 43 25 35
f 44 34 15
f 44 15 8
f 44 36 34
f 44 24 36
f 44 39 24
f 44 8 39
f 45 35 23
f 45 29 7
f 45 7 22
f 45 22 35
f 46 35 6
f 46 23 35
f 47 27 38
f 47 38 13
f 48 13 32
f 48 32 41
f 48 47 13
f 48 41 47
f 49 42 33
f 49 33 6
f 49 6 42
f 50 36 24
f 50 24 42
f 50 42 6
f 50 6 36
f 51 12 34
f 51 34 43
f 51 43 35
f 51 35 22
f 51 22 12
f 52 45 23
f 52 23 29
f 52 29 45
f 53 46 6
f 53 6 23
f 53 23 46
f 54 37 4
f 55 4 27
f 55 27 47
f 55 54 4
f 55 47 54
f 56 54 47
f 56 47 41
f 56 41 37
f 56 37 54

