# https://github.com/mikedh/trimesh
v 0.01657497 0.01186298 0.02614853
v 0.02059256 0.00138720 0.02589000
v 0.01545090 0.00587934 0.00680411
v 0.00633835 0.01068861 0.00217348
v 0.00041150 0.01715821 0.02573143
v 0.01055352 0.00138502 0.00056928
v 0.00998546 0.01385433 0.01012503
v 0.01722542 0.00678603 0.01340865
v 0.00045093 0.02028439 0.02599054
v 0.01641255 0.00121034 0.00605090
v 0.01225552 0.00694254 0.00301302
v 0.00044129 0.01169212 0.00452584
v 0.01791006 0.00144868 0.02571896
v 0.01900391 0.00786162 0.02600898
v 0.01462132 0.01002204 0.01090732
v 0.01998184 0.00456010 0.02599058
v 0.01256067 0.01595171 0.02610598
v 0.01801831 0.00197877 0.01092387
v 0.01025055 0.00536194 0.00111122
v 0.01341664 0.00124253 0.00205554
v 0.01057759 0.01154769 0.00602719
v 0.01091361 0.00159503 0.00388405
v 0.00043716 0.01572603 0.00670780
v 0.01825332 0.00933924 0.02603723
v 0.01631490 0.00670904 0.01017075
v 0.01882129 0.00362635 0.01670901
v 0.00274424 0.02008361 0.02603878
v 0.01145998 0.01400167 0.01426131
v 0.01475788 0.01152413 0.01593162
v 0.01808092 0.00133206 0.01086868
v 0.01625086 0.00446671 0.00759152
v 0.00827508 0.01061461 0.00299013
v 0.01164592 0.00369409 0.00134447
v 0.01388316 0.00362174 0.00294410
v 0.01228080 0.01230304 0.01088138
v 0.01318250 0.00911650 0.00608062
v 0.00039009 0.01668029 0.02316713
v 0.00045330 0.01504176 0.00519112
v 0.01720365 0.00751973 0.01509088
v 0.01635005 0.00754073 0.01170977
v 0.01380921 0.00921521 0.00761819
v 0.01712439 0.00534641 0.01095091
v 0.01981425 0.00216475 0.02091299
v 0.00678462 0.01812236 0.02183001
v 0.00045734 0.01671516 0.00920819
v 0.01567704 0.01243234 0.02434007
v 0.01314874 0.01315864 0.01675014
v 0.01987191 0.00136152 0.02089764
v 0.01630196 0.00195651 0.00613361
v 0.00915504 0.01149627 0.00461571
v 0.01084850 0.00524515 0.00140584
v 0.01198698 0.00131073 0.00104792
v 0.01380292 0.00508225 0.00371314
v 0.01488364 0.00128239 0.00345377
v 0.01324906 0.00286477 0.00228166
v 0.01068796 0.01309047 0.00940215
v 0.01312131 0.01229262 0.01342629
v 0.00588327 0.01401889 0.00537640
v 0.01631919 0.00920474 0.01591092
v 0.01797208 0.00363411 0.01252263
v 0.01971481 0.00363542 0.02262103
v 0.01890169 0.00281181 0.01589687
v 0.00611111 0.01916168 0.02603838
v 0.00919844 0.01555805 0.01506314
f 12 4 6
f 13 9 5
f 13 2 9
f 13 10 2
f 16 9 2
f 16 1 9
f 16 14 1
f 19 6 4
f 20 13 6
f 20 10 13
f 22 12 6
f 22 5 12
f 22 13 5
f 22 6 13
f 24 1 14
f 26 8 14
f 26 14 16
f 27 9 1
f 27 1 17
f 30 10 18
f 32 19 4
f 32 11 19
f 34 33 11
f 35 29 15
f 36 11 21
f 36 35 15
f 37 23 12
f 37 12 5
f 37 5 9
f 37 9 23
f 38 4 12
f 38 12 23
f 39 24 14
f 39 14 8
f 40 25 15
f 40 8 25
f 40 39 8
f 40 15 39
f 41 25 3
f 41 15 25
f 41 36 15
f 41 3 36
f 42 25 8
f 42 18 31
f 42 31 3
f 42 3 25
f 43 16 2
f 45 23 9
f 45 9 27
f 45 27 44
f 46 29 17
f 46 17 1
f 46 1 29
f 47 29 28
f 47 28 17
f 47 17 29
f 48 2 10
f 48 10 30
f 48 43 2
f 49 31 18
f 49 18 10
f 49 3 31
f 49 34 3
f 50 21 11
f 50 11 32
f 51 33 19
f 51 19 11
f 51 11 33
f 52 20 6
f 52 6 19
f 52 19 33
f 53 34 11
f 53 3 34
f 53 36 3
f 53 11 36
f 54 10 20
f 54 20 34
f 54 49 10
f 54 34 49
f 55 34 20
f 55 33 34
f 55 52 33
f 55 20 52
f 56 21 7
f 56 7 28
f 56 28 35
f 56 36 21
f 56 35 36
f 57 35 28
f 57 28 29
f 57 29 35
f 58 32 4
f 58 4 38
f 58 50 32
f 58 7 21
f 58 21 50
f 58 38 23
f 58 23 45
f 58 45 44
f 59 24 39
f 59 29 1
f 59 1 24
f 59 39 15
f 59 15 29
f 60 18 42
f 60 42 8
f 61 26 16
f 61 16 43
f 62 30 18
f 62 61 43
f 62 26 61
f 62 18 60
f 62 60 8
f 62 8 26
f 62 48 30
f 62 43 48
f 63 44 27
f 63 27 17
f 63 17 44
f 64 28 7
f 64 58 44
f 64 7 58
f 64 44 17
f 64 17 28

