# https://github.com/mikedh/trimesh
v 0.02070227 -0.00367346 0.02672292
v 0.01981600 -0.00838110 0.02696446
v 0.01635898 -0.00348260 0.00609831
v 0.00636388 0.00141204 0.00010354
v 0.00685951 -0.01828375 0.02650789
v 0.01894532 0.00134018 0.01503316
v 0.01810136 -0.00346297 0.01089373
v 0.00847653 -0.02066623 0.02688343
v 0.01747152 0.00145215 0.02394450
v 0.01488364 0.00128239 0.00345377
v 0.01892106 -0.00346151 0.01500746
v 0.01385099 -0.01301635 0.01098311
v 0.01805428 -0.00381087 0.02656315
v 0.00611938 -0.01923591 0.01409544
v 0.00637164 0.00139488 0.00265017
v 0.01035475 0.00138250 0.00051642
v 0.02033055 0.00137164 0.02422968
v 0.01641255 0.00121034 0.00605090
v 0.01973708 -0.00345635 0.02007969
v 0.01799888 -0.00681903 0.01418302
v 0.01578410 -0.01487237 0.02696179
v 0.00635084 -0.02145870 0.02671550
v 0.00991003 -0.01714475 0.01338225
v 0.00618458 -0.00861117 0.00048328
v 0.01808092 0.00133206 0.01086868
v 0.01982086 -0.00033393 0.02006046
v 0.01560629 -0.01142869 0.01249773
v 0.01626944 -0.00673755 0.00754613
v 0.00616694 -0.02067337 0.02265574
v 0.00921696 -0.01792945 0.01498188
v 0.01177953 -0.01891166 0.02689555
v 0.01017082 -0.00438415 0.00062816
v 0.00929093 -0.01485591 0.00608150
v 0.01987191 0.00136152 0.02089764
v 0.01714050 -0.00826374 0.01248930
v 0.01302845 -0.01473044 0.01334476
v 0.01825711 -0.01176423 0.02697397
v 0.01714101 -0.00428054 0.00839937
v 0.01387958 -0.01133908 0.00762747
v 0.00683668 -0.01893851 0.01414765
v 0.01257778 -0.00191729 0.00140141
v 0.00942229 -0.01185255 0.00264872
v 0.01623466 -0.00824744 0.00928846
v 0.01713806 -0.00747797 0.01095277
v 0.01231143 -0.01804629 0.02527959
v 0.01240064 -0.01464388 0.01089921
v 0.00985865 -0.01626869 0.01007854
v 0.01245689 0.00123216 0.00133994
v 0.01380890 -0.00587442 0.00286754
v 0.01012079 -0.00836306 0.00140003
v 0.01135359 -0.01384358 0.00677574
v 0.01461778 -0.00908447 0.00624061
v 0.01542977 -0.00989887 0.00930608
v 0.00985281 -0.01536534 0.00767768
v 0.01467378 -0.00428703 0.00359418
v 0.01463740 -0.00659878 0.00452323
v 0.00697403 -0.00855966 0.00063360
v 0.01213733 -0.00906137 0.00289239
v 0.01174031 -0.00518114 0.00139383
v 0.00996532 -0.01459005 0.00629671
v 0.01313514 -0.01139543 0.00625107
v 0.01066825 -0.01537822 0.00928208
v 0.00948408 -0.00599953 0.00068000
v 0.01087363 -0.00755658 0.00147526
f 11 7 6
f 13 8 2
f 13 2 1
f 13 9 5
f 15 9 4
f 15 5 9
f 16 4 9
f 17 13 1
f 17 9 13
f 18 7 3
f 18 3 10
f 19 1 2
f 19 2 11
f 20 11 2
f 20 7 11
f 21 2 8
f 22 14 8
f 22 5 15
f 22 13 5
f 22 8 13
f 24 15 4
f 24 14 15
f 25 16 9
f 25 10 16
f 25 18 10
f 25 6 7
f 25 7 18
f 26 19 11
f 26 11 6
f 26 17 1
f 26 1 19
f 29 22 15
f 29 15 14
f 29 14 22
f 31 21 8
f 31 30 23
f 31 8 30
f 32 24 4
f 32 4 16
f 33 14 24
f 34 26 6
f 34 17 26
f 34 9 17
f 34 25 9
f 34 6 25
f 35 20 2
f 36 27 21
f 36 12 27
f 37 2 21
f 37 21 27
f 37 35 2
f 37 27 35
f 38 28 3
f 38 3 7
f 39 27 12
f 40 30 8
f 40 8 14
f 40 23 30
f 41 32 16
f 42 33 24
f 44 7 20
f 44 20 35
f 44 38 7
f 44 28 38
f 44 43 28
f 44 35 27
f 45 36 21
f 45 21 31
f 45 31 36
f 46 36 31
f 46 31 23
f 46 12 36
f 47 23 40
f 47 46 23
f 47 40 14
f 48 41 16
f 48 16 10
f 48 10 41
f 51 39 12
f 51 12 46
f 52 28 43
f 53 27 39
f 53 52 43
f 53 39 52
f 53 44 27
f 53 43 44
f 54 47 14
f 54 14 33
f 55 49 41
f 55 41 10
f 55 10 3
f 56 3 28
f 56 52 49
f 56 28 52
f 56 55 3
f 56 49 55
f 57 50 42
f 57 42 24
f 58 42 50
f 58 49 52
f 59 32 41
f 59 41 49
f 60 33 42
f 60 42 51
f 60 54 33
f 60 51 54
f 61 52 39
f 61 39 51
f 61 58 52
f 61 51 42
f 61 42 58
f 62 54 51
f 62 51 46
f 62 46 47
f 62 47 54
f 63 57 24
f 63 24 32
f 63 50 57
f 64 58 50
f 64 49 58
f 64 59 49
f 64 50 63
f 64 63 32
f 64 32 59

