# https://github.com/mikedh/trimesh
v 0.01007128 -0.01425655 0.01390718
v 0.00943637 -0.01765384 0.01409238
v 0.00949673 -0.00856588 0.00121891
v -0.01119805 -0.00276947 0.00049698
v -0.01869164 -0.00857922 0.01407445
v -0.00594505 -0.01556768 0.00371302
v 0.00635931 -0.00285402 0.00281561
v 0.00912207 -0.01544448 0.00680257
v -0.01835949 -0.00925857 0.01414621
v -0.00461233 -0.01029075 0.00053821
v 0.01005385 -0.00901683 0.00599043
v 0.00635831 -0.00282518 0.00021871
v -0.01821227 -0.00283948 0.00721567
v 0.00276216 -0.01566204 0.00308980
v -0.00606576 -0.01983146 0.01414003
v -0.01182032 -0.00840918 0.00147480
v 0.00918339 -0.01233948 0.00287729
v -0.01754227 -0.00273368 0.00587273
v -0.00787488 -0.00857324 0.00054620
v 0.00293195 -0.01028223 0.00050426
v -0.01532121 -0.00288545 0.00694160
v -0.01551005 -0.01059762 0.00691397
v -0.00457213 -0.01334604 0.00136450
v 0.00425539 -0.01867860 0.00929800
v -0.01169043 -0.01725310 0.01419918
v 0.00525340 -0.01478648 0.00301000
v -0.01665202 -0.00273398 0.00421957
v -0.01029695 -0.00607278 0.00058051
v 0.00613334 -0.00939008 0.00062932
v -0.01716163 -0.00996047 0.00994976
v -0.01728827 -0.00674979 0.00686384
v -0.01086041 -0.01306603 0.00382963
v -0.00281939 -0.01625502 0.00362846
v 0.00358422 -0.01316853 0.00140452
v -0.00692408 -0.01235631 0.00143131
v 0.00827636 -0.01710993 0.00934053
v 0.00446752 -0.01984769 0.01410584
v 0.00683668 -0.01893851 0.01414765
v -0.00998165 -0.01623841 0.00758355
v 0.00746622 -0.01546986 0.00541821
v -0.01365447 -0.00281040 0.00128800
v -0.01663857 -0.01238491 0.01417295
v -0.01722725 -0.00522011 0.00602484
v -0.01553229 -0.00663624 0.00382993
v -0.01711889 -0.00907522 0.00858515
v -0.01840628 -0.00843278 0.01244611
v 0.00038244 -0.01480097 0.00220326
v -0.00285417 -0.01564529 0.00305029
v -0.00050658 -0.01877900 0.00762376
v 0.00592031 -0.01235339 0.00147836
v -0.00936724 -0.01082294 0.00141576
v -0.00598763 -0.01389285 0.00227785
v 0.00904236 -0.01711047 0.01086618
v 0.00759969 -0.01792478 0.01083695
v -0.00999031 -0.01801270 0.01255043
v -0.00993376 -0.01543413 0.00620075
v -0.01330350 -0.01460673 0.00920609
v 0.00833694 -0.01297567 0.00291363
v 0.00361141 -0.01798501 0.00682490
v -0.01324281 -0.00514791 0.00140359
v -0.01639360 -0.01142537 0.00998685
v -0.01636279 -0.00520319 0.00437884
v -0.01545541 -0.00907304 0.00530674
v 0.00202549 -0.01624423 0.00358557
f 7 5 1
f 8 1 2
f 9 2 1
f 9 1 5
f 11 7 1
f 11 1 8
f 12 11 3
f 12 7 11
f 17 11 8
f 17 3 11
f 18 7 12
f 18 13 7
f 19 12 10
f 19 4 12
f 20 10 12
f 21 13 5
f 21 5 7
f 21 7 13
f 23 10 20
f 27 18 12
f 27 12 4
f 28 19 16
f 28 4 19
f 29 20 12
f 29 12 3
f 30 9 5
f 34 23 20
f 34 26 14
f 34 20 29
f 35 19 10
f 35 10 23
f 38 2 9
f 38 25 15
f 38 15 37
f 41 27 4
f 42 38 9
f 42 25 38
f 43 31 13
f 43 13 18
f 46 5 13
f 46 13 31
f 46 31 45
f 46 45 30
f 46 30 5
f 47 34 14
f 47 23 34
f 48 33 6
f 48 6 23
f 48 47 33
f 48 23 47
f 49 15 39
f 49 39 6
f 49 6 33
f 49 37 15
f 49 24 37
f 50 26 34
f 50 3 17
f 50 34 29
f 50 29 3
f 51 16 19
f 51 19 35
f 51 35 32
f 51 32 16
f 52 35 23
f 52 23 6
f 52 6 32
f 52 32 35
f 53 36 8
f 53 8 2
f 54 38 37
f 54 37 24
f 54 24 36
f 54 36 53
f 54 53 2
f 54 2 38
f 55 39 15
f 55 15 25
f 56 32 6
f 56 6 39
f 57 56 39
f 57 22 32
f 57 32 56
f 57 25 42
f 57 55 25
f 57 39 55
f 58 40 26
f 58 17 8
f 58 8 40
f 58 50 17
f 58 26 50
f 59 14 26
f 59 26 40
f 59 24 49
f 59 36 24
f 59 40 8
f 59 8 36
f 60 28 16
f 60 44 41
f 60 16 44
f 60 41 4
f 60 4 28
f 61 42 9
f 61 9 30
f 61 57 42
f 61 22 57
f 61 45 22
f 61 30 45
f 62 43 18
f 62 18 27
f 62 27 41
f 62 41 44
f 62 44 31
f 62 31 43
f 63 31 44
f 63 45 31
f 63 22 45
f 63 32 22
f 63 44 16
f 63 16 32
f 64 47 14
f 64 33 47
f 64 49 33
f 64 59 49
f 64 14 59

