# https://github.com/mikedh/trimesh
v 0.02718331 -0.00532086 0.05065287
v 0.02665925 -0.00850805 0.05043307
v 0.02046631 -0.00535443 0.02680194
v 0.01775712 -0.00546258 0.02663397
v 0.00727709 -0.02531851 0.05144565
v 0.02078073 -0.00529803 0.02781231
v 0.01976468 -0.01804046 0.05127506
v 0.02001760 -0.00557297 0.03658018
v 0.00712816 -0.02126003 0.02674873
v 0.02679490 -0.00525533 0.04473763
v 0.02578262 -0.01094654 0.05048628
v 0.02570670 -0.00552811 0.05086303
v 0.00763042 -0.01994057 0.03653777
v 0.00755547 -0.01795247 0.02656933
v 0.01440740 -0.02380872 0.04727958
v 0.02654846 -0.00854952 0.04628008
v 0.02580513 -0.00525061 0.04138991
v 0.02185670 -0.00566366 0.04154757
v 0.01177953 -0.01891166 0.02689555
v 0.00767987 -0.01914024 0.03330526
v 0.00697633 -0.02151651 0.02773803
v 0.01588710 -0.02323922 0.05072800
v 0.02493240 -0.00526095 0.03896495
v 0.02477159 -0.00859020 0.03983314
v 0.00847653 -0.02066623 0.02688343
v 0.00704460 -0.02657848 0.04803197
v 0.01542756 -0.02285352 0.05104858
v 0.02326522 -0.01577031 0.05054723
v 0.02568391 -0.00606507 0.04140987
v 0.02563210 -0.01013282 0.04398865
v 0.01727382 -0.01310081 0.02707485
v 0.01515916 -0.02298832 0.04575115
v 0.00713678 -0.02636139 0.05132931
v 0.00857717 -0.02664809 0.05094155
v 0.01011656 -0.02543476 0.04659024
v 0.01993609 -0.01977020 0.05075883
v 0.02651648 -0.00688357 0.04480990
v 0.02563789 -0.01079795 0.04485775
v 0.01981600 -0.00838110 0.02696446
v 0.01920610 -0.01972609 0.04484931
v 0.01578743 -0.02312020 0.04801504
v 0.00951492 -0.02608336 0.05116657
v 0.01103379 -0.02565939 0.05086913
v 0.00708851 -0.02691033 0.05103512
v 0.00786048 -0.02642461 0.04806414
v 0.01965291 -0.01873960 0.05117557
v 0.02320328 -0.01565058 0.04566607
v 0.02060238 -0.00690204 0.02784659
v 0.02226560 -0.01408899 0.03978065
v 0.01665593 -0.02220052 0.04654782
v 0.01991230 -0.01979841 0.04878467
v 0.01289881 -0.02449578 0.05103145
v 0.01098027 -0.02552391 0.04887936
v 0.00934293 -0.02544263 0.04568309
v 0.00869068 -0.02638259 0.04889729
v 0.02394293 -0.00929432 0.03823607
v 0.01887742 -0.01166006 0.02874326
v 0.02389020 -0.01410507 0.04486869
v 0.01980182 -0.01806421 0.04236295
v 0.02395515 -0.01078717 0.03983844
v 0.02236918 -0.01556786 0.04318131
v 0.01900115 -0.01892700 0.04235925
v 0.02148953 -0.01469331 0.03906785
v 0.02151287 -0.01726026 0.04487602
f 6 3 4
f 6 4 1
f 8 1 4
f 11 2 1
f 11 1 7
f 12 7 1
f 12 5 7
f 12 1 8
f 13 8 4
f 13 5 8
f 14 4 3
f 14 5 13
f 16 10 1
f 16 1 2
f 16 2 11
f 17 6 1
f 17 1 10
f 18 12 8
f 18 8 5
f 18 5 12
f 19 14 3
f 19 9 14
f 20 14 13
f 20 13 4
f 20 4 14
f 21 14 9
f 21 5 14
f 23 3 6
f 23 6 17
f 24 23 17
f 24 3 23
f 25 15 9
f 25 9 19
f 26 21 9
f 28 11 7
f 29 24 17
f 29 17 10
f 29 10 24
f 32 25 19
f 32 15 25
f 33 5 21
f 33 21 26
f 35 9 15
f 36 27 22
f 37 30 24
f 37 24 10
f 37 10 16
f 37 16 30
f 38 30 16
f 38 16 11
f 39 31 19
f 39 19 3
f 41 22 15
f 41 15 32
f 42 27 7
f 42 7 5
f 42 5 33
f 43 15 22
f 43 42 34
f 44 33 26
f 44 26 34
f 44 42 33
f 44 34 42
f 45 26 9
f 46 7 27
f 46 27 36
f 46 36 28
f 46 28 7
f 47 38 11
f 47 11 28
f 48 39 3
f 48 3 24
f 50 32 19
f 50 19 40
f 50 41 32
f 51 36 22
f 51 22 41
f 51 41 50
f 51 50 40
f 51 40 47
f 51 47 28
f 51 28 36
f 52 22 27
f 52 27 42
f 52 43 22
f 52 42 43
f 53 35 15
f 53 15 43
f 53 43 34
f 54 45 9
f 54 9 35
f 54 35 45
f 55 34 26
f 55 26 45
f 55 53 34
f 55 45 35
f 55 35 53
f 56 48 24
f 56 39 48
f 57 49 31
f 57 31 39
f 57 39 49
f 58 49 38
f 58 38 47
f 58 47 49
f 60 49 39
f 60 39 56
f 60 38 49
f 60 30 38
f 60 56 24
f 60 24 30
f 61 49 47
f 62 40 19
f 63 31 49
f 63 61 59
f 63 49 61
f 63 59 62
f 63 62 19
f 63 19 31
f 64 61 47
f 64 47 40
f 64 59 61
f 64 62 59
f 64 40 62

