# https://github.com/mikedh/trimesh
v -0.01293636 0.01959630 0.03457493
v -0.01098870 0.01393350 0.02647617
v -0.01031136 0.01528662 0.01411575
v -0.01635558 0.01003287 0.01421405
v -0.02377522 0.00135366 0.03443053
v -0.01508036 0.01855028 0.03475549
v -0.01051532 0.01821128 0.02675628
v -0.02036855 0.00145424 0.03424145
v -0.01366164 0.01933521 0.03470948
v -0.01235507 0.01407496 0.01423532
v -0.02160969 0.01034227 0.03458246
v -0.01017705 0.01756273 0.02434129
v -0.01019716 0.01591488 0.01668838
v -0.01403625 0.01417724 0.03391648
v -0.02342194 0.00550570 0.03465184
v -0.01729903 0.00152186 0.01389672
v -0.01097643 0.01494307 0.01419709
v -0.01559772 0.01167186 0.01593956
v -0.01099630 0.01203851 0.01386559
v -0.02076759 0.01183849 0.03471502
v -0.01975273 0.00291459 0.01414540
v -0.01847333 0.00157473 0.02640432
v -0.01995488 0.00130440 0.01412332
v -0.01120579 0.01259436 0.02069311
v -0.01751157 0.01604035 0.03473961
v -0.01796584 0.00761327 0.01417469
v -0.01880669 0.00604786 0.01504175
v -0.02323342 0.00130939 0.03202053
f 7 1 2
f 9 1 3
f 9 8 1
f 10 3 4
f 12 7 2
f 13 3 1
f 13 1 7
f 13 7 12
f 13 12 2
f 14 8 2
f 14 2 1
f 14 1 8
f 15 5 8
f 15 9 6
f 15 8 9
f 17 9 3
f 17 6 9
f 17 10 6
f 17 3 10
f 18 10 4
f 18 6 10
f 19 13 2
f 19 3 13
f 19 4 3
f 20 15 6
f 20 11 15
f 20 18 4
f 22 2 8
f 22 8 16
f 23 16 8
f 23 21 16
f 23 5 15
f 23 15 21
f 24 19 2
f 24 16 19
f 24 22 16
f 24 2 22
f 25 20 6
f 25 6 18
f 25 18 20
f 26 20 4
f 26 11 20
f 26 4 19
f 26 19 16
f 26 16 21
f 27 21 15
f 27 15 11
f 27 26 21
f 27 11 26
f 28 23 8
f 28 8 5
f 28 5 23

