# https://github.com/mikedh/trimesh
v -0.01295541 0.02471296 0.05048632
v -0.01363203 0.02256055 0.05079497
v -0.01871920 -0.00896071 0.03423566
v -0.01293636 0.01959630 0.03457493
v -0.02659423 0.00795830 0.04554801
v -0.01365035 0.01463853 0.03409808
v -0.01900354 -0.00907516 0.03582613
v -0.02488383 0.01273807 0.05071282
v -0.01280958 0.02017274 0.03556929
v -0.02308007 0.00684213 0.03492800
v -0.02651311 -0.00675241 0.04734950
v -0.02239959 0.01674800 0.05071089
v -0.01974127 0.01339234 0.03482877
v -0.02321342 -0.00504772 0.03457977
v -0.02191703 -0.00857912 0.03448795
v -0.02768759 0.00128638 0.05120227
v -0.02475285 -0.00898715 0.05173000
v -0.01763759 0.02179244 0.05048862
v -0.02317179 0.01498562 0.04489536
v -0.02741715 -0.00026711 0.04648540
v -0.02573409 -0.00846476 0.04651880
v -0.02663649 0.00854732 0.05067499
v -0.02344012 0.01251467 0.05126873
v -0.02411714 -0.00906086 0.05017627
v -0.02742383 -0.00569064 0.05145212
v -0.01520627 0.02348345 0.05048058
v -0.02486297 0.01267050 0.04625166
v -0.02155235 0.01750271 0.04721557
v -0.01598366 0.02155690 0.04158085
v -0.02394116 0.01184542 0.04149234
v -0.02647093 -0.00508919 0.04571176
v -0.02569887 0.00557156 0.04063542
v -0.02745736 0.00386129 0.04796968
v -0.02386956 0.01225765 0.05122162
v -0.02080227 -0.00913719 0.04079300
v -0.02664215 -0.00833254 0.05145735
v -0.02741418 -0.00443491 0.04890530
v -0.02399182 0.01437414 0.04964068
v -0.02651611 0.00863410 0.04709403
v -0.02238166 0.01675449 0.04884948
v -0.01437018 0.01907894 0.03484863
v -0.01983170 0.01666852 0.03986903
v -0.01729057 0.02173768 0.04556869
v -0.01280812 0.02446503 0.04543795
v -0.02388894 0.00784518 0.03734385
v -0.02472617 0.01189666 0.04400821
v -0.02654533 -0.00186230 0.04396600
v -0.02398587 0.00128628 0.03544139
v -0.02744012 0.00136179 0.04641979
v -0.02743538 0.00466040 0.05094648
v -0.02399844 0.01433905 0.05071540
v -0.02542572 0.00969727 0.05111110
v -0.02644466 -0.00842544 0.04979880
v -0.02741989 -0.00191215 0.04718580
v -0.01278338 0.02267954 0.04057990
v -0.02142336 0.01421942 0.03918470
v -0.01727462 0.01747657 0.03659695
v -0.01983972 0.01917561 0.04641947
v -0.01661664 0.02249155 0.04624416
v -0.01810120 0.02000111 0.04318971
v -0.02399067 0.00621515 0.03646364
v -0.02566018 0.00701660 0.04141646
v -0.02307507 0.01427603 0.04320744
v -0.02557625 0.01030819 0.04483941
f 6 1 3
f 7 1 2
f 7 3 1
f 9 6 4
f 9 1 6
f 13 4 6
f 13 6 10
f 14 10 6
f 14 6 3
f 15 3 7
f 15 14 3
f 21 11 14
f 21 14 15
f 23 18 12
f 23 2 18
f 23 17 2
f 24 7 2
f 24 2 17
f 24 21 15
f 24 17 21
f 25 23 16
f 25 17 23
f 26 18 2
f 26 2 1
f 27 22 8
f 31 14 11
f 34 23 12
f 34 16 23
f 35 24 15
f 35 15 7
f 35 7 24
f 36 17 25
f 37 31 11
f 37 25 16
f 38 27 8
f 39 27 5
f 39 22 27
f 40 28 19
f 40 12 18
f 40 18 28
f 40 38 12
f 40 19 27
f 40 27 38
f 41 9 4
f 41 4 13
f 45 30 13
f 45 13 10
f 46 27 19
f 47 14 31
f 48 10 14
f 48 14 47
f 48 47 20
f 49 20 16
f 49 16 33
f 49 48 20
f 49 32 48
f 49 33 5
f 49 5 32
f 50 33 16
f 50 22 39
f 50 39 5
f 50 5 33
f 51 34 12
f 51 8 34
f 51 38 8
f 51 12 38
f 52 34 8
f 52 8 22
f 52 22 50
f 52 50 16
f 52 16 34
f 53 21 17
f 53 17 36
f 53 11 21
f 53 36 25
f 53 37 11
f 53 25 37
f 54 37 16
f 54 16 20
f 54 20 47
f 54 47 31
f 54 31 37
f 55 41 29
f 55 9 41
f 55 29 44
f 55 44 1
f 55 1 9
f 56 42 13
f 56 13 30
f 57 41 13
f 57 13 42
f 57 42 29
f 57 29 41
f 58 43 19
f 58 19 28
f 58 28 43
f 59 43 28
f 59 28 18
f 59 18 26
f 59 26 1
f 59 1 44
f 59 44 29
f 59 29 43
f 60 42 19
f 60 19 43
f 60 43 29
f 60 29 42
f 61 45 10
f 61 48 32
f 61 10 48
f 62 32 5
f 62 30 45
f 62 61 32
f 62 45 61
f 63 46 19
f 63 30 46
f 63 56 30
f 63 19 42
f 63 42 56
f 64 5 27
f 64 27 46
f 64 62 5
f 64 46 30
f 64 30 62

