# https://github.com/mikedh/trimesh
v 0.00727709 -0.02531851 0.05144565
v 0.00701789 -0.02676312 0.05119946
v 0.00642372 -0.01655349 0.01396895
v -0.00389288 -0.01772207 0.01394418
v -0.00492142 -0.02562615 0.05163541
v 0.00112335 -0.02048689 0.01422339
v 0.00691871 -0.02135577 0.02689967
v -0.00459377 -0.02743956 0.05145333
v 0.00753479 -0.01972232 0.03579235
v 0.00407836 -0.01733452 0.01372545
v 0.00756209 -0.02237233 0.04335052
v 0.00611938 -0.01923591 0.01409544
v 0.00366000 -0.02748317 0.05122640
v -0.00454726 -0.02183491 0.02676973
v -0.00487841 -0.01981765 0.03250727
v 0.00756590 -0.01889360 0.03165316
v -0.00377703 -0.02026557 0.01406957
v 0.00739923 -0.02480082 0.05015877
v 0.00699138 -0.02644063 0.04731593
v -0.00207483 -0.02728138 0.04810919
v -0.00466705 -0.01896734 0.02670584
v -0.00489320 -0.02157770 0.03912517
v 0.00513245 -0.01965294 0.01416895
v 0.00364865 -0.02723148 0.04806938
v -0.00202231 -0.02046864 0.01419352
v -0.00436684 -0.02720165 0.04898109
v -0.00405092 -0.01808084 0.01816700
v 0.00670405 -0.01717384 0.01981817
v 0.00531297 -0.02728406 0.05058200
v -0.00371648 -0.02047250 0.01504014
v 0.00722551 -0.01814159 0.02670085
v 0.00445399 -0.02721819 0.04891083
v 0.00526105 -0.02728249 0.05097788
f 8 1 5
f 10 4 3
f 11 9 5
f 12 3 7
f 12 10 3
f 13 2 1
f 13 1 8
f 14 8 5
f 15 14 5
f 16 7 3
f 16 15 9
f 16 11 7
f 16 9 11
f 17 4 10
f 17 14 4
f 17 8 14
f 17 12 6
f 17 10 12
f 18 1 2
f 18 11 5
f 18 5 1
f 19 12 7
f 19 18 2
f 19 7 11
f 19 11 18
f 20 13 8
f 21 4 14
f 21 14 15
f 22 15 5
f 22 5 9
f 22 9 15
f 23 19 6
f 23 6 12
f 23 12 19
f 24 6 19
f 24 20 6
f 24 13 20
f 25 17 6
f 25 6 20
f 26 20 8
f 26 8 17
f 27 21 3
f 27 3 4
f 27 4 21
f 28 3 21
f 28 21 15
f 29 19 2
f 29 13 24
f 30 25 20
f 30 17 25
f 30 26 17
f 30 20 26
f 31 16 3
f 31 3 28
f 31 28 15
f 31 15 16
f 32 29 24
f 32 24 19
f 32 19 29
f 33 29 2
f 33 2 13
f 33 13 29

