# https://github.com/mikedh/trimesh
v 0.01087636 0.01102736 0.00705753
v 0.01091361 0.00159503 0.00388405
v 0.00612488 0.00782573 0.00064843
v -0.00862443 0.00620400 0.00049376
v -0.00978672 -0.00285085 0.00361869
v -0.00449029 0.01439063 0.00508662
v 0.01008348 0.00611238 0.00131104
v 0.01092197 0.00757143 0.00703992
v 0.00613688 0.01362253 0.00499979
v -0.00203270 0.01248938 0.00217945
v -0.00920997 0.01029626 0.00689519
v 0.01031805 0.00212847 0.00057182
v 0.00635931 -0.00285402 0.00281561
v 0.00368788 0.01440550 0.00507991
v 0.00918262 0.00919154 0.00235299
v -0.00370282 0.00941006 0.00060577
v -0.00863215 0.01008667 0.00200990
v -0.00890713 0.01073055 0.00720249
v -0.00973965 -0.00282392 0.00031615
v 0.00635831 -0.00282518 0.00021871
v 0.00858734 0.00540897 0.00064670
v -0.00208341 0.01317264 0.00288009
v 0.00189717 0.01243957 0.00215184
v 0.00845224 0.00832610 0.00144717
v 0.00994179 0.01004435 0.00363825
v -0.00612437 0.00859107 0.00063160
v -0.00442692 0.01097605 0.00147658
v -0.00863129 0.01275569 0.00509208
v -0.00973970 0.00140720 0.00022620
v -0.00561710 -0.00292418 0.00295566
v 0.01035475 0.00138250 0.00051642
v 0.00284008 0.00941185 0.00065945
v -0.00589112 0.01231198 0.00290566
v 0.00438682 0.01317949 0.00376590
v 0.00191237 0.01312123 0.00292573
v 0.00996264 0.00845832 0.00238125
v 0.00437317 0.01164487 0.00215822
v 0.00917851 0.00993242 0.00291023
v -0.00866535 0.00871268 0.00132873
v -0.00786345 0.00939047 0.00141619
v -0.00696580 0.01362589 0.00510721
v -0.00981848 0.00138793 0.00347889
v 0.00355952 0.01093705 0.00138864
v -0.00437624 0.01400532 0.00452051
v -0.00755469 0.01147051 0.00294127
v -0.00600005 0.01171851 0.00231251
v 0.00596399 0.01330174 0.00450431
v 0.00359110 0.01401741 0.00453659
v 0.00913748 0.00766149 0.00149659
v -0.00765982 0.01074705 0.00217569
v -0.00844605 0.01240216 0.00456356
f 8 2 1
f 12 7 1
f 13 8 5
f 13 2 8
f 14 6 1
f 14 1 9
f 18 11 5
f 18 5 8
f 18 8 1
f 18 1 6
f 20 2 13
f 21 7 12
f 22 6 14
f 23 10 22
f 23 16 10
f 24 21 3
f 24 7 21
f 25 9 1
f 26 16 4
f 27 10 16
f 27 16 26
f 28 11 18
f 29 20 19
f 29 4 16
f 29 28 17
f 29 11 28
f 30 13 5
f 30 5 19
f 30 20 13
f 30 19 20
f 31 20 3
f 31 2 20
f 31 12 1
f 31 1 2
f 31 21 12
f 31 3 21
f 32 3 20
f 32 29 16
f 32 20 29
f 35 23 22
f 35 22 14
f 35 34 23
f 36 24 15
f 36 25 1
f 36 1 7
f 37 15 24
f 37 23 34
f 38 9 25
f 38 15 37
f 38 36 15
f 38 25 36
f 39 26 4
f 39 29 17
f 39 4 29
f 40 27 26
f 40 17 27
f 40 39 17
f 40 26 39
f 41 28 18
f 41 18 6
f 41 33 28
f 42 29 19
f 42 19 5
f 42 5 11
f 42 11 29
f 43 32 16
f 43 16 23
f 43 23 37
f 43 37 24
f 43 24 3
f 43 3 32
f 44 6 22
f 44 22 33
f 44 41 6
f 44 33 41
f 46 33 22
f 46 22 10
f 46 10 27
f 46 27 17
f 47 14 9
f 47 37 34
f 47 38 37
f 47 9 38
f 48 35 14
f 48 34 35
f 48 47 34
f 48 14 47
f 49 36 7
f 49 7 24
f 49 24 36
f 50 45 33
f 50 17 45
f 50 46 17
f 50 33 46
f 51 45 17
f 51 17 28
f 51 28 33
f 51 33 45

