# https://github.com/mikedh/trimesh
v -0.01165794 -0.00916424 0.05027903
v 0.00127120 -0.03420434 0.04192217
v -0.00013462 -0.01561822 0.04559795
v 0.00112010 -0.01684117 0.01577803
v -0.00976943 -0.03378382 0.01535566
v 0.00116399 -0.02500530 0.05015101
v -0.00619227 -0.00776173 0.04402598
v -0.00969617 -0.03076179 0.03999543
v -0.00752340 -0.01503943 0.01891519
v 0.00120194 -0.03785727 0.01501726
v -0.00003304 -0.02102430 0.04998646
v -0.00619017 -0.00794787 0.04550942
v -0.00984597 -0.03401943 0.03250792
v -0.00999115 -0.01818450 0.04968340
v -0.00182233 -0.02927674 0.04633150
v -0.01167407 -0.00746855 0.04072707
v -0.00984488 -0.03235781 0.03705756
v -0.00350140 -0.03741072 0.01815310
v -0.00986913 -0.02449280 0.04627317
v -0.00491501 -0.03219003 0.04164113
v 0.00120104 -0.02801574 0.04818043
v -0.00695837 -0.00756523 0.04333592
v -0.00336799 -0.03542624 0.03721487
v -0.00821250 -0.03547680 0.01822476
v -0.00189384 -0.03710499 0.01519910
v -0.00506035 -0.02288498 0.04945455
v -0.00179735 -0.03227219 0.04323469
v -0.00344745 -0.03383851 0.04012920
v -0.00812516 -0.03059060 0.04154553
v -0.00990976 -0.00744692 0.04645707
v -0.00820931 -0.03391276 0.03563911
v -0.00344701 -0.03727487 0.03096617
v -0.00816799 -0.02596535 0.04613318
v -0.00186569 -0.02458989 0.04958479
v -0.00027377 -0.03568825 0.03873309
v -0.00021154 -0.03391998 0.04171240
v -0.01174162 -0.00745184 0.04765732
v 0.00115775 -0.03780759 0.03425804
v -0.00828232 -0.03553307 0.02921712
v -0.00501761 -0.03543069 0.03553061
v -0.00029115 -0.02785567 0.04789793
v 0.00118539 -0.03596639 0.03892418
v -0.00031701 -0.03746877 0.03411417
f 6 4 3
f 7 3 4
f 9 4 5
f 10 5 4
f 10 4 2
f 11 6 3
f 11 1 6
f 12 3 7
f 12 11 3
f 12 1 11
f 13 1 5
f 14 6 1
f 16 9 5
f 16 4 9
f 17 1 13
f 19 14 1
f 19 17 8
f 19 1 17
f 21 15 2
f 21 2 4
f 21 4 6
f 22 7 4
f 22 4 16
f 24 13 5
f 25 5 10
f 25 10 18
f 25 24 5
f 25 18 24
f 26 6 14
f 26 14 19
f 27 2 15
f 27 15 20
f 28 20 8
f 28 8 17
f 28 27 20
f 29 19 8
f 29 8 20
f 29 20 15
f 30 12 7
f 30 7 22
f 30 22 16
f 31 17 13
f 31 28 17
f 31 23 28
f 33 26 19
f 33 29 15
f 33 19 29
f 34 6 26
f 34 33 15
f 34 26 33
f 35 28 23
f 36 2 27
f 36 27 28
f 36 35 2
f 36 28 35
f 37 1 12
f 37 12 30
f 37 30 16
f 37 16 5
f 37 5 1
f 38 32 18
f 38 18 10
f 38 10 2
f 39 24 18
f 39 18 32
f 39 32 13
f 39 13 24
f 40 31 13
f 40 13 32
f 40 23 31
f 41 21 6
f 41 6 34
f 41 34 15
f 41 15 21
f 42 38 2
f 42 2 35
f 42 35 38
f 43 38 35
f 43 35 23
f 43 23 40
f 43 40 32
f 43 32 38

