# https://github.com/mikedh/trimesh
v -0.02671931 0.00096034 0.05293607
v -0.02654792 -0.00564375 0.05041762
v -0.02583968 0.00551931 0.04475982
v -0.03056635 0.00360225 0.01384824
v -0.05461067 -0.00299943 0.03753808
v -0.02584237 -0.00656052 0.04482594
v -0.04376237 -0.00298168 0.05129174
v -0.05332094 0.00453126 0.03602679
v -0.03062581 -0.00582923 0.01541617
v -0.02661105 -0.00443841 0.05167083
v -0.04544672 -0.00531848 0.04845450
v -0.03061028 0.00486048 0.01523017
v -0.05144834 -0.00293628 0.02103707
v -0.05131955 0.00215544 0.04501589
v -0.03057136 -0.00457088 0.01409770
v -0.03937990 -0.00297726 0.05282356
v -0.04254508 -0.00524498 0.05006746
v -0.05206947 -0.00538813 0.02508389
v -0.05453226 0.00198240 0.02683195
v -0.05453043 0.00086353 0.03906193
v -0.03927083 0.00465496 0.05162482
v -0.05134485 -0.00279290 0.04495867
v -0.04425959 -0.00313795 0.01634028
v -0.02836248 -0.00319173 0.05285536
v -0.04245789 -0.00401546 0.05128563
v -0.05025324 -0.00541394 0.02225006
v -0.05363194 -0.00531279 0.03290454
v -0.04715721 0.00431218 0.01941798
v -0.05461917 -0.00294234 0.02680860
v -0.05299980 0.00331378 0.04062686
v -0.05463248 0.00211724 0.03754508
v -0.02653148 0.00488434 0.05070430
v -0.05181573 0.00457944 0.04087338
v -0.03937708 0.00222979 0.05298591
v -0.04673416 -0.00292422 0.04951503
v -0.05453633 -0.00173523 0.03901364
v -0.05291630 0.00204076 0.04219313
v -0.04419786 -0.00537793 0.01777344
v -0.02675118 -0.00172537 0.05285097
v -0.04536723 -0.00409950 0.04974493
v -0.05164587 -0.00423440 0.02227871
v -0.05177848 -0.00524053 0.04072988
v -0.05332119 0.00435257 0.02823356
v -0.04268715 0.00438118 0.01758558
v -0.04984683 0.00215816 0.01965433
v -0.05353468 -0.00527595 0.02972373
v -0.03303752 0.00356772 0.05293172
v -0.02663954 0.00369651 0.05185586
v -0.05147242 0.00345788 0.04364881
v -0.04067320 -0.00163785 0.05291463
v -0.04690339 0.00216509 0.04969073
v -0.05292342 -0.00291827 0.04214186
v -0.04267689 -0.00427932 0.01640328
v -0.04713139 -0.00543279 0.01935552
v -0.05140536 -0.00405742 0.04372050
v -0.05329278 -0.00423630 0.02526170
v -0.05301064 -0.00403412 0.04059223
v -0.04411105 0.00219249 0.01646745
v -0.04991340 -0.00313857 0.01962335
v -0.05135993 0.00209592 0.02116361
v -0.02829848 0.00471776 0.05145788
v -0.02833212 0.00220641 0.05295624
v -0.03610012 0.00346849 0.05295528
v -0.04840023 0.00429265 0.04675344
f 6 4 3
f 6 3 1
f 10 6 1
f 10 2 6
f 12 8 3
f 12 3 4
f 15 4 6
f 15 6 9
f 16 2 10
f 17 11 6
f 17 6 2
f 17 2 16
f 23 4 15
f 24 16 10
f 25 17 16
f 25 16 7
f 26 9 6
f 26 6 18
f 27 18 6
f 29 19 13
f 29 27 5
f 31 29 5
f 31 19 29
f 31 30 8
f 32 3 21
f 33 21 3
f 33 3 8
f 33 8 30
f 36 31 5
f 36 20 31
f 37 22 14
f 37 31 20
f 37 30 31
f 38 15 9
f 39 24 10
f 39 10 1
f 39 1 24
f 40 25 7
f 40 11 17
f 40 17 25
f 40 7 35
f 41 26 18
f 42 27 6
f 42 6 11
f 43 8 12
f 43 12 28
f 43 31 8
f 43 19 31
f 44 28 12
f 44 12 4
f 46 18 27
f 46 27 29
f 48 1 3
f 48 3 32
f 49 33 30
f 49 37 14
f 49 30 37
f 50 16 24
f 50 24 1
f 50 1 34
f 50 7 16
f 51 34 21
f 51 14 22
f 51 22 35
f 51 50 34
f 51 35 7
f 51 7 50
f 52 36 5
f 52 22 37
f 52 37 20
f 52 20 36
f 53 38 23
f 53 23 15
f 53 15 38
f 54 38 9
f 54 9 26
f 54 23 38
f 54 26 41
f 55 40 35
f 55 35 22
f 55 11 40
f 55 42 11
f 55 22 52
f 56 29 13
f 56 13 41
f 56 41 18
f 56 46 29
f 56 18 46
f 57 5 27
f 57 27 42
f 57 52 5
f 57 55 52
f 57 42 55
f 58 44 4
f 58 4 23
f 58 23 45
f 58 45 28
f 58 28 44
f 59 45 23
f 59 13 45
f 59 23 54
f 59 54 41
f 59 41 13
f 60 45 13
f 60 13 19
f 60 19 43
f 60 43 28
f 60 28 45
f 61 32 21
f 61 21 47
f 61 48 32
f 61 47 48
f 62 34 1
f 62 48 47
f 62 1 48
f 63 47 21
f 63 21 34
f 63 62 47
f 63 34 62
f 64 21 33
f 64 33 49
f 64 51 21
f 64 49 14
f 64 14 51

