# https://github.com/mikedh/trimesh
v -0.00971857 0.02185433 0.02783120
v 0.00088016 -0.03753391 0.01443531
v 0.00062275 0.02203460 0.01872221
v -0.00733532 0.01448105 0.00101393
v -0.01037449 -0.03322175 0.01487980
v 0.00095020 0.01951973 0.00095046
v 0.00056231 -0.01795670 0.01632675
v -0.01138088 -0.01764770 0.02602605
v -0.00231092 -0.02039101 0.00114872
v 0.00124637 -0.03437830 0.00886914
v -0.01050450 0.02096863 0.00359081
v -0.00373219 -0.03637189 0.01492333
v -0.01059762 -0.01835319 0.02549852
v 0.00095609 -0.02047348 0.00088350
v 0.00116845 -0.03631004 0.01175605
v -0.01006802 -0.02630397 0.00600843
v -0.00146395 0.02252544 0.02006327
v -0.00868450 0.02070793 0.00282806
v -0.01213561 0.01890411 0.02755094
v -0.00850383 -0.03435669 0.01507587
v -0.01056472 -0.01206350 0.00116925
v 0.00114043 -0.02663515 0.00269610
v -0.00511527 -0.03241067 0.00910302
v -0.00189406 -0.03566052 0.01209391
v 0.00088241 0.02139868 0.00128282
v -0.01065245 0.01111505 0.00110721
v -0.01048097 0.02103927 0.02799052
v -0.01027556 -0.02002012 0.00280128
v 0.00119257 -0.02963149 0.00441792
v -0.00980004 -0.03219173 0.01221089
v -0.00344127 -0.03592104 0.01358996
v -0.00032538 -0.03415427 0.00911093
v -0.00399083 0.01778637 0.00108616
v -0.01034504 0.01912437 0.00277836
v -0.00689594 -0.02320823 0.00292201
v -0.00192307 -0.03086563 0.00616707
v -0.00824314 -0.03388589 0.01372269
v -0.00838377 -0.03081503 0.00913195
v -0.00665688 -0.03386494 0.01221101
v -0.00070401 0.01947525 0.00104770
v -0.00047925 -0.02646913 0.00287344
v -0.00689754 -0.02633569 0.00457025
v -0.00193269 -0.03235000 0.00759855
v -0.00833768 -0.02775637 0.00620507
v -0.00040634 -0.02944885 0.00462222
f 7 2 3
f 7 3 1
f 10 6 3
f 12 2 8
f 13 7 1
f 13 1 8
f 13 8 2
f 13 2 7
f 14 4 6
f 15 10 3
f 15 3 2
f 17 11 1
f 17 1 3
f 20 12 8
f 20 8 5
f 21 14 9
f 21 8 19
f 21 5 8
f 22 9 14
f 22 14 6
f 24 15 2
f 25 17 3
f 25 3 6
f 25 18 11
f 25 11 17
f 26 4 14
f 26 14 21
f 26 21 19
f 26 19 11
f 27 19 8
f 27 8 1
f 27 1 11
f 27 11 19
f 28 21 9
f 28 16 5
f 28 5 21
f 29 22 6
f 29 6 10
f 30 5 16
f 31 24 2
f 31 2 12
f 32 24 23
f 32 10 15
f 32 15 24
f 33 6 4
f 33 18 25
f 34 4 26
f 34 33 4
f 34 18 33
f 34 26 11
f 34 11 18
f 35 16 28
f 35 28 9
f 36 29 10
f 37 20 5
f 37 5 30
f 37 31 12
f 37 12 20
f 38 30 16
f 39 23 24
f 39 24 31
f 39 31 37
f 39 37 30
f 39 38 23
f 39 30 38
f 40 33 25
f 40 25 6
f 40 6 33
f 41 22 29
f 41 35 9
f 41 9 22
f 42 16 35
f 42 35 41
f 43 32 23
f 43 23 36
f 43 36 10
f 43 10 32
f 44 36 23
f 44 23 38
f 44 38 16
f 44 42 36
f 44 16 42
f 45 42 41
f 45 41 29
f 45 29 36
f 45 36 42

