# https://github.com/mikedh/trimesh
v 0.02908873 0.01607016 0.05018912
v 0.04527184 -0.00316574 0.04630108
v 0.03994563 0.01890472 0.03885626
v 0.02797319 0.01844324 0.03788137
v 0.02889185 -0.01516999 0.03883150
v 0.02897787 0.01926522 0.04882212
v 0.02913833 -0.01536329 0.05050441
v 0.04391274 -0.01139596 0.03900291
v 0.02173140 0.01363665 0.04611020
v 0.04513067 0.00398653 0.04625915
v 0.03492679 0.00592013 0.04955541
v 0.04187894 -0.01509929 0.03907271
v 0.04363174 0.01215616 0.03895148
v 0.02178428 0.01370478 0.04387456
v 0.02731384 0.01379674 0.05022185
v 0.02509223 -0.00742924 0.04388420
v 0.03031464 0.01895109 0.04821000
v 0.03491816 -0.00687400 0.04952025
v 0.03321312 0.01070792 0.04964242
v 0.04484956 -0.00600756 0.04473113
v 0.04454676 0.00671685 0.04490842
v 0.02534888 -0.00748711 0.04638454
v 0.03327232 0.01882943 0.04640318
v 0.03632222 -0.01472353 0.04630440
v 0.03787247 0.01702696 0.04324098
v 0.03034337 -0.01504629 0.05000101
v 0.03788230 -0.01467489 0.04483125
v 0.03937622 0.01856743 0.04000541
v 0.04131800 -0.01476335 0.04025376
f 6 3 4
f 8 5 4
f 11 1 7
f 11 2 10
f 12 7 5
f 12 5 8
f 13 8 4
f 13 4 3
f 13 10 2
f 13 2 8
f 14 9 6
f 14 6 4
f 14 4 5
f 15 1 6
f 15 6 9
f 15 9 7
f 15 7 1
f 16 5 7
f 16 14 5
f 16 9 14
f 17 6 1
f 17 1 10
f 18 11 7
f 18 7 2
f 18 2 11
f 19 11 10
f 19 10 1
f 19 1 11
f 20 12 8
f 20 8 2
f 21 13 3
f 21 10 13
f 22 16 7
f 22 7 9
f 22 9 16
f 23 3 6
f 23 6 17
f 23 17 10
f 23 10 21
f 24 20 2
f 24 7 12
f 25 23 21
f 26 24 2
f 26 2 7
f 26 7 24
f 27 24 12
f 27 20 24
f 28 25 21
f 28 21 3
f 28 3 23
f 28 23 25
f 29 27 12
f 29 12 20
f 29 20 27

