# https://github.com/mikedh/trimesh
v -0.01100740 0.01305433 0.05059483
v -0.00653051 -0.00739118 0.04584449
v -0.01515288 0.01337184 0.02773595
v -0.02805072 0.01382877 0.02808778
v -0.02661105 -0.00443841 0.05167083
v -0.02999425 -0.00834774 0.02836337
v -0.01245818 0.01381462 0.03773191
v -0.01030291 -0.01682170 0.05012689
v -0.02653148 0.00488434 0.05070430
v -0.01663883 -0.00739937 0.02770344
v -0.00653420 0.00820171 0.04390399
v -0.00652753 0.00819072 0.04592189
v -0.02663954 0.00369651 0.05185586
v -0.01946003 -0.01854715 0.04276410
v -0.02421848 0.01212109 0.04183570
v -0.00918786 -0.01612248 0.03916891
v -0.01610885 0.01017507 0.02737298
v -0.01343611 0.01252684 0.04987181
v -0.01478706 -0.01650016 0.04773755
v -0.02654792 -0.00564375 0.05041762
v -0.01982693 0.01231705 0.04635706
v -0.00695837 -0.00756523 0.04333592
f 7 3 4
f 7 4 1
f 11 7 1
f 11 3 7
f 12 8 2
f 12 1 8
f 12 11 1
f 12 2 11
f 13 8 1
f 13 5 8
f 13 6 5
f 13 9 4
f 13 4 6
f 15 4 9
f 16 10 3
f 16 2 8
f 16 8 14
f 16 14 6
f 16 6 10
f 16 3 11
f 17 10 6
f 17 6 4
f 17 4 3
f 17 3 10
f 18 13 1
f 18 9 13
f 19 14 8
f 19 8 5
f 19 5 14
f 20 14 5
f 20 5 6
f 20 6 14
f 21 1 4
f 21 4 15
f 21 18 1
f 21 15 9
f 21 9 18
f 22 16 11
f 22 11 2
f 22 2 16

