# https://github.com/mikedh/trimesh
v 0.00120197 0.02558604 0.04991040
v 0.00022273 0.02108596 0.05009420
v 0.00088241 0.02139868 0.00128282
v -0.00719597 0.02096081 0.00248584
v -0.02479838 0.01244689 0.04065140
v 0.00118096 0.03839625 0.01656350
v -0.00015528 0.01601983 0.04566663
v -0.01343611 0.01252684 0.04987181
v -0.01106356 0.00629992 0.04153586
v 0.00113821 0.02580995 0.00259603
v -0.00981114 0.03289813 0.03563006
v -0.01161246 0.00816415 0.05024467
v -0.02608361 0.01301335 0.01444211
v -0.00608754 0.00893787 0.04406963
v 0.00124643 0.03651224 0.01202556
v 0.00126644 0.03680906 0.03749707
v -0.00985854 0.02519464 0.04612320
v -0.00600769 0.00897426 0.04580498
v -0.02148831 0.01235258 0.04502461
v -0.01185648 0.00650299 0.04091969
v -0.00834152 0.01175111 0.01802523
v -0.02258714 0.02352717 0.02760188
v -0.00019135 0.01608204 0.04418337
v 0.00127085 0.03330857 0.04358639
v -0.00670444 0.02836159 0.00630053
v -0.00180609 0.03809243 0.02771270
v 0.00123796 0.03847512 0.03099746
v -0.00663198 0.02200662 0.04936149
v -0.01931848 0.02328567 0.03867360
v -0.00981434 0.00643846 0.04230313
v -0.01678469 0.01249479 0.04804604
v -0.02291135 0.01226485 0.04354688
v -0.02429138 0.02031142 0.03085576
v -0.00181032 0.02986224 0.04631006
v -0.00180600 0.03454638 0.04021027
v 0.00115424 0.02882427 0.00423748
v -0.00523076 0.02692587 0.00471076
v -0.01498067 0.02062525 0.00580873
v -0.01289015 0.03141496 0.01526877
v -0.00341018 0.03630620 0.03422367
v -0.01283888 0.02956499 0.03855573
v -0.01787281 0.01862960 0.04473847
v -0.02086405 0.01849713 0.04156362
v -0.02423127 0.02035196 0.01830679
v -0.02090547 0.02505997 0.03076812
v -0.02406353 0.01854256 0.03557801
v 0.00119902 0.02871527 0.04800956
v -0.00351793 0.02696886 0.04780660
v -0.00487154 0.03132315 0.04328351
v -0.00343891 0.03307428 0.00914777
v -0.00523885 0.02378632 0.00307414
v -0.00203605 0.02552743 0.00306638
v -0.00354787 0.03007451 0.00631532
v -0.01193210 0.02069380 0.00411507
v -0.00652422 0.03453117 0.01364406
v -0.00984071 0.03460898 0.02771734
v -0.01289061 0.02980362 0.01226597
v -0.00021257 0.03810990 0.03090816
v -0.00032131 0.03643337 0.03736495
v -0.00814539 0.02818507 0.04475900
v -0.01469697 0.02036352 0.04619508
v -0.02104583 0.01371976 0.04476460
v -0.02248844 0.01365069 0.04319838
v -0.02085699 0.02007783 0.04010476
f 7 1 2
f 7 3 1
f 10 1 3
f 10 3 4
f 12 2 1
f 12 1 8
f 13 4 3
f 18 7 2
f 18 2 12
f 18 14 7
f 20 12 5
f 20 9 12
f 20 13 9
f 20 5 13
f 21 13 3
f 21 9 13
f 23 14 3
f 23 3 7
f 23 7 14
f 24 1 10
f 24 10 15
f 24 15 16
f 27 16 15
f 27 15 6
f 27 6 26
f 28 8 1
f 30 18 12
f 30 12 9
f 30 14 18
f 30 9 21
f 30 21 3
f 30 3 14
f 31 19 12
f 31 12 8
f 32 5 12
f 32 12 19
f 33 13 5
f 35 24 16
f 36 15 10
f 44 33 22
f 44 13 33
f 44 22 39
f 44 38 13
f 45 22 33
f 45 29 41
f 45 41 11
f 46 33 5
f 46 45 33
f 46 29 45
f 47 1 24
f 47 24 34
f 48 28 1
f 48 47 34
f 48 1 47
f 48 17 28
f 49 34 24
f 49 24 35
f 49 35 11
f 49 11 41
f 50 15 36
f 52 37 36
f 52 36 10
f 52 51 37
f 52 10 4
f 52 4 51
f 53 37 25
f 53 36 37
f 53 50 36
f 53 25 50
f 54 4 13
f 54 13 38
f 54 51 4
f 54 37 51
f 54 38 25
f 54 25 37
f 55 6 15
f 55 15 50
f 56 55 39
f 56 26 6
f 56 6 55
f 56 40 26
f 56 11 40
f 56 45 11
f 56 39 22
f 56 22 45
f 57 25 38
f 57 44 39
f 57 38 44
f 57 50 25
f 57 55 50
f 57 39 55
f 58 27 26
f 58 26 40
f 59 35 16
f 59 58 40
f 59 16 27
f 59 27 58
f 59 40 11
f 59 11 35
f 60 41 29
f 60 29 17
f 60 49 41
f 60 34 49
f 60 48 34
f 60 17 48
f 61 17 29
f 61 29 42
f 61 28 17
f 61 8 28
f 61 31 8
f 62 32 19
f 62 61 42
f 62 19 31
f 62 31 61
f 62 42 43
f 63 43 5
f 63 5 32
f 63 62 43
f 63 32 62
f 64 43 42
f 64 42 29
f 64 29 46
f 64 46 5
f 64 5 43

