# https://github.com/mikedh/trimesh
v 0.02913833 -0.01536329 0.05050441
v 0.04512252 -0.01506372 0.03099841
v 0.03526730 -0.01501445 0.00430207
v 0.02929772 -0.01546964 0.00178967
v 0.02395009 -0.03632371 0.03093787
v 0.03034337 -0.01504629 0.05000101
v 0.02326938 -0.01760325 0.01727992
v 0.03946662 -0.02424084 0.01677623
v 0.03211717 -0.01513962 0.00269472
v 0.03996901 -0.01497407 0.04208682
v 0.02985939 -0.02899554 0.04011290
v 0.02450103 -0.01906414 0.03970950
v 0.02421378 -0.03530357 0.01465013
v 0.04504164 -0.01508112 0.01648950
v 0.02878251 -0.02327235 0.04674247
v 0.03775286 -0.02427108 0.03546113
v 0.02377258 -0.03431113 0.03724739
v 0.02896205 -0.01855515 0.00251397
v 0.02385002 -0.03615775 0.01655158
v 0.03465820 -0.02423249 0.00929029
v 0.04446327 -0.01806953 0.02601741
v 0.04314667 -0.01498825 0.01193922
v 0.02881228 -0.01684628 0.05016628
v 0.03770466 -0.01938333 0.04165541
v 0.03462332 -0.02900589 0.03236620
v 0.02402895 -0.03323484 0.03915227
v 0.03041045 -0.01835099 0.00301291
v 0.03310686 -0.03066989 0.01696157
v 0.02884042 -0.02489166 0.00554303
v 0.04440161 -0.01797374 0.01964721
v 0.04275988 -0.01955909 0.03080730
v 0.03802788 -0.01795014 0.00773052
v 0.04262557 -0.01784972 0.01372972
v 0.03316087 -0.01952347 0.04625046
v 0.03615094 -0.02419074 0.03862125
v 0.04106440 -0.02267316 0.02908434
v 0.02983705 -0.03216242 0.03403270
v 0.03191700 -0.01666889 0.00307786
v 0.02837743 -0.03393212 0.01685136
v 0.03317493 -0.02906266 0.01362052
v 0.03492789 -0.01971369 0.00620478
v 0.04451449 -0.01639390 0.03087394
v 0.04295798 -0.01640660 0.03551929
v 0.03938568 -0.02257980 0.01374045
v 0.03953541 -0.01793120 0.00921075
v 0.04280506 -0.01948665 0.01662069
v 0.03004536 -0.02282561 0.04628372
v 0.03502127 -0.01655330 0.04644677
v 0.03138790 -0.02888805 0.03845908
v 0.03941904 -0.02431889 0.03073224
v 0.04110432 -0.02262452 0.01824462
v 0.02513137 -0.03377922 0.03699627
v 0.03154552 -0.03232262 0.02916899
v 0.02520107 -0.03560157 0.01672144
v 0.02991759 -0.03228615 0.01534023
v 0.02993086 -0.03064475 0.01226038
v 0.03501264 -0.01655062 0.00473612
v 0.03013810 -0.02452331 0.00607484
v 0.04278070 -0.01791423 0.03393364
v 0.03939773 -0.02107997 0.03702334
v 0.03952719 -0.01631064 0.04175995
v 0.04352429 -0.01506747 0.03576818
v 0.03466685 -0.02573465 0.01083882
v 0.04260847 -0.01629789 0.01210258
f 6 4 1
f 7 1 4
f 9 6 3
f 9 4 6
f 10 3 6
f 12 1 7
f 17 12 7
f 18 13 7
f 18 7 4
f 18 4 9
f 19 7 13
f 19 17 7
f 19 5 17
f 21 14 2
f 22 10 2
f 22 2 14
f 22 3 10
f 23 6 1
f 23 1 12
f 26 11 15
f 26 15 23
f 26 23 12
f 26 12 17
f 29 13 18
f 29 18 27
f 30 14 21
f 32 3 22
f 33 22 14
f 35 25 16
f 35 24 34
f 36 21 31
f 38 9 3
f 38 27 18
f 38 18 9
f 40 8 28
f 41 29 27
f 41 32 20
f 42 31 21
f 42 21 2
f 44 8 40
f 45 32 22
f 45 44 20
f 45 20 32
f 46 44 33
f 46 8 44
f 46 33 14
f 46 14 30
f 47 34 23
f 47 23 15
f 47 15 11
f 47 35 34
f 47 11 35
f 48 6 23
f 48 23 34
f 48 10 6
f 48 34 24
f 49 35 11
f 49 25 35
f 49 37 25
f 50 36 31
f 50 31 16
f 50 16 25
f 51 30 21
f 51 21 36
f 51 46 30
f 51 8 46
f 51 28 8
f 52 17 5
f 52 5 37
f 52 26 17
f 52 37 49
f 52 49 11
f 52 11 26
f 53 37 5
f 53 25 37
f 53 39 28
f 53 50 25
f 53 36 50
f 53 51 36
f 53 28 51
f 54 19 13
f 54 13 39
f 54 5 19
f 54 53 5
f 54 39 53
f 55 40 28
f 55 28 39
f 55 39 13
f 56 13 29
f 56 55 13
f 56 40 55
f 57 3 32
f 57 32 41
f 57 38 3
f 57 41 27
f 57 27 38
f 58 41 20
f 58 29 41
f 58 56 29
f 59 16 31
f 59 31 42
f 59 42 2
f 60 35 16
f 60 59 43
f 60 16 59
f 60 24 35
f 61 60 43
f 61 24 60
f 61 48 24
f 61 10 48
f 62 2 10
f 62 61 43
f 62 10 61
f 62 59 2
f 62 43 59
f 63 44 40
f 63 20 44
f 63 40 56
f 63 58 20
f 63 56 58
f 64 45 22
f 64 22 33
f 64 33 44
f 64 44 45

