# https://github.com/mikedh/trimesh
v 0.02951004 0.01296760 0.05061769
v 0.03026004 0.01340445 0.03881394
v 0.02842102 0.03482837 0.02598576
v 0.00109723 0.03902494 0.02610725
v 0.00044986 0.01693421 0.04386546
v 0.02982886 0.02173246 0.02612056
v 0.01087517 0.03160982 0.04649102
v 0.02829617 0.03290841 0.03554322
v 0.02212094 0.01401828 0.04345981
v 0.02884408 0.02253717 0.02576301
v 0.00022273 0.02108596 0.05009420
v 0.02826174 0.03146647 0.03864197
v 0.01723053 0.03787822 0.03418272
v 0.00081320 0.02836055 0.02615730
v 0.00044460 0.01727156 0.04641265
v 0.01571250 0.02684678 0.04951828
v 0.00127085 0.03330857 0.04358639
v 0.02362026 0.03628900 0.03250876
v 0.02054644 0.03833137 0.02605979
v 0.01879189 0.03299240 0.04330723
v 0.00120197 0.02558604 0.04991040
v 0.02827204 0.02663389 0.04483943
v 0.00134431 0.03625934 0.03868191
v 0.02677707 0.03470654 0.03250468
v 0.02042953 0.03451773 0.04019216
v 0.01413660 0.03799579 0.03567891
v 0.02522306 0.03639449 0.02770799
v 0.02048129 0.03804653 0.02925122
v 0.01886927 0.03006534 0.04646756
v 0.00294489 0.02694112 0.04945312
v 0.00119902 0.02871527 0.04800956
v 0.02521371 0.02200630 0.04939809
v 0.02515731 0.03137367 0.04173666
v 0.00289835 0.03477485 0.04184095
v 0.02521354 0.03468336 0.03556125
v 0.02835647 0.03466638 0.02764216
v 0.00451468 0.03806496 0.03560539
v 0.01728654 0.03626346 0.03864259
v 0.02535776 0.03648680 0.02604498
v 0.01886031 0.03789280 0.03248360
v 0.00608967 0.03157790 0.04647731
v 0.02041986 0.02518356 0.04944346
v 0.02836575 0.01872222 0.04945488
v 0.02821153 0.02813249 0.04329098
v 0.02349275 0.02979804 0.04475306
v 0.02196008 0.03298334 0.04168522
v 0.00130225 0.03818551 0.03257234
v 0.01571968 0.03473137 0.04182565
v 0.02209233 0.02688358 0.04776461
v 0.02682217 0.02038680 0.04946381
v 0.02843001 0.02209745 0.04771113
v 0.02677866 0.02368305 0.04771721
f 6 2 5
f 8 6 3
f 8 2 6
f 9 5 2
f 9 2 1
f 9 1 5
f 10 3 6
f 12 1 2
f 12 2 8
f 14 10 6
f 14 6 5
f 14 4 10
f 14 11 4
f 14 5 11
f 15 11 5
f 15 5 1
f 15 1 11
f 19 10 4
f 19 3 10
f 21 11 1
f 21 1 16
f 22 1 12
f 23 4 11
f 23 11 17
f 26 19 4
f 26 13 19
f 27 18 24
f 28 27 19
f 28 18 27
f 29 20 7
f 29 7 16
f 30 21 16
f 30 16 7
f 31 17 11
f 31 11 21
f 31 21 30
f 34 23 17
f 35 24 18
f 35 8 24
f 35 18 13
f 35 12 8
f 35 33 12
f 36 24 8
f 36 8 3
f 36 27 24
f 36 3 27
f 37 26 4
f 37 34 26
f 37 23 34
f 38 13 26
f 38 35 13
f 38 25 35
f 39 27 3
f 39 3 19
f 39 19 27
f 40 13 18
f 40 18 28
f 40 28 19
f 40 19 13
f 41 31 30
f 41 30 7
f 41 17 31
f 41 34 17
f 41 7 34
f 42 16 1
f 42 1 32
f 42 29 16
f 44 22 12
f 44 12 33
f 45 44 33
f 45 22 44
f 45 20 29
f 46 25 20
f 46 45 33
f 46 20 45
f 46 35 25
f 46 33 35
f 47 37 4
f 47 4 23
f 47 23 37
f 48 20 25
f 48 25 38
f 48 7 20
f 48 34 7
f 48 38 26
f 48 26 34
f 49 42 32
f 49 22 45
f 49 45 29
f 49 29 42
f 50 32 1
f 50 1 43
f 51 43 1
f 51 1 22
f 51 50 43
f 52 49 32
f 52 22 49
f 52 51 22
f 52 32 50
f 52 50 51

