# https://github.com/mikedh/trimesh
v 0.01595376 0.03949757 0.02615750
v 0.01626406 -0.01973824 0.01645555
v 0.01601444 0.02121801 0.00101697
v 0.00095020 0.01951973 0.00095046
v 0.00035292 0.02782078 0.02547324
v 0.01599300 -0.01890923 0.00060540
v 0.00607255 0.03641219 0.01052223
v 0.01629858 0.02934453 0.02562939
v 0.00067625 -0.01946010 0.01704601
v 0.01575326 0.03488828 0.00917905
v 0.00760992 0.03038105 0.00451150
v 0.00109723 0.03902494 0.02610725
v 0.00093629 -0.01890871 0.00065945
v 0.01568395 0.03822640 0.01499241
v 0.00439105 0.02721511 0.00286172
v 0.01580284 0.02719181 0.00291095
v 0.01255538 0.03643127 0.01056866
v 0.00123840 0.03325738 0.00766777
v 0.00610176 0.03992712 0.02124829
v 0.00431079 0.02118513 0.00106625
v 0.01576003 0.03181107 0.00603167
v 0.01091612 0.03037584 0.00450110
v 0.01414781 0.03797996 0.01364340
v 0.00115424 0.02882427 0.00423748
v 0.00124643 0.03651224 0.01202556
v 0.00284524 0.03182958 0.00606238
v 0.00609466 0.03987469 0.02608079
v 0.01254809 0.03994089 0.02125248
v 0.00113821 0.02580995 0.00259603
v 0.00453196 0.03794181 0.01362682
v 0.00129461 0.03795090 0.01521525
v 0.00288388 0.03492030 0.00911857
v 0.01256783 0.03995035 0.02602838
f 6 3 2
f 6 4 3
f 8 2 3
f 9 8 5
f 9 2 8
f 10 8 3
f 10 1 8
f 12 8 1
f 12 5 8
f 13 9 5
f 13 5 4
f 13 4 6
f 13 6 2
f 13 2 9
f 14 1 10
f 16 3 15
f 20 15 3
f 20 3 4
f 21 10 3
f 21 3 16
f 21 17 10
f 22 16 15
f 22 15 11
f 22 21 16
f 22 17 21
f 22 11 7
f 22 7 17
f 23 14 10
f 23 10 17
f 23 17 7
f 24 4 5
f 24 5 18
f 24 11 15
f 25 18 5
f 25 5 12
f 26 24 18
f 26 11 24
f 27 19 12
f 27 12 1
f 28 1 14
f 28 23 19
f 28 14 23
f 29 20 4
f 29 15 20
f 29 24 15
f 29 4 24
f 30 23 7
f 30 19 23
f 30 7 25
f 31 25 12
f 31 12 19
f 31 30 25
f 31 19 30
f 32 25 7
f 32 18 25
f 32 26 18
f 32 7 11
f 32 11 26
f 33 27 1
f 33 1 28
f 33 28 19
f 33 19 27

