# https://github.com/mikedh/trimesh
v 0.03034305 -0.00743715 0.05039240
v 0.02905171 -0.03016036 0.03925237
v 0.02503376 -0.02488370 0.02581475
v 0.00078307 -0.02770186 0.02613490
v 0.00131399 -0.02613989 0.04949901
v 0.01577303 -0.03941961 0.02609678
v 0.03031786 -0.00749691 0.04063114
v 0.02357721 -0.02290646 0.04951184
v 0.02416666 -0.03688862 0.02615681
v 0.02368871 -0.02564001 0.02549710
v 0.00124209 -0.03905637 0.02771108
v 0.01247017 -0.03393935 0.04343173
v 0.00056186 -0.01620850 0.04589189
v 0.03033506 -0.01794315 0.03517778
v 0.02847825 -0.01811429 0.04976087
v 0.00054317 -0.02156382 0.05027146
v 0.00124582 -0.03919895 0.02605114
v 0.02218420 -0.03764379 0.02612118
v 0.00607370 -0.03903528 0.03244408
v 0.01246043 -0.02937984 0.04793096
v 0.02042286 -0.03075108 0.04473246
v 0.02559947 -0.00762178 0.04347322
v 0.02839515 -0.02435524 0.04622194
v 0.01728564 -0.02614080 0.04947804
v 0.00127120 -0.03420434 0.04192217
v 0.00043765 -0.01644210 0.04387013
v 0.01726006 -0.03722763 0.03557334
v 0.01409891 -0.03090990 0.04645478
v 0.02437921 -0.00805993 0.04582647
v 0.02527236 -0.02449858 0.04776009
v 0.02657548 -0.02896736 0.04314925
v 0.00610919 -0.02943491 0.04797363
v 0.00121767 -0.03736963 0.03564067
v 0.02046467 -0.03723654 0.03244529
v 0.01248494 -0.03897546 0.03241713
v 0.01880638 -0.03549116 0.03868507
v 0.01405537 -0.03257787 0.04478853
v 0.02043058 -0.02910561 0.04629441
v 0.02831604 -0.02905204 0.04161926
v 0.02359448 -0.02759065 0.04627074
v 0.00454605 -0.03098724 0.04648126
v 0.00452421 -0.03731070 0.03723504
v 0.01569954 -0.03911019 0.02930174
v 0.02205732 -0.03734628 0.02923427
v 0.01397797 -0.03724284 0.03718306
v 0.02499917 -0.03216883 0.04009938
v 0.02367737 -0.03562319 0.03403588
v 0.01558816 -0.03557425 0.04011155
v 0.02673469 -0.02742203 0.04469422
v 0.00610771 -0.03408402 0.04331804
v 0.00450587 -0.03254677 0.04492487
v 0.00291275 -0.03558025 0.04027727
v 0.02352058 -0.03069427 0.04322983
v 0.02353830 -0.03377829 0.03856338
f 7 3 4
f 10 4 3
f 10 3 9
f 14 7 1
f 14 1 2
f 14 3 7
f 14 9 3
f 14 2 9
f 16 1 13
f 16 15 1
f 17 10 6
f 17 4 10
f 17 16 4
f 17 11 16
f 18 10 9
f 18 6 10
f 19 17 6
f 19 11 17
f 22 1 7
f 23 2 1
f 23 1 15
f 24 16 5
f 24 8 15
f 24 15 16
f 25 5 16
f 26 16 13
f 26 4 16
f 26 13 22
f 26 22 7
f 26 7 4
f 28 24 20
f 29 22 13
f 29 13 1
f 29 1 22
f 30 23 15
f 30 15 8
f 32 24 5
f 32 20 24
f 32 28 20
f 33 25 16
f 33 16 11
f 33 11 19
f 35 19 6
f 37 21 28
f 38 28 21
f 38 24 28
f 39 2 23
f 40 23 30
f 40 30 8
f 40 8 24
f 40 24 38
f 40 38 21
f 41 32 5
f 41 5 25
f 41 28 32
f 42 33 19
f 43 6 18
f 43 35 6
f 43 34 27
f 43 27 35
f 44 18 9
f 44 43 18
f 44 34 43
f 45 35 27
f 45 42 19
f 45 19 35
f 46 39 31
f 46 2 39
f 47 36 27
f 47 27 34
f 47 34 44
f 47 44 9
f 47 9 2
f 48 36 21
f 48 21 37
f 48 37 12
f 48 12 45
f 48 45 27
f 48 27 36
f 49 39 23
f 49 31 39
f 49 23 40
f 50 45 12
f 50 42 45
f 51 12 37
f 51 37 28
f 51 28 41
f 51 50 12
f 51 41 25
f 51 25 50
f 52 25 33
f 52 33 42
f 52 50 25
f 52 42 50
f 53 46 31
f 53 21 36
f 53 31 49
f 53 49 40
f 53 40 21
f 54 36 47
f 54 53 36
f 54 46 53
f 54 47 2
f 54 2 46

