# https://github.com/mikedh/trimesh
v -0.01738094 -0.00710404 0.04924062
v -0.01008129 -0.03121122 0.03888849
v -0.01090678 -0.00722187 0.04130146
v -0.01225219 -0.00709854 0.00103917
v -0.02421225 -0.01966553 0.01675585
v -0.01072571 -0.00714322 0.00076481
v -0.02277117 -0.00619918 0.04763242
v -0.01086321 -0.01727956 0.04964092
v -0.01031580 -0.02006302 0.04860638
v -0.01006034 -0.02954913 0.00891629
v -0.02436684 -0.00678324 0.00873247
v -0.02418790 -0.01959312 0.03241136
v -0.01325276 -0.01822434 0.04788314
v -0.01041250 -0.01861002 0.00240135
v -0.01608387 -0.03080272 0.02134301
v -0.01009316 -0.02796807 0.00736666
v -0.01692972 -0.00698741 0.00245994
v -0.02584237 -0.00656052 0.04482594
v -0.01167609 -0.01986956 0.04798789
v -0.01071036 -0.00882604 0.00086967
v -0.01028152 -0.03465745 0.01960325
v -0.01764162 -0.02588419 0.01226623
v -0.02100437 -0.02600129 0.02290570
v -0.01023554 -0.02325485 0.00422631
v -0.01224544 -0.00877520 0.00116943
v -0.02422733 -0.02116884 0.02754950
v -0.01787893 -0.01799563 0.04469624
v -0.01045225 -0.02683314 0.04403006
v -0.01008931 -0.03271527 0.01348362
v -0.01143602 -0.03405210 0.02763260
v -0.01135572 -0.02749614 0.00773885
v -0.02083410 -0.01807252 0.00917426
v -0.01931160 -0.02754193 0.01975241
v -0.01667813 -0.01019363 0.00291211
v -0.01923542 -0.02581362 0.03393662
v -0.02410169 -0.02119816 0.01977780
v -0.01460831 -0.01963533 0.04629887
v -0.01024907 -0.02328049 0.04686575
v -0.01005497 -0.03282423 0.03573475
v -0.01447755 -0.02896720 0.01231107
v -0.01140996 -0.03405446 0.01970270
v -0.01156129 -0.02301253 0.00470016
v -0.01922415 -0.02266655 0.01070256
v -0.02417777 -0.01494884 0.01216340
v -0.02071863 -0.02432302 0.01529882
v -0.01335743 -0.01668827 0.00300307
v -0.02109622 -0.01014283 0.00603411
v -0.01935899 -0.02747459 0.02760728
v -0.02259258 -0.02272395 0.03093208
v -0.01597761 -0.02421536 0.04155051
v -0.02076522 -0.02101987 0.03854517
v -0.01160422 -0.02296132 0.04629830
v -0.01026467 -0.03470804 0.02774465
v -0.01606483 -0.02899767 0.03400787
v -0.01133123 -0.03213731 0.01373773
v -0.01139059 -0.02898829 0.00928941
v -0.01614884 -0.03082170 0.02592803
v -0.01320170 -0.02132909 0.00466117
v -0.01622740 -0.02278018 0.00765116
v -0.02262374 -0.01008048 0.00761740
v -0.01451581 -0.03055281 0.01528570
v -0.02244974 -0.02268348 0.01678118
v -0.01985702 -0.00697172 0.00428847
v -0.01653292 -0.01663980 0.00465197
f 7 1 3
f 7 6 4
f 7 3 6
f 8 3 1
f 8 1 7
f 9 6 3
f 9 3 8
f 13 8 7
f 16 9 10
f 17 11 7
f 17 7 4
f 18 11 5
f 18 7 11
f 19 9 8
f 19 8 13
f 20 4 6
f 20 6 14
f 24 14 6
f 24 6 9
f 24 9 16
f 25 17 4
f 25 20 14
f 25 4 20
f 26 18 5
f 26 12 18
f 27 7 18
f 31 16 10
f 33 15 23
f 34 17 25
f 36 26 5
f 36 23 26
f 36 33 23
f 37 13 7
f 37 7 27
f 37 19 13
f 38 28 2
f 38 9 19
f 38 10 9
f 38 2 10
f 39 29 10
f 39 10 2
f 42 24 16
f 42 16 31
f 44 5 11
f 44 43 5
f 44 32 43
f 45 43 22
f 45 5 43
f 46 34 25
f 46 25 14
f 48 26 23
f 49 12 26
f 49 48 35
f 49 26 48
f 50 37 27
f 50 2 28
f 51 18 12
f 51 49 35
f 51 12 49
f 51 35 50
f 51 50 27
f 51 27 18
f 52 28 38
f 52 50 28
f 52 37 50
f 52 38 19
f 52 19 37
f 53 39 30
f 53 21 29
f 53 29 39
f 53 41 21
f 53 30 41
f 54 30 39
f 54 35 48
f 54 39 2
f 54 50 35
f 54 2 50
f 55 10 29
f 55 29 21
f 55 21 41
f 56 31 10
f 56 55 40
f 56 10 55
f 57 41 30
f 57 15 41
f 57 54 48
f 57 30 54
f 57 48 23
f 57 23 15
f 58 14 24
f 58 24 42
f 58 46 14
f 59 22 43
f 59 31 56
f 59 56 40
f 59 40 22
f 59 43 32
f 59 58 42
f 59 42 31
f 60 44 11
f 60 32 44
f 60 47 32
f 60 11 47
f 61 33 45
f 61 40 55
f 61 15 33
f 61 55 41
f 61 41 15
f 61 45 22
f 61 22 40
f 62 36 5
f 62 5 45
f 62 45 33
f 62 33 36
f 63 47 11
f 63 11 17
f 63 17 34
f 63 34 47
f 64 47 34
f 64 34 46
f 64 46 58
f 64 32 47
f 64 59 32
f 64 58 59

