# https://github.com/mikedh/trimesh
v -0.01515288 0.01337184 0.02773595
v -0.01275525 -0.00766135 0.02135724
v -0.01099076 0.02149957 0.01437253
v -0.01052274 0.01765406 0.00237434
v -0.02999425 -0.00834774 0.02836337
v -0.01072571 -0.00714322 0.00076481
v -0.01259186 0.01373281 0.02336801
v -0.01663883 -0.00739937 0.02770344
v -0.02805072 0.01382877 0.02808778
v -0.01050450 0.02096863 0.00359081
v -0.02420150 0.00756773 0.00858620
v -0.02299084 0.02049825 0.01506204
v -0.02436684 -0.00678324 0.00873247
v -0.01818476 0.00435327 0.00279515
v -0.02472982 0.01735697 0.01505694
v -0.01776072 0.02024889 0.00773596
v -0.01985702 -0.00697172 0.00428847
v -0.01072135 0.00785358 0.00082765
v -0.01934650 0.02026245 0.00930499
v -0.02110148 0.01070594 0.00615041
v -0.01692972 -0.00698741 0.00245994
v -0.01225451 0.00783175 0.00111722
v -0.02243362 0.01700677 0.01074704
v -0.01967668 0.00921373 0.00459866
v -0.01799405 0.01719150 0.00618552
v -0.01812833 -0.00528728 0.00288758
v -0.01493337 0.01409164 0.00307790
v -0.01225219 -0.00709854 0.00103917
v -0.02417633 0.01714369 0.01366298
v -0.02247739 0.02025521 0.01377106
v -0.02267340 0.01064475 0.00760804
v -0.01322865 0.02047574 0.00468649
v -0.01190223 0.01744207 0.00277174
v -0.02411804 0.01243689 0.01057812
v -0.01477280 0.01880061 0.00475434
v -0.02411986 0.01548673 0.01226058
f 6 3 2
f 6 2 5
f 7 1 2
f 7 2 3
f 7 3 1
f 8 5 2
f 8 2 1
f 8 1 5
f 9 5 1
f 9 1 3
f 10 6 4
f 10 3 6
f 11 5 9
f 12 9 3
f 12 3 10
f 13 5 11
f 15 11 9
f 15 9 12
f 17 5 13
f 17 13 11
f 17 11 14
f 18 4 6
f 19 12 10
f 19 10 16
f 21 5 17
f 22 4 18
f 24 14 11
f 25 19 16
f 25 24 20
f 25 23 19
f 26 21 17
f 26 17 14
f 26 14 21
f 27 22 14
f 27 4 22
f 27 14 24
f 27 24 25
f 28 22 18
f 28 18 6
f 28 21 14
f 28 14 22
f 28 6 5
f 28 5 21
f 29 15 12
f 30 12 19
f 30 19 23
f 30 29 12
f 30 23 29
f 31 24 11
f 31 20 24
f 31 25 20
f 31 23 25
f 32 16 10
f 33 10 4
f 33 4 27
f 33 32 10
f 34 11 15
f 34 31 11
f 34 23 31
f 35 25 16
f 35 16 32
f 35 27 25
f 35 33 27
f 35 32 33
f 36 34 15
f 36 15 29
f 36 29 23
f 36 23 34

