# https://github.com/mikedh/trimesh
v 0.02842102 0.03482837 0.02598576
v 0.02997168 -0.01942069 0.02424471
v 0.02923447 0.01113075 0.00113926
v 0.01601444 0.02121801 0.00101697
v 0.01595376 0.03949757 0.02615750
v 0.01599300 -0.01890923 0.00060540
v 0.02837932 0.02978335 0.00926925
v 0.03061955 0.02069508 0.02576796
v 0.02896205 -0.01855515 0.00251397
v 0.01568395 0.03822640 0.01499241
v 0.01626406 -0.01973824 0.01645555
v 0.02385624 0.02386823 0.00298767
v 0.02850184 0.03323364 0.01503544
v 0.02885588 0.01914775 0.00275637
v 0.02535776 0.03648680 0.02604498
v 0.02921385 -0.01045324 0.00101547
v 0.01586430 0.02595183 0.00233423
v 0.01629858 0.02934453 0.02562939
v 0.02901456 -0.02007326 0.02371893
v 0.02356718 0.03454297 0.01233826
v 0.02859988 0.02369597 0.00467796
v 0.02093656 0.01950512 0.00112427
v 0.02042675 0.03795071 0.01831456
v 0.02523091 0.03630904 0.01969008
v 0.02265185 -0.01882787 0.00114951
v 0.01576153 0.03335335 0.00745603
v 0.02674230 0.03292421 0.01222610
v 0.02534356 0.02843772 0.00626968
v 0.02067810 0.02555043 0.00296738
v 0.01761620 0.02116453 0.00110559
v 0.02054644 0.03833137 0.02605979
v 0.01724264 0.03792901 0.01507683
v 0.02836147 0.03461346 0.01978720
v 0.02368991 0.03631299 0.01667104
v 0.02759408 -0.01392456 0.00119064
v 0.02202743 0.03309846 0.00927727
v 0.02378117 0.02700299 0.00466501
v 0.02840762 0.02824568 0.00770397
v 0.01586426 0.02898881 0.00398576
v 0.01575298 0.03681464 0.01192673
v 0.01881781 0.03625773 0.01225461
v 0.02513495 0.03448112 0.01355791
v 0.02208989 0.03001998 0.00624437
v 0.02063335 0.02857380 0.00468216
v 0.01728637 0.03319952 0.00764245
f 6 4 3
f 8 5 2
f 11 10 6
f 11 5 10
f 14 8 3
f 15 8 1
f 15 5 8
f 16 6 3
f 16 3 8
f 16 8 2
f 16 2 9
f 17 4 6
f 18 2 5
f 18 5 11
f 19 9 2
f 19 18 11
f 19 2 18
f 19 11 6
f 21 8 14
f 21 14 12
f 22 14 3
f 22 3 4
f 22 12 14
f 23 10 5
f 24 15 1
f 25 6 16
f 25 19 6
f 25 9 19
f 26 17 6
f 26 6 10
f 27 13 7
f 29 12 22
f 30 22 4
f 30 4 17
f 30 29 22
f 30 17 29
f 31 23 5
f 31 5 15
f 31 24 23
f 31 15 24
f 32 10 23
f 33 24 1
f 33 13 24
f 33 1 8
f 33 8 13
f 34 24 13
f 34 23 24
f 34 32 23
f 35 25 16
f 35 16 9
f 35 9 25
f 36 27 7
f 36 20 27
f 37 28 21
f 37 21 12
f 37 12 29
f 38 21 28
f 38 8 21
f 38 13 8
f 38 7 13
f 38 36 7
f 38 28 36
f 39 29 17
f 39 17 26
f 40 26 10
f 40 10 32
f 41 32 34
f 41 40 32
f 41 20 36
f 42 27 20
f 42 41 34
f 42 20 41
f 42 34 13
f 42 13 27
f 43 36 28
f 43 28 37
f 44 37 29
f 44 29 39
f 44 43 37
f 45 41 36
f 45 26 40
f 45 40 41
f 45 36 43
f 45 43 44
f 45 44 39
f 45 39 26

