# https://github.com/mikedh/trimesh
v 0.02503376 -0.02488370 0.02581475
v 0.02871136 -0.03291827 0.01499252
v 0.02896205 -0.01855515 0.00251397
v 0.00093629 -0.01890871 0.00065945
v 0.00124582 -0.03919895 0.02605114
v 0.01257943 -0.02810266 0.00284893
v 0.02674105 -0.01647866 0.01849718
v 0.02416666 -0.03688862 0.02615681
v 0.02363001 -0.03072918 0.00765224
v 0.01595618 -0.02211061 0.00108036
v 0.00133041 -0.03569175 0.01064841
v 0.00037806 -0.02720280 0.02543301
v 0.02215807 -0.02786937 0.00463099
v 0.02847976 -0.02604677 0.00619085
v 0.00101455 -0.02199810 0.00118570
v 0.02092706 -0.01885551 0.00092667
v 0.01248798 -0.03726531 0.01208482
v 0.00020948 -0.02032705 0.01770304
v 0.00123304 -0.03913573 0.01983790
v 0.01890479 -0.03101354 0.00604714
v 0.01901262 -0.02647378 0.00291476
v 0.02833277 -0.03068094 0.01075758
v 0.02539757 -0.02310130 0.00304088
v 0.02529512 -0.02615814 0.00469110
v 0.00605847 -0.02823222 0.00292900
v 0.02043837 -0.03550712 0.01215765
v 0.00119257 -0.02963149 0.00441792
v 0.00454340 -0.03902531 0.01665695
v 0.00132075 -0.03728937 0.01363793
v 0.01734630 -0.02954407 0.00447924
v 0.02097351 -0.02049080 0.00121943
v 0.02668136 -0.02908797 0.00774386
v 0.02873939 -0.01989099 0.00289214
v 0.00608492 -0.03729827 0.01205611
v 0.02207733 -0.03734221 0.01820843
v 0.02837711 -0.03249805 0.01366574
v 0.02197846 -0.03398252 0.01062580
v 0.00114043 -0.02663515 0.00269610
v 0.01736705 -0.03911409 0.02609443
v 0.01404304 -0.03897613 0.01659744
v 0.02374423 -0.03569810 0.01514486
v 0.01880491 -0.03398078 0.00914343
v 0.02218420 -0.03764379 0.02612118
v 0.01731764 -0.03723009 0.01365392
v 0.01730268 -0.03903112 0.01967292
v 0.01719582 -0.03553961 0.01066740
f 7 3 4
f 7 1 2
f 7 2 3
f 8 2 1
f 8 1 5
f 12 5 1
f 12 1 7
f 14 3 2
f 15 4 10
f 16 10 4
f 16 4 3
f 18 12 7
f 18 7 4
f 18 4 15
f 19 5 12
f 19 12 18
f 20 13 9
f 21 6 10
f 22 14 2
f 23 13 21
f 24 9 13
f 24 13 23
f 25 15 10
f 25 10 6
f 29 19 18
f 29 28 19
f 29 27 11
f 29 18 27
f 30 20 17
f 30 17 6
f 30 6 21
f 30 21 13
f 30 13 20
f 31 21 10
f 31 10 16
f 31 23 21
f 31 16 3
f 31 3 23
f 32 22 9
f 32 14 22
f 32 24 14
f 32 9 24
f 33 23 3
f 33 3 14
f 33 24 23
f 33 14 24
f 34 25 6
f 34 6 17
f 34 27 25
f 34 11 27
f 34 29 11
f 34 28 29
f 35 2 8
f 36 22 2
f 37 9 22
f 37 22 36
f 38 15 25
f 38 25 27
f 38 27 18
f 38 18 15
f 39 5 19
f 39 8 5
f 40 34 17
f 40 28 34
f 40 19 28
f 41 2 35
f 41 36 2
f 41 37 36
f 41 26 37
f 42 20 9
f 42 9 37
f 42 17 20
f 43 35 8
f 43 8 39
f 44 40 17
f 44 35 40
f 44 41 35
f 44 26 41
f 45 40 35
f 45 39 19
f 45 19 40
f 45 43 39
f 45 35 43
f 46 42 37
f 46 37 26
f 46 26 44
f 46 44 17
f 46 17 42

