# https://github.com/mikedh/trimesh
v -0.02742208 0.00498687 0.04526592
v -0.02521845 -0.01683471 0.03434650
v -0.02529202 0.01598576 0.03603896
v -0.02522447 0.00601377 0.00993512
v -0.03286708 -0.00211058 0.04540559
v -0.02511132 -0.00694162 0.00996568
v -0.02584237 -0.00656052 0.04482594
v -0.03074727 0.00373645 0.04591903
v -0.02927777 0.01069785 0.02304399
v -0.02527302 0.01098527 0.04087073
v -0.02525945 0.01600571 0.01483200
v -0.03062581 -0.00582923 0.01541617
v -0.03077186 -0.00479307 0.04591329
v -0.03290614 0.00110323 0.04544612
v -0.02583968 0.00551931 0.04475982
v -0.02555209 0.01778512 0.01795589
v -0.02546294 -0.01870131 0.01955488
v -0.03023747 0.00228182 0.01292158
v -0.02545060 -0.01864710 0.02944944
v -0.02742491 -0.00596331 0.04528764
v -0.02538116 0.01764793 0.03277531
v -0.02530993 -0.01541127 0.01483687
v -0.02738190 -0.01480394 0.02009825
v -0.02826812 0.00092566 0.01127029
v -0.03022087 -0.00294054 0.01300974
v -0.03019971 0.00436655 0.01434610
v -0.02927373 0.01065530 0.02771588
v -0.02537940 -0.01706406 0.01637287
v -0.02583464 -0.01802848 0.01974889
v -0.02756776 -0.01473440 0.02921552
v -0.02818134 -0.00182481 0.01131588
v -0.02582531 0.01548858 0.01548205
v -0.02740531 0.01387282 0.01829534
v -0.02582000 0.01701841 0.03242447
v -0.02599133 0.01715099 0.01834015
v -0.02590113 -0.01793608 0.02921865
f 10 6 3
f 10 2 6
f 10 7 2
f 10 8 1
f 10 3 8
f 11 6 4
f 11 3 6
f 14 13 8
f 14 5 13
f 14 12 5
f 15 10 1
f 15 1 7
f 15 7 10
f 18 11 4
f 18 12 14
f 19 13 5
f 19 2 13
f 19 17 2
f 20 13 2
f 20 2 7
f 20 7 1
f 20 1 8
f 20 8 13
f 21 14 8
f 21 8 3
f 21 3 11
f 21 11 16
f 22 6 2
f 23 5 12
f 24 18 4
f 24 4 6
f 25 12 18
f 25 22 12
f 25 6 22
f 25 18 24
f 26 11 18
f 26 18 14
f 26 14 9
f 27 9 14
f 28 17 12
f 28 12 22
f 28 22 2
f 28 2 17
f 29 23 12
f 29 12 17
f 30 5 23
f 30 23 29
f 31 25 24
f 31 24 6
f 31 6 25
f 32 16 11
f 32 11 26
f 33 26 9
f 33 32 26
f 34 27 14
f 34 14 21
f 35 9 27
f 35 33 9
f 35 16 32
f 35 32 33
f 35 27 34
f 35 34 21
f 35 21 16
f 36 29 17
f 36 17 19
f 36 30 29
f 36 19 5
f 36 5 30

