# https://github.com/mikedh/trimesh
v 0.02958999 0.01980822 0.04818935
v 0.05465775 -0.00316715 0.04370574
v 0.03319212 0.03142781 0.01972706
v 0.02907255 0.01767607 0.00238220
v 0.02889185 -0.01516999 0.03883150
v 0.04609755 0.00914860 0.01363999
v 0.02875220 0.03365225 0.01657482
v 0.05358424 0.00444024 0.04406019
v 0.04690560 -0.00438437 0.04608486
v 0.02929772 -0.01546964 0.00178967
v 0.02869187 0.03189871 0.03730528
v 0.03948908 0.02019081 0.01070043
v 0.05468867 0.00085866 0.03912189
v 0.04187894 -0.01509929 0.03907271
v 0.04527184 -0.00316574 0.04630108
v 0.05111790 0.00381887 0.04620090
v 0.03688684 0.00440603 0.00291614
v 0.02877690 0.02552355 0.00584004
v 0.02870545 0.03355682 0.03262692
v 0.02995745 0.02511319 0.04490127
v 0.02878718 0.02564622 0.04529748
v 0.03463021 0.02813658 0.01369415
v 0.04279789 0.02022941 0.01823253
v 0.05461656 0.00344543 0.04396537
v 0.04462343 -0.01499560 0.01497571
v 0.05085020 -0.00409377 0.04635140
v 0.02937723 0.00787591 0.00086489
v 0.04301200 0.01075234 0.00917725
v 0.02888115 0.02237932 0.00410785
v 0.02866276 0.02871652 0.04216410
v 0.05376772 0.00361119 0.04509307
v 0.02901663 0.02260918 0.04712424
v 0.03157582 0.03129604 0.01511148
v 0.03011063 0.02512514 0.00626831
v 0.04440215 0.01542984 0.01516537
v 0.03936173 0.02508903 0.01822453
v 0.05489251 -0.00297067 0.04029585
v 0.03785933 0.02658549 0.02918247
v 0.03985112 -0.01014142 0.00600703
v 0.04439009 -0.01475409 0.03393898
v 0.05326990 -0.00418756 0.04484133
v 0.03089888 -0.00712204 0.00107647
v 0.02934849 -0.00715348 0.00081682
v 0.03542374 0.00928084 0.00282628
v 0.02874935 0.03039827 0.01027071
v 0.02987003 0.02814272 0.04172286
v 0.02992142 0.03299610 0.01677290
v 0.03478974 0.02978987 0.01826036
v 0.03160542 0.02974343 0.01212460
v 0.03024906 0.02217385 0.00464485
v 0.04278952 0.01867277 0.01516193
v 0.04436253 0.01232322 0.01209292
v 0.04614465 0.01231883 0.01664522
v 0.03964073 0.02498513 0.02609262
v 0.03777215 0.02494338 0.01375932
v 0.04621477 -0.01321495 0.01816279
v 0.04775125 -0.00532395 0.01670399
v 0.03316828 0.03134496 0.02763922
v 0.03784335 0.02501872 0.03402232
v 0.03817481 -0.01481509 0.00622536
v 0.04307857 -0.00197326 0.00757530
v 0.05099007 -0.00523466 0.04520704
v 0.03088689 0.00779602 0.00112927
v 0.03528637 -0.01024471 0.00296748
f 14 5 10
f 15 1 5
f 15 5 9
f 18 10 5
f 19 3 7
f 25 14 10
f 26 9 5
f 26 5 14
f 26 15 9
f 26 16 1
f 26 1 15
f 29 10 18
f 30 18 5
f 30 11 19
f 30 5 21
f 30 21 20
f 31 24 8
f 31 16 26
f 31 2 24
f 31 20 21
f 32 21 5
f 32 5 1
f 32 31 21
f 32 1 16
f 32 16 31
f 37 24 2
f 37 13 24
f 40 14 25
f 41 31 26
f 41 2 31
f 41 40 2
f 41 14 40
f 43 4 27
f 43 29 4
f 43 10 29
f 43 42 10
f 43 27 42
f 44 28 17
f 44 12 28
f 45 30 19
f 45 19 7
f 45 18 30
f 45 34 18
f 46 30 20
f 46 20 31
f 46 11 30
f 46 31 8
f 46 8 11
f 47 33 7
f 47 7 3
f 47 3 33
f 48 33 3
f 48 22 33
f 49 22 12
f 49 12 34
f 49 34 45
f 49 33 22
f 49 45 7
f 49 7 33
f 50 29 18
f 50 18 34
f 50 34 12
f 50 12 44
f 50 44 4
f 50 4 29
f 51 23 35
f 51 36 23
f 52 28 12
f 52 51 35
f 52 12 51
f 52 6 28
f 53 13 6
f 53 52 35
f 53 6 52
f 53 24 13
f 53 35 23
f 53 23 24
f 54 24 23
f 54 23 36
f 54 38 24
f 54 48 3
f 54 36 48
f 55 12 22
f 55 48 36
f 55 22 48
f 55 51 12
f 55 36 51
f 56 37 2
f 56 40 25
f 56 2 40
f 57 6 13
f 57 13 37
f 57 37 56
f 57 56 25
f 58 3 19
f 58 54 3
f 58 38 54
f 59 11 8
f 59 8 24
f 59 24 38
f 59 38 58
f 59 58 19
f 59 19 11
f 60 39 25
f 60 25 10
f 61 39 17
f 61 17 28
f 61 28 6
f 61 6 57
f 61 57 25
f 61 25 39
f 62 41 26
f 62 26 14
f 62 14 41
f 63 42 27
f 63 17 42
f 63 44 17
f 63 27 4
f 63 4 44
f 64 10 42
f 64 60 10
f 64 39 60
f 64 42 17
f 64 17 39

