# https://github.com/mikedh/trimesh
v -0.01301698 0.02315069 0.03850167
v -0.01393429 0.02036010 0.03817581
v -0.01372739 0.02005606 0.02020611
v -0.01696358 0.02201403 0.02011665
v -0.02595298 0.00793326 0.03721637
v -0.01325198 0.02445943 0.02014859
v -0.01390198 0.01938927 0.03540894
v -0.02424550 0.00583094 0.03835176
v -0.02171326 0.01610014 0.03719814
v -0.02670693 0.00814751 0.02014173
v -0.01295022 0.02384355 0.03636279
v -0.02380468 0.00592480 0.03767092
v -0.02261283 0.01441033 0.03827038
v -0.02719732 0.00556957 0.02612675
v -0.01452038 0.02370694 0.02012138
v -0.02258762 0.01618639 0.02011472
v -0.01766640 0.02013835 0.03826404
v -0.01399234 0.01949387 0.03622472
v -0.02305088 0.00572755 0.02617526
v -0.02624241 0.00547422 0.03833945
v -0.02512224 0.01116553 0.02859393
v -0.02701563 0.00627654 0.02611699
v -0.02272257 0.00851216 0.02021773
v -0.01439775 0.02352229 0.02611085
v -0.02094742 0.01773158 0.02860198
v -0.02619201 0.00959854 0.02012597
v -0.01444200 0.02276631 0.03790953
v -0.02009488 0.01777833 0.03828078
v -0.02288947 0.00586856 0.02960102
v -0.02508287 0.00950682 0.03830953
v -0.02703297 0.00553254 0.02861589
v -0.02287073 0.00587901 0.03129427
v -0.02343266 0.01362525 0.03554625
v -0.02687635 0.00628943 0.02862134
v -0.02596157 0.00948949 0.02696209
v -0.01358022 0.02349881 0.03636797
v -0.01683290 0.02183873 0.02612387
v -0.02173335 0.01693237 0.02695057
v -0.02344010 0.01443939 0.02695703
v -0.01527600 0.02200028 0.03825221
v -0.01374141 0.02296914 0.03827916
v -0.02010304 0.01853671 0.02940113
v -0.02605435 0.00628667 0.03832681
v -0.02427565 0.01195957 0.03722185
v -0.01595123 0.02183826 0.03637510
v -0.02425359 0.01286575 0.02859934
v -0.02256462 0.01617198 0.02097139
v -0.01680834 0.02095727 0.03791407
v -0.01755223 0.02103619 0.02853366
f 7 1 2
f 7 3 1
f 8 2 1
f 11 1 3
f 11 3 6
f 12 2 8
f 15 6 3
f 18 12 7
f 18 7 2
f 18 2 12
f 19 14 10
f 20 8 1
f 22 10 14
f 23 15 3
f 23 19 10
f 23 3 19
f 24 6 15
f 25 4 16
f 26 23 10
f 26 15 23
f 26 16 4
f 26 4 15
f 28 13 1
f 28 1 17
f 28 9 13
f 28 25 9
f 29 19 3
f 29 3 7
f 30 20 1
f 30 1 13
f 31 20 5
f 31 5 14
f 31 14 19
f 31 19 20
f 32 20 19
f 32 8 20
f 32 19 29
f 32 12 8
f 32 29 7
f 32 7 12
f 34 22 14
f 34 14 5
f 34 5 22
f 35 22 5
f 35 10 22
f 35 26 10
f 35 21 26
f 36 11 6
f 36 6 24
f 36 27 11
f 37 24 15
f 37 15 4
f 37 36 24
f 38 25 16
f 38 9 25
f 39 16 26
f 39 33 9
f 39 9 38
f 40 17 1
f 41 1 11
f 41 11 27
f 41 40 1
f 41 27 40
f 42 28 17
f 42 25 28
f 42 4 25
f 43 30 5
f 43 5 20
f 43 20 30
f 44 13 9
f 44 9 33
f 44 30 13
f 44 5 30
f 44 35 5
f 44 21 35
f 45 27 36
f 45 36 37
f 46 39 26
f 46 26 21
f 46 21 44
f 46 44 33
f 46 33 39
f 47 39 38
f 47 38 16
f 47 16 39
f 48 40 27
f 48 17 40
f 48 27 45
f 49 42 17
f 49 37 4
f 49 4 42
f 49 17 48
f 49 48 45
f 49 45 37

