# https://github.com/mikedh/trimesh
v 0.01930261 0.01850491 0.03818719
v 0.02548922 0.00799495 0.03841243
v 0.02341236 0.01530830 0.00406579
v 0.00802359 0.02502225 0.00131561
v 0.00833912 0.02335654 0.03835219
v 0.02265950 0.00821833 0.00092937
v 0.01354582 0.02440798 0.00407354
v 0.02341729 0.01361695 0.03554246
v 0.01274212 0.02346809 0.03833154
v 0.02764842 0.00561021 0.01071236
v 0.02126406 0.01553928 0.00150934
v 0.00813267 0.02192013 0.00071105
v 0.02380965 0.00571490 0.01588487
v 0.01928896 0.02023016 0.01241264
v 0.02256317 0.01444576 0.03827062
v 0.00786257 0.02544506 0.03835429
v 0.02641905 0.00806219 0.00257715
v 0.02595850 0.00955503 0.02696214
v 0.01773246 0.02103940 0.00275443
v 0.01293580 0.02313640 0.00144754
v 0.02212010 0.00864654 0.03455542
v 0.02415850 0.00578210 0.01075450
v 0.00860443 0.02221879 0.03538333
v 0.02750905 0.00558057 0.01585479
v 0.02260727 0.01611598 0.02182783
v 0.01771187 0.02096063 0.02855473
v 0.02421962 0.01195720 0.03788129
v 0.02430043 0.01127109 0.03833440
v 0.00791174 0.02633876 0.00252191
v 0.00950370 0.02606676 0.02182094
v 0.02573810 0.00810249 0.00186402
v 0.02683405 0.00870420 0.00482312
v 0.02357828 0.01362325 0.00211831
v 0.02012194 0.01939181 0.00400530
v 0.01543634 0.02136370 0.00150326
v 0.01430468 0.02353922 0.00273354
v 0.02340828 0.00847342 0.03837277
v 0.02616121 0.00802754 0.03041502
v 0.02694022 0.00802503 0.01584191
v 0.02427829 0.01361101 0.02010680
v 0.02179792 0.01600299 0.03720741
v 0.01685379 0.02095782 0.03785135
v 0.02012450 0.01938765 0.01583869
v 0.01602791 0.02269377 0.01755679
v 0.02523413 0.00959629 0.03788880
v 0.01034141 0.02527561 0.00211878
v 0.00938892 0.02512220 0.03791893
v 0.00787943 0.02631974 0.02780189
v 0.01032221 0.02605310 0.00483072
v 0.02423835 0.00817758 0.00122658
v 0.02508407 0.01194903 0.00281188
v 0.02704801 0.00803451 0.00481094
v 0.02110913 0.01701947 0.00217354
v 0.02398958 0.01062797 0.00143860
v 0.01603892 0.02271235 0.00406821
v 0.01695547 0.02111539 0.00212752
v 0.02288056 0.00863961 0.03770790
v 0.02344380 0.01530798 0.01240655
v 0.02595864 0.01038570 0.01839864
v 0.02343962 0.01445633 0.02695920
v 0.02510800 0.01196236 0.02183087
v 0.02095355 0.01686852 0.03788389
v 0.01525606 0.02189313 0.03823784
v 0.02093542 0.01860307 0.00477476
f 12 11 6
f 15 1 9
f 16 5 2
f 16 2 9
f 16 12 5
f 20 12 4
f 22 13 12
f 22 12 6
f 22 6 10
f 22 10 13
f 23 5 12
f 23 12 13
f 23 13 21
f 24 13 10
f 24 2 13
f 28 15 9
f 28 9 2
f 28 27 15
f 29 4 12
f 29 12 16
f 31 17 10
f 35 11 12
f 35 12 20
f 37 13 2
f 37 2 5
f 38 2 24
f 39 24 10
f 39 38 24
f 39 18 38
f 41 27 8
f 41 15 27
f 42 1 26
f 43 14 26
f 43 41 25
f 44 26 14
f 44 7 30
f 44 30 9
f 44 42 26
f 44 9 42
f 45 18 27
f 45 38 18
f 45 2 38
f 45 28 2
f 45 27 28
f 46 20 4
f 46 4 29
f 46 36 20
f 46 7 36
f 47 16 9
f 47 9 30
f 48 29 16
f 48 47 30
f 48 16 47
f 49 30 7
f 49 48 30
f 49 29 48
f 49 46 29
f 49 7 46
f 50 31 10
f 50 10 6
f 51 32 17
f 51 3 32
f 51 33 3
f 51 17 31
f 51 31 33
f 52 10 17
f 52 17 32
f 52 39 10
f 52 32 39
f 53 33 11
f 53 19 34
f 53 34 3
f 53 3 33
f 54 33 31
f 54 11 33
f 54 31 50
f 54 50 6
f 54 6 11
f 55 34 19
f 55 14 34
f 55 44 14
f 55 7 44
f 55 36 7
f 55 19 36
f 56 35 20
f 56 20 36
f 56 36 19
f 56 19 53
f 56 53 11
f 56 11 35
f 57 21 13
f 57 13 37
f 57 23 21
f 57 37 5
f 57 5 23
f 58 25 40
f 58 43 25
f 58 32 3
f 59 39 32
f 59 58 40
f 59 32 58
f 59 18 39
f 60 40 25
f 60 8 27
f 60 41 8
f 60 25 41
f 61 27 18
f 61 59 40
f 61 18 59
f 61 60 27
f 61 40 60
f 62 1 15
f 62 15 41
f 62 26 1
f 62 43 26
f 62 41 43
f 63 42 9
f 63 9 1
f 63 1 42
f 64 34 14
f 64 14 43
f 64 43 58
f 64 58 3
f 64 3 34

