# https://github.com/mikedh/trimesh
v 0.01346635 -0.02119861 0.03847038
v 0.01361075 -0.02050684 0.03783345
v -0.00487245 -0.02441838 0.03830459
v -0.00479565 -0.02475543 0.00553639
v 0.01281631 -0.02507302 0.00643690
v -0.00488635 -0.02346703 0.02365103
v 0.01370128 -0.02068096 0.01334747
v 0.00371474 -0.02679244 0.03790796
v -0.00490397 -0.02360224 0.03623198
v -0.00486384 -0.02437041 0.01250080
v 0.01356588 -0.02132018 0.00642823
v 0.01373583 -0.01981832 0.02192865
v 0.01286501 -0.02359987 0.03835412
v -0.00456650 -0.02776684 0.00559293
v 0.01368583 -0.01973537 0.03631575
v 0.00747253 -0.02408610 0.00554010
v 0.00944066 -0.02587737 0.02860811
v -0.00464413 -0.02637995 0.03840978
v 0.00713794 -0.02721686 0.00558894
v 0.00785535 -0.02590013 0.03785765
v 0.01196618 -0.02502192 0.02182695
v 0.00202330 -0.02682266 0.03831386
v 0.00664250 -0.02431618 0.00550823
v 0.00870435 -0.02676104 0.01069820
v 0.00203547 -0.02769312 0.02354724
v 0.01027204 -0.02503987 0.03783298
v 0.01275777 -0.02504080 0.01155222
v 0.00705153 -0.02595169 0.03828463
v 0.00535120 -0.02768750 0.00559299
v 0.00871058 -0.02680953 0.00645436
v 0.00702480 -0.02675804 0.02612339
v -0.00369298 -0.02678556 0.03788374
v 0.01267566 -0.02415488 0.03034395
v 0.01023901 -0.02587718 0.02096465
v 0.01192411 -0.02410945 0.03830779
v -0.00040964 -0.02775136 0.02355096
v 0.00538400 -0.02767385 0.00984768
v 0.00787220 -0.02673739 0.02011628
v 0.00375034 -0.02767328 0.01840742
v -0.00124880 -0.02679882 0.03835253
v -0.00453638 -0.02679434 0.03643344
v 0.00288713 -0.02766224 0.02182739
v -0.00455718 -0.02764859 0.01498137
v -0.00212108 -0.02773976 0.02269297
v -0.00292224 -0.02772048 0.02183741
v -0.00370065 -0.02764893 0.02012125
f 1 2 3
f 7 2 1
f 7 1 5
f 10 6 4
f 10 9 6
f 10 3 9
f 11 7 5
f 12 4 6
f 12 11 4
f 12 7 11
f 13 5 1
f 14 10 4
f 14 3 10
f 15 9 3
f 15 3 2
f 15 2 7
f 15 7 12
f 15 12 6
f 15 6 9
f 16 4 11
f 18 1 3
f 19 16 11
f 19 11 5
f 22 13 1
f 23 14 4
f 23 4 16
f 23 16 19
f 25 8 22
f 26 20 17
f 26 21 13
f 27 5 13
f 28 13 22
f 28 20 26
f 28 22 8
f 28 8 20
f 29 23 19
f 29 14 23
f 30 19 5
f 30 27 24
f 30 5 27
f 30 29 19
f 31 17 20
f 31 20 8
f 33 27 13
f 33 13 21
f 33 21 27
f 34 27 21
f 34 24 27
f 34 26 17
f 34 21 26
f 35 28 26
f 35 26 13
f 35 13 28
f 36 14 29
f 36 25 22
f 37 30 24
f 37 29 30
f 37 36 29
f 37 25 36
f 38 17 31
f 38 34 17
f 38 24 34
f 38 37 24
f 38 31 37
f 39 31 8
f 39 37 31
f 39 25 37
f 40 18 32
f 40 22 1
f 40 1 18
f 40 36 22
f 40 32 36
f 41 32 18
f 42 39 8
f 42 8 25
f 42 25 39
f 43 41 18
f 43 18 3
f 43 3 14
f 44 36 32
f 44 14 36
f 45 43 14
f 45 14 44
f 45 44 32
f 45 32 41
f 46 45 41
f 46 41 43
f 46 43 45

