# https://github.com/mikedh/trimesh
v 0.01356588 -0.02132018 0.00642823
v 0.01281631 -0.02507302 0.00643690
v 0.01325186 -0.01317481 0.00027828
v -0.01756093 -0.01319358 0.00063850
v -0.01794674 -0.01785115 0.00549007
v -0.00375363 -0.02634919 0.00143908
v 0.01305011 -0.02308208 0.00144123
v 0.00746220 -0.02409201 0.00644026
v 0.01336459 -0.01327815 0.00233225
v -0.00640673 -0.02082847 0.00051614
v -0.01737197 -0.01901231 0.00123851
v 0.01279252 -0.02502651 0.00476789
v 0.01322107 -0.01740703 0.00053504
v 0.00871058 -0.02680953 0.00645436
v -0.01709745 -0.01873297 0.00560520
v -0.01578654 -0.01316008 0.00048227
v -0.01776519 -0.01333893 0.00310496
v -0.01135365 -0.02389204 0.00145272
v 0.00384954 -0.02083263 0.00050198
v 0.01292777 -0.02172223 0.00643917
v 0.00542416 -0.02684771 0.00202912
v 0.00714376 -0.02723426 0.00643356
v -0.01139722 -0.02568498 0.00560161
v -0.01065880 -0.01910146 0.00053783
v -0.00712471 -0.02554190 0.00144754
v 0.00812099 -0.01997405 0.00050403
v 0.00379453 -0.02634804 0.00142202
v 0.01193406 -0.02499651 0.00266866
v 0.00780260 -0.02677739 0.00323907
v -0.00368707 -0.02765818 0.00329609
v -0.01118952 -0.02519346 0.00262128
v -0.01577302 -0.01400485 0.00052418
v -0.00894458 -0.01996045 0.00052444
v 0.01067019 -0.01911626 0.00051813
v -0.00206035 -0.02764903 0.00262364
v 0.00793220 -0.02546575 0.00145998
v 0.01273687 -0.02427661 0.00218208
v 0.00540191 -0.02765711 0.00476894
v 0.00867275 -0.02595197 0.00204049
v 0.01031218 -0.02588973 0.00328857
v -0.00456650 -0.02776684 0.00559293
v -0.01032938 -0.02515300 0.00202182
v -0.00867251 -0.02673587 0.00476831
v -0.00964733 -0.02464922 0.00144920
v 0.01235946 -0.01825157 0.00055159
v 0.00286255 -0.02759204 0.00266354
v -0.00538248 -0.02683179 0.00212707
v 0.01042433 -0.02452842 0.00148317
v 0.00869540 -0.02674971 0.00481656
v 0.00699705 -0.02681268 0.00259955
v 0.01111495 -0.02507562 0.00217095
v -0.00867037 -0.02675826 0.00559269
v 0.00535120 -0.02768750 0.00559299
v -0.01025601 -0.02588971 0.00333307
v -0.00452831 -0.02765451 0.00402028
v -0.00864521 -0.02595668 0.00216207
v 0.01209204 -0.02370967 0.00147452
v 0.00457284 -0.02757276 0.00327300
v -0.01037702 -0.02616009 0.00560858
v -0.00701461 -0.02674203 0.00257652
v -0.00780918 -0.02671822 0.00328391
f 9 5 1
f 9 1 3
f 11 5 4
f 12 7 1
f 12 1 2
f 13 3 1
f 13 1 7
f 14 12 2
f 15 1 5
f 16 9 3
f 16 3 10
f 17 4 5
f 17 5 9
f 17 16 4
f 17 9 16
f 19 10 3
f 20 14 2
f 20 2 1
f 20 8 14
f 20 15 8
f 20 1 15
f 22 14 8
f 22 8 15
f 23 15 5
f 23 5 11
f 23 22 15
f 24 18 11
f 25 10 6
f 26 19 3
f 27 6 10
f 27 10 19
f 27 19 26
f 31 23 11
f 31 11 18
f 32 24 11
f 32 11 4
f 32 4 16
f 32 16 24
f 33 24 16
f 33 16 10
f 33 18 24
f 34 26 3
f 34 3 13
f 35 6 27
f 36 21 27
f 36 27 26
f 36 26 34
f 37 7 12
f 37 12 28
f 38 14 22
f 39 21 36
f 40 28 12
f 40 39 28
f 41 30 35
f 42 31 18
f 44 18 33
f 44 42 18
f 44 33 10
f 44 10 25
f 45 34 13
f 45 13 7
f 45 7 34
f 46 35 27
f 46 27 21
f 46 38 35
f 47 25 6
f 47 6 35
f 48 36 34
f 48 39 36
f 49 38 29
f 49 14 38
f 49 29 40
f 49 40 12
f 49 12 14
f 50 21 39
f 50 40 29
f 50 39 40
f 51 37 28
f 51 28 39
f 51 39 48
f 52 41 22
f 52 43 41
f 53 38 22
f 53 22 41
f 53 41 35
f 53 35 38
f 54 23 31
f 55 30 41
f 55 41 43
f 56 44 25
f 56 42 44
f 56 25 47
f 56 54 31
f 56 31 42
f 57 7 37
f 57 51 48
f 57 37 51
f 57 48 34
f 57 34 7
f 58 46 21
f 58 21 50
f 58 38 46
f 58 50 29
f 58 29 38
f 59 52 22
f 59 22 23
f 59 43 52
f 59 54 43
f 59 23 54
f 60 30 55
f 60 47 35
f 60 35 30
f 60 56 47
f 60 54 56
f 61 60 55
f 61 55 43
f 61 43 54
f 61 54 60

