# https://github.com/mikedh/trimesh
v 0.02548922 0.00799495 0.03841243
v 0.02689375 -0.00360234 0.03726286
v 0.02788097 0.00469121 0.00643852
v 0.02367491 0.00826426 0.00643394
v 0.02360493 -0.00570032 0.03701034
v 0.02712491 0.00799687 0.00644306
v 0.02687903 0.00301365 0.03790685
v 0.02428111 -0.00561375 0.03836493
v 0.02267941 0.00854120 0.03709243
v 0.02452775 -0.00550279 0.00643479
v 0.02783536 -0.00031954 0.02269277
v 0.02683656 0.00709746 0.02524873
v 0.02627727 -0.00533021 0.03832419
v 0.02351385 0.00851348 0.00820433
v 0.02340828 0.00847342 0.03837277
v 0.02771300 -0.00546216 0.00643234
v 0.02694005 -0.00279281 0.03781905
v 0.02776805 0.00212441 0.02269423
v 0.02598764 0.00795054 0.03640087
v 0.02778743 0.00464735 0.01326753
v 0.02605278 0.00629205 0.03830046
v 0.02354928 -0.00566826 0.02023222
v 0.02786587 -0.00448904 0.00644086
v 0.02688221 -0.00532567 0.03039017
v 0.02780912 -0.00281617 0.02097809
v 0.02686696 0.00623962 0.02858174
v 0.02686010 0.00795577 0.01925607
v 0.02605582 0.00713729 0.03791524
v 0.02265851 0.00850343 0.01937063
v 0.02442225 -0.00565254 0.00820011
v 0.02775943 -0.00448543 0.01413069
v 0.02773901 -0.00360897 0.01926089
f 6 3 4
f 9 5 8
f 13 1 8
f 14 6 4
f 14 4 10
f 15 14 9
f 15 6 14
f 15 9 8
f 15 8 1
f 16 10 4
f 16 4 3
f 16 13 8
f 16 8 5
f 17 11 7
f 17 13 2
f 17 7 13
f 18 11 3
f 18 7 11
f 19 15 1
f 20 3 6
f 20 18 3
f 21 13 7
f 21 1 13
f 22 5 9
f 23 16 3
f 23 3 11
f 24 2 13
f 24 13 16
f 25 17 2
f 25 11 17
f 25 23 11
f 26 7 18
f 26 12 19
f 26 20 12
f 26 18 20
f 27 19 12
f 27 6 15
f 27 15 19
f 27 20 6
f 27 12 20
f 28 19 1
f 28 1 21
f 28 21 7
f 28 26 19
f 28 7 26
f 29 14 10
f 29 10 22
f 29 22 9
f 29 9 14
f 30 16 5
f 30 5 22
f 30 22 10
f 30 10 16
f 31 24 16
f 31 16 23
f 31 23 25
f 32 31 25
f 32 24 31
f 32 25 2
f 32 2 24

