# https://github.com/mikedh/trimesh
v 0.01500831 0.00909254 0.00213342
v 0.01500867 -0.00891719 0.00212988
v 0.01495779 0.00908376 0.00024432
v -0.02012800 0.00822827 0.00064394
v -0.02015895 -0.01320862 0.00384345
v 0.00814057 -0.01319197 0.00010095
v -0.01330508 0.00909939 0.00190723
v 0.01495595 -0.00890867 0.00024326
v -0.01327411 0.00908544 0.00010859
v -0.02009531 -0.01316943 0.00089169
v 0.00815237 -0.01321504 0.00199144
v -0.02016300 0.00823858 0.00296352
v -0.01697349 -0.01337553 0.00290889
v -0.02039950 -0.00815493 0.00306162
v -0.01578654 -0.01316008 0.00048227
v -0.01922377 -0.00461716 0.00049582
v -0.01749980 -0.01059630 0.00051054
v -0.01920683 0.00650735 0.00050229
v -0.01664138 -0.01230103 0.00051377
v -0.01836143 -0.00803401 0.00050317
v -0.01834844 0.00821097 0.00046368
f 1 2 3
f 5 2 1
f 7 1 3
f 8 6 3
f 8 3 2
f 8 2 6
f 9 3 6
f 9 7 3
f 9 4 7
f 11 6 2
f 11 2 5
f 12 5 1
f 12 1 7
f 12 7 4
f 13 5 10
f 13 11 5
f 13 6 11
f 14 10 5
f 14 4 10
f 14 12 4
f 14 5 12
f 15 9 6
f 15 13 10
f 15 6 13
f 16 10 4
f 18 16 4
f 18 9 16
f 19 17 15
f 19 15 10
f 19 10 17
f 20 17 10
f 20 10 16
f 20 16 9
f 20 9 15
f 20 15 17
f 21 18 4
f 21 4 9
f 21 9 18

