# https://github.com/mikedh/trimesh
v 0.00786257 0.02544506 0.03835429
v 0.00833912 0.02335654 0.03835219
v 0.00802359 0.02502225 0.00131561
v -0.00556504 0.02277020 0.00075408
v -0.00571268 0.02421775 0.03840004
v 0.00812882 0.02275575 0.00082205
v 0.00780797 0.02692052 0.01069240
v 0.00842932 0.02267857 0.03703327
v -0.00548134 0.02584337 0.00140088
v -0.00202025 0.02696161 0.03785184
v -0.00577739 0.02361250 0.03709531
v 0.00842316 0.02273494 0.02021811
v 0.00123872 0.02785134 0.00323690
v -0.00541180 0.02621508 0.03835966
v 0.00291725 0.02703873 0.03386181
v -0.00541953 0.02711651 0.00257423
v 0.00781367 0.02692520 0.00644744
v 0.00367714 0.02703873 0.00202132
v 0.00537014 0.02611614 0.03834482
v 0.00700088 0.02608676 0.03720301
v -0.00127191 0.02793091 0.01755426
v -0.00536705 0.02697900 0.02863832
v 0.00366466 0.02784255 0.00477324
v 0.00708503 0.02562663 0.00147176
v -0.00455976 0.02698675 0.00211314
v -0.00046485 0.02699031 0.03792302
v 0.00779685 0.02602248 0.03033913
v 0.00622168 0.02696112 0.02439787
v -0.00370788 0.02779075 0.00402162
v -0.00203667 0.02788681 0.01669524
v 0.00289712 0.02786204 0.00400159
v 0.00210987 0.02791881 0.01584236
v 0.00696135 0.02689126 0.00333282
v -0.00203135 0.02786230 0.00323955
v 0.00211142 0.02706420 0.03556677
v 0.00703190 0.02694409 0.02011532
v -0.00374122 0.02784797 0.01069087
v 0.00288455 0.02785007 0.01498087
v 0.00618252 0.02687564 0.00267973
v 0.00781867 0.02608050 0.00206279
v -0.00044598 0.02792171 0.01755311
v 0.00367712 0.02782994 0.01155051
v -0.00287765 0.02785876 0.01412371
f 5 2 1
f 7 1 2
f 8 2 5
f 8 4 6
f 9 6 4
f 9 3 6
f 11 8 5
f 11 4 8
f 11 9 4
f 12 8 6
f 12 6 3
f 12 2 8
f 16 11 5
f 16 9 11
f 17 12 3
f 17 7 2
f 17 2 12
f 19 14 5
f 19 5 1
f 20 19 1
f 22 16 5
f 22 5 14
f 22 14 10
f 23 7 17
f 24 3 9
f 24 9 18
f 25 18 9
f 25 9 16
f 26 10 14
f 26 14 19
f 26 21 10
f 27 20 1
f 27 1 7
f 28 15 20
f 30 22 10
f 30 10 21
f 31 18 13
f 32 31 21
f 32 23 31
f 33 23 17
f 33 31 23
f 34 25 16
f 34 13 18
f 34 18 25
f 34 16 29
f 34 31 13
f 34 21 31
f 35 20 15
f 35 15 32
f 35 26 19
f 35 19 20
f 36 27 7
f 36 20 27
f 36 28 20
f 37 29 16
f 37 16 22
f 37 30 21
f 37 34 29
f 37 21 34
f 38 32 15
f 38 15 28
f 39 18 31
f 39 31 33
f 40 33 17
f 40 17 3
f 40 3 24
f 40 39 33
f 40 24 18
f 40 18 39
f 41 35 32
f 41 32 21
f 41 21 26
f 41 26 35
f 42 36 7
f 42 7 23
f 42 23 32
f 42 32 38
f 42 38 28
f 42 28 36
f 43 37 22
f 43 22 30
f 43 30 37

