# https://github.com/mikedh/trimesh
v -0.02424550 0.00583094 0.03835176
v -0.01996153 -0.01371733 0.03714270
v -0.02266322 0.00849288 0.02107069
v -0.02702693 0.00800152 0.00644184
v -0.02598098 -0.00779548 0.03773676
v -0.02147218 -0.01347096 0.00643476
v -0.02649970 0.00808671 0.02613097
v -0.02230908 0.00839725 0.02618261
v -0.02073812 -0.01362193 0.03833204
v -0.02376195 0.00829867 0.00643362
v -0.02694142 -0.00862005 0.00645956
v -0.02350928 0.00849654 0.00991079
v -0.02686169 0.00295607 0.03794597
v -0.02361628 0.00589619 0.03706578
v -0.01986934 -0.01362548 0.02363578
v -0.02184869 -0.01281698 0.00642344
v -0.02427800 -0.01260536 0.03034337
v -0.02624241 0.00547422 0.03833945
v -0.02780514 -0.00195027 0.02354537
v -0.02774806 0.00465861 0.01412840
v -0.02779030 -0.00532571 0.00643987
v -0.02520553 -0.01268840 0.00646592
v -0.02358608 -0.01270844 0.03832271
v -0.02597091 -0.01022231 0.02182300
v -0.02688229 0.00381659 0.03640791
v -0.02609975 -0.00614186 0.03830167
v -0.02684539 0.00793936 0.01754721
v -0.02785366 0.00468015 0.00644776
v -0.02682617 -0.00693004 0.02696121
v -0.02431126 -0.01185675 0.03779454
v -0.02513247 -0.01261215 0.01411918
v -0.02682554 0.00708008 0.02525109
v -0.02782984 0.00217095 0.02269366
v -0.02514654 -0.00937232 0.03825740
v -0.02692849 -0.00365824 0.03641087
v -0.02784216 -0.00036189 0.02355255
v -0.02776621 -0.00451060 0.01583337
v -0.02597957 -0.00939627 0.02858471
v -0.02685831 -0.00855103 0.01412316
v -0.02511733 -0.01178748 0.02610367
v -0.02772643 0.00379285 0.01926187
v -0.02504883 -0.01015570 0.03778748
v -0.02688574 -0.00280272 0.03782307
v -0.02777474 -0.00280392 0.02183113
v -0.02686425 -0.00779575 0.02097477
v -0.02776553 -0.00528526 0.01155307
v -0.02776138 0.00294676 0.02182931
v -0.02775935 -0.00365451 0.01926423
f 8 7 1
f 8 3 7
f 9 2 1
f 9 6 2
f 12 7 3
f 12 4 7
f 12 10 4
f 14 8 1
f 14 1 2
f 14 2 8
f 15 3 8
f 15 12 3
f 15 6 10
f 15 10 12
f 15 8 2
f 15 2 6
f 16 10 6
f 18 1 7
f 21 4 10
f 21 10 16
f 22 16 6
f 22 21 16
f 22 11 21
f 22 6 9
f 23 9 1
f 23 1 18
f 25 18 7
f 25 13 18
f 26 18 13
f 26 23 18
f 27 7 4
f 27 4 20
f 28 20 4
f 28 4 21
f 30 17 23
f 31 22 9
f 31 9 23
f 31 23 17
f 31 11 22
f 32 25 7
f 32 27 20
f 32 7 27
f 33 13 25
f 33 20 28
f 34 26 5
f 34 23 26
f 34 30 23
f 35 29 5
f 36 28 21
f 36 21 19
f 36 33 28
f 36 13 33
f 38 5 29
f 39 31 24
f 39 11 31
f 40 24 31
f 40 38 24
f 40 31 17
f 40 17 30
f 41 32 20
f 41 20 33
f 42 34 5
f 42 30 34
f 42 5 38
f 42 40 30
f 42 38 40
f 43 35 5
f 43 5 26
f 43 26 13
f 43 13 36
f 43 36 19
f 43 19 35
f 44 35 19
f 44 19 37
f 45 38 29
f 45 39 24
f 45 24 38
f 46 21 11
f 46 11 39
f 46 37 19
f 46 19 21
f 46 39 45
f 46 45 29
f 46 29 37
f 47 41 33
f 47 33 25
f 47 25 32
f 47 32 41
f 48 44 37
f 48 37 29
f 48 29 35
f 48 35 44

