# https://github.com/mikedh/trimesh
v -0.01209744 -0.02170400 0.03829953
v -0.01122499 -0.02443416 0.03834999
v -0.01156532 -0.01918680 0.00060467
v -0.02247787 -0.01305075 0.00131640
v -0.02375494 -0.01282359 0.03787583
v -0.01352781 -0.02427136 0.00330583
v -0.01216139 -0.02027641 0.03379076
v -0.02324773 -0.01301298 0.03847732
v -0.01124958 -0.02540065 0.00323059
v -0.01459045 -0.02204176 0.00147172
v -0.02261586 -0.01678161 0.00645822
v -0.01774755 -0.02014873 0.03830958
v -0.02008386 -0.01382428 0.03769387
v -0.01192522 -0.02503456 0.02439662
v -0.02137014 -0.01540970 0.00149095
v -0.01207504 -0.02441698 0.00203769
v -0.02465821 -0.01285873 0.00324928
v -0.02088357 -0.01670390 0.03834307
v -0.01600824 -0.02162512 0.03833329
v -0.02073812 -0.01362193 0.03833204
v -0.01224246 -0.02111376 0.03765960
v -0.01756093 -0.01319358 0.00063850
v -0.01124058 -0.02536020 0.02441304
v -0.01275444 -0.02503654 0.00899412
v -0.01927986 -0.01995432 0.00335802
v -0.01197246 -0.02508112 0.00332122
v -0.01144580 -0.02322364 0.00123745
v -0.02430313 -0.01428767 0.00983619
v -0.02381974 -0.01285575 0.00197005
v -0.02264478 -0.01429346 0.03831429
v -0.02018553 -0.01917478 0.02096967
v -0.01361053 -0.02340335 0.03787605
v -0.01942946 -0.01388730 0.03540756
v -0.01691494 -0.02172562 0.00276174
v -0.02259644 -0.01597270 0.00276482
v -0.01277047 -0.02503157 0.00644990
v -0.01303012 -0.02304882 0.00147047
v -0.01134428 -0.02466694 0.00195205
v -0.02429120 -0.01430545 0.00560625
v -0.02462604 -0.01283563 0.02440785
v -0.02234465 -0.01382683 0.00144294
v -0.02179268 -0.01595562 0.03775622
v -0.01765164 -0.02170247 0.01411947
v -0.01602126 -0.02250508 0.02697566
v -0.02259140 -0.01591706 0.02609446
v -0.01193840 -0.02411353 0.03834655
v -0.01516421 -0.02258104 0.00213957
v -0.02178217 -0.01753608 0.00404707
v -0.02360020 -0.01358240 0.00215704
v -0.02272186 -0.01524281 0.00226875
v -0.01763049 -0.02164743 0.00407332
v -0.02335722 -0.01514143 0.00335396
v -0.02341308 -0.01347161 0.03780323
v -0.01845726 -0.02002784 0.03212721
v -0.01852389 -0.02084682 0.01926700
v -0.01522257 -0.02338647 0.00408151
v -0.01519263 -0.02249874 0.03643229
v -0.01359608 -0.02418781 0.02354199
v -0.02261720 -0.01677885 0.00983916
v -0.02095026 -0.01841763 0.01924736
v -0.02344607 -0.01509786 0.02011427
v -0.02083484 -0.01835625 0.00334446
v -0.02431347 -0.01352576 0.00330882
v -0.02426596 -0.01349084 0.02438801
f 7 1 2
f 7 2 3
f 8 2 1
f 9 3 2
f 15 4 3
f 15 3 10
f 18 12 8
f 19 8 12
f 20 8 1
f 20 5 8
f 21 1 7
f 21 20 1
f 21 13 20
f 22 7 3
f 22 3 4
f 22 5 20
f 23 9 2
f 24 23 14
f 24 9 23
f 26 16 9
f 26 6 16
f 27 10 3
f 29 22 4
f 29 5 22
f 30 18 8
f 30 8 5
f 32 23 2
f 32 14 23
f 33 21 7
f 33 13 21
f 33 7 22
f 33 22 20
f 33 20 13
f 35 34 25
f 36 6 26
f 36 26 9
f 36 9 24
f 37 10 27
f 38 27 3
f 38 3 9
f 38 9 16
f 38 37 27
f 38 16 37
f 39 28 17
f 39 11 28
f 40 17 28
f 40 29 17
f 40 5 29
f 41 29 4
f 41 4 15
f 42 18 30
f 42 12 18
f 46 32 2
f 46 19 32
f 46 2 8
f 46 8 19
f 47 15 10
f 47 16 6
f 47 6 34
f 47 37 16
f 47 10 37
f 48 11 39
f 49 17 29
f 50 34 35
f 50 47 34
f 50 15 47
f 50 17 49
f 50 49 29
f 50 41 15
f 50 29 41
f 51 25 34
f 51 43 11
f 51 48 25
f 51 11 48
f 52 48 39
f 52 35 48
f 53 42 30
f 53 30 5
f 53 45 42
f 53 5 40
f 54 42 31
f 54 12 42
f 55 11 43
f 55 43 44
f 55 54 31
f 55 44 54
f 56 36 24
f 56 24 43
f 56 43 51
f 56 6 36
f 56 51 34
f 56 34 6
f 57 19 12
f 57 54 44
f 57 12 54
f 57 44 32
f 57 32 19
f 58 14 32
f 58 32 44
f 58 24 14
f 58 44 43
f 58 43 24
f 59 28 11
f 59 11 55
f 60 31 42
f 60 42 45
f 60 45 59
f 60 59 55
f 60 55 31
f 61 59 45
f 61 28 59
f 62 48 35
f 62 35 25
f 62 25 48
f 63 52 39
f 63 39 17
f 63 35 52
f 63 50 35
f 63 17 50
f 64 53 40
f 64 45 53
f 64 61 45
f 64 40 28
f 64 28 61

