# https://github.com/mikedh/trimesh
v 0.02627727 -0.00533021 0.03832419
v 0.02593095 -0.00774759 0.03781796
v 0.02703575 -0.00533606 0.00268920
v 0.02183168 -0.00548022 0.00075438
v 0.01293069 -0.02371802 0.03799255
v 0.02685005 -0.00691841 0.02525825
v 0.02093746 -0.01676052 0.03829189
v 0.02378549 -0.00574578 0.03758118
v 0.01288500 -0.02445150 0.00253502
v 0.02697782 -0.00535457 0.02947785
v 0.02520973 -0.00939060 0.03829256
v 0.01315410 -0.02323699 0.03851566
v 0.02347816 -0.01511026 0.00403418
v 0.02428111 -0.00561375 0.03836493
v 0.01327703 -0.01832880 0.00062734
v 0.01762659 -0.02172934 0.01240865
v 0.02684227 -0.00605066 0.02946797
v 0.02684574 -0.00860967 0.01070027
v 0.02593835 -0.00688509 0.03830658
v 0.01592263 -0.02163034 0.03837832
v 0.02267737 -0.01435123 0.03831993
v 0.01377552 -0.02083388 0.03831728
v 0.02302098 -0.01287676 0.00149067
v 0.01293857 -0.02452120 0.02442016
v 0.02179168 -0.01755208 0.01497039
v 0.01760801 -0.02163948 0.00414132
v 0.02683800 -0.00777552 0.01926058
v 0.02683946 -0.00861998 0.00559634
v 0.01453148 -0.02270617 0.03829534
v 0.02512777 -0.01179857 0.02354192
v 0.01396790 -0.01931955 0.03542115
v 0.02572402 -0.00542489 0.00144715
v 0.02596494 -0.00942667 0.00275976
v 0.01703254 -0.02029364 0.00148397
v 0.01519882 -0.02336381 0.01840285
v 0.01930011 -0.01919033 0.03384806
v 0.02183908 -0.01594736 0.03785617
v 0.02175398 -0.01748941 0.00411068
v 0.02596687 -0.00931065 0.02858251
v 0.02513106 -0.01263308 0.00984541
v 0.01516961 -0.02250519 0.03717997
v 0.02346963 -0.01345550 0.03785262
v 0.01396706 -0.02005552 0.03761758
v 0.02290673 -0.00663191 0.03461053
v 0.02388298 -0.01124952 0.00147429
v 0.02349416 -0.01431728 0.00270873
v 0.02588806 -0.01019401 0.00327468
v 0.02607286 -0.00778253 0.00217623
v 0.01314397 -0.02238657 0.00121471
v 0.02134016 -0.01537675 0.00147597
v 0.01532292 -0.02262389 0.00203665
v 0.01516568 -0.02329990 0.00330963
v 0.01930227 -0.02003866 0.02011962
v 0.02178839 -0.01672892 0.02855616
v 0.02506024 -0.01014923 0.03791312
v 0.02596950 -0.01017495 0.02098192
v 0.02345337 -0.01509550 0.01754236
v 0.01358535 -0.02335674 0.03795064
v 0.01600436 -0.02253666 0.02696239
v 0.02561417 -0.00617344 0.00144840
v 0.02355776 -0.01350733 0.00211307
v 0.02178393 -0.01674261 0.00274103
v 0.02428737 -0.01348172 0.00336908
v 0.02672008 -0.00772577 0.00330632
f 1 3 4
f 10 1 2
f 10 3 1
f 14 1 4
f 14 4 8
f 14 12 1
f 15 9 5
f 17 10 2
f 17 2 6
f 17 6 10
f 18 3 10
f 19 11 2
f 19 2 1
f 19 1 11
f 20 7 12
f 21 11 1
f 21 1 12
f 21 12 7
f 22 14 8
f 22 12 14
f 22 5 12
f 24 5 9
f 27 18 10
f 27 10 6
f 28 3 18
f 29 20 12
f 29 12 5
f 31 4 15
f 31 15 5
f 31 5 22
f 32 4 3
f 35 24 9
f 36 7 20
f 37 21 7
f 37 7 36
f 38 25 16
f 38 16 26
f 38 13 25
f 39 27 6
f 39 6 2
f 40 28 18
f 41 20 29
f 41 36 20
f 42 11 21
f 42 21 37
f 43 31 22
f 43 22 8
f 43 8 31
f 44 31 8
f 44 8 4
f 44 4 31
f 45 23 15
f 45 15 4
f 48 3 33
f 48 33 45
f 49 9 15
f 49 15 34
f 50 34 15
f 50 15 23
f 51 49 34
f 51 9 49
f 52 26 16
f 52 16 35
f 52 35 9
f 52 51 26
f 52 9 51
f 53 16 25
f 54 37 36
f 54 53 25
f 54 36 53
f 55 39 2
f 55 2 11
f 55 11 42
f 55 42 30
f 55 30 39
f 56 39 30
f 56 18 27
f 56 27 39
f 56 40 18
f 56 30 40
f 57 25 13
f 57 13 40
f 57 54 25
f 57 40 30
f 57 30 42
f 57 42 37
f 57 37 54
f 58 41 29
f 58 29 5
f 58 5 24
f 58 24 41
f 59 41 24
f 59 24 35
f 59 35 16
f 59 16 53
f 59 53 36
f 59 36 41
f 60 45 4
f 60 4 32
f 60 48 45
f 60 32 3
f 60 3 48
f 61 45 33
f 61 47 46
f 61 33 47
f 61 23 45
f 61 50 23
f 62 46 13
f 62 13 38
f 62 34 50
f 62 61 46
f 62 50 61
f 62 51 34
f 62 38 26
f 62 26 51
f 63 13 46
f 63 46 47
f 63 40 13
f 63 47 28
f 63 28 40
f 64 47 33
f 64 33 3
f 64 3 28
f 64 28 47

