# https://github.com/mikedh/trimesh
v 0.02061182 0.01906350 0.00560276
v 0.02301018 0.00834465 0.00428554
v 0.01810120 0.01903548 0.00137791
v -0.01310792 0.02250427 0.00131330
v -0.01347494 0.02138818 0.00557149
v -0.01327411 0.00908544 0.00010859
v 0.01576929 0.02306211 0.00551436
v 0.02238525 0.01316956 0.00133600
v 0.02300929 0.01006648 0.00554481
v 0.00555774 0.02100145 0.00051442
v -0.01321750 0.01756852 0.00054885
v 0.02015164 0.01871830 0.00271511
v -0.01275432 0.02183632 0.00564548
v 0.02265950 0.00821833 0.00092937
v -0.01330508 0.00909939 0.00190723
v 0.00812882 0.02275575 0.00082205
v -0.00810395 0.02012835 0.00052707
v 0.01475214 0.02156722 0.00136829
v 0.02029227 0.01797776 0.00215807
v 0.02168112 0.01279118 0.00562679
v -0.01001816 0.02318348 0.00554491
v 0.01496545 0.00822702 0.00023526
v 0.01579017 0.01502703 0.00052061
v 0.00128551 0.02101720 0.00049297
v 0.01947362 0.01885411 0.00203422
v 0.00826022 0.02318965 0.00413819
v 0.01750156 0.00821502 0.00042412
v 0.01513182 0.00829525 0.00209092
v 0.01322777 0.01758002 0.00053636
v 0.02047845 0.01638408 0.00144848
v 0.01748457 0.01162803 0.00051175
v 0.00895576 0.02011625 0.00053343
v 0.01066138 0.01929038 0.00053519
f 9 8 1
f 9 2 8
f 11 6 5
f 11 5 4
f 12 7 1
f 12 1 8
f 13 1 7
f 13 5 9
f 13 4 5
f 14 8 2
f 15 2 9
f 15 9 5
f 15 5 6
f 17 6 11
f 17 11 4
f 18 16 7
f 19 12 8
f 20 13 9
f 20 9 1
f 20 1 13
f 21 13 7
f 21 4 13
f 21 16 4
f 22 6 10
f 22 15 6
f 23 3 8
f 23 8 14
f 24 10 6
f 24 6 17
f 24 16 10
f 24 17 4
f 24 4 16
f 25 3 18
f 25 12 19
f 25 18 7
f 25 7 12
f 26 21 7
f 26 7 16
f 26 16 21
f 27 14 2
f 28 2 15
f 28 15 22
f 28 27 2
f 28 22 27
f 29 18 3
f 29 3 23
f 29 16 18
f 29 23 22
f 30 25 19
f 30 19 8
f 30 8 3
f 30 3 25
f 31 23 14
f 31 14 27
f 31 27 22
f 31 22 23
f 32 10 16
f 32 22 10
f 33 32 16
f 33 16 29
f 33 29 22
f 33 22 32

