# https://github.com/mikedh/trimesh
v 0.02712491 0.00799687 0.00644306
v 0.02771300 -0.00546216 0.00643234
v 0.02578220 0.00474110 0.00145554
v 0.01496545 0.00822702 0.00023526
v 0.00815237 -0.01321504 0.00199144
v 0.02494621 0.00813967 0.00143974
v 0.02766694 0.00378814 0.00331733
v 0.01701785 -0.01864464 0.00553138
v 0.02367491 0.00826426 0.00643394
v 0.01327703 -0.01832880 0.00062734
v 0.01921893 0.00393750 0.00048921
v 0.02788097 0.00469121 0.00643852
v 0.02572402 -0.00542489 0.00144715
v 0.02683365 0.00791038 0.00335748
v 0.01513182 0.00829525 0.00209092
v 0.00815310 -0.00892475 0.00181082
v 0.02452775 -0.00550279 0.00643479
v 0.01339305 -0.01847631 0.00332274
v 0.01835853 0.00821244 0.00049853
v 0.00814057 -0.01319197 0.00010095
v 0.02786587 -0.00448904 0.00644086
v 0.02695751 0.00382391 0.00211962
v 0.02075111 -0.01888779 0.00556502
v 0.01749421 -0.01145958 0.00050531
v 0.02609039 0.00799829 0.00215123
v 0.02772996 0.00461412 0.00403026
v 0.02456187 0.00499235 0.00645569
v 0.00814452 -0.00891373 0.00005888
v 0.02772914 -0.00283193 0.00331445
v 0.02681916 0.00708877 0.00275825
v 0.02703575 -0.00533606 0.00268920
v 0.01982945 -0.01804970 0.00184141
v 0.01921835 -0.00375514 0.00049094
v 0.01322937 -0.01656192 0.00046615
v 0.02767311 -0.00444402 0.00407450
v 0.02691858 -0.00362027 0.00212354
v 0.01895932 -0.01802537 0.00137507
v 0.01835493 -0.00804251 0.00049721
v 0.01579499 -0.01485552 0.00052740
v 0.01974017 -0.01714551 0.00138178
v 0.01408279 -0.01655716 0.00052519
f 9 1 6
f 11 6 3
f 13 11 3
f 15 9 6
f 16 5 8
f 16 8 9
f 16 9 15
f 16 15 4
f 17 9 8
f 18 8 5
f 19 11 4
f 19 6 11
f 19 15 6
f 19 4 15
f 20 5 16
f 20 18 5
f 20 10 18
f 21 12 1
f 21 17 2
f 22 13 3
f 23 18 10
f 23 8 18
f 23 17 8
f 23 2 17
f 25 6 1
f 25 1 14
f 25 22 3
f 25 3 6
f 26 14 1
f 26 1 12
f 27 1 9
f 27 9 17
f 27 21 1
f 27 17 21
f 28 20 16
f 28 16 4
f 29 7 26
f 29 26 12
f 29 12 21
f 29 22 7
f 30 7 22
f 30 26 7
f 30 14 26
f 30 25 14
f 30 22 25
f 31 2 23
f 32 31 23
f 32 13 31
f 33 11 13
f 33 4 11
f 33 28 4
f 33 20 28
f 34 10 20
f 35 29 21
f 35 21 2
f 35 31 29
f 35 2 31
f 36 31 13
f 36 13 22
f 36 22 29
f 36 29 31
f 37 32 23
f 37 23 10
f 38 33 13
f 38 13 24
f 38 24 20
f 38 20 33
f 39 37 10
f 39 34 20
f 39 20 24
f 40 24 13
f 40 13 32
f 40 32 37
f 40 39 24
f 40 37 39
f 41 39 10
f 41 10 34
f 41 34 39

