# https://github.com/mikedh/trimesh
v -0.00487245 -0.02441838 0.03830459
v -0.00464413 -0.02637995 0.03840978
v -0.00479565 -0.02475543 0.00553639
v -0.01189499 -0.02233377 0.00546335
v -0.01171379 -0.02207150 0.03843785
v -0.00867037 -0.02675826 0.00559269
v -0.00490397 -0.02360224 0.03623198
v -0.00470953 -0.02774192 0.00557479
v -0.01139722 -0.02568498 0.00560161
v -0.00454886 -0.02694116 0.03126888
v -0.01197497 -0.02076403 0.03627495
v -0.01116849 -0.02271895 0.00541372
v -0.01122499 -0.02443416 0.03834999
v -0.00705496 -0.02679273 0.02694954
v -0.01185305 -0.02143936 0.03778987
v -0.01196961 -0.02070804 0.02449925
v -0.00663122 -0.02436333 0.00549520
v -0.00866569 -0.02674513 0.01069460
v -0.00783126 -0.02588181 0.03787644
v -0.00855692 -0.02196180 0.03213818
v -0.00779439 -0.02674085 0.02183226
v -0.01037702 -0.02616009 0.00560858
v -0.00703143 -0.02593993 0.03832400
v -0.00952167 -0.02585911 0.02857640
v -0.00496210 -0.02365505 0.02108821
v -0.00952466 -0.02516797 0.03833929
v -0.01030391 -0.02587440 0.02183159
v -0.00855467 -0.02195880 0.03131463
v -0.01026675 -0.02501566 0.03796396
v -0.01032365 -0.02592432 0.02011822
v -0.01106142 -0.02495281 0.03034306
f 5 2 1
f 7 1 2
f 10 7 2
f 10 3 7
f 10 8 3
f 11 1 7
f 11 4 9
f 12 8 6
f 12 4 3
f 12 9 4
f 12 6 9
f 13 2 5
f 13 5 9
f 14 8 10
f 15 5 1
f 15 1 11
f 15 11 9
f 15 9 5
f 16 3 4
f 16 4 11
f 17 12 3
f 17 3 8
f 17 8 12
f 18 6 8
f 19 14 10
f 19 10 2
f 20 16 11
f 20 11 7
f 21 18 8
f 21 8 14
f 22 9 6
f 22 6 18
f 23 19 2
f 24 14 19
f 25 7 3
f 25 3 16
f 26 23 2
f 26 2 13
f 26 19 23
f 27 21 14
f 27 14 24
f 28 20 7
f 28 7 25
f 28 25 16
f 28 16 20
f 29 24 19
f 29 19 26
f 29 26 13
f 29 27 24
f 29 13 27
f 30 18 21
f 30 21 27
f 30 22 18
f 30 27 9
f 30 9 22
f 31 27 13
f 31 13 9
f 31 9 27

