# https://github.com/mikedh/trimesh
v -0.00541180 0.02621508 0.03835966
v -0.00571268 0.02421775 0.03840004
v -0.00556504 0.02277020 0.00075408
v -0.01310792 0.02250427 0.00131330
v -0.01360225 0.02072486 0.03833859
v -0.00541953 0.02711651 0.00257423
v -0.01110675 0.02432053 0.03831895
v -0.00589749 0.02299335 0.03375153
v -0.01369610 0.02000765 0.02105974
v -0.00538938 0.02714145 0.02526467
v -0.00548134 0.02584337 0.00140088
v -0.01273182 0.02436418 0.02774306
v -0.01372777 0.01994080 0.03704702
v -0.01372273 0.02086239 0.01078597
v -0.00951710 0.02522117 0.03785704
v -0.01024864 0.02524204 0.00211824
v -0.01275918 0.02352017 0.03825079
v -0.01025612 0.02606385 0.00480152
v -0.00585294 0.02380375 0.03787696
v -0.01221576 0.02038873 0.03461716
v -0.01347494 0.02138818 0.00557149
v -0.01275277 0.02440778 0.00273961
v -0.00615269 0.02611076 0.03824798
v -0.01129708 0.02396842 0.00151449
v -0.00781608 0.02611334 0.00208368
v -0.01196849 0.02434491 0.03554750
v -0.00783078 0.02693356 0.00476690
v -0.00953272 0.02606609 0.02268625
v -0.01218404 0.02043406 0.02708222
v -0.01197369 0.02520363 0.01755871
v -0.00950189 0.02612573 0.00324018
v -0.00697636 0.02604472 0.03787510
v -0.01197347 0.02442858 0.00212860
v -0.00627146 0.02571825 0.00144922
v -0.00785632 0.02692174 0.01240455
v -0.01112516 0.02519535 0.02695758
v -0.01193285 0.02520052 0.00406593
v -0.01107863 0.02520114 0.00266374
v -0.00697846 0.02693507 0.00323291
v -0.00868443 0.02602844 0.02859928
v -0.01292707 0.02306551 0.00152054
v -0.01025873 0.02605368 0.01240197
v -0.00701444 0.02692572 0.02011653
v -0.00613686 0.02699107 0.00265746
v -0.00615748 0.02695522 0.02525239
f 1 2 3
f 7 5 2
f 7 2 1
f 8 3 2
f 10 1 3
f 10 3 6
f 11 6 3
f 11 3 4
f 14 3 9
f 14 5 12
f 14 13 5
f 14 9 13
f 17 12 5
f 17 5 7
f 17 7 15
f 19 13 8
f 19 8 2
f 19 2 5
f 19 5 13
f 20 13 9
f 20 3 8
f 20 8 13
f 21 4 3
f 21 3 14
f 22 14 12
f 22 21 14
f 22 4 21
f 23 15 7
f 23 7 1
f 25 6 11
f 25 24 16
f 26 17 15
f 26 12 17
f 27 10 6
f 29 20 9
f 29 9 3
f 29 3 20
f 30 22 12
f 31 18 27
f 31 25 16
f 32 23 1
f 32 1 10
f 32 15 23
f 33 16 24
f 34 25 11
f 34 24 25
f 34 11 4
f 34 4 24
f 35 27 18
f 35 10 27
f 36 26 15
f 36 15 28
f 36 28 30
f 36 30 12
f 36 12 26
f 37 30 18
f 37 22 30
f 37 18 31
f 38 31 16
f 38 37 31
f 38 22 37
f 38 33 22
f 38 16 33
f 39 31 27
f 39 27 6
f 40 28 15
f 40 15 32
f 41 33 24
f 41 24 4
f 41 4 22
f 41 22 33
f 42 30 28
f 42 28 35
f 42 35 18
f 42 18 30
f 43 35 28
f 43 10 35
f 44 39 6
f 44 6 25
f 44 25 31
f 44 31 39
f 45 40 32
f 45 32 10
f 45 10 43
f 45 43 28
f 45 28 40

