# https://github.com/mikedh/trimesh
v -0.02376195 0.00829867 0.00643362
v -0.02046071 -0.01340546 0.00403975
v -0.02012800 0.00822827 0.00064394
v -0.02490911 0.00811712 0.00147447
v -0.02779030 -0.00532571 0.00643987
v -0.02092113 -0.01315523 0.00099941
v -0.02040817 0.00832272 0.00304868
v -0.02147218 -0.01347096 0.00643476
v -0.02702693 0.00800152 0.00644184
v -0.02009531 -0.01316943 0.00089169
v -0.02560619 -0.00621589 0.00146093
v -0.02512826 -0.01266623 0.00480232
v -0.02764927 0.00379530 0.00332447
v -0.02520553 -0.01268840 0.00646592
v -0.02565325 0.00554587 0.00145734
v -0.02447118 -0.01275119 0.00269713
v -0.02675012 0.00789643 0.00332118
v -0.02785366 0.00468015 0.00644776
v -0.02769287 -0.00363152 0.00333331
v -0.02694142 -0.00862005 0.00645956
v -0.02304837 -0.01287189 0.00149172
v -0.02700739 0.00379497 0.00212706
v -0.02771821 0.00462748 0.00404175
v -0.02680042 -0.00693734 0.00277463
v -0.02526453 -0.01026950 0.00216102
v -0.02388932 -0.01123717 0.00149754
v -0.02675682 0.00706105 0.00272859
v -0.02703100 -0.00365428 0.00216391
v -0.02608551 0.00793450 0.00218108
v -0.02593726 -0.01019347 0.00330939
v -0.02771213 -0.00532236 0.00482443
v -0.02445247 -0.01194570 0.00208697
v -0.02609893 -0.00778656 0.00215064
v -0.02519414 -0.01188386 0.00332832
v -0.02687258 -0.00854534 0.00488406
v -0.02600648 -0.00942992 0.00274718
v -0.02682630 -0.00773699 0.00337367
f 7 3 4
f 7 4 1
f 7 2 3
f 8 7 1
f 8 2 7
f 8 6 2
f 9 1 4
f 10 3 2
f 10 2 6
f 11 10 6
f 11 3 10
f 14 8 1
f 14 1 9
f 14 12 8
f 15 4 3
f 15 3 11
f 16 6 8
f 16 8 12
f 17 9 4
f 18 14 9
f 19 5 18
f 20 12 14
f 20 18 5
f 20 14 18
f 21 6 16
f 22 19 13
f 22 15 11
f 23 19 18
f 23 13 19
f 23 18 9
f 23 9 17
f 26 11 6
f 26 6 21
f 26 25 11
f 27 22 13
f 27 23 17
f 27 13 23
f 28 22 11
f 28 19 22
f 28 24 19
f 29 4 15
f 29 15 22
f 29 22 27
f 29 27 17
f 29 17 4
f 31 20 5
f 31 5 19
f 32 21 16
f 32 16 25
f 32 26 21
f 32 25 26
f 33 24 28
f 33 28 11
f 33 11 25
f 34 16 12
f 34 12 30
f 35 30 12
f 35 12 20
f 35 20 31
f 36 25 16
f 36 34 30
f 36 16 34
f 36 33 25
f 36 24 33
f 37 31 19
f 37 19 24
f 37 35 31
f 37 30 35
f 37 36 30
f 37 24 36

