# https://github.com/mikedh/trimesh
v -0.01325198 0.02445943 0.02014859
v -0.01372739 0.02005606 0.02020611
v -0.01327235 0.00823076 0.00010142
v -0.01967182 0.01728462 0.00148647
v -0.02670693 0.00814751 0.02014173
v -0.01288472 0.02382680 0.00201910
v -0.01330443 0.00824156 0.00188229
v -0.02258762 0.01618639 0.02011472
v -0.02636285 0.00801674 0.00253569
v -0.01322959 0.01672938 0.00046933
v -0.01294797 0.02472755 0.01756309
v -0.02272257 0.00851216 0.02021773
v -0.01936500 0.02019124 0.00484045
v -0.02420239 0.00816916 0.00123309
v -0.02345006 0.01528260 0.00488257
v -0.01310792 0.02250427 0.00131330
v -0.01679825 0.02179121 0.00273597
v -0.01602661 0.02269561 0.02011202
v -0.02441015 0.01201941 0.00216490
v -0.01834844 0.00821097 0.00046368
v -0.01662915 0.01416190 0.00054259
v -0.02588742 0.01035567 0.00343859
v -0.02513530 0.01195009 0.02010149
v -0.02097508 0.01854822 0.01069615
v -0.02096461 0.01773248 0.00278843
v -0.01630165 0.02060755 0.00151245
v -0.01520911 0.02352274 0.00646482
v -0.01452038 0.02370694 0.02012138
v -0.02572013 0.00809927 0.00191089
v -0.02312299 0.01221498 0.00147806
v -0.01748945 0.01248646 0.00051299
v -0.01407662 0.01671310 0.00052789
v -0.02592752 0.00953826 0.00277816
v -0.02421992 0.01363172 0.00342753
v -0.02619201 0.00959854 0.02012597
v -0.02344525 0.01526266 0.01326393
v -0.02597583 0.01038170 0.01669309
v -0.02097810 0.01854405 0.00648102
v -0.01934575 0.02017215 0.01411837
v -0.02258409 0.01606311 0.00342219
v -0.01603458 0.02190551 0.00216241
v -0.02101282 0.01703063 0.00221601
v -0.01599408 0.02265325 0.00331649
v -0.01293138 0.02468909 0.00399068
v -0.01523045 0.02350908 0.01069839
v -0.02519327 0.01041462 0.00221161
v -0.02402421 0.01062154 0.00148131
v -0.01834343 0.00992062 0.00050944
v -0.02425367 0.01369053 0.01926055
v -0.02341179 0.01438627 0.00279930
v -0.01436377 0.02346599 0.00275550
v -0.01388162 0.02236778 0.00145322
v -0.01357365 0.02440411 0.01583762
v -0.01355282 0.02435292 0.00405070
v -0.01354037 0.02354812 0.00214622
v -0.01355308 0.02436958 0.01755169
f 8 2 1
f 9 7 5
f 9 3 7
f 10 6 3
f 11 1 2
f 11 2 7
f 11 7 3
f 11 3 6
f 12 7 2
f 12 5 7
f 12 8 5
f 12 2 8
f 16 6 10
f 18 8 1
f 20 3 9
f 20 9 14
f 22 9 5
f 25 13 17
f 26 16 4
f 28 18 1
f 29 14 9
f 30 19 4
f 30 4 21
f 31 30 21
f 31 14 30
f 31 3 20
f 31 21 10
f 31 10 3
f 32 16 10
f 32 10 21
f 32 21 4
f 32 4 16
f 33 22 19
f 33 9 22
f 34 22 15
f 34 19 22
f 35 5 8
f 35 8 23
f 36 24 15
f 36 8 24
f 37 15 22
f 37 35 23
f 37 22 5
f 37 5 35
f 38 24 13
f 38 15 24
f 39 13 24
f 39 24 8
f 39 8 18
f 40 13 25
f 40 38 13
f 40 15 38
f 40 34 15
f 41 25 17
f 41 26 4
f 42 4 19
f 42 41 4
f 42 25 41
f 43 17 13
f 43 13 27
f 44 11 6
f 45 18 28
f 45 39 18
f 45 27 13
f 45 13 39
f 46 29 9
f 46 33 19
f 46 9 33
f 47 19 30
f 47 46 19
f 47 29 46
f 47 30 14
f 47 14 29
f 48 31 20
f 48 20 14
f 48 14 31
f 49 23 8
f 49 8 36
f 49 37 23
f 49 36 15
f 49 15 37
f 50 40 25
f 50 19 34
f 50 34 40
f 50 42 19
f 50 25 42
f 51 41 17
f 51 17 43
f 51 44 6
f 52 41 6
f 52 6 16
f 52 16 26
f 52 26 41
f 53 44 27
f 53 11 44
f 53 27 45
f 53 45 28
f 54 43 27
f 54 27 44
f 54 51 43
f 54 44 51
f 55 51 6
f 55 6 41
f 55 41 51
f 56 53 28
f 56 11 53
f 56 28 1
f 56 1 11

