# https://github.com/mikedh/trimesh
v 0.01126256 0.01846281 0.07504443
v 0.02694666 -0.00681881 0.07183534
v 0.01700371 0.02280017 0.07165064
v -0.01965802 0.02130776 0.07162490
v -0.00839398 -0.01941225 0.07545457
v 0.02264316 -0.01665471 0.07171252
v -0.00840803 0.02711961 0.07179131
v 0.02361174 0.00726585 0.07362054
v -0.01129756 0.00733852 0.07667175
v 0.02255383 0.01713526 0.07160850
v -0.02111424 -0.01954394 0.07183620
v 0.00688143 0.02645837 0.07216374
v 0.00710594 0.02707524 0.07173818
v 0.01956081 -0.00814901 0.07514524
v -0.01261081 0.01846183 0.07504851
v 0.02547900 -0.01102467 0.07177144
v 0.02694803 0.00590552 0.07181055
v 0.02078762 0.01412416 0.07350762
v 0.01850846 -0.02102709 0.07190595
v -0.02076106 0.00726283 0.07508403
v 0.01398678 0.02097044 0.07357857
v -0.01538709 0.02419125 0.07168207
v 0.02368880 -0.00661910 0.07368420
v 0.01143131 -0.00259427 0.07668788
v -0.00416957 0.01163060 0.07671231
v -0.00554701 0.02120857 0.07506612
v 0.02548119 0.01160935 0.07175422
v 0.02202123 0.01678215 0.07205254
v 0.01822388 0.01139898 0.07503622
v -0.01970448 -0.02100370 0.07188033
v 0.01137178 -0.01803988 0.07513717
v 0.01682549 -0.01376655 0.07498049
v -0.02099954 0.02000487 0.07166472
v -0.01946786 0.01139431 0.07498144
v -0.02087097 -0.00814788 0.07506710
v 0.00829146 0.02361614 0.07349610
v 0.01424257 0.02423132 0.07172021
v -0.01249087 0.02234440 0.07360362
v 0.02633784 0.00576656 0.07220161
v 0.02486437 -0.01075725 0.07223246
v -0.00844909 -0.00969208 0.07674160
v -0.00987086 0.00877491 0.07665774
v 0.00293065 0.01162237 0.07669691
v -0.00825061 0.02648232 0.07220169
v 0.02220559 0.01126732 0.07359078
v 0.01661262 0.02223622 0.07209459
v 0.02487576 0.01139032 0.07216560
v 0.01962892 0.00868762 0.07499597
v 0.01391236 -0.02056277 0.07376469
v 0.01806640 -0.01769714 0.07342313
v 0.01400384 -0.01650229 0.07509868
v -0.01510208 0.02090600 0.07364043
v -0.02073220 0.01542120 0.07363398
v -0.01268358 0.00311972 0.07667141
v -0.01810655 -0.01370952 0.07500169
v 0.00849081 0.01977698 0.07507548
v 0.00422061 0.02123433 0.07504552
v 0.01396347 0.02365161 0.07211978
v -0.01263004 0.02568378 0.07175516
v -0.00973617 0.01988938 0.07499512
v 0.02631610 -0.00671640 0.07225474
v 0.02229789 -0.01084060 0.07358729
v 0.01145911 0.00167979 0.07669241
v -0.00821937 0.02379578 0.07363952
f 10 6 4
f 10 4 3
f 11 4 6
f 13 7 12
f 16 6 10
f 17 16 10
f 17 2 16
f 22 7 13
f 22 13 3
f 22 3 4
f 23 8 14
f 26 15 25
f 27 17 10
f 28 10 3
f 28 21 18
f 28 27 10
f 29 21 1
f 29 18 21
f 30 11 6
f 30 6 19
f 33 4 11
f 34 20 9
f 34 9 15
f 35 33 11
f 35 20 33
f 37 3 13
f 37 13 12
f 37 12 36
f 39 17 8
f 39 8 23
f 40 16 2
f 40 6 16
f 41 31 24
f 41 5 31
f 41 25 9
f 42 25 15
f 42 15 9
f 42 9 25
f 43 29 1
f 44 12 7
f 45 18 29
f 46 28 3
f 46 21 28
f 46 37 21
f 46 3 37
f 47 28 18
f 47 27 28
f 47 18 45
f 47 45 8
f 47 8 17
f 47 17 27
f 48 14 8
f 48 45 29
f 48 8 45
f 49 30 19
f 49 5 30
f 49 31 5
f 50 19 6
f 50 49 19
f 51 32 14
f 51 14 24
f 51 24 31
f 51 31 49
f 51 50 32
f 51 49 50
f 52 4 33
f 52 15 38
f 52 22 4
f 53 33 20
f 53 20 34
f 53 52 33
f 53 34 15
f 53 15 52
f 54 9 20
f 54 20 35
f 54 41 9
f 54 35 41
f 55 30 5
f 55 41 35
f 55 5 41
f 55 35 11
f 55 11 30
f 56 1 21
f 56 21 36
f 56 43 1
f 57 36 12
f 57 56 36
f 57 43 56
f 57 26 25
f 57 25 43
f 57 44 26
f 57 12 44
f 58 37 36
f 58 36 21
f 58 21 37
f 59 7 22
f 59 52 38
f 59 22 52
f 59 44 7
f 59 38 44
f 60 38 15
f 60 15 26
f 61 39 23
f 61 2 17
f 61 17 39
f 61 40 2
f 61 23 40
f 62 40 23
f 62 23 14
f 62 14 32
f 62 6 40
f 62 50 6
f 62 32 50
f 63 29 43
f 63 48 29
f 63 24 14
f 63 14 48
f 63 41 24
f 63 43 25
f 63 25 41
f 64 44 38
f 64 26 44
f 64 60 26
f 64 38 60

