# https://github.com/mikedh/trimesh
v 0.02374638 -0.03381136 0.07183467
v 0.02247375 -0.03761204 0.07186131
v 0.02263602 -0.03898369 0.01932901
v -0.01679522 -0.03212916 0.01492090
v -0.02143767 -0.03275727 0.04809178
v 0.02114940 -0.03208697 0.01624454
v 0.02208963 -0.03965135 0.05657554
v 0.01261109 -0.04157090 0.07194990
v 0.02281138 -0.03241402 0.01712154
v 0.00853468 -0.03204491 0.01336560
v 0.01287445 -0.03232429 0.06742018
v 0.02086655 -0.03844902 0.07198285
v 0.00843363 -0.04547558 0.02150407
v 0.01696093 -0.03218263 0.01505035
v 0.01363250 -0.03875441 0.07172159
v -0.00831674 -0.03200308 0.01336482
v -0.02110743 -0.03221933 0.01617886
v 0.01384938 -0.04247299 0.06654714
v 0.02083246 -0.03955264 0.06650697
v 0.01803120 -0.04260275 0.02122193
v 0.00841628 -0.04440173 0.01948952
v -0.01645842 -0.04250683 0.04801011
v 0.01679993 -0.03337047 0.01550339
v 0.01668023 -0.04103294 0.06926979
v 0.02208867 -0.03813058 0.07066700
v 0.01524768 -0.04247913 0.06091495
v 0.02224699 -0.04003710 0.02034119
v 0.01405027 -0.04303346 0.01962948
v -0.00967489 -0.04411081 0.01941991
v -0.02101465 -0.04059397 0.04803421
v -0.00127356 -0.04561484 0.04658835
v 0.01816125 -0.03978368 0.07180063
v 0.01260837 -0.04288044 0.06660458
v 0.01928006 -0.03964513 0.07071780
v 0.01937717 -0.04107029 0.05519177
v 0.01392264 -0.04396087 0.03369055
v 0.01793139 -0.04102603 0.06522892
v 0.02067792 -0.04104874 0.03794877
v 0.01261139 -0.04405483 0.02028146
v 0.01827547 -0.04155454 0.01964763
v -0.01915954 -0.04114587 0.01931576
v -0.00680095 -0.04550463 0.02031101
v -0.01940326 -0.04136251 0.04792748
v -0.02084792 -0.04017341 0.01916072
v -0.01107804 -0.04411254 0.04802764
v 0.01394874 -0.04117755 0.07187249
v 0.00561977 -0.04545089 0.04223669
v 0.01395080 -0.04406932 0.02131884
v 0.01800939 -0.04248325 0.03365082
v 0.01258008 -0.04393924 0.04657515
v 0.02078856 -0.04106648 0.02059165
v 0.00552509 -0.04539425 0.02013655
v -0.01519821 -0.04279163 0.01943453
v -0.01798185 -0.04255971 0.02048929
v -0.00814555 -0.04540925 0.03218020
v 0.00285475 -0.04549653 0.04654801
v 0.00837684 -0.04545874 0.03077354
v 0.02091666 -0.04007077 0.01950247
v -0.01379388 -0.04408020 0.02058361
v -0.01787577 -0.04251322 0.03363897
v -0.02050485 -0.04125663 0.02040154
v -0.00267357 -0.04560706 0.04514115
v -0.00822321 -0.04543835 0.02098328
v -0.01370914 -0.04390302 0.03507146
f 7 1 2
f 7 3 1
f 9 6 1
f 9 1 3
f 9 3 6
f 11 1 6
f 12 2 1
f 12 1 8
f 14 10 6
f 14 6 3
f 15 8 1
f 15 1 11
f 15 11 5
f 15 5 8
f 16 4 11
f 16 11 6
f 16 6 10
f 17 11 4
f 17 5 11
f 21 16 10
f 23 14 3
f 23 10 14
f 25 19 7
f 25 7 2
f 27 3 7
f 28 21 10
f 29 16 21
f 30 8 5
f 32 12 8
f 33 24 8
f 33 18 24
f 33 26 18
f 34 25 2
f 34 2 12
f 34 24 19
f 34 19 25
f 34 32 24
f 34 12 32
f 35 7 19
f 37 24 18
f 37 18 26
f 37 19 24
f 37 35 19
f 37 26 35
f 38 27 7
f 38 7 35
f 39 21 28
f 40 39 28
f 40 20 39
f 40 23 3
f 40 28 10
f 40 10 23
f 42 13 31
f 43 22 8
f 43 8 30
f 44 30 5
f 44 5 17
f 44 17 4
f 44 4 16
f 44 16 41
f 45 8 22
f 45 33 8
f 45 31 33
f 46 32 8
f 46 8 24
f 46 24 32
f 48 20 36
f 48 39 20
f 48 13 39
f 49 35 26
f 49 26 36
f 49 38 35
f 49 36 20
f 49 20 38
f 50 36 26
f 50 26 33
f 50 33 47
f 51 38 20
f 51 27 38
f 51 20 40
f 51 3 27
f 52 39 13
f 52 21 39
f 52 13 42
f 52 42 29
f 52 29 21
f 53 41 16
f 53 16 29
f 54 41 53
f 56 47 33
f 56 33 31
f 56 31 47
f 57 47 31
f 57 31 13
f 57 50 47
f 57 36 50
f 57 48 36
f 57 13 48
f 58 51 40
f 58 40 3
f 58 3 51
f 59 53 29
f 59 29 42
f 59 54 53
f 60 43 30
f 60 22 43
f 60 54 59
f 61 44 41
f 61 41 54
f 61 30 44
f 61 60 30
f 61 54 60
f 62 55 42
f 62 42 31
f 62 31 45
f 62 45 55
f 63 59 42
f 63 42 55
f 63 55 59
f 64 59 55
f 64 55 45
f 64 60 59
f 64 45 22
f 64 22 60

