# https://github.com/mikedh/trimesh
v 0.04588813 0.00168808 0.04808711
v 0.04433718 -0.01212322 0.04806251
v 0.04598962 -0.00669745 0.02511314
v 0.00153154 0.00169654 0.02512257
v 0.00153154 0.00169654 0.04809178
v 0.00153154 -0.02127267 0.02512257
v 0.04646611 0.00161458 0.02509186
v 0.04596865 -0.00255352 0.03939605
v 0.04173788 -0.01922987 0.04816081
v 0.04185995 -0.02054041 0.02509376
v 0.04585781 -0.00670672 0.02936261
v 0.04602379 -0.00111861 0.03939200
v 0.04296745 -0.01628858 0.04811748
v 0.00153154 -0.02127267 0.04809178
v 0.04449268 -0.01364570 0.02509900
v 0.04308757 -0.01784122 0.02515703
v 0.04097185 -0.02090058 0.04814395
f 5 1 4
f 6 5 4
f 7 4 1
f 8 1 2
f 8 3 7
f 9 1 5
f 10 6 4
f 10 4 7
f 11 8 2
f 11 2 3
f 11 3 8
f 12 8 7
f 12 7 1
f 12 1 8
f 13 2 1
f 13 1 9
f 14 9 5
f 14 5 6
f 15 10 7
f 15 7 3
f 15 3 2
f 15 2 13
f 16 13 9
f 16 9 10
f 16 15 13
f 16 10 15
f 17 10 9
f 17 9 14
f 17 14 6
f 17 6 10

