# https://github.com/mikedh/trimesh
v 0.03028113 0.03199773 0.07096503
v 0.04443620 -0.00524621 0.07090859
v 0.04267294 0.01674276 0.01986253
v 0.02515288 0.00158823 0.00717351
v 0.02247375 -0.03761204 0.07186131
v 0.02527506 0.03797649 0.01882005
v 0.04280409 0.01406554 0.06802357
v 0.04274256 -0.01215072 0.07133467
v 0.03443585 0.03050641 0.02793483
v 0.03637201 0.02666750 0.01830443
v 0.02381991 0.03803952 0.06805737
v 0.02243184 -0.02196715 0.01223797
v 0.04282339 0.01124687 0.07105659
v 0.04584399 0.00712056 0.02502802
v 0.02442118 0.03602794 0.07106492
v 0.04000738 0.02224791 0.04658527
v 0.04238444 0.01299031 0.01814265
v 0.02512109 0.01004036 0.00895763
v 0.03856886 0.02502652 0.02015554
v 0.02624996 0.03731768 0.05081849
v 0.02436978 0.03880175 0.04807764
v 0.03864329 -0.02592038 0.02240322
v 0.03842623 0.02219245 0.07041948
v 0.04442954 0.00440910 0.07072925
v 0.04436804 0.01130067 0.05803796
v 0.02374638 -0.03381136 0.07183467
v 0.02420596 0.03717498 0.07082193
v 0.03597486 0.02516753 0.07097040
v 0.04276142 0.01543887 0.01894389
v 0.02670693 0.03634861 0.01810332
v 0.02257340 -0.02076370 0.01165573
v 0.03899169 0.02140225 0.01824131
v 0.04279365 0.01676693 0.02932148
v 0.03732478 0.02596858 0.05579994
v 0.03028627 0.03469336 0.02088947
v 0.02906079 0.03454421 0.06516601
v 0.03577520 -0.02710029 0.06649417
v 0.02245778 -0.04041361 0.02122728
v 0.04459237 -0.00810687 0.01939512
v 0.04136803 0.01678480 0.07029812
v 0.04275832 0.01261099 0.07058062
v 0.04604808 0.00151690 0.03362110
v 0.04435359 0.00861372 0.06661969
v 0.04281021 0.01544319 0.06231316
v 0.04000111 -0.01898307 0.07144975
v 0.02667728 0.03523233 0.07091886
v 0.04456447 0.01000911 0.01926560
v 0.03717000 0.02627561 0.01898775
v 0.02538134 0.03688059 0.01795243
v 0.04144976 0.01950097 0.04941285
v 0.04430848 0.01268921 0.02099773
v 0.03857088 0.02506489 0.02792235
v 0.03290154 0.03049537 0.06791049
v 0.03446852 0.03041646 0.02099723
v 0.03028776 0.03466665 0.02367649
v 0.02624193 0.03742333 0.01896984
v 0.02243834 -0.03885389 0.06519987
v 0.03615827 -0.02737818 0.01954650
v 0.02263602 -0.03898369 0.01932901
v 0.03308899 -0.03276500 0.02642087
v 0.04449268 -0.01364570 0.02509900
v 0.04040833 0.01817832 0.07087173
v 0.04580288 -0.00673242 0.02118154
v 0.04434372 0.00996699 0.06376913
f 12 5 11
f 13 8 2
f 15 8 13
f 21 12 11
f 21 6 12
f 24 13 2
f 26 15 5
f 27 11 5
f 27 5 15
f 28 15 13
f 28 1 15
f 29 19 3
f 30 10 18
f 31 12 6
f 31 6 18
f 31 18 4
f 32 18 10
f 32 17 4
f 32 4 18
f 32 29 17
f 32 10 29
f 33 3 19
f 35 10 30
f 36 21 11
f 36 20 21
f 41 13 24
f 41 7 40
f 42 24 2
f 43 24 42
f 43 41 24
f 43 7 41
f 44 7 25
f 44 40 7
f 44 23 40
f 44 25 33
f 45 26 5
f 45 8 15
f 45 15 26
f 45 5 37
f 45 37 22
f 46 27 15
f 46 15 1
f 46 36 11
f 46 11 27
f 47 29 3
f 47 17 29
f 47 39 4
f 47 4 17
f 48 29 10
f 48 19 29
f 49 30 18
f 49 18 6
f 49 6 30
f 50 44 33
f 50 16 34
f 50 34 23
f 50 23 44
f 51 33 25
f 51 25 14
f 51 3 33
f 51 47 3
f 51 14 47
f 52 19 9
f 52 9 34
f 52 34 16
f 52 16 50
f 52 50 33
f 52 33 19
f 53 28 23
f 53 23 34
f 53 34 9
f 53 9 36
f 53 1 28
f 53 46 1
f 53 36 46
f 54 35 9
f 54 9 19
f 54 19 48
f 54 48 10
f 54 10 35
f 55 35 21
f 55 21 20
f 55 20 36
f 55 36 9
f 55 9 35
f 56 6 21
f 56 21 35
f 56 35 30
f 56 30 6
f 57 5 12
f 57 12 38
f 57 37 5
f 58 39 22
f 58 31 4
f 58 4 39
f 59 38 12
f 59 12 31
f 59 58 38
f 59 31 58
f 60 22 37
f 60 57 38
f 60 37 57
f 60 58 22
f 60 38 58
f 61 2 8
f 61 45 22
f 61 8 45
f 62 28 13
f 62 41 40
f 62 13 41
f 62 40 23
f 62 23 28
f 63 14 42
f 63 47 14
f 63 39 47
f 63 42 2
f 63 2 61
f 63 61 22
f 63 22 39
f 64 25 7
f 64 7 43
f 64 14 25
f 64 43 42
f 64 42 14

