# https://github.com/mikedh/trimesh
v 0.02545970 0.03835702 0.02508919
v 0.02593632 0.02610132 0.02512257
v 0.02574289 0.02584896 0.01441097
v -0.00828390 0.02538714 0.00876164
v -0.02143767 0.02610132 0.02512257
v 0.02265412 0.02559066 0.01346633
v -0.01245836 0.04475562 0.02512407
v 0.01249054 0.04316259 0.01787115
v -0.01526346 0.02535311 0.01061311
v 0.01672888 0.04313448 0.02512696
v 0.02538134 0.03688059 0.01795243
v 0.00849964 0.02539331 0.00888891
v -0.01374046 0.04322758 0.01805094
v 0.00567717 0.04607163 0.02224601
v 0.02213238 0.04004279 0.01897136
v 0.00555063 0.04458439 0.01766439
v 0.01671081 0.04174660 0.01799363
v 0.01408414 0.02548390 0.01041731
v -0.02083867 0.04039105 0.01806514
v 0.01665392 0.04291821 0.01997276
v 0.00429764 0.04616305 0.02510417
v -0.00414619 0.04600244 0.01965274
v 0.02217973 0.04041718 0.02508485
v 0.02527506 0.03797649 0.01882005
v -0.00687215 0.04453462 0.01773603
v 0.00975250 0.04456744 0.01894344
v 0.02223903 0.03908094 0.01815082
v 0.01840137 0.02559474 0.01185853
v -0.02126165 0.02584246 0.01276708
v -0.02067555 0.04173695 0.02510120
v 0.01249259 0.04440795 0.02105419
v 0.01528272 0.04294392 0.01878150
v 0.01254559 0.04454647 0.02509712
v -0.01234819 0.04440974 0.01896809
v 0.00281023 0.04609978 0.02004976
v -0.00545720 0.04611032 0.02509639
v -0.01961783 0.02548305 0.01211965
v 0.00563062 0.04605167 0.02361642
v -0.01639429 0.04306694 0.01903949
v -0.00549111 0.04601120 0.02090856
v -0.02067892 0.04152657 0.01997043
f 1 2 3
f 6 3 2
f 9 6 2
f 9 2 5
f 10 2 1
f 10 7 5
f 10 5 2
f 11 1 3
f 12 9 4
f 12 6 9
f 16 12 4
f 16 8 12
f 17 12 8
f 18 12 11
f 18 6 12
f 19 13 4
f 19 4 9
f 21 7 10
f 23 10 1
f 23 1 15
f 23 20 10
f 23 15 20
f 24 15 1
f 24 1 11
f 25 16 4
f 25 4 13
f 25 22 16
f 26 8 16
f 27 11 12
f 27 12 17
f 27 17 15
f 27 24 11
f 27 15 24
f 28 18 11
f 28 11 3
f 28 3 6
f 28 6 18
f 29 19 9
f 29 5 19
f 30 19 5
f 30 5 7
f 31 10 20
f 31 26 14
f 31 20 26
f 32 17 8
f 32 26 20
f 32 8 26
f 32 20 15
f 32 15 17
f 33 21 10
f 33 31 14
f 33 10 31
f 34 25 13
f 34 22 25
f 35 21 14
f 35 16 22
f 35 26 16
f 35 14 26
f 36 7 21
f 36 35 22
f 36 21 35
f 37 29 9
f 37 9 5
f 37 5 29
f 38 33 14
f 38 14 21
f 38 21 33
f 39 30 7
f 39 7 34
f 39 34 13
f 39 13 19
f 40 34 7
f 40 7 36
f 40 36 22
f 40 22 34
f 41 39 19
f 41 19 30
f 41 30 39

