# https://github.com/mikedh/trimesh
v -0.02102071 0.00162169 0.07548258
v -0.02076147 -0.03875428 0.07177700
v -0.02084775 -0.02064488 0.01053172
v -0.02481129 0.00204113 0.00984056
v -0.04587956 0.00173687 0.06381377
v -0.04424587 -0.00805808 0.07138231
v -0.02225845 0.00164211 0.07506663
v -0.04197165 -0.01791346 0.01909973
v -0.04103755 -0.01756338 0.07164639
v -0.04450003 -0.00684737 0.07129488
v -0.04646524 0.00167252 0.02512522
v -0.02133026 -0.01828819 0.00950651
v -0.02084792 -0.04017341 0.01916072
v -0.02099284 -0.00260775 0.07551540
v -0.04424899 -0.01495026 0.02508356
v -0.03311395 0.00172567 0.01328971
v -0.03427023 -0.03140364 0.02791737
v -0.03428740 -0.03021088 0.01924933
v -0.03022935 -0.03258414 0.07148337
v -0.04415435 -0.01218576 0.06373843
v -0.04566553 -0.00944664 0.02514240
v -0.04126700 -0.02173222 0.02228570
v -0.02607661 -0.03827440 0.03221540
v -0.03795767 -0.02223063 0.01833675
v -0.03047710 -0.03442335 0.01962727
v -0.03419540 -0.02844327 0.07144962
v -0.04264963 -0.01481344 0.07058706
v -0.04403551 -0.01072617 0.06935176
v -0.04566284 -0.00519736 0.06088473
v -0.04162065 -0.02060563 0.02021876
v -0.04563077 -0.00800319 0.05082962
v -0.03847336 -0.02585528 0.02022908
v -0.04261823 -0.01763812 0.05219892
v -0.02091818 -0.04015824 0.05665866
v -0.03156226 -0.03266382 0.06084463
v -0.03867979 -0.02459333 0.01948559
v -0.03946462 -0.01952427 0.01825601
v -0.02488375 -0.03856835 0.01969643
v -0.03170481 -0.03401967 0.02113743
v -0.03843113 -0.02451296 0.06382333
v -0.04281241 -0.01360994 0.07142584
v -0.04574389 -0.00257320 0.06386362
v -0.04409710 -0.01357416 0.05232077
v -0.04559050 -0.00654802 0.05804833
v -0.04119371 -0.02189636 0.02654940
v -0.04260541 -0.01629446 0.06519188
v -0.02365451 -0.03977369 0.02043203
v -0.02608445 -0.03680604 0.06384700
v -0.03285642 -0.03138011 0.06098322
v -0.04145564 -0.01919113 0.01917553
v -0.03419098 -0.03140225 0.02106793
v -0.03155648 -0.03402545 0.03074362
v -0.03846005 -0.02589291 0.03511142
v -0.03844849 -0.02296863 0.07139385
v -0.04129151 -0.02031540 0.05360214
v -0.02344419 -0.03961566 0.03795608
v -0.02593269 -0.03831211 0.02024539
v -0.02308952 -0.03815061 0.06925196
v -0.02740239 -0.03533149 0.06930047
v -0.02869752 -0.03553096 0.05233871
v -0.03709476 -0.02576583 0.06943858
v -0.03698102 -0.02715706 0.05220086
v -0.03287737 -0.03273256 0.02046258
v -0.03286040 -0.03279149 0.03075534
f 1 3 4
f 7 1 4
f 7 4 5
f 10 6 1
f 10 1 7
f 10 7 5
f 11 5 4
f 12 4 3
f 13 3 2
f 13 12 3
f 14 1 6
f 14 6 9
f 14 2 3
f 14 3 1
f 16 11 4
f 16 8 11
f 16 12 8
f 16 4 12
f 19 2 14
f 21 11 8
f 24 12 18
f 25 18 12
f 26 19 14
f 26 14 9
f 28 6 10
f 28 20 27
f 29 28 10
f 29 20 28
f 30 21 8
f 30 15 21
f 30 22 15
f 31 21 15
f 31 29 11
f 31 11 21
f 32 22 30
f 34 13 2
f 36 24 18
f 36 18 32
f 36 32 30
f 37 8 12
f 37 12 24
f 38 25 12
f 38 12 13
f 41 27 9
f 41 9 6
f 41 28 27
f 41 6 28
f 42 29 10
f 42 10 5
f 42 5 11
f 42 11 29
f 43 31 15
f 43 20 31
f 43 15 33
f 44 31 20
f 44 20 29
f 44 29 31
f 45 33 15
f 45 15 22
f 45 22 32
f 46 27 20
f 46 43 33
f 46 20 43
f 47 13 34
f 47 38 13
f 49 35 19
f 50 36 30
f 50 30 8
f 50 8 37
f 50 37 24
f 50 24 36
f 51 39 17
f 51 17 32
f 52 39 23
f 53 32 17
f 53 45 32
f 53 40 45
f 54 26 9
f 54 9 27
f 54 46 40
f 54 27 46
f 55 45 40
f 55 33 45
f 55 46 33
f 55 40 46
f 56 47 34
f 56 23 47
f 56 48 23
f 56 34 48
f 57 47 23
f 57 23 39
f 57 39 25
f 57 25 38
f 57 38 47
f 58 48 34
f 58 34 2
f 59 19 35
f 59 35 48
f 59 48 58
f 59 58 2
f 59 2 19
f 60 48 35
f 60 23 48
f 60 52 23
f 60 35 52
f 61 49 19
f 61 19 26
f 61 54 40
f 61 26 54
f 62 17 49
f 62 53 17
f 62 40 53
f 62 61 40
f 62 49 61
f 63 51 32
f 63 32 18
f 63 18 25
f 63 25 39
f 63 39 51
f 64 17 39
f 64 39 52
f 64 49 17
f 64 52 35
f 64 35 49

