# https://github.com/mikedh/trimesh
v 0.01260759 -0.02073776 0.07412492
v 0.02337300 -0.03315818 0.06794563
v 0.00153154 -0.02127267 0.04809178
v -0.02143767 -0.02127267 0.04809178
v -0.02076147 -0.03875428 0.07177700
v 0.02241630 -0.02069848 0.06995439
v 0.01261109 -0.04157090 0.07194990
v -0.02089300 -0.02080217 0.07139401
v 0.01301614 -0.03275727 0.04809178
v -0.00127174 -0.02081789 0.07551624
v 0.01688695 -0.02071329 0.07266203
v -0.01812721 -0.02070163 0.07269707
v 0.02470507 -0.02264066 0.06715930
v 0.01287907 -0.04377762 0.04804840
v 0.00287376 -0.02093726 0.07542342
v -0.00138330 -0.04264200 0.07244894
v -0.01391142 -0.02070969 0.07388807
v 0.01243327 -0.04252746 0.06920962
v -0.02101465 -0.04059397 0.04803421
v 0.01125020 -0.04418695 0.04800396
v -0.01914628 -0.03956301 0.07178324
v 0.00152046 -0.04262993 0.07246025
v -0.01107804 -0.04411254 0.04802764
v 0.00975267 -0.04403361 0.06095084
v -0.01940326 -0.04136251 0.04792748
v -0.02057800 -0.03958336 0.06919065
v 0.00557384 -0.04408208 0.06939075
v -0.00822966 -0.04399491 0.06660186
v 0.01121434 -0.04399731 0.05375822
v -0.01782197 -0.04098020 0.06795621
v 0.00979269 -0.04255695 0.07161168
v 0.00694798 -0.04400081 0.06799663
v -0.00405566 -0.04401917 0.07066956
v -0.01510488 -0.04248537 0.06094895
v -0.01230087 -0.04257305 0.07076871
v 0.00286352 -0.04398902 0.07052209
v -0.01096736 -0.04399026 0.05373963
v -0.01643496 -0.04112960 0.07070900
v -0.01103229 -0.04276256 0.07133424
v -0.01371035 -0.04247859 0.06801578
f 6 3 4
f 8 4 5
f 11 1 7
f 11 7 2
f 11 2 6
f 12 6 4
f 12 4 8
f 12 8 5
f 13 6 2
f 13 9 3
f 13 3 6
f 14 13 2
f 14 9 13
f 15 7 1
f 15 1 10
f 17 1 11
f 17 11 6
f 17 6 12
f 17 10 1
f 17 12 5
f 17 5 10
f 18 14 2
f 18 2 7
f 19 5 4
f 20 3 9
f 20 9 14
f 21 16 10
f 21 10 5
f 22 15 10
f 22 10 16
f 22 7 15
f 25 19 4
f 25 4 3
f 25 3 20
f 25 20 23
f 26 21 5
f 26 5 19
f 27 23 20
f 27 20 24
f 29 24 20
f 29 20 14
f 29 14 18
f 29 18 24
f 30 26 19
f 30 19 25
f 31 27 18
f 31 18 7
f 31 7 22
f 32 27 24
f 32 24 18
f 32 18 27
f 33 22 16
f 33 28 23
f 33 23 27
f 34 30 25
f 34 25 23
f 36 31 22
f 36 22 33
f 36 33 27
f 36 27 31
f 37 34 23
f 37 23 28
f 38 21 26
f 38 26 30
f 39 35 28
f 39 28 33
f 39 33 16
f 39 16 21
f 39 38 35
f 39 21 38
f 40 28 35
f 40 37 28
f 40 34 37
f 40 30 34
f 40 38 30
f 40 35 38

