# https://github.com/mikedh/trimesh
v 0.02418735 0.03705521 0.07087518
v 0.02479751 0.00174666 0.07309227
v 0.02593632 0.00169654 0.02512257
v -0.02067555 0.04173695 0.02510120
v -0.02224890 0.00178259 0.07466233
v 0.02545970 0.03835702 0.02508919
v 0.01688682 0.04078366 0.07097320
v -0.02143767 0.00169654 0.02512257
v 0.02536543 0.03817875 0.04804170
v 0.02249101 0.03798069 0.07093696
v -0.02121052 0.03971986 0.07099808
v 0.00429764 0.04616305 0.02510417
v 0.02593632 0.00169654 0.04809178
v 0.01794693 0.04157664 0.06381474
v -0.01099711 0.04343655 0.07101393
v -0.00545720 0.04611032 0.02509639
v 0.02207782 0.03874219 0.07032362
v 0.01672888 0.04313448 0.02512696
v -0.01931363 0.04054308 0.07102059
v 0.00842993 0.04349892 0.07094082
v 0.02217973 0.04041718 0.02508485
v -0.00556006 0.04457778 0.07043554
v -0.01237328 0.04445805 0.05375707
v 0.01660257 0.04161561 0.06937089
v 0.01933253 0.04002501 0.07063086
v 0.02365020 0.03771472 0.07047826
v 0.02065344 0.04017124 0.06383306
v 0.01104112 0.04450557 0.05515199
v 0.01254559 0.04454647 0.02509712
v 0.01930173 0.04159384 0.04232430
v 0.00144753 0.04612498 0.04376673
v 0.00409295 0.04445521 0.07061326
v -0.01245836 0.04475562 0.02512407
v -0.00403632 0.04607096 0.04372690
v -0.00964139 0.04451520 0.06521102
v -0.01924186 0.04158067 0.06232925
v 0.01220884 0.04294698 0.07035165
v 0.02345913 0.03869354 0.05947454
v 0.01670155 0.04301495 0.03511113
v 0.01385978 0.04299785 0.06659321
v 0.02213798 0.04018154 0.03802373
v 0.00279420 0.04607528 0.04233355
v -0.01653490 0.04299038 0.05518159
v -0.00819906 0.04454781 0.06792886
v -0.02072057 0.04159011 0.03511265
v -0.01788727 0.04148322 0.07033737
v 0.01515934 0.04298196 0.05660536
v 0.00835329 0.04453206 0.06517095
v 0.00430962 0.04609614 0.02940354
v -0.01377035 0.04303833 0.06935175
v -0.02062589 0.04020092 0.07058511
v 0.00975933 0.04447415 0.06088831
v 0.00696147 0.04452197 0.06796516
v -0.01510261 0.04297836 0.06660194
f 7 5 2
f 8 5 4
f 9 1 2
f 10 7 2
f 10 2 1
f 11 4 5
f 13 8 3
f 13 2 5
f 13 5 8
f 13 9 2
f 13 3 6
f 13 6 9
f 19 11 5
f 19 5 15
f 20 15 5
f 20 5 7
f 21 4 16
f 21 8 4
f 21 6 3
f 21 3 8
f 21 9 6
f 24 17 14
f 25 7 10
f 25 10 17
f 25 17 24
f 26 1 9
f 26 17 10
f 26 10 1
f 27 14 17
f 27 17 26
f 29 18 21
f 29 12 28
f 29 21 16
f 29 16 12
f 30 27 9
f 30 14 27
f 31 12 16
f 32 22 15
f 32 15 20
f 32 31 22
f 33 23 16
f 33 16 4
f 34 16 23
f 34 31 16
f 34 22 31
f 35 34 23
f 37 20 7
f 37 25 24
f 37 7 25
f 37 32 20
f 38 27 26
f 38 26 9
f 38 9 27
f 39 29 28
f 39 18 29
f 39 14 30
f 39 30 21
f 39 21 18
f 40 24 14
f 40 37 24
f 41 30 9
f 41 9 21
f 41 21 30
f 42 12 31
f 43 33 4
f 43 23 33
f 44 15 22
f 44 22 34
f 44 34 35
f 45 4 11
f 45 43 4
f 45 36 43
f 46 19 15
f 47 39 28
f 47 14 39
f 47 40 14
f 47 28 40
f 48 37 40
f 48 28 42
f 48 42 31
f 49 42 28
f 49 28 12
f 49 12 42
f 50 44 35
f 50 15 44
f 50 46 15
f 51 45 11
f 51 36 45
f 51 46 36
f 51 11 19
f 51 19 46
f 52 48 40
f 52 40 28
f 52 28 48
f 53 32 37
f 53 37 48
f 53 48 31
f 53 31 32
f 54 50 35
f 54 35 23
f 54 23 43
f 54 43 36
f 54 36 46
f 54 46 50

