# https://github.com/mikedh/trimesh
v -0.02121052 0.03971986 0.07099808
v -0.02143048 0.00169577 0.07534576
v -0.02093560 0.01295775 0.07413248
v -0.02121641 0.02292868 0.01144901
v -0.04646524 0.00167252 0.02512522
v -0.02107172 0.02415451 0.01194187
v -0.03987458 0.02089889 0.07115259
v -0.02481129 0.00204113 0.00984056
v -0.02087292 0.04067980 0.06524443
v -0.03845010 0.02497858 0.01906027
v -0.02874612 0.03455782 0.07112639
v -0.04450003 -0.00684737 0.07129488
v -0.02089397 0.04076402 0.01857608
v -0.04422645 0.01416638 0.02513149
v -0.03311395 0.00172567 0.01328971
v -0.02485726 0.03766223 0.07109563
v -0.03702084 0.02776562 0.05370129
v -0.04562611 0.00430295 0.06519235
v -0.04434312 0.00712576 0.07132124
v -0.03871237 -0.00695596 0.06629518
v -0.02104503 0.03973743 0.01770375
v -0.04579122 0.00714341 0.02510627
v -0.03808698 0.02291224 0.01784695
v -0.02217801 0.03917852 0.07106690
v -0.02736483 0.03740891 0.01995532
v -0.03576581 0.02783718 0.07059341
v -0.04129027 0.02086348 0.05371125
v -0.04533650 -0.00683099 0.06388614
v -0.04231063 -0.00710590 0.07174762
v -0.04263990 0.01383655 0.07126741
v -0.04577826 0.00030836 0.06518755
v -0.03986718 0.02364613 0.02089322
v -0.04564651 0.00726050 0.05228365
v -0.02242215 0.02279086 0.01184686
v -0.03450139 0.02940247 0.01816557
v -0.02332396 0.03870018 0.07065598
v -0.02874116 0.03602788 0.05809567
v -0.02323515 0.03894743 0.01803162
v -0.02330275 0.04019012 0.03938498
v -0.03309299 0.03080651 0.07088386
v -0.03841000 0.02503019 0.06376894
v -0.03866364 -0.00691335 0.06666596
v -0.04118678 0.01959544 0.06804558
v -0.04408845 0.01117355 0.06934643
v -0.04583973 0.00029929 0.06383125
v -0.04274361 0.01823765 0.02517221
v -0.03979598 0.02371093 0.05229771
v -0.03576996 0.02911105 0.01907014
v -0.03735644 0.02536161 0.01819060
v -0.03015402 0.03460857 0.06378083
v -0.02478543 0.03872852 0.06089155
v -0.02469441 0.03871541 0.01890881
v -0.02897162 0.03483742 0.01820178
v -0.02327291 0.04008298 0.02001215
v -0.02743369 0.03736528 0.04228429
v -0.03729857 0.02530559 0.07093228
v -0.03426791 0.03048399 0.06371850
v -0.04263167 0.01542027 0.06935065
v -0.04407029 0.00998223 0.07060907
v -0.04409614 0.01257405 0.06378851
v -0.04401404 0.01400490 0.05076302
v -0.03977762 0.02221311 0.06799478
v -0.03697388 0.02780533 0.01985603
v -0.02731404 0.03599486 0.07060157
f 6 3 2
f 6 2 4
f 8 4 2
f 9 1 3
f 11 7 2
f 13 9 3
f 13 3 6
f 16 11 2
f 16 2 3
f 20 8 2
f 21 13 6
f 21 6 4
f 23 15 5
f 23 8 15
f 23 22 10
f 23 5 22
f 24 16 3
f 24 3 1
f 28 5 15
f 28 15 8
f 28 8 20
f 29 19 12
f 29 2 19
f 29 28 20
f 29 12 28
f 30 19 2
f 30 2 7
f 31 19 18
f 31 12 19
f 31 28 12
f 32 22 14
f 32 10 22
f 33 14 22
f 33 22 5
f 33 5 18
f 34 4 8
f 34 8 23
f 35 4 34
f 36 24 1
f 36 1 9
f 36 16 24
f 38 13 21
f 38 21 4
f 39 9 13
f 40 7 11
f 42 29 20
f 42 20 2
f 42 2 29
f 45 31 18
f 45 18 5
f 45 5 28
f 45 28 31
f 46 32 14
f 47 17 32
f 47 41 17
f 47 46 27
f 47 32 46
f 49 23 10
f 49 48 35
f 49 10 48
f 49 35 34
f 49 34 23
f 50 48 17
f 51 36 9
f 51 9 39
f 51 16 36
f 51 37 50
f 52 13 38
f 53 38 4
f 53 4 35
f 53 52 38
f 53 25 52
f 53 48 25
f 53 35 48
f 54 39 13
f 54 25 39
f 54 52 25
f 54 13 52
f 55 39 25
f 55 51 39
f 55 37 51
f 55 25 48
f 55 50 37
f 55 48 50
f 56 40 26
f 56 7 40
f 57 26 40
f 57 41 26
f 57 17 41
f 57 50 17
f 57 40 50
f 58 30 7
f 58 7 43
f 58 44 30
f 59 19 30
f 59 30 44
f 59 44 18
f 59 18 19
f 60 33 18
f 60 18 44
f 60 44 58
f 60 58 43
f 60 43 27
f 61 46 14
f 61 27 46
f 61 60 27
f 61 14 33
f 61 33 60
f 62 41 47
f 62 43 7
f 62 7 56
f 62 56 26
f 62 26 41
f 62 47 27
f 62 27 43
f 63 32 17
f 63 17 48
f 63 48 10
f 63 10 32
f 64 11 16
f 64 51 50
f 64 16 51
f 64 50 40
f 64 40 11

