# https://github.com/mikedh/trimesh
v 0.02593632 0.02610132 0.02512257
v 0.02593632 -0.02127267 0.02512257
v 0.02600440 -0.02132794 0.01351145
v -0.02150604 0.02619902 0.01341134
v -0.02143767 0.02610132 0.02512257
v 0.02574289 0.02584896 0.01441097
v -0.02267232 -0.03495570 0.02050912
v 0.00153154 -0.03275727 0.02512257
v -0.02092981 -0.03051717 0.01529277
v 0.00153431 -0.03279681 0.01357838
v -0.02110743 -0.03221933 0.01617886
v -0.01945086 -0.03184219 0.01549987
f 1 2 3
f 5 2 1
f 5 1 4
f 6 1 3
f 6 3 4
f 6 4 1
f 7 5 4
f 8 3 2
f 8 2 5
f 8 5 7
f 9 7 4
f 10 8 7
f 10 3 8
f 10 9 4
f 10 4 3
f 11 10 7
f 11 7 9
f 12 11 9
f 12 9 10
f 12 10 11

