# https://github.com/mikedh/trimesh
v 0.02470507 -0.02264066 0.06715930
v 0.02255130 -0.03208509 0.06626596
v 0.02336769 -0.02162209 0.01292051
v 0.00163145 -0.02488728 0.00995812
v 0.00153154 -0.02127267 0.06388310
v 0.02241646 -0.03184318 0.01661945
v 0.00181246 -0.03452310 0.06704530
v 0.01829862 -0.03206363 0.01535173
v 0.00153431 -0.03279681 0.01357838
v 0.02263339 -0.02922953 0.01531340
v 0.02114547 -0.03051235 0.01546037
f 5 1 3
f 5 3 4
f 6 1 2
f 6 3 1
f 7 2 1
f 7 1 5
f 7 6 2
f 8 4 3
f 8 6 7
f 9 7 5
f 9 5 4
f 9 8 7
f 9 4 8
f 10 8 3
f 10 3 6
f 11 10 6
f 11 6 8
f 11 8 10

