# https://github.com/mikedh/trimesh
v 0.02479751 0.00174666 0.07309227
v 0.02348952 -0.02042379 0.06945410
v 0.02450075 0.00169654 0.04809178
v 0.00153154 0.00169654 0.04809178
v 0.00153249 -0.02211669 0.07477615
v 0.00153154 -0.02127267 0.04809178
v 0.00178701 0.00195869 0.07690598
v 0.02450075 -0.02127267 0.04809178
v 0.02218411 -0.01907328 0.07090182
v 0.02079780 -0.02051746 0.07096492
v 0.02346900 -0.01770956 0.07079333
f 6 4 3
f 6 5 4
f 7 1 3
f 7 3 4
f 7 5 1
f 7 4 5
f 8 1 2
f 8 3 1
f 8 6 3
f 8 2 5
f 8 5 6
f 9 1 5
f 10 9 5
f 10 5 2
f 10 2 9
f 11 9 2
f 11 2 1
f 11 1 9

