# https://github.com/mikedh/trimesh
v 0.00228122 0.00207378 0.09393731
v 0.01044452 -0.02183205 0.07380541
v 0.01045373 0.01061116 0.07608099
v -0.00871217 0.01052357 0.07623469
v -0.00885404 -0.02184851 0.07422279
v 0.00215612 0.00738714 0.08854668
v 0.00722011 -0.00180855 0.08908640
v 0.00207935 -0.00588332 0.09127980
v -0.00565348 -0.00164302 0.09123158
v 0.00346449 0.00603916 0.09059004
v 0.01002726 -0.00828280 0.07668574
v 0.00703845 -0.02083556 0.07502250
v 0.00489214 -0.00206382 0.09247372
v -0.00709872 -0.00061063 0.08869852
v -0.00446166 0.00581766 0.08921448
v -0.00198524 -0.00180052 0.09389408
v 0.00620634 0.00265803 0.09079795
v 0.00281100 -0.00403801 0.09265943
v 0.00600249 -0.00176235 0.09117299
v -0.00187290 0.00727886 0.08861916
v -0.00571234 0.00307921 0.09074224
v -0.00436550 -0.00410000 0.09103250
v -0.00285590 -0.00575555 0.09084793
v 0.00719960 0.00077540 0.08871422
v 0.00557767 0.00494580 0.08920021
v 0.00442519 0.00231017 0.09253272
v -0.00092121 -0.00462594 0.09230929
v 0.00305818 -0.00055305 0.09394354
v 0.00110636 0.00608808 0.09122805
v -0.00703626 0.00231763 0.08864492
v -0.00458046 0.00238322 0.09249390
v -0.00430069 -0.00214271 0.09242897
v 0.00206762 0.00473912 0.09259607
v 0.00185667 -0.00204897 0.09387365
v 0.00296326 0.00103977 0.09398100
v -0.00210263 0.00441334 0.09261123
v -0.00182780 0.00218863 0.09391808
v -0.00091179 0.00575405 0.09155914
f 3 2 4
f 5 4 2
f 6 3 4
f 10 3 6
f 11 7 2
f 11 2 3
f 11 3 7
f 12 8 5
f 12 5 2
f 12 2 8
f 14 4 5
f 14 5 9
f 18 8 2
f 18 2 13
f 19 13 2
f 19 2 7
f 19 17 13
f 19 7 17
f 20 6 4
f 20 4 15
f 21 15 4
f 23 22 5
f 24 17 7
f 24 7 3
f 24 3 17
f 25 17 3
f 25 3 10
f 25 10 17
f 26 17 10
f 26 13 17
f 27 8 18
f 27 16 23
f 27 23 5
f 27 5 8
f 28 18 13
f 29 10 6
f 29 6 20
f 30 14 9
f 30 9 21
f 30 21 4
f 30 4 14
f 31 21 9
f 31 15 21
f 32 9 5
f 32 5 22
f 32 31 9
f 32 16 31
f 32 23 16
f 32 22 23
f 33 26 10
f 33 1 26
f 33 10 29
f 34 27 18
f 34 16 27
f 34 28 16
f 34 18 28
f 35 16 28
f 35 26 1
f 35 28 13
f 35 13 26
f 36 15 31
f 37 35 1
f 37 16 35
f 37 1 33
f 37 33 36
f 37 36 31
f 37 31 16
f 38 29 20
f 38 20 15
f 38 15 36
f 38 36 33
f 38 33 29

