# https://github.com/mikedh/trimesh
v 0.00178701 0.00195869 0.07690598
v 0.00153249 -0.02211669 0.07477615
v 0.00153154 0.00169654 0.02512257
v -0.02143767 0.00169654 0.02512257
v -0.02224890 0.00178259 0.07466233
v -0.02267232 -0.03495570 0.02050912
v 0.00153154 -0.03275727 0.02512257
v -0.02089300 -0.02080217 0.07139401
v 0.00153154 -0.03275727 0.04809178
v -0.02143767 -0.03275727 0.04809178
f 1 3 4
f 5 2 1
f 5 1 4
f 6 4 3
f 6 5 4
f 7 3 1
f 7 6 3
f 8 2 5
f 9 7 1
f 9 1 2
f 9 6 7
f 10 8 5
f 10 5 6
f 10 6 9
f 10 9 2
f 10 2 8

