# https://github.com/mikedh/trimesh
v 0.02438329 0.02594758 0.01410456
v 0.02600440 -0.02132794 0.01351145
v 0.01868466 0.00670950 0.00090141
v -0.01182131 0.01610070 0.00065136
v -0.03266754 -0.01398998 0.01424328
v 0.00798890 0.01757236 0.00086942
v 0.02432622 0.00291986 0.00644376
v 0.01853673 -0.02956374 0.01442739
v -0.02832661 0.02297871 0.01436643
v 0.01626604 0.01090571 0.00096552
v 0.02580229 0.02456020 0.01402802
v 0.01898579 -0.00781686 0.00097298
v -0.02014889 0.00424888 0.00082941
v -0.00805960 0.02471036 0.00814163
v -0.02970783 0.02154578 0.01443888
v 0.01204920 0.01514754 0.00098700
v 0.02446699 -0.00389785 0.00644898
v 0.02291733 -0.02539513 0.01406096
v 0.02453578 0.00840323 0.00800515
v -0.01128600 -0.01531461 0.00075579
v -0.00546893 0.01898751 0.00086384
v -0.02150604 0.02619902 0.01341134
v -0.01975024 -0.02948918 0.01443486
v -0.03261222 0.01591965 0.01432243
v -0.01733997 0.01089111 0.00105510
v 0.02457009 -0.00938454 0.00795537
v 0.02295177 0.00411099 0.00506426
v 0.01649383 -0.01194650 0.00092680
v -0.01930213 -0.00809589 0.00105695
v 0.00277920 0.01907772 0.00085335
v 0.00680826 0.02482328 0.00803203
v -0.00918914 0.01762386 0.00071884
v -0.02091936 0.02533907 0.01242963
v 0.00277785 -0.02108607 0.00185347
v -0.03180893 0.00718480 0.01244913
v -0.01887020 0.00828556 0.00080081
v 0.01998941 -0.00779505 0.00205054
v 0.01769207 -0.01053626 0.00104220
v 0.01345321 -0.01695643 0.00222440
v -0.02050529 -0.00378975 0.00097869
v -0.01845676 -0.01160618 0.00172709
v 0.01251123 0.02504335 0.00967644
v -0.00273726 0.02011905 0.00180894
v -0.00394384 -0.02094589 0.00180747
v 0.00287553 -0.03164401 0.01243682
v 0.02484585 -0.01341153 0.00951963
v 0.00815017 -0.01987926 0.00199381
v -0.01667445 -0.01240652 0.00098301
v -0.03181390 -0.00661460 0.01239869
v -0.03123494 -0.01682264 0.01422946
v 0.00005735 0.02003830 0.00168570
v -0.01184902 -0.01830658 0.00229926
v 0.01287350 -0.03242089 0.01432838
v -0.00263765 -0.03156849 0.01240027
v -0.02122459 -0.02816030 0.01428034
v -0.01695411 -0.03094968 0.01435445
v -0.01402306 -0.01504342 0.00092382
v -0.01272905 -0.03244621 0.01423195
f 6 3 4
f 10 3 6
f 11 1 8
f 11 3 10
f 15 8 1
f 15 1 9
f 16 10 6
f 16 6 1
f 16 11 10
f 16 1 11
f 17 11 2
f 17 7 11
f 18 11 8
f 18 2 11
f 19 11 7
f 19 3 11
f 20 13 4
f 22 9 1
f 22 14 21
f 23 15 5
f 23 8 15
f 24 5 15
f 25 15 9
f 25 9 4
f 26 17 2
f 27 17 12
f 27 12 3
f 27 7 17
f 27 19 7
f 27 3 19
f 28 2 18
f 28 3 12
f 28 20 4
f 28 4 3
f 30 6 4
f 31 22 1
f 31 14 22
f 32 22 21
f 32 30 4
f 32 21 30
f 33 4 9
f 33 9 22
f 33 32 4
f 33 22 32
f 34 20 28
f 35 24 13
f 35 5 24
f 36 25 4
f 36 4 13
f 36 13 24
f 36 24 15
f 36 15 25
f 37 2 12
f 37 12 17
f 37 17 26
f 38 28 12
f 38 12 2
f 38 2 28
f 39 28 18
f 39 18 8
f 40 29 5
f 40 13 20
f 40 35 13
f 41 5 29
f 42 1 6
f 42 6 30
f 42 31 1
f 42 30 31
f 43 21 14
f 43 14 31
f 44 20 34
f 46 37 26
f 46 26 2
f 46 2 37
f 47 34 28
f 47 28 39
f 47 39 8
f 48 40 20
f 48 29 40
f 48 41 29
f 49 40 5
f 49 5 35
f 49 35 40
f 50 23 5
f 50 5 41
f 51 43 31
f 51 31 30
f 51 30 21
f 51 21 43
f 53 8 23
f 53 47 8
f 53 45 34
f 53 34 47
f 54 44 34
f 54 34 45
f 55 23 50
f 55 50 41
f 55 41 48
f 56 52 44
f 56 23 52
f 56 53 23
f 57 20 44
f 57 44 52
f 57 48 20
f 57 55 48
f 57 52 23
f 57 23 55
f 58 54 45
f 58 45 53
f 58 53 56
f 58 56 44
f 58 44 54

