# https://github.com/mikedh/trimesh
v -0.04049942 0.02267789 0.02515260
v -0.03292227 -0.01840152 0.02512257
v -0.03469216 0.02439818 0.02034549
v -0.03235412 0.01861004 0.01479979
v -0.04561247 -0.00809558 0.02005780
v -0.03250221 0.02297092 0.01611914
v -0.04566553 -0.00944664 0.02514240
v -0.03223188 -0.01791107 0.01501653
v -0.04002053 0.02252673 0.01908864
v -0.04274361 0.01823765 0.02517221
v -0.03489180 -0.00391317 0.01394405
v -0.04286856 -0.01776720 0.02023441
v -0.03902426 0.02257779 0.01828056
v -0.04579122 0.00714341 0.02510627
v -0.04123274 0.02085719 0.01993303
v -0.03228274 -0.00958141 0.01333564
v -0.04411872 -0.01496322 0.02095702
v -0.04197165 -0.01791346 0.01909973
v -0.04308218 -0.01788599 0.02509898
v -0.03390999 0.02295133 0.01659597
v -0.04362209 0.01150826 0.01821319
v -0.04564235 -0.00390360 0.01909156
v -0.04144048 0.02094105 0.02516357
v -0.03224563 0.01156925 0.01340512
v -0.04560389 -0.00943267 0.02229809
v -0.04410494 -0.01219827 0.01909031
v -0.04088359 -0.01665313 0.01827310
v -0.04424899 -0.01495026 0.02508356
v -0.04036226 0.01966822 0.01813914
v -0.04139477 0.01967655 0.01920781
v -0.04407298 0.01395262 0.02098640
v -0.04557516 -0.00121139 0.01893286
v -0.04263784 0.01824072 0.02231818
v -0.03503783 0.00449749 0.01397083
v -0.04284359 -0.01619773 0.01915254
v -0.04374669 -0.00954487 0.01832549
v -0.04422645 0.01416638 0.02513149
v -0.04416811 0.01136966 0.01897653
v -0.04564991 0.00719787 0.01994114
v -0.04228744 -0.01382767 0.01832691
f 1 2 3
f 6 3 2
f 6 2 4
f 8 4 2
f 9 1 3
f 10 7 2
f 13 9 3
f 14 7 10
f 15 1 9
f 18 8 2
f 19 2 7
f 19 17 12
f 19 18 2
f 19 12 18
f 20 13 3
f 20 3 6
f 20 6 4
f 20 4 13
f 22 5 7
f 22 7 14
f 23 1 15
f 23 10 2
f 23 2 1
f 24 4 8
f 24 8 16
f 25 7 5
f 25 5 17
f 26 17 5
f 26 12 17
f 26 5 22
f 27 16 8
f 27 8 18
f 28 19 7
f 28 17 19
f 28 25 17
f 28 7 25
f 29 9 13
f 29 24 21
f 29 13 4
f 29 4 24
f 30 15 9
f 30 29 21
f 30 9 29
f 31 15 30
f 33 23 15
f 33 10 23
f 33 15 31
f 34 24 16
f 34 16 11
f 34 21 24
f 34 32 21
f 34 11 32
f 35 18 12
f 35 12 26
f 36 26 22
f 36 11 16
f 36 35 26
f 36 32 11
f 36 22 32
f 37 14 10
f 37 33 31
f 37 10 33
f 38 31 30
f 38 30 21
f 39 32 22
f 39 22 14
f 39 31 38
f 39 37 31
f 39 14 37
f 39 38 21
f 39 21 32
f 40 27 18
f 40 18 35
f 40 35 36
f 40 36 16
f 40 16 27

