# https://github.com/mikedh/trimesh
v 0.00889151 0.02871144 0.03406719
v 0.00928375 0.02327272 0.03353983
v 0.00876104 0.02357575 0.02683039
v -0.01957137 0.01690409 0.02712998
v -0.03002382 0.00157353 0.03289418
v -0.00965489 0.02702991 0.03078675
v -0.02527203 0.01715254 0.03424089
v -0.01287646 0.00157439 0.02618396
v 0.00411558 0.02806821 0.03083079
v -0.00871735 0.02434368 0.02697246
v -0.01068806 0.02836393 0.03417567
v -0.01776249 0.02336185 0.03166112
v -0.02604739 0.01153843 0.02997071
v 0.00891334 0.01743478 0.02708330
v -0.02406618 0.00154064 0.03218740
v 0.00871896 0.02625572 0.02995524
v -0.02564307 0.00151584 0.02672140
v -0.00040544 0.02520354 0.02688392
v 0.00692853 0.02932505 0.03418807
v -0.00503067 0.02902547 0.03248376
v -0.02322751 0.01880493 0.03259749
v -0.01320876 0.02251344 0.02712569
v -0.01413251 0.02523193 0.03081447
v -0.01796083 0.02453400 0.03417499
v -0.02921608 0.00808144 0.03324190
v 0.00922269 0.01814716 0.02826409
v 0.00684863 0.02805934 0.03170316
v 0.00680843 0.02432010 0.02695092
v -0.02422473 0.00976457 0.02719814
v -0.02929031 0.00152217 0.03143234
v -0.01340603 0.02732033 0.03421325
v -0.00964904 0.02798153 0.03252921
v -0.00416162 0.02815110 0.03079830
v 0.00498495 0.02903469 0.03262540
v -0.00695856 0.02937818 0.03414423
v -0.01869528 0.01791558 0.02718681
v -0.02414942 0.01603982 0.03091362
v -0.01595632 0.02342627 0.02999053
v -0.01052326 0.02615841 0.02989256
v -0.01590394 0.02519747 0.03255191
v -0.01960327 0.02242558 0.03253246
v -0.02714565 0.01343578 0.03331965
v 0.00870724 0.02805380 0.03258528
v 0.00598096 0.02623632 0.02905790
v 0.00132072 0.02526338 0.02702081
v -0.02701224 0.00607277 0.02904279
v -0.02238001 0.01332433 0.02718031
v -0.02885398 0.00611174 0.03165425
v -0.00781582 0.02800059 0.03164484
v -0.01232508 0.02705837 0.03251189
v -0.00787542 0.02619460 0.02899194
v -0.01063433 0.02805107 0.03335227
v -0.01592304 0.02061279 0.02718193
v -0.02504357 0.01699411 0.03344401
v -0.02146001 0.01608798 0.02824158
v -0.01322998 0.02432527 0.02908000
v -0.01784665 0.02431606 0.03341121
v -0.01518359 0.02635835 0.03417864
v -0.02605476 0.01577120 0.03391358
v -0.02790266 0.00973559 0.03165925
v -0.02687776 0.01328805 0.03258082
v 0.00683849 0.02904418 0.03346272
v -0.02524676 0.00609826 0.02708673
v -0.02701921 0.00886315 0.02994866
f 1 2 3
f 7 5 2
f 7 2 1
f 14 8 3
f 15 8 2
f 15 2 5
f 16 1 3
f 17 10 8
f 17 4 10
f 17 8 15
f 18 3 8
f 18 8 10
f 19 7 1
f 22 10 4
f 24 21 7
f 25 5 7
f 26 14 3
f 26 3 2
f 26 2 8
f 26 8 14
f 27 16 9
f 28 16 3
f 28 3 18
f 30 17 15
f 30 15 5
f 31 7 19
f 31 24 7
f 33 9 18
f 34 33 20
f 34 9 33
f 34 27 9
f 35 34 20
f 35 19 34
f 35 31 19
f 35 11 31
f 38 12 23
f 40 23 12
f 41 21 24
f 41 36 21
f 41 12 36
f 43 1 16
f 43 16 27
f 44 28 9
f 44 9 16
f 44 16 28
f 45 28 18
f 45 18 9
f 45 9 28
f 46 17 30
f 47 29 13
f 47 4 17
f 47 17 29
f 47 13 37
f 48 30 5
f 48 5 25
f 48 46 30
f 49 6 32
f 49 20 33
f 49 35 20
f 49 32 35
f 50 31 11
f 50 40 31
f 50 23 40
f 50 32 6
f 50 39 23
f 50 6 39
f 51 33 18
f 51 18 10
f 51 49 33
f 51 6 49
f 51 39 6
f 51 10 39
f 52 35 32
f 52 11 35
f 52 50 11
f 52 32 50
f 53 22 4
f 53 4 36
f 53 38 22
f 53 36 12
f 53 12 38
f 54 7 21
f 54 21 37
f 55 36 4
f 55 47 37
f 55 4 47
f 55 37 21
f 55 21 36
f 56 38 23
f 56 22 38
f 56 23 39
f 56 39 10
f 56 10 22
f 57 40 12
f 57 41 24
f 57 12 41
f 58 24 31
f 58 31 40
f 58 57 24
f 58 40 57
f 59 42 25
f 59 25 7
f 59 7 54
f 60 25 42
f 60 48 25
f 61 37 13
f 61 60 42
f 61 13 60
f 61 54 37
f 61 59 54
f 61 42 59
f 62 19 1
f 62 1 43
f 62 34 19
f 62 43 27
f 62 27 34
f 63 29 17
f 63 17 46
f 64 13 29
f 64 63 46
f 64 29 63
f 64 60 13
f 64 46 48
f 64 48 60

