# https://github.com/mikedh/trimesh
v 0.01982691 0.01531519 0.02684823
v 0.02367113 -0.00310380 0.02579834
v 0.01186730 0.00697065 0.00017907
v -0.01596543 0.01602933 0.00012858
v -0.02355904 -0.00665600 0.02581914
v 0.00265201 0.01978961 0.00011790
v 0.02127938 0.00518214 0.01455333
v 0.00512019 -0.02269749 0.02581321
v -0.01344528 0.02195455 0.02669121
v 0.00542072 -0.00870357 0.00011080
v 0.02373445 0.00805814 0.02672968
v 0.01663683 0.01596537 0.01520166
v -0.02370779 0.00994736 0.02668574
v -0.00760675 0.02057916 0.00017845
v 0.00504346 0.02463698 0.02674693
v 0.00915156 0.01308778 0.00010514
v 0.01662813 -0.01286650 0.01508968
v -0.01137230 -0.01831924 0.01449072
v 0.02428661 0.00157324 0.02623666
v 0.02028588 0.00971738 0.01526867
v -0.01983897 0.01623624 0.02679520
v -0.02317039 -0.00022037 0.01440070
v -0.01336141 -0.01972559 0.02593461
v -0.02466860 0.00710736 0.02675070
v -0.01374611 0.01793612 0.00011477
v -0.00611521 0.02468668 0.02668559
v 0.00491104 0.02320783 0.01526020
v 0.01252650 0.02177462 0.02681846
v 0.01209991 -0.00157455 0.00012717
v 0.01899419 -0.01418302 0.02594582
v 0.00665410 -0.01922804 0.01456137
v 0.02133405 -0.00295541 0.01518685
v -0.01217041 -0.00879408 0.00020494
v 0.02128349 0.00697320 0.01572292
v 0.01851864 0.01344916 0.01527904
v 0.02033678 0.00882535 0.01468576
v -0.01614911 0.02004485 0.02683373
v -0.02182353 0.01357718 0.02674540
v -0.00975953 -0.02162344 0.02587872
v -0.01948063 -0.01193975 0.01515160
v -0.02065832 -0.01219056 0.02585858
v -0.02524659 0.00157316 0.02622999
v -0.02234785 0.00884626 0.01512575
v 0.00049339 0.02050016 0.00013837
v -0.01053208 0.01971297 0.00021424
v -0.01750878 0.00197028 0.00014979
v 0.00133911 0.02334408 0.01456212
v 0.01137598 0.02055380 0.01519233
v 0.01525995 0.01998396 0.02680812
v 0.00765672 0.02239397 0.01509515
v 0.01098726 0.00971711 0.00011999
v 0.01483015 -0.01369212 0.01385876
v 0.02174797 -0.00957827 0.02589719
v 0.01069472 -0.02077375 0.02586951
v -0.00418168 -0.02015392 0.01455346
v 0.02117150 -0.00206921 0.01443810
v 0.02036019 -0.00655512 0.01530896
v 0.01759166 0.01421147 0.01455727
v 0.02181325 0.01262356 0.02675860
v -0.00980956 0.02379955 0.02670726
v -0.01580172 -0.01561496 0.01503968
v -0.02232857 -0.00663860 0.01525611
v -0.01740666 0.01295669 0.00022713
v -0.02322886 0.00515031 0.01510565
f 16 6 12
f 19 7 11
f 24 11 1
f 25 6 16
f 25 16 10
f 29 10 16
f 29 3 7
f 32 19 2
f 34 20 11
f 34 11 7
f 36 7 3
f 36 34 7
f 36 20 34
f 37 4 21
f 37 25 4
f 37 9 25
f 37 28 15
f 37 1 28
f 37 24 1
f 37 21 24
f 38 21 4
f 38 24 21
f 38 13 24
f 39 24 23
f 39 11 24
f 39 23 18
f 41 23 24
f 41 40 23
f 42 41 24
f 42 5 41
f 43 24 13
f 43 38 4
f 43 13 38
f 44 25 14
f 44 6 25
f 45 25 9
f 45 14 25
f 46 25 10
f 46 4 25
f 46 10 33
f 47 26 15
f 47 15 27
f 47 14 26
f 47 44 14
f 47 27 44
f 48 12 6
f 49 28 1
f 49 1 12
f 49 48 28
f 49 12 48
f 50 27 15
f 50 15 28
f 50 28 48
f 50 48 6
f 50 44 27
f 50 6 44
f 51 29 16
f 51 3 29
f 51 36 3
f 51 20 36
f 51 35 20
f 51 16 35
f 52 29 17
f 52 10 29
f 52 31 10
f 53 2 19
f 53 19 11
f 53 11 30
f 53 30 17
f 54 30 11
f 54 8 31
f 54 17 30
f 54 52 17
f 54 31 52
f 54 39 8
f 54 11 39
f 55 31 8
f 55 18 33
f 55 33 10
f 55 10 31
f 55 39 18
f 55 8 39
f 56 7 19
f 56 19 32
f 56 29 7
f 57 17 29
f 57 56 32
f 57 29 56
f 57 53 17
f 57 32 2
f 57 2 53
f 58 35 16
f 58 16 12
f 58 12 35
f 59 35 12
f 59 12 1
f 59 1 11
f 59 11 20
f 59 20 35
f 60 9 37
f 60 45 9
f 60 26 14
f 60 14 45
f 60 37 15
f 60 15 26
f 61 18 23
f 61 23 40
f 61 40 33
f 61 33 18
f 62 22 46
f 62 46 33
f 62 33 40
f 62 42 22
f 62 5 42
f 62 41 5
f 62 40 41
f 63 43 4
f 63 46 22
f 63 4 46
f 64 42 24
f 64 24 43
f 64 22 42
f 64 63 22
f 64 43 63

