# https://github.com/mikedh/trimesh
v 0.02656845 0.01458002 0.04926093
v 0.03084617 0.00155524 0.04856134
v 0.02989837 0.00976278 0.03876401
v 0.02166004 0.01507056 0.03858896
v 0.02306291 0.01542594 0.04878102
v 0.02603773 0.00158902 0.03841831
v 0.02799195 0.01436349 0.03871996
v 0.02978504 0.00884884 0.04781790
v 0.02883657 0.00163023 0.04904398
v 0.03128911 0.00155428 0.03867298
v 0.02204817 0.01540509 0.04518331
v 0.02379720 0.01526040 0.04947459
v 0.02255646 0.01369266 0.03848064
v 0.02914749 0.00892477 0.04902621
v 0.02791144 0.01427423 0.04512521
v 0.02721842 0.00160585 0.04507126
v 0.03084478 0.00614042 0.04426758
v 0.03080242 0.00613130 0.03873327
v 0.03027899 0.00156568 0.04911947
v 0.02889595 0.01069974 0.04871049
v 0.02983231 0.00796578 0.04853824
v 0.02984446 0.00978089 0.04516222
v 0.02828329 0.00170857 0.04843205
v 0.03078611 0.00425720 0.04798731
v 0.02815201 0.01171357 0.04911127
v 0.02794178 0.01335560 0.04785059
v 0.03011047 0.00522343 0.04901527
v 0.02887868 0.01250409 0.04422861
v 0.02878779 0.01153110 0.04785017
v 0.02711378 0.01437285 0.04864957
v 0.03075737 0.00333406 0.04851583
v 0.02886210 0.01250256 0.03877923
v 0.02725705 0.01350265 0.04915925
f 10 2 6
f 10 6 7
f 11 4 6
f 11 7 4
f 11 5 7
f 12 7 5
f 12 1 7
f 12 5 9
f 13 7 6
f 13 6 4
f 13 4 7
f 15 7 1
f 16 11 6
f 16 5 11
f 18 10 7
f 18 7 3
f 18 17 10
f 18 3 17
f 19 12 9
f 19 1 12
f 19 9 16
f 19 16 6
f 19 6 2
f 21 20 14
f 21 8 20
f 22 17 3
f 22 8 17
f 23 16 9
f 23 9 5
f 23 5 16
f 24 2 10
f 24 10 17
f 24 17 8
f 24 8 21
f 25 1 19
f 25 14 20
f 27 19 2
f 27 21 14
f 27 25 19
f 27 14 25
f 28 22 3
f 28 7 15
f 28 15 26
f 29 20 8
f 29 8 22
f 29 22 28
f 29 28 26
f 29 26 20
f 30 20 26
f 30 26 15
f 30 15 1
f 31 24 21
f 31 21 27
f 31 27 2
f 31 2 24
f 32 28 3
f 32 3 7
f 32 7 28
f 33 25 20
f 33 20 30
f 33 30 1
f 33 1 25

