# https://github.com/mikedh/trimesh
v 0.01671483 0.00635295 0.02806161
v 0.01707589 -0.01400562 0.03059004
v 0.01665082 -0.01460188 0.02530002
v -0.00618744 -0.01179509 0.02508213
v -0.00619350 -0.01475226 0.02586256
v 0.00715129 0.00157454 0.02524982
v 0.01676760 -0.01470946 0.03090012
v 0.01118422 0.00645869 0.02616264
v -0.00619443 -0.01470088 0.02505749
v 0.01615178 -0.01501142 0.03055912
v 0.01098446 0.00635350 0.02610862
v 0.01632877 0.00144600 0.02627491
v 0.01631802 0.00619107 0.02699221
v 0.01421306 0.00650149 0.02702363
f 1 2 3
f 7 2 1
f 7 1 5
f 7 3 2
f 8 5 1
f 8 4 5
f 9 5 4
f 9 6 3
f 9 4 6
f 10 7 5
f 10 3 7
f 10 9 3
f 10 5 9
f 11 6 4
f 11 4 8
f 12 1 3
f 12 3 6
f 12 6 11
f 13 1 12
f 13 12 11
f 13 11 8
f 14 13 8
f 14 8 1
f 14 1 13

