# https://github.com/mikedh/trimesh
v 0.02799195 0.01436349 0.03871996
v 0.03099195 -0.00402320 0.03870560
v 0.02796352 0.00523900 0.03080883
v 0.01745439 0.01566937 0.02568743
v 0.02089123 -0.01491960 0.03850687
v 0.02417896 0.01429541 0.03002396
v 0.03082081 0.00523694 0.03782917
v 0.02823116 -0.01326315 0.03871228
v 0.02166004 0.01507056 0.03858896
v 0.01665082 -0.01460188 0.02530002
v 0.02879900 0.00975421 0.03432734
v 0.02382327 0.00156379 0.02562675
v 0.02600645 0.01429247 0.03260068
v 0.03094733 0.00526527 0.03873823
v 0.02983768 0.00063886 0.03340476
v 0.01712432 0.01517234 0.03036427
v 0.02989837 0.00976278 0.03876401
v 0.02765506 -0.01437570 0.03867423
v 0.02423165 0.00796102 0.02722768
v 0.02687800 0.01425597 0.03436784
v 0.02694551 0.00976138 0.03089723
v 0.03078287 0.00431476 0.03692477
v 0.02998325 -0.00864096 0.03872363
v 0.02985996 0.00522316 0.03428964
v 0.02890466 -0.00029143 0.03165416
v 0.01710727 -0.01500941 0.03154781
v 0.01632877 0.00144600 0.02627491
v 0.02791831 0.01336434 0.03606899
v 0.02984746 0.00703524 0.03518435
v 0.02701588 0.00704692 0.03000244
v 0.02329680 0.01067708 0.02721668
v 0.02694312 0.01247716 0.03262219
v 0.03081480 -0.00307693 0.03693261
v 0.02892020 0.00617112 0.03253781
v 0.02981848 0.00153888 0.03341015
v 0.02889597 0.00150136 0.03163478
v 0.02516117 -0.01132393 0.03001417
v 0.01836517 -0.01523916 0.03332007
v 0.02878843 0.01068407 0.03520233
v 0.02976244 0.00974105 0.03786041
v 0.02788489 0.01431527 0.03792063
v 0.02516742 0.00797417 0.02818727
v 0.02075753 0.01433309 0.02696616
v 0.02513958 0.01245066 0.02996718
v 0.02977650 -0.00764007 0.03612254
v 0.02321621 -0.00661406 0.02624582
v 0.02518648 -0.01409643 0.03175031
v 0.02515324 0.01067578 0.02910423
v 0.02240096 0.01243478 0.02720971
v 0.02241006 0.01426129 0.02827345
v 0.02599465 0.01337675 0.03174503
v 0.03087016 -0.00398455 0.03782830
v 0.02879367 -0.01126579 0.03699811
v 0.02785866 -0.00761952 0.03175883
v 0.02976799 -0.00488549 0.03430793
v 0.01961089 -0.01397030 0.02632483
v 0.02800602 -0.00400496 0.03081981
v 0.02988096 -0.00859081 0.03783190
v 0.02904708 -0.01139123 0.03870438
v 0.02795939 -0.01316401 0.03696947
v 0.02700540 -0.00582799 0.02999196
v 0.02690422 -0.01038000 0.03174585
v 0.02971610 -0.00670730 0.03521107
v 0.02136134 -0.01124337 0.02630941
f 9 1 4
f 9 5 8
f 12 10 4
f 13 6 4
f 16 9 4
f 16 5 9
f 17 9 8
f 17 1 9
f 17 14 7
f 18 8 5
f 20 13 4
f 20 4 1
f 22 14 2
f 22 7 14
f 23 2 14
f 23 17 8
f 23 14 17
f 26 5 16
f 27 16 4
f 27 4 10
f 27 26 16
f 27 10 26
f 29 7 22
f 29 22 24
f 30 3 12
f 31 19 12
f 31 12 4
f 32 13 20
f 32 11 21
f 33 22 2
f 33 15 22
f 34 21 11
f 34 29 24
f 34 11 29
f 34 30 21
f 34 3 30
f 35 24 22
f 35 22 15
f 35 34 24
f 36 25 12
f 36 12 3
f 36 3 34
f 36 34 35
f 36 35 15
f 36 15 25
f 38 18 5
f 38 5 26
f 38 26 10
f 39 20 28
f 39 32 20
f 39 11 32
f 39 29 11
f 40 39 28
f 40 29 39
f 40 17 7
f 40 7 29
f 41 28 20
f 41 20 1
f 41 40 28
f 41 1 17
f 41 17 40
f 42 30 12
f 42 12 19
f 46 10 12
f 47 38 10
f 47 18 38
f 48 21 30
f 48 30 42
f 48 44 21
f 48 31 44
f 48 42 19
f 48 19 31
f 49 31 4
f 49 4 43
f 49 44 31
f 49 6 44
f 50 43 4
f 50 4 6
f 50 49 43
f 50 6 49
f 51 32 21
f 51 21 44
f 51 13 32
f 51 44 6
f 51 6 13
f 52 45 33
f 52 33 2
f 55 15 33
f 55 25 15
f 56 47 10
f 57 12 25
f 57 55 54
f 57 25 55
f 58 52 2
f 58 2 23
f 58 45 52
f 58 53 45
f 59 23 8
f 59 8 53
f 59 58 23
f 59 53 58
f 60 53 8
f 60 8 18
f 60 18 47
f 61 54 37
f 61 37 46
f 61 57 54
f 61 46 12
f 61 12 57
f 62 47 37
f 62 37 54
f 62 60 47
f 62 53 60
f 62 45 53
f 63 55 33
f 63 33 45
f 63 54 55
f 63 62 54
f 63 45 62
f 64 46 37
f 64 37 47
f 64 47 56
f 64 56 10
f 64 10 46

