# https://github.com/mikedh/trimesh
v -0.01469373 0.02520910 0.05012601
v -0.01495751 0.02383577 0.04998162
v -0.01520375 0.02025749 0.03356684
v -0.02613153 0.01526592 0.03337636
v -0.02918041 0.00895746 0.04881689
v -0.01446166 0.02672361 0.03407458
v -0.02862932 0.00908043 0.04943213
v -0.02419391 0.01975133 0.04325719
v -0.02312953 0.00942470 0.03233520
v -0.01439371 0.02655266 0.04878937
v -0.02067159 0.01989543 0.05003005
v -0.02886586 0.01248867 0.03779632
v -0.02053222 0.02336027 0.03694700
v -0.01559533 0.02180062 0.04683813
v -0.01999309 0.01529165 0.03246289
v -0.02610488 0.01519621 0.04918876
v -0.01872989 0.02341493 0.04945948
v -0.02422601 0.01979601 0.03782546
v -0.02904756 0.00892949 0.03334075
v -0.01957845 0.02333470 0.03428553
v -0.01695714 0.02616110 0.04416182
v -0.02541390 0.00964219 0.04759601
v -0.02797082 0.01160167 0.04916613
v -0.02031451 0.02138678 0.04996406
v -0.02789255 0.01428051 0.04325011
v -0.01601664 0.02537345 0.04946560
v -0.02227864 0.02056921 0.04859407
v -0.02598244 0.01700023 0.03604643
v -0.01966427 0.02435907 0.04233745
v -0.03006917 0.00893881 0.03686739
v -0.02874584 0.01151699 0.03515266
v -0.01686732 0.02612873 0.03697577
v -0.02330550 0.02064884 0.03690607
v -0.01438007 0.02747931 0.04515341
v -0.01543632 0.02254415 0.04860923
v -0.02633631 0.00961655 0.04903230
v -0.02453431 0.00967677 0.04501786
v -0.01623277 0.02477152 0.04987012
v -0.02503513 0.01790981 0.04689306
v -0.02784402 0.01331060 0.04692820
v -0.02794046 0.01433779 0.03778985
v -0.01687410 0.02524758 0.04858850
v -0.02138512 0.02150242 0.04861615
v -0.02414218 0.01786837 0.04930736
v -0.01964328 0.02436607 0.03871601
v -0.03009244 0.00894652 0.04330391
v -0.02882181 0.00972047 0.03342749
v -0.02687688 0.01518849 0.03515702
v -0.02981269 0.00977377 0.03685447
v -0.01691289 0.02530547 0.03427558
v -0.02412200 0.01877045 0.03433804
v -0.01439138 0.02754022 0.03684515
v -0.02600626 0.01699058 0.04509840
v -0.02232406 0.02153898 0.04509985
v -0.02784039 0.01242335 0.04867453
v -0.02689072 0.01426231 0.04860515
v -0.02885289 0.01249077 0.04235372
v -0.01964618 0.02339503 0.04781779
v -0.01513164 0.02619866 0.04872357
v -0.01509535 0.02712768 0.04508685
v -0.02412317 0.01875470 0.04781652
v -0.02882939 0.01155214 0.04605425
v -0.02983358 0.00978201 0.04328667
v -0.01600598 0.02620478 0.03513072
f 9 7 5
f 10 3 6
f 10 1 2
f 10 2 3
f 11 7 2
f 11 2 1
f 14 9 3
f 14 3 2
f 15 6 3
f 15 3 9
f 15 9 4
f 15 4 6
f 19 9 5
f 19 4 9
f 20 6 4
f 23 5 7
f 23 7 16
f 24 16 7
f 24 7 11
f 24 11 1
f 26 1 10
f 29 18 8
f 32 20 13
f 33 13 20
f 33 28 18
f 35 14 2
f 35 2 22
f 36 22 2
f 36 2 7
f 36 7 22
f 37 22 7
f 37 7 9
f 37 9 14
f 37 35 22
f 37 14 35
f 38 24 1
f 38 17 24
f 38 26 17
f 38 1 26
f 41 25 8
f 41 8 18
f 41 18 28
f 41 31 12
f 42 17 26
f 43 27 24
f 43 24 17
f 44 16 24
f 44 24 27
f 45 18 29
f 45 33 18
f 45 13 33
f 45 32 13
f 45 29 21
f 45 21 32
f 46 30 19
f 46 19 5
f 47 31 4
f 47 4 19
f 48 4 31
f 48 41 28
f 48 31 41
f 49 12 31
f 49 30 46
f 49 31 47
f 49 47 19
f 49 19 30
f 50 6 20
f 50 20 32
f 51 33 20
f 51 20 4
f 51 28 33
f 51 48 28
f 51 4 48
f 52 34 10
f 52 10 6
f 52 32 21
f 53 39 8
f 53 8 25
f 53 25 40
f 54 8 39
f 54 27 43
f 54 29 8
f 55 23 16
f 55 5 23
f 56 16 39
f 56 53 40
f 56 39 53
f 56 55 16
f 56 40 55
f 57 41 12
f 57 25 41
f 58 42 21
f 58 21 29
f 58 29 54
f 58 54 43
f 58 43 17
f 58 17 42
f 59 42 26
f 59 26 10
f 59 10 34
f 60 21 42
f 60 52 21
f 60 34 52
f 60 59 34
f 60 42 59
f 61 39 16
f 61 16 44
f 61 44 27
f 61 54 39
f 61 27 54
f 62 46 5
f 62 40 25
f 62 25 57
f 62 55 40
f 62 5 55
f 63 49 46
f 63 12 49
f 63 57 12
f 63 62 57
f 63 46 62
f 64 50 32
f 64 6 50
f 64 52 6
f 64 32 52

