# https://github.com/mikedh/trimesh
v -0.02406618 0.00154064 0.03218740
v -0.00521258 -0.02874270 0.03204858
v -0.00238468 0.00157574 0.02524010
v -0.02481969 0.00155203 0.02554025
v -0.02565483 -0.01524367 0.03321520
v -0.00510777 -0.02338927 0.02611506
v -0.00243448 0.00165254 0.02524897
v -0.01428041 -0.02615400 0.03333468
v -0.03015759 0.00155854 0.03320267
v -0.00510259 -0.02795452 0.03077033
v -0.00238868 0.00062827 0.02516420
v -0.02036032 -0.01287690 0.02610582
v -0.00548845 -0.02243820 0.03131055
v -0.02813815 -0.00581703 0.03065682
v -0.02252056 -0.01963295 0.03337406
v -0.01053101 -0.02501004 0.02916310
v -0.02818725 0.00152026 0.02971895
v -0.02947300 -0.00595064 0.03313620
v -0.02425988 -0.01493048 0.03086111
v -0.02411658 -0.00570773 0.02615821
v -0.00687887 -0.02695475 0.02997118
v -0.01325356 -0.02038377 0.02643947
v -0.02983463 -0.00029520 0.03245652
v -0.02799581 -0.00397645 0.02990348
v -0.02912944 -0.00586678 0.03238425
v -0.03016503 -0.00032021 0.03322676
v -0.02453075 -0.01699077 0.03329476
v -0.02534717 -0.01505714 0.03250278
v -0.02713450 -0.00485167 0.02903092
v -0.02255008 -0.01496347 0.02917104
v -0.00681191 -0.02316744 0.02633649
v -0.00871136 -0.02770279 0.03173389
v -0.01141755 -0.02129519 0.02631325
v -0.01684965 -0.02220074 0.03007221
v -0.02983880 0.00152349 0.03247939
v -0.02512719 -0.00031345 0.02605371
v -0.02890251 -0.00487942 0.03159444
v -0.02235301 -0.01768228 0.03093470
v -0.02427030 -0.01676556 0.03257380
v -0.00595357 -0.02783739 0.03083363
v -0.00880544 -0.02807182 0.03240112
v -0.01137212 -0.02677524 0.03177134
v -0.00960822 -0.02683117 0.03089278
v -0.01238269 -0.02323224 0.02831485
v -0.01710753 -0.02439389 0.03331454
v -0.01961097 -0.01862930 0.02924779
v -0.02045841 -0.02125537 0.03261644
v -0.02226625 -0.01943219 0.03266014
v -0.01318196 -0.02587041 0.03174823
v -0.01276786 -0.02681152 0.03300145
v -0.01232094 -0.02498485 0.02999786
v -0.01415070 -0.02320111 0.02920550
v -0.02070189 -0.02147269 0.03334511
v -0.01596364 -0.01955770 0.02739284
v -0.02150184 -0.01767587 0.03011727
v -0.01783141 -0.02045508 0.02923663
v -0.01868488 -0.02217790 0.03176446
v -0.01689295 -0.02409486 0.03254721
v -0.01410087 -0.02586648 0.03258294
v -0.01416464 -0.02400891 0.03003557
v -0.01778879 -0.01771776 0.02739338
f 7 3 4
f 8 2 1
f 9 7 4
f 9 1 7
f 9 8 1
f 11 6 4
f 11 4 3
f 11 10 6
f 11 3 2
f 11 2 10
f 12 4 6
f 13 7 1
f 13 1 2
f 13 2 3
f 13 3 7
f 15 8 9
f 17 9 4
f 20 4 12
f 21 6 10
f 24 23 17
f 25 5 18
f 26 15 9
f 26 23 18
f 26 9 23
f 27 18 5
f 27 26 18
f 27 15 26
f 28 14 19
f 28 25 14
f 28 5 25
f 29 20 19
f 29 19 14
f 29 14 24
f 30 20 12
f 30 19 20
f 31 21 16
f 31 6 21
f 33 22 12
f 33 12 6
f 33 6 31
f 33 31 16
f 35 23 9
f 35 9 17
f 35 17 23
f 36 24 17
f 36 17 4
f 36 29 24
f 36 4 20
f 36 20 29
f 37 24 14
f 37 14 25
f 37 23 24
f 37 25 18
f 37 18 23
f 38 19 30
f 39 27 5
f 39 5 28
f 39 28 19
f 39 19 38
f 40 32 21
f 40 21 10
f 40 10 2
f 40 2 32
f 41 32 2
f 41 2 8
f 42 32 41
f 43 16 21
f 43 21 32
f 43 32 42
f 44 33 16
f 44 22 33
f 46 30 12
f 48 39 38
f 48 15 27
f 48 27 39
f 48 47 15
f 48 38 47
f 50 42 41
f 50 41 8
f 50 49 42
f 51 43 42
f 51 16 43
f 51 42 49
f 51 44 16
f 52 22 44
f 52 44 51
f 53 45 8
f 53 8 15
f 53 47 45
f 53 15 47
f 54 12 22
f 54 22 52
f 55 38 30
f 55 30 46
f 56 38 55
f 56 55 46
f 56 54 52
f 56 52 34
f 57 45 47
f 57 56 34
f 57 47 38
f 57 38 56
f 58 57 34
f 58 45 57
f 59 50 8
f 59 49 50
f 59 58 49
f 59 8 45
f 59 45 58
f 60 52 51
f 60 51 49
f 60 34 52
f 60 58 34
f 60 49 58
f 61 46 12
f 61 12 54
f 61 56 46
f 61 54 56

