# https://github.com/mikedh/trimesh
v -0.00543619 -0.02795247 0.04806919
v -0.00521475 -0.02994239 0.04816934
v -0.00532168 -0.02268139 0.03174889
v -0.02636266 -0.01414043 0.03332721
v -0.02646811 -0.01423189 0.04915902
v -0.01139000 -0.02767301 0.03346121
v -0.02151128 -0.01532305 0.04485726
v -0.00506168 -0.02979805 0.03425936
v -0.01237756 -0.02023301 0.03139133
v -0.01873911 -0.02501346 0.04419931
v -0.02345799 -0.01522913 0.04817206
v -0.00550605 -0.02621780 0.04495346
v -0.01929528 -0.01539111 0.03252233
v -0.00509495 -0.02896737 0.03242218
v -0.00510058 -0.03086304 0.04330778
v -0.01232889 -0.02682570 0.03260096
v -0.02515444 -0.01860505 0.04424120
v -0.01882298 -0.02408782 0.04821390
v -0.02421274 -0.01511860 0.04888086
v -0.02062124 -0.01545818 0.04217847
v -0.00734591 -0.02210511 0.03150086
v -0.00867172 -0.02863160 0.03344715
v -0.01236194 -0.02869308 0.03876533
v -0.02053244 -0.02313937 0.03695752
v -0.02701253 -0.01587266 0.03873414
v -0.01140787 -0.02867858 0.04696683
v -0.02249598 -0.01931616 0.04906105
v -0.02229303 -0.02131283 0.04775206
v -0.00595952 -0.02966058 0.03427867
v -0.00686064 -0.02868293 0.03256713
v -0.01052347 -0.02868306 0.03519701
v -0.01778619 -0.02398779 0.03347555
v -0.01599137 -0.02680056 0.03876957
v -0.02734800 -0.01420655 0.04791951
v -0.02509847 -0.01851880 0.03787629
v -0.01508941 -0.02674883 0.04766146
v -0.00966099 -0.02966212 0.04516435
v -0.01232416 -0.02776622 0.04833604
v -0.02425435 -0.01949035 0.04608635
v -0.01965673 -0.02406878 0.04608373
v -0.02315249 -0.01897825 0.04901419
v -0.00507102 -0.03083345 0.03872160
v -0.02326887 -0.01938440 0.03435526
v -0.02418490 -0.01763416 0.03350413
v -0.01506523 -0.02681397 0.03612491
v -0.01871783 -0.02496372 0.03874230
v -0.02699364 -0.01586793 0.04423677
v -0.02740997 -0.01422382 0.03596076
v -0.01598366 -0.02683516 0.04423642
v -0.00698185 -0.02976259 0.04829205
v -0.01605387 -0.02591894 0.04821594
v -0.01321489 -0.02766969 0.04769834
v -0.02511747 -0.01762027 0.04838512
v -0.02141230 -0.02217976 0.04779801
v -0.01685594 -0.02587722 0.04692815
v -0.00871957 -0.02972789 0.03691614
v -0.00965007 -0.02971262 0.03873016
v -0.01954268 -0.02305273 0.03437075
v -0.02414932 -0.01946018 0.03698381
v -0.01500599 -0.02581507 0.03348099
v -0.01225183 -0.02769098 0.03436378
v -0.01413609 -0.02771685 0.03786608
v -0.01693269 -0.02589199 0.03698658
v -0.02594925 -0.01674306 0.04783989
f 1 2 3
f 5 2 1
f 11 7 5
f 12 1 3
f 12 3 7
f 12 11 1
f 12 7 11
f 13 4 5
f 13 5 7
f 13 9 4
f 14 3 8
f 15 8 3
f 15 3 2
f 16 4 9
f 16 9 14
f 19 11 5
f 19 5 1
f 19 1 11
f 20 13 7
f 20 7 3
f 20 3 13
f 21 13 3
f 21 9 13
f 21 14 9
f 21 3 14
f 22 6 16
f 24 10 17
f 27 2 5
f 29 14 8
f 30 22 16
f 30 16 14
f 30 29 22
f 30 14 29
f 31 6 22
f 31 22 29
f 34 5 4
f 35 24 17
f 35 17 25
f 39 17 10
f 40 39 10
f 40 28 39
f 41 18 27
f 41 27 5
f 42 29 8
f 42 8 15
f 44 4 16
f 44 16 32
f 44 32 43
f 46 33 10
f 46 10 24
f 47 25 17
f 48 34 4
f 48 47 34
f 48 25 47
f 48 35 25
f 48 4 44
f 49 10 33
f 49 33 23
f 49 26 36
f 49 37 26
f 49 23 37
f 50 37 15
f 50 15 2
f 50 26 37
f 50 38 26
f 50 2 27
f 50 27 38
f 51 38 27
f 51 27 18
f 51 36 38
f 52 38 36
f 52 36 26
f 52 26 38
f 53 39 28
f 53 28 41
f 53 41 5
f 53 5 34
f 54 40 18
f 54 28 40
f 54 41 28
f 54 18 41
f 55 18 40
f 55 51 18
f 55 36 51
f 55 49 36
f 55 40 10
f 55 10 49
f 56 31 29
f 56 29 42
f 56 23 31
f 57 42 15
f 57 15 37
f 57 56 42
f 57 37 23
f 57 23 56
f 58 43 32
f 58 24 43
f 59 43 24
f 59 24 35
f 59 35 48
f 59 48 44
f 59 44 43
f 60 45 32
f 60 32 16
f 61 6 31
f 61 45 60
f 61 60 16
f 61 16 6
f 62 23 33
f 62 45 61
f 62 61 31
f 62 31 23
f 63 33 46
f 63 62 33
f 63 45 62
f 63 46 24
f 63 24 58
f 63 58 32
f 63 32 45
f 64 47 17
f 64 17 39
f 64 39 53
f 64 53 34
f 64 34 47

