# https://github.com/mikedh/trimesh
v 0.01504373 -0.02463820 0.04839102
v 0.01427470 -0.02689896 0.04828127
v 0.01535807 -0.01525182 0.02467100
v -0.00523892 -0.01469455 0.02507073
v -0.00533397 -0.02841562 0.04831751
v 0.01514530 -0.01499493 0.02961675
v 0.01420011 -0.02690600 0.03516618
v -0.00541165 -0.02694910 0.04672302
v 0.01531748 -0.02305853 0.04671565
v 0.01419444 -0.02776732 0.03869432
v -0.00510259 -0.02795452 0.03077033
v -0.00523485 -0.01474326 0.02587418
v 0.01416423 -0.02775127 0.04422954
v -0.00510777 -0.02338927 0.02611506
v -0.00507716 -0.03072484 0.03777933
v 0.00961644 -0.02502974 0.02913870
v 0.00596702 -0.03068922 0.04236538
v 0.00596880 -0.02959903 0.03433633
v 0.00502849 -0.02322771 0.02628336
v 0.01417450 -0.02506543 0.03171075
v 0.01238100 -0.02872274 0.04235116
v 0.00600603 -0.02976018 0.04816230
v -0.00320655 -0.02969027 0.03339103
v 0.00230535 -0.03068485 0.03606872
v 0.01146211 -0.02875593 0.03697682
v 0.00505528 -0.02782645 0.03084487
v 0.01057421 -0.02136848 0.02633265
v 0.00958937 -0.02777858 0.03262479
v -0.00416739 -0.03070013 0.04608994
v 0.00871926 -0.02966920 0.04608484
v -0.00506168 -0.02979805 0.03425936
v 0.00598561 -0.03068468 0.03961942
v 0.00319286 -0.02964505 0.03344214
v -0.00320619 -0.03062852 0.03607207
v 0.01321015 -0.02772271 0.03608816
v 0.01236288 -0.02871768 0.03967732
v 0.00596568 -0.02693943 0.02997021
v 0.00228114 -0.02875545 0.03168054
v 0.00873953 -0.02327137 0.02729013
v 0.01324580 -0.02228875 0.02824636
v 0.01317382 -0.02672855 0.03351552
v 0.00597296 -0.02877835 0.03259635
v 0.01140597 -0.02588138 0.03089907
v 0.00959587 -0.02864063 0.03438911
v -0.00521475 -0.02994239 0.04816934
v -0.00232868 -0.03070629 0.04701909
v 0.00418087 -0.03064956 0.04604833
v 0.00963715 -0.02968854 0.04329172
v 0.01328750 -0.02783923 0.04693395
v 0.00506791 -0.03068091 0.03782653
v 0.00964395 -0.02968494 0.03872312
v 0.00595327 -0.02417532 0.02731616
v 0.00779879 -0.02778788 0.03170066
v -0.00323390 -0.02878060 0.03169264
v 0.01147608 -0.02323505 0.02824974
v 0.01416329 -0.01944741 0.02640199
v 0.01323247 -0.02500072 0.03092823
v 0.01050554 -0.02861048 0.03517963
v -0.00511960 -0.03070708 0.04515922
v 0.00229902 -0.03068519 0.04695645
v 0.00778156 -0.02958051 0.04783251
v 0.00505017 -0.03064059 0.04514646
v 0.01149727 -0.02872435 0.04607765
v 0.00414351 -0.03066905 0.03693576
f 5 2 1
f 6 3 4
f 8 5 1
f 9 3 6
f 9 7 3
f 9 8 1
f 10 9 1
f 10 7 9
f 12 9 6
f 12 6 4
f 12 4 8
f 12 8 9
f 13 10 1
f 13 1 2
f 14 4 3
f 14 11 8
f 14 8 4
f 15 5 8
f 15 8 11
f 19 14 3
f 20 3 7
f 21 10 13
f 22 2 5
f 27 19 3
f 31 15 11
f 31 11 23
f 32 17 15
f 33 24 23
f 33 18 24
f 34 24 15
f 34 23 24
f 34 31 23
f 34 15 31
f 35 7 10
f 35 10 25
f 36 25 10
f 36 10 21
f 37 14 19
f 38 11 14
f 38 37 26
f 38 14 37
f 38 33 23
f 39 19 27
f 41 20 7
f 42 18 33
f 42 38 26
f 42 33 38
f 43 41 28
f 43 20 41
f 44 42 28
f 44 18 42
f 44 28 41
f 45 22 5
f 45 5 15
f 46 15 17
f 46 45 29
f 48 30 17
f 48 17 32
f 49 13 2
f 50 32 15
f 50 15 24
f 51 25 36
f 51 32 50
f 51 48 32
f 51 36 21
f 51 21 48
f 52 37 19
f 52 16 37
f 52 39 16
f 52 19 39
f 53 26 37
f 53 42 26
f 53 28 42
f 53 43 28
f 53 37 16
f 53 16 43
f 54 38 23
f 54 23 11
f 54 11 38
f 55 39 27
f 55 16 39
f 55 27 40
f 55 43 16
f 56 40 27
f 56 27 3
f 56 3 20
f 56 20 40
f 57 40 20
f 57 20 43
f 57 55 40
f 57 43 55
f 58 44 41
f 58 35 25
f 58 25 51
f 58 18 44
f 58 51 50
f 58 50 18
f 58 41 7
f 58 7 35
f 59 45 15
f 59 29 45
f 59 46 29
f 59 15 46
f 60 22 45
f 60 45 46
f 60 46 17
f 60 17 47
f 61 60 47
f 61 22 60
f 61 49 2
f 61 2 22
f 62 47 17
f 62 17 30
f 62 61 47
f 62 30 61
f 63 30 48
f 63 48 21
f 63 21 13
f 63 13 49
f 63 61 30
f 63 49 61
f 64 50 24
f 64 24 18
f 64 18 50

