# https://github.com/mikedh/trimesh
v 0.01682153 0.01790517 0.03181418
v 0.01710455 0.00649130 0.02828801
v 0.01682014 0.01792637 0.02607905
v 0.00331776 0.01769293 0.02645217
v 0.00333917 0.01398034 0.02615666
v 0.00339653 0.01806220 0.02740449
v 0.01712396 0.01718402 0.03151595
v 0.01098446 0.00635350 0.02610862
v 0.01618243 0.01824548 0.03147223
v 0.01631802 0.00619107 0.02699221
f 5 2 1
f 5 4 3
f 6 3 4
f 6 5 1
f 6 4 5
f 7 1 2
f 7 2 3
f 7 3 1
f 8 5 3
f 8 2 5
f 9 6 1
f 9 1 3
f 9 3 6
f 10 8 3
f 10 3 2
f 10 2 8

