# https://github.com/mikedh/trimesh
v -0.02681598 0.00940773 0.04941497
v -0.02523028 -0.00630777 0.04315716
v -0.02349031 0.00924272 0.03281887
v -0.02904756 0.00892949 0.03334075
v -0.03084058 -0.00494368 0.04421638
v -0.02379895 -0.00611728 0.03261929
v -0.02423029 0.00952642 0.04324244
v -0.02789965 -0.00625163 0.04903911
v -0.02980027 0.00886126 0.04602957
v -0.02947300 -0.00595064 0.03313620
v -0.02517214 0.00953750 0.04686769
v -0.02990123 0.00889519 0.03600410
v -0.02987759 0.00612345 0.04862897
v -0.02985356 0.00520821 0.03333989
v -0.03083921 -0.00586668 0.04234763
v -0.02443402 -0.00630564 0.03460721
v -0.02716136 -0.00625784 0.04833004
v -0.03084459 0.00613816 0.04233871
v -0.02937152 -0.00596903 0.04914666
v -0.02899546 0.00891498 0.04917476
v -0.02983058 0.00710988 0.03420135
v -0.03083394 -0.00585677 0.03870426
v -0.02601985 0.00947403 0.04858180
v -0.03083777 0.00520479 0.04421730
v -0.03084863 -0.00306072 0.03598775
v -0.03084470 -0.00306850 0.04606296
v -0.02984127 -0.00587941 0.04851581
v -0.02976779 -0.00490638 0.03335539
v -0.02992217 -0.00584877 0.03421780
v -0.03078634 0.00431318 0.03598825
v -0.03084906 0.00336035 0.04607941
v -0.03082263 0.00612648 0.03779676
f 7 3 4
f 7 6 3
f 7 2 6
f 10 3 6
f 11 7 4
f 11 2 7
f 12 9 1
f 12 11 4
f 12 1 11
f 14 4 3
f 14 3 10
f 16 10 6
f 16 6 2
f 16 2 8
f 16 8 10
f 17 8 2
f 17 2 11
f 17 1 8
f 18 9 12
f 19 8 1
f 19 15 8
f 20 1 9
f 20 9 13
f 20 19 1
f 20 13 19
f 21 12 4
f 21 4 14
f 22 10 8
f 22 8 15
f 23 17 11
f 23 11 1
f 23 1 17
f 24 13 9
f 24 9 18
f 25 22 15
f 26 25 15
f 26 15 5
f 27 5 15
f 27 15 19
f 27 26 5
f 27 19 13
f 27 13 26
f 28 25 14
f 28 14 10
f 29 10 22
f 29 22 25
f 29 28 10
f 29 25 28
f 30 21 14
f 30 14 25
f 30 12 21
f 31 26 13
f 31 13 24
f 31 24 18
f 31 18 25
f 31 25 26
f 32 30 25
f 32 25 18
f 32 18 12
f 32 12 30

