# https://github.com/mikedh/trimesh
v 0.03027899 0.00156568 0.04911947
v 0.03081524 -0.00396588 0.04708847
v 0.03128911 0.00155428 0.03867298
v 0.02603773 0.00158902 0.03841831
v 0.02310569 -0.01507237 0.04684248
v 0.02797955 0.00164383 0.04778925
v 0.03084617 0.00155524 0.04856134
v 0.02711159 -0.01412615 0.04815986
v 0.02089123 -0.01491960 0.03850687
v 0.02406718 -0.01509675 0.04837292
v 0.02883657 0.00163023 0.04904398
v 0.03018719 -0.00300392 0.04898614
v 0.02904708 -0.01139123 0.03870438
v 0.02721842 0.00160585 0.04507126
v 0.02765506 -0.01437570 0.03867423
v 0.02120541 -0.01512019 0.04035214
v 0.02835059 -0.00700572 0.04903884
v 0.03076249 -0.00211662 0.04856530
v 0.03086150 -0.00493079 0.03871728
v 0.02880960 -0.01130343 0.04693741
v 0.02132862 -0.01425963 0.03838337
v 0.02211577 -0.01507898 0.04414032
v 0.02876282 -0.00687806 0.04904790
v 0.02976950 -0.00675073 0.04841649
v 0.03082711 -0.00491424 0.04518544
v 0.02793391 -0.01405137 0.04331588
v 0.02805256 -0.01223679 0.04812443
v 0.02978402 -0.00852079 0.04689288
v 0.02937280 -0.00577746 0.04898929
v 0.02984206 -0.00951721 0.04056160
v 0.02791182 -0.01406229 0.03963930
v 0.02780336 -0.01309578 0.04786112
v 0.02998325 -0.00864096 0.03872363
v 0.02981256 -0.00949413 0.04331094
v 0.02823116 -0.01326315 0.03871228
f 6 3 4
f 7 2 3
f 10 6 5
f 11 1 7
f 11 6 10
f 11 7 3
f 11 3 6
f 14 6 4
f 14 4 9
f 15 8 10
f 15 4 13
f 16 15 10
f 16 9 15
f 16 14 9
f 17 11 10
f 17 1 11
f 18 7 1
f 18 1 12
f 18 2 7
f 19 13 4
f 19 4 3
f 21 15 9
f 21 9 4
f 21 4 15
f 22 5 6
f 22 6 14
f 22 14 16
f 22 16 10
f 22 10 5
f 23 12 1
f 23 1 17
f 23 17 10
f 23 10 8
f 24 18 12
f 24 2 18
f 25 19 3
f 25 3 2
f 26 8 15
f 27 23 8
f 28 2 24
f 28 25 2
f 28 27 20
f 28 24 27
f 29 24 12
f 29 12 23
f 29 27 24
f 29 23 27
f 30 19 25
f 30 26 13
f 31 26 15
f 31 13 26
f 32 26 20
f 32 8 26
f 32 27 8
f 32 20 27
f 33 30 13
f 33 13 19
f 33 19 30
f 34 30 25
f 34 25 28
f 34 28 20
f 34 20 26
f 34 26 30
f 35 31 15
f 35 15 13
f 35 13 31

