# https://github.com/mikedh/trimesh
v 0.02670869 -0.01440642 0.04841836
v 0.02728681 -0.01421202 0.04780724
v 0.01546448 -0.01535673 0.03021746
v 0.01535807 -0.01525182 0.02467100
v 0.01433186 -0.02712248 0.03599501
v 0.01899419 -0.01418302 0.02594582
v 0.01780792 -0.02497050 0.04777197
v 0.01434509 -0.01880672 0.02597884
v 0.02600485 -0.01579072 0.03522793
v 0.02426626 -0.01864800 0.04819537
v 0.01551828 -0.02332698 0.04733594
v 0.02646078 -0.01423624 0.03414179
v 0.01954059 -0.02121394 0.03181449
v 0.02141975 -0.02218626 0.03698188
v 0.02606008 -0.01594023 0.04825008
v 0.01459160 -0.02661798 0.04844442
v 0.02512264 -0.01857191 0.03965790
v 0.02337315 -0.01526405 0.04755741
v 0.02262080 -0.01416069 0.02896130
v 0.02741164 -0.01424905 0.03689487
v 0.01867827 -0.02034985 0.03008758
v 0.02411743 -0.01669020 0.03260343
v 0.01873227 -0.02502463 0.04234207
v 0.01866411 -0.02398347 0.03525563
v 0.02596505 -0.01676088 0.04697455
v 0.01971908 -0.02319453 0.04821139
v 0.01438721 -0.02725965 0.04703197
v 0.01553458 -0.02236000 0.04570183
v 0.02417320 -0.01945012 0.03786557
v 0.02406718 -0.01509675 0.04837292
v 0.02512440 -0.01858816 0.04332264
v 0.02354082 -0.01416964 0.02983865
v 0.01689425 -0.01855474 0.02736678
v 0.02051818 -0.01852371 0.03009470
v 0.01438828 -0.02540457 0.03239079
v 0.02503075 -0.01669963 0.03433404
v 0.02137277 -0.02117005 0.03435941
v 0.01871458 -0.02497096 0.03968123
v 0.02691861 -0.01488759 0.04783350
v 0.01598902 -0.02602881 0.04817287
v 0.02142320 -0.02222263 0.04699798
v 0.01429187 -0.02341601 0.02985961
v 0.01689912 -0.02591449 0.04605875
v 0.01538075 -0.02412805 0.04815280
v 0.02249277 -0.01534835 0.04585147
v 0.02233434 -0.02127653 0.03697803
v 0.02596942 -0.01672407 0.03700073
v 0.02417736 -0.01944778 0.04608761
v 0.02552319 -0.01424891 0.03237714
v 0.01510992 -0.01859861 0.02625895
v 0.02239716 -0.01493906 0.02922213
v 0.02327521 -0.01491810 0.03002015
v 0.02136634 -0.01940543 0.03181529
v 0.01868768 -0.01673473 0.02736056
v 0.01686072 -0.02492616 0.03438058
v 0.02612164 -0.01498390 0.03433217
v 0.01869462 -0.02310740 0.03351524
v 0.02326603 -0.01852072 0.03346389
v 0.01960237 -0.02400102 0.03789680
v 0.01500927 -0.02678538 0.03613672
v 0.01964875 -0.02405497 0.04515277
v 0.01429631 -0.02245368 0.02895953
v 0.01592986 -0.02400892 0.03176548
v 0.01509048 -0.02688938 0.04699363
f 1 2 3
f 6 3 2
f 6 4 3
f 8 3 4
f 8 4 6
f 15 2 1
f 15 1 10
f 16 3 8
f 19 6 2
f 20 9 12
f 26 10 1
f 26 1 16
f 27 16 8
f 27 5 23
f 28 3 16
f 28 11 18
f 30 1 3
f 30 3 18
f 30 16 1
f 30 18 11
f 31 20 2
f 31 17 20
f 31 2 25
f 31 23 17
f 32 19 2
f 32 2 20
f 32 20 12
f 34 21 33
f 37 14 24
f 38 17 23
f 39 15 10
f 39 10 25
f 39 25 2
f 39 2 15
f 40 26 16
f 40 7 26
f 40 16 27
f 41 26 7
f 41 10 26
f 42 5 27
f 42 35 5
f 44 28 16
f 44 11 28
f 44 30 11
f 44 16 30
f 45 28 18
f 45 18 3
f 45 3 28
f 46 29 17
f 46 14 37
f 46 38 14
f 46 17 38
f 47 20 17
f 47 17 29
f 47 9 20
f 47 36 9
f 47 29 36
f 48 31 25
f 48 25 10
f 48 41 31
f 48 10 41
f 49 32 12
f 50 8 6
f 50 6 33
f 51 6 19
f 52 49 22
f 52 32 49
f 52 34 51
f 52 51 19
f 52 19 32
f 53 13 21
f 53 21 34
f 53 37 13
f 53 52 22
f 53 34 52
f 54 34 33
f 54 33 6
f 54 51 34
f 54 6 51
f 55 5 35
f 56 12 9
f 56 9 36
f 56 49 12
f 56 36 22
f 56 22 49
f 57 37 24
f 57 13 37
f 57 24 55
f 58 22 36
f 58 46 37
f 58 36 29
f 58 29 46
f 58 53 22
f 58 37 53
f 59 24 14
f 59 14 38
f 60 38 23
f 60 23 5
f 60 59 38
f 60 24 59
f 60 55 24
f 60 5 55
f 61 41 7
f 61 23 31
f 61 31 41
f 61 43 23
f 61 7 43
f 62 42 27
f 62 27 8
f 62 8 50
f 62 50 33
f 62 33 21
f 62 21 42
f 63 42 21
f 63 21 13
f 63 35 42
f 63 13 57
f 63 57 55
f 63 55 35
f 64 27 23
f 64 23 43
f 64 40 27
f 64 43 7
f 64 7 40

