# https://github.com/mikedh/trimesh
v 0.02049928 0.02064022 0.05004183
v 0.02731916 0.01446728 0.04789431
v 0.02143452 0.02245477 0.03695203
v 0.00876104 0.02357575 0.02683039
v 0.00891334 0.01743478 0.02708330
v 0.00879331 0.02929351 0.04698281
v 0.02150296 0.02244999 0.04602702
v 0.00924818 0.02622945 0.04995142
v 0.02455433 0.01451513 0.03061600
v 0.00877113 0.02916554 0.03513251
v 0.00881281 0.02838569 0.04956631
v 0.02417794 0.01878447 0.04867118
v 0.02515746 0.01886175 0.04330922
v 0.01693708 0.02621176 0.04418683
v 0.02326271 0.01562094 0.04927863
v 0.02075753 0.01433309 0.02696616
v 0.01597255 0.02429330 0.03183345
v 0.00872688 0.02445987 0.02795066
v 0.00890700 0.02788646 0.05020896
v 0.01771651 0.02427389 0.04937396
v 0.02656845 0.01458002 0.04926093
v 0.01963795 0.02433262 0.03875402
v 0.02695827 0.01520849 0.03611880
v 0.02598619 0.01701658 0.04694688
v 0.02420681 0.01968553 0.04601138
v 0.01145957 0.02900377 0.03870118
v 0.00937379 0.02546791 0.04862468
v 0.02629945 0.01445788 0.03334289
v 0.01745439 0.01566937 0.02568743
v 0.02137477 0.02056464 0.03264269
v 0.01144067 0.02527241 0.03005288
v 0.01779058 0.02516125 0.04686034
v 0.01964900 0.02326612 0.04859425
v 0.02023115 0.02126298 0.04995947
v 0.01247018 0.02713969 0.04918285
v 0.02513964 0.01714988 0.04907842
v 0.01761568 0.01544671 0.03086429
v 0.02510948 0.01884769 0.03872869
v 0.01963414 0.02432737 0.04418688
v 0.01774367 0.02518757 0.03612054
v 0.02698814 0.01611124 0.03873547
v 0.01145688 0.02898322 0.04326868
v 0.01689050 0.02616694 0.03785236
v 0.02730480 0.01452371 0.03600804
v 0.01876783 0.01973953 0.02915749
v 0.02415869 0.01790468 0.03348889
v 0.00879576 0.02740810 0.03154073
v 0.01688744 0.02517897 0.04868310
v 0.01613647 0.02471694 0.04991793
v 0.00959797 0.02816232 0.04948064
v 0.02621885 0.01530308 0.04919499
v 0.02696434 0.01514087 0.04778526
v 0.02328662 0.02061610 0.03697049
v 0.01413700 0.02701924 0.03524666
v 0.02045453 0.02238866 0.03436062
v 0.02697441 0.01609889 0.04421699
v 0.02605273 0.01706537 0.03701030
v 0.01233808 0.02798620 0.04687175
v 0.02597567 0.01516660 0.03349475
v 0.01504549 0.02054697 0.02723400
v 0.01964324 0.02155604 0.03179413
v 0.02233274 0.01699565 0.03005310
v 0.01240237 0.02615847 0.03174941
v 0.01513455 0.02614508 0.04870123
f 15 1 8
f 18 6 10
f 18 11 6
f 18 4 5
f 18 5 11
f 19 11 5
f 19 5 8
f 19 8 1
f 21 1 15
f 21 16 2
f 21 15 5
f 25 13 7
f 25 7 12
f 25 24 13
f 25 12 24
f 26 10 6
f 27 15 8
f 27 8 5
f 27 5 15
f 28 16 9
f 28 2 16
f 29 16 5
f 29 5 4
f 33 12 7
f 33 7 32
f 34 33 20
f 34 12 33
f 36 12 34
f 37 21 5
f 37 5 16
f 37 16 21
f 38 22 13
f 39 7 13
f 39 13 22
f 39 22 14
f 39 32 7
f 39 14 32
f 40 22 3
f 41 38 13
f 42 26 6
f 42 14 26
f 43 26 14
f 43 14 22
f 43 22 40
f 44 2 28
f 44 41 2
f 44 23 41
f 47 31 4
f 47 4 18
f 47 18 10
f 48 33 32
f 48 20 33
f 49 34 20
f 49 19 1
f 49 1 34
f 49 35 19
f 50 11 19
f 50 19 35
f 50 6 11
f 51 21 2
f 51 1 21
f 51 36 34
f 51 34 1
f 52 24 12
f 52 12 36
f 52 51 2
f 52 36 51
f 53 3 22
f 53 22 38
f 53 46 30
f 54 40 17
f 54 43 40
f 54 10 26
f 54 26 43
f 55 17 40
f 55 40 3
f 55 53 30
f 55 3 53
f 56 41 13
f 56 13 24
f 56 24 52
f 56 52 2
f 56 2 41
f 57 41 23
f 57 38 41
f 57 53 38
f 57 23 46
f 57 46 53
f 58 14 42
f 58 42 6
f 58 50 35
f 58 6 50
f 59 44 28
f 59 23 44
f 59 46 23
f 59 28 9
f 59 9 46
f 60 45 16
f 60 16 29
f 60 29 4
f 60 4 31
f 60 31 17
f 60 17 45
f 61 45 17
f 61 55 30
f 61 17 55
f 62 9 16
f 62 16 45
f 62 46 9
f 62 30 46
f 62 61 30
f 62 45 61
f 63 17 31
f 63 31 47
f 63 54 17
f 63 47 10
f 63 10 54
f 64 20 48
f 64 49 20
f 64 35 49
f 64 58 35
f 64 48 32
f 64 32 14
f 64 14 58

