# https://github.com/mikedh/trimesh
v -0.02789965 -0.00625163 0.04903911
v -0.02115070 -0.01507388 0.04320425
v -0.02542736 -0.00636522 0.04401327
v -0.02253733 -0.00609786 0.02520338
v -0.02793511 -0.01403318 0.03785328
v -0.02352653 -0.00621621 0.03220010
v -0.02937152 -0.00596903 0.04914666
v -0.02635849 -0.00633533 0.04673632
v -0.02210545 -0.01441850 0.02852970
v -0.02370238 -0.00587870 0.02561878
v -0.02646811 -0.01423189 0.04915902
v -0.02312283 -0.01509186 0.04761958
v -0.02716136 -0.00625784 0.04833004
v -0.01985434 -0.01496682 0.03276302
v -0.02992217 -0.00584877 0.03421780
v -0.02198233 -0.00962740 0.02551345
v -0.02884329 -0.01130964 0.04698869
v -0.02472421 -0.01488141 0.04912388
v -0.02213507 -0.01507855 0.04593211
v -0.02002634 -0.01509621 0.03372297
v -0.03010949 -0.00590511 0.04783283
v -0.02605385 -0.01036602 0.02999329
v -0.02193295 -0.01333181 0.02783223
v -0.02802590 -0.01224303 0.04860796
v -0.02992123 -0.00954988 0.03869875
v -0.02790106 -0.01406569 0.04515306
v -0.02694214 -0.01400996 0.03433296
v -0.02813815 -0.00581703 0.03065682
v -0.02430149 -0.01222615 0.02919416
v -0.02914691 -0.00767250 0.04899804
v -0.02901254 -0.00954948 0.04844412
v -0.02980655 -0.00950685 0.04421545
v -0.02718491 -0.01412625 0.04852198
v -0.02882509 -0.01224995 0.04423726
v -0.02888264 -0.01125577 0.03607423
v -0.02709662 -0.00760486 0.02994765
v -0.02276700 -0.01420672 0.02891001
v -0.02600812 -0.01305302 0.03172115
v -0.02728683 -0.01323386 0.04893123
v -0.02977044 -0.00763984 0.04778939
v -0.02789944 -0.01313592 0.04785351
v -0.02883570 -0.01218219 0.03783450
v -0.02982208 -0.00859177 0.03606236
v -0.02787157 -0.01029082 0.03263696
v -0.02605254 -0.01397694 0.03261915
v -0.02515640 -0.01216146 0.03001708
v -0.02984337 -0.00952332 0.03776959
v -0.02879320 -0.00758278 0.03254306
v -0.02692474 -0.01122484 0.03171963
v -0.02785662 -0.01218020 0.03434230
v -0.02797608 -0.00671921 0.03076221
v -0.02976928 -0.00671776 0.03430309
f 6 3 2
f 6 2 4
f 6 4 3
f 8 2 3
f 10 3 4
f 13 7 1
f 13 8 3
f 13 10 7
f 13 3 10
f 14 4 2
f 16 10 4
f 16 4 14
f 18 1 7
f 18 7 11
f 18 5 12
f 18 13 1
f 18 12 13
f 19 12 2
f 19 2 8
f 19 13 12
f 19 8 13
f 20 14 2
f 20 2 12
f 20 12 5
f 20 9 14
f 21 7 10
f 22 10 16
f 23 16 14
f 23 14 9
f 23 9 16
f 25 21 15
f 26 5 18
f 27 20 5
f 27 9 20
f 28 21 10
f 28 15 21
f 30 11 7
f 30 7 21
f 31 17 24
f 31 24 30
f 32 21 25
f 33 26 18
f 33 18 11
f 34 5 26
f 34 32 25
f 34 26 17
f 34 17 32
f 35 27 5
f 36 28 10
f 36 10 22
f 37 29 16
f 37 16 9
f 39 30 24
f 39 11 30
f 39 33 11
f 39 24 33
f 40 17 31
f 40 32 17
f 40 21 32
f 40 31 30
f 40 30 21
f 41 33 24
f 41 24 17
f 41 17 26
f 41 26 33
f 42 34 25
f 42 5 34
f 42 35 5
f 43 25 15
f 44 35 43
f 45 37 9
f 45 9 27
f 45 38 37
f 46 38 22
f 46 29 37
f 46 37 38
f 46 22 16
f 46 16 29
f 47 42 25
f 47 35 42
f 47 43 35
f 47 25 43
f 48 15 28
f 48 44 43
f 49 36 22
f 49 22 38
f 49 38 45
f 50 27 35
f 50 35 44
f 50 45 27
f 50 49 45
f 50 44 49
f 51 48 28
f 51 28 36
f 51 44 48
f 51 49 44
f 51 36 49
f 52 48 43
f 52 43 15
f 52 15 48

