# https://github.com/mikedh/trimesh
v 0.00890700 0.02788646 0.05020896
v 0.00924998 0.02604692 0.04970013
v 0.00866243 0.02891275 0.03437541
v -0.01446166 0.02672361 0.03407458
v -0.01495751 0.02383577 0.04998162
v -0.01479760 0.02067090 0.03383157
v -0.00321313 0.03100656 0.04327040
v 0.00873534 0.02997872 0.04236232
v 0.00909619 0.02667008 0.05018791
v 0.00928375 0.02327272 0.03353983
v -0.01523666 0.02126932 0.04049602
v -0.00414684 0.02994473 0.03428299
v -0.00691697 0.02910026 0.04931983
v 0.00318179 0.02994046 0.04877026
v -0.01516889 0.02326239 0.04957180
v 0.00777977 0.02823735 0.05021210
v 0.00941332 0.02355325 0.03444896
v -0.00622182 0.02455793 0.03283828
v 0.00933470 0.02524865 0.04792486
v -0.00874319 0.03000497 0.03870981
v 0.00319829 0.03097838 0.03779081
v -0.00230787 0.02998063 0.04871550
v -0.01433308 0.02635897 0.04934242
v -0.01529564 0.02234784 0.04789058
v -0.00782461 0.02825885 0.04996669
v 0.00872705 0.02909597 0.04785431
v 0.00871678 0.02999020 0.03962330
v -0.01337117 0.02138705 0.03337895
v -0.00620071 0.02542652 0.03288292
v -0.00873135 0.02900811 0.03428870
v -0.00319502 0.03096985 0.03783424
v -0.00780482 0.02999027 0.04511836
v 0.00409495 0.02994316 0.03428426
v 0.00320918 0.03101616 0.04326601
v -0.01449727 0.02569090 0.04994374
v -0.01326322 0.02802648 0.04509694
v -0.01060546 0.02801301 0.04925643
v 0.00881281 0.02838569 0.04956631
v 0.00780358 0.02993211 0.03690584
v 0.00050096 0.02476712 0.03274232
v -0.01055255 0.02899237 0.03604832
v -0.01147946 0.02810321 0.03423627
v -0.00413997 0.03102157 0.03962281
v -0.00783822 0.02999983 0.03695650
v -0.00508641 0.02996200 0.04780297
v 0.00049469 0.02562265 0.03279173
v 0.00414125 0.03101825 0.03960929
v 0.00782075 0.02994265 0.04508906
v 0.00138798 0.03103576 0.04417307
v -0.01413582 0.02703636 0.04777509
v -0.01145911 0.02902073 0.04326586
v -0.01063013 0.02739842 0.04991476
v -0.00957201 0.02891188 0.04778354
v 0.00690817 0.02899611 0.04947983
v 0.00594510 0.02991768 0.03520138
v -0.01239803 0.02805843 0.03516325
v -0.00413104 0.03102857 0.04141791
v -0.01146130 0.02901492 0.03781636
v -0.00596686 0.02993895 0.03513971
v -0.00138670 0.03101990 0.04418436
v 0.00410399 0.03098776 0.04235611
v 0.00506065 0.02993638 0.04782257
v -0.01421120 0.02720147 0.03509381
v -0.01145345 0.02797790 0.04867236
f 8 1 2
f 9 2 1
f 11 4 6
f 11 6 10
f 15 9 5
f 15 2 9
f 16 9 1
f 16 5 9
f 17 10 3
f 19 11 10
f 19 10 17
f 19 8 2
f 22 16 14
f 23 4 15
f 24 15 4
f 24 4 11
f 24 11 19
f 24 19 2
f 24 2 15
f 25 22 13
f 25 16 22
f 26 1 8
f 27 17 3
f 27 19 17
f 27 8 19
f 28 10 6
f 28 6 4
f 29 28 4
f 29 18 28
f 30 12 29
f 31 21 12
f 33 12 21
f 35 23 15
f 35 15 5
f 35 5 16
f 35 16 25
f 37 25 13
f 38 16 1
f 38 1 26
f 39 27 3
f 40 28 18
f 40 10 28
f 40 18 29
f 42 30 29
f 42 29 4
f 42 41 30
f 43 21 31
f 44 43 31
f 44 20 43
f 44 30 41
f 45 7 32
f 45 13 22
f 46 29 12
f 46 12 33
f 46 40 29
f 46 33 3
f 46 3 10
f 46 10 40
f 47 21 43
f 47 39 21
f 47 27 39
f 47 8 27
f 48 26 8
f 49 22 14
f 49 34 47
f 50 4 23
f 51 32 20
f 52 35 25
f 52 25 37
f 52 37 23
f 52 23 35
f 53 37 13
f 53 51 36
f 53 32 51
f 53 45 32
f 53 13 45
f 54 38 26
f 54 14 16
f 54 16 38
f 55 33 21
f 55 21 39
f 55 39 3
f 55 3 33
f 56 42 4
f 56 41 42
f 57 32 7
f 57 49 47
f 57 47 43
f 57 43 20
f 57 20 32
f 58 44 41
f 58 20 44
f 58 51 20
f 58 41 56
f 58 36 51
f 59 44 31
f 59 31 12
f 59 12 30
f 59 30 44
f 60 45 22
f 60 7 45
f 60 22 49
f 60 57 7
f 60 49 57
f 61 47 34
f 61 8 47
f 61 48 8
f 61 34 48
f 62 48 34
f 62 26 48
f 62 54 26
f 62 14 54
f 62 49 14
f 62 34 49
f 63 50 36
f 63 4 50
f 63 36 58
f 63 58 56
f 63 56 4
f 64 50 23
f 64 23 37
f 64 37 53
f 64 53 36
f 64 36 50

