# https://github.com/mikedh/trimesh
v -0.01585956 0.01053988 0.02713858
v -0.01529588 0.01081298 0.02532464
v -0.02042330 0.01007459 0.02735202
v -0.01585910 0.00899019 0.00797225
v -0.01596659 -0.00398877 0.00727144
v -0.01342362 0.01079765 0.01374027
v -0.01944105 -0.00392884 0.02714274
v -0.02174182 -0.00037410 0.01753771
v -0.01351806 0.01085312 0.01462677
v -0.01766326 0.00982825 0.01398325
v -0.01208146 0.00952002 0.00755962
v -0.02098212 0.00904894 0.02745817
v -0.01896835 0.00034792 0.00786440
v -0.02071216 -0.00371295 0.01412718
v -0.01247233 0.00899096 0.00736131
v -0.01250780 0.00992305 0.00912405
v -0.02276798 -0.00366791 0.02734532
v -0.02071029 0.00457204 0.01585232
v -0.01899676 0.00875577 0.01584929
v -0.01639902 -0.00418039 0.00810729
v -0.01867305 -0.00380273 0.00783333
v -0.01991582 -0.00042934 0.01052253
v -0.02262366 0.00476408 0.02739250
v -0.02172761 -0.00198847 0.01751618
v -0.01897674 0.00473683 0.00999242
v -0.01991620 0.00876355 0.02029311
v -0.01900552 0.00951857 0.01852790
v -0.01719231 0.00864963 0.00980556
v -0.01916219 -0.00399191 0.02528918
v -0.01916264 -0.00380912 0.00885591
v -0.02076839 0.00316074 0.01417441
v -0.02181944 0.00726410 0.02745529
v -0.02262801 0.00056945 0.02378788
v -0.02168227 -0.00276982 0.01840651
v -0.01989700 -0.00200351 0.01055105
v -0.01729884 0.00654958 0.00824136
v -0.01892581 0.00813399 0.01409710
v -0.01817414 0.00951439 0.01495488
v -0.01897151 -0.00203772 0.00802509
v -0.01983379 0.00379610 0.01147832
v -0.02172231 0.00226178 0.01842850
v -0.02075469 0.00728128 0.02114808
v -0.02257192 -0.00278153 0.02468948
v -0.01726087 0.00798172 0.00913681
v -0.01813727 0.00868804 0.01239036
v -0.01802648 0.00721380 0.00988932
v -0.01975369 0.00544659 0.01325025
v -0.02258392 0.00225591 0.02380234
v -0.01652782 0.00811785 0.00818674
f 1 2 3
f 7 2 1
f 9 3 2
f 10 6 4
f 10 9 6
f 10 3 9
f 11 6 9
f 11 9 2
f 11 7 5
f 11 2 7
f 12 7 1
f 12 1 3
f 15 11 5
f 15 4 11
f 15 13 4
f 15 5 13
f 16 11 4
f 16 4 6
f 16 6 11
f 17 7 12
f 20 17 14
f 21 13 5
f 21 5 20
f 24 8 22
f 26 12 3
f 27 3 10
f 27 26 3
f 27 19 26
f 28 10 4
f 29 20 5
f 29 5 7
f 29 7 17
f 29 17 20
f 30 21 20
f 30 20 14
f 31 22 8
f 32 23 17
f 32 17 12
f 32 12 26
f 33 17 23
f 33 8 24
f 34 24 14
f 34 14 17
f 34 17 24
f 35 24 22
f 35 14 24
f 35 30 14
f 35 22 13
f 36 4 13
f 36 13 25
f 37 26 19
f 38 27 10
f 38 19 27
f 39 13 21
f 39 21 30
f 39 35 13
f 39 30 35
f 40 25 13
f 40 13 22
f 40 22 31
f 41 23 18
f 41 18 31
f 41 31 8
f 42 32 26
f 42 18 23
f 42 23 32
f 42 37 18
f 42 26 37
f 43 33 24
f 43 24 17
f 43 17 33
f 44 28 4
f 45 37 19
f 45 10 28
f 45 38 10
f 45 19 38
f 46 25 40
f 46 37 45
f 46 44 36
f 46 36 25
f 46 45 28
f 46 28 44
f 47 40 31
f 47 31 18
f 47 18 37
f 47 46 40
f 47 37 46
f 48 33 23
f 48 23 41
f 48 41 8
f 48 8 33
f 49 44 4
f 49 4 36
f 49 36 44

