# https://github.com/mikedh/trimesh
v 0.01550270 0.02359329 0.05209523
v 0.01612359 0.02183116 0.05177518
v 0.00626921 0.01654692 0.00811920
v -0.00418853 0.01446540 0.00722443
v -0.00596770 0.02537584 0.05191564
v 0.00671483 0.01400797 0.00755080
v 0.01528384 0.02416084 0.04784769
v 0.01586596 0.02230559 0.05213763
v -0.00613720 0.01835807 0.02879248
v -0.00468758 0.02631541 0.04344165
v 0.00204552 0.01732490 0.00809188
v 0.01527598 0.02478116 0.05182557
v 0.01599172 0.02074899 0.04922807
v -0.00583101 0.02566140 0.05219714
v -0.00545458 0.02532749 0.04096045
v 0.00832076 0.02714135 0.04876977
v -0.00607012 0.02008374 0.03590754
v 0.01565661 0.02025365 0.04768109
v 0.00575459 0.02701442 0.05201623
v -0.00566862 0.02767847 0.05168059
v -0.00462392 0.01850915 0.01397787
v 0.00295957 0.02713367 0.04618116
v 0.00647308 0.01738344 0.00982151
v 0.01158904 0.02619905 0.05057346
v -0.00601254 0.01802561 0.02708385
v 0.01015372 0.02620520 0.05201153
v -0.00549384 0.02109893 0.02739641
v -0.00601492 0.02383891 0.04651520
v -0.00551978 0.02707934 0.04794890
v -0.00483927 0.02705205 0.05198361
v 0.00387019 0.02810108 0.05166083
v -0.00380558 0.01687405 0.00788905
v -0.00369017 0.01827035 0.01139188
v 0.01252771 0.02536228 0.04789965
v 0.00471466 0.01731394 0.00901999
v 0.00293241 0.01825025 0.01052004
v 0.01502820 0.02449062 0.04879001
v -0.00503532 0.01628184 0.01376384
v 0.01463472 0.02446589 0.05202414
v 0.00906194 0.02728101 0.05170908
v -0.00388188 0.02801679 0.05057959
v -0.00574263 0.02619735 0.05214171
v 0.00385405 0.02802155 0.05059034
v -0.00383205 0.02814269 0.05162824
v -0.00437807 0.01489767 0.00804342
v -0.00372183 0.01742804 0.00896424
v 0.00715068 0.01829862 0.01406865
v 0.00893208 0.02712220 0.04968264
v 0.00383481 0.02618769 0.04272146
v 0.00471975 0.01817747 0.01142667
v -0.00214279 0.01823082 0.01052009
v 0.01285140 0.02527590 0.05199103
v 0.01172236 0.02625230 0.05174626
v -0.00039452 0.02717219 0.04615970
v -0.00463828 0.02710715 0.04704608
v -0.00038202 0.01731627 0.00811923
v -0.00305601 0.02622440 0.04269392
f 7 6 3
f 11 6 4
f 11 3 6
f 12 2 7
f 12 8 2
f 12 1 8
f 13 7 2
f 13 6 7
f 13 2 5
f 14 5 2
f 14 2 8
f 14 8 1
f 18 4 6
f 18 6 13
f 18 17 9
f 18 13 5
f 18 5 17
f 19 14 1
f 20 5 14
f 23 7 3
f 25 18 9
f 25 4 18
f 26 19 1
f 27 20 15
f 27 9 20
f 27 15 21
f 28 20 9
f 28 5 20
f 28 17 5
f 28 9 17
f 29 10 15
f 29 15 20
f 31 30 19
f 32 11 4
f 33 21 15
f 33 15 10
f 35 23 3
f 35 3 11
f 36 35 11
f 36 23 35
f 37 24 12
f 37 12 7
f 37 34 24
f 37 7 34
f 38 25 9
f 38 27 21
f 38 9 27
f 39 26 1
f 39 1 12
f 40 31 19
f 40 19 26
f 41 29 20
f 42 30 20
f 42 20 14
f 42 14 19
f 42 19 30
f 43 16 22
f 43 40 16
f 43 31 40
f 44 20 30
f 44 30 31
f 44 41 20
f 44 43 41
f 44 31 43
f 45 32 4
f 45 21 32
f 45 38 21
f 45 4 25
f 45 25 38
f 46 32 21
f 46 21 33
f 47 23 16
f 47 16 34
f 47 34 7
f 47 7 23
f 48 34 16
f 48 24 34
f 48 40 24
f 48 16 40
f 49 36 22
f 49 22 16
f 49 16 36
f 50 36 16
f 50 16 23
f 50 23 36
f 51 33 10
f 51 46 33
f 51 36 11
f 52 39 12
f 52 26 39
f 53 12 24
f 53 24 40
f 53 40 26
f 53 52 12
f 53 26 52
f 54 10 41
f 54 22 36
f 54 36 51
f 54 43 22
f 54 41 43
f 55 41 10
f 55 10 29
f 55 29 41
f 56 11 32
f 56 32 46
f 56 51 11
f 56 46 51
f 57 54 51
f 57 51 10
f 57 10 54

