# https://github.com/mikedh/trimesh
v 0.00494430 -0.02635106 0.05220918
v 0.00484235 -0.02780822 0.05204260
v 0.00511407 -0.02062010 0.03418332
v -0.00969281 -0.01882710 0.03414123
v -0.00940384 -0.02557405 0.05218611
v -0.00042105 -0.02428054 0.03452840
v 0.00513761 -0.02266221 0.04202423
v -0.00575596 -0.02759527 0.05208009
v -0.00970257 -0.02269194 0.04554742
v 0.00477133 -0.02377055 0.03443816
v -0.00889559 -0.02251527 0.03452232
v 0.00517448 -0.02079480 0.03503342
v 0.00508080 -0.02601631 0.05191564
v -0.00293016 -0.02775806 0.04723547
v -0.00970326 -0.02075221 0.04032623
v -0.00897092 -0.01914937 0.03401342
v -0.00981150 -0.01902257 0.03495995
v -0.00926821 -0.02679493 0.05207034
v -0.00956247 -0.02523052 0.05189003
v -0.00473407 -0.02791225 0.05191238
v 0.00376406 -0.02784735 0.04786379
v -0.00642859 -0.02337402 0.03452742
v -0.00901717 -0.02690647 0.04955130
v -0.00902250 -0.02698716 0.05190411
v 0.00465248 -0.02777288 0.04874088
v -0.00384029 -0.02782399 0.04786463
v 0.00472738 -0.02805245 0.05184122
v 0.00131050 -0.02779300 0.04722195
v 0.00288239 -0.02419067 0.03452508
v -0.00894476 -0.02588745 0.04550285
v -0.00473290 -0.02781240 0.04956284
v -0.00374105 -0.02421458 0.03542205
v -0.00819703 -0.02679848 0.04727797
f 8 2 1
f 8 1 5
f 12 3 4
f 12 10 3
f 13 1 2
f 13 12 7
f 13 2 10
f 13 10 12
f 13 5 1
f 15 13 7
f 15 9 13
f 16 10 6
f 16 4 3
f 16 3 10
f 16 11 4
f 17 4 11
f 17 9 15
f 17 15 7
f 17 12 4
f 17 7 12
f 18 17 11
f 18 9 17
f 18 8 5
f 19 13 9
f 19 5 13
f 19 18 5
f 19 9 18
f 20 2 8
f 22 16 6
f 22 11 16
f 24 20 8
f 24 8 18
f 24 23 20
f 24 18 23
f 25 21 10
f 25 10 2
f 27 2 20
f 27 26 21
f 27 20 26
f 27 25 2
f 27 21 25
f 28 14 6
f 28 26 14
f 28 21 26
f 29 6 10
f 29 10 21
f 29 28 6
f 29 21 28
f 30 23 18
f 30 18 11
f 31 26 20
f 31 20 23
f 31 23 26
f 32 22 6
f 32 6 14
f 32 14 26
f 33 30 11
f 33 11 22
f 33 26 23
f 33 23 30
f 33 32 26
f 33 22 32

