# https://github.com/mikedh/trimesh
v 0.02793099 0.00764247 0.05205328
v 0.02882252 -0.00475702 0.05183466
v 0.02076265 0.00301245 0.01494067
v 0.01764029 0.00600838 0.01375953
v 0.02190561 -0.00412144 0.03836017
v 0.01979263 0.00552549 0.01410946
v 0.02881289 0.00226440 0.04792907
v 0.02679055 -0.00488901 0.05212286
v 0.02186830 0.00770361 0.04057396
v 0.02034309 -0.00466803 0.01395508
v 0.02528431 0.00732609 0.04091508
v 0.02890553 0.00576487 0.05183021
v 0.02794722 -0.00476928 0.05208093
v 0.01913183 -0.00508058 0.02708916
v 0.02620839 0.00795590 0.05178967
v 0.02262725 0.00797592 0.04287358
v 0.02881784 -0.00110373 0.04724863
v 0.02078167 -0.00038297 0.01407012
v 0.02780406 0.00727515 0.04732239
v 0.02662520 0.00778781 0.05220654
v 0.01876625 0.00695046 0.02711350
v 0.02087360 0.00702004 0.03673437
v 0.01796521 -0.00493465 0.01375869
v 0.02362605 -0.00490194 0.04296539
v 0.02546840 -0.00498680 0.04814011
v 0.02786934 -0.00459183 0.04638867
v 0.02885904 -0.00465291 0.05139828
v 0.02074029 -0.00278260 0.01406529
v 0.02876746 0.00045089 0.04727179
v 0.02843758 0.00752765 0.05177189
v 0.02889107 0.00579143 0.05140961
v 0.01919909 0.00711441 0.02965271
v 0.01821082 -0.00503917 0.01643041
v 0.01820976 0.00616864 0.02088068
v 0.02882323 -0.00284018 0.04867429
f 11 6 4
f 13 8 2
f 13 12 1
f 13 2 12
f 16 9 5
f 16 5 8
f 16 8 15
f 16 15 11
f 16 11 4
f 17 7 12
f 18 6 3
f 18 3 7
f 18 10 4
f 18 4 6
f 19 6 11
f 19 3 6
f 19 7 3
f 20 13 1
f 20 8 13
f 20 15 8
f 20 1 15
f 21 16 4
f 22 14 5
f 22 5 9
f 23 4 10
f 24 8 5
f 24 5 14
f 25 2 8
f 25 24 14
f 25 8 24
f 26 2 10
f 27 17 12
f 27 12 2
f 27 2 26
f 28 18 17
f 28 10 18
f 29 18 7
f 29 7 17
f 29 17 18
f 30 19 11
f 30 1 12
f 30 15 1
f 30 11 15
f 31 12 7
f 31 7 19
f 31 30 12
f 31 19 30
f 32 9 16
f 32 16 21
f 32 22 9
f 32 21 14
f 32 14 22
f 33 23 10
f 33 10 2
f 33 2 25
f 33 25 14
f 33 14 23
f 34 21 4
f 34 4 23
f 34 23 14
f 34 14 21
f 35 26 10
f 35 27 26
f 35 17 27
f 35 28 17
f 35 10 28

