# https://github.com/mikedh/trimesh
v 0.01571782 -0.02197561 0.05219150
v 0.01600081 -0.02136219 0.05189182
v 0.00510965 -0.02611131 0.05212191
v 0.00505328 -0.01946156 0.02715060
v 0.01479055 -0.01802402 0.02736110
v 0.01603080 -0.01228381 0.02886599
v 0.01499489 -0.02326819 0.04638187
v 0.01614172 -0.01702820 0.04211793
v 0.00521012 -0.02293370 0.04282384
v 0.01581720 -0.01210203 0.02717217
v 0.01552765 -0.02336499 0.05205517
v 0.00476064 -0.02279601 0.02729185
v 0.01608602 -0.02057217 0.05014137
v 0.00523226 -0.02019535 0.03234216
v 0.00486865 -0.02695071 0.05216305
v 0.00612930 -0.01905257 0.02708367
v 0.01227488 -0.01995441 0.02732838
v 0.00469809 -0.02706550 0.04627777
v 0.01104366 -0.02602831 0.05203663
v 0.01539917 -0.01255964 0.02709906
v 0.01068101 -0.02599656 0.04796507
v 0.00472738 -0.02805245 0.05184122
v 0.00647558 -0.02245684 0.02732247
v 0.01497770 -0.02427811 0.05181820
v 0.00753262 -0.02691384 0.05206046
v 0.00910076 -0.02698657 0.05185177
v 0.00731583 -0.02683194 0.04724685
v 0.00889313 -0.02153762 0.02734506
v 0.01318343 -0.02505186 0.04967800
v 0.01499177 -0.02416994 0.05054076
v 0.01282981 -0.02511490 0.05201961
v 0.01164803 -0.02614972 0.05185402
v 0.00470304 -0.02798758 0.05050624
v 0.00905950 -0.02690626 0.05051192
v 0.01151570 -0.02594302 0.04967867
v 0.00555515 -0.02786927 0.05181382
v 0.00553474 -0.02779745 0.05053125
f 1 2 3
f 8 6 3
f 8 3 2
f 9 3 6
f 10 6 5
f 11 7 5
f 11 2 1
f 13 8 2
f 13 5 6
f 13 6 8
f 13 11 5
f 13 2 11
f 14 9 6
f 14 4 9
f 14 10 4
f 14 6 10
f 15 9 4
f 15 3 9
f 15 1 3
f 16 12 4
f 17 5 7
f 17 12 16
f 18 4 12
f 19 11 1
f 19 1 15
f 20 16 4
f 20 4 10
f 20 17 16
f 20 10 5
f 20 5 17
f 21 17 7
f 22 15 4
f 22 4 18
f 23 12 17
f 25 19 15
f 25 15 22
f 26 25 22
f 26 19 25
f 27 23 21
f 27 18 12
f 27 12 23
f 28 23 17
f 28 17 21
f 28 21 23
f 29 21 7
f 30 7 11
f 30 11 24
f 30 29 7
f 31 24 11
f 31 11 19
f 32 19 26
f 32 31 19
f 32 24 31
f 32 30 24
f 32 29 30
f 33 22 18
f 33 18 27
f 34 27 21
f 34 32 26
f 35 21 29
f 35 29 32
f 35 34 21
f 35 32 34
f 36 26 22
f 36 22 33
f 37 33 27
f 37 27 34
f 37 36 33
f 37 34 26
f 37 26 36

