# https://github.com/mikedh/trimesh
v 0.02259226 -0.00475944 0.02722142
v 0.02187777 -0.00796909 0.02731636
v 0.01986247 -0.00713272 0.01405345
v 0.00995217 -0.00989913 0.00075310
v 0.00691411 -0.01876238 0.02712010
v 0.02034309 -0.00466803 0.01395508
v 0.02165856 -0.00724506 0.02377863
v 0.00813989 -0.02185881 0.02730328
v 0.01913183 -0.00508058 0.02708916
v 0.01575570 -0.00979239 0.00617201
v 0.01905127 -0.01290461 0.02378422
v 0.02177533 -0.00459064 0.02114756
v 0.00646162 -0.02032098 0.01392593
v 0.01796521 -0.00493465 0.01375869
v 0.01050667 -0.00963275 0.00109384
v 0.01984657 -0.01053232 0.02119122
v 0.01575691 -0.01724484 0.02733966
v 0.02160763 -0.00545365 0.02118137
v 0.00664610 -0.02241115 0.02722769
v 0.00702421 -0.01717725 0.01366763
v 0.00972381 -0.01654142 0.00707222
v 0.02091431 -0.00460590 0.01668049
v 0.01382633 -0.01204193 0.00572030
v 0.02167627 -0.00789180 0.02555324
v 0.01992756 -0.01234545 0.02733899
v 0.02068374 -0.00784570 0.01941802
v 0.01720160 -0.01117731 0.01055244
v 0.01142596 -0.01972567 0.02201449
v 0.00715169 -0.02157084 0.02204306
v 0.00638575 -0.02088093 0.01665824
v 0.00976386 -0.01048972 0.00108062
v 0.02075325 -0.00546655 0.01671320
v 0.01983404 -0.01228729 0.02646591
v 0.01734384 -0.01558699 0.02735255
v 0.01814550 -0.01202381 0.01677429
v 0.01724880 -0.01054747 0.00986265
v 0.01888981 -0.01137871 0.01854241
v 0.01558526 -0.01031670 0.00635989
v 0.01392665 -0.01535548 0.01140425
v 0.01227488 -0.01995441 0.02732838
v 0.00975688 -0.02058159 0.02289036
v 0.00649398 -0.02178301 0.02198806
v 0.00796606 -0.02056780 0.01850831
v 0.01131442 -0.01454429 0.00571257
v 0.01299073 -0.01211875 0.00505022
v 0.01071631 -0.02074374 0.02733029
v 0.01553064 -0.01292348 0.00993288
v 0.01565820 -0.01633659 0.02121691
v 0.01461485 -0.01467057 0.01141094
v 0.01049307 -0.01794693 0.01140873
v 0.00801334 -0.02156467 0.02466474
v 0.00707844 -0.02060710 0.01672063
v 0.01213920 -0.01623501 0.00992418
v 0.01136114 -0.01375157 0.00505713
v 0.01291853 -0.01362584 0.00637840
v 0.01124599 -0.01889040 0.01763157
v 0.01391317 -0.01801115 0.02290343
v 0.01641015 -0.01634163 0.02554364
v 0.01816189 -0.01286199 0.01943819
v 0.01633976 -0.01285113 0.01232546
v 0.01465323 -0.01546406 0.01411271
v 0.00794743 -0.01968140 0.01405542
v 0.01035385 -0.01712348 0.00904422
v 0.01030812 -0.01619812 0.00725689
f 7 1 2
f 8 2 1
f 9 4 5
f 9 8 1
f 9 5 8
f 10 6 3
f 12 1 7
f 12 9 1
f 14 4 9
f 14 9 12
f 15 6 10
f 15 14 6
f 15 4 14
f 18 12 7
f 18 7 3
f 19 8 5
f 20 5 4
f 22 14 12
f 22 6 14
f 23 15 10
f 23 4 15
f 24 16 7
f 24 7 2
f 25 24 2
f 26 16 3
f 26 3 7
f 26 7 16
f 29 8 19
f 30 20 13
f 30 5 20
f 31 20 4
f 31 13 20
f 31 21 13
f 32 22 12
f 32 12 18
f 32 18 3
f 32 3 6
f 32 6 22
f 33 25 11
f 33 11 16
f 33 16 24
f 33 24 25
f 34 11 25
f 34 25 2
f 36 10 3
f 36 3 27
f 37 27 3
f 37 3 16
f 37 35 27
f 37 16 11
f 37 11 35
f 38 23 10
f 38 36 27
f 38 10 36
f 40 17 34
f 41 29 28
f 42 19 5
f 42 5 30
f 42 30 29
f 42 29 19
f 43 28 29
f 44 21 31
f 45 31 4
f 45 4 23
f 45 23 44
f 46 34 2
f 46 2 8
f 46 40 34
f 46 28 40
f 46 41 28
f 46 8 41
f 47 38 27
f 47 23 38
f 49 47 27
f 51 41 8
f 51 8 29
f 51 29 41
f 52 30 13
f 52 13 28
f 52 28 43
f 52 43 29
f 52 29 30
f 53 39 50
f 54 45 44
f 54 44 31
f 54 31 45
f 55 44 23
f 55 23 47
f 55 53 44
f 55 39 53
f 55 49 39
f 55 47 49
f 56 48 28
f 56 50 39
f 56 28 50
f 57 40 28
f 57 28 48
f 57 48 17
f 57 17 40
f 58 34 17
f 58 17 48
f 58 48 11
f 58 11 34
f 59 35 11
f 59 11 48
f 60 49 27
f 60 27 35
f 60 59 49
f 60 35 59
f 61 39 49
f 61 56 39
f 61 48 56
f 61 59 48
f 61 49 59
f 62 50 28
f 62 28 13
f 62 13 50
f 63 50 13
f 63 13 21
f 63 53 50
f 64 21 44
f 64 44 53
f 64 63 21
f 64 53 63

