# https://github.com/mikedh/trimesh
v 0.02169173 0.01905937 0.05198923
v 0.02843758 0.00752765 0.05177189
v 0.01802143 0.00799162 0.01061142
v 0.00665160 0.01030354 0.00051064
v 0.00870646 0.02373448 0.04736382
v 0.01161346 0.00565373 0.00079669
v 0.01064326 0.01552959 0.00988106
v 0.02612995 0.01249741 0.04793992
v 0.01635900 0.02186334 0.05210032
v 0.01928228 0.00565331 0.01224122
v 0.02196776 0.00712951 0.04027837
v 0.01552435 0.01216096 0.01151872
v 0.00642719 0.01763490 0.01048218
v 0.01468589 0.00883910 0.00556423
v 0.02620140 0.01335865 0.05172602
v 0.02636576 0.00798848 0.05212634
v 0.01429610 0.02443318 0.04720504
v 0.02812668 0.00738878 0.04871738
v 0.01903015 0.00645619 0.01230773
v 0.00692362 0.01076825 0.00426525
v 0.02225793 0.00573932 0.02727351
v 0.02344502 0.01670262 0.04802313
v 0.00634611 0.01497678 0.00542101
v 0.01108196 0.00704027 0.00125165
v 0.01384569 0.01201041 0.00828004
v 0.01544206 0.01150446 0.00991572
v 0.01570633 0.00564401 0.00488859
v 0.02789382 0.00911791 0.05142285
v 0.02706618 0.00764966 0.05218896
v 0.01549889 0.02451911 0.05187784
v 0.00713025 0.01738429 0.01055994
v 0.00840334 0.02692906 0.04780691
v 0.01923091 0.02097091 0.04730460
v 0.00891151 0.01946781 0.03661876
v 0.00641681 0.01074656 0.00087938
v 0.01148719 0.00618222 0.00403789
v 0.02096884 0.00562067 0.01936846
v 0.01900397 0.00612850 0.02707075
v 0.01805950 0.00875850 0.01234824
v 0.02437820 0.01593292 0.04972177
v 0.01113401 0.00590245 0.00046906
v 0.01043555 0.01307140 0.00560199
v 0.01724878 0.00878262 0.00988326
v 0.01455506 0.01132816 0.00825897
v 0.01296306 0.01384447 0.00995875
v 0.01560424 0.00642286 0.00506180
v 0.01849142 0.00568386 0.00969900
v 0.02787996 0.00916217 0.05184212
v 0.02610468 0.01330339 0.05056700
v 0.01550270 0.02359329 0.05209523
v 0.02595168 0.01291645 0.05202674
v 0.01146698 0.01635607 0.01412022
v 0.00794279 0.01634830 0.00912534
v 0.00650177 0.01829859 0.01316690
v 0.00993225 0.02640007 0.04788581
v 0.02172702 0.01849400 0.04732271
v 0.01662259 0.02355492 0.04967340
v 0.02113120 0.00709055 0.03754177
v 0.02191536 0.00562338 0.02465016
v 0.02264668 0.01856018 0.05175934
v 0.00780242 0.01035816 0.00130572
v 0.01061188 0.01462076 0.00823838
v 0.01472764 0.01291288 0.01146540
v 0.01125068 0.01475613 0.00910812
f 16 9 5
f 16 5 11
f 19 10 3
f 19 3 8
f 19 18 10
f 19 8 18
f 21 18 2
f 26 12 3
f 28 18 8
f 28 2 18
f 29 9 16
f 29 16 11
f 29 21 2
f 34 20 11
f 34 11 5
f 34 5 20
f 35 20 5
f 35 4 20
f 35 23 4
f 36 20 4
f 37 10 18
f 37 27 10
f 37 6 27
f 38 36 6
f 38 29 11
f 38 21 29
f 39 22 8
f 39 8 3
f 39 3 12
f 39 12 22
f 40 8 22
f 41 24 14
f 41 36 4
f 41 6 36
f 42 4 23
f 43 26 3
f 43 14 26
f 44 26 14
f 44 25 26
f 44 42 25
f 44 14 42
f 45 26 25
f 46 27 6
f 46 14 43
f 46 43 3
f 46 41 14
f 46 6 41
f 47 3 10
f 47 10 27
f 47 46 3
f 47 27 46
f 48 28 15
f 48 2 28
f 48 29 2
f 49 28 8
f 49 15 28
f 49 40 15
f 49 8 40
f 50 29 1
f 50 9 29
f 50 1 30
f 50 30 32
f 50 32 5
f 50 5 9
f 51 1 29
f 51 48 15
f 51 29 48
f 52 31 17
f 52 7 31
f 52 45 7
f 52 33 45
f 53 23 13
f 53 13 31
f 53 31 7
f 54 32 13
f 54 5 32
f 54 35 5
f 54 13 23
f 54 23 35
f 55 32 30
f 55 30 17
f 55 17 31
f 55 31 13
f 55 13 32
f 56 22 12
f 56 12 33
f 57 17 30
f 57 52 17
f 57 33 52
f 58 11 20
f 58 20 36
f 58 38 11
f 58 36 38
f 59 37 18
f 59 18 21
f 59 6 37
f 59 38 6
f 59 21 38
f 60 15 40
f 60 51 15
f 60 1 51
f 60 40 22
f 60 22 56
f 60 56 33
f 60 33 57
f 60 57 30
f 60 30 1
f 61 41 4
f 61 24 41
f 61 4 42
f 61 42 14
f 61 14 24
f 62 42 23
f 62 53 7
f 62 23 53
f 63 12 26
f 63 26 45
f 63 45 33
f 63 33 12
f 64 45 25
f 64 25 42
f 64 42 62
f 64 62 7
f 64 7 45

