# https://github.com/mikedh/trimesh
v -0.00940384 -0.02557405 0.05218611
v -0.00928341 -0.02683497 0.05200278
v -0.00969281 -0.01882710 0.03414123
v -0.01986515 -0.01180466 0.02723618
v -0.02649646 -0.01159198 0.05191699
v -0.01374878 -0.01892736 0.02721820
v -0.00897617 -0.02264961 0.03539576
v -0.01973023 -0.02128708 0.05206930
v -0.02482501 -0.01202702 0.05215127
v -0.01475368 -0.01364100 0.02707208
v -0.00904326 -0.02615991 0.04629384
v -0.00922870 -0.02233483 0.03439004
v -0.01193695 -0.02590496 0.05207823
v -0.02337081 -0.01661027 0.04727000
v -0.00977677 -0.02195779 0.04372680
v -0.02016712 -0.01156422 0.02823026
v -0.00932987 -0.02607892 0.05218243
v -0.02406004 -0.01612914 0.05207904
v -0.01659630 -0.01286632 0.03219159
v -0.01166902 -0.02600824 0.04956390
v -0.02557721 -0.01161246 0.04618256
v -0.01808269 -0.01480766 0.02736747
v -0.01930702 -0.02158541 0.04795218
v -0.00956247 -0.02523052 0.05189003
v -0.01559143 -0.01266606 0.02708840
v -0.01455997 -0.02478394 0.05205040
v -0.02607970 -0.01185119 0.05211067
v -0.02436315 -0.01579018 0.05049014
v -0.01844470 -0.01275734 0.03748390
v -0.01074458 -0.02594829 0.04727253
v -0.01170678 -0.02609314 0.05193720
v -0.02521661 -0.01321051 0.04718303
v -0.02642703 -0.01156686 0.05045663
v -0.01479232 -0.01817269 0.02735200
v -0.02086222 -0.01997709 0.04798253
v -0.01572576 -0.01278343 0.02884832
v -0.01946819 -0.02168009 0.05179538
v -0.01421266 -0.02509068 0.05045616
v -0.02589701 -0.01264413 0.05207653
v -0.02437799 -0.01585017 0.05191178
v -0.01411167 -0.02512632 0.05187167
v -0.02522026 -0.01404312 0.04958916
v -0.02255276 -0.01728437 0.04642086
v -0.02267660 -0.01820731 0.05045467
v -0.01340801 -0.02501682 0.04730496
v -0.01669035 -0.02336069 0.04797039
v -0.02615538 -0.01231174 0.05192503
v -0.02259457 -0.01833983 0.05186940
v -0.02609152 -0.01232093 0.05048775
v -0.02177570 -0.01907401 0.04870178
v -0.01492063 -0.02423054 0.04730874
f 7 3 1
f 10 6 4
f 10 3 6
f 12 6 3
f 12 3 7
f 12 11 6
f 12 7 11
f 15 1 3
f 15 3 9
f 16 5 9
f 17 9 8
f 17 1 9
f 17 13 2
f 17 2 11
f 17 11 7
f 17 7 1
f 18 8 9
f 21 16 4
f 22 14 4
f 22 4 6
f 24 15 9
f 24 9 1
f 24 1 15
f 25 10 4
f 25 4 16
f 25 16 9
f 25 3 10
f 26 17 8
f 26 13 17
f 27 18 9
f 27 9 5
f 29 9 3
f 29 3 19
f 30 11 2
f 30 2 20
f 30 6 11
f 31 20 2
f 31 2 13
f 32 21 4
f 32 4 14
f 33 5 16
f 33 16 21
f 33 21 32
f 34 23 22
f 34 22 6
f 34 6 23
f 35 22 23
f 36 19 3
f 36 3 25
f 36 29 19
f 36 25 9
f 36 9 29
f 37 26 8
f 37 35 23
f 38 20 31
f 39 27 5
f 39 18 27
f 40 18 39
f 41 31 13
f 41 13 26
f 41 38 31
f 41 26 37
f 41 37 38
f 42 32 14
f 42 14 28
f 42 33 32
f 42 28 40
f 43 35 14
f 43 14 22
f 43 22 35
f 44 28 14
f 44 40 28
f 45 30 20
f 45 20 38
f 45 6 30
f 46 38 37
f 46 37 23
f 46 23 6
f 47 40 39
f 47 39 5
f 47 42 40
f 48 37 8
f 48 8 18
f 48 18 40
f 48 44 37
f 48 40 44
f 49 5 33
f 49 33 42
f 49 47 5
f 49 42 47
f 50 44 14
f 50 14 35
f 50 35 37
f 50 37 44
f 51 45 38
f 51 38 46
f 51 46 6
f 51 6 45

