# https://github.com/mikedh/trimesh
v 0.01966214 0.00578048 0.01392255
v 0.02002284 -0.00638944 0.01402573
v 0.01371391 -0.00039529 0.00118269
v 0.00653319 0.01010089 0.00034392
v 0.01570776 -0.01020594 0.01380889
v 0.01640627 0.00556884 0.00553239
v 0.02004440 0.00471819 0.01404185
v 0.00692362 0.01076825 0.00426525
v 0.01551868 -0.00965408 0.00562381
v 0.01197234 0.00454402 0.00050029
v 0.01063235 0.01077512 0.00633551
v 0.01910723 -0.00880763 0.01404330
v 0.01764029 0.00600838 0.01375953
v 0.01894372 0.00464378 0.00990408
v 0.00684873 -0.01039466 0.00317405
v 0.01290628 0.00203456 0.00049961
v 0.01038942 0.00715400 0.00053317
v 0.01889540 0.00551214 0.01058868
v 0.01903146 -0.00634381 0.00985354
v 0.01859561 -0.00987193 0.01395307
v 0.01532108 -0.01057233 0.01283544
v 0.00970868 -0.00971459 0.00043896
v 0.01736940 0.00296466 0.00563837
v 0.01058282 0.00976040 0.00303094
v 0.01122691 0.01045571 0.00661749
v 0.01986006 0.00465601 0.01320806
v 0.01894880 -0.00784079 0.01140277
v 0.01726004 -0.00547828 0.00568984
v 0.01723271 -0.00966052 0.00899464
v 0.00666767 -0.01009551 0.00020182
v 0.01286965 -0.00373035 0.00045961
v 0.01717882 0.00463963 0.00634309
v 0.01993869 -0.00281677 0.01049936
v 0.00772474 0.00960112 0.00050925
v 0.01992584 0.00298971 0.01140053
v 0.01984564 -0.00635407 0.01317358
v 0.01811399 -0.00965917 0.01139005
v 0.01715474 -0.00694927 0.00635249
v 0.01807615 -0.00278631 0.00628087
v 0.01808433 -0.00873922 0.00987887
v 0.01210484 -0.00624138 0.00049712
v 0.01904838 0.00297906 0.00895811
v 0.01980951 -0.00456790 0.01139239
v 0.01634072 -0.00788280 0.00564032
v 0.01808902 -0.00039706 0.00628138
v 0.01897270 -0.00458833 0.00897834
v 0.01800048 -0.00545560 0.00723494
v 0.01366315 -0.00283055 0.00126345
v 0.01802861 -0.00696925 0.00815749
v 0.01131752 -0.00785023 0.00054528
v 0.01989538 0.00049469 0.01052584
f 11 4 8
f 12 7 5
f 12 2 7
f 13 7 1
f 13 5 7
f 13 8 5
f 13 11 8
f 13 1 11
f 15 8 4
f 15 5 8
f 16 10 6
f 16 4 10
f 17 10 4
f 17 6 10
f 18 14 6
f 20 12 5
f 21 5 15
f 21 20 5
f 23 16 6
f 23 3 16
f 24 6 17
f 24 18 6
f 24 4 11
f 25 11 1
f 25 1 18
f 25 24 11
f 25 18 24
f 26 18 1
f 26 1 7
f 27 2 12
f 29 21 9
f 29 20 21
f 30 21 15
f 30 15 4
f 30 4 16
f 30 22 9
f 30 9 21
f 31 16 3
f 31 30 16
f 32 23 6
f 32 6 14
f 33 7 2
f 34 24 17
f 34 17 4
f 34 4 24
f 35 14 18
f 35 18 26
f 35 26 7
f 35 7 33
f 36 27 19
f 36 2 27
f 37 27 12
f 37 12 20
f 37 20 29
f 38 29 9
f 39 28 31
f 40 19 27
f 40 37 29
f 40 27 37
f 40 29 38
f 41 31 28
f 41 22 30
f 41 30 31
f 42 32 14
f 42 23 32
f 42 14 35
f 43 33 2
f 43 2 36
f 43 36 19
f 43 19 33
f 44 38 9
f 44 28 38
f 44 41 28
f 44 9 41
f 45 39 3
f 45 3 23
f 45 23 42
f 45 33 39
f 46 39 33
f 46 33 19
f 47 19 28
f 47 28 39
f 47 46 19
f 47 39 46
f 48 39 31
f 48 31 3
f 48 3 39
f 49 40 38
f 49 19 40
f 49 38 28
f 49 28 19
f 50 41 9
f 50 9 22
f 50 22 41
f 51 42 35
f 51 35 33
f 51 45 42
f 51 33 45

