# https://github.com/mikedh/trimesh
v -0.01373088 0.02355154 0.05213129
v -0.01354913 0.02497066 0.05180723
v -0.02891618 0.00222205 0.04785593
v -0.01364494 0.01725566 0.02727822
v -0.01336843 0.01775144 0.02828501
v -0.02344678 0.01678037 0.04707641
v -0.02619867 0.01343048 0.05181369
v -0.01346438 0.02477769 0.04968324
v -0.01960422 0.00057378 0.02709387
v -0.01903973 0.02090783 0.05200308
v -0.02679670 0.00517243 0.05211962
v -0.02601865 0.00989461 0.04272560
v -0.01503772 0.02255562 0.04358896
v -0.01470723 0.01202480 0.02693434
v -0.01638171 0.02267879 0.05200549
v -0.02443764 0.01586118 0.05181191
v -0.01937857 0.02087617 0.04710942
v -0.02867634 0.00496720 0.05200334
v -0.02620099 0.01211174 0.05205835
v -0.02608001 0.00052964 0.04747311
v -0.02602367 0.01250789 0.04712408
v -0.02317291 0.00056941 0.02727769
v -0.01903685 0.01226274 0.02757706
v -0.01347669 0.02302330 0.04261754
v -0.01460927 0.02355144 0.05203713
v -0.01856654 0.02194715 0.05178654
v -0.02432284 0.01590220 0.04871356
v -0.01583363 0.02358680 0.04968611
v -0.01671663 0.01999378 0.03926963
v -0.02798157 0.00499790 0.05214138
v -0.02341981 0.01642478 0.05201450
v -0.02797669 0.00766442 0.05205643
v -0.02198268 0.00061438 0.03668780
v -0.01423326 0.02262748 0.05210321
v -0.02895784 0.00071557 0.04782168
v -0.02343978 0.01487323 0.04279830
v -0.02791803 0.00820884 0.04712313
v -0.02290907 0.00052842 0.03923421
v -0.02181944 0.00726410 0.02745529
v -0.01337741 0.02112556 0.03732880
v -0.01587011 0.02380229 0.05174114
v -0.02016632 0.02007451 0.04632632
v -0.02613007 0.01336428 0.05051056
v -0.02434192 0.01504026 0.04620615
v -0.01422029 0.02444280 0.04975542
v -0.01759923 0.02175005 0.04621920
v -0.01496112 0.02168897 0.04102822
v -0.02017360 0.00068201 0.02968038
v -0.02878680 0.00065949 0.04712570
v -0.02698505 0.00988045 0.04619193
v -0.02788773 0.00911768 0.05179483
v -0.02690046 0.00649127 0.04184368
v -0.02463654 0.00053545 0.04381863
v -0.02339572 0.01161415 0.03743990
v -0.02262366 0.00476408 0.02739250
v -0.01846216 0.02177673 0.04878135
v -0.02085620 0.01838059 0.04362823
v -0.02788000 0.00907522 0.05043839
v -0.02697698 0.01077468 0.04788179
v -0.01429973 0.02471140 0.05166012
v -0.01420151 0.02271244 0.04273481
v -0.02876451 0.00225454 0.04709685
v -0.02691009 0.00820720 0.04361788
v -0.02511767 0.00988678 0.04012187
f 8 2 1
f 8 1 5
f 14 5 1
f 14 1 9
f 14 4 5
f 15 10 1
f 22 14 9
f 24 13 8
f 25 15 1
f 25 1 2
f 25 2 15
f 26 10 15
f 26 6 16
f 27 16 6
f 27 7 16
f 29 17 13
f 30 11 1
f 30 1 19
f 30 20 11
f 31 19 1
f 31 1 10
f 31 16 7
f 31 7 19
f 31 26 16
f 31 10 26
f 32 19 7
f 32 30 19
f 32 18 30
f 34 1 11
f 34 11 20
f 34 33 1
f 35 18 3
f 35 30 18
f 35 20 30
f 36 12 21
f 37 3 18
f 38 22 9
f 38 20 22
f 38 9 33
f 38 33 34
f 39 23 4
f 39 4 14
f 40 24 8
f 40 8 5
f 40 5 4
f 41 26 15
f 41 15 2
f 42 26 17
f 42 6 26
f 42 17 29
f 43 27 21
f 43 7 27
f 44 27 6
f 44 21 27
f 44 36 21
f 44 6 36
f 45 8 13
f 45 13 28
f 46 28 13
f 46 13 17
f 46 17 28
f 47 29 13
f 47 4 29
f 48 33 9
f 48 9 1
f 48 1 33
f 49 22 20
f 49 20 35
f 50 21 12
f 50 12 37
f 51 18 32
f 51 32 7
f 53 38 34
f 53 34 20
f 53 20 38
f 54 36 23
f 54 23 39
f 54 12 36
f 55 39 14
f 55 14 22
f 55 52 39
f 55 22 52
f 56 41 28
f 56 28 17
f 56 17 26
f 56 26 41
f 57 36 6
f 57 6 42
f 57 23 36
f 57 4 23
f 57 42 29
f 57 29 4
f 58 7 43
f 58 51 7
f 58 37 18
f 58 18 51
f 59 43 21
f 59 58 43
f 59 37 58
f 59 50 37
f 59 21 50
f 60 45 28
f 60 28 41
f 60 41 2
f 60 2 8
f 60 8 45
f 61 47 13
f 61 13 24
f 61 24 40
f 61 40 4
f 61 4 47
f 62 49 35
f 62 35 3
f 62 22 49
f 62 52 22
f 62 3 37
f 62 37 52
f 63 52 37
f 63 37 12
f 63 12 39
f 63 39 52
f 64 54 39
f 64 39 12
f 64 12 54

