# https://github.com/mikedh/trimesh
v -0.00596340 -0.02040655 0.03424662
v -0.00579253 -0.02349930 0.03433952
v -0.00318522 -0.01690048 0.00732929
v -0.01867305 -0.00380273 0.00783333
v -0.02269092 -0.00388303 0.02720925
v -0.01310925 -0.01629675 0.01145945
v -0.00316902 -0.01854636 0.01378166
v -0.01347545 -0.02022862 0.03451122
v -0.01944105 -0.00392884 0.02714274
v -0.00370768 -0.02068379 0.01134293
v -0.01132517 -0.01613255 0.00816908
v -0.01814669 -0.00951846 0.01053230
v -0.00470924 -0.02281813 0.02728583
v -0.00889559 -0.02251527 0.03452232
v -0.01596659 -0.00398877 0.00727144
v -0.02182183 -0.00367585 0.02109582
v -0.01419899 -0.01598958 0.03413840
v -0.00304880 -0.02076949 0.01133423
v -0.00883974 -0.01883718 0.01054995
v -0.00307146 -0.01949185 0.00777056
v -0.01541162 -0.01205343 0.00813952
v -0.01909718 -0.01312822 0.02736269
v -0.01242748 -0.02084190 0.03458876
v -0.00811051 -0.02150817 0.02466438
v -0.02076759 -0.00540070 0.01575801
v -0.00309757 -0.02121228 0.01391128
v -0.01128885 -0.01704568 0.00993236
v -0.01399277 -0.01805971 0.02203991
v -0.00800160 -0.01808615 0.00807107
v -0.00453021 -0.01967141 0.00899561
v -0.00306401 -0.01995748 0.00884569
v -0.01287637 -0.01546332 0.00903683
v -0.01631178 -0.01291131 0.01144279
v -0.01801729 -0.00709018 0.00812139
v -0.02182300 -0.00718625 0.02731556
v -0.00465187 -0.02262554 0.02552266
v -0.00974535 -0.02066274 0.02287640
v -0.02093351 -0.00372289 0.01494251
v -0.01224874 -0.01791410 0.01584463
v -0.01748999 -0.01559655 0.02731891
v -0.00629265 -0.01970745 0.01053200
v -0.00546138 -0.01893652 0.00803911
v -0.00719566 -0.01879649 0.00900146
v -0.01630068 -0.01213943 0.00989124
v -0.01714477 -0.01304717 0.01494447
v -0.01985803 -0.00467698 0.01138074
v -0.02081290 -0.00970419 0.02737246
v -0.00547272 -0.02152502 0.01936683
v -0.01140303 -0.01973314 0.02288146
v -0.01387209 -0.01723834 0.01757999
v -0.00954676 -0.01881215 0.01229338
v -0.01471424 -0.01809854 0.02646899
v -0.01712394 -0.01121228 0.01057156
v -0.01458642 -0.01366496 0.00907979
v -0.01734527 -0.01543756 0.02557314
v -0.01644381 -0.01452612 0.01673124
v -0.01894675 -0.00538308 0.00901516
v -0.01895069 -0.00800784 0.01135064
v -0.02079210 -0.00459372 0.01499402
v -0.01916264 -0.00380912 0.00885591
v -0.01892243 -0.01045974 0.01667525
v -0.00808061 -0.02056137 0.01849880
v -0.01314020 -0.01791238 0.01850210
v -0.00896387 -0.02057895 0.02027193
f 7 3 1
f 9 1 3
f 13 7 1
f 13 1 2
f 14 2 1
f 15 9 3
f 16 5 9
f 16 15 4
f 16 9 15
f 17 1 9
f 17 9 5
f 17 5 8
f 20 3 7
f 20 7 18
f 21 4 15
f 21 15 3
f 21 3 11
f 23 14 1
f 23 17 8
f 23 1 17
f 24 2 14
f 26 10 18
f 26 18 7
f 26 7 13
f 27 19 6
f 27 11 19
f 29 11 3
f 29 3 20
f 29 19 11
f 31 20 18
f 31 18 10
f 31 30 20
f 31 10 30
f 32 21 11
f 32 27 6
f 32 11 27
f 33 32 6
f 34 21 12
f 34 4 21
f 35 8 5
f 35 5 25
f 36 13 2
f 36 2 24
f 36 26 13
f 37 24 14
f 37 14 23
f 38 25 5
f 38 5 16
f 38 16 4
f 40 8 22
f 41 30 10
f 42 29 20
f 42 20 30
f 43 19 29
f 43 42 30
f 43 29 42
f 43 41 19
f 43 30 41
f 44 12 21
f 47 22 8
f 47 8 35
f 48 36 24
f 48 10 26
f 48 26 36
f 49 37 23
f 49 23 8
f 49 8 28
f 50 6 39
f 51 39 6
f 51 6 19
f 51 37 49
f 52 40 28
f 52 28 8
f 52 8 40
f 53 44 33
f 53 12 44
f 53 45 12
f 53 33 45
f 54 44 21
f 54 21 32
f 54 32 33
f 54 33 44
f 55 40 22
f 55 22 45
f 55 28 40
f 56 45 33
f 56 33 6
f 56 6 50
f 56 55 45
f 56 50 28
f 56 28 55
f 57 34 12
f 57 4 34
f 58 25 46
f 58 57 12
f 58 46 57
f 59 46 25
f 59 25 38
f 59 38 46
f 60 46 38
f 60 38 4
f 60 57 46
f 60 4 57
f 61 45 22
f 61 22 47
f 61 12 45
f 61 58 12
f 61 25 58
f 61 47 35
f 61 35 25
f 62 41 10
f 62 10 48
f 62 19 41
f 63 49 28
f 63 51 49
f 63 39 51
f 63 50 39
f 63 28 50
f 64 51 19
f 64 37 51
f 64 19 62
f 64 24 37
f 64 62 48
f 64 48 24

