# https://github.com/mikedh/trimesh
v -0.00574263 0.02619735 0.05214171
v -0.00598429 0.02544774 0.05210461
v -0.00418853 0.01446540 0.00722443
v -0.00931510 0.00942082 0.00138603
v -0.02042330 0.01007459 0.02735202
v -0.01556085 0.01093396 0.02698828
v -0.00416525 0.01646825 0.01372761
v -0.01354913 0.02497066 0.05180723
v -0.00521294 0.01833188 0.02702480
v -0.00992801 0.00910723 0.00163981
v -0.01420291 0.02250949 0.05189716
v -0.00379903 0.01842837 0.01221656
v -0.00624122 0.01954158 0.03405537
v -0.02024806 0.00996886 0.02648709
v -0.01392924 0.02302842 0.05217356
v -0.00556762 0.02724991 0.04881225
v -0.00382891 0.01877835 0.01393191
v -0.00372183 0.01742804 0.00896424
v -0.01460044 0.01221241 0.01057829
v -0.01104418 0.02529911 0.05200074
v -0.01063286 0.02617176 0.04979135
v -0.00566862 0.02767847 0.05168059
v -0.00380558 0.01687405 0.00788905
v -0.01778014 0.00906956 0.01222119
v -0.00970536 0.01569803 0.00982904
v -0.01215510 0.01195654 0.00647509
v -0.01373088 0.02355154 0.05213129
v -0.00635528 0.02535323 0.04184384
v -0.00823918 0.02719187 0.05147200
v -0.00841272 0.02616559 0.05199685
v -0.00901264 0.00991295 0.00170276
v -0.01807591 0.01310092 0.02669651
v -0.01232846 0.00895550 0.00379421
v -0.00628569 0.01722931 0.01053069
v -0.00716177 0.01632854 0.00905985
v -0.01324487 0.02255820 0.04101987
v -0.01129833 0.01200871 0.00563675
v -0.01585910 0.00899019 0.00797225
v -0.01381703 0.01213158 0.00898626
v -0.01283244 0.02441869 0.05202680
v -0.00730527 0.02704662 0.04976360
v -0.01078063 0.02644261 0.05165592
v -0.01808354 0.00931216 0.01387284
v -0.02006616 0.01073294 0.02746702
v -0.00804486 0.01638767 0.00984043
v -0.00451931 0.01721854 0.00904956
v -0.01389458 0.01285521 0.01056210
v -0.01332595 0.02443313 0.04797833
v -0.01472757 0.01291166 0.01322340
v -0.01386233 0.00968149 0.00572072
v -0.00953024 0.01376492 0.00646605
v -0.01683190 0.00900943 0.00962740
v -0.01043478 0.01473994 0.00904540
v -0.00640969 0.02705717 0.04885950
v -0.00824584 0.02718758 0.05151744
v -0.01738584 0.00960958 0.01237191
v -0.01156170 0.02438077 0.04441642
v -0.01044073 0.01564519 0.01138419
v -0.01238679 0.02532266 0.04977398
v -0.01640104 0.01129373 0.01408611
v -0.01411924 0.00906435 0.00552552
v -0.01373029 0.01041513 0.00642164
v -0.00542806 0.01644621 0.00813103
v -0.01640986 0.00965093 0.00981223
f 7 1 2
f 9 7 2
f 9 3 7
f 9 6 4
f 9 4 3
f 10 4 6
f 11 6 2
f 11 5 6
f 11 8 5
f 13 9 2
f 13 2 6
f 13 6 9
f 14 10 6
f 14 6 5
f 15 11 2
f 15 2 1
f 15 8 11
f 17 1 7
f 17 12 16
f 18 7 3
f 18 17 7
f 18 12 17
f 22 17 16
f 22 1 17
f 23 18 3
f 24 14 5
f 27 15 1
f 27 1 20
f 27 8 15
f 28 16 12
f 28 12 21
f 29 22 16
f 30 20 1
f 30 1 22
f 31 23 3
f 31 3 4
f 33 10 14
f 33 14 24
f 34 12 18
f 34 21 12
f 37 31 4
f 40 27 20
f 40 20 8
f 40 8 27
f 41 28 21
f 41 29 16
f 41 21 29
f 42 29 21
f 42 30 22
f 42 8 20
f 42 20 30
f 43 24 5
f 44 5 8
f 44 43 5
f 44 32 43
f 45 35 25
f 46 18 23
f 46 23 35
f 46 35 45
f 46 45 34
f 46 34 18
f 47 39 19
f 47 25 39
f 48 36 32
f 48 44 8
f 48 32 44
f 49 32 36
f 49 47 19
f 49 36 47
f 50 37 4
f 50 4 10
f 50 26 37
f 51 37 26
f 51 25 35
f 51 23 31
f 51 31 37
f 52 38 33
f 52 33 24
f 53 39 25
f 53 26 39
f 53 51 26
f 53 25 51
f 54 41 16
f 54 16 28
f 54 28 41
f 55 42 22
f 55 22 29
f 55 29 42
f 56 43 19
f 56 19 24
f 56 24 43
f 57 45 25
f 57 21 34
f 57 34 45
f 57 48 21
f 57 25 36
f 57 36 48
f 58 47 36
f 58 36 25
f 58 25 47
f 59 42 21
f 59 21 48
f 59 48 8
f 59 8 42
f 60 43 32
f 60 32 49
f 60 49 19
f 60 19 43
f 61 50 10
f 61 10 33
f 61 33 38
f 61 38 50
f 62 39 26
f 62 26 50
f 62 50 38
f 63 51 35
f 63 35 23
f 63 23 51
f 64 52 24
f 64 24 19
f 64 19 39
f 64 38 52
f 64 62 38
f 64 39 62

