# https://github.com/mikedh/trimesh
v 0.02794722 -0.00476928 0.05208093
v 0.02879063 -0.00474376 0.05185607
v 0.02548075 -0.00373420 0.03903754
v 0.01952806 -0.00403715 0.02715974
v 0.01537239 -0.02401616 0.05187266
v 0.02281637 -0.00399910 0.04025705
v 0.02594052 -0.00382409 0.04068562
v 0.02253660 -0.01795757 0.05205659
v 0.02280589 -0.00373099 0.02731132
v 0.02679055 -0.00488901 0.05212286
v 0.01606405 -0.02142768 0.05209595
v 0.02610194 -0.01183059 0.05206035
v 0.02817177 -0.00464835 0.04715306
v 0.01575691 -0.01724484 0.02733966
v 0.02190561 -0.00412144 0.03836017
v 0.01553663 -0.02252443 0.05217276
v 0.02794535 -0.00566233 0.05206493
v 0.02609530 -0.01232955 0.04803459
v 0.01919319 -0.02076581 0.04801170
v 0.01913183 -0.00508058 0.02708916
v 0.02028649 -0.00414165 0.03134073
v 0.01730601 -0.02249922 0.05204527
v 0.01521152 -0.01767472 0.02727516
v 0.02781813 -0.00900723 0.05182890
v 0.02786985 -0.00794960 0.04801406
v 0.01992756 -0.01234545 0.02733899
v 0.02349069 -0.01655330 0.04876657
v 0.01626339 -0.01158922 0.02713765
v 0.01771805 -0.02259185 0.05185842
v 0.01525313 -0.02369169 0.04791805
v 0.02703027 -0.00917844 0.05204304
v 0.02623919 -0.01317484 0.05180927
v 0.02793316 -0.00642197 0.04724972
v 0.02790344 -0.00883724 0.05136684
v 0.02187777 -0.00796909 0.02731636
v 0.01814892 -0.01463296 0.02735891
v 0.02274902 -0.01813288 0.05145155
v 0.02522513 -0.01385594 0.04796733
v 0.02183922 -0.01806821 0.04727703
v 0.02071521 -0.01967355 0.05202894
v 0.01593809 -0.02334699 0.04792914
v 0.02427899 -0.01533991 0.05205230
v 0.02694500 -0.01056171 0.04874601
v 0.02263875 -0.00459613 0.02733479
v 0.01745947 -0.02257276 0.04964014
v 0.02276448 -0.01812189 0.05184744
v 0.02437315 -0.01566322 0.05054119
v 0.02612236 -0.01313283 0.05055578
v 0.01594472 -0.02376651 0.05181245
f 7 1 2
f 7 6 1
f 7 3 6
f 9 6 3
f 9 4 6
f 9 3 7
f 10 1 6
f 12 1 10
f 13 9 7
f 13 7 2
f 15 6 4
f 15 11 10
f 15 10 6
f 16 10 11
f 16 12 10
f 17 2 1
f 17 1 12
f 20 4 9
f 21 15 4
f 21 11 15
f 21 16 11
f 21 4 16
f 22 16 5
f 22 8 16
f 23 14 19
f 24 2 17
f 25 13 2
f 28 16 4
f 28 4 20
f 28 23 16
f 28 26 23
f 28 20 26
f 29 22 5
f 30 5 16
f 30 16 23
f 31 24 17
f 31 17 12
f 31 12 24
f 32 24 12
f 33 25 9
f 33 9 13
f 33 13 25
f 34 25 2
f 34 2 24
f 34 24 32
f 35 25 18
f 35 18 26
f 35 26 20
f 35 20 9
f 36 14 23
f 36 23 26
f 38 27 26
f 38 26 18
f 39 19 14
f 39 14 36
f 39 36 26
f 39 26 27
f 39 37 19
f 39 27 37
f 40 8 22
f 40 22 29
f 41 30 23
f 41 23 19
f 42 32 12
f 42 8 32
f 42 16 8
f 42 12 16
f 43 18 25
f 43 34 32
f 43 25 34
f 44 35 9
f 44 9 25
f 44 25 35
f 45 37 29
f 45 19 37
f 45 41 19
f 46 29 37
f 46 40 29
f 46 8 40
f 46 37 32
f 46 32 8
f 47 37 27
f 47 32 37
f 48 38 18
f 48 32 47
f 48 47 27
f 48 27 38
f 48 43 32
f 48 18 43
f 49 5 30
f 49 30 41
f 49 41 45
f 49 45 29
f 49 29 5

