# https://github.com/mikedh/trimesh
v 0.00652950 0.01624860 0.00778247
v 0.00990451 -0.01680401 0.00783680
v 0.00925130 -0.00996717 0.00035292
v -0.01139607 0.00646109 0.00054703
v -0.01839753 -0.00549467 0.00794147
v 0.00628727 0.01049968 0.00051222
v 0.01058598 -0.01041700 0.00407930
v -0.00461884 0.01666267 0.00801327
v -0.00721740 -0.01718573 0.00563646
v 0.00461725 0.01128184 0.00048292
v 0.01064075 -0.01335636 0.00720138
v 0.00995217 -0.00989913 0.00075310
v 0.00718559 -0.01819643 0.00796880
v -0.01585910 0.00899019 0.00797225
v -0.01120824 -0.00773877 0.00052485
v -0.01214128 0.00471993 0.00051639
v -0.00461742 0.01140856 0.00052714
v 0.00202983 0.01645103 0.00634314
v 0.00559522 0.01480495 0.00487259
v 0.00887986 -0.01626807 0.00562091
v -0.01064565 -0.01646742 0.00799518
v 0.00477228 0.01676349 0.00795923
v -0.00283202 -0.01381584 0.00050607
v -0.01300331 -0.00285428 0.00051321
v -0.01644279 0.00538384 0.00566411
v -0.00869121 0.01377921 0.00559837
v -0.00706675 0.01039467 0.00053761
v -0.00449643 0.01547082 0.00554032
v -0.00039518 0.01474495 0.00394300
v 0.00621824 0.01560340 0.00637791
v 0.00201528 0.01472098 0.00399745
v 0.00954170 -0.01627162 0.00630519
v 0.00714939 -0.01203538 0.00061331
v -0.00464813 -0.01915901 0.00794033
v -0.01203432 -0.01465899 0.00634005
v -0.01677234 0.00739471 0.00800846
v 0.00898132 -0.01734964 0.00795834
v -0.00038823 0.01643333 0.00631589
v -0.00796282 -0.01119256 0.00050718
v 0.00286861 -0.01879256 0.00629583
v -0.01306089 0.00133370 0.00051271
v -0.01646807 -0.00791919 0.00568120
v -0.01546629 0.00708985 0.00565363
v -0.00900214 0.01502806 0.00796293
v -0.01553179 0.00884498 0.00736933
v -0.00296172 0.01386591 0.00299464
v 0.00474763 0.01551423 0.00552726
v 0.00895712 -0.01045061 0.00046936
v 0.00207917 -0.01380008 0.00049168
v -0.00730349 -0.01827195 0.00793983
v -0.01049931 -0.01534616 0.00567251
v -0.01574997 -0.01143234 0.00798172
v -0.01841622 0.00209031 0.00779117
v 0.00619541 -0.01791889 0.00633172
v 0.00884013 -0.01706440 0.00719114
v -0.00450044 0.01633543 0.00728918
v -0.01390795 -0.01125730 0.00510636
v -0.00699987 -0.01285045 0.00137681
v 0.00470337 -0.01906562 0.00794990
v -0.00294134 -0.01887049 0.00623375
v -0.01644750 0.00386029 0.00494926
v -0.01283037 -0.00617196 0.00140004
v -0.01810670 -0.00281764 0.00634397
v -0.00804813 0.01460592 0.00639579
f 10 6 3
f 11 7 1
f 11 1 2
f 12 3 6
f 12 6 1
f 12 1 7
f 12 11 2
f 12 7 11
f 16 10 3
f 17 10 16
f 19 6 10
f 21 13 8
f 25 4 16
f 27 17 16
f 27 16 4
f 27 26 17
f 27 4 26
f 28 17 26
f 30 1 6
f 30 6 19
f 30 22 1
f 31 29 18
f 31 10 29
f 32 20 12
f 32 12 2
f 36 14 25
f 36 21 8
f 37 2 1
f 37 1 22
f 37 22 8
f 37 8 13
f 38 22 18
f 38 8 22
f 38 18 29
f 39 3 23
f 39 24 3
f 39 15 24
f 41 16 3
f 41 3 24
f 43 25 14
f 43 4 25
f 44 26 14
f 44 36 8
f 44 14 36
f 45 26 4
f 45 14 26
f 45 43 14
f 45 4 43
f 46 29 10
f 46 10 17
f 46 17 28
f 46 38 29
f 46 28 38
f 47 30 19
f 47 18 22
f 47 22 30
f 47 31 18
f 47 19 10
f 47 10 31
f 48 33 3
f 48 3 12
f 48 12 20
f 48 20 33
f 49 23 3
f 49 3 33
f 49 33 20
f 50 34 21
f 50 21 9
f 50 9 34
f 51 9 21
f 51 21 35
f 52 35 21
f 52 5 42
f 52 36 5
f 52 21 36
f 53 36 25
f 53 5 36
f 54 37 13
f 54 49 20
f 54 40 49
f 55 20 32
f 55 32 2
f 55 2 37
f 55 54 20
f 55 37 54
f 56 38 28
f 56 28 8
f 56 8 38
f 57 15 39
f 57 42 15
f 57 52 42
f 57 35 52
f 57 51 35
f 57 39 51
f 58 39 23
f 58 23 9
f 58 51 39
f 58 9 51
f 59 13 21
f 59 21 34
f 59 54 13
f 59 40 54
f 60 34 9
f 60 9 23
f 60 49 40
f 60 23 49
f 60 59 34
f 60 40 59
f 61 25 16
f 61 16 41
f 61 53 25
f 62 42 24
f 62 24 15
f 62 15 42
f 63 42 5
f 63 24 42
f 63 5 53
f 63 53 61
f 63 61 41
f 63 41 24
f 64 28 26
f 64 26 44
f 64 44 8
f 64 8 28

