# https://github.com/mikedh/trimesh
v 0.00511407 -0.02062010 0.03418332
v 0.01008814 -0.01868369 0.01390229
v 0.01031956 -0.01379804 0.00751989
v -0.00318522 -0.01690048 0.00732929
v -0.00130087 -0.02339549 0.02821341
v 0.00552433 -0.01889968 0.00801580
v -0.00610338 -0.01984799 0.03152030
v 0.01064611 -0.01518008 0.01372399
v 0.00477133 -0.02377055 0.03443816
v 0.00964537 -0.01709175 0.00809943
v 0.00897033 -0.01443809 0.00710473
v -0.00304880 -0.02076949 0.01133423
v -0.00587729 -0.01924813 0.02719039
v 0.01070303 -0.01432954 0.00914525
v -0.00596340 -0.02040655 0.03424662
v 0.00642398 -0.02147794 0.02023330
v 0.00623751 -0.01972083 0.01053767
v -0.00307146 -0.01949185 0.00777056
v -0.00554018 -0.02259007 0.02731570
v 0.00973555 -0.01792962 0.00991235
v 0.00203646 -0.02251125 0.02113005
v 0.00706940 -0.01972454 0.01226522
v 0.00196968 -0.02069200 0.01050359
v -0.00492799 -0.01830992 0.01381209
v -0.00558661 -0.02357879 0.03448789
v -0.00374578 -0.02245667 0.02198993
v -0.00463607 -0.02085189 0.01396819
v 0.00703556 -0.01874843 0.00903006
v 0.00380210 -0.02243066 0.02287864
v 0.00289636 -0.02329225 0.02823703
v 0.00555328 -0.01970746 0.00986772
v 0.00199777 -0.01971653 0.00805714
v -0.00130032 -0.02067616 0.01045483
v 0.00555555 -0.02059603 0.01403109
v -0.00459550 -0.02243531 0.02376040
v -0.00372005 -0.02330729 0.02911375
v -0.00129945 -0.02249180 0.02112963
v -0.00306401 -0.01995748 0.00884569
v -0.00376897 -0.02155293 0.01668083
v 0.00793271 -0.01791117 0.00810682
v 0.00557877 -0.02241717 0.02555526
v -0.00038553 -0.01976226 0.00802545
v -0.00456743 -0.02148265 0.01758670
f 9 8 1
f 9 2 8
f 11 4 3
f 11 10 6
f 11 3 10
f 13 7 3
f 13 3 4
f 14 8 2
f 14 3 8
f 14 10 3
f 15 1 8
f 15 9 1
f 15 8 3
f 15 3 7
f 16 2 9
f 18 11 6
f 18 4 11
f 19 7 13
f 20 14 2
f 20 10 14
f 20 2 17
f 22 17 2
f 22 2 16
f 22 16 17
f 24 13 4
f 24 4 18
f 24 19 13
f 25 15 7
f 25 7 19
f 25 9 15
f 25 5 9
f 27 24 18
f 27 19 24
f 28 20 17
f 29 21 16
f 30 9 5
f 30 5 21
f 30 29 9
f 30 21 29
f 31 17 23
f 31 28 17
f 31 6 28
f 32 18 6
f 32 31 23
f 32 6 31
f 33 23 21
f 34 23 17
f 34 17 16
f 34 16 21
f 34 21 23
f 35 26 25
f 35 25 19
f 36 26 5
f 36 5 25
f 36 25 26
f 37 21 5
f 37 5 26
f 37 26 12
f 37 33 21
f 37 12 33
f 38 27 18
f 38 12 27
f 38 33 12
f 39 27 12
f 39 12 26
f 40 28 6
f 40 6 10
f 40 10 20
f 40 20 28
f 41 29 16
f 41 16 9
f 41 9 29
f 42 32 23
f 42 23 33
f 42 33 38
f 42 38 18
f 42 18 32
f 43 26 35
f 43 39 26
f 43 27 39
f 43 35 19
f 43 19 27

