# https://github.com/mikedh/trimesh
v -0.02679670 0.00517243 0.05211962
v -0.01617419 -0.01242392 0.02977250
v -0.01960422 0.00057378 0.02709387
v -0.02317291 0.00056941 0.02727769
v -0.02649646 -0.01159198 0.05191699
v -0.01596967 -0.01223032 0.02715470
v -0.02547563 0.00503892 0.04769431
v -0.02451629 -0.01226520 0.05191129
v -0.02891618 0.00222205 0.04785593
v -0.01640350 -0.01171628 0.02709601
v -0.02636736 0.00531036 0.05099565
v -0.02017360 0.00068201 0.02968038
v -0.02482501 -0.01202702 0.05215127
v -0.02004779 -0.01150672 0.02733555
v -0.02893920 -0.00379272 0.05186339
v -0.02852938 0.00497919 0.04777853
v -0.01987724 -0.01239046 0.04031612
v -0.02607970 -0.01185119 0.05211067
v -0.02781891 -0.00622238 0.04718807
v -0.02867634 0.00496720 0.05200334
v -0.02602178 -0.01142017 0.04723071
v -0.02771857 -0.00826507 0.05207900
v -0.02886749 -0.00027977 0.04784862
v -0.02255223 -0.00450478 0.02736327
v -0.02892429 0.00394827 0.05184519
v -0.02677249 -0.01082209 0.05206203
v -0.02798702 -0.00800776 0.05177204
v -0.02863617 -0.00383132 0.05209492
v -0.02891778 -0.00379585 0.05143135
v -0.02803891 0.00062524 0.04440064
v -0.02157807 -0.00787639 0.02739652
v -0.02789045 -0.00109323 0.04448957
v -0.02886395 0.00309407 0.04866297
v -0.02698504 -0.00967014 0.04791360
v -0.02699600 -0.01052119 0.05191680
v -0.02870165 0.00409145 0.05206515
v -0.02798157 0.00499790 0.05214138
v -0.02783685 -0.00802014 0.05054948
v -0.02885337 0.00397440 0.05047638
v -0.02700894 -0.01052411 0.05139889
f 6 3 2
f 7 3 4
f 10 4 3
f 10 3 6
f 11 2 7
f 12 7 2
f 12 2 3
f 12 3 7
f 13 8 1
f 14 6 2
f 14 2 8
f 14 10 6
f 14 4 10
f 16 7 4
f 16 4 9
f 16 11 7
f 17 8 2
f 17 2 11
f 17 11 1
f 17 1 8
f 18 8 13
f 18 14 8
f 20 1 11
f 20 11 16
f 21 18 5
f 21 14 18
f 23 15 9
f 24 4 14
f 25 20 16
f 25 9 15
f 26 5 18
f 26 18 22
f 27 22 15
f 28 15 22
f 28 22 18
f 28 18 13
f 29 23 19
f 29 15 23
f 29 27 15
f 30 23 9
f 30 9 4
f 31 19 24
f 31 24 14
f 32 24 19
f 32 19 23
f 32 23 30
f 32 30 4
f 32 4 24
f 33 16 9
f 33 9 25
f 34 19 31
f 34 31 14
f 34 14 21
f 35 26 22
f 35 22 27
f 35 5 26
f 36 25 15
f 36 15 28
f 36 20 25
f 37 28 13
f 37 13 1
f 37 36 28
f 37 1 20
f 37 20 36
f 38 29 19
f 38 27 29
f 38 34 27
f 38 19 34
f 39 33 25
f 39 25 16
f 39 16 33
f 40 34 21
f 40 21 5
f 40 5 35
f 40 35 27
f 40 27 34

