# https://github.com/mikedh/trimesh
v -0.04894769 0.00357780 0.05957462
v -0.03469169 -0.00570810 0.05585828
v -0.03535208 0.01194091 0.04535469
v -0.04264398 0.00975325 0.01301564
v -0.07410601 -0.00601804 0.03721884
v -0.04251868 -0.01083836 0.01299175
v -0.03550539 0.00454944 0.05578664
v -0.06586736 -0.00594400 0.05769068
v -0.07398117 0.00512296 0.04937090
v -0.03629094 -0.01112382 0.04336934
v -0.07145034 0.00173162 0.02931429
v -0.04675838 0.00214200 0.05940112
v -0.03525792 0.00910877 0.05222947
v -0.03601210 0.01220003 0.04327676
v -0.06558595 0.00362434 0.05944675
v -0.07572829 -0.00324111 0.04933944
v -0.03504955 -0.01001414 0.05010126
v -0.07221470 -0.00623454 0.05170014
v -0.07134547 -0.00293674 0.02934206
v -0.04480195 -0.00520688 0.01412901
v -0.07194705 0.00521334 0.03304307
v -0.04895203 -0.00448451 0.05921659
v -0.06982370 0.00506957 0.05544844
v -0.06600911 0.00518771 0.05782219
v -0.06762597 -0.00283291 0.05916900
v -0.07434488 -0.00610704 0.04751108
v -0.06992099 -0.00602695 0.03083424
v -0.07607502 -0.00319981 0.03727116
v -0.06799305 0.00520753 0.02907852
v -0.07420791 0.00515597 0.03715330
v -0.04686691 -0.00300978 0.05922435
v -0.03498329 -0.00772698 0.05412518
v -0.07364142 0.00215890 0.05362064
v -0.06969725 0.00341711 0.05725626
v -0.06575713 -0.00443272 0.05925179
v -0.07131058 -0.00447072 0.05544120
v -0.07576479 -0.00452040 0.04733420
v -0.06772142 -0.00444004 0.02746792
v -0.07194204 -0.00601731 0.03312685
v -0.07577365 0.00365453 0.04733192
v -0.06773550 0.00351497 0.02731761
v -0.07353308 0.00365625 0.03317190
v -0.05104427 -0.00606286 0.05816976
v -0.07172608 0.00495665 0.05343209
v -0.06765514 0.00219443 0.05920475
v -0.06961873 -0.00444565 0.05696161
v -0.07366874 -0.00307300 0.05340700
v -0.07581411 -0.00468082 0.03910250
v -0.07356400 -0.00451866 0.03330763
v -0.07580109 0.00216599 0.04935235
v -0.07545810 0.00376681 0.03734678
v -0.07149194 0.00346964 0.05560679
f 6 4 3
f 10 6 3
f 12 7 1
f 12 2 7
f 13 7 2
f 13 2 3
f 13 1 7
f 14 3 4
f 17 10 3
f 17 3 2
f 17 8 10
f 18 10 8
f 20 11 4
f 20 4 6
f 20 19 11
f 20 6 19
f 23 14 9
f 23 3 14
f 24 15 1
f 24 1 13
f 24 13 3
f 24 3 23
f 26 5 6
f 26 6 10
f 26 10 18
f 28 11 19
f 29 21 4
f 30 14 4
f 30 4 21
f 30 9 14
f 31 22 2
f 31 2 12
f 31 12 1
f 31 1 22
f 32 17 2
f 34 24 23
f 34 15 24
f 35 22 1
f 35 1 15
f 35 15 25
f 37 26 18
f 37 18 16
f 37 16 28
f 38 27 19
f 38 19 6
f 38 6 27
f 39 27 6
f 39 6 5
f 40 9 30
f 41 29 4
f 41 4 11
f 41 11 29
f 42 29 11
f 42 21 29
f 42 30 21
f 42 11 28
f 43 32 2
f 43 2 22
f 43 8 17
f 43 17 32
f 43 35 8
f 43 22 35
f 44 23 9
f 44 9 33
f 45 33 25
f 45 25 15
f 45 15 34
f 46 35 25
f 46 25 36
f 46 8 35
f 46 36 18
f 46 18 8
f 47 16 18
f 47 18 36
f 47 33 16
f 47 36 25
f 47 25 33
f 48 37 28
f 48 5 26
f 48 26 37
f 49 19 27
f 49 27 39
f 49 28 19
f 49 39 5
f 49 48 28
f 49 5 48
f 50 40 28
f 50 28 16
f 50 16 33
f 50 33 9
f 50 9 40
f 51 40 30
f 51 28 40
f 51 42 28
f 51 30 42
f 52 34 23
f 52 23 44
f 52 44 33
f 52 45 34
f 52 33 45

