# https://github.com/mikedh/trimesh
v 0.05527614 0.01401189 0.01756998
v 0.05470275 -0.01499421 0.01758392
v 0.05464538 -0.00388894 0.00729171
v 0.04100326 0.02167016 0.00140393
v 0.04245888 -0.02625028 0.01730644
v 0.05240275 0.01613731 0.00752151
v 0.05477794 -0.01274132 0.01118751
v 0.05047620 -0.02390623 0.01758212
v 0.04152604 0.02195285 0.00980794
v 0.04089390 -0.02511644 0.00187223
v 0.05463436 0.01167444 0.00934844
v 0.05054745 0.01185333 0.00355292
v 0.04898358 0.01494112 0.01742629
v 0.05242589 -0.01931671 0.01129421
v 0.05178222 0.02115734 0.01084554
v 0.04974089 -0.02345027 0.00927002
v 0.04063874 0.01914391 0.00110684
v 0.05465705 0.00279895 0.00731120
v 0.04789320 0.02023426 0.00380624
v 0.05030155 -0.01278111 0.00376173
v 0.05243281 0.01167674 0.00558661
v 0.05466816 -0.01492870 0.01534006
v 0.05254074 0.01824914 0.00934072
v 0.05205413 -0.01695891 0.00761633
v 0.04511117 0.01443712 0.00155516
v 0.04067523 -0.02028051 0.00122735
v 0.05048954 0.02058553 0.00723462
v 0.05258616 -0.01058297 0.00557994
v 0.05469924 0.01395963 0.01130663
v 0.04570494 -0.02369236 0.00368123
v 0.04275286 0.01904962 0.00148309
v 0.04720907 -0.00398604 0.00149906
v 0.04986249 -0.01922305 0.00567842
v 0.05466280 -0.01064107 0.00912355
v 0.05303821 0.01851683 0.01104907
v 0.04760480 -0.02349493 0.00566081
v 0.04504592 -0.01555565 0.00170350
v 0.04731472 0.00521233 0.00156367
v 0.04793040 -0.01946648 0.00374860
v 0.04268926 -0.02015734 0.00162181
f 7 1 2
f 7 3 1
f 8 2 1
f 13 8 1
f 13 5 8
f 13 9 5
f 15 4 9
f 15 13 1
f 15 9 13
f 16 8 5
f 16 5 10
f 16 14 8
f 17 9 4
f 18 11 1
f 18 1 3
f 18 3 12
f 21 6 11
f 21 18 12
f 21 11 18
f 21 19 6
f 21 12 19
f 22 14 7
f 22 7 2
f 22 2 8
f 22 8 14
f 23 11 6
f 24 7 14
f 24 14 16
f 25 19 12
f 26 10 5
f 26 5 9
f 26 9 17
f 27 19 4
f 27 4 15
f 27 15 23
f 27 23 6
f 27 6 19
f 28 20 12
f 28 12 3
f 29 1 11
f 29 11 23
f 31 25 17
f 31 17 4
f 31 4 19
f 31 19 25
f 32 12 20
f 32 26 17
f 33 28 24
f 33 20 28
f 33 24 16
f 34 28 3
f 34 3 7
f 34 7 24
f 34 24 28
f 35 29 23
f 35 23 15
f 35 15 1
f 35 1 29
f 36 16 10
f 36 10 30
f 36 33 16
f 36 30 33
f 37 32 20
f 37 26 32
f 38 25 12
f 38 12 32
f 38 32 17
f 38 17 25
f 39 33 30
f 39 20 33
f 39 37 20
f 39 30 10
f 40 10 26
f 40 26 37
f 40 39 10
f 40 37 39

