# https://github.com/mikedh/trimesh
v 0.04107635 0.01701537 0.00814692
v 0.04123926 -0.01355280 0.00779347
v 0.04071878 0.01684261 0.00094453
v 0.00117712 0.02868878 0.00062084
v 0.00116766 0.02877333 0.00543519
v 0.00118293 -0.02287223 0.00040205
v 0.02225712 0.02864777 0.00046617
v 0.04076144 -0.01340164 0.00073809
v 0.00112456 -0.02285616 0.00453693
v 0.02228320 0.02873240 0.00584366
v 0.02227801 -0.02284327 0.00018003
v 0.02234572 -0.02293610 0.00478948
f 1 2 3
f 5 2 1
f 7 1 3
f 7 4 5
f 8 3 2
f 8 7 3
f 9 5 4
f 9 4 6
f 9 2 5
f 10 7 5
f 10 5 1
f 10 1 7
f 11 6 4
f 11 4 7
f 11 7 8
f 11 8 2
f 12 9 6
f 12 6 11
f 12 11 2
f 12 2 9

