# https://github.com/mikedh/trimesh
v -0.01444460 0.01881664 0.06735912
v -0.01866553 -0.00918435 0.06690955
v -0.01524450 0.01464572 0.00044899
v -0.01723687 0.03295041 0.00163507
v -0.04367926 0.00686421 0.01354449
v -0.01454836 0.04343989 0.00890201
v -0.03356383 0.00858893 0.05545122
v -0.02429827 -0.02264228 0.00110875
v -0.01442886 0.04103113 0.00489820
v -0.03535028 -0.02462475 0.02677471
v -0.01981963 0.01119151 0.06677248
v -0.02903504 0.03342433 0.02648631
v -0.03855897 0.00714767 0.00362124
v -0.01418605 0.04063271 0.04025983
v -0.01502664 0.03309481 0.00140796
v -0.03349972 0.02668604 0.00748981
v -0.03876347 -0.00523927 0.04424262
v -0.02438617 -0.02269114 0.05937299
v -0.04032255 -0.01476019 0.00910992
v -0.02106072 -0.00845219 0.06695851
v -0.02413176 0.02447027 0.05840498
v -0.03563722 0.02241857 0.03095967
v -0.03341074 0.00749199 0.00152135
v -0.01437484 0.04326708 0.03127247
v -0.01467257 0.03920387 0.00301644
v -0.02278230 0.03788847 0.00737090
v -0.03808851 0.01815840 0.00748691
v -0.03159980 0.02476309 0.00366779
v -0.03895249 0.00454205 0.04400682
v -0.03344705 -0.02139159 0.03991860
v -0.03415573 -0.00722086 0.05549661
v -0.03530734 -0.02458290 0.00868729
v -0.03878230 -0.00839813 0.00369458
v -0.04347162 -0.00813216 0.01335843
v -0.03104900 0.01125304 0.05814037
v -0.01760736 0.01562959 0.06656757
v -0.01478265 0.03274543 0.05899610
v -0.03109908 0.02678918 0.03760840
v -0.03605334 0.02477246 0.01120542
v -0.03339005 -0.00868999 0.00150869
v -0.03115748 0.01442186 0.00152972
v -0.01828815 0.04230418 0.02435684
v -0.02047388 0.03993202 0.03108488
v -0.01636784 0.04040198 0.00530350
v -0.04034444 0.01152180 0.00738636
v -0.03597307 0.02030219 0.00574162
v -0.01845373 0.03783387 0.00363977
v -0.02903626 0.03334169 0.00924679
v -0.04049251 -0.00607617 0.03312878
v -0.04035024 0.01365989 0.02638934
v -0.03805079 0.01584217 0.03313759
v -0.03825449 -0.01922779 0.02641645
v -0.02654828 -0.02121156 0.05810503
v -0.03383698 -0.02131455 0.00368861
v -0.04284943 0.00472203 0.00935394
v -0.04290052 -0.00588552 0.00942526
v -0.03129985 -0.01024870 0.05832363
v -0.02629844 0.02218260 0.05665648
v -0.01556272 0.01781776 0.06704258
v -0.01800843 0.03095654 0.05836124
v -0.01421697 0.03404722 0.05706562
v -0.03361275 0.02687855 0.02869903
v -0.03322570 0.02013123 0.04214519
v -0.04053255 0.01588792 0.01309868
f 1 2 3
f 8 3 2
f 9 1 3
f 14 1 9
f 18 10 8
f 18 8 2
f 20 2 1
f 20 1 11
f 20 18 2
f 24 14 9
f 24 9 6
f 25 9 3
f 25 3 15
f 25 15 4
f 31 17 30
f 31 29 17
f 31 7 29
f 32 8 10
f 33 13 23
f 35 20 11
f 35 7 31
f 35 11 21
f 36 21 11
f 39 16 27
f 40 23 3
f 40 3 8
f 40 33 23
f 41 15 3
f 41 3 23
f 41 4 15
f 41 28 4
f 41 23 13
f 41 13 28
f 42 24 6
f 42 6 26
f 43 14 24
f 43 12 38
f 43 42 12
f 43 24 42
f 44 26 6
f 44 6 9
f 46 27 16
f 46 16 28
f 46 28 13
f 46 45 27
f 46 13 45
f 47 25 4
f 47 4 28
f 47 28 26
f 47 26 44
f 47 44 9
f 47 9 25
f 48 28 16
f 48 26 28
f 48 16 39
f 48 39 12
f 48 42 26
f 48 12 42
f 49 29 5
f 49 17 29
f 49 34 17
f 49 5 34
f 50 5 29
f 51 29 7
f 51 50 29
f 51 22 50
f 52 30 17
f 52 10 30
f 52 17 34
f 52 34 19
f 52 32 10
f 52 19 32
f 53 30 10
f 53 10 18
f 53 31 30
f 54 32 19
f 54 19 33
f 54 8 32
f 54 40 8
f 54 33 40
f 55 13 33
f 55 45 13
f 55 5 45
f 56 33 19
f 56 19 34
f 56 55 33
f 56 34 5
f 56 5 55
f 57 35 31
f 57 20 35
f 57 31 53
f 57 53 18
f 57 18 20
f 58 35 21
f 58 7 35
f 58 21 38
f 59 1 21
f 59 21 36
f 59 36 11
f 59 11 1
f 60 21 1
f 60 1 37
f 60 43 38
f 60 38 21
f 61 37 1
f 61 1 14
f 61 60 37
f 61 14 43
f 61 43 60
f 62 38 12
f 62 22 38
f 62 12 39
f 63 38 22
f 63 58 38
f 63 7 58
f 63 51 7
f 63 22 51
f 64 39 27
f 64 5 50
f 64 62 39
f 64 50 22
f 64 22 62
f 64 45 5
f 64 27 45

