# https://github.com/mikedh/trimesh
v 0.06938738 0.00218192 0.05729582
v 0.07599086 -0.00300948 0.05544523
v 0.07629337 0.00312153 0.05561955
v 0.04898358 0.01494112 0.01742629
v 0.04147329 -0.01363011 0.04826908
v 0.05698343 -0.00387932 0.01787498
v 0.04136689 0.01479241 0.04821601
v 0.06874278 -0.00163815 0.05743466
v 0.07602090 0.00175411 0.05171556
v 0.04844167 -0.01596255 0.01754407
v 0.07340727 0.00485735 0.05443305
v 0.07466297 -0.00439574 0.05552140
v 0.06796005 -0.00138063 0.05734552
v 0.07587123 -0.00257585 0.05213146
v 0.05527614 0.01401189 0.01756998
v 0.05327150 -0.01502332 0.03134556
v 0.06815949 0.00189628 0.05706106
v 0.05470275 -0.01499421 0.01758392
v 0.05687210 0.00512767 0.01778388
v 0.07596281 0.00318076 0.05351814
v 0.05257520 0.01691947 0.03162159
v 0.04882195 -0.01287519 0.04737736
v 0.04795419 -0.01689589 0.02493355
v 0.07415167 -0.00426517 0.05169484
v 0.04869686 0.01407088 0.04734469
v 0.04288830 0.01544869 0.04416387
v 0.04677791 -0.01629216 0.03191345
v 0.05166626 0.01659243 0.03607481
v 0.04303522 -0.01426622 0.04427282
f 8 2 3
f 8 3 1
f 10 7 4
f 10 5 7
f 11 7 1
f 11 1 3
f 12 8 5
f 12 2 8
f 13 7 5
f 13 5 8
f 13 8 1
f 14 9 3
f 14 3 2
f 14 6 9
f 14 2 12
f 17 13 1
f 17 1 7
f 17 7 13
f 18 6 14
f 18 10 4
f 18 4 15
f 18 12 16
f 19 15 9
f 19 9 6
f 19 18 15
f 19 6 18
f 20 3 9
f 20 9 15
f 21 11 3
f 21 20 15
f 21 3 20
f 21 15 4
f 22 16 12
f 22 12 5
f 23 5 10
f 23 18 16
f 23 10 18
f 24 18 14
f 24 14 12
f 24 12 18
f 25 7 11
f 26 21 4
f 26 4 7
f 27 5 23
f 27 23 16
f 27 16 22
f 28 7 25
f 28 26 7
f 28 21 26
f 28 25 11
f 28 11 21
f 29 27 22
f 29 22 5
f 29 5 27

