# https://github.com/mikedh/trimesh
v 0.02201255 0.02591190 0.06642143
v 0.05420270 0.01376784 0.03150006
v 0.03228951 0.04240950 0.02659439
v 0.02216412 0.03539549 0.00114957
v 0.02228814 0.01699601 0.00020240
v 0.04547349 0.02916216 0.00765908
v 0.02160385 0.04752117 0.02209623
v 0.03684417 0.02698896 0.05845000
v 0.04146599 0.01483385 0.05909700
v 0.04552444 0.03135025 0.02208047
v 0.04071878 0.01684261 0.00094453
v 0.02115950 0.02683972 0.06583338
v 0.02162620 0.04303504 0.00331030
v 0.02186620 0.03702639 0.05871686
v 0.04792598 0.01381008 0.04936181
v 0.02227941 0.01705427 0.00475981
v 0.04468191 0.01428651 0.05872052
v 0.03659687 0.04005372 0.01123563
v 0.05226561 0.02038617 0.01128598
v 0.04552585 0.02871214 0.03322179
v 0.05441563 0.01447924 0.01074560
v 0.02157138 0.04740796 0.01108270
v 0.03355007 0.03291304 0.00166039
v 0.03192669 0.03752972 0.04447242
v 0.02155018 0.04042702 0.04944709
v 0.02994141 0.03307934 0.05825885
v 0.04413396 0.01490877 0.00953102
v 0.02384297 0.02512191 0.06594883
v 0.05070204 0.01388784 0.04258767
v 0.04544295 0.03120157 0.01131230
v 0.03670640 0.04002434 0.02203462
v 0.04994314 0.02470741 0.02427935
v 0.04510053 0.02227609 0.04677212
v 0.05227282 0.02032159 0.02427366
v 0.04668651 0.02092854 0.00313078
v 0.02156705 0.04524168 0.03574583
v 0.02592129 0.04456514 0.00733284
v 0.02361740 0.04680552 0.01120886
v 0.02907924 0.03520649 0.00158095
v 0.03250493 0.03816452 0.00353149
v 0.03855845 0.03310494 0.04226452
v 0.02565686 0.03550706 0.05830052
v 0.04315452 0.01794227 0.05839914
v 0.04082346 0.03561273 0.00919808
v 0.04994896 0.02474359 0.01134551
v 0.04098000 0.03569066 0.02649582
v 0.04962800 0.02015285 0.03770402
v 0.04066048 0.03100870 0.04220795
v 0.05048954 0.02058553 0.00723462
v 0.04042774 0.02369784 0.00151329
v 0.02810580 0.04463526 0.02661335
v 0.02784461 0.03986583 0.04462679
v 0.02804664 0.04448681 0.00920058
v 0.04344738 0.02714649 0.00374518
v 0.02801613 0.04249568 0.00552900
v 0.02380334 0.04250972 0.00348670
v 0.03449643 0.04016755 0.03099840
v 0.03608909 0.02865048 0.05657665
v 0.03630144 0.03302085 0.04671798
v 0.04263939 0.01996672 0.05662826
v 0.04999206 0.01586871 0.04236257
v 0.03453286 0.03999282 0.00748649
v 0.04314782 0.03340416 0.02655352
v 0.05219991 0.01811218 0.03104878
f 11 5 4
f 13 4 5
f 13 5 12
f 14 12 1
f 16 9 1
f 16 12 5
f 16 1 12
f 17 5 15
f 17 16 5
f 17 9 16
f 21 5 11
f 22 13 12
f 23 11 4
f 25 12 14
f 26 1 8
f 27 15 5
f 27 2 15
f 27 21 2
f 27 5 21
f 28 8 1
f 28 1 9
f 28 9 17
f 29 17 15
f 29 15 2
f 30 18 10
f 31 18 3
f 31 10 18
f 32 10 20
f 34 21 19
f 34 2 21
f 34 19 32
f 35 21 11
f 36 22 12
f 36 7 22
f 36 12 25
f 37 13 22
f 38 22 7
f 38 37 22
f 39 23 4
f 39 4 13
f 40 23 39
f 42 14 1
f 42 1 26
f 43 28 17
f 43 8 28
f 44 30 6
f 44 18 30
f 45 6 30
f 45 32 19
f 45 30 10
f 45 10 32
f 46 10 31
f 47 32 20
f 47 20 33
f 47 33 43
f 48 33 20
f 48 8 33
f 48 41 8
f 48 46 41
f 49 19 21
f 49 21 35
f 49 45 19
f 49 6 45
f 50 35 11
f 50 11 23
f 51 7 36
f 51 38 7
f 51 3 18
f 52 36 25
f 52 25 14
f 52 14 42
f 52 51 36
f 52 42 26
f 52 26 24
f 53 37 38
f 53 51 18
f 53 38 51
f 54 23 40
f 54 50 23
f 54 35 50
f 54 49 35
f 54 6 49
f 54 44 6
f 54 40 44
f 55 37 53
f 56 40 39
f 56 39 13
f 56 55 40
f 56 13 37
f 56 37 55
f 57 24 41
f 57 52 24
f 57 3 51
f 57 51 52
f 57 41 46
f 57 46 31
f 57 31 3
f 58 26 8
f 58 8 41
f 59 41 24
f 59 24 26
f 59 58 41
f 59 26 58
f 60 43 33
f 60 33 8
f 60 8 43
f 61 43 17
f 61 17 29
f 61 47 43
f 61 29 2
f 61 2 47
f 62 44 40
f 62 18 44
f 62 40 55
f 62 55 53
f 62 53 18
f 63 20 10
f 63 10 46
f 63 48 20
f 63 46 48
f 64 34 32
f 64 32 47
f 64 47 2
f 64 2 34

