# https://github.com/mikedh/trimesh
v 0.03194662 0.01564821 0.06696810
v 0.05205197 -0.00588710 0.04652713
v 0.04136689 0.01479241 0.04821601
v 0.04123245 -0.02063372 0.04112501
v 0.02974776 -0.01907839 0.06688112
v 0.05085808 0.00904410 0.04674843
v 0.02851379 0.01822550 0.06045226
v 0.04531456 -0.01242082 0.05831598
v 0.04212891 -0.01880227 0.04150332
v 0.04869686 0.01407088 0.04734469
v 0.03092026 0.01818919 0.05699212
v 0.02322749 -0.02166047 0.06622309
v 0.03655125 -0.00610277 0.06655740
v 0.04517935 0.01349949 0.05835693
v 0.04074802 -0.02034380 0.05918308
v 0.04376988 0.01830572 0.05574341
v 0.02521497 -0.02123569 0.06696494
v 0.02786601 0.01766122 0.06696782
v 0.02585468 -0.02190296 0.05855285
v 0.03641222 0.00478317 0.06686072
v 0.04882195 -0.01287519 0.04737736
v 0.03431117 -0.01246046 0.06672012
v 0.04110780 0.01703680 0.05938266
v 0.02333208 -0.02201447 0.06328176
v 0.04037445 -0.02159126 0.04175147
v 0.03431652 0.01150917 0.06692039
v 0.03197428 -0.01679120 0.06650119
f 9 6 2
f 9 2 4
f 9 4 6
f 10 6 4
f 10 4 3
f 11 3 4
f 14 6 10
f 14 8 2
f 14 2 6
f 16 10 3
f 16 3 11
f 16 14 10
f 16 11 7
f 17 15 5
f 17 12 15
f 18 16 7
f 18 17 1
f 18 12 17
f 19 7 11
f 20 17 5
f 20 13 8
f 20 8 14
f 21 4 2
f 21 2 8
f 21 8 15
f 22 20 5
f 22 13 20
f 22 15 8
f 22 8 13
f 23 1 14
f 23 14 16
f 23 18 1
f 23 16 18
f 24 18 7
f 24 12 18
f 24 7 19
f 24 15 12
f 25 19 11
f 25 11 4
f 25 24 19
f 25 15 24
f 25 21 15
f 25 4 21
f 26 20 14
f 26 14 1
f 26 1 17
f 26 17 20
f 27 22 5
f 27 5 15
f 27 15 22

