# https://github.com/mikedh/trimesh
v 0.04465100 -0.01308535 0.05891017
v 0.05466617 -0.01233280 0.03838164
v 0.04800797 -0.01264965 0.04930372
v 0.02229890 -0.01349054 0.00010590
v 0.02158886 -0.04639785 0.00899136
v 0.02232499 -0.01355477 0.00430000
v 0.03635259 -0.03658529 0.03773202
v 0.04839211 -0.02392416 0.00713317
v 0.02120978 -0.02797863 0.06199311
v 0.03830333 -0.02562066 0.05820460
v 0.02901639 -0.03422373 0.00143635
v 0.04076144 -0.01340164 0.00073809
v 0.03449338 -0.04120944 0.01336499
v 0.04770790 -0.02805884 0.01979805
v 0.04155619 -0.01372330 0.05900901
v 0.02153203 -0.04392010 0.04026613
v 0.02151780 -0.04412808 0.00505890
v 0.04527645 -0.02779482 0.03549704
v 0.04335905 -0.01711098 0.05827542
v 0.02389656 -0.02645674 0.06204002
v 0.05448789 -0.01558253 0.01758395
v 0.02193456 -0.03413854 0.00106065
v 0.04449327 -0.02446748 0.00313390
v 0.04533720 -0.03008377 0.00940346
v 0.03644925 -0.03894667 0.02879107
v 0.02160390 -0.03739565 0.05865743
v 0.02577709 -0.04581996 0.02208343
v 0.02150927 -0.04629557 0.03120986
v 0.02790783 -0.04323467 0.00755658
v 0.04083808 -0.03224196 0.03778531
v 0.04289434 -0.02773884 0.04224539
v 0.04995973 -0.02359706 0.02654682
v 0.04283964 -0.01908378 0.05684901
v 0.02221008 -0.02742746 0.06213972
v 0.05483457 -0.01312175 0.03166131
v 0.02176044 -0.04226095 0.00305249
v 0.03818634 -0.02716416 0.00162999
v 0.04776681 -0.02801792 0.01329679
v 0.04098388 -0.03233630 0.00561055
v 0.03443774 -0.04121595 0.02205712
v 0.02793192 -0.04335578 0.03330896
v 0.04550009 -0.03019884 0.02661150
v 0.03189546 -0.03193901 0.05805131
v 0.02583211 -0.04583952 0.01318263
v 0.02368743 -0.04362240 0.00541349
v 0.04085689 -0.03444905 0.03102345
v 0.04744438 -0.02346696 0.03777454
v 0.05288138 -0.01943323 0.01754414
v 0.04052143 -0.02256495 0.00144961
v 0.04759794 -0.02578443 0.00770956
v 0.03644926 -0.03878712 0.00924994
v 0.03029728 -0.03903871 0.00358441
v 0.03204870 -0.04104571 0.03328179
v 0.02562768 -0.04320246 0.03779631
v 0.02347189 -0.04567034 0.03109165
v 0.03017466 -0.04336564 0.02667582
v 0.02342148 -0.03667326 0.05852025
v 0.03870038 -0.03444934 0.03775812
v 0.03018262 -0.04344993 0.01131889
v 0.02360469 -0.04576833 0.00916951
v 0.02578868 -0.04130176 0.00366591
v 0.05225538 -0.01915625 0.02664549
v 0.04370441 -0.02626033 0.00334591
v 0.03880937 -0.03454008 0.00561644
f 1 2 3
f 3 2 4
f 6 1 3
f 6 3 4
f 9 6 4
f 12 4 2
f 15 1 6
f 15 6 9
f 17 9 4
f 19 2 1
f 19 1 10
f 20 10 1
f 20 1 15
f 21 8 12
f 22 12 11
f 22 4 12
f 22 17 4
f 23 12 8
f 26 9 16
f 28 16 9
f 28 9 17
f 28 17 5
f 28 5 27
f 31 30 18
f 31 10 30
f 32 2 18
f 33 19 10
f 33 10 2
f 33 2 19
f 34 20 15
f 34 15 9
f 34 9 26
f 35 21 12
f 35 12 2
f 36 22 11
f 36 17 22
f 38 14 13
f 38 13 24
f 40 13 14
f 42 32 18
f 42 14 32
f 42 40 14
f 42 25 40
f 43 10 20
f 43 20 34
f 44 27 5
f 44 40 27
f 44 13 40
f 45 5 17
f 46 7 25
f 46 25 42
f 46 42 18
f 46 18 30
f 47 31 18
f 47 18 2
f 47 2 10
f 47 10 31
f 48 32 14
f 48 21 35
f 48 35 2
f 48 14 38
f 48 38 8
f 48 8 21
f 49 12 23
f 49 23 37
f 49 37 11
f 49 11 12
f 50 38 24
f 50 8 38
f 50 24 39
f 51 24 13
f 52 36 11
f 52 11 37
f 52 51 29
f 53 25 7
f 53 7 43
f 54 16 28
f 54 26 16
f 54 53 43
f 54 41 53
f 55 28 27
f 55 54 28
f 55 41 54
f 56 27 40
f 56 53 41
f 56 40 25
f 56 25 53
f 56 55 27
f 56 41 55
f 57 43 34
f 57 34 26
f 57 54 43
f 57 26 54
f 58 30 10
f 58 10 43
f 58 43 7
f 58 46 30
f 58 7 46
f 59 13 44
f 59 51 13
f 59 29 51
f 60 45 29
f 60 5 45
f 60 29 59
f 60 59 44
f 60 44 5
f 61 45 17
f 61 17 36
f 61 36 52
f 61 52 29
f 61 29 45
f 62 48 2
f 62 2 32
f 62 32 48
f 63 50 39
f 63 23 8
f 63 8 50
f 63 52 37
f 63 37 23
f 64 39 24
f 64 24 51
f 64 51 52
f 64 63 39
f 64 52 63

