# https://github.com/mikedh/trimesh
v -0.01509568 -0.02272506 0.05968152
v -0.01435957 -0.03324554 0.05861612
v -0.01505357 -0.03195347 0.00110696
v -0.02462628 -0.02287025 0.00117888
v -0.03459081 -0.02194255 0.03581466
v -0.01399800 -0.03705364 0.04941547
v -0.02562517 -0.02199871 0.05874013
v -0.02465639 -0.03667155 0.00745570
v -0.02455313 -0.03432156 0.03773925
v -0.02725905 -0.02165961 0.05458535
v -0.03465205 -0.02186896 0.00497805
v -0.01436939 -0.04431742 0.01097608
v -0.01797569 -0.03872757 0.03993131
v -0.03357377 -0.02806943 0.02423620
v -0.03109495 -0.02781875 0.03535636
v -0.01765981 -0.03175247 0.05655692
v -0.03264299 -0.02202751 0.00312180
v -0.03216156 -0.02182825 0.04265603
v -0.01445460 -0.03989290 0.00312236
v -0.02055902 -0.04122917 0.01978877
v -0.01429249 -0.04220225 0.03583733
v -0.03341283 -0.02788996 0.00923653
v -0.02484411 -0.02356325 0.05834639
v -0.02684320 -0.03436983 0.03099980
v -0.03370969 -0.02578635 0.03101038
v -0.01589929 -0.03237736 0.05844657
v -0.02923709 -0.02806662 0.00354018
v -0.03102122 -0.02550035 0.03989567
v -0.01827699 -0.04113647 0.00740155
v -0.01416624 -0.04172133 0.00507572
v -0.01431576 -0.04434187 0.02439623
v -0.01823574 -0.04119612 0.03102540
v -0.02054365 -0.04112074 0.01120191
v -0.02673523 -0.03214124 0.03763580
v -0.03132922 -0.02350211 0.04228742
v -0.02424551 -0.02528110 0.05637692
v -0.03121588 -0.03015226 0.02865453
v -0.02264432 -0.03903435 0.02651803
v -0.03377909 -0.02363828 0.03550275
v -0.02004829 -0.03416543 0.04669551
v -0.03210248 -0.02403744 0.00366011
v -0.03132226 -0.02794116 0.00574418
v -0.02056834 -0.03676040 0.00364714
v -0.01720412 -0.03399795 0.00164409
v -0.01631595 -0.04346739 0.01107631
v -0.01607658 -0.04131643 0.03557181
v -0.01612207 -0.04350809 0.02426813
v -0.02013570 -0.03879385 0.03547174
v -0.02909633 -0.03231260 0.00754674
v -0.03388578 -0.02366745 0.00535981
v -0.01619742 -0.04106361 0.00552930
v -0.01732440 -0.03192848 0.00131661
v -0.01502539 -0.03418070 0.00141841
v -0.01630328 -0.03920226 0.00334165
f 1 3 4
f 6 1 2
f 6 3 1
f 7 2 1
f 10 7 1
f 13 6 2
f 14 5 11
f 17 10 1
f 17 1 4
f 17 11 10
f 18 7 10
f 18 11 5
f 18 10 11
f 21 6 13
f 22 14 11
f 25 5 14
f 26 13 2
f 26 23 16
f 26 2 7
f 26 7 23
f 28 15 23
f 30 19 3
f 30 3 6
f 30 12 29
f 31 12 30
f 31 30 6
f 31 6 21
f 33 20 14
f 33 8 29
f 34 23 15
f 34 24 9
f 35 23 7
f 35 7 18
f 35 28 23
f 36 9 16
f 36 16 23
f 36 34 9
f 36 23 34
f 37 25 14
f 37 15 25
f 37 34 15
f 37 24 34
f 38 14 20
f 38 37 14
f 38 24 37
f 39 25 15
f 39 5 25
f 39 15 28
f 39 28 35
f 39 35 18
f 39 18 5
f 40 26 16
f 40 16 9
f 40 9 13
f 40 13 26
f 41 11 17
f 41 17 27
f 42 41 27
f 43 8 27
f 43 29 8
f 44 43 27
f 44 27 17
f 44 17 4
f 45 12 31
f 45 20 33
f 45 33 29
f 45 29 12
f 46 32 21
f 46 21 13
f 47 31 21
f 47 21 32
f 47 45 31
f 47 20 45
f 47 38 20
f 47 32 38
f 48 13 9
f 48 38 32
f 48 9 24
f 48 24 38
f 48 46 13
f 48 32 46
f 49 33 14
f 49 14 22
f 49 8 33
f 49 22 42
f 49 42 27
f 49 27 8
f 50 42 22
f 50 22 11
f 50 11 41
f 50 41 42
f 51 30 29
f 51 29 43
f 52 44 4
f 52 4 3
f 53 3 19
f 53 19 44
f 53 52 3
f 53 44 52
f 54 44 19
f 54 43 44
f 54 51 43
f 54 19 30
f 54 30 51

