# https://github.com/mikedh/trimesh
v 0.02156705 0.04524168 0.03574583
v 0.02265470 0.03912330 0.03671254
v 0.02225712 0.02864777 0.00046617
v -0.01467257 0.03920387 0.00301644
v -0.01591470 0.03446791 0.03677376
v 0.02146174 0.04691621 0.00912748
v -0.01417928 0.03542318 0.03715599
v 0.02245136 0.02912933 0.00592576
v 0.00117712 0.02868878 0.00062084
v 0.01265094 0.04488091 0.00338759
v -0.00733209 0.04698921 0.02435898
v 0.02150671 0.04703677 0.02654295
v 0.00145473 0.04695098 0.03552846
v 0.02209329 0.03753211 0.00149549
v -0.01553169 0.03381362 0.01005671
v 0.00116766 0.02877333 0.00543519
v -0.01393200 0.04465545 0.02207571
v -0.00517003 0.04695710 0.00919792
v 0.01265661 0.04696729 0.03555745
v 0.00604137 0.04978534 0.01531785
v 0.02162620 0.04303504 0.00331030
v 0.00123746 0.03770565 0.00127961
v -0.01401418 0.04467251 0.01328006
v -0.01395236 0.04235770 0.03555784
v 0.00373457 0.04491746 0.00344943
v 0.01702544 0.04687689 0.03335505
v -0.00520251 0.04706988 0.02884248
v -0.00727910 0.04687967 0.01115555
v 0.01044661 0.04977507 0.01526537
v 0.00599866 0.04974514 0.01755683
v 0.01704553 0.04710599 0.00726149
v -0.01421361 0.04277043 0.00724342
v -0.01162722 0.04449830 0.03112470
v -0.00747903 0.04490737 0.03570697
v -0.00736776 0.04271806 0.00354636
v 0.01927156 0.04684416 0.03117618
v 0.01044990 0.04974563 0.01749701
v 0.02145772 0.04484843 0.00539599
v -0.00074274 0.04715400 0.00740849
v -0.01174791 0.04469776 0.00919255
v -0.01399930 0.04008180 0.00359331
v -0.00955146 0.04476973 0.00744762
v -0.00520109 0.04487630 0.00538583
f 7 5 2
f 8 2 5
f 12 1 2
f 12 2 6
f 14 6 2
f 14 2 8
f 14 8 3
f 15 5 4
f 15 4 9
f 16 8 5
f 16 15 9
f 16 5 15
f 16 9 3
f 16 3 8
f 19 2 1
f 19 13 7
f 19 7 2
f 21 14 10
f 21 6 14
f 22 14 3
f 22 3 9
f 22 9 4
f 22 10 14
f 23 5 17
f 23 17 11
f 24 17 5
f 24 5 7
f 25 10 22
f 26 19 1
f 28 20 18
f 28 11 20
f 28 23 11
f 29 12 6
f 30 13 19
f 30 27 13
f 30 20 11
f 30 11 27
f 31 29 6
f 31 10 25
f 32 4 5
f 32 5 23
f 33 11 17
f 33 17 24
f 33 27 11
f 34 24 7
f 34 7 13
f 34 33 24
f 34 13 27
f 34 27 33
f 35 25 22
f 35 22 4
f 36 26 1
f 36 1 12
f 37 19 26
f 37 26 36
f 37 36 12
f 37 12 29
f 37 30 19
f 37 29 20
f 37 20 30
f 38 21 10
f 38 10 31
f 38 31 6
f 38 6 21
f 39 20 29
f 39 29 31
f 39 18 20
f 39 31 25
f 40 28 18
f 40 32 23
f 40 23 28
f 41 35 4
f 41 4 32
f 41 32 35
f 42 35 32
f 42 40 18
f 42 32 40
f 43 39 25
f 43 25 35
f 43 35 42
f 43 42 18
f 43 18 39

