# https://github.com/mikedh/trimesh
v 0.00082144 -0.02665492 0.06685284
v 0.00145549 -0.03945584 0.05862848
v 0.00086330 -0.04342390 0.02961742
v -0.01635697 -0.03625896 0.02968616
v -0.02438617 -0.02269114 0.05937299
v -0.01412186 -0.04385399 0.02893744
v -0.02359670 -0.00920613 0.05583566
v 0.00146346 -0.02893306 0.06692808
v 0.00122288 -0.04827238 0.02925495
v -0.02609624 -0.02148297 0.04170051
v -0.01345291 -0.03411807 0.05814947
v 0.00065090 -0.02821732 0.05875747
v -0.02605084 -0.00925211 0.05369932
v -0.02106072 -0.00845219 0.06695851
v -0.00754657 -0.04636376 0.02894682
v 0.00149258 -0.04642163 0.03807038
v -0.01379760 -0.04108059 0.04004343
v -0.01128010 -0.02350138 0.06651689
v -0.00931972 -0.03636529 0.05820307
v -0.02017692 -0.00980376 0.05886181
v -0.01866553 -0.00918435 0.06690955
v -0.02228931 -0.00820710 0.06563990
v -0.00716357 -0.04570121 0.03335376
v -0.01399182 -0.04351821 0.03111707
v -0.01765520 -0.01667681 0.06646774
v -0.00273549 -0.03870614 0.05830915
v -0.00285676 -0.02818818 0.06653280
v -0.01818109 -0.00973076 0.06366729
v -0.00283166 -0.04570040 0.03782091
v -0.01165311 -0.04350877 0.03556644
v -0.01988483 -0.01223464 0.06676722
v -0.01778863 -0.00981156 0.06588707
f 6 4 3
f 10 6 5
f 10 4 6
f 12 8 3
f 12 1 8
f 13 7 3
f 13 3 4
f 13 4 10
f 13 10 5
f 15 6 3
f 15 3 9
f 16 8 2
f 16 9 3
f 16 3 8
f 17 11 5
f 18 5 11
f 18 8 14
f 19 18 11
f 19 11 17
f 20 12 3
f 20 3 7
f 21 14 8
f 21 8 1
f 22 13 5
f 22 5 14
f 22 7 13
f 22 20 7
f 22 14 21
f 23 15 9
f 24 17 5
f 24 5 6
f 24 6 15
f 24 15 23
f 25 5 18
f 26 2 8
f 27 8 18
f 27 18 19
f 27 26 8
f 27 19 26
f 28 1 12
f 28 12 20
f 28 22 21
f 28 20 22
f 29 23 9
f 29 9 16
f 29 16 2
f 29 2 26
f 30 24 23
f 30 17 24
f 30 23 29
f 30 29 26
f 30 26 19
f 30 19 17
f 31 25 18
f 31 18 14
f 31 14 5
f 31 5 25
f 32 28 21
f 32 21 1
f 32 1 28

