# https://github.com/mikedh/trimesh
v 0.03087370 0.01642573 0.06725020
v 0.04110780 0.01703680 0.05938266
v 0.03885186 0.02472428 0.05829243
v 0.04033577 0.02586894 0.03608461
v 0.04206034 0.01262105 0.04852403
v 0.04249337 0.02109594 0.05483221
v 0.00826804 0.02745931 0.06287615
v 0.04148186 0.02059217 0.05866335
v 0.03957928 0.01182089 0.05393796
v 0.04150280 0.02273887 0.05456034
v 0.04235459 0.02246586 0.03685279
v 0.02356665 0.02472871 0.06668993
v 0.03937887 0.02690721 0.03660826
v 0.02933335 0.01968970 0.06665971
v 0.03655662 0.01238082 0.05569315
v 0.04073296 0.02218102 0.05816264
v 0.00824749 0.02686452 0.06645011
v 0.01307502 0.02697493 0.06703440
v 0.02719977 0.02182217 0.06679133
v 0.00834385 0.02697363 0.06359379
v 0.00844950 0.02658566 0.06606589
f 6 2 5
f 8 1 2
f 8 2 6
f 9 5 2
f 9 2 1
f 10 6 4
f 11 6 5
f 11 4 6
f 11 7 4
f 11 5 7
f 13 4 7
f 13 10 4
f 13 3 10
f 14 8 3
f 14 1 8
f 15 5 9
f 15 9 1
f 16 8 6
f 16 6 10
f 16 10 3
f 16 3 8
f 18 13 7
f 18 3 13
f 18 7 17
f 18 12 3
f 18 17 1
f 18 1 12
f 19 12 1
f 19 1 14
f 19 14 3
f 19 3 12
f 20 7 5
f 20 5 15
f 20 17 7
f 21 15 1
f 21 1 17
f 21 20 15
f 21 17 20

