# https://github.com/mikedh/trimesh
v 0.00086330 -0.04342390 0.02961742
v 0.02187854 -0.04737705 0.01985921
v 0.02234572 -0.02293610 0.00478948
v -0.02429827 -0.02264228 0.00110875
v -0.00954721 -0.04579864 0.00925421
v -0.02501232 -0.03022181 0.01994290
v 0.02238419 -0.04188208 0.01994242
v 0.00122288 -0.04827238 0.02925495
v 0.02176044 -0.04226095 0.00305249
v -0.01529788 -0.03702704 0.02933724
v -0.02517121 -0.02321749 0.00983542
v -0.02422806 -0.03178358 0.00249063
v -0.00076760 -0.04804948 0.00928429
v 0.02216774 -0.03677323 0.00139102
v -0.01162220 -0.03902541 0.02979756
v -0.01412186 -0.04385399 0.02893744
v -0.02608869 -0.02868496 0.01740274
v -0.00286118 -0.04815970 0.02431396
v 0.01710431 -0.04865424 0.01980842
v -0.00302267 -0.04402108 0.00351305
v 0.02227801 -0.02284327 0.00018003
v -0.01258422 -0.03627384 0.00156890
v -0.01397630 -0.04330040 0.00747540
v -0.00293822 -0.04812740 0.01112534
v -0.01181698 -0.04583260 0.01979939
v -0.00944675 -0.04580353 0.02878919
v 0.00145495 -0.04868566 0.02665684
v 0.01475956 -0.04805459 0.00931855
v 0.01518477 -0.03886192 0.00150296
v -0.00284812 -0.04572971 0.00545011
v -0.01954684 -0.03177575 0.00157136
v -0.01185765 -0.04150902 0.00359665
v -0.00733085 -0.04577265 0.00748185
v -0.01174635 -0.04584699 0.01326845
v -0.00064883 -0.04833070 0.02657744
v 0.01697150 -0.04820832 0.01123634
v 0.01705876 -0.04401488 0.00351756
v 0.00121716 -0.03877123 0.00149834
v 0.01486429 -0.04602496 0.00542528
v -0.02414637 -0.02723096 0.00156918
v 0.02145244 -0.04574869 0.00747996
f 7 3 1
f 8 7 1
f 8 2 7
f 9 7 2
f 10 1 3
f 11 3 4
f 11 10 3
f 11 6 10
f 14 3 7
f 14 7 9
f 15 8 1
f 15 1 10
f 16 10 6
f 16 15 10
f 16 8 15
f 16 6 12
f 17 11 4
f 17 4 12
f 17 12 6
f 17 6 11
f 19 2 8
f 21 4 3
f 21 3 14
f 22 4 21
f 23 16 12
f 24 13 19
f 26 8 16
f 26 25 18
f 26 16 25
f 27 19 8
f 27 24 19
f 27 18 24
f 29 14 9
f 29 21 14
f 31 22 12
f 31 4 22
f 32 22 20
f 32 12 22
f 32 23 12
f 32 20 30
f 33 24 5
f 33 13 24
f 33 30 13
f 33 5 23
f 33 32 30
f 33 23 32
f 34 5 24
f 34 24 18
f 34 18 25
f 34 23 5
f 34 25 16
f 34 16 23
f 35 26 18
f 35 8 26
f 35 27 8
f 35 18 27
f 36 19 13
f 36 13 28
f 36 2 19
f 37 29 9
f 37 20 29
f 38 29 20
f 38 20 22
f 38 22 21
f 38 21 29
f 39 28 13
f 39 13 30
f 39 30 20
f 39 20 37
f 40 31 12
f 40 12 4
f 40 4 31
f 41 36 28
f 41 9 2
f 41 2 36
f 41 28 39
f 41 39 37
f 41 37 9

