# https://github.com/mikedh/trimesh
v 0.00114557 0.04076441 0.01031329
v 0.00112456 -0.02285616 0.00453693
v 0.00123746 0.03770565 0.00127961
v -0.01502664 0.03309481 0.00140796
v -0.02517121 -0.02321749 0.00983542
v 0.00118293 -0.02287223 0.00040205
v -0.01643768 0.04278966 0.00964948
v -0.02450137 0.01458330 0.00072767
v -0.02308559 -0.02347092 0.00874267
v 0.00118713 0.04031609 0.00176962
v -0.01467257 0.03920387 0.00301644
v -0.02497250 0.01482011 0.00726196
v -0.02429827 -0.02264228 0.00110875
v -0.00572420 0.03763822 0.00149179
v -0.02564337 -0.01878282 0.00849982
v -0.01261984 0.03528526 0.00152565
f 5 2 1
f 6 1 2
f 6 3 1
f 7 5 1
f 8 4 3
f 8 3 6
f 9 6 2
f 9 2 5
f 10 7 1
f 10 1 3
f 11 8 7
f 11 4 8
f 11 7 10
f 12 5 7
f 12 7 8
f 13 8 6
f 13 6 9
f 13 9 5
f 14 10 3
f 14 3 4
f 14 11 10
f 15 12 8
f 15 5 12
f 15 13 5
f 15 8 13
f 16 14 4
f 16 4 11
f 16 11 14

