# https://github.com/mikedh/trimesh
v 0.02177770 0.02521933 0.06706377
v 0.02094748 0.02636741 0.06659108
v -0.01638449 0.01300068 0.06726897
v -0.01474392 0.04183653 0.03602416
v 0.02156705 0.04524168 0.03574583
v -0.00490800 0.03796530 0.05860559
v -0.00051746 0.02881244 0.06650353
v 0.02117005 0.03758521 0.05822432
v 0.02265470 0.03912330 0.03671254
v -0.01401327 0.03364239 0.05868992
v -0.00064881 0.04446630 0.04230176
v 0.01461163 0.02871248 0.06653524
v -0.00898247 0.02424119 0.06696829
v 0.02271918 0.02708040 0.05620323
v -0.01591470 0.03446791 0.03677376
v 0.02317150 0.03787904 0.03952085
v -0.01129906 0.03521280 0.05859759
v -0.00747903 0.04490737 0.03570697
v 0.01045042 0.04001933 0.05685746
v -0.01371564 0.02011070 0.06699197
v -0.01648388 0.01311003 0.06318629
v -0.01659097 0.03289598 0.03946329
v -0.01148734 0.04203428 0.04001141
v -0.01387001 0.03999465 0.04229900
v -0.00718724 0.04440792 0.03772356
v -0.01207084 0.04314864 0.03578733
v 0.01491473 0.04464599 0.04236215
v 0.00372188 0.04001107 0.05698502
v -0.01671231 0.01804392 0.05700376
v 0.01924685 0.04455701 0.04014166
v 0.01920440 0.04214493 0.04684250
v 0.02144859 0.04468059 0.03785209
f 8 2 1
f 12 7 1
f 12 1 2
f 12 2 8
f 13 3 1
f 13 1 7
f 15 5 9
f 16 9 5
f 16 5 8
f 16 14 9
f 16 8 1
f 16 1 14
f 17 7 6
f 17 13 7
f 17 10 13
f 19 12 8
f 20 13 10
f 20 10 3
f 20 3 13
f 21 14 1
f 21 1 3
f 21 9 14
f 22 10 4
f 22 4 15
f 22 3 10
f 23 17 6
f 24 4 10
f 24 10 17
f 24 23 4
f 24 17 23
f 25 6 11
f 25 11 18
f 25 23 6
f 26 15 4
f 26 4 23
f 26 25 18
f 26 23 25
f 26 18 5
f 26 5 15
f 27 19 8
f 27 18 11
f 27 5 18
f 28 11 6
f 28 6 7
f 28 7 12
f 28 12 19
f 28 27 11
f 28 19 27
f 29 15 9
f 29 9 21
f 29 22 15
f 29 21 3
f 29 3 22
f 30 5 27
f 31 30 27
f 31 27 8
f 31 8 30
f 32 30 8
f 32 8 5
f 32 5 30

