# https://github.com/mikedh/trimesh
v 0.02861708 -0.01989661 0.06702110
v 0.03574600 -0.02937285 0.05555881
v 0.03397369 -0.02049818 0.05507569
v 0.00110201 -0.04435269 0.01993037
v 0.00145549 -0.03945584 0.05862848
v 0.02238419 -0.04188208 0.01994242
v 0.00069602 -0.02744496 0.06062464
v 0.03037759 -0.01944718 0.06604755
v 0.02160390 -0.03739565 0.05865743
v 0.00146346 -0.02893306 0.06692808
v 0.00080572 -0.04407357 0.02487375
v 0.03401712 -0.02757122 0.05947886
v 0.03327024 -0.01980453 0.05857450
v 0.00082144 -0.02665492 0.06685284
v 0.02187854 -0.04737705 0.01985921
v 0.01882623 -0.02758908 0.06657970
v 0.01687880 -0.03878137 0.05865509
v 0.02148750 -0.04586293 0.03346102
v 0.00136606 -0.04935237 0.01982109
v 0.02331496 -0.02536665 0.06643416
v 0.02139764 -0.04330701 0.04224333
v 0.01262257 -0.04589896 0.04021062
v 0.01328349 -0.04432899 0.01984572
v 0.01484440 -0.04816476 0.02889208
v 0.00148533 -0.04581207 0.04020896
v 0.02773326 -0.02139529 0.06682782
v 0.01254097 -0.04342077 0.04687339
v 0.01703796 -0.04587433 0.03795791
v 0.01710431 -0.04865424 0.01980842
v 0.00374813 -0.04824634 0.03119449
v 0.01037239 -0.04828982 0.03119278
v 0.01703009 -0.04833182 0.02441631
v 0.00150660 -0.04836464 0.02889804
f 6 3 2
f 6 4 3
f 7 3 4
f 11 7 4
f 11 5 7
f 12 8 1
f 12 9 2
f 13 2 3
f 13 3 7
f 13 7 8
f 13 12 2
f 13 8 12
f 14 8 7
f 14 1 8
f 14 10 1
f 14 7 5
f 14 5 10
f 15 6 2
f 16 1 10
f 17 10 5
f 17 16 10
f 17 9 16
f 18 15 2
f 19 11 4
f 20 16 9
f 20 9 12
f 21 18 2
f 21 2 9
f 21 9 17
f 23 19 4
f 23 4 6
f 25 5 11
f 25 11 19
f 25 22 5
f 26 20 12
f 26 12 1
f 26 1 16
f 26 16 20
f 27 22 17
f 27 17 5
f 27 5 22
f 28 21 17
f 28 17 22
f 28 18 21
f 28 24 18
f 29 19 23
f 29 23 6
f 29 6 15
f 30 22 25
f 31 28 22
f 31 24 28
f 31 22 30
f 31 30 19
f 31 29 24
f 31 19 29
f 32 29 15
f 32 15 18
f 32 18 24
f 32 24 29
f 33 30 25
f 33 25 19
f 33 19 30

