# https://github.com/mikedh/trimesh
v 0.01892615 -0.03351326 0.07802143
v 0.01923590 -0.03237572 0.07700630
v 0.00091408 -0.03990840 0.07791332
v 0.00079759 -0.02889546 0.02138000
v 0.01435617 -0.02550134 0.02180192
v 0.01868083 -0.02716040 0.06140489
v 0.01191943 -0.03850160 0.07551880
v 0.01933093 -0.02942495 0.07141944
v 0.00107085 -0.03610284 0.06558251
v 0.01560311 -0.02108484 0.02145753
v 0.01765531 -0.03581495 0.07538473
v 0.00762714 -0.04005331 0.07792611
v 0.00616862 -0.02978800 0.02175777
v 0.00046501 -0.04189205 0.07791136
v 0.01922204 -0.02782418 0.06568009
v 0.00097239 -0.03746956 0.07126960
v 0.00270567 -0.02846875 0.02120617
v 0.00105487 -0.03478369 0.05815110
v 0.01768819 -0.03590312 0.07778517
v 0.01019034 -0.02818080 0.02186025
v 0.00064176 -0.03096427 0.02155212
v 0.00188300 -0.04159385 0.07792057
v 0.01636024 -0.02188922 0.02716907
v 0.00100373 -0.03895811 0.07570283
v 0.01485581 -0.02180184 0.02127530
v 0.01194425 -0.03865503 0.07768803
v 0.00746176 -0.02964674 0.02331091
v 0.01155255 -0.02811620 0.02484708
v 0.00046808 -0.03129379 0.02322959
v 0.00197249 -0.04149180 0.07566685
v 0.01285513 -0.02659144 0.02193961
v 0.00762233 -0.03984591 0.07556317
v 0.00468402 -0.03109206 0.02622877
v 0.00048138 -0.04163916 0.07552191
f 1 2 3
f 8 3 2
f 10 9 6
f 11 5 2
f 11 2 1
f 15 6 9
f 15 8 2
f 16 15 9
f 16 8 15
f 16 14 3
f 16 4 14
f 18 10 4
f 18 9 10
f 18 16 9
f 18 4 16
f 19 11 1
f 19 1 12
f 20 11 7
f 20 17 5
f 20 13 17
f 21 17 13
f 21 4 17
f 22 12 1
f 22 1 3
f 22 3 14
f 23 10 6
f 23 6 15
f 23 5 10
f 23 15 2
f 23 2 5
f 24 16 3
f 24 3 8
f 24 8 16
f 25 10 5
f 25 5 17
f 25 17 4
f 25 4 10
f 26 19 12
f 26 12 7
f 26 7 11
f 26 11 19
f 27 20 7
f 27 7 13
f 27 13 20
f 28 11 20
f 29 14 4
f 29 4 21
f 30 12 22
f 30 22 14
f 31 28 20
f 31 20 5
f 31 5 11
f 31 11 28
f 32 7 12
f 32 12 30
f 32 13 7
f 33 30 21
f 33 21 13
f 33 32 30
f 33 13 32
f 34 29 21
f 34 21 30
f 34 30 14
f 34 14 29

