# https://github.com/mikedh/trimesh
v 0.02752471 0.02073584 0.06201202
v 0.03411139 0.00845505 0.06176814
v 0.02105603 0.01346135 0.01757780
v 0.01356003 0.01410811 0.00040828
v 0.01517666 -0.01416685 0.00445093
v 0.01424573 0.02308003 0.02200636
v 0.03198714 0.01526153 0.06219339
v 0.02957544 -0.00181761 0.05246468
v 0.02112913 -0.00607669 0.00414254
v 0.01830305 0.01763867 0.01755309
v 0.01914596 0.02560892 0.05977891
v 0.00602474 0.02651306 0.01589442
v 0.02020943 0.02511186 0.06138749
v 0.02546210 0.00654532 0.02346691
v 0.02341425 -0.01322480 0.02167046
v 0.01405545 -0.01361858 0.00005630
v 0.01963095 0.00522078 0.00186093
v 0.01841071 0.02041346 0.02628198
v 0.01664078 0.01336582 0.00298095
v 0.02110919 0.01482000 0.02050535
v 0.01400813 0.02774785 0.04073936
v 0.02064733 -0.01391997 0.02131447
v 0.00727309 0.02444792 0.02108500
v 0.02990354 0.00892867 0.06120618
v 0.03371910 0.01127104 0.06208094
v 0.02714278 0.00255241 0.02776304
v 0.02939499 -0.00606391 0.04088786
v 0.00612732 0.02524780 0.01144180
v 0.01824434 -0.01284055 0.00185741
v 0.01961280 0.00931557 0.00567795
v 0.01857336 0.00671224 0.00100805
v 0.01540047 0.02036949 0.01610609
v 0.02118096 0.01900102 0.03229517
v 0.01670542 0.01472884 0.00580738
v 0.00656612 0.02763829 0.02150681
v 0.02473990 0.02371674 0.06184465
v 0.01962787 -0.01413860 0.01813216
v 0.02402102 0.01072410 0.02345673
v 0.02117798 0.00102783 0.00418335
v 0.02566391 0.00391195 0.02192402
v 0.03171681 -0.00177089 0.05258224
v 0.02864866 -0.00311973 0.03515508
v 0.02417570 -0.01015936 0.02038981
v 0.01316676 0.01659788 0.00164779
v 0.00996157 0.02447724 0.01609993
v 0.01730807 -0.01305381 0.00096129
v 0.02116363 0.00381619 0.00564466
v 0.01814733 0.01065313 0.00289134
v 0.01582986 0.01215917 0.00092849
v 0.01541012 0.01750275 0.00869808
v 0.01627461 0.02577691 0.05085850
v 0.01843674 0.02320990 0.03665879
v 0.02250384 0.00937470 0.01613402
v 0.02713778 -0.00315138 0.02775355
v 0.01966479 -0.00877971 0.00187093
v 0.03014633 -0.00173339 0.04251260
v 0.02864241 -0.00593537 0.03658912
v 0.01949445 -0.01276806 0.00564784
v 0.01404245 0.01617076 0.00215138
v 0.00858594 0.02605899 0.01889650
v 0.01270298 0.02166428 0.01320537
v 0.01878540 -0.00888753 0.00097302
v 0.01832886 0.00932131 0.00196119
v 0.01446721 0.01372544 0.00076408
f 13 7 1
f 13 11 8
f 20 10 7
f 20 7 3
f 22 8 11
f 23 5 11
f 23 16 5
f 23 12 16
f 24 13 8
f 24 8 2
f 25 24 2
f 25 7 13
f 25 13 24
f 27 22 15
f 28 16 12
f 28 4 16
f 31 16 4
f 32 18 10
f 32 6 18
f 33 18 1
f 33 1 7
f 33 7 10
f 33 10 18
f 34 10 20
f 34 20 3
f 34 3 19
f 35 11 21
f 35 12 23
f 36 1 18
f 36 13 1
f 36 21 11
f 36 11 13
f 37 22 11
f 37 11 5
f 37 15 22
f 37 29 15
f 37 5 29
f 38 25 14
f 38 3 7
f 38 7 25
f 38 30 3
f 40 25 2
f 40 2 26
f 40 14 25
f 40 26 39
f 41 2 8
f 41 8 22
f 41 22 27
f 44 4 28
f 46 29 5
f 46 5 16
f 47 30 14
f 47 17 30
f 47 14 40
f 47 40 39
f 47 39 17
f 48 19 3
f 48 3 30
f 49 31 4
f 50 32 10
f 50 10 34
f 51 35 23
f 51 23 11
f 51 11 35
f 52 36 18
f 52 18 6
f 52 6 21
f 52 21 36
f 53 38 14
f 53 14 30
f 53 30 38
f 54 39 26
f 54 9 39
f 54 26 2
f 54 2 42
f 54 43 9
f 55 39 9
f 55 17 39
f 56 41 27
f 56 2 41
f 56 42 2
f 57 27 15
f 57 15 43
f 57 43 54
f 57 54 42
f 57 56 27
f 57 42 56
f 58 43 15
f 58 15 29
f 58 29 55
f 58 55 9
f 58 9 43
f 59 34 19
f 59 19 49
f 59 50 34
f 60 45 28
f 60 28 12
f 60 12 35
f 60 35 21
f 60 21 6
f 60 6 45
f 61 45 6
f 61 6 32
f 61 32 50
f 61 50 59
f 61 59 44
f 61 44 28
f 61 28 45
f 62 46 16
f 62 16 31
f 62 31 17
f 62 17 55
f 62 55 29
f 62 29 46
f 63 48 30
f 63 30 17
f 63 17 31
f 63 31 49
f 63 49 19
f 63 19 48
f 64 49 4
f 64 4 44
f 64 59 49
f 64 44 59

