# https://github.com/mikedh/trimesh
v 0.00536391 0.03871527 0.07836259
v 0.00568383 0.03800179 0.07733577
v -0.00247681 0.03058015 0.02186316
v -0.02555400 0.02178384 0.02110809
v -0.03266446 0.02885708 0.07002744
v -0.00221868 0.02784652 0.02146770
v 0.00465397 0.04087209 0.07658340
v -0.03217476 0.02974893 0.07169209
v -0.03211941 0.02668791 0.06134372
v 0.00060726 0.03314776 0.03786648
v 0.00555776 0.03629162 0.07148961
v -0.01237647 0.03051401 0.02186696
v 0.00467988 0.04080636 0.07802683
v -0.02513639 0.02525366 0.02183858
v -0.02651482 0.02107009 0.02127283
v 0.00567125 0.03668642 0.07288101
v -0.03263925 0.02714291 0.06415093
v 0.00078700 0.03097836 0.03772611
v -0.01810578 0.04092493 0.07659447
v -0.03126476 0.03301773 0.07212409
v -0.01789671 0.02906672 0.02181614
v 0.00467094 0.03927425 0.07245797
v -0.02671079 0.02133285 0.02263653
v -0.00958303 0.03353365 0.03510147
v -0.02320173 0.03731788 0.07830905
v -0.03062568 0.03073047 0.06188161
v -0.01502903 0.03186699 0.03079768
v -0.02237401 0.03930885 0.07558777
v -0.01377371 0.04083009 0.07416516
v -0.00533024 0.03350710 0.03509807
v -0.01094719 0.03205067 0.02772621
v -0.01800192 0.04078380 0.07804673
v -0.02227486 0.03953803 0.07799113
v -0.02057038 0.02882757 0.02501126
v -0.01660026 0.04097499 0.07551079
v -0.00249639 0.03192632 0.02777521
v 0.00181036 0.04068671 0.07421883
v -0.01362350 0.03187949 0.02927745
v -0.02349946 0.02635989 0.02195126
v -0.02474559 0.02605141 0.02351250
v -0.02797446 0.03523144 0.07237564
v -0.02345569 0.02886331 0.03220578
f 8 5 2
f 8 2 1
f 10 6 3
f 10 3 7
f 12 6 4
f 12 3 6
f 13 1 2
f 13 2 7
f 15 4 6
f 15 6 11
f 15 11 9
f 15 14 4
f 16 2 5
f 16 7 2
f 16 11 10
f 17 9 11
f 17 15 9
f 17 16 5
f 17 11 16
f 18 11 6
f 18 6 10
f 18 10 11
f 20 5 8
f 20 17 5
f 21 12 4
f 21 4 14
f 22 16 10
f 22 10 7
f 22 7 16
f 23 17 14
f 23 14 15
f 23 15 17
f 25 8 1
f 25 20 8
f 26 20 14
f 26 14 17
f 26 17 20
f 27 21 19
f 27 12 21
f 28 19 21
f 30 24 29
f 31 3 12
f 31 24 30
f 32 25 1
f 32 1 13
f 32 13 19
f 33 28 20
f 33 20 25
f 33 25 32
f 33 32 19
f 33 19 28
f 34 28 21
f 35 7 29
f 35 19 13
f 35 13 7
f 35 31 19
f 35 29 24
f 35 24 31
f 36 7 3
f 36 31 30
f 36 3 31
f 37 30 29
f 37 29 7
f 37 36 30
f 37 7 36
f 38 27 19
f 38 19 31
f 38 31 12
f 38 12 27
f 39 34 21
f 39 21 14
f 40 39 14
f 40 14 20
f 40 34 39
f 41 40 20
f 41 20 28
f 42 28 34
f 42 34 40
f 42 41 28
f 42 40 41

