# https://github.com/mikedh/trimesh
v 0.00603948 0.02793503 0.02172680
v 0.01495237 0.01368795 0.00922737
v 0.00028492 0.02454994 0.00193252
v -0.02758205 0.01512901 0.00095012
v -0.03606911 0.01001686 0.02151024
v 0.01406092 0.01006458 0.00002393
v -0.01658800 0.02950146 0.02175290
v 0.01253561 0.01873669 0.00428515
v 0.00727309 0.02444792 0.02108500
v -0.01659829 0.02363054 0.00103039
v -0.02953821 0.00981042 0.00060039
v 0.01493013 0.01055088 0.00458553
v -0.00523655 0.03084959 0.02181768
v -0.03037712 0.02068736 0.02195808
v 0.01306611 0.02072962 0.01149243
v 0.00566188 0.02301265 0.00301759
v 0.00040679 0.02358631 0.00099221
v -0.03484931 0.00968317 0.01598096
v -0.02218671 0.02071200 0.00105743
v 0.01513970 0.01708223 0.00681472
v 0.00302358 0.02891730 0.02045703
v -0.01089362 0.02604990 0.00283889
v -0.02349946 0.02635989 0.02195126
v -0.03469711 0.01379981 0.02179590
v 0.01131466 0.02166478 0.01018566
v 0.01322608 0.01526354 0.00076603
v 0.00434763 0.02303297 0.00184914
v -0.03174309 0.00960960 0.00413821
v -0.02730263 0.01756047 0.00272223
v 0.01445022 0.01790932 0.00707019
v 0.00313498 0.02922587 0.02186114
v -0.00395444 0.02746675 0.00861136
v 0.00157339 0.02585947 0.00716247
v 0.00575731 0.02591676 0.01310430
v -0.01773323 0.02433447 0.00289673
v -0.01082437 0.02898600 0.01452190
v -0.01511786 0.02475833 0.00182718
v -0.00400154 0.02592376 0.00285604
v -0.00807496 0.03085191 0.02182575
v -0.03444211 0.01225477 0.01749311
v 0.01262408 0.02017423 0.00873069
v 0.01132695 0.01878031 0.00213511
v 0.00451465 0.02198507 0.00093954
v 0.01456993 0.01665016 0.00410162
v -0.03064064 0.00973828 0.00160427
v -0.02444952 0.02166376 0.00718185
v -0.03159415 0.01778254 0.01750194
v -0.00109154 0.02887488 0.01604892
v -0.02762921 0.02339404 0.02198128
v -0.00524935 0.03051049 0.02041926
v 0.00438594 0.02443144 0.00568303
v 0.00708919 0.02440047 0.01023105
v 0.00588332 0.02742700 0.01898009
v -0.02059505 0.02759271 0.02037670
v -0.01918736 0.02326062 0.00188642
v -0.01362686 0.02595751 0.00416322
v 0.00022543 0.02587837 0.00568457
v -0.01368056 0.02886462 0.01600116
v -0.00810548 0.03051862 0.02039605
v -0.03450855 0.01105365 0.01609296
v -0.02990839 0.01357265 0.00296015
v 0.00711450 0.02166145 0.00203222
v 0.00730557 0.02053268 0.00104088
v 0.01394382 0.01738124 0.00429979
f 9 5 2
f 9 1 5
f 11 10 6
f 12 2 5
f 12 5 6
f 15 9 2
f 15 1 9
f 17 6 10
f 18 6 5
f 19 11 4
f 19 10 11
f 20 2 12
f 20 15 2
f 20 12 6
f 24 5 1
f 25 8 16
f 25 1 15
f 27 17 3
f 27 3 16
f 28 6 18
f 29 19 4
f 30 8 15
f 30 15 20
f 31 24 1
f 31 14 24
f 37 22 17
f 37 17 10
f 38 3 17
f 38 17 22
f 38 22 32
f 39 7 23
f 39 31 13
f 39 23 31
f 40 5 24
f 41 25 15
f 41 15 8
f 41 8 25
f 43 26 6
f 43 6 17
f 43 17 27
f 44 20 6
f 44 6 26
f 44 30 20
f 44 26 42
f 45 11 6
f 45 6 28
f 45 4 11
f 46 19 29
f 47 24 14
f 47 14 29
f 47 40 24
f 48 31 21
f 48 13 31
f 48 32 13
f 49 31 23
f 49 14 31
f 49 23 46
f 49 46 29
f 49 29 14
f 50 32 22
f 50 13 32
f 51 16 3
f 51 34 16
f 51 33 21
f 51 21 34
f 52 25 16
f 52 16 34
f 53 31 1
f 53 52 34
f 53 1 25
f 53 25 52
f 53 34 21
f 53 21 31
f 54 23 7
f 54 7 35
f 55 10 19
f 55 19 46
f 55 46 23
f 55 54 35
f 55 23 54
f 55 37 10
f 55 35 37
f 56 36 22
f 56 22 37
f 56 37 35
f 56 35 7
f 57 3 38
f 57 51 3
f 57 33 51
f 57 38 32
f 57 32 48
f 57 48 21
f 57 21 33
f 58 39 36
f 58 7 39
f 58 56 7
f 58 36 56
f 59 22 36
f 59 36 39
f 59 50 22
f 59 39 13
f 59 13 50
f 60 18 5
f 60 5 40
f 60 40 28
f 60 28 18
f 61 28 40
f 61 45 28
f 61 29 4
f 61 4 45
f 61 47 29
f 61 40 47
f 62 16 8
f 62 8 42
f 62 27 16
f 63 42 26
f 63 26 43
f 63 62 42
f 63 43 27
f 63 27 62
f 64 8 30
f 64 30 44
f 64 44 42
f 64 42 8

