# https://github.com/mikedh/trimesh
v -0.04649807 0.00878754 0.07834895
v -0.03287375 -0.01877828 0.04795477
v -0.04027721 0.01327961 0.06120308
v -0.04029541 0.00117176 0.04078743
v -0.04790586 -0.00591787 0.07768117
v -0.03193487 -0.01813615 0.04070142
v -0.04539599 0.01268215 0.07229052
v -0.04300442 0.01326694 0.07156730
v -0.04503224 -0.00800208 0.07719568
v -0.03830637 0.00117011 0.04063457
v -0.03772561 -0.01146985 0.04096752
v -0.04248511 0.01269597 0.06174057
v -0.04836308 0.00842369 0.07815883
v -0.03394208 -0.01847782 0.05243858
v -0.04207357 0.01342072 0.06851090
v -0.04579101 -0.00785761 0.07845431
v -0.03327286 -0.01589037 0.04045416
v -0.03959914 0.00866497 0.05250894
v -0.03913803 -0.00729097 0.04097101
v -0.03818702 -0.01830957 0.06136401
v -0.04770068 -0.00436782 0.07560759
v -0.04161310 0.00845529 0.05268005
v -0.04059507 0.01335703 0.06260765
v -0.04724917 -0.00749126 0.07848870
v -0.03480062 -0.01714746 0.04097505
v -0.04779695 -0.00585322 0.07667886
v -0.04793695 0.00829436 0.07548956
v -0.04798424 -0.00448212 0.07823910
v -0.04050278 -0.00301062 0.04394099
v -0.03593480 -0.01563627 0.04251953
v -0.03955577 -0.01598446 0.06168139
f 6 3 2
f 8 7 1
f 9 8 1
f 13 1 7
f 14 8 9
f 15 7 8
f 15 12 7
f 15 8 14
f 16 9 1
f 17 10 6
f 17 4 10
f 18 10 4
f 18 3 6
f 18 6 10
f 19 17 11
f 19 4 17
f 20 2 14
f 20 14 9
f 20 9 16
f 22 18 4
f 22 12 3
f 22 3 18
f 22 7 12
f 23 14 2
f 23 2 3
f 23 15 14
f 23 3 12
f 23 12 15
f 24 20 16
f 24 16 1
f 24 1 13
f 25 17 6
f 25 11 17
f 25 6 2
f 25 2 20
f 26 19 11
f 26 5 13
f 26 13 21
f 26 21 4
f 26 24 5
f 27 21 13
f 27 4 21
f 27 22 4
f 27 13 7
f 27 7 22
f 28 24 13
f 28 13 5
f 28 5 24
f 29 26 4
f 29 4 19
f 29 19 26
f 30 26 11
f 30 11 25
f 31 20 24
f 31 24 26
f 31 26 30
f 31 30 25
f 31 25 20

