# https://github.com/mikedh/trimesh
v 0.02341425 -0.01322480 0.02167046
v 0.02293727 -0.01444099 0.02176938
v 0.01646453 -0.01337003 0.00048387
v -0.01850729 -0.01362412 0.00000692
v -0.01935658 -0.02238444 0.01069570
v 0.01859287 -0.01299267 0.00271159
v 0.00064176 -0.03096427 0.02155212
v -0.01854760 -0.01363273 0.00276965
v 0.02271849 -0.01429706 0.02035120
v 0.00110244 -0.02879357 0.02113208
v 0.00717080 -0.02495925 0.00284049
v 0.02314934 -0.01314713 0.02027020
v 0.01537996 -0.01826230 0.00282886
v 0.01435617 -0.02550134 0.02180192
v 0.00196700 -0.02562438 0.00090471
v 0.00875916 -0.02266449 0.00104632
v 0.01681884 -0.01552186 0.00188936
v 0.00616862 -0.02978800 0.02175777
v 0.01254028 -0.02235796 0.00569230
v 0.01864011 -0.02133997 0.02187788
v -0.01630098 -0.02406418 0.00192098
v 0.00313284 -0.02656720 0.00282148
v 0.00600683 -0.02412393 0.00092264
v 0.01806764 -0.01696290 0.00863781
v 0.01577504 -0.01575745 0.00097283
v 0.00876559 -0.02822804 0.01892208
v 0.01130727 -0.02371976 0.00713087
v 0.01127147 -0.02240610 0.00292224
v 0.02152330 -0.01720970 0.02182287
v 0.01527669 -0.01956892 0.00568396
v 0.01401181 -0.02233552 0.01012057
v -0.01795985 -0.02170498 0.00075894
v -0.01804914 -0.02586370 0.01140808
v -0.00644387 -0.02669821 0.00182381
v 0.00191350 -0.02970624 0.01584173
v 0.00850828 -0.02371560 0.00190520
v 0.00579064 -0.02508726 0.00184117
v 0.01814051 -0.01409073 0.00290919
v 0.00449726 -0.02646688 0.00410379
v 0.01423062 -0.02524767 0.02047337
v 0.00855013 -0.02504160 0.00565682
v 0.01971890 -0.01830165 0.01751214
v 0.01539570 -0.02097986 0.01013500
v -0.00784891 -0.02560458 0.00084439
v -0.01764643 -0.02398636 0.00295518
v 0.00054354 -0.02663849 0.00173969
v -0.01071911 -0.02848649 0.01145048
v 0.02126694 -0.01705549 0.02040524
v 0.00621761 -0.02952017 0.02034031
v 0.01152401 -0.02669073 0.01896358
v 0.01828713 -0.01962339 0.01606733
v -0.01343998 -0.02517183 0.00190636
v 0.00050241 -0.02812822 0.00706129
v -0.01506377 -0.02706601 0.01143636
v 0.00593340 -0.02798050 0.01300852
v -0.01364524 -0.02423853 0.00101945
v -0.01205650 -0.02652071 0.00419639
v -0.01628236 -0.02507791 0.00420885
v 0.00050586 -0.02994942 0.01584783
v -0.00785756 -0.02806782 0.00707649
v -0.01651022 -0.02294955 0.00097022
v -0.01479241 -0.02655832 0.00851981
f 6 3 4
f 7 2 1
f 8 5 1
f 8 4 5
f 8 6 4
f 9 1 2
f 10 7 1
f 10 1 5
f 10 5 7
f 12 8 1
f 12 6 8
f 12 9 6
f 12 1 9
f 15 4 3
f 17 3 6
f 18 2 7
f 20 18 14
f 20 2 18
f 23 15 3
f 23 3 16
f 25 16 3
f 25 3 17
f 25 17 13
f 26 14 18
f 28 13 19
f 28 25 13
f 28 16 25
f 28 19 27
f 29 9 2
f 29 2 20
f 30 19 13
f 30 13 24
f 32 5 4
f 33 7 5
f 35 18 7
f 36 23 16
f 36 28 11
f 36 16 28
f 37 15 23
f 37 11 22
f 37 36 11
f 37 23 36
f 38 17 6
f 38 6 9
f 38 24 13
f 38 13 17
f 39 22 11
f 40 27 19
f 40 19 31
f 40 31 20
f 40 20 14
f 41 28 27
f 41 11 28
f 41 39 11
f 41 26 39
f 42 29 20
f 42 30 24
f 43 30 20
f 43 20 31
f 43 31 19
f 43 19 30
f 44 32 4
f 44 4 15
f 45 32 21
f 45 33 5
f 45 5 32
f 46 37 22
f 46 15 37
f 46 44 15
f 46 34 44
f 48 24 38
f 48 42 24
f 48 29 42
f 48 38 9
f 48 9 29
f 49 26 18
f 49 18 35
f 49 35 22
f 49 22 39
f 50 40 14
f 50 14 26
f 50 27 40
f 50 41 27
f 50 26 41
f 51 42 20
f 51 20 30
f 51 30 42
f 52 44 34
f 53 46 22
f 53 22 35
f 53 34 46
f 54 47 7
f 54 7 33
f 55 49 39
f 55 39 26
f 55 26 49
f 56 52 21
f 56 32 44
f 56 44 52
f 57 52 34
f 58 45 21
f 58 21 52
f 58 52 57
f 58 54 33
f 58 33 45
f 59 53 35
f 59 35 7
f 60 34 53
f 60 57 34
f 60 47 57
f 60 53 59
f 60 59 7
f 60 7 47
f 61 56 21
f 61 21 32
f 61 32 56
f 62 57 47
f 62 47 54
f 62 58 57
f 62 54 58

