# https://github.com/mikedh/trimesh
v 0.04103751 0.02039720 0.07792611
v 0.04777762 0.00894920 0.07678807
v 0.04662101 0.01457530 0.07313243
v 0.01494434 0.02914539 0.06111725
v 0.03990450 0.00090536 0.07820641
v 0.02033404 0.02791096 0.06192446
v 0.04816270 0.01381182 0.07581416
v 0.04671736 0.00745845 0.07769699
v 0.02527321 0.03003855 0.07813491
v 0.03398214 0.00986125 0.06188241
v 0.04384874 0.01877657 0.07668053
v 0.04816589 0.01190143 0.07331897
v 0.04369284 0.00243309 0.07556072
v 0.04357648 0.00222424 0.07812774
v 0.04639324 0.01623415 0.07662180
v 0.01750516 0.03000037 0.07012384
v 0.01461642 0.03016844 0.06418941
v 0.03153682 0.01624141 0.06247578
v 0.02947529 0.01026890 0.06131240
v 0.02872821 0.01211030 0.06121962
v 0.04547790 0.01580985 0.07325110
v 0.03676872 0.02347058 0.07793443
v 0.04814593 0.01344054 0.07403770
v 0.04793927 0.01265950 0.07318716
v 0.04649282 0.00675041 0.07450343
v 0.03864002 0.00149879 0.07089369
v 0.04502238 0.00384929 0.07743278
v 0.04700887 0.00863102 0.07757393
v 0.04392156 0.01879636 0.07698550
v 0.02510244 0.02978206 0.07538900
v 0.01427681 0.02964481 0.06136511
v 0.04525163 0.01730031 0.07550641
v 0.04664596 0.01603791 0.07551729
v 0.03306906 0.01363775 0.06248634
v 0.04784974 0.00937259 0.07433190
v 0.04529462 0.00671462 0.07328132
v 0.04504575 0.00402046 0.07556769
v 0.04269341 0.01936964 0.07754482
v 0.04801453 0.01280955 0.07640805
v 0.03962380 0.02172008 0.07750589
v 0.02953700 0.02760619 0.07744390
v 0.03962636 0.02164550 0.07667402
v 0.04543760 0.00939299 0.07195094
v 0.02947687 0.02754782 0.07686774
f 12 7 2
f 14 8 1
f 14 5 13
f 14 9 5
f 14 1 9
f 16 5 9
f 17 16 9
f 17 5 16
f 18 10 6
f 18 6 3
f 20 4 6
f 20 6 10
f 20 19 4
f 20 10 19
f 21 3 6
f 22 9 1
f 23 7 12
f 24 12 10
f 24 23 12
f 24 3 23
f 24 18 3
f 26 13 5
f 26 25 13
f 26 19 10
f 26 5 19
f 27 2 8
f 27 8 14
f 27 14 13
f 28 1 8
f 28 8 2
f 30 17 9
f 31 6 4
f 31 4 19
f 31 19 5
f 31 5 17
f 31 30 6
f 31 17 30
f 32 21 6
f 32 11 29
f 33 15 7
f 33 7 23
f 33 23 3
f 33 3 21
f 33 21 32
f 33 32 29
f 33 29 15
f 34 24 10
f 34 10 18
f 34 18 24
f 35 12 2
f 35 2 25
f 36 26 10
f 36 25 26
f 36 35 25
f 37 27 13
f 37 13 25
f 37 25 2
f 37 2 27
f 38 28 15
f 38 1 28
f 38 29 1
f 38 15 29
f 39 28 2
f 39 2 7
f 39 7 15
f 39 15 28
f 40 22 1
f 40 1 29
f 41 30 9
f 41 9 22
f 42 32 6
f 42 11 32
f 42 6 30
f 42 41 22
f 42 22 40
f 42 40 29
f 42 29 11
f 43 36 10
f 43 10 12
f 43 12 35
f 43 35 36
f 44 42 30
f 44 30 41
f 44 41 42

