# https://github.com/mikedh/trimesh
v -0.03979239 -0.00453771 0.04086301
v -0.01847321 -0.03131867 0.04073264
v -0.01855823 -0.01212137 0.00277680
v -0.02971053 -0.00458507 0.00045021
v -0.03151730 -0.01684369 0.02198955
v -0.02595270 -0.00473102 0.00301112
v -0.03760560 -0.00502058 0.04051918
v -0.03187495 -0.02125882 0.04099948
v -0.03148627 -0.00990373 0.00711728
v -0.02591096 -0.00474407 0.00000785
v -0.03183694 -0.00445452 0.00273678
v -0.01942059 -0.02868835 0.04040760
v -0.02319272 -0.02520324 0.02186087
v -0.02085118 -0.03015960 0.04091599
v -0.03772561 -0.01146985 0.04096752
v -0.01788736 -0.02300195 0.00168221
v -0.03597394 -0.00579079 0.02038409
v -0.02870072 -0.02099934 0.02479803
v -0.01909093 -0.02796817 0.02335111
v -0.02768086 -0.02552294 0.04095935
v -0.03444584 -0.01697330 0.03802672
v -0.03294288 -0.01127195 0.01462803
v -0.03913803 -0.00729097 0.04097101
v -0.01793978 -0.03008262 0.03204435
v -0.02720313 -0.01532153 0.00290452
v -0.01850934 -0.01214654 0.00000701
v -0.03163035 -0.00577105 0.00302145
v -0.03773284 -0.00450641 0.02762305
v -0.03154761 -0.01966014 0.03223506
v -0.02326191 -0.02810376 0.03659271
v -0.01781506 -0.02424982 0.00404246
v -0.02732539 -0.02385446 0.03077263
v -0.03480062 -0.01714746 0.04097505
v -0.03590124 -0.01131280 0.02920908
v -0.02055507 -0.02966366 0.03653834
v -0.02615825 -0.01428181 0.00089357
v -0.02864885 -0.01392295 0.00422672
v -0.02720531 -0.02099139 0.01898413
v -0.03023768 -0.00855032 0.00198447
v -0.03620983 -0.00451870 0.02036021
v -0.03888181 -0.00580682 0.03653253
v -0.03006775 -0.01818346 0.02053481
v -0.03294078 -0.01683659 0.02925192
v -0.03173348 -0.02113259 0.03950243
v -0.02357900 -0.02858818 0.04092335
v -0.02176535 -0.02511849 0.01746471
v -0.01788820 -0.02848440 0.02323721
v -0.02034787 -0.02231631 0.00306680
v -0.02459777 -0.02664345 0.03371666
v -0.03023890 -0.02254018 0.03803222
v -0.03731562 -0.01139363 0.03798574
v -0.03583737 -0.00856897 0.02337851
v -0.03286099 -0.01399217 0.02049705
v -0.01918713 -0.02955500 0.03213000
v -0.01795985 -0.02170498 0.00075894
v -0.03007493 -0.01128583 0.00419476
v -0.02704931 -0.01668434 0.00569337
v -0.02580757 -0.02235305 0.01896761
v -0.02914983 -0.00872315 0.00093640
v -0.02743533 -0.01413745 0.00195556
v -0.03914641 -0.00453812 0.03652603
v -0.01885961 -0.02509483 0.01010919
v -0.01909908 -0.02250795 0.00196338
v -0.01888877 -0.02365248 0.00419303
f 7 1 2
f 7 6 1
f 7 3 6
f 10 6 3
f 11 1 6
f 11 10 4
f 11 6 10
f 12 7 2
f 12 2 3
f 12 3 7
f 14 2 1
f 20 14 8
f 22 17 9
f 23 14 1
f 23 15 8
f 23 8 14
f 24 3 2
f 26 10 3
f 27 17 11
f 27 9 17
f 28 1 11
f 30 13 19
f 31 26 3
f 31 3 24
f 33 8 15
f 35 2 14
f 35 30 19
f 36 4 10
f 38 32 18
f 39 27 11
f 39 11 4
f 40 28 11
f 40 11 17
f 40 17 28
f 41 23 1
f 42 29 5
f 42 18 29
f 42 38 18
f 43 29 21
f 43 5 29
f 43 21 34
f 44 21 29
f 44 33 21
f 44 8 33
f 45 14 20
f 45 35 14
f 45 30 35
f 46 19 13
f 47 31 24
f 47 19 31
f 48 46 13
f 49 20 32
f 49 45 20
f 49 30 45
f 49 32 13
f 49 13 30
f 50 29 18
f 50 18 32
f 50 44 29
f 50 32 20
f 50 20 8
f 50 8 44
f 51 34 21
f 51 15 23
f 51 33 15
f 51 21 33
f 52 17 22
f 52 22 34
f 52 28 17
f 52 41 28
f 52 23 41
f 52 51 23
f 52 34 51
f 53 34 22
f 53 43 34
f 53 5 43
f 53 37 5
f 53 22 37
f 54 24 2
f 54 2 35
f 54 35 19
f 54 47 24
f 54 19 47
f 55 31 16
f 55 26 31
f 55 36 10
f 55 10 26
f 56 37 22
f 56 22 9
f 56 9 27
f 56 27 39
f 57 37 25
f 57 5 37
f 57 42 5
f 57 38 42
f 57 25 48
f 58 13 32
f 58 32 38
f 58 48 13
f 58 57 48
f 58 38 57
f 59 39 4
f 59 4 36
f 60 56 39
f 60 25 37
f 60 37 56
f 60 59 36
f 60 39 59
f 61 41 1
f 61 1 28
f 61 28 41
f 62 31 19
f 62 19 46
f 63 16 31
f 63 31 48
f 63 55 16
f 63 36 55
f 63 60 36
f 63 48 25
f 63 25 60
f 64 48 31
f 64 46 48
f 64 62 46
f 64 31 62

