# https://github.com/mikedh/trimesh
v -0.04724917 -0.00749126 0.07848870
v -0.02258066 -0.03800545 0.07815475
v -0.04052282 -0.00806343 0.06119052
v -0.03436394 -0.01779840 0.04079559
v -0.04070080 -0.02286112 0.07815668
v -0.02348009 -0.02632484 0.04057350
v -0.04276502 -0.00749346 0.06163987
v -0.04547258 -0.00808466 0.07821426
v -0.04339193 -0.01855537 0.07828792
v -0.02906114 -0.03403467 0.07573225
v -0.02390296 -0.03163216 0.06836312
v -0.03793402 -0.01073181 0.05253383
v -0.04636360 -0.01158932 0.07669607
v -0.04251244 -0.00822107 0.06987221
v -0.02919295 -0.03415211 0.07812422
v -0.04341976 -0.01859065 0.07680178
v -0.03306651 -0.01978916 0.04101702
v -0.02255594 -0.02920538 0.04082544
v -0.02406080 -0.03014070 0.06260987
v -0.02361222 -0.03548143 0.07794594
v -0.03141526 -0.01882221 0.04051347
v -0.04695310 -0.00742668 0.07534997
v -0.04643852 -0.01161117 0.07815164
v -0.04107927 -0.00819744 0.06401509
v -0.02492844 -0.03701828 0.07663156
v -0.03327415 -0.02982606 0.07451542
v -0.04478266 -0.01579992 0.07678032
v -0.04047235 -0.02276255 0.07584692
v -0.02218340 -0.03017356 0.04538053
v -0.02611258 -0.02679670 0.04099604
v -0.04480132 -0.01586954 0.07820150
v -0.02489471 -0.03701592 0.07792704
v -0.02242154 -0.03773286 0.07537043
v -0.02357900 -0.02858818 0.04092335
v -0.03467766 -0.02838011 0.07448029
v -0.02889363 -0.02542372 0.04551225
f 7 1 3
f 8 1 2
f 9 2 1
f 12 3 6
f 12 7 3
f 12 4 7
f 14 3 1
f 14 1 8
f 15 9 5
f 15 2 9
f 16 5 9
f 19 11 6
f 19 6 3
f 19 3 11
f 20 8 2
f 20 2 11
f 20 14 8
f 20 11 14
f 21 12 6
f 21 4 12
f 21 18 4
f 21 6 18
f 22 7 4
f 22 4 13
f 22 13 1
f 22 1 7
f 23 1 13
f 24 14 11
f 24 11 3
f 24 3 14
f 25 15 10
f 26 15 5
f 26 10 15
f 27 13 4
f 27 4 16
f 27 23 13
f 28 16 4
f 28 4 17
f 28 5 16
f 28 26 5
f 29 11 2
f 29 18 6
f 29 6 11
f 30 17 4
f 30 4 18
f 30 10 26
f 31 9 1
f 31 1 23
f 31 23 27
f 31 27 16
f 31 16 9
f 32 25 2
f 32 2 15
f 32 15 25
f 33 25 18
f 33 2 25
f 33 29 2
f 33 18 29
f 34 25 10
f 34 18 25
f 34 30 18
f 34 10 30
f 35 28 17
f 35 17 26
f 35 26 28
f 36 30 26
f 36 26 17
f 36 17 30

