# https://github.com/mikedh/trimesh
v 0.01415454 0.01011330 0.00348461
v 0.01408780 -0.01364470 0.00353101
v 0.01405545 -0.01361858 0.00005630
v -0.02591006 0.01006483 0.00002497
v -0.02593715 -0.01216293 0.00366384
v 0.01406092 0.01006458 0.00002393
v -0.01852957 0.01749649 0.00321603
v -0.01850729 -0.01362412 0.00000692
v -0.02596671 0.01009949 0.00312063
v 0.00073930 0.01746975 0.00001417
v -0.01854760 -0.01363273 0.00276965
v -0.02574456 -0.01205291 0.00008337
v -0.01850787 0.01746776 0.00002669
v 0.00075643 0.01751043 0.00318355
f 1 2 3
f 5 2 1
f 6 1 3
f 7 5 1
f 8 3 2
f 8 6 3
f 9 4 5
f 9 5 7
f 10 8 4
f 10 6 8
f 10 1 6
f 11 8 2
f 11 2 5
f 11 5 8
f 12 8 5
f 12 5 4
f 12 4 8
f 13 9 7
f 13 4 9
f 13 10 4
f 14 7 1
f 14 1 10
f 14 13 7
f 14 10 13

