# https://github.com/mikedh/trimesh
v 0.03870351 -0.00749103 0.07815918
v 0.03742383 -0.01123739 0.07793876
v 0.02405222 -0.01151750 0.02184524
v 0.02287978 -0.00646802 0.02109180
v 0.01818608 -0.03528217 0.07803490
v 0.02983355 -0.00176600 0.04081701
v 0.03748235 -0.01135191 0.07662182
v 0.03155229 -0.02282010 0.07789446
v 0.01504956 -0.02488398 0.02160596
v 0.02577073 -0.00595132 0.02337480
v 0.02957544 -0.00181761 0.05246468
v 0.02269490 -0.01569273 0.02333958
v 0.01490889 -0.03170867 0.05868493
v 0.01711947 -0.01934227 0.02113320
v 0.02445873 -0.03120584 0.07559955
v 0.03786379 -0.00720337 0.07447898
v 0.02524685 -0.00611765 0.02166770
v 0.02554470 -0.00739427 0.02343369
v 0.03217617 -0.00818759 0.07219945
v 0.03171681 -0.00177089 0.05258224
v 0.02779924 -0.00178934 0.04065449
v 0.03151803 -0.02285103 0.07566398
v 0.01982670 -0.01985920 0.02192469
v 0.01475168 -0.02731666 0.03204066
v 0.01674933 -0.02860806 0.06111194
v 0.02587533 -0.03000293 0.07778480
v 0.03072404 -0.00811839 0.06843079
v 0.03633684 -0.00825265 0.07781715
v 0.03040205 -0.00172172 0.04393591
v 0.03584175 -0.01425901 0.07573787
v 0.02115866 -0.01845523 0.02342197
v 0.02879920 -0.02713517 0.07663495
v 0.01790291 -0.03479981 0.07395007
v 0.01481189 -0.02603870 0.02612473
v 0.01513960 -0.03212752 0.06163422
v 0.02463674 -0.03142982 0.07726806
v 0.01954996 -0.03284052 0.07786807
v 0.03499871 -0.00816029 0.07630545
v 0.01587703 -0.02419428 0.02179493
v 0.02883570 -0.02709008 0.07720184
v 0.02037487 -0.03422085 0.07558552
v 0.02047224 -0.03419175 0.07786138
v 0.02726232 -0.02849777 0.07573288
v 0.01832950 -0.02255239 0.02484502
f 7 1 2
f 8 2 1
f 8 1 5
f 8 7 2
f 12 3 7
f 14 4 3
f 14 13 4
f 16 10 6
f 16 6 1
f 16 1 10
f 17 3 4
f 17 6 10
f 18 7 3
f 18 17 10
f 18 3 17
f 18 10 1
f 18 1 7
f 20 11 1
f 21 17 4
f 21 6 17
f 22 7 8
f 23 3 12
f 23 14 3
f 23 9 14
f 25 11 21
f 25 21 4
f 25 4 13
f 26 8 5
f 27 19 11
f 27 25 5
f 27 11 25
f 28 5 1
f 29 20 1
f 29 1 6
f 29 6 21
f 29 21 11
f 29 11 20
f 30 22 12
f 30 12 7
f 30 7 22
f 31 23 12
f 31 12 22
f 31 22 23
f 32 23 22
f 33 13 24
f 34 14 9
f 34 24 13
f 34 13 14
f 35 25 13
f 35 5 25
f 35 33 5
f 35 13 33
f 37 27 5
f 37 19 27
f 37 5 28
f 38 28 1
f 38 1 11
f 38 11 19
f 38 37 28
f 38 19 37
f 39 15 9
f 39 9 23
f 40 8 26
f 40 36 32
f 40 26 36
f 40 32 22
f 40 22 8
f 41 33 24
f 41 24 34
f 41 15 36
f 41 5 33
f 41 34 9
f 41 9 15
f 42 36 26
f 42 26 5
f 42 41 36
f 42 5 41
f 43 36 15
f 43 32 36
f 43 15 39
f 44 39 23
f 44 23 32
f 44 43 39
f 44 32 43

