# https://github.com/mikedh/trimesh
v 0.02468032 0.03075918 0.07793430
v 0.02666005 0.02564414 0.07681281
v 0.01323350 0.02374571 0.02175376
v -0.00226948 0.03047543 0.02154519
v -0.00356243 0.03824151 0.07136559
v 0.01446368 0.01937024 0.02128820
v 0.00901430 0.03947965 0.07673239
v 0.02342537 0.02400781 0.05881637
v 0.01355490 0.02005893 0.02099853
v -0.00191398 0.02766229 0.02108278
v 0.02600359 0.02346742 0.07178073
v 0.01614278 0.03636291 0.07677406
v 0.00585616 0.02893639 0.02496275
v -0.00373922 0.04046311 0.07211970
v 0.00573395 0.03833039 0.07816033
v 0.02505572 0.02820703 0.07240023
v 0.01505753 0.01994882 0.02402542
v 0.00718869 0.02738715 0.02182201
v -0.00366443 0.03572738 0.06135209
v 0.02661761 0.02392477 0.07452929
v 0.00900303 0.03940768 0.07798186
v 0.02473417 0.03075405 0.07678920
v 0.00305326 0.03035836 0.02633689
v -0.00245294 0.03221540 0.02919582
v 0.02646396 0.02711141 0.07796705
v 0.00313498 0.02922587 0.02186114
v 0.01004919 0.02589068 0.02197378
v -0.00245568 0.03090945 0.02329755
v -0.00378954 0.03960352 0.06924682
v -0.00348667 0.03697074 0.06691906
v 0.01616523 0.03641584 0.07754505
v 0.02040327 0.03380249 0.07815548
v 0.00499882 0.04050666 0.07824097
v -0.00110529 0.03199588 0.02921439
v 0.00035292 0.03044336 0.02341277
v 0.02027396 0.03352119 0.07559368
v -0.00380727 0.03810542 0.06332249
v 0.01281884 0.02453541 0.02346400
f 9 3 6
f 10 9 6
f 10 4 9
f 11 6 8
f 13 7 12
f 15 5 2
f 15 14 5
f 16 2 8
f 16 8 3
f 17 8 6
f 17 6 3
f 17 3 8
f 18 9 4
f 18 3 9
f 19 10 6
f 19 6 11
f 20 2 5
f 20 5 11
f 20 11 8
f 20 8 2
f 22 16 3
f 23 7 13
f 25 15 2
f 25 22 1
f 25 2 16
f 25 16 22
f 26 18 4
f 26 13 18
f 26 23 13
f 27 18 13
f 27 13 12
f 27 3 18
f 28 4 10
f 28 10 19
f 28 14 24
f 29 19 5
f 29 5 14
f 30 19 11
f 30 11 5
f 30 5 19
f 31 12 7
f 31 7 21
f 32 31 21
f 32 1 22
f 32 12 31
f 32 25 1
f 33 21 7
f 33 14 15
f 33 32 21
f 33 15 25
f 33 25 32
f 33 24 14
f 34 28 24
f 34 33 7
f 34 24 33
f 35 26 4
f 35 23 26
f 35 4 28
f 35 28 34
f 35 34 7
f 35 7 23
f 36 27 12
f 36 32 22
f 36 12 32
f 37 28 19
f 37 19 29
f 37 29 14
f 37 14 28
f 38 36 22
f 38 22 3
f 38 3 27
f 38 27 36

