# https://github.com/mikedh/trimesh
v 0.04294209 0.00164655 0.07840549
v 0.04241940 0.00040276 0.07817306
v 0.03095375 -0.00753511 0.05267841
v 0.02827593 0.00884649 0.05241941
v 0.03147453 0.01098821 0.06823209
v 0.03143033 0.00674400 0.05298686
v 0.04294690 0.00177033 0.07522652
v 0.03690780 -0.00792865 0.07814204
v 0.03044054 -0.00795761 0.06705778
v 0.03098247 0.00833921 0.05276161
v 0.04194938 -0.00074896 0.07689163
v 0.03163223 -0.00312486 0.05278048
v 0.04018246 0.01017792 0.07246706
v 0.03911497 -0.00711170 0.07792305
v 0.03923834 0.00054464 0.07777880
v 0.02947529 0.01026890 0.06131240
v 0.02860954 -0.00796242 0.05241735
v 0.03322847 -0.00803030 0.07387088
v 0.03787682 0.01017247 0.06743558
v 0.03891000 -0.00702875 0.07579314
v 0.03840258 0.01096754 0.07183944
v 0.03005877 0.01062872 0.06405778
v 0.02892506 -0.00804569 0.05537421
v 0.03168967 -0.00805351 0.07121618
v 0.03398214 0.00986125 0.06188241
v 0.04007821 0.00354966 0.07692278
f 11 7 1
f 11 1 2
f 12 7 3
f 12 6 7
f 12 10 6
f 12 3 4
f 12 4 10
f 13 1 7
f 14 2 1
f 14 1 8
f 14 11 2
f 14 7 11
f 15 8 1
f 15 5 8
f 16 4 9
f 17 4 3
f 17 3 8
f 18 8 5
f 19 13 7
f 19 7 6
f 19 6 10
f 20 14 8
f 20 8 3
f 20 3 7
f 20 7 14
f 21 13 19
f 21 1 13
f 22 16 9
f 22 21 16
f 22 5 21
f 23 9 4
f 23 4 17
f 23 17 8
f 23 8 18
f 24 18 5
f 24 23 18
f 24 9 23
f 24 22 9
f 24 5 22
f 25 19 10
f 25 10 4
f 25 21 19
f 25 4 16
f 25 16 21
f 26 21 5
f 26 5 15
f 26 15 1
f 26 1 21

