# https://github.com/mikedh/trimesh
v 0.00091408 -0.03990840 0.07791332
v 0.00046501 -0.04189205 0.07791136
v 0.00062637 -0.02904262 0.01129666
v -0.01869786 -0.02285379 0.01099576
v -0.02361222 -0.03548143 0.07794594
v 0.00098364 -0.02655115 0.01084526
v 0.00048138 -0.04163916 0.07552191
v -0.01227519 -0.04161538 0.07795597
v -0.02367562 -0.02810271 0.05092468
v 0.00100742 -0.02687658 0.01226992
v -0.01624103 -0.02401784 0.01070844
v -0.00505607 -0.04147161 0.07425872
v -0.01804914 -0.02586370 0.01140808
v -0.02361193 -0.03109612 0.06560245
v -0.02363855 -0.02648849 0.04202375
v 0.00105811 -0.03584490 0.06412957
v -0.01364180 -0.04150558 0.07670320
v -0.00228032 -0.02967646 0.01294585
v -0.01203249 -0.02814296 0.01154312
v -0.02369371 -0.03269653 0.07136629
v -0.02348009 -0.02632484 0.04057350
v -0.02209984 -0.03851281 0.07681045
v 0.00100373 -0.03895811 0.07570283
v -0.00372844 -0.04145202 0.07416569
v -0.00648618 -0.02964439 0.01295865
v -0.01485200 -0.02946729 0.02185290
v -0.01796859 -0.04018662 0.07793386
v -0.02193315 -0.02958460 0.04101342
v 0.00097239 -0.03746956 0.07126960
v -0.01224705 -0.04139109 0.07561599
v -0.01339321 -0.02806016 0.01303187
v -0.01787034 -0.03985027 0.07563151
v -0.01778692 -0.02667786 0.01443654
v -0.01367165 -0.04156374 0.07753775
v -0.02206748 -0.03844509 0.07793390
v -0.01629408 -0.02662242 0.01157142
f 7 1 2
f 7 3 1
f 8 2 1
f 8 1 5
f 10 3 6
f 11 6 3
f 11 4 6
f 12 7 2
f 13 4 11
f 15 6 4
f 15 5 9
f 16 15 9
f 16 6 15
f 16 10 6
f 16 9 14
f 17 12 2
f 18 3 7
f 19 13 11
f 19 11 3
f 20 14 9
f 20 9 5
f 21 15 4
f 21 4 13
f 22 5 15
f 23 10 16
f 23 1 3
f 23 3 10
f 23 20 5
f 23 5 1
f 24 18 7
f 24 7 12
f 24 12 18
f 25 18 12
f 25 17 19
f 25 19 3
f 25 3 18
f 28 21 13
f 28 13 22
f 28 22 15
f 28 15 21
f 29 23 16
f 29 16 14
f 29 14 20
f 29 20 23
f 30 25 12
f 30 12 17
f 30 17 25
f 31 19 17
f 31 17 26
f 32 26 17
f 32 22 26
f 32 27 22
f 32 17 27
f 33 26 22
f 33 22 13
f 34 27 17
f 34 8 27
f 34 17 2
f 34 2 8
f 35 27 8
f 35 8 5
f 35 5 22
f 35 22 27
f 36 13 19
f 36 19 31
f 36 33 13
f 36 31 26
f 36 26 33

