# https://github.com/mikedh/trimesh
v -0.03671560 0.01167095 0.04063405
v -0.02595270 -0.00473102 0.00301112
v -0.02596671 0.01009949 0.00312063
v -0.02953821 0.00981042 0.00060039
v -0.03755213 -0.00447820 0.02611178
v -0.02591006 0.01006483 0.00002497
v -0.03760560 -0.00502058 0.04051918
v -0.03740879 0.00817824 0.02621901
v -0.03183694 -0.00445452 0.00273678
v -0.03329421 0.01209696 0.02263506
v -0.03929705 0.00976545 0.04092384
v -0.03588187 -0.00447142 0.01895773
v -0.02591096 -0.00474407 0.00000785
v -0.03295453 0.00537467 0.00565527
v -0.03629833 0.01196404 0.03895736
v -0.03296609 0.01203791 0.02118797
v -0.03585189 0.01093766 0.02185053
v -0.03979239 -0.00453771 0.04086301
v -0.03041850 -0.00436375 0.00089488
v -0.03144383 0.00678804 0.00186655
v -0.03599098 -0.00157475 0.01739930
v -0.03889965 0.01146219 0.04077325
v -0.03595513 0.00828497 0.01883691
v -0.03138942 0.00951849 0.00291056
v -0.03904151 0.00406396 0.03357082
v -0.03159620 -0.00298936 0.00181248
v -0.03056448 0.00688912 0.00086867
v -0.03294351 -0.00292732 0.00563726
v -0.03756452 -0.00320275 0.02484873
v -0.03745735 0.01103072 0.03061493
v -0.03600415 0.00547801 0.01739372
v -0.03444853 0.00816983 0.01308012
v -0.03903645 0.00686393 0.03508461
v -0.03302109 -0.00442976 0.00711976
v -0.03892308 -0.00450919 0.03508035
v -0.03897639 -0.00173451 0.03359566
v -0.03890079 0.00968195 0.03801876
v -0.03753580 0.00546928 0.02477769
f 1 2 3
f 6 3 2
f 7 2 1
f 12 9 7
f 12 7 5
f 13 2 7
f 13 7 9
f 13 6 2
f 13 4 6
f 15 1 3
f 15 3 10
f 16 10 3
f 16 3 6
f 16 6 4
f 17 10 16
f 18 7 1
f 18 1 11
f 18 5 7
f 19 13 9
f 19 4 13
f 22 11 1
f 22 1 15
f 22 15 10
f 22 10 17
f 23 8 17
f 24 17 16
f 24 16 4
f 24 4 20
f 24 23 17
f 24 20 14
f 25 18 11
f 26 14 20
f 26 19 9
f 27 20 4
f 27 4 19
f 27 26 20
f 27 19 26
f 28 26 9
f 28 14 26
f 29 12 5
f 29 21 28
f 30 22 17
f 30 17 8
f 31 23 14
f 31 21 29
f 31 28 21
f 31 14 28
f 32 24 14
f 32 14 23
f 32 23 24
f 33 25 11
f 34 28 9
f 34 9 12
f 34 29 28
f 34 12 29
f 35 29 5
f 35 5 18
f 35 18 29
f 36 29 18
f 36 18 25
f 36 25 29
f 37 30 8
f 37 11 22
f 37 22 30
f 37 33 11
f 37 8 33
f 38 31 29
f 38 29 25
f 38 8 23
f 38 23 31
f 38 33 8
f 38 25 33

