# https://github.com/mikedh/trimesh
v -0.02275650 0.03913783 0.07821241
v -0.02365327 0.03690450 0.07815870
v -0.02233700 0.03104462 0.04098054
v -0.02723875 0.02030414 0.02102241
v -0.04647235 0.01543601 0.07672309
v -0.03943353 0.00109602 0.04786973
v -0.02252799 0.03845488 0.07387154
v -0.04649807 0.00878754 0.07834895
v -0.03910752 0.02791834 0.07557274
v -0.02374451 0.03130773 0.05662085
v -0.03830637 0.00117011 0.04063457
v -0.04210201 0.02385442 0.07817050
v -0.04015825 0.00116341 0.05239822
v -0.02884820 0.02325455 0.02492730
v -0.03075828 0.03497423 0.07543439
v -0.02233961 0.03236891 0.04694530
v -0.02391608 0.02795932 0.04038275
v -0.02381205 0.03558559 0.07419697
v -0.04793695 0.00829436 0.07548956
v -0.04782670 0.01116486 0.07807879
v -0.02513639 0.02525366 0.02183858
v -0.03440771 0.01651596 0.02632152
v -0.02510362 0.03811059 0.07539873
v -0.03491253 0.03207541 0.07552104
v -0.04055688 0.00114544 0.04245856
v -0.04836308 0.00842369 0.07815883
v -0.04639680 0.01532987 0.07816654
v -0.03566510 0.01130923 0.02159758
v -0.04201130 0.02383420 0.07556735
v -0.03159672 0.01915804 0.02191504
v -0.03077187 0.03516577 0.07798770
v -0.02609905 0.02462829 0.02202855
v -0.04223347 0.00121780 0.05282932
v -0.04782636 0.01104753 0.07668022
v -0.03469711 0.01379981 0.02179590
v -0.04029541 0.00117176 0.04078743
v -0.03296609 0.01203791 0.02118797
v -0.04052240 0.02658885 0.07657271
v -0.04495040 0.01824882 0.07550665
v -0.03019488 0.02192762 0.02494330
v -0.03195109 0.01391187 0.02100725
v -0.02524086 0.03814972 0.07811328
v -0.03494054 0.03215422 0.07803509
v -0.04200859 0.00122249 0.05130733
v -0.03597384 0.01238558 0.02482439
v -0.03290109 0.01777506 0.02337449
v -0.03926314 0.02800554 0.07790351
v -0.04053084 0.02659048 0.07735931
f 7 1 2
f 8 2 1
f 10 7 2
f 11 2 6
f 12 8 1
f 13 6 2
f 13 2 8
f 16 10 3
f 16 3 7
f 16 7 10
f 17 11 4
f 17 4 3
f 17 3 10
f 17 10 11
f 18 11 10
f 18 10 2
f 18 2 11
f 21 3 4
f 23 1 7
f 23 7 3
f 23 21 15
f 23 3 21
f 25 11 6
f 26 13 8
f 27 12 5
f 27 5 20
f 27 20 26
f 27 26 8
f 27 8 12
f 30 21 4
f 31 23 15
f 31 15 24
f 32 14 24
f 32 30 14
f 32 21 30
f 32 24 15
f 32 15 21
f 33 25 6
f 33 6 13
f 33 13 26
f 33 26 19
f 34 26 20
f 34 19 26
f 34 28 19
f 34 20 5
f 34 5 28
f 35 30 28
f 36 19 28
f 36 28 11
f 36 11 25
f 37 4 11
f 37 11 28
f 38 29 12
f 39 29 22
f 39 5 12
f 39 12 29
f 39 35 5
f 39 22 35
f 40 14 30
f 40 24 14
f 40 9 24
f 40 38 9
f 40 30 38
f 41 30 4
f 41 28 30
f 41 37 28
f 41 4 37
f 42 1 23
f 42 23 31
f 43 12 1
f 43 42 31
f 43 1 42
f 43 31 24
f 44 33 19
f 44 25 33
f 44 36 25
f 44 19 36
f 45 35 28
f 45 28 5
f 45 5 35
f 46 35 22
f 46 30 35
f 46 38 30
f 46 22 29
f 46 29 38
f 47 24 9
f 47 9 38
f 47 43 24
f 47 12 43
f 48 47 38
f 48 38 12
f 48 12 47

