# https://github.com/mikedh/trimesh
v -0.00706912 0.03621937 0.02633601
v -0.00711037 0.01064751 0.00421319
v -0.00706058 0.02048547 0.00053725
v -0.01665907 0.01469431 0.00067772
v -0.03140017 0.01606885 0.01773936
v -0.00714294 0.01069335 0.00115456
v -0.02081906 0.02950521 0.01831412
v -0.00682912 0.02202589 0.00210195
v -0.02406032 0.02422113 0.02633164
v -0.01721884 0.01067505 0.00053174
v -0.01220583 0.01888198 0.00071897
v -0.02872660 0.02130959 0.01800564
v -0.00688463 0.03519498 0.01818397
v -0.00717346 0.03335885 0.02632754
v -0.02200890 0.02972398 0.02631251
v -0.00716204 0.01634901 0.00065353
v -0.01709513 0.01059520 0.00398169
v -0.01618547 0.01634819 0.00142682
v -0.01017253 0.02004346 0.00071795
v -0.03111031 0.01704309 0.01794054
v -0.01647012 0.03274669 0.02000920
v -0.01112286 0.03516038 0.02636731
v -0.02291341 0.02848539 0.01914639
v -0.01503655 0.01072203 0.00062302
v -0.03091849 0.01584902 0.01722075
v -0.01400168 0.01833143 0.00145636
v -0.00784708 0.03506497 0.01830985
v -0.02089207 0.02861922 0.01734717
v -0.02313984 0.02882144 0.02631389
v -0.01448042 0.03286851 0.01822764
v -0.01878883 0.03191674 0.02633544
v -0.02530045 0.02333198 0.01653122
v -0.01861927 0.03160331 0.02003792
v -0.01010981 0.03507977 0.01995460
v -0.02191926 0.02952556 0.01996933
v -0.01234481 0.03303562 0.01748450
v -0.01664495 0.03297264 0.02633138
v -0.01118411 0.03507702 0.02299710
v -0.00900240 0.03407117 0.01748057
f 8 6 3
f 8 2 6
f 9 5 2
f 10 4 3
f 10 5 4
f 11 3 4
f 13 1 2
f 13 2 8
f 14 9 2
f 14 2 1
f 16 10 3
f 16 3 6
f 17 10 6
f 17 6 2
f 18 11 4
f 18 4 12
f 19 8 3
f 19 3 11
f 20 12 4
f 20 4 5
f 20 5 9
f 22 14 1
f 22 9 14
f 24 16 6
f 24 6 10
f 24 10 16
f 25 17 2
f 25 2 5
f 25 5 10
f 25 10 17
f 26 11 18
f 27 13 8
f 27 8 19
f 28 19 11
f 28 7 19
f 28 11 26
f 28 23 7
f 28 26 18
f 29 12 20
f 29 23 12
f 29 20 9
f 30 19 7
f 30 7 21
f 31 15 29
f 31 29 9
f 31 9 22
f 32 18 12
f 32 12 23
f 32 28 18
f 32 23 28
f 33 21 7
f 33 31 21
f 34 1 13
f 34 13 27
f 34 30 21
f 34 27 30
f 35 29 15
f 35 23 29
f 35 15 31
f 35 31 33
f 35 33 7
f 35 7 23
f 36 30 27
f 36 19 30
f 37 31 22
f 37 21 31
f 38 34 21
f 38 22 1
f 38 1 34
f 38 37 22
f 38 21 37
f 39 36 27
f 39 27 19
f 39 19 36

