# https://github.com/mikedh/trimesh
v 0.02324257 0.02630222 0.06580859
v 0.02587696 0.02004347 0.06535727
v 0.02462025 0.02775037 0.02632703
v 0.00740240 0.03614917 0.02633531
v 0.00769741 0.03190945 0.06587946
v 0.02594951 0.02230544 0.02858255
v 0.01578400 0.03281444 0.05090550
v 0.02424475 0.02627273 0.06092781
v 0.02574107 0.02105587 0.06602355
v 0.02540887 0.02298876 0.02633308
v 0.00753761 0.03343055 0.02632516
v 0.01472630 0.03395386 0.02637369
v 0.01257612 0.03280571 0.06529670
v 0.02006530 0.02944752 0.06205697
v 0.01471033 0.03173714 0.06581743
v 0.02436682 0.02531630 0.06575503
v 0.02430569 0.02741781 0.04865875
v 0.02597504 0.01996866 0.05886737
v 0.00723477 0.03411276 0.06584556
v 0.00886228 0.03313368 0.02631037
v 0.01896866 0.03175301 0.03304593
v 0.01906028 0.03178699 0.02632866
v 0.01037722 0.03506626 0.04756669
v 0.02108505 0.02839533 0.06512703
v 0.02210040 0.02727969 0.06583938
v 0.01683379 0.03164029 0.05867040
v 0.00781604 0.03219111 0.05333231
v 0.00722310 0.03529354 0.05649890
v 0.00822753 0.03396886 0.06575010
v 0.01468018 0.03395592 0.03526788
v 0.02224279 0.02953694 0.03861915
v 0.01150508 0.03508888 0.02635964
v 0.01258407 0.03391413 0.05423831
v 0.02113059 0.02952512 0.05536254
v 0.01796376 0.03057030 0.06316288
v 0.01898292 0.02947674 0.06582244
v 0.00935594 0.03507592 0.05313890
v 0.01032038 0.03391368 0.06201739
v 0.01685795 0.03281905 0.03750824
v 0.02323826 0.02848835 0.04644812
v 0.02231950 0.02965193 0.02632433
v 0.01154131 0.03507999 0.03414471
v 0.01363951 0.03393162 0.04755981
v 0.01465921 0.03282302 0.05756361
v 0.01792600 0.03166522 0.05201328
v 0.02209255 0.02847302 0.05864946
v 0.01902667 0.03056122 0.05755500
v 0.01578866 0.03166270 0.06320428
v 0.00829660 0.03506949 0.05648111
v 0.01142423 0.03390439 0.05867095
v 0.02012154 0.03061497 0.04868860
v 0.01364606 0.03278182 0.06204264
f 9 5 2
f 9 6 3
f 10 3 6
f 11 10 6
f 16 9 8
f 16 1 9
f 17 9 3
f 17 8 9
f 18 9 2
f 18 6 9
f 18 11 6
f 18 2 5
f 19 11 5
f 19 5 9
f 19 9 15
f 20 11 4
f 20 3 10
f 20 10 11
f 22 20 4
f 24 16 8
f 24 1 16
f 25 9 1
f 25 1 24
f 27 18 5
f 27 5 11
f 27 11 18
f 28 4 11
f 28 11 19
f 29 19 15
f 29 15 13
f 29 28 19
f 30 22 12
f 31 22 21
f 32 22 4
f 32 12 22
f 34 14 24
f 35 24 14
f 36 15 9
f 36 9 25
f 36 25 24
f 36 35 15
f 36 24 35
f 37 23 4
f 37 4 28
f 37 33 23
f 38 29 13
f 39 30 7
f 39 21 22
f 39 22 30
f 40 17 3
f 40 3 31
f 41 31 3
f 41 22 31
f 41 3 20
f 41 20 22
f 42 30 12
f 42 12 32
f 42 23 30
f 42 32 4
f 42 4 23
f 43 30 23
f 43 23 33
f 43 33 7
f 43 7 30
f 44 7 33
f 45 44 26
f 45 7 44
f 45 39 7
f 46 34 24
f 46 24 8
f 46 8 17
f 46 40 34
f 46 17 40
f 47 35 14
f 47 14 34
f 47 34 45
f 47 45 26
f 47 26 35
f 48 13 15
f 48 15 35
f 48 35 26
f 48 26 44
f 49 28 29
f 49 29 38
f 49 38 37
f 49 37 28
f 50 38 13
f 50 33 37
f 50 37 38
f 51 40 31
f 51 34 40
f 51 45 34
f 51 31 21
f 51 21 39
f 51 39 45
f 52 48 44
f 52 13 48
f 52 50 13
f 52 44 33
f 52 33 50

