# https://github.com/mikedh/trimesh
v 0.01876433 -0.02872777 0.02633124
v 0.01815410 -0.03220179 0.02634606
v 0.01374587 -0.01691082 0.00041839
v -0.00712720 -0.01741986 0.00018368
v -0.00718740 -0.03347738 0.02632519
v 0.01799585 -0.01786683 0.01017283
v -0.00577061 -0.03641122 0.02635100
v -0.00593658 -0.01725945 0.00388906
v 0.01916885 -0.02595969 0.01770804
v 0.01690100 -0.03286118 0.02635829
v -0.00691455 -0.03531386 0.01797801
v 0.01699704 -0.01672404 0.00349595
v -0.00710157 -0.01735385 0.00379645
v 0.01823627 -0.03115508 0.01777649
v -0.00705896 -0.03616327 0.02633715
v 0.00288206 -0.02273893 0.00246692
v 0.00504008 -0.03626949 0.01976344
v 0.01794587 -0.03174914 0.01883844
v -0.00468188 -0.03627923 0.01981023
v -0.00558158 -0.02075140 0.00054904
v 0.00818340 -0.02075110 0.00075718
v 0.00616660 -0.03644365 0.02634950
v 0.00618190 -0.03509985 0.01717376
v 0.01687330 -0.03280927 0.02415820
v -0.00576751 -0.03627793 0.02189840
v -0.00465984 -0.03515401 0.01715184
v -0.00683803 -0.02014418 0.00044087
v 0.01226571 -0.01852638 0.00073194
v 0.00714433 -0.02159809 0.00148504
v 0.01371687 -0.03288846 0.01705864
v 0.01041424 -0.03508799 0.01974402
v -0.00242919 -0.02270027 0.00245495
v -0.00362902 -0.03618002 0.01885596
v 0.01332239 -0.01751174 0.00058148
v 0.01689412 -0.03070781 0.01630959
v 0.01041288 -0.03414005 0.01715162
v 0.01578603 -0.03283762 0.01881282
v 0.00828618 -0.03511586 0.01789846
v 0.00616630 -0.03628636 0.02193933
v 0.01049736 -0.03538338 0.02634790
v -0.00450983 -0.02165304 0.00140607
v 0.00394767 -0.03618231 0.01890171
v 0.01016377 -0.02050819 0.00155350
v 0.01363455 -0.03396369 0.01979520
v 0.01253657 -0.03388433 0.01803813
f 7 1 5
f 8 3 4
f 9 6 1
f 9 1 2
f 10 2 1
f 10 1 7
f 11 5 4
f 12 8 6
f 12 3 8
f 12 6 9
f 13 8 4
f 13 4 5
f 13 5 1
f 13 1 6
f 13 6 8
f 14 9 2
f 14 12 9
f 14 3 12
f 15 7 5
f 15 5 11
f 18 14 2
f 22 10 7
f 22 19 17
f 22 7 19
f 24 18 2
f 24 2 10
f 25 15 11
f 25 11 19
f 25 19 7
f 25 7 15
f 26 11 20
f 26 16 23
f 27 20 11
f 27 11 4
f 27 4 3
f 27 21 20
f 27 3 21
f 28 21 3
f 29 16 20
f 29 20 21
f 29 23 16
f 29 21 23
f 32 16 26
f 33 19 11
f 33 11 26
f 34 28 3
f 34 3 14
f 34 14 28
f 35 28 14
f 35 30 21
f 35 14 30
f 36 23 21
f 36 21 30
f 37 30 14
f 37 14 18
f 37 18 24
f 38 31 17
f 38 23 36
f 39 22 17
f 39 17 31
f 40 10 22
f 40 39 31
f 40 22 39
f 41 32 26
f 41 26 20
f 41 20 16
f 41 16 32
f 42 33 26
f 42 26 23
f 42 17 19
f 42 19 33
f 42 38 17
f 42 23 38
f 43 35 21
f 43 21 28
f 43 28 35
f 44 37 24
f 44 40 31
f 44 24 10
f 44 10 40
f 45 36 30
f 45 30 37
f 45 37 44
f 45 44 31
f 45 38 36
f 45 31 38

