# https://github.com/mikedh/trimesh
v -0.02679259 0.01775270 0.06603501
v -0.03148408 -0.00964769 0.06565438
v -0.03269399 -0.00983206 0.02633196
v -0.03663923 0.00053795 0.02300964
v -0.03372802 0.00699096 0.06428463
v -0.03492937 -0.00929617 0.05200360
v -0.02897556 0.01770639 0.02634233
v -0.03170771 -0.00981399 0.04992424
v -0.03376872 0.00486324 0.06584933
v -0.03571898 -0.00939619 0.02633578
v -0.02694409 0.01790422 0.05554273
v -0.03355498 -0.00629705 0.02291610
v -0.03262291 0.01667422 0.03524075
v -0.03044737 0.01551666 0.06582899
v -0.03385044 -0.00815208 0.06515342
v -0.03612229 0.00046038 0.04531956
v -0.03402570 0.00056266 0.02296901
v -0.03626758 -0.00602027 0.02301536
v -0.03277878 0.01678606 0.02633384
v -0.02963572 0.01680660 0.06595476
v -0.03259379 0.01021851 0.06585011
v -0.03382460 -0.00927879 0.06426742
v -0.03319845 -0.00931975 0.06561045
v -0.03499012 0.00159920 0.05871143
v -0.03502628 -0.00387815 0.05872568
v -0.03606723 0.00591562 0.03191174
v -0.03402239 -0.00287341 0.02288971
v -0.03613666 -0.00385755 0.04308256
v -0.03150518 0.01658428 0.05200634
v -0.03139873 0.01342750 0.06589771
v -0.03374223 0.01123834 0.05311294
v -0.03395006 -0.00598727 0.06555793
v -0.03492389 0.00593327 0.05423130
v -0.03495291 -0.00816384 0.05422602
v -0.03609113 0.00480696 0.03748639
v -0.03614739 0.00593763 0.02632653
v -0.03378355 0.01463904 0.02745144
v -0.03614230 -0.00161495 0.04531096
v -0.03619778 -0.00708112 0.02633655
v -0.03033039 0.01658689 0.06317691
v -0.03256187 0.01127605 0.06427443
v -0.03262516 0.01448713 0.05088652
v -0.03370015 0.00914335 0.05980223
v -0.03608320 -0.00598008 0.03974281
v -0.03612488 0.00268932 0.04195570
v -0.03492466 0.00924798 0.04308572
v -0.03378519 0.01463964 0.02633088
v -0.03492820 0.01034093 0.03637499
v -0.03375599 0.01353597 0.03971225
v -0.03258689 0.01349241 0.05644300
v -0.03260452 0.01559201 0.04414985
v -0.03488604 0.00701342 0.05200502
v -0.03608287 -0.00708059 0.03413912
v -0.03373707 0.01237487 0.04753920
v -0.03151539 0.01556873 0.05755867
f 8 1 2
f 8 2 6
f 9 2 1
f 10 8 6
f 10 3 8
f 11 3 7
f 11 8 3
f 11 1 8
f 12 7 3
f 13 1 11
f 17 4 7
f 17 7 12
f 18 12 3
f 18 3 10
f 19 13 11
f 19 11 7
f 19 7 4
f 20 9 1
f 21 5 9
f 22 6 2
f 23 2 9
f 23 22 2
f 23 15 22
f 24 9 5
f 25 22 15
f 27 17 12
f 27 4 17
f 27 18 4
f 27 12 18
f 29 20 1
f 29 1 13
f 30 20 14
f 30 21 9
f 30 9 20
f 32 23 9
f 32 15 23
f 32 25 15
f 32 9 24
f 32 24 25
f 33 24 5
f 33 16 24
f 34 6 22
f 34 22 25
f 34 25 28
f 36 35 26
f 36 4 35
f 37 13 19
f 38 16 4
f 38 4 28
f 38 28 25
f 38 25 24
f 38 24 16
f 39 4 18
f 39 18 10
f 40 14 20
f 40 20 29
f 40 30 14
f 41 5 21
f 41 21 30
f 43 33 5
f 43 41 31
f 43 5 41
f 44 34 28
f 44 6 34
f 44 28 4
f 44 4 39
f 45 35 4
f 45 4 16
f 45 16 33
f 45 33 35
f 46 26 35
f 47 19 4
f 47 4 36
f 47 37 19
f 47 36 37
f 48 37 36
f 48 36 26
f 48 26 46
f 49 13 37
f 49 37 48
f 50 41 30
f 50 31 41
f 51 42 29
f 51 29 13
f 51 13 49
f 52 43 31
f 52 33 43
f 52 31 46
f 52 46 35
f 52 35 33
f 53 44 39
f 53 39 10
f 53 10 6
f 53 6 44
f 54 51 49
f 54 42 51
f 54 50 42
f 54 31 50
f 54 46 31
f 54 49 48
f 54 48 46
f 55 40 29
f 55 29 42
f 55 42 50
f 55 50 30
f 55 30 40

