# https://github.com/mikedh/trimesh
v 0.00638699 -0.03327915 0.06548093
v 0.00718886 -0.03502717 0.06492180
v 0.00753766 -0.03341992 0.02632765
v -0.02793027 -0.02260746 0.01775108
v -0.02641250 -0.02343141 0.06544598
v -0.01119296 -0.03507784 0.02525102
v -0.02086850 -0.02325786 0.01695437
v 0.00759709 -0.03256489 0.06508460
v -0.00806481 -0.03441158 0.06544062
v 0.00718173 -0.03624276 0.02634981
v -0.02185461 -0.02951602 0.05200408
v -0.02768336 -0.02241916 0.06433241
v -0.00792378 -0.03511523 0.01798403
v 0.00631192 -0.03403094 0.06552837
v -0.02680020 -0.02260550 0.06555016
v -0.00469430 -0.03625866 0.05316041
v 0.00722828 -0.03626447 0.04424033
v -0.02187356 -0.02955956 0.02196348
v -0.01980276 -0.02962847 0.06503024
v -0.01328357 -0.03395025 0.05538262
v -0.02869195 -0.02241068 0.01877863
v -0.02076218 -0.02944570 0.01801328
v -0.00723441 -0.03029333 0.01671035
v 0.00518173 -0.03488925 0.06542670
v -0.02083593 -0.02863448 0.06542710
v -0.01229552 -0.03302559 0.06547794
v -0.00577061 -0.03641122 0.02635100
v 0.00291471 -0.03633955 0.05651447
v 0.00769487 -0.03301479 0.04655061
v -0.01757253 -0.03166375 0.05872712
v -0.00790113 -0.03504802 0.06209011
v -0.01117477 -0.03506692 0.04646567
v -0.02825579 -0.02302758 0.05531998
v -0.01322078 -0.03382190 0.01888560
v -0.02404522 -0.02733904 0.01893207
v -0.00691455 -0.03531386 0.01797801
v -0.01218152 -0.03391410 0.01808870
v -0.02284688 -0.02730510 0.06495927
v -0.00999090 -0.03498015 0.01893460
v 0.00510603 -0.03629326 0.05427920
v -0.00252658 -0.03629196 0.05651241
v -0.01977119 -0.03061637 0.05649527
v -0.01650144 -0.03168872 0.06429396
v -0.01111152 -0.03391622 0.06425202
v -0.01007184 -0.03503279 0.05426022
v -0.00578826 -0.03628725 0.04760344
v -0.02875962 -0.02239385 0.05539408
v -0.02716714 -0.02415031 0.05644390
v -0.01648071 -0.03282357 0.02305205
v -0.02752894 -0.02335906 0.01800734
v -0.02295088 -0.02847432 0.01983519
v -0.02824574 -0.02309594 0.01899121
v -0.01969315 -0.03055954 0.01891434
v -0.02615571 -0.02413614 0.06488040
v 0.00615054 -0.03628973 0.05094896
v -0.00681514 -0.03509567 0.06431654
v -0.01651748 -0.03280036 0.04979756
v -0.02073316 -0.02956439 0.06093521
v -0.01335500 -0.03293045 0.06501928
v -0.01871084 -0.03060744 0.06317508
v -0.01540619 -0.03277809 0.05870359
v -0.02714836 -0.02312499 0.06425981
v -0.02497635 -0.02632798 0.05756949
v -0.01437860 -0.03394360 0.02635171
f 14 8 1
f 14 2 8
f 15 1 8
f 15 14 1
f 15 12 5
f 15 8 7
f 15 7 12
f 17 8 2
f 21 12 7
f 21 7 4
f 22 4 7
f 23 7 3
f 23 3 10
f 23 22 7
f 24 14 9
f 24 2 14
f 25 15 5
f 26 9 14
f 26 14 15
f 26 15 25
f 26 25 19
f 28 27 10
f 29 17 10
f 29 10 3
f 29 8 17
f 29 3 7
f 29 7 8
f 32 6 27
f 36 23 10
f 36 13 23
f 36 10 27
f 37 23 13
f 37 22 23
f 38 25 5
f 38 19 25
f 39 27 6
f 39 36 27
f 39 13 36
f 39 6 34
f 39 37 13
f 39 34 37
f 40 2 28
f 41 27 28
f 45 20 32
f 45 44 20
f 45 31 44
f 45 16 31
f 46 32 27
f 46 45 32
f 46 16 45
f 46 41 16
f 46 27 41
f 47 12 21
f 48 18 11
f 50 21 4
f 50 4 22
f 50 22 35
f 51 35 22
f 51 18 48
f 52 50 35
f 52 21 50
f 52 47 21
f 52 33 47
f 52 35 51
f 52 51 48
f 52 48 33
f 53 37 34
f 53 22 37
f 53 34 49
f 53 49 18
f 53 51 22
f 53 18 51
f 54 38 5
f 54 5 12
f 55 40 28
f 55 17 2
f 55 2 40
f 55 28 10
f 55 10 17
f 56 31 16
f 56 16 41
f 56 44 31
f 56 9 44
f 56 24 9
f 56 2 24
f 56 41 28
f 56 28 2
f 57 30 42
f 57 42 11
f 57 11 18
f 57 18 49
f 57 32 20
f 58 11 42
f 58 19 38
f 59 26 19
f 59 19 43
f 59 44 9
f 59 9 26
f 60 42 30
f 60 30 43
f 60 58 42
f 60 43 19
f 60 19 58
f 61 43 30
f 61 59 43
f 61 20 44
f 61 44 59
f 61 57 20
f 61 30 57
f 62 47 33
f 62 12 47
f 62 33 48
f 62 54 12
f 62 48 54
f 63 48 11
f 63 54 48
f 63 38 54
f 63 58 38
f 63 11 58
f 64 49 34
f 64 34 6
f 64 57 49
f 64 6 32
f 64 32 57

