# https://github.com/mikedh/trimesh
v 0.01790228 0.02001215 0.00804394
v 0.01799353 0.01550386 0.00808547
v 0.01755215 0.01066627 0.00043963
v -0.01721884 0.01067505 0.00053174
v -0.01794805 -0.01342478 0.00582338
v -0.00691984 0.02104099 0.00073500
v 0.01228019 0.02025519 0.00805285
v 0.01195745 -0.01741353 0.00381031
v 0.01042997 0.01978408 0.00074817
v 0.00614980 0.02098976 0.00068374
v -0.01426332 -0.01786752 0.00585333
v -0.00700858 0.02373973 0.00528478
v 0.01753473 0.01064031 0.00380790
v 0.01190246 -0.01730231 0.00004872
v 0.01692171 0.01565287 0.00077419
v 0.01467966 0.01764618 0.00072747
v 0.00937888 0.02312654 0.00563974
v -0.01654075 -0.01359487 0.00067281
v -0.01709513 0.01059520 0.00398169
v -0.00669783 0.02170064 0.00134963
v 0.01636296 0.01737259 0.00227955
v 0.00598217 0.02162180 0.00132195
v 0.01255093 0.01948664 0.00137764
v 0.00398999 0.02439302 0.00555755
v -0.01773229 -0.01788943 0.00566138
v -0.00363684 0.02271666 0.00228002
v 0.01443599 0.01845886 0.00137897
v 0.01585911 0.01999667 0.00554243
v -0.00473262 0.02445887 0.00554790
v -0.01418095 -0.01640384 0.00075716
v 0.00276026 0.02267883 0.00230946
v -0.01626699 -0.01544682 0.00150184
v -0.01628622 -0.01641362 0.00256538
v -0.01540695 -0.01551949 0.00083153
f 1 2 3
f 7 2 1
f 10 3 4
f 10 4 6
f 11 7 5
f 11 2 7
f 11 8 2
f 12 5 7
f 13 8 3
f 13 3 2
f 13 2 8
f 14 4 3
f 14 3 8
f 14 8 11
f 15 1 3
f 16 10 9
f 16 3 10
f 16 15 3
f 18 5 4
f 18 4 14
f 19 12 4
f 19 4 5
f 19 5 12
f 20 6 4
f 20 4 12
f 21 1 15
f 22 9 10
f 23 16 9
f 23 22 17
f 23 9 22
f 24 7 1
f 24 1 17
f 24 17 22
f 25 11 5
f 25 5 18
f 25 14 11
f 26 10 6
f 26 6 20
f 27 1 21
f 27 16 23
f 27 21 15
f 27 15 16
f 28 23 17
f 28 17 1
f 28 27 23
f 28 1 27
f 29 12 7
f 29 7 24
f 29 24 26
f 29 26 20
f 29 20 12
f 30 18 14
f 30 14 25
f 31 22 10
f 31 10 26
f 31 26 24
f 31 24 22
f 32 25 18
f 33 30 25
f 33 25 32
f 34 32 18
f 34 18 30
f 34 33 32
f 34 30 33

