# https://github.com/mikedh/trimesh
v -0.03148408 -0.00964769 0.06565438
v -0.02331218 -0.02354711 0.06503899
v -0.03269399 -0.00983206 0.02633196
v -0.03571898 -0.00939619 0.02633578
v -0.03044694 -0.01995233 0.05533972
v -0.03319845 -0.00931975 0.06561045
v -0.03085602 -0.00989440 0.06228747
v -0.02532060 -0.02322409 0.02632593
v -0.03371949 -0.01352130 0.05311750
v -0.02934082 -0.01987003 0.06500069
v -0.02433111 -0.02333189 0.06558460
v -0.03084234 -0.00986063 0.06506446
v -0.02341044 -0.02358482 0.06000477
v -0.02952879 -0.02218131 0.02634711
v -0.02586786 -0.02261771 0.02629827
v -0.03515915 -0.00931384 0.04868883
v -0.03154201 -0.01671606 0.06204602
v -0.02958284 -0.01898012 0.06545158
v -0.02828663 -0.02199477 0.06205935
v -0.03393955 -0.01461141 0.02634820
v -0.03404182 -0.00933781 0.06210265
v -0.03491602 -0.01134445 0.04421430
v -0.03260685 -0.01674740 0.04978933
v -0.03042508 -0.01880537 0.06202813
v -0.03070156 -0.01689022 0.06547570
v -0.02736190 -0.02218091 0.06544953
v -0.02939966 -0.02200833 0.05091757
v -0.03495943 -0.01034099 0.04867072
v -0.03263166 -0.01351529 0.06430339
v -0.03516152 -0.01139646 0.02634525
v -0.03258166 -0.01565888 0.05645545
v -0.03151129 -0.01772995 0.05755001
v -0.03375965 -0.01451051 0.04644387
v -0.03045466 -0.02100506 0.04088143
v -0.02927828 -0.02099321 0.05981704
v -0.03157290 -0.01566782 0.06509890
v -0.03375028 -0.01135707 0.05982509
v -0.03287632 -0.01140182 0.06544282
v -0.03153588 -0.01883536 0.04867852
v -0.03168311 -0.01890138 0.02635714
v -0.03382705 -0.01027734 0.06205952
v -0.03175301 -0.01461734 0.06545420
v -0.03045646 -0.02099142 0.03533189
f 6 1 3
f 6 3 4
f 7 3 1
f 11 2 1
f 11 1 6
f 12 7 1
f 12 1 2
f 12 2 7
f 13 7 2
f 13 2 11
f 13 8 3
f 13 3 7
f 14 13 11
f 14 8 13
f 15 4 3
f 15 3 8
f 15 8 14
f 16 6 4
f 20 15 14
f 20 4 15
f 21 6 16
f 22 16 4
f 24 10 17
f 25 11 6
f 26 18 10
f 26 25 18
f 26 11 25
f 26 19 11
f 26 10 19
f 27 14 11
f 27 11 19
f 28 21 16
f 28 22 9
f 28 16 22
f 30 22 4
f 30 4 20
f 31 9 23
f 31 29 9
f 31 17 29
f 32 23 5
f 32 31 23
f 32 17 31
f 32 24 17
f 32 5 24
f 33 20 23
f 33 30 20
f 33 22 30
f 33 23 9
f 33 9 22
f 34 14 27
f 35 19 10
f 35 10 24
f 35 24 5
f 35 27 19
f 35 5 27
f 36 10 18
f 36 18 25
f 36 29 17
f 36 17 10
f 37 28 9
f 37 9 29
f 38 6 21
f 38 21 29
f 38 29 36
f 39 23 20
f 39 5 23
f 39 34 27
f 39 27 5
f 40 20 14
f 40 39 20
f 40 34 39
f 41 21 28
f 41 28 37
f 41 37 29
f 41 29 21
f 42 38 36
f 42 36 25
f 42 25 6
f 42 6 38
f 43 40 14
f 43 14 34
f 43 34 40

