# https://github.com/mikedh/trimesh
v 0.03143067 0.01917553 0.02635022
v 0.03539358 -0.01031865 0.02636828
v 0.02289569 0.00151114 0.00130950
v 0.01195351 0.01065518 0.00075077
v 0.01864728 -0.03190682 0.02633368
v 0.01685331 0.01672042 0.00200383
v 0.03522891 0.00591301 0.01807824
v 0.02338208 -0.02861571 0.02637190
v 0.01346127 0.02025982 0.00909775
v 0.01190246 -0.01730231 0.00004872
v 0.01715364 0.01481754 0.00057898
v 0.03650874 0.00380024 0.02635513
v 0.03434938 -0.00923316 0.01726639
v 0.03083750 0.01882969 0.01903892
v 0.03194179 -0.01880550 0.02638884
v 0.02020579 -0.03093610 0.02635887
v 0.02783101 0.01976241 0.02632608
v 0.01321585 0.01985418 0.00825552
v 0.01426605 0.01070324 0.00060197
v 0.02250802 -0.00169203 0.00073151
v 0.02171451 0.00792348 0.00141329
v 0.03409816 0.01350815 0.02305995
v 0.02640357 -0.02425083 0.01708804
v 0.03651008 -0.00163677 0.02086100
v 0.01692319 0.01897221 0.00546878
v 0.02975209 0.01878501 0.01741854
v 0.03221047 0.01788615 0.02636037
v 0.03407467 -0.01353761 0.01975554
v 0.01192683 0.01065122 0.00406658
v 0.02134340 0.00710409 0.00069161
v 0.03443186 0.00051786 0.01633758
v 0.03514308 0.00912912 0.01990143
v 0.02121597 -0.00812803 0.00075176
v 0.02006990 -0.03062764 0.01980925
v 0.02854940 -0.02307621 0.01982159
v 0.03675365 0.00051738 0.02634911
v 0.01779266 0.01448462 0.00073687
v 0.03310727 0.01350412 0.01818486
v 0.03420123 0.01353442 0.02635559
v 0.03301355 0.01567356 0.02088102
v 0.03307692 -0.01673417 0.02636784
v 0.03523185 -0.01030375 0.02190897
v 0.02967800 -0.01986794 0.01718339
v 0.01226481 -0.01802002 0.00421538
v 0.02248942 0.00050305 0.00074271
v 0.03416772 0.00805725 0.01723308
v 0.03441174 -0.00276904 0.01632665
v 0.03520723 -0.00703160 0.01799198
v 0.03651444 0.00160767 0.02088152
v 0.02295516 -0.00271871 0.00127918
v 0.01896286 -0.01226527 0.00077527
v 0.02321820 -0.02845496 0.02085099
v 0.01712019 -0.03114274 0.01689239
v 0.02975176 -0.02211356 0.02637767
v 0.03080361 -0.01996003 0.01983398
v 0.03657554 -0.00270260 0.02300771
v 0.02021889 0.01029664 0.00073904
v 0.03206968 0.01456265 0.01740724
v 0.03416828 0.01024513 0.01812083
v 0.03549321 0.00925377 0.02634318
v 0.03183082 0.01769839 0.01996242
v 0.03410365 0.01244066 0.01984195
v 0.03292483 -0.01347470 0.01724609
v 0.02964371 -0.02088482 0.01817811
f 11 4 6
f 15 2 12
f 17 9 5
f 17 14 9
f 17 1 14
f 17 5 16
f 18 6 4
f 19 11 10
f 19 10 4
f 19 4 11
f 25 18 9
f 25 6 18
f 26 6 25
f 26 25 9
f 26 9 14
f 27 8 15
f 27 16 8
f 27 17 16
f 27 1 17
f 27 15 12
f 29 18 4
f 29 4 10
f 29 5 9
f 29 9 18
f 30 20 10
f 30 10 11
f 31 3 7
f 33 10 20
f 34 16 5
f 36 12 2
f 37 11 6
f 37 6 26
f 39 27 12
f 39 22 27
f 40 27 22
f 41 28 2
f 41 2 15
f 42 2 28
f 44 29 10
f 44 5 29
f 45 30 3
f 45 20 30
f 45 3 31
f 46 30 21
f 46 7 3
f 46 3 30
f 48 31 7
f 48 7 24
f 48 47 31
f 48 24 42
f 48 42 28
f 48 28 13
f 49 24 7
f 49 7 32
f 49 32 12
f 49 36 24
f 49 12 36
f 50 33 20
f 50 13 33
f 50 48 13
f 50 47 48
f 50 31 47
f 50 45 31
f 50 20 45
f 51 23 10
f 51 10 33
f 51 43 23
f 51 33 43
f 52 8 16
f 52 16 34
f 52 35 8
f 52 34 23
f 52 23 35
f 53 34 5
f 53 10 23
f 53 23 34
f 53 44 10
f 53 5 44
f 54 15 8
f 54 8 35
f 55 54 35
f 55 15 54
f 55 41 15
f 55 28 41
f 56 36 2
f 56 24 36
f 56 42 24
f 56 2 42
f 57 30 11
f 57 11 37
f 57 21 30
f 57 37 26
f 58 26 14
f 58 14 38
f 58 57 26
f 58 38 21
f 58 21 57
f 59 32 7
f 59 7 46
f 59 46 21
f 59 21 38
f 60 32 22
f 60 22 39
f 60 39 12
f 60 12 32
f 61 14 1
f 61 1 27
f 61 27 40
f 61 38 14
f 62 40 22
f 62 22 32
f 62 61 40
f 62 38 61
f 62 59 38
f 62 32 59
f 63 13 28
f 63 43 33
f 63 33 13
f 64 35 23
f 64 23 43
f 64 55 35
f 64 28 55
f 64 63 28
f 64 43 63

