# https://github.com/mikedh/trimesh
v 0.03484716 0.00057619 0.06565830
v 0.03530008 -0.00487150 0.06428140
v 0.03664906 0.00053880 0.02301979
v 0.03383829 0.00059902 0.02295014
v 0.02706928 -0.02362821 0.06499931
v 0.03319890 0.00068484 0.06557738
v 0.03655218 0.00047636 0.04534045
v 0.03223765 -0.01473278 0.06546788
v 0.02927202 -0.01769253 0.02632991
v 0.02848367 -0.01788203 0.05327080
v 0.03532761 0.00049508 0.06504632
v 0.03539358 -0.01031865 0.02636828
v 0.03444389 -0.00707405 0.06546086
v 0.02764285 -0.02073742 0.06554803
v 0.03310177 -0.00747295 0.02293869
v 0.03325562 0.00060587 0.04878952
v 0.03653212 -0.00162914 0.04533923
v 0.03410109 -0.01360250 0.05204181
v 0.03307692 -0.01673417 0.02636784
v 0.03405771 -0.01026721 0.06497324
v 0.03336653 -0.01150173 0.06546048
v 0.03527785 -0.00272344 0.06509609
v 0.02930940 -0.02026719 0.06540486
v 0.03599985 -0.00718761 0.02299961
v 0.03527809 -0.00924413 0.05204297
v 0.02753382 -0.02399889 0.05994157
v 0.03413448 -0.01456712 0.04199920
v 0.03294581 -0.01462868 0.06321183
v 0.03004164 -0.01900552 0.06546706
v 0.03329689 -0.00636365 0.02293270
v 0.03647188 -0.00489420 0.02748213
v 0.03652372 -0.00384110 0.04087122
v 0.03411641 -0.01139529 0.06208510
v 0.02966426 -0.02090567 0.06318922
v 0.03411277 -0.01466007 0.03534604
v 0.03527902 -0.01034013 0.04534434
v 0.03182619 -0.01669444 0.06490200
v 0.03648043 -0.00381666 0.02301031
v 0.03651013 -0.00272621 0.04422025
v 0.03524542 -0.00809714 0.05762654
v 0.03411549 -0.01248705 0.05760413
v 0.02863750 -0.02196023 0.06470730
v 0.02989734 -0.02104793 0.05985954
v 0.03301310 -0.01676481 0.04868613
v 0.03646053 -0.00486742 0.03640234
v 0.03068889 -0.01877191 0.06501683
v 0.03296142 -0.01570928 0.05761059
v 0.02759210 -0.02312570 0.06483788
v 0.02801903 -0.02348642 0.05988621
f 6 1 3
f 6 3 4
f 7 3 1
f 10 9 5
f 10 4 9
f 11 7 1
f 14 10 5
f 14 8 1
f 14 1 6
f 15 9 4
f 16 6 4
f 16 4 10
f 16 14 6
f 16 10 14
f 17 11 2
f 17 7 11
f 17 3 7
f 20 2 13
f 21 13 1
f 21 1 8
f 21 20 13
f 21 8 20
f 22 11 1
f 22 1 13
f 22 13 2
f 22 2 11
f 23 14 5
f 24 12 19
f 24 19 9
f 24 9 15
f 26 5 9
f 26 9 19
f 29 8 14
f 29 14 23
f 30 24 15
f 30 15 4
f 31 12 24
f 32 31 3
f 32 3 17
f 33 20 28
f 33 2 20
f 35 19 12
f 35 12 27
f 36 25 18
f 36 18 27
f 36 27 12
f 36 32 25
f 37 28 20
f 37 20 8
f 38 31 24
f 38 3 31
f 38 24 30
f 38 30 4
f 38 4 3
f 39 32 17
f 39 17 2
f 40 25 32
f 40 2 33
f 40 39 2
f 40 32 39
f 41 18 25
f 41 40 33
f 41 25 40
f 41 33 28
f 42 23 5
f 44 35 27
f 44 19 35
f 44 43 19
f 44 27 18
f 45 36 12
f 45 12 31
f 45 31 32
f 45 32 36
f 46 37 8
f 46 8 29
f 46 29 23
f 46 23 42
f 46 42 34
f 46 43 37
f 46 34 43
f 47 41 28
f 47 18 41
f 47 44 18
f 47 28 37
f 47 37 43
f 47 43 44
f 48 42 5
f 48 5 26
f 49 34 42
f 49 43 34
f 49 26 19
f 49 19 43
f 49 48 26
f 49 42 48

