# https://github.com/mikedh/trimesh
v 0.02479080 0.02462870 0.06603290
v 0.03548008 0.00051355 0.06429191
v 0.03412190 0.01345835 0.04087088
v 0.02478730 0.02570568 0.01793985
v 0.02504824 0.01935053 0.01776950
v 0.02862143 0.02311911 0.04084284
v 0.03296164 0.01230882 0.06522770
v 0.03319890 0.00068484 0.06557738
v 0.02464053 0.02669251 0.01895837
v 0.03675365 0.00051738 0.02634911
v 0.03526012 0.00812202 0.05204152
v 0.02963092 0.01985167 0.06094381
v 0.02658208 0.01946794 0.06563311
v 0.03185327 0.01461500 0.06585412
v 0.02483530 0.02690400 0.04870314
v 0.03078006 0.01983910 0.02194973
v 0.03389722 0.00056451 0.02634839
v 0.03414395 0.00916413 0.06429516
v 0.03549321 0.00925377 0.02634318
v 0.03659335 0.00045564 0.04422445
v 0.03189519 0.01773037 0.04754625
v 0.03484716 0.00057619 0.06565830
v 0.02967920 0.01877079 0.06583366
v 0.02476970 0.02573749 0.06099961
v 0.02753527 0.02421120 0.02088544
v 0.03011496 0.01901146 0.01801580
v 0.03329819 0.00060390 0.04766843
v 0.03531963 0.00484175 0.06097177
v 0.03409603 0.01240174 0.05202788
v 0.03530215 0.00930120 0.04535668
v 0.03420123 0.01353442 0.02635559
v 0.03649881 0.00380878 0.03527462
v 0.02968471 0.02090186 0.05201458
v 0.03076203 0.01998856 0.04196339
v 0.03185370 0.01669630 0.05648144
v 0.03407258 0.00810021 0.06573450
v 0.02856302 0.02088936 0.06432046
v 0.02859405 0.02316404 0.02309287
v 0.02529998 0.02622309 0.01924772
v 0.02971028 0.02098134 0.01987883
v 0.03650874 0.00380024 0.02635513
v 0.03530798 0.00266567 0.06427196
v 0.03523247 0.00700402 0.05649707
v 0.03407820 0.01129275 0.05757463
v 0.03298781 0.01560729 0.04756117
v 0.03648995 0.00269786 0.04087301
v 0.02749419 0.02304318 0.05872163
v 0.03180320 0.01560211 0.06324046
v 0.03077149 0.01882434 0.05536547
v 0.03073665 0.01771919 0.06320538
v 0.02544593 0.02416266 0.06583216
v 0.02645149 0.02421298 0.01828449
v 0.02867406 0.02207133 0.01916243
v 0.03294736 0.01446278 0.05645581
v 0.03648977 0.00156653 0.04422098
v 0.02756116 0.02412023 0.04531749
v 0.02535407 0.02637164 0.04867588
v 0.02638823 0.02305938 0.06591055
v 0.02529225 0.02520255 0.06093484
v 0.02548575 0.02541317 0.01836889
v 0.02972797 0.01985688 0.01828238
f 9 5 1
f 9 4 5
f 13 8 1
f 13 1 5
f 13 5 8
f 17 5 10
f 20 17 10
f 20 2 17
f 22 14 1
f 22 1 8
f 22 8 2
f 23 1 14
f 24 15 9
f 24 9 1
f 26 10 5
f 26 5 4
f 27 8 5
f 27 5 17
f 27 17 2
f 27 2 8
f 28 2 20
f 30 19 3
f 30 29 11
f 30 3 29
f 31 3 19
f 31 26 16
f 31 19 26
f 32 20 10
f 32 19 30
f 34 33 21
f 34 6 33
f 34 31 16
f 34 21 31
f 36 7 14
f 36 14 22
f 36 18 7
f 37 12 33
f 38 25 15
f 38 15 6
f 38 34 16
f 38 6 34
f 39 9 15
f 39 15 25
f 40 16 26
f 40 38 16
f 40 25 38
f 41 26 19
f 41 10 26
f 41 32 10
f 41 19 32
f 42 28 18
f 42 2 28
f 42 18 36
f 42 36 22
f 42 22 2
f 43 18 28
f 44 11 29
f 44 43 11
f 44 18 43
f 44 7 18
f 45 29 3
f 45 21 35
f 45 31 21
f 45 3 31
f 46 32 30
f 46 30 11
f 46 20 32
f 46 11 43
f 46 43 28
f 47 37 33
f 48 14 7
f 49 33 12
f 49 35 21
f 49 21 33
f 50 37 23
f 50 12 37
f 50 23 14
f 50 14 48
f 50 49 12
f 50 48 35
f 50 35 49
f 51 24 1
f 52 26 4
f 53 39 25
f 53 25 40
f 53 52 39
f 54 45 35
f 54 29 45
f 54 35 48
f 54 44 29
f 54 48 7
f 54 7 44
f 55 46 28
f 55 28 20
f 55 20 46
f 56 47 33
f 56 33 6
f 57 15 24
f 57 47 56
f 57 56 6
f 57 6 15
f 58 51 1
f 58 1 23
f 58 23 37
f 58 37 51
f 59 24 51
f 59 57 24
f 59 47 57
f 59 51 37
f 59 37 47
f 60 52 4
f 60 4 9
f 60 9 39
f 60 39 52
f 61 53 40
f 61 40 26
f 61 26 52
f 61 52 53

