# https://github.com/mikedh/trimesh
v 0.00723477 0.03411276 0.06584556
v 0.00769741 0.03190945 0.06587946
v 0.00740240 0.03614917 0.02633531
v -0.01112286 0.03516038 0.02636731
v -0.01183984 0.03030606 0.06594948
v -0.00247940 0.03624780 0.05089305
v 0.00719663 0.03507085 0.05865909
v -0.01139924 0.03242440 0.06598881
v 0.00753761 0.03343055 0.02632516
v -0.00685823 0.03626082 0.02635177
v 0.00399358 0.03512273 0.06204522
v 0.00398156 0.03628095 0.04978659
v -0.00899481 0.03506378 0.04978787
v -0.01193975 0.03183567 0.03534231
v 0.00769167 0.03305612 0.03871743
v 0.00773969 0.03194204 0.05667930
v -0.00849807 0.03306765 0.02632338
v -0.00574065 0.03401393 0.06581332
v 0.00614327 0.03626331 0.04198075
v 0.00286407 0.03631423 0.05090922
v -0.01114334 0.03507690 0.03862743
v -0.01199586 0.03065363 0.05445462
v -0.01168135 0.03220916 0.02634028
v -0.00139090 0.03517028 0.06205689
v -0.00784873 0.03393805 0.06428183
v 0.00505263 0.03628908 0.04646284
v 0.00613265 0.03637096 0.02634194
v -0.00583176 0.03628149 0.04085429
v -0.01108471 0.03390446 0.05534514
v -0.00685673 0.03624139 0.03527980
v -0.01117861 0.03284788 0.06529685
v -0.00682576 0.03502408 0.05643769
v -0.00460632 0.03505329 0.05977392
v -0.00469100 0.03627977 0.04532625
v -0.01012822 0.03289586 0.06585337
v -0.00788467 0.03510229 0.05312072
v -0.00359674 0.03625520 0.04868363
f 7 1 2
f 7 2 3
f 8 5 2
f 8 2 1
f 11 1 7
f 15 9 3
f 16 2 5
f 16 9 15
f 16 15 3
f 16 3 2
f 17 4 10
f 17 10 3
f 17 3 9
f 18 8 1
f 19 7 3
f 20 11 7
f 20 7 12
f 21 4 14
f 22 5 8
f 22 21 14
f 22 8 21
f 22 16 5
f 22 9 16
f 23 14 4
f 23 4 17
f 23 17 9
f 23 22 14
f 23 9 22
f 24 18 1
f 24 1 11
f 24 20 6
f 24 11 20
f 26 12 7
f 26 7 19
f 26 20 12
f 27 19 3
f 27 3 10
f 27 26 19
f 27 20 26
f 28 21 13
f 28 27 10
f 28 20 27
f 29 21 8
f 29 13 21
f 30 10 4
f 30 4 21
f 30 28 10
f 30 21 28
f 31 18 25
f 31 29 8
f 33 25 18
f 33 18 24
f 33 32 25
f 33 24 6
f 33 6 32
f 34 6 20
f 34 20 28
f 34 28 13
f 35 31 8
f 35 8 18
f 35 18 31
f 36 31 25
f 36 29 31
f 36 25 32
f 36 13 29
f 36 34 13
f 37 36 32
f 37 32 6
f 37 6 34
f 37 34 36

