# https://github.com/mikedh/trimesh
v -0.01139924 0.03242440 0.06598881
v -0.01213890 0.02999479 0.06577377
v -0.01201752 0.03209633 0.02636671
v -0.02437314 0.02452756 0.01661973
v -0.02963572 0.01680660 0.06595476
v -0.01878883 0.03191674 0.02633544
v -0.01210797 0.02995451 0.06119220
v -0.02897556 0.01770639 0.02634233
v -0.01148847 0.03502381 0.02634055
v -0.02176765 0.02728721 0.06428914
v -0.02944669 0.02212794 0.02631103
v -0.01123819 0.03311272 0.06208207
v -0.02626125 0.01816098 0.06577930
v -0.02338203 0.02792992 0.01883932
v -0.01975018 0.02852982 0.06579176
v -0.02405905 0.02731301 0.04191217
v -0.03257141 0.01722122 0.02633330
v -0.01322266 0.03394743 0.04305246
v -0.02636391 0.01827072 0.05894559
v -0.02354594 0.02702108 0.01784577
v -0.01437091 0.03394987 0.02634046
v -0.02711974 0.02106186 0.06588246
v -0.01653441 0.03055792 0.06527628
v -0.02174296 0.02849064 0.05427899
v -0.02200890 0.02972398 0.02631251
v -0.03202179 0.01688966 0.04307472
v -0.02766547 0.02351973 0.01893789
v -0.01122620 0.03431677 0.04977273
v -0.01438273 0.03393289 0.03302877
v -0.02714095 0.02309279 0.05314163
v -0.01332761 0.03183484 0.06578663
v -0.01867700 0.02943242 0.06527775
v -0.01868139 0.03052869 0.05421871
v -0.02409238 0.02746926 0.01909460
v -0.02602239 0.02530648 0.04414463
v -0.02184657 0.02955093 0.03522985
v -0.03041395 0.01769383 0.05755870
v -0.03160175 0.01871939 0.03296900
v -0.03171952 0.01883993 0.02630584
v -0.02673762 0.02365966 0.01782597
v -0.01328799 0.03277901 0.05866136
v -0.02496411 0.02405703 0.06428395
v -0.02071723 0.02833816 0.06201457
v -0.01867254 0.03170671 0.03520965
v -0.01967403 0.02944713 0.05864786
v -0.01653367 0.03171076 0.05423059
v -0.02717779 0.02418492 0.01907491
v -0.02421891 0.02661249 0.01807209
v -0.02511615 0.02622286 0.04415349
v -0.03084651 0.01692073 0.05760587
v -0.02922814 0.01877796 0.06201658
v -0.02928287 0.01989379 0.05536700
v -0.02825370 0.02311296 0.03857791
v -0.01433659 0.03170483 0.06429190
v -0.02600771 0.02300976 0.06321756
v -0.02497681 0.02517497 0.05644156
v -0.01651722 0.03282897 0.03522515
v -0.01436047 0.03284214 0.05311652
v -0.02633700 0.02442541 0.01809936
v -0.02926659 0.01772286 0.06575378
v -0.02820884 0.02091231 0.05866514
v -0.02934507 0.02206682 0.03076934
v -0.02712176 0.02420472 0.04191235
v -0.02822808 0.02198853 0.04975443
f 7 1 2
f 8 4 3
f 8 3 7
f 9 3 4
f 12 7 3
f 12 1 7
f 12 3 9
f 13 7 2
f 13 5 8
f 13 2 1
f 13 1 5
f 17 4 8
f 19 13 8
f 19 8 7
f 19 7 13
f 20 14 9
f 20 9 4
f 21 14 6
f 21 9 14
f 22 15 10
f 22 5 1
f 22 1 15
f 25 6 14
f 26 17 8
f 26 8 5
f 28 12 9
f 28 9 18
f 29 18 9
f 29 9 21
f 29 21 6
f 31 23 15
f 31 15 1
f 31 1 12
f 32 10 15
f 32 15 23
f 34 25 14
f 34 11 25
f 35 25 11
f 36 6 25
f 36 25 16
f 36 16 24
f 38 17 26
f 39 27 17
f 39 11 27
f 39 38 11
f 39 17 38
f 40 20 4
f 40 4 17
f 40 17 27
f 41 12 28
f 42 22 10
f 43 32 24
f 43 24 10
f 43 10 32
f 44 6 36
f 44 36 24
f 44 24 33
f 45 33 24
f 45 24 32
f 45 32 33
f 46 33 32
f 46 32 23
f 46 44 33
f 47 27 11
f 47 11 34
f 48 34 14
f 48 14 20
f 48 20 40
f 49 16 25
f 49 25 35
f 49 24 16
f 50 37 26
f 50 26 5
f 51 37 50
f 52 37 51
f 52 38 26
f 52 26 37
f 53 35 11
f 53 38 52
f 54 31 12
f 54 12 41
f 54 23 31
f 54 46 23
f 54 41 46
f 55 22 42
f 56 35 30
f 56 55 42
f 56 30 55
f 56 49 35
f 56 24 49
f 56 42 10
f 56 10 24
f 57 29 6
f 57 6 44
f 57 44 46
f 57 18 29
f 58 46 41
f 58 41 28
f 58 28 18
f 58 57 46
f 58 18 57
f 59 40 27
f 59 27 47
f 59 48 40
f 59 47 34
f 59 34 48
f 60 5 22
f 60 22 51
f 60 51 50
f 60 50 5
f 61 52 51
f 61 51 22
f 61 22 55
f 61 55 30
f 61 30 52
f 62 53 11
f 62 11 38
f 62 38 53
f 63 53 30
f 63 30 35
f 63 35 53
f 64 53 52
f 64 52 30
f 64 30 53

