# https://github.com/mikedh/trimesh
v 0.02797631 -0.01869769 0.06515532
v 0.03235969 -0.01690031 0.05876253
v 0.02927202 -0.01769253 0.02632991
v 0.00753766 -0.03341992 0.02632765
v 0.01683874 -0.03173292 0.06425313
v 0.00759709 -0.03256489 0.06508460
v 0.02828724 -0.01774281 0.05996994
v 0.02659204 -0.02419048 0.06493543
v 0.02338208 -0.02861571 0.02637190
v 0.00741117 -0.03619344 0.02633601
v 0.03203830 -0.01732909 0.05994421
v 0.01960835 -0.02938842 0.06545051
v 0.02325925 -0.02846226 0.05093452
v 0.03285419 -0.01718069 0.02634340
v 0.00719263 -0.03530442 0.06321229
v 0.01467095 -0.03397716 0.03083010
v 0.00886025 -0.03311845 0.02631027
v 0.00736401 -0.03479363 0.06521895
v 0.02213329 -0.02843160 0.06318455
v 0.02540955 -0.02300131 0.06553954
v 0.02970757 -0.02207133 0.05204194
v 0.01690100 -0.03286118 0.02635829
v 0.01149899 -0.03506972 0.04757862
v 0.01140026 -0.03389419 0.06490913
v 0.02008318 -0.02953250 0.06498993
v 0.02435137 -0.02731023 0.05648903
v 0.02006232 -0.03063995 0.05425209
v 0.02515199 -0.02495385 0.06542161
v 0.01752385 -0.02964018 0.06553445
v 0.03189623 -0.01885565 0.04867513
v 0.02989734 -0.02104793 0.05985954
v 0.02865094 -0.02308153 0.05648198
v 0.02975176 -0.02211356 0.02637767
v 0.01151811 -0.03506422 0.02635246
v 0.01043647 -0.03502876 0.05649908
v 0.01895534 -0.03059587 0.06322575
v 0.02440411 -0.02621197 0.06496283
v 0.02111810 -0.02946081 0.05982809
v 0.01681115 -0.03283369 0.04759222
v 0.02217257 -0.02957542 0.04088789
v 0.01773548 -0.02886711 0.06550276
v 0.03076261 -0.01996241 0.05761103
v 0.02640597 -0.02521896 0.05871673
v 0.02758730 -0.02403917 0.05873209
v 0.03194179 -0.01880550 0.02638884
v 0.00823038 -0.03505683 0.06320139
v 0.01251877 -0.03387988 0.06203169
v 0.01790408 -0.03170912 0.05755346
v 0.01469117 -0.03394649 0.04534010
v 0.01898116 -0.03173318 0.03976122
v 0.03189532 -0.01776746 0.05872643
v 0.01470203 -0.03277362 0.06422483
v 0.01363215 -0.03390876 0.05648086
v 0.01899628 -0.03173325 0.02859409
v 0.01567444 -0.03281347 0.05870716
v 0.02220296 -0.02955759 0.02748600
f 6 3 4
f 7 1 2
f 7 2 3
f 7 6 1
f 7 3 6
f 11 2 1
f 11 1 8
f 14 3 2
f 15 6 4
f 15 4 10
f 17 10 4
f 17 4 3
f 17 3 14
f 18 6 15
f 20 1 6
f 22 10 17
f 22 17 14
f 22 14 9
f 24 12 18
f 24 18 15
f 25 24 5
f 25 12 24
f 27 13 26
f 28 20 12
f 28 8 1
f 28 1 20
f 29 18 12
f 29 12 20
f 30 14 2
f 31 11 8
f 32 13 9
f 32 9 21
f 32 26 13
f 32 21 31
f 33 21 9
f 33 9 14
f 33 30 21
f 34 22 16
f 34 10 22
f 34 23 10
f 34 16 23
f 35 15 10
f 35 10 23
f 36 25 5
f 36 19 25
f 37 25 19
f 37 8 28
f 37 28 12
f 37 12 25
f 37 19 26
f 38 27 26
f 38 26 19
f 38 36 27
f 38 19 36
f 40 9 13
f 40 13 27
f 41 29 20
f 41 20 6
f 41 6 18
f 41 18 29
f 42 11 31
f 42 31 21
f 42 21 30
f 43 26 32
f 43 37 26
f 43 8 37
f 44 32 31
f 44 31 8
f 44 43 32
f 44 8 43
f 45 33 14
f 45 14 30
f 45 30 33
f 46 24 15
f 46 15 35
f 47 46 35
f 47 24 46
f 48 36 5
f 48 27 36
f 48 39 27
f 49 16 22
f 49 23 16
f 50 40 27
f 50 27 39
f 50 49 22
f 50 39 49
f 51 2 11
f 51 11 42
f 51 42 30
f 51 30 2
f 52 5 24
f 52 24 47
f 53 47 35
f 53 35 23
f 53 23 49
f 53 52 47
f 53 49 39
f 54 50 22
f 54 40 50
f 55 53 39
f 55 39 48
f 55 48 5
f 55 5 52
f 55 52 53
f 56 54 22
f 56 22 9
f 56 9 40
f 56 40 54

