# https://github.com/mikedh/trimesh
v 0.02462025 0.02775037 0.02632703
v 0.02956452 0.01940611 0.01765767
v 0.01146136 0.03408039 0.01835645
v -0.00723924 0.02123316 0.00472526
v -0.00717346 0.03335885 0.02632754
v 0.01692319 0.01897221 0.00546878
v 0.02335290 0.02849980 0.01994800
v 0.02540887 0.02298876 0.02633308
v 0.00613265 0.03637096 0.02634194
v -0.00688463 0.03519498 0.01818397
v 0.02797162 0.01912139 0.01623400
v 0.00808971 0.02375494 0.00595277
v 0.02422215 0.02743017 0.01932445
v -0.00745502 0.02162980 0.00577197
v 0.01691206 0.03294312 0.02634647
v 0.00289176 0.03619226 0.01898489
v -0.00685823 0.03626082 0.02635177
v 0.02916601 0.01914475 0.01710583
v 0.00775474 0.02055664 0.00461688
v 0.01352511 0.02160752 0.00590050
v -0.00680675 0.02413676 0.00577982
v 0.02917135 0.02023121 0.01787294
v 0.01917325 0.02971783 0.01757802
v -0.00744819 0.02519514 0.01203920
v 0.01685310 0.03279917 0.02200986
v 0.02231950 0.02965193 0.02632433
v 0.02491362 0.02355118 0.02634026
v 0.00606066 0.03620702 0.02089983
v 0.00715840 0.03511767 0.01817063
v -0.00685515 0.03624506 0.02523144
v 0.01150508 0.03508888 0.02635964
v 0.02881939 0.02001340 0.01732267
v 0.02597318 0.02003262 0.01911013
v 0.00168423 0.02730359 0.00937669
v -0.00361106 0.03613974 0.01901194
v 0.02212088 0.02848513 0.01833557
v 0.01463156 0.03284241 0.01847533
v 0.01546895 0.02051199 0.00590861
v 0.02224005 0.02953403 0.02192937
v 0.00501800 0.03621382 0.01989755
v 0.01042800 0.03500859 0.01996675
v 0.00826342 0.03427346 0.01748639
v 0.01149202 0.03507081 0.02523952
v 0.02654982 0.02322060 0.01748902
v -0.00573111 0.03610060 0.01991167
v 0.01681485 0.03162886 0.01833722
v 0.02224074 0.02754833 0.01748027
v 0.02018198 0.03058947 0.01993025
v 0.01903799 0.03169530 0.02312671
v 0.00929940 0.03504651 0.01896413
v 0.01360497 0.03392286 0.01999141
v 0.01567309 0.03270619 0.01915903
v 0.01906028 0.03178699 0.02632866
f 8 2 1
f 11 4 6
f 13 7 1
f 18 11 6
f 18 2 8
f 18 4 11
f 19 6 4
f 20 12 3
f 20 19 12
f 20 6 19
f 21 14 10
f 21 4 14
f 21 19 4
f 21 12 19
f 22 13 1
f 22 1 2
f 24 14 8
f 24 8 5
f 24 5 10
f 24 10 14
f 26 15 1
f 27 8 1
f 27 1 15
f 27 17 5
f 27 5 8
f 29 12 16
f 30 10 5
f 30 5 17
f 30 17 9
f 30 9 16
f 31 9 17
f 31 27 15
f 31 17 27
f 32 18 6
f 32 2 18
f 32 22 2
f 33 14 4
f 33 4 18
f 33 18 8
f 33 8 14
f 34 21 16
f 34 16 12
f 34 12 21
f 35 21 10
f 35 16 21
f 35 30 16
f 36 7 13
f 37 20 3
f 38 6 20
f 38 20 23
f 39 26 1
f 39 1 7
f 40 16 9
f 40 9 28
f 40 29 16
f 42 29 3
f 42 3 12
f 42 12 29
f 43 28 9
f 43 9 31
f 43 41 28
f 43 31 15
f 43 15 25
f 44 32 6
f 44 13 22
f 44 22 32
f 45 35 10
f 45 10 30
f 45 30 35
f 46 23 20
f 46 20 37
f 46 36 23
f 47 6 38
f 47 44 6
f 47 36 13
f 47 13 44
f 47 38 23
f 47 23 36
f 48 39 7
f 48 7 36
f 48 36 46
f 49 25 15
f 49 26 39
f 49 48 25
f 49 39 48
f 50 40 28
f 50 28 41
f 50 29 40
f 50 3 29
f 51 37 3
f 51 50 41
f 51 3 50
f 51 43 25
f 51 41 43
f 52 48 46
f 52 46 37
f 52 37 51
f 52 51 25
f 52 25 48
f 53 49 15
f 53 15 26
f 53 26 49

