# https://github.com/mikedh/trimesh
v -0.02406032 0.02422113 0.02633164
v -0.02167856 -0.02297448 0.01736412
v -0.01774579 0.01667066 0.00915638
v -0.01699188 0.01386888 0.00059772
v -0.03598671 -0.00384114 0.01894008
v -0.01713438 -0.00610923 0.00401644
v -0.02437314 0.02452756 0.01661973
v -0.02952879 -0.02218131 0.02634711
v -0.01652207 0.01570007 0.00110432
v -0.02109137 -0.00600690 0.00129280
v -0.03378519 0.01463964 0.02633088
v -0.03379888 0.01132776 0.01827159
v -0.02532060 -0.02322409 0.02632593
v -0.01719860 -0.00617138 0.00065229
v -0.02948344 -0.01998310 0.01734739
v -0.02856900 0.02332151 0.02632227
v -0.03168311 -0.01890138 0.02635714
v -0.03605467 0.00595944 0.02190836
v -0.02150303 0.00699175 0.00147611
v -0.03044252 0.01887982 0.01830212
v -0.02688704 -0.02265871 0.01677258
v -0.01930921 0.00839563 0.00059799
v -0.03391943 -0.01028491 0.01735511
v -0.02935497 -0.02207268 0.02084310
v -0.03596120 0.00265626 0.01895631
v -0.03486788 0.01030826 0.01994025
v -0.03619778 -0.00708112 0.02633655
v -0.02252814 -0.00261059 0.00243895
v -0.01927270 0.01208495 0.00123985
v -0.02737794 0.02327512 0.01822316
v -0.03156567 0.01881117 0.02194628
v -0.02208966 -0.02337152 0.01799082
v -0.02857308 -0.02002795 0.01652155
v -0.01726779 0.00846208 0.00060336
v -0.02156643 -0.00475689 0.00147299
v -0.03274601 -0.01355353 0.01729895
v -0.02843327 -0.02219343 0.01801327
v -0.03495208 0.00704283 0.01828993
v -0.03614739 0.00593763 0.02632653
v -0.03485819 0.00920124 0.01899265
v -0.03259854 0.01560716 0.01903919
v -0.03490499 -0.01130339 0.02084466
v -0.02256537 0.00378887 0.00239762
v -0.01769499 0.01359147 0.00076400
v -0.01890952 0.01152358 0.00073227
v -0.02038806 0.01006955 0.00131612
v -0.02836545 0.02206806 0.01826606
v -0.02814844 0.02302136 0.01912591
v -0.03171952 0.01883993 0.02630584
v -0.02757627 -0.02233142 0.01711548
v -0.03485089 -0.00918348 0.01822617
v -0.03254993 -0.01551696 0.01812726
v -0.03377404 0.01464792 0.02524020
v -0.03380178 0.01348685 0.01997101
v -0.03032666 0.01988161 0.01917412
v -0.03606060 -0.00709104 0.02191826
v -0.03393955 -0.01461141 0.02634820
v -0.03266417 0.01458174 0.01834983
v -0.02934049 0.02207079 0.02092416
v -0.03267893 -0.01665621 0.02085723
v -0.03039994 -0.01986792 0.01887005
v -0.03374474 -0.01344855 0.01891923
v -0.03264541 0.01674182 0.02093916
v -0.03516152 -0.01139646 0.02634525
f 1 2 3
f 6 3 2
f 9 3 6
f 9 7 1
f 9 1 3
f 13 2 1
f 13 1 8
f 14 9 6
f 14 4 9
f 14 6 2
f 16 11 1
f 16 1 7
f 17 8 1
f 17 1 11
f 21 13 8
f 21 14 2
f 21 10 14
f 22 14 10
f 24 8 17
f 24 21 8
f 25 5 18
f 27 18 5
f 30 7 9
f 32 21 2
f 32 2 13
f 32 13 21
f 33 15 10
f 34 22 4
f 34 4 14
f 34 14 22
f 35 22 10
f 35 19 22
f 35 10 23
f 35 5 28
f 36 23 10
f 37 21 24
f 38 12 19
f 38 19 25
f 39 26 18
f 39 18 27
f 40 25 18
f 40 18 26
f 40 38 25
f 40 12 38
f 43 25 19
f 43 35 28
f 43 19 35
f 43 28 5
f 43 5 25
f 44 29 9
f 44 9 4
f 45 22 19
f 45 29 44
f 45 44 4
f 45 4 22
f 46 19 12
f 46 20 29
f 46 45 19
f 46 29 45
f 47 29 20
f 47 30 9
f 47 9 29
f 48 16 7
f 48 7 30
f 48 30 47
f 49 11 16
f 50 15 33
f 50 37 15
f 50 21 37
f 50 33 10
f 50 10 21
f 51 35 23
f 51 5 35
f 51 23 36
f 52 36 10
f 52 10 15
f 52 51 36
f 53 39 11
f 53 26 39
f 53 11 49
f 54 40 26
f 54 12 40
f 54 26 53
f 55 20 41
f 55 48 47
f 55 47 20
f 56 27 5
f 56 51 42
f 56 5 51
f 58 46 12
f 58 41 20
f 58 20 46
f 58 54 41
f 58 12 54
f 59 16 48
f 59 49 16
f 59 31 49
f 59 48 55
f 60 24 17
f 60 17 57
f 60 57 42
f 61 52 15
f 61 15 37
f 61 60 52
f 61 37 24
f 61 24 60
f 62 42 51
f 62 51 52
f 62 60 42
f 62 52 60
f 63 53 49
f 63 49 31
f 63 54 53
f 63 41 54
f 63 55 41
f 63 59 55
f 63 31 59
f 64 56 42
f 64 27 56
f 64 42 57
f 64 39 27
f 64 11 39
f 64 57 17
f 64 17 11

