# https://github.com/mikedh/trimesh
v -0.00705827 -0.03502993 0.01754578
v -0.00697265 -0.03457834 0.01691540
v -0.01713438 -0.00610923 0.00401644
v -0.01938317 -0.00619534 0.00057261
v -0.02752894 -0.02335906 0.01800734
v -0.00712720 -0.01741986 0.00018368
v -0.01976280 -0.02962344 0.01727285
v -0.02542555 -0.00625736 0.01257558
v -0.01726625 -0.00627137 0.00063913
v -0.01715136 -0.01438327 0.00158728
v -0.00710157 -0.01735385 0.00379645
v -0.01328888 -0.03287727 0.01708999
v -0.01345847 -0.03327468 0.01783736
v -0.02740536 -0.01521119 0.01718069
v -0.02391660 -0.00588316 0.00577401
v -0.02178866 -0.00589153 0.00226059
v -0.01215314 -0.01756524 0.00062264
v -0.02408649 -0.02630685 0.01734601
v -0.00740488 -0.02958723 0.01614539
v -0.00677607 -0.02088189 0.00124248
v -0.01004531 -0.03405842 0.01709581
v -0.01019623 -0.03445071 0.01780167
v -0.01994053 -0.02989409 0.01780224
v -0.02648758 -0.01468989 0.01273362
v -0.02109137 -0.00600690 0.00129280
v -0.01756823 -0.01241642 0.00082246
v -0.00877396 -0.01963536 0.00075119
v -0.02721335 -0.02314260 0.01740173
v -0.01412672 -0.01736492 0.00166839
v -0.00683803 -0.02014418 0.00044087
v -0.02427676 -0.02660748 0.01792128
v -0.02793027 -0.02260746 0.01775108
v -0.01868619 -0.01025298 0.00076989
v -0.01987586 -0.02870360 0.01645826
v -0.02757627 -0.02233142 0.01711548
v -0.02063818 -0.00792047 0.00155636
f 9 6 4
f 9 3 6
f 11 6 3
f 15 8 3
f 16 3 9
f 16 15 3
f 17 4 6
f 19 1 2
f 19 2 11
f 19 14 1
f 19 8 14
f 19 11 3
f 19 3 8
f 20 11 2
f 21 2 1
f 21 20 2
f 22 5 13
f 22 14 5
f 22 1 14
f 22 21 1
f 22 13 12
f 22 12 21
f 23 7 12
f 23 12 13
f 24 14 8
f 24 8 15
f 24 15 16
f 25 16 9
f 25 9 4
f 26 17 10
f 27 12 7
f 27 7 17
f 28 18 5
f 28 10 18
f 29 17 7
f 29 18 10
f 29 10 17
f 30 6 11
f 30 11 20
f 30 12 27
f 30 21 12
f 30 20 21
f 30 27 17
f 30 17 6
f 31 23 13
f 31 13 5
f 31 5 18
f 31 18 7
f 31 7 23
f 32 5 14
f 32 14 24
f 32 28 5
f 32 24 16
f 33 4 17
f 33 17 26
f 33 25 4
f 34 29 7
f 34 7 18
f 34 18 29
f 35 26 10
f 35 10 28
f 35 28 32
f 35 33 26
f 35 32 16
f 35 16 25
f 36 35 25
f 36 25 33
f 36 33 35

