# https://github.com/mikedh/trimesh
v 0.03074278 -0.02596547 0.07406957
v 0.03976709 -0.02688105 0.06053811
v -0.01787016 -0.03426517 0.06776228
v -0.01731339 -0.04709199 0.04025883
v 0.01543848 -0.05215822 0.04707370
v 0.03818969 -0.02586138 0.06473402
v 0.02489959 -0.04054943 0.04010187
v 0.00580188 -0.04247184 0.07345702
v 0.02513921 -0.04196908 0.06164414
v 0.00846047 -0.05533760 0.03969156
v 0.02314892 -0.05028529 0.03980078
v -0.01740474 -0.03357793 0.07437963
v 0.03204678 -0.03462240 0.06415084
v 0.01088612 -0.04964461 0.05929557
v 0.02272406 -0.03487568 0.07350018
v 0.01795068 -0.05242709 0.03956121
v 0.02247531 -0.04693856 0.05424210
v 0.01323461 -0.04007432 0.07364568
v -0.01641665 -0.05429608 0.03986456
v 0.03702637 -0.03022610 0.06171615
v 0.03448185 -0.02757075 0.06926491
v 0.00588065 -0.05512795 0.04468119
v 0.02495430 -0.03935613 0.06634732
v 0.01801806 -0.05205466 0.04208020
v 0.02060129 -0.04947942 0.04943922
v 0.01548400 -0.04699266 0.06170750
v 0.02967876 -0.03708803 0.06390516
v -0.00857106 -0.04254799 0.07360878
v -0.01583244 -0.04694394 0.06433398
v -0.01358904 -0.05518815 0.03979682
v 0.03725331 -0.02783924 0.06417055
v 0.03775658 -0.03066631 0.05959489
v 0.03534453 -0.02576836 0.06966994
v 0.03014797 -0.02780061 0.07350826
v 0.03429899 -0.03013011 0.06661575
v 0.00836566 -0.05502298 0.04207876
v 0.00833535 -0.05198794 0.05435062
v 0.01793886 -0.04193819 0.06915683
v 0.02295219 -0.04954761 0.04448751
v 0.00577246 -0.04962767 0.06181518
v -0.01595138 -0.04036449 0.07369782
v -0.01564410 -0.05200290 0.05198368
v 0.02239288 -0.03939492 0.06892445
v 0.01319649 -0.04252168 0.07118962
v -0.00860286 -0.04491655 0.07116065
v 0.00111210 -0.05493411 0.04711725
v -0.01584344 -0.04433392 0.06920542
v -0.01349730 -0.05491256 0.04216509
v 0.00579412 -0.04479057 0.07099443
v 0.01554364 -0.04448065 0.06654317
v -0.00868005 -0.04974968 0.06183561
v -0.00613569 -0.05494495 0.04712524
v -0.01069158 -0.04717608 0.06665461
v -0.01126996 -0.05227202 0.05443769
f 3 2 4
f 6 2 3
f 6 3 1
f 7 4 2
f 11 7 2
f 12 1 3
f 16 7 11
f 16 5 10
f 18 1 12
f 18 15 1
f 19 3 4
f 19 4 7
f 19 7 16
f 24 16 11
f 24 5 16
f 25 14 5
f 26 17 9
f 26 25 17
f 26 14 25
f 27 9 17
f 27 23 9
f 27 13 23
f 28 18 12
f 28 8 18
f 29 12 3
f 29 3 19
f 30 19 16
f 30 16 10
f 30 10 22
f 31 20 2
f 31 2 6
f 31 6 21
f 32 20 13
f 32 11 2
f 32 2 20
f 32 13 27
f 33 21 6
f 33 6 1
f 34 13 21
f 34 23 13
f 34 15 23
f 34 1 15
f 34 33 1
f 34 21 33
f 35 21 13
f 35 13 20
f 35 31 21
f 35 20 31
f 36 22 10
f 36 10 5
f 36 5 22
f 37 22 5
f 37 5 14
f 38 15 18
f 38 26 9
f 38 9 23
f 39 17 25
f 39 11 32
f 39 32 27
f 39 27 17
f 39 24 11
f 39 25 5
f 39 5 24
f 40 37 14
f 41 28 12
f 42 29 19
f 43 38 23
f 43 23 15
f 43 15 38
f 44 38 18
f 44 18 8
f 45 8 28
f 45 28 41
f 46 22 37
f 46 37 40
f 47 41 12
f 47 12 29
f 47 45 41
f 48 42 19
f 48 19 30
f 49 44 8
f 49 40 14
f 49 45 40
f 49 8 45
f 50 26 38
f 50 38 44
f 50 14 26
f 50 49 14
f 50 44 49
f 51 40 45
f 51 46 40
f 52 30 22
f 52 22 46
f 52 48 30
f 52 46 51
f 53 47 29
f 53 45 47
f 53 51 45
f 53 29 51
f 54 51 29
f 54 29 42
f 54 52 51
f 54 42 48
f 54 48 52

