# https://github.com/mikedh/trimesh
v 0.04414308 0.01903374 0.06019401
v 0.05818657 -0.00493118 0.02208329
v 0.04390033 0.03147598 0.02983139
v 0.04397745 0.01135380 0.01035252
v 0.04380831 -0.02864394 0.04741722
v 0.05804133 0.00647027 0.01586040
v 0.04575264 -0.01096852 0.06217078
v 0.04359519 -0.01856247 0.01276729
v 0.04386965 0.02888950 0.04743606
v 0.04393882 0.02898674 0.02248446
v 0.04989446 0.00603428 0.05453940
v 0.04978070 -0.01786515 0.04452750
v 0.04393942 -0.01622342 0.06261733
v 0.04373113 -0.02866528 0.02248498
v 0.05797382 -0.00460527 0.01455514
v 0.04370709 -0.02636684 0.05244850
v 0.04352547 0.01874437 0.01279062
v 0.04713301 0.02568574 0.03968960
v 0.04479619 0.02797426 0.02300838
v 0.05823560 0.00513033 0.02221043
v 0.04953553 -0.00817199 0.05431741
v 0.04504800 -0.01151142 0.06317287
v 0.04705563 -0.02548270 0.03963959
v 0.04391157 0.02634325 0.05245726
v 0.04392340 -0.01121737 0.01018604
v 0.05796765 0.00490382 0.01444012
v 0.04469693 -0.02752536 0.04702620
v 0.04706474 -0.01778361 0.05425455
v 0.04387724 0.03144260 0.03735636
v 0.05814567 0.00689864 0.02047741
v 0.05255947 -0.00618443 0.04470067
v 0.05815354 -0.00640041 0.02044381
v 0.04720355 -0.02557509 0.03002023
v 0.04699560 0.02316231 0.04699473
v 0.04693319 -0.02287895 0.04694595
v 0.04460210 -0.01570786 0.06165476
v 0.04474335 0.03021624 0.03725970
v 0.04472350 0.03028876 0.03002648
v 0.05801988 -0.00610780 0.01606774
v 0.04464814 0.02784920 0.04696695
v 0.04969370 0.01802331 0.04460796
v 0.04692463 0.01806432 0.05433910
v 0.04433941 -0.02541450 0.05185896
v 0.04467324 -0.02758352 0.02309691
v 0.04461678 0.02562339 0.05180077
v 0.04966829 0.01091331 0.05186496
v 0.04482327 0.01830459 0.05932124
v 0.05245615 0.00624100 0.04459220
f 15 14 8
f 16 14 5
f 16 8 14
f 17 16 9
f 17 8 16
f 17 3 10
f 17 10 6
f 19 10 3
f 19 3 6
f 19 6 10
f 21 11 7
f 22 11 1
f 22 7 11
f 22 13 7
f 22 1 13
f 24 13 1
f 24 16 13
f 24 9 16
f 25 15 8
f 25 17 4
f 25 8 17
f 26 6 15
f 26 17 6
f 26 4 17
f 26 25 4
f 26 15 25
f 27 16 5
f 27 5 23
f 28 13 16
f 28 12 21
f 28 21 7
f 29 17 9
f 29 3 17
f 30 20 6
f 31 2 20
f 31 11 21
f 31 21 12
f 31 12 2
f 32 20 2
f 32 2 12
f 32 12 23
f 33 23 5
f 33 5 14
f 33 32 23
f 35 12 28
f 35 27 23
f 35 23 12
f 36 28 7
f 36 7 13
f 36 13 28
f 37 29 9
f 37 18 30
f 37 3 29
f 38 30 6
f 38 6 3
f 38 37 30
f 38 3 37
f 39 14 15
f 39 15 6
f 39 6 20
f 39 20 32
f 39 32 33
f 40 34 18
f 40 37 9
f 40 18 37
f 41 30 18
f 41 18 34
f 41 20 30
f 42 41 34
f 43 16 27
f 43 27 35
f 43 35 28
f 43 28 16
f 44 39 33
f 44 33 14
f 44 14 39
f 45 40 9
f 45 9 24
f 45 34 40
f 45 42 34
f 45 24 1
f 46 20 41
f 46 42 11
f 46 41 42
f 47 1 11
f 47 11 42
f 47 45 1
f 47 42 45
f 48 46 11
f 48 20 46
f 48 31 20
f 48 11 31

