# https://github.com/mikedh/trimesh
v -0.01635948 0.05429733 0.03986337
v -0.01729324 0.04707553 0.04016183
v -0.01680559 0.01945460 0.00181794
v -0.02780689 0.03256393 0.00134289
v -0.04051532 0.03014235 0.04008871
v -0.01592457 0.03990426 0.00256395
v -0.01679105 0.01944472 0.00817766
v -0.02071184 0.04562575 0.04039576
v -0.03770209 0.04236964 0.02539961
v -0.03855042 0.01866683 0.00086800
v -0.01621300 0.03847493 0.00099453
v -0.03941571 0.03151085 0.04034259
v -0.02793935 0.04467935 0.01626719
v -0.04139354 0.02005208 0.01558877
v -0.03763713 0.03752059 0.01616699
v -0.01697542 0.02485250 0.00148993
v -0.03802774 0.04285037 0.03967910
v -0.02042318 0.03727864 0.00140012
v -0.02088189 0.05220933 0.02517844
v -0.03526724 0.02536222 0.00155219
v -0.03025213 0.04010277 0.01178288
v -0.03265014 0.04463981 0.02086411
v -0.03779017 0.03305716 0.01154722
v -0.02214213 0.01963307 0.00153085
v -0.02292324 0.04744510 0.01628332
v -0.01598911 0.05307289 0.02280240
v -0.02783117 0.04993384 0.03709344
v -0.03498852 0.03992097 0.01622217
v -0.02781707 0.04989035 0.03005078
v -0.03797418 0.02087809 0.00133801
v -0.01845975 0.04743485 0.01377971
v -0.02548927 0.04971771 0.02331216
v -0.02098853 0.05274708 0.03966268
v -0.03517371 0.04503209 0.02753747
v -0.01602473 0.04791838 0.01342850
v -0.02091490 0.04973639 0.01864170
v -0.03526800 0.04508828 0.03958318
v -0.03041025 0.04702470 0.02333640
v -0.01835844 0.05240191 0.02303251
f 7 1 2
f 7 6 1
f 7 3 6
f 7 2 5
f 8 2 1
f 10 3 7
f 11 6 3
f 11 10 4
f 12 5 2
f 12 2 8
f 14 10 7
f 14 7 5
f 14 5 9
f 15 14 9
f 16 11 3
f 16 10 11
f 17 12 8
f 17 8 1
f 17 9 5
f 17 5 12
f 18 11 4
f 18 6 11
f 20 4 10
f 21 4 15
f 21 18 4
f 22 15 9
f 22 13 21
f 23 10 14
f 23 14 15
f 23 15 4
f 23 4 20
f 24 16 3
f 24 3 10
f 24 10 16
f 25 13 22
f 25 21 13
f 25 18 21
f 26 19 1
f 26 1 6
f 28 22 21
f 28 21 15
f 28 15 22
f 30 23 20
f 30 20 10
f 30 10 23
f 31 6 18
f 31 18 25
f 32 29 19
f 33 29 27
f 33 1 19
f 33 19 29
f 34 22 9
f 34 9 17
f 35 26 6
f 35 6 31
f 36 31 25
f 36 35 31
f 36 26 35
f 36 25 22
f 36 22 32
f 37 33 27
f 37 17 1
f 37 1 33
f 37 34 17
f 37 27 29
f 37 29 34
f 38 32 22
f 38 22 34
f 38 34 29
f 38 29 32
f 39 36 32
f 39 32 19
f 39 19 26
f 39 26 36

