# https://github.com/mikedh/trimesh
v 0.02489959 -0.04054943 0.04010187
v 0.02314892 -0.05028529 0.03980078
v 0.02455150 -0.02706990 0.00006758
v -0.01696037 -0.02736201 0.00121212
v -0.01731339 -0.04709199 0.04025883
v -0.00869067 -0.04977732 0.01360470
v 0.02537406 -0.02786463 0.01202551
v 0.02107178 -0.04281501 0.04050858
v -0.01679419 -0.02707374 0.00827892
v 0.02015841 -0.04699720 0.01631010
v -0.01333834 -0.03987375 0.00151408
v -0.01358904 -0.05518815 0.03979682
v 0.02269551 -0.04704083 0.01868731
v -0.01627149 -0.03842356 0.00104139
v 0.00580451 -0.04194867 0.00269186
v -0.01641665 -0.05429608 0.03986456
v 0.00846047 -0.05533760 0.03969156
v 0.02262421 -0.04981777 0.02545454
v 0.02300386 -0.03298151 0.00115234
v -0.01586548 -0.04983149 0.01614378
v 0.00839465 -0.05215522 0.01845940
v -0.00854414 -0.04187527 0.00270260
v 0.01088143 -0.03963994 0.00142920
v 0.01095913 -0.05489110 0.03009194
v 0.02278444 -0.04218457 0.01174806
v -0.01588331 -0.03987164 0.00265749
v -0.01330414 -0.04737933 0.01148548
v -0.01367618 -0.05497021 0.02744191
v 0.00611630 -0.04976683 0.01366061
v 0.01299168 -0.05214348 0.02090891
v 0.02028013 -0.03513220 0.00120852
v 0.01810731 -0.05219204 0.02759707
v 0.01095162 -0.05498524 0.03726710
v -0.01578764 -0.05220512 0.02067465
v -0.00603081 -0.05482851 0.02297797
v 0.00582117 -0.05517047 0.02517428
v 0.01069536 -0.04710683 0.01137309
v 0.02025772 -0.04943158 0.02079990
v 0.01543914 -0.03928348 0.00300651
v 0.01558408 -0.05209292 0.02320838
v 0.01795068 -0.05242709 0.03956121
v -0.01120265 -0.05230288 0.01842737
v 0.00111416 -0.05484391 0.02299197
v 0.01315962 -0.04961701 0.01623549
v 0.01790748 -0.04476104 0.01173862
v -0.01123646 -0.05485465 0.02527680
f 8 2 1
f 8 1 5
f 9 5 1
f 9 4 5
f 9 1 7
f 9 7 3
f 9 3 4
f 13 7 1
f 13 3 7
f 14 4 3
f 14 5 4
f 16 12 8
f 16 8 5
f 17 2 8
f 17 8 12
f 18 13 1
f 18 1 2
f 20 5 14
f 22 15 6
f 22 11 15
f 23 15 11
f 23 11 14
f 23 14 3
f 25 13 10
f 25 19 3
f 25 3 13
f 26 20 14
f 26 14 11
f 27 6 20
f 27 22 6
f 27 11 22
f 27 26 11
f 27 20 26
f 28 12 16
f 29 6 15
f 31 23 3
f 31 3 19
f 31 19 25
f 32 18 2
f 33 17 24
f 34 28 16
f 34 16 5
f 34 5 20
f 36 17 12
f 36 12 28
f 36 28 35
f 36 24 17
f 36 21 30
f 37 29 15
f 37 15 23
f 38 10 13
f 38 13 18
f 39 31 25
f 39 23 31
f 39 37 23
f 40 32 24
f 40 30 38
f 40 38 18
f 40 18 32
f 40 36 30
f 40 24 36
f 41 2 17
f 41 17 33
f 41 32 2
f 41 33 24
f 41 24 32
f 42 34 20
f 42 20 6
f 42 6 35
f 43 29 21
f 43 36 35
f 43 21 36
f 43 35 6
f 43 6 29
f 44 21 29
f 44 29 37
f 44 30 21
f 44 38 30
f 44 10 38
f 45 39 25
f 45 25 10
f 45 37 39
f 45 44 37
f 45 10 44
f 46 42 35
f 46 35 28
f 46 28 34
f 46 34 42

