# https://github.com/mikedh/trimesh
v 0.02390078 0.04678483 0.05255216
v 0.04476818 -0.02682629 0.02210388
v 0.04221139 0.03270834 0.02527272
v 0.02325362 0.03331384 0.00120233
v 0.02459718 -0.02710846 0.01143534
v 0.03931635 0.00843958 0.00302786
v 0.02342490 0.04853480 0.02266209
v 0.04276210 -0.00381084 0.05299942
v 0.02320449 0.04817207 0.04967179
v 0.04272876 0.01103746 0.00913252
v 0.02489509 -0.01172448 0.00142727
v 0.02980682 0.04252675 0.01852044
v 0.04282754 0.02819755 0.05208298
v 0.03571573 -0.02769972 0.02153720
v 0.02537097 0.03604360 0.05344517
v 0.02324810 0.04320872 0.01320179
v 0.02768853 0.04722881 0.04205077
v 0.04264045 0.01830177 0.01143285
v 0.04284002 -0.01093689 0.00917179
v 0.03748515 0.01104941 0.00125508
v 0.02777568 0.04737055 0.02761439
v 0.04317691 -0.00367191 0.05210090
v 0.02537406 -0.02786463 0.01202551
v 0.02535571 0.04235956 0.01379101
v 0.04224919 0.03292767 0.04209119
v 0.02974930 0.04484442 0.04703674
v 0.04229024 0.03025621 0.02077005
v 0.03756871 -0.01084566 0.00134094
v 0.03238283 0.02293161 0.00134088
v 0.03000812 0.04464299 0.02301854
v 0.02491757 0.03227865 0.00147379
v 0.02514104 0.04710552 0.04939146
v 0.03535550 0.03798945 0.05202229
v 0.03961086 0.03524503 0.02312160
v 0.04212543 -0.02301163 0.01366308
v 0.03930776 -0.00836828 0.00310495
v 0.03489327 0.01818774 0.00124079
v 0.04219676 0.02328184 0.01370999
v 0.02541826 0.04751253 0.02303868
v 0.02740990 0.03003319 0.00156173
v 0.02777377 0.04466308 0.05183989
v 0.03951293 0.03523257 0.04697213
v 0.03953383 0.03251630 0.01852467
v 0.04041638 -0.02560638 0.01328321
v 0.03968419 0.03283698 0.05192276
v 0.04230242 0.03030931 0.04941921
v 0.03961776 0.02776978 0.01392992
v 0.04233038 -0.02547965 0.01598271
f 9 5 1
f 9 4 5
f 11 5 4
f 14 2 8
f 15 1 5
f 15 5 8
f 15 13 1
f 15 8 13
f 16 9 7
f 16 4 9
f 17 7 9
f 18 2 10
f 18 10 6
f 19 10 2
f 19 6 10
f 20 18 6
f 21 7 17
f 22 13 8
f 22 8 2
f 22 2 13
f 23 14 8
f 23 8 5
f 23 2 14
f 24 4 16
f 24 16 7
f 24 7 12
f 25 13 3
f 25 21 17
f 25 3 21
f 26 25 17
f 27 13 2
f 27 2 18
f 27 3 13
f 28 11 4
f 28 4 20
f 28 23 5
f 28 5 11
f 28 20 6
f 31 24 12
f 31 4 24
f 32 26 17
f 32 17 9
f 32 9 1
f 33 1 13
f 34 3 27
f 34 12 30
f 34 30 21
f 34 21 3
f 35 28 19
f 35 19 2
f 36 28 6
f 36 6 19
f 36 19 28
f 37 20 4
f 37 4 29
f 37 18 20
f 38 27 18
f 38 37 29
f 38 18 37
f 39 30 12
f 39 12 7
f 39 7 21
f 39 21 30
f 40 29 4
f 40 4 31
f 40 31 12
f 41 32 1
f 41 26 32
f 41 33 26
f 41 1 33
f 42 25 26
f 42 26 33
f 43 34 27
f 43 12 34
f 43 40 12
f 44 2 23
f 44 23 28
f 44 28 35
f 45 42 33
f 45 33 13
f 46 13 25
f 46 25 42
f 46 45 13
f 46 42 45
f 47 43 27
f 47 27 38
f 47 38 29
f 47 29 40
f 47 40 43
f 48 44 35
f 48 35 2
f 48 2 44

