# https://github.com/mikedh/trimesh
v 0.02342490 0.04853480 0.02266209
v 0.02453144 0.01168564 0.00884323
v 0.02325362 0.03331384 0.00120233
v -0.01621300 0.03847493 0.00099453
v -0.01748108 0.04479603 0.02095656
v 0.02455243 0.01169883 0.00151644
v 0.00594354 0.04992212 0.01380754
v 0.02523407 0.03844929 0.02152979
v -0.01679105 0.01944472 0.00817766
v 0.02486217 0.01443220 0.00130461
v 0.01788494 0.04479835 0.01170631
v 0.01067006 0.03978743 0.00132300
v -0.01598911 0.05307289 0.02280240
v 0.01420524 0.01168156 0.00866071
v -0.01697542 0.02485250 0.00148993
v 0.01299291 0.05227609 0.02072990
v 0.02285086 0.04224638 0.01167706
v 0.02060490 0.03516361 0.00121946
v -0.00836443 0.04193101 0.00278874
v 0.01318222 0.04984984 0.01625577
v -0.01680559 0.01945460 0.00181794
v 0.01320765 0.05301438 0.02281860
v 0.02260684 0.04716649 0.01862574
v -0.01349598 0.03987284 0.00139656
v 0.00580547 0.04206866 0.00295256
v -0.00852220 0.04997042 0.01386260
v 0.00839434 0.05226808 0.01846101
v 0.01425809 0.01170572 0.00231791
v -0.01578996 0.04995415 0.01624610
v -0.01113402 0.05234169 0.01834253
v -0.01592457 0.03990426 0.00256395
v -0.01580700 0.05228778 0.02080369
f 8 3 1
f 10 4 3
f 10 3 8
f 10 8 2
f 10 2 6
f 13 8 1
f 13 5 8
f 13 4 5
f 14 8 5
f 14 2 8
f 14 5 9
f 14 6 2
f 15 9 5
f 15 5 4
f 15 4 10
f 17 1 3
f 18 3 4
f 18 4 12
f 18 12 11
f 18 17 3
f 18 11 17
f 20 12 7
f 20 11 12
f 21 14 9
f 21 9 15
f 21 15 10
f 21 10 6
f 22 13 1
f 22 1 16
f 23 17 11
f 23 1 17
f 23 11 20
f 23 20 16
f 23 16 1
f 24 19 12
f 24 12 4
f 25 7 12
f 25 12 19
f 26 25 19
f 26 7 25
f 26 19 24
f 27 20 7
f 27 16 20
f 27 22 16
f 28 21 6
f 28 6 14
f 28 14 21
f 29 4 13
f 29 26 24
f 30 13 22
f 30 22 27
f 30 26 29
f 30 27 7
f 30 7 26
f 31 29 24
f 31 24 4
f 31 4 29
f 32 30 29
f 32 29 13
f 32 13 30

