# https://github.com/mikedh/trimesh
v 0.04514185 -0.01154029 0.01164964
v 0.04359519 -0.01856247 0.01276729
v 0.03034475 -0.02562161 0.00131123
v -0.03855042 0.01866683 0.00086800
v -0.04017605 0.01950669 0.01403204
v 0.02455243 0.01169883 0.00151644
v 0.03490610 -0.01802948 0.00131902
v -0.04101918 -0.02777975 0.01052033
v 0.01420782 0.01942602 0.00859159
v 0.04118994 -0.02360874 0.01269508
v 0.03644841 -0.01127379 0.00060112
v -0.04176032 0.01216575 0.01260528
v -0.03532099 -0.02553043 0.00156201
v 0.02453144 0.01168564 0.00884323
v 0.01423600 0.01946292 0.00199671
v 0.03231418 -0.02286131 0.00132811
v 0.03913663 -0.02642854 0.01233832
v 0.04392340 -0.01121737 0.01018604
v -0.03730637 -0.02271025 0.00162026
v -0.02478436 0.01958811 0.00128568
v -0.03881218 0.02006635 0.01287106
f 5 2 1
f 7 1 2
f 9 5 1
f 10 7 2
f 10 2 5
f 10 5 8
f 11 1 7
f 11 4 6
f 12 8 5
f 12 5 4
f 12 4 8
f 13 3 8
f 13 11 3
f 13 4 11
f 14 9 1
f 14 1 6
f 15 6 4
f 15 14 6
f 15 9 14
f 16 7 10
f 16 11 7
f 16 3 11
f 17 10 8
f 17 8 3
f 17 16 10
f 17 3 16
f 18 11 6
f 18 6 1
f 18 1 11
f 19 13 8
f 19 8 4
f 19 4 13
f 20 15 4
f 21 20 4
f 21 4 5
f 21 5 9
f 21 9 15
f 21 15 20

