# https://github.com/mikedh/trimesh
v -0.03647278 -0.01210129 0.07435925
v -0.01593562 -0.04279016 0.07132194
v -0.01731339 -0.04709199 0.04025883
v -0.04048754 -0.02997897 0.04009749
v -0.03739541 -0.03496563 0.06156577
v -0.04067747 -0.01173283 0.06373206
v -0.01820180 -0.03216398 0.07012207
v -0.03484736 -0.02747838 0.07326360
v -0.02105461 -0.05274707 0.03978581
v -0.04136522 -0.02806827 0.04305926
v -0.01830713 -0.03254963 0.07365909
v -0.01595138 -0.04036449 0.07369782
v -0.03528635 -0.01273273 0.07000183
v -0.03029010 -0.03493449 0.07087505
v -0.03997076 -0.01154609 0.07479518
v -0.01641665 -0.05429608 0.03986456
v -0.02782611 -0.04686914 0.05182277
v -0.03797514 -0.04278815 0.03972635
v -0.03521454 -0.01257621 0.07241829
v -0.03718057 -0.02971416 0.06902704
v -0.02296926 -0.03757379 0.07320542
v -0.03021143 -0.03229700 0.07322805
v -0.01598932 -0.05310531 0.04727793
v -0.03532536 -0.04511337 0.03955552
v -0.03229725 -0.03952764 0.06159056
v -0.03768490 -0.03970283 0.05182988
v -0.03735050 -0.02754236 0.07098617
v -0.03242171 -0.03464753 0.06905109
v -0.02308795 -0.03989676 0.07092279
v -0.03775719 -0.02301320 0.07358493
v -0.01833320 -0.04942457 0.05688235
v -0.02535377 -0.04971254 0.04685219
v -0.02090481 -0.05206131 0.04453838
v -0.03227870 -0.04214097 0.05667324
v -0.03748046 -0.04221449 0.04444821
v -0.01830256 -0.03990048 0.07326529
v -0.01595586 -0.05017525 0.05697279
v -0.01823367 -0.04237979 0.07082129
v -0.03283263 -0.04469449 0.04946128
v -0.02278989 -0.04958795 0.05181905
v -0.03513065 -0.04481929 0.04203882
v -0.03486954 -0.04217829 0.05169875
v -0.01834791 -0.05236611 0.04709281
f 6 3 4
f 10 6 4
f 12 3 7
f 12 7 11
f 13 7 3
f 13 3 6
f 15 10 5
f 15 6 10
f 15 1 6
f 15 12 11
f 15 11 1
f 16 4 3
f 18 10 4
f 19 11 7
f 19 7 13
f 19 1 11
f 19 13 6
f 19 6 1
f 22 12 15
f 22 21 12
f 22 14 21
f 23 12 2
f 23 16 3
f 23 3 12
f 24 16 9
f 24 4 16
f 24 18 4
f 26 5 10
f 26 10 18
f 27 15 5
f 27 5 20
f 27 22 8
f 27 14 22
f 28 20 5
f 28 27 20
f 28 14 27
f 28 5 25
f 29 21 14
f 29 28 25
f 29 14 28
f 30 22 15
f 30 8 22
f 30 27 8
f 30 15 27
f 32 24 9
f 33 9 16
f 33 16 23
f 33 32 9
f 34 25 5
f 34 5 26
f 34 29 25
f 34 31 29
f 35 26 18
f 36 2 12
f 36 12 21
f 36 21 29
f 37 23 2
f 38 29 31
f 38 36 29
f 38 2 36
f 38 37 2
f 38 31 37
f 39 32 17
f 39 17 34
f 39 26 35
f 40 17 32
f 40 34 17
f 40 31 34
f 40 32 33
f 40 37 31
f 40 23 37
f 41 35 18
f 41 18 24
f 41 39 35
f 41 24 32
f 41 32 39
f 42 39 34
f 42 34 26
f 42 26 39
f 43 40 33
f 43 33 23
f 43 23 40

