# https://github.com/mikedh/trimesh
v 0.02588920 0.03108243 0.07437264
v 0.03679462 0.03188975 0.06033801
v 0.01087051 0.05230587 0.05191368
v -0.01598911 0.05307289 0.02280240
v -0.01779919 0.03443759 0.06819345
v 0.02342490 0.04853480 0.02266209
v 0.02523554 0.04212529 0.06163366
v 0.03527636 0.03082229 0.06471429
v -0.00869133 0.04516244 0.07112682
v 0.00825194 0.05488176 0.02528524
v 0.02523407 0.03844929 0.02152979
v 0.02261104 0.04984654 0.04446271
v -0.01743435 0.03395313 0.07475583
v 0.02973353 0.03721492 0.06413986
v -0.01352273 0.05515901 0.03979178
v 0.00582994 0.04492085 0.07100322
v 0.00108155 0.05506736 0.02304643
v -0.01681543 0.04537589 0.02189887
v 0.02019112 0.04728920 0.05677226
v 0.01097084 0.05512903 0.03473338
v 0.03588325 0.03357396 0.05978147
v -0.01574944 0.05256805 0.04961767
v 0.02249528 0.03946090 0.06897877
v 0.02533521 0.03282204 0.07343893
v 0.00568509 0.04981786 0.06181379
v 0.00578831 0.04260440 0.07359854
v 0.01555319 0.05219282 0.02298514
v -0.01346574 0.05505889 0.02757601
v 0.02317794 0.03952361 0.02102155
v 0.02057679 0.04969998 0.04939376
v -0.00145716 0.05512698 0.04714214
v 0.01093717 0.05513039 0.03233731
v 0.02257989 0.04996204 0.02515287
v 0.03447341 0.03237304 0.06392180
v -0.01568060 0.04444939 0.06920275
v 0.02487319 0.03955440 0.06636638
v 0.01281279 0.04702942 0.06408201
v 0.01314256 0.04022376 0.07367279
v -0.01087387 0.04256008 0.07346436
v -0.00604827 0.05503631 0.02296789
v 0.01548064 0.05220308 0.04693604
v 0.00597942 0.05516086 0.04465362
v -0.00604493 0.05499525 0.04708290
v 0.01820185 0.05238799 0.02760894
v 0.02073883 0.05019975 0.02295066
v -0.01571520 0.04713760 0.06414713
v 0.01087483 0.04975909 0.05928576
v 0.01795469 0.04206576 0.06908993
v 0.02281608 0.03510924 0.07324418
v 0.01311678 0.04258765 0.07131134
v -0.01589632 0.04044097 0.07379401
v -0.01118929 0.05496715 0.02527058
v 0.01825584 0.05249870 0.03958018
v 0.00578533 0.05260860 0.05451055
v -0.00861960 0.04990682 0.06181934
v -0.01076483 0.04725300 0.06678506
v 0.00836458 0.05506289 0.04209128
v -0.01119025 0.05228191 0.05441891
f 11 6 2
f 11 8 5
f 11 2 8
f 13 8 1
f 13 5 8
f 18 11 5
f 18 5 4
f 21 2 6
f 21 12 7
f 21 7 14
f 21 8 2
f 22 4 5
f 22 5 13
f 22 15 4
f 24 1 8
f 24 8 14
f 24 14 23
f 25 9 16
f 26 13 1
f 26 16 9
f 27 17 10
f 28 4 15
f 28 15 17
f 29 6 11
f 29 11 18
f 29 27 6
f 29 17 27
f 30 19 7
f 30 7 12
f 32 17 15
f 32 10 17
f 33 21 6
f 33 12 21
f 34 21 14
f 34 14 8
f 34 8 21
f 36 23 14
f 36 14 7
f 36 7 23
f 37 25 16
f 38 26 1
f 39 26 9
f 39 9 35
f 40 28 17
f 40 17 29
f 40 29 18
f 40 18 4
f 41 3 30
f 41 30 12
f 42 15 31
f 42 32 15
f 42 20 32
f 42 3 41
f 43 31 15
f 43 15 22
f 44 27 10
f 44 10 32
f 45 33 6
f 45 6 27
f 45 44 33
f 45 27 44
f 46 22 13
f 46 13 35
f 47 37 19
f 47 25 37
f 47 30 3
f 47 19 30
f 48 23 7
f 48 7 19
f 48 19 37
f 49 38 1
f 49 1 24
f 49 24 23
f 49 48 38
f 49 23 48
f 50 16 26
f 50 26 38
f 50 38 48
f 50 48 37
f 50 37 16
f 51 13 26
f 51 26 39
f 51 39 35
f 51 35 13
f 52 40 4
f 52 4 28
f 52 28 40
f 53 41 12
f 53 12 33
f 53 33 44
f 53 44 32
f 53 32 20
f 54 42 31
f 54 3 42
f 54 47 3
f 54 25 47
f 55 9 25
f 55 25 54
f 55 54 31
f 55 31 43
f 56 46 35
f 56 35 9
f 56 55 46
f 56 9 55
f 57 42 41
f 57 41 53
f 57 53 20
f 57 20 42
f 58 55 43
f 58 43 22
f 58 22 46
f 58 46 55

