# https://github.com/mikedh/trimesh
v -0.03996032 0.01422404 0.07477862
v -0.03647278 -0.01210129 0.07435925
v -0.04860813 0.01457978 0.04013538
v -0.06026345 0.01187930 0.04170966
v -0.08390521 -0.00527159 0.06770061
v -0.04661783 -0.01995272 0.04021433
v -0.06500493 0.01145842 0.05731401
v -0.03703298 0.01233107 0.06784505
v -0.07951790 -0.00322896 0.07321370
v -0.05525703 -0.01803219 0.03962595
v -0.03917769 -0.01882004 0.07445296
v -0.04741080 0.01517922 0.04557483
v -0.08388663 0.00523144 0.06773877
v -0.03658419 0.01212911 0.07439987
v -0.03686517 -0.01223583 0.06783413
v -0.06324941 0.00782114 0.04181439
v -0.04235201 -0.02061678 0.05384317
v -0.08221234 -0.00596216 0.06964317
v -0.04247948 0.01516955 0.05944458
v -0.06326515 0.01140706 0.04651174
v -0.08178456 0.00536078 0.07104697
v -0.06327052 -0.00764634 0.04176665
v -0.08409965 0.00404869 0.06539874
v -0.04506788 -0.02047530 0.04586152
v -0.08169896 -0.00515518 0.07091819
v -0.08251874 0.00596895 0.06675646
v -0.07974390 0.00334991 0.07305443
v -0.08415046 -0.00448383 0.06539245
v -0.08213034 0.00622858 0.06945292
v -0.07587418 0.00304295 0.05539882
v -0.07575574 -0.00297193 0.05536287
f 8 6 3
f 10 3 6
f 11 2 1
f 11 1 9
f 12 3 4
f 14 8 1
f 14 1 2
f 15 6 8
f 15 2 11
f 15 14 2
f 15 8 14
f 16 4 3
f 16 3 10
f 17 15 11
f 17 6 15
f 18 17 11
f 18 5 10
f 18 10 17
f 19 12 7
f 19 7 1
f 19 1 8
f 19 8 3
f 19 3 12
f 20 12 4
f 20 7 12
f 21 13 5
f 22 16 10
f 23 4 16
f 24 17 10
f 24 10 6
f 24 6 17
f 25 18 11
f 25 11 9
f 25 5 18
f 25 21 5
f 25 9 21
f 26 7 20
f 26 20 4
f 26 23 13
f 26 4 23
f 27 21 9
f 27 9 1
f 27 1 21
f 28 22 10
f 28 10 5
f 28 5 13
f 28 13 23
f 29 26 13
f 29 13 21
f 29 21 1
f 29 1 7
f 29 7 26
f 30 28 23
f 30 23 16
f 30 16 22
f 31 30 22
f 31 22 28
f 31 28 30

