# https://github.com/mikedh/trimesh
v 0.02765402 0.03054222 0.07354255
v 0.05827905 -0.00680172 0.07130044
v 0.05824174 0.00694252 0.07155207
v 0.02390078 0.04678483 0.05255216
v 0.02076742 -0.02869689 0.06765853
v 0.04808596 0.01377278 0.05473044
v 0.02755088 0.04190745 0.05910297
v 0.03735458 -0.01327604 0.07378623
v 0.01219258 0.03389281 0.07438094
v 0.05760480 0.00544838 0.06330195
v 0.03330432 -0.02784689 0.05334238
v 0.03779498 0.03544732 0.05209798
v 0.03788327 0.01117141 0.07395536
v 0.03226148 -0.02542200 0.07316243
v 0.01222460 0.03354623 0.06914829
v 0.02318473 0.04547063 0.05708185
v 0.05787381 0.00744756 0.06488431
v 0.04370709 -0.02636684 0.05244850
v 0.02974912 0.04235432 0.05428429
v 0.04282754 0.02819755 0.05208298
v 0.02063180 -0.02847586 0.07428877
v 0.03481000 -0.02059821 0.07335989
v 0.02512093 0.04448868 0.05669200
v 0.05775226 -0.00696626 0.06487762
v 0.04863768 -0.01116639 0.05490503
v 0.03453029 -0.02530251 0.07102175
v 0.02584607 0.04568962 0.05218400
v 0.03719649 0.03517948 0.05421252
v 0.03014133 0.04296190 0.05197809
v 0.05749190 -0.00513827 0.06338290
v 0.04238248 -0.02555514 0.05696332
f 7 1 3
f 8 2 3
f 11 5 4
f 13 8 3
f 13 3 1
f 13 1 9
f 15 9 4
f 15 4 5
f 16 4 9
f 16 9 1
f 16 1 7
f 17 3 2
f 17 12 3
f 19 7 3
f 20 10 6
f 20 17 10
f 20 12 17
f 21 13 9
f 21 8 13
f 21 5 11
f 21 11 18
f 21 15 5
f 21 9 15
f 22 14 2
f 22 2 8
f 22 21 14
f 22 8 21
f 23 16 7
f 23 4 16
f 23 7 19
f 24 17 2
f 24 10 17
f 24 2 18
f 25 6 10
f 25 20 6
f 25 18 20
f 26 2 14
f 26 21 18
f 26 14 21
f 27 18 11
f 27 11 4
f 27 4 23
f 28 19 3
f 28 3 12
f 29 20 18
f 29 12 20
f 29 18 27
f 29 28 12
f 29 19 28
f 29 27 23
f 29 23 19
f 30 24 18
f 30 18 25
f 30 25 10
f 30 10 24
f 31 26 18
f 31 18 2
f 31 2 26

