# https://github.com/mikedh/trimesh
v -0.01589632 0.04044097 0.07379401
v -0.01594934 0.04294496 0.07133438
v -0.03752829 0.02765415 0.07076953
v -0.03802774 0.04285037 0.03967910
v -0.01729324 0.04707553 0.04016183
v -0.03004888 0.03988015 0.06418822
v -0.03006156 0.03508515 0.07111247
v -0.01598209 0.05308897 0.04715255
v -0.03537825 0.01291636 0.06992854
v -0.03760322 0.03975466 0.05170780
v -0.02294774 0.03988978 0.07110880
v -0.03769591 0.02301976 0.07367219
v -0.03713463 0.03504820 0.06161017
v -0.01599374 0.04795793 0.06217723
v -0.01635948 0.05429733 0.03986337
v -0.01823791 0.03245941 0.07008550
v -0.04051532 0.03014235 0.04008871
v -0.02528985 0.04972740 0.04689138
v -0.02305325 0.03752673 0.07322940
v -0.01823031 0.04233179 0.07110798
v -0.03249848 0.03003104 0.07326216
v -0.03658419 0.01212911 0.07439987
v -0.03230183 0.03471687 0.06900288
v -0.03500667 0.03978032 0.05674521
v -0.04084682 0.01187248 0.06380499
v -0.02098853 0.05274708 0.03966268
v -0.04139758 0.02818187 0.04301492
v -0.03260522 0.04478594 0.04937557
v -0.02063750 0.04951887 0.05431420
v -0.01840224 0.04732679 0.06187404
v -0.01817849 0.04003860 0.07327125
v -0.03007560 0.03257764 0.07312467
v -0.03998834 0.01168055 0.07479294
v -0.01852661 0.03282895 0.07407076
v -0.03527337 0.01266635 0.07252925
v -0.03491164 0.03730455 0.06150745
v -0.03706449 0.02976110 0.06899717
v -0.03526800 0.04508828 0.03958318
v -0.02088074 0.05246497 0.04221317
v -0.03750974 0.04223351 0.04440981
v -0.03038307 0.04449903 0.05420727
v -0.01836572 0.05236911 0.04699244
v -0.03502801 0.04483774 0.04189059
f 8 1 5
f 11 6 7
f 13 10 3
f 14 2 1
f 14 1 8
f 15 8 5
f 16 9 5
f 16 5 1
f 19 11 7
f 20 1 2
f 20 2 14
f 21 7 3
f 21 3 12
f 21 12 1
f 23 7 6
f 23 3 7
f 24 10 13
f 25 17 5
f 25 5 9
f 26 15 5
f 26 5 17
f 27 10 4
f 27 4 17
f 27 3 10
f 27 17 25
f 28 10 24
f 29 14 8
f 30 20 14
f 30 6 11
f 30 11 20
f 30 14 29
f 31 19 1
f 31 1 20
f 31 20 11
f 31 11 19
f 32 19 7
f 32 7 21
f 32 21 1
f 32 1 19
f 33 1 12
f 33 25 22
f 33 12 3
f 33 27 25
f 33 3 27
f 34 16 1
f 34 33 22
f 34 1 33
f 35 9 16
f 35 34 22
f 35 16 34
f 35 25 9
f 35 22 25
f 36 23 6
f 36 13 23
f 36 24 13
f 36 6 24
f 37 23 13
f 37 13 3
f 37 3 23
f 38 26 17
f 38 17 4
f 38 18 26
f 39 26 18
f 39 8 15
f 39 15 26
f 40 4 10
f 40 10 28
f 41 28 24
f 41 24 6
f 41 30 29
f 41 6 30
f 41 29 18
f 41 18 28
f 42 29 8
f 42 18 29
f 42 39 18
f 42 8 39
f 43 28 18
f 43 18 38
f 43 40 28
f 43 38 4
f 43 4 40

