# https://github.com/mikedh/trimesh
v -0.03910436 0.01895534 0.07446805
v -0.03843179 -0.03334759 0.06225854
v -0.03820775 0.03338835 0.06220360
v -0.03855042 0.01866683 0.00086800
v -0.06391858 -0.00557398 0.04134479
v -0.03841686 -0.03819864 0.01806555
v -0.03881734 -0.02362663 0.07222732
v -0.06023687 0.01280069 0.05744904
v -0.04232900 -0.01080443 0.00130271
v -0.04725237 -0.03280667 0.03977963
v -0.03869286 0.02379712 0.07223276
v -0.04994868 -0.02019564 0.05652987
v -0.04005178 0.03963642 0.02329348
v -0.04141753 0.01382038 0.07444797
v -0.05213855 -0.02052347 0.02082071
v -0.05490125 0.00606902 0.01833289
v -0.03877370 -0.01864253 0.00090094
v -0.03878025 -0.04103581 0.04478484
v -0.04030467 0.02315460 0.07108639
v -0.04208762 -0.02743253 0.06397093
v -0.04973434 -0.02742381 0.04440203
v -0.04467196 -0.02038366 0.06658975
v -0.04020382 0.03997287 0.04461159
v -0.03843800 0.04075930 0.02279351
v -0.04028634 -0.02293200 0.07132061
v -0.03996032 0.01422404 0.07477862
v -0.04722606 -0.03275886 0.02762949
v -0.04230988 0.01084698 0.00131036
v -0.04979172 0.02530016 0.02080201
v -0.05493587 -0.00610818 0.01841940
v -0.04748297 -0.01798141 0.01151035
v -0.03850887 -0.04071684 0.02278983
v -0.04229319 -0.03485060 0.05190633
v -0.04953853 -0.02274848 0.05424441
v -0.06135228 -0.01027049 0.04116363
v -0.04458233 -0.02755093 0.05917362
v -0.04740465 0.03259773 0.02753280
v -0.03990659 0.03754195 0.05176481
v -0.03849670 0.03602723 0.01544807
v -0.03876473 0.04110809 0.04476797
v -0.04202188 -0.02279050 0.06896840
v -0.05005026 -0.02751958 0.02552690
v -0.04014333 -0.03991377 0.04453545
v -0.04474421 0.00122649 0.00295915
v -0.05006546 0.01563645 0.01397793
v -0.06380785 0.00581199 0.04142296
v -0.05496626 -0.01574701 0.02309871
v -0.03979589 -0.01796443 0.00141183
v -0.05225181 -0.01347525 0.01602960
v -0.04726195 -0.02517711 0.01621031
v -0.04493277 -0.03284900 0.02075062
v -0.03879396 -0.03854477 0.05239711
v -0.04234685 -0.03234912 0.05669163
v -0.04491892 0.03503061 0.02539444
v -0.04726558 0.03270768 0.03958974
v -0.04228842 0.03768615 0.04459384
v -0.04212397 0.03250232 0.05672792
v -0.03850083 0.03111965 0.01074910
v -0.03861954 0.03857978 0.05223956
v -0.04233986 -0.03747558 0.04445382
v -0.04009364 -0.03967012 0.02337870
v -0.05005326 0.00842007 0.01164019
v -0.05022652 -0.00848635 0.01140574
v -0.05486717 0.01588519 0.02283920
f 6 3 2
f 7 2 3
f 11 7 3
f 11 1 7
f 14 1 8
f 17 9 4
f 17 4 6
f 19 8 1
f 19 1 11
f 19 11 3
f 19 3 8
f 22 8 5
f 22 5 12
f 25 14 8
f 25 7 14
f 25 8 22
f 25 20 2
f 25 2 7
f 26 14 7
f 26 7 1
f 26 1 14
f 28 4 9
f 30 5 16
f 32 6 2
f 32 2 18
f 33 21 10
f 34 12 5
f 34 21 33
f 35 10 21
f 35 27 10
f 35 34 5
f 35 21 34
f 36 22 12
f 36 20 22
f 36 12 34
f 39 13 24
f 40 3 24
f 40 24 13
f 40 13 23
f 41 25 22
f 41 22 20
f 41 20 25
f 42 35 5
f 42 27 35
f 43 10 27
f 44 28 9
f 44 30 16
f 45 29 4
f 45 4 28
f 46 16 5
f 46 5 8
f 46 37 29
f 46 8 37
f 47 5 30
f 47 42 5
f 47 15 42
f 48 31 9
f 48 9 17
f 48 17 6
f 49 9 31
f 49 47 30
f 49 15 47
f 50 49 31
f 50 15 49
f 50 48 6
f 50 31 48
f 51 50 6
f 51 27 42
f 51 42 15
f 51 15 50
f 52 18 2
f 52 43 18
f 52 33 43
f 53 36 34
f 53 34 33
f 53 2 20
f 53 20 36
f 53 52 2
f 53 33 52
f 54 37 23
f 54 23 13
f 54 29 37
f 54 39 29
f 54 13 39
f 55 37 8
f 55 23 37
f 56 38 23
f 56 8 38
f 56 55 8
f 56 23 55
f 57 38 8
f 57 8 3
f 58 39 24
f 58 4 29
f 58 29 39
f 58 6 4
f 58 24 3
f 58 3 6
f 59 3 40
f 59 57 3
f 59 38 57
f 59 40 23
f 59 23 38
f 60 43 33
f 60 33 10
f 60 10 43
f 61 32 18
f 61 18 43
f 61 43 27
f 61 27 51
f 61 51 6
f 61 6 32
f 62 44 16
f 62 28 44
f 62 45 28
f 62 16 45
f 63 44 9
f 63 30 44
f 63 49 30
f 63 9 49
f 64 45 16
f 64 29 45
f 64 46 29
f 64 16 46

