# https://github.com/mikedh/trimesh
v 0.04086971 -0.02587276 0.05971043
v 0.04307231 -0.02598122 0.05467435
v 0.04575007 0.00139844 0.02321121
v 0.02455150 -0.02706990 0.00006758
v 0.02324595 -0.04806295 0.04969411
v 0.04324473 -0.02597788 0.01789549
v 0.04317691 -0.00367191 0.05210090
v 0.03712171 -0.03499408 0.05416180
v 0.04613299 0.00137118 0.02412839
v 0.02878633 -0.02636217 0.00070313
v 0.02541986 -0.03063795 0.06156801
v 0.04230397 -0.00392765 0.05398579
v 0.03945201 -0.03007121 0.05673958
v 0.02365088 -0.04377241 0.06001933
v 0.04221161 -0.03275396 0.04209452
v 0.04492858 0.00128290 0.02100612
v 0.02342729 -0.04841594 0.02267554
v 0.02805954 -0.02782727 0.06144210
v 0.04224721 -0.02757902 0.05423616
v 0.03480227 -0.03474450 0.05915949
v 0.02973458 -0.04216456 0.05428913
v 0.02307085 -0.04542961 0.05712992
v 0.04529068 0.00135571 0.02189967
v 0.04041638 -0.02560638 0.01328321
v 0.02373157 -0.03124076 0.00053658
v 0.02756569 -0.04708714 0.04200457
v 0.03946005 -0.03519893 0.02301831
v 0.03983991 -0.02786956 0.05921237
v 0.04219837 -0.03019670 0.04937771
v 0.02966172 -0.03980468 0.05923867
v 0.02556796 -0.04275723 0.05952782
v 0.02498235 -0.04438733 0.05668865
v 0.02320275 -0.04304665 0.01315238
v 0.02494230 -0.04703830 0.04944354
v 0.03232362 -0.04241711 0.04700154
v 0.04199822 -0.03261789 0.02538672
v 0.02771595 -0.04716196 0.02755678
v 0.03727839 -0.03523825 0.01849223
v 0.03943356 -0.03520593 0.04693352
v 0.04205351 -0.03009985 0.02079887
v 0.03953956 -0.03002921 0.01625639
v 0.02972398 -0.04237163 0.01850028
v 0.02572010 -0.03076746 0.00125363
v 0.04250128 -0.02776308 0.01841373
v 0.02807133 -0.02822521 0.00118061
v 0.02997109 -0.04446325 0.02312256
v 0.02524421 -0.04220385 0.01377893
v 0.03957456 -0.02763516 0.01392593
v 0.02530001 -0.04736783 0.02293730
f 7 1 2
f 9 2 6
f 9 7 2
f 12 4 11
f 12 1 7
f 12 9 3
f 12 7 9
f 14 1 11
f 15 6 2
f 16 10 4
f 16 4 12
f 18 12 11
f 18 11 1
f 18 1 12
f 19 13 8
f 20 1 14
f 22 14 11
f 23 9 6
f 23 6 16
f 23 3 9
f 23 16 12
f 23 12 3
f 24 16 6
f 24 10 16
f 25 4 10
f 25 22 11
f 25 11 4
f 26 5 17
f 28 19 2
f 28 2 1
f 28 13 19
f 28 1 20
f 28 20 8
f 28 8 13
f 29 15 2
f 29 2 19
f 29 19 8
f 30 20 14
f 30 21 8
f 30 8 20
f 31 14 22
f 31 30 14
f 31 21 30
f 32 22 5
f 32 5 21
f 32 31 22
f 32 21 31
f 33 17 5
f 33 5 22
f 33 22 25
f 34 21 5
f 34 5 26
f 35 8 21
f 35 34 26
f 35 21 34
f 36 6 15
f 36 15 27
f 37 26 17
f 37 27 15
f 37 35 26
f 37 15 35
f 39 29 8
f 39 15 29
f 39 35 15
f 39 8 35
f 40 36 27
f 40 6 36
f 40 27 38
f 42 17 33
f 43 38 42
f 43 33 25
f 44 40 38
f 44 6 40
f 44 38 41
f 44 24 6
f 45 10 24
f 45 38 43
f 45 43 25
f 45 25 10
f 46 27 37
f 46 42 38
f 46 38 27
f 47 43 42
f 47 42 33
f 47 33 43
f 48 44 41
f 48 24 44
f 48 45 24
f 48 41 38
f 48 38 45
f 49 46 37
f 49 37 17
f 49 17 42
f 49 42 46

