# https://github.com/mikedh/trimesh
v 0.07284025 0.00314589 0.07311494
v 0.08308953 -0.00481061 0.06228232
v 0.08121856 0.00641743 0.03801952
v 0.05796765 0.00490382 0.01444012
v 0.05827905 -0.00680172 0.07130044
v 0.07647586 -0.00614166 0.02596318
v 0.05824174 0.00694252 0.07155207
v 0.08310752 0.00501788 0.06228056
v 0.07277691 -0.00639860 0.07105670
v 0.08337986 -0.00293195 0.04051361
v 0.07587190 0.00303349 0.02173942
v 0.05801988 -0.00610780 0.01606774
v 0.05804133 0.00647027 0.01586040
v 0.05837189 0.00316984 0.07331999
v 0.05797382 -0.00460527 0.01455514
v 0.08112493 0.00493932 0.06661833
v 0.08108482 0.00636955 0.06452863
v 0.07261132 -0.00301261 0.07307998
v 0.08113589 -0.00632185 0.03810259
v 0.08337949 -0.00496790 0.04560531
v 0.08328810 0.00486441 0.04311747
v 0.08070395 -0.00300647 0.03091962
v 0.06519414 0.00658418 0.01665758
v 0.07133758 -0.00289086 0.01742646
v 0.07458977 0.00660311 0.07074845
v 0.05841046 -0.00322984 0.07316565
v 0.07676581 -0.00480716 0.07062983
v 0.08120910 -0.00604355 0.06453590
v 0.07700671 -0.00638686 0.06902095
v 0.07876516 -0.00628572 0.03063889
v 0.08339253 0.00317452 0.04055155
v 0.07573959 -0.00247008 0.02164288
v 0.08085289 -0.00472552 0.03325338
v 0.07657741 0.00632326 0.02587226
v 0.06280909 0.00467699 0.01464501
v 0.06975962 -0.00612439 0.01877422
v 0.07701486 0.00480594 0.07073333
v 0.08106444 -0.00464947 0.06660654
v 0.07805497 -0.00451013 0.02650228
v 0.08079166 0.00313631 0.03092590
v 0.08094023 0.00497991 0.03334098
v 0.07139054 0.00285694 0.01729140
v 0.07891062 0.00637098 0.03059778
v 0.06468380 -0.00272978 0.01449050
v 0.06303136 -0.00610710 0.01640962
v 0.07813428 0.00473502 0.02638548
v 0.06933786 0.00500114 0.01693003
v 0.06517558 0.00321357 0.01458774
v 0.06942857 -0.00457677 0.01708444
v 0.06035718 -0.00443896 0.01460104
v 0.06992075 0.00637325 0.01854534
f 13 4 7
f 14 7 5
f 14 1 7
f 15 7 4
f 15 5 7
f 15 12 5
f 16 2 8
f 17 8 3
f 17 16 8
f 18 5 9
f 18 1 14
f 20 8 2
f 20 19 10
f 21 3 8
f 23 13 7
f 23 7 3
f 25 17 3
f 25 3 7
f 25 7 1
f 25 16 17
f 26 18 14
f 26 14 5
f 26 5 18
f 27 1 18
f 27 18 9
f 28 20 2
f 28 19 20
f 29 9 5
f 29 5 19
f 29 19 28
f 29 27 9
f 30 19 5
f 30 5 12
f 31 20 10
f 31 21 8
f 31 8 20
f 32 11 22
f 33 22 10
f 33 10 19
f 33 19 30
f 35 4 13
f 35 13 23
f 36 6 30
f 36 32 6
f 36 24 32
f 37 25 1
f 37 16 25
f 37 1 27
f 38 2 16
f 38 37 27
f 38 16 37
f 38 28 2
f 38 29 28
f 38 27 29
f 39 30 6
f 39 33 30
f 39 22 33
f 39 32 22
f 39 6 32
f 40 31 10
f 40 10 22
f 40 22 11
f 41 3 21
f 41 21 31
f 41 31 40
f 42 32 24
f 42 11 32
f 43 34 23
f 43 23 3
f 43 3 41
f 44 15 4
f 44 42 24
f 45 12 15
f 45 36 30
f 45 30 12
f 46 40 11
f 46 11 34
f 46 34 43
f 46 43 41
f 46 41 40
f 47 35 23
f 47 11 42
f 48 44 4
f 48 4 35
f 48 42 44
f 48 47 42
f 48 35 47
f 49 44 24
f 49 24 36
f 49 45 44
f 49 36 45
f 50 45 15
f 50 15 44
f 50 44 45
f 51 47 23
f 51 23 34
f 51 34 11
f 51 11 47

