# https://github.com/mikedh/trimesh
v -0.01731339 -0.04709199 0.04025883
v -0.01641665 -0.05429608 0.03986456
v -0.01696037 -0.02736201 0.00121212
v -0.03369960 -0.02606882 0.00083754
v -0.04048754 -0.02997897 0.04009749
v -0.01603853 -0.04787540 0.01327173
v -0.01679419 -0.02707374 0.00827892
v -0.03951261 -0.03119951 0.04037453
v -0.01627149 -0.03842356 0.00104139
v -0.03807276 -0.01170863 0.01029957
v -0.01588331 -0.03987164 0.00265749
v -0.02074339 -0.04557673 0.04046232
v -0.03768871 -0.04241227 0.02536168
v -0.01600676 -0.05295928 0.02284828
v -0.02544464 -0.04458994 0.01408004
v -0.03797514 -0.04278815 0.03972635
v -0.03883157 -0.02623695 0.00787218
v -0.02791454 -0.04967580 0.02778156
v -0.02066407 -0.04504078 0.01166311
v -0.02092960 -0.04969443 0.01864926
v -0.03763044 -0.03746619 0.01608907
v -0.02800698 -0.03246378 0.00141526
v -0.02105461 -0.05274707 0.03978581
v -0.04155392 -0.01199778 0.01252012
v -0.02094261 -0.05223759 0.02535928
v -0.03532536 -0.04511337 0.03955552
v -0.01846284 -0.04736687 0.01362235
v -0.02058285 -0.03705318 0.00137524
v -0.03274103 -0.04464950 0.02084881
v -0.03573313 -0.02584754 0.00230190
v -0.03258362 -0.04206786 0.01642876
v -0.04014657 -0.01158033 0.01142458
v -0.01838375 -0.05230394 0.02308727
v -0.03509705 -0.04464033 0.02520862
v -0.02778426 -0.04979518 0.03953601
v -0.03043411 -0.03965945 0.01170631
v -0.02543566 -0.04982232 0.02321761
v -0.03775631 -0.03021995 0.00943723
v -0.03307021 -0.02787663 0.00134816
v -0.03038993 -0.04700035 0.02311892
f 7 1 2
f 8 1 5
f 9 4 3
f 10 5 1
f 10 1 7
f 10 7 3
f 10 3 4
f 11 7 2
f 11 9 3
f 11 3 7
f 12 2 1
f 12 1 8
f 14 11 2
f 14 6 11
f 16 12 8
f 16 8 5
f 16 5 13
f 20 6 14
f 21 13 17
f 22 4 9
f 23 2 12
f 23 12 16
f 24 17 13
f 24 13 5
f 25 14 2
f 25 23 18
f 25 2 23
f 26 16 13
f 27 19 11
f 27 11 6
f 27 6 20
f 27 20 15
f 27 15 19
f 28 19 15
f 28 9 11
f 28 11 19
f 28 22 9
f 29 15 20
f 29 13 21
f 30 17 24
f 31 29 21
f 31 15 29
f 32 24 5
f 32 5 10
f 32 30 24
f 32 10 4
f 32 4 30
f 33 20 14
f 33 14 25
f 34 26 13
f 34 18 26
f 34 13 29
f 35 23 16
f 35 16 26
f 35 26 18
f 35 18 23
f 36 28 15
f 36 22 28
f 36 15 31
f 36 31 21
f 36 21 22
f 37 25 18
f 37 29 20
f 37 33 25
f 37 20 33
f 38 30 21
f 38 21 17
f 38 17 30
f 39 22 21
f 39 21 30
f 39 30 4
f 39 4 22
f 40 34 29
f 40 29 37
f 40 37 18
f 40 18 34

