# https://github.com/mikedh/trimesh
v 0.04165201 0.01335590 0.05151535
v 0.04576667 -0.00433985 0.05051503
v 0.05214171 0.00961385 0.01191615
v 0.04383838 0.02517645 0.00710586
v 0.04038380 -0.02186120 0.04584341
v 0.04713388 0.02340345 0.01330064
v 0.04562997 0.00645320 0.05047273
v 0.04055862 -0.01876441 0.05145226
v 0.04185482 0.02490920 0.02193195
v 0.05222829 -0.00900303 0.01033441
v 0.04886921 0.02043033 0.00767764
v 0.04401574 0.01259916 0.05118440
v 0.05215352 0.00338373 0.01657754
v 0.04091545 0.01364987 0.05055144
v 0.04505506 0.02397174 0.02155215
v 0.04572110 -0.01506435 0.03589815
v 0.04961052 -0.00947555 0.00714963
v 0.05037543 0.01576649 0.01337091
v 0.04736338 0.02350561 0.00758472
v 0.05217441 0.00962697 0.00752971
v 0.04429570 -0.01054951 0.05107739
v 0.05033588 0.01410559 0.01652392
v 0.04733859 0.00337772 0.04244906
v 0.05216944 0.00658424 0.01499168
v 0.05209040 -0.00594541 0.01498003
v 0.04046053 -0.02030989 0.05051941
v 0.04085023 0.01361080 0.04364388
v 0.04233649 0.02521296 0.01878313
v 0.04871423 0.02025699 0.01326259
v 0.04109719 -0.02226366 0.04112604
v 0.05209047 -0.00900498 0.00775722
v 0.04455481 0.02386143 0.00691771
v 0.05058347 0.01583634 0.00758848
v 0.04719988 -0.01045010 0.03589993
v 0.04552881 0.01109614 0.04564538
v 0.05219004 -0.00122478 0.01659804
v 0.05042353 0.00801330 0.02296831
v 0.04270416 -0.01503257 0.05115461
v 0.04569835 0.02354208 0.01972767
v 0.04260022 -0.01977845 0.04074948
v 0.04391496 -0.01341335 0.04888216
v 0.05213861 -0.00745032 0.01340649
v 0.04117018 -0.01821772 0.05114782
v 0.04154370 -0.02159107 0.04084213
v 0.04227386 -0.01649721 0.05049294
v 0.04081559 -0.01971796 0.05030063
f 9 4 5
f 12 2 7
f 14 8 1
f 14 1 9
f 15 6 4
f 15 9 1
f 15 1 12
f 19 4 6
f 21 2 12
f 21 12 1
f 21 1 8
f 22 18 12
f 22 3 18
f 23 13 7
f 23 7 2
f 24 7 13
f 24 20 3
f 24 10 20
f 26 14 5
f 26 8 14
f 27 14 9
f 27 9 5
f 27 5 14
f 28 15 4
f 28 4 9
f 28 9 15
f 29 12 18
f 29 19 6
f 29 11 19
f 30 5 4
f 30 4 17
f 30 26 5
f 31 20 10
f 31 17 20
f 31 30 17
f 31 10 30
f 32 20 17
f 32 17 4
f 32 4 19
f 33 18 3
f 33 3 20
f 33 29 18
f 33 11 29
f 33 20 32
f 33 32 19
f 33 19 11
f 34 16 10
f 35 22 12
f 35 12 7
f 35 7 22
f 36 23 2
f 36 13 23
f 36 2 25
f 36 24 13
f 36 10 24
f 37 24 3
f 37 7 24
f 37 22 7
f 37 3 22
f 38 21 8
f 39 15 12
f 39 12 29
f 39 29 6
f 39 6 15
f 40 10 16
f 41 34 21
f 41 16 34
f 41 21 38
f 42 34 10
f 42 25 2
f 42 2 21
f 42 21 34
f 42 36 25
f 42 10 36
f 43 38 8
f 43 8 26
f 43 26 38
f 44 30 10
f 44 10 40
f 44 40 26
f 44 26 30
f 45 16 41
f 45 41 38
f 45 38 26
f 46 45 26
f 46 26 40
f 46 40 16
f 46 16 45

