# https://github.com/mikedh/trimesh
v 0.02537625 -0.04232620 0.01383380
v 0.02451052 -0.04557052 0.01351896
v 0.02500292 -0.03680640 0.00006499
v -0.01048159 -0.04325534 0.00006230
v -0.01051841 -0.04823363 0.01373675
v 0.00855105 -0.04950545 0.00365143
v 0.02400183 -0.04461686 0.00394321
v 0.00848652 -0.05094477 0.01337439
v 0.01371189 -0.03680241 0.00214004
v 0.01164071 -0.04649465 0.00099054
v -0.00862373 -0.05107067 0.00621495
v 0.02392083 -0.04600137 0.00637537
v 0.02411967 -0.04298732 0.01395251
v 0.02501411 -0.03681602 0.00225307
v 0.01371256 -0.03680772 0.00007420
v -0.01053482 -0.04335334 0.00222739
v 0.01635493 -0.04770666 0.00377641
v 0.02415512 -0.04171953 0.00112298
v -0.01018264 -0.05115555 0.00756908
v -0.01018406 -0.04665916 0.00085553
v 0.00852976 -0.05092860 0.00641303
v 0.01639400 -0.04941051 0.01036181
v 0.01942605 -0.04791139 0.01341363
v -0.01035110 -0.05074122 0.01358709
v 0.01169414 -0.04793065 0.00239742
v 0.02245094 -0.04615149 0.00510144
v 0.02105253 -0.04340188 0.00113800
v -0.01019085 -0.04950805 0.00380137
v 0.00383001 -0.05099358 0.00515338
v 0.01320157 -0.04939972 0.00506196
v 0.02095615 -0.04771343 0.01035715
v 0.01010191 -0.05103991 0.01037494
v 0.01474978 -0.04941855 0.01332541
v -0.00859535 -0.05107189 0.01333752
v 0.02097943 -0.04472867 0.00235097
v -0.00542314 -0.05089684 0.00503134
v 0.01635604 -0.04936418 0.00763605
v 0.02398711 -0.04618159 0.01175801
v 0.01013531 -0.05094512 0.00768690
v -0.01015102 -0.05108612 0.01187227
v 0.02090788 -0.04767144 0.00757276
v 0.02268964 -0.04652309 0.01341480
f 7 3 1
f 9 5 1
f 10 4 3
f 12 7 1
f 12 1 2
f 13 2 1
f 13 1 5
f 14 9 1
f 14 1 3
f 14 3 9
f 15 9 3
f 15 3 4
f 15 4 9
f 16 9 4
f 16 5 9
f 18 3 7
f 19 5 16
f 20 10 6
f 20 4 10
f 23 13 8
f 23 2 13
f 24 13 5
f 24 8 13
f 24 5 19
f 25 6 10
f 26 7 12
f 27 10 3
f 27 3 18
f 28 19 16
f 28 16 4
f 28 4 20
f 28 11 19
f 29 6 21
f 29 19 11
f 30 21 6
f 30 17 26
f 30 25 17
f 30 6 25
f 31 23 22
f 32 19 29
f 33 23 8
f 33 22 23
f 33 32 22
f 33 8 32
f 34 8 24
f 34 32 8
f 34 19 32
f 35 26 17
f 35 7 26
f 35 17 25
f 35 25 10
f 35 10 27
f 35 27 18
f 35 18 7
f 36 29 11
f 36 11 28
f 36 28 20
f 36 20 6
f 36 6 29
f 37 22 32
f 37 30 26
f 38 12 2
f 39 32 29
f 39 29 21
f 39 37 32
f 39 21 30
f 39 30 37
f 40 34 24
f 40 24 19
f 40 19 34
f 41 31 22
f 41 22 37
f 41 38 31
f 41 12 38
f 41 37 26
f 41 26 12
f 42 38 2
f 42 2 23
f 42 23 31
f 42 31 38

