# https://github.com/mikedh/trimesh
v 0.02745341 0.04408905 0.01346637
v 0.02825023 0.04065953 0.01371671
v 0.02596785 0.03968293 0.00060024
v -0.02295811 0.04146493 0.00048203
v -0.02516346 0.04252468 0.01375860
v 0.00398177 0.05168880 0.00629474
v 0.02780817 0.04000022 0.00167506
v 0.02582796 0.04208588 0.01394761
v 0.00857618 0.04722503 0.00095178
v -0.01313770 0.05001358 0.01337516
v 0.02247046 0.04669304 0.00639725
v 0.01532271 0.04063036 0.00005947
v -0.00853585 0.04861346 0.00235300
v 0.01941830 0.04537264 0.00244365
v 0.01327487 0.05011354 0.01338153
v -0.02244107 0.04668743 0.00632220
v 0.02709646 0.04360232 0.00511970
v 0.01478349 0.04563242 0.00087159
v -0.00856890 0.04715209 0.00093541
v 0.00695989 0.05009401 0.00377306
v -0.00546920 0.05173700 0.00748390
v 0.01943354 0.04390259 0.00102428
v 0.01479377 0.05001428 0.00746915
v 0.02246853 0.04679171 0.01334378
v -0.02470901 0.04169296 0.00140855
v -0.02428067 0.04578555 0.01345857
v 0.02550850 0.04514289 0.00636248
v 0.02091180 0.04684236 0.00522592
v 0.02552374 0.04357367 0.00385801
v -0.01485444 0.04552029 0.00092153
v -0.00697198 0.04999167 0.00379071
v 0.01007074 0.04848319 0.00240594
v 0.00551200 0.05170828 0.01179137
v -0.01939470 0.04834911 0.00764948
v 0.02568583 0.04067702 0.00114326
v 0.01158602 0.05000099 0.00495978
v 0.01940975 0.04837989 0.01183861
v -0.02406680 0.04527945 0.00510429
v 0.02558735 0.04515408 0.01333730
v 0.01938142 0.04836198 0.00758739
v 0.02741093 0.04088099 0.00221440
v 0.02243540 0.04513253 0.00383967
v -0.01955269 0.04398855 0.00112395
v -0.01930130 0.04671596 0.00392740
v -0.00387738 0.05156804 0.00622056
v 0.01464769 0.04842971 0.00385442
v 0.00701764 0.05172015 0.01035019
v -0.00387745 0.05175303 0.01187143
v -0.01316528 0.05003031 0.00621361
v -0.01935571 0.04823872 0.01180589
v 0.00702726 0.05165799 0.00761169
v 0.01475261 0.05002117 0.01177221
v -0.02262780 0.04235774 0.00102084
v -0.01482931 0.04698908 0.00238543
v -0.02251563 0.04520374 0.00384724
v -0.00549024 0.05176675 0.01037494
v -0.01162321 0.04994665 0.00515076
v -0.02253287 0.04664985 0.01333067
v -0.02435734 0.04264433 0.00210300
f 5 3 2
f 5 4 3
f 7 1 2
f 7 2 3
f 8 5 2
f 8 2 1
f 10 5 8
f 12 3 4
f 15 10 8
f 17 1 7
f 18 12 9
f 18 3 12
f 19 12 4
f 19 9 12
f 19 13 9
f 20 9 13
f 22 18 14
f 22 3 18
f 24 15 8
f 24 8 1
f 25 4 5
f 26 5 10
f 27 1 17
f 28 27 17
f 28 11 27
f 29 28 17
f 30 19 4
f 30 13 19
f 31 20 13
f 31 6 20
f 32 18 9
f 32 9 20
f 34 16 26
f 35 7 3
f 35 3 22
f 36 20 6
f 36 32 20
f 37 15 24
f 38 25 5
f 38 5 26
f 38 26 16
f 39 27 24
f 39 24 1
f 39 1 27
f 40 28 23
f 40 11 28
f 40 23 37
f 40 27 11
f 40 37 24
f 40 24 27
f 41 29 17
f 41 17 7
f 41 7 35
f 41 35 22
f 41 22 14
f 41 14 29
f 42 29 14
f 42 14 28
f 42 28 29
f 43 30 4
f 44 38 16
f 45 21 6
f 45 6 31
f 46 14 18
f 46 18 32
f 46 32 36
f 46 28 14
f 46 36 23
f 46 23 28
f 47 6 21
f 47 33 15
f 48 10 15
f 48 15 33
f 48 33 47
f 49 34 10
f 49 44 16
f 49 16 34
f 50 10 34
f 51 36 6
f 51 23 36
f 51 47 23
f 51 6 47
f 52 37 23
f 52 15 37
f 52 47 15
f 52 23 47
f 53 43 4
f 53 4 25
f 54 13 30
f 54 30 43
f 54 43 44
f 55 44 43
f 55 38 44
f 56 10 48
f 56 49 10
f 56 21 49
f 56 48 47
f 56 47 21
f 57 31 13
f 57 13 54
f 57 54 44
f 57 44 49
f 57 45 31
f 57 49 21
f 57 21 45
f 58 50 34
f 58 34 26
f 58 26 10
f 58 10 50
f 59 25 38
f 59 38 55
f 59 53 25
f 59 55 43
f 59 43 53

