# https://github.com/mikedh/trimesh
v -0.04126925 -0.01323402 0.05113516
v -0.02426778 -0.03730863 0.05138755
v -0.02587375 -0.03326375 0.04386149
v -0.04699683 -0.02037891 0.02165315
v -0.03918981 -0.02267202 0.05110309
v -0.03239080 -0.03910723 0.02158204
v -0.04095425 -0.01305024 0.04366151
v -0.02611842 -0.03344443 0.05107524
v -0.04370617 -0.01240650 0.05144127
v -0.02464666 -0.03946341 0.04102507
v -0.03956698 -0.03218421 0.02134021
v -0.04399981 -0.02130233 0.02204528
v -0.04242183 -0.01653060 0.05116668
v -0.04722605 -0.01250871 0.03461466
v -0.04437774 -0.01207578 0.05042581
v -0.02572174 -0.03462263 0.04275886
v -0.02428238 -0.03872884 0.04571937
v -0.04239956 -0.02743305 0.02455183
v -0.03347397 -0.03829937 0.02131953
v -0.03401898 -0.03469675 0.02209030
v -0.04226927 -0.01968781 0.04552602
v -0.04460388 -0.01321903 0.03506164
v -0.04613824 -0.01220803 0.04086329
v -0.04391946 -0.01353667 0.05031452
v -0.02681444 -0.03647092 0.04882967
v -0.03456974 -0.02881163 0.05095287
v -0.04573829 -0.02294476 0.02136642
v -0.04237602 -0.02579715 0.02937298
v -0.02551342 -0.03675615 0.05108581
v -0.02538771 -0.03809832 0.04558253
v -0.03314787 -0.03818614 0.02294641
v -0.02983668 -0.03338863 0.05115448
v -0.03767563 -0.03191313 0.02931775
v -0.03462674 -0.03497481 0.02931222
v -0.03926800 -0.03205173 0.02292608
f 8 1 2
f 8 2 3
f 8 7 1
f 8 3 7
f 9 5 2
f 9 2 1
f 13 5 9
f 15 9 1
f 15 1 7
f 15 13 9
f 16 10 6
f 16 3 10
f 17 10 3
f 17 3 2
f 17 6 10
f 20 12 7
f 20 7 3
f 20 19 12
f 20 6 19
f 20 16 6
f 20 3 16
f 21 5 13
f 22 12 4
f 22 4 14
f 22 14 7
f 22 7 12
f 23 15 7
f 23 7 14
f 23 14 15
f 24 15 14
f 24 14 4
f 24 13 15
f 24 21 13
f 24 4 21
f 26 5 18
f 27 11 18
f 27 19 11
f 27 4 12
f 27 12 19
f 27 21 4
f 28 18 5
f 28 5 21
f 28 27 18
f 28 21 27
f 29 17 2
f 30 25 6
f 30 6 17
f 30 29 25
f 30 17 29
f 31 19 6
f 31 6 25
f 31 11 19
f 32 2 5
f 32 5 26
f 32 29 2
f 32 25 29
f 32 31 25
f 34 32 26
f 34 31 32
f 34 26 33
f 34 33 11
f 34 11 31
f 35 33 26
f 35 11 33
f 35 26 18
f 35 18 11

