# https://github.com/mikedh/trimesh
v 0.04736338 0.02350561 0.00758472
v 0.05250409 -0.00597025 0.00752725
v 0.04787898 0.00972016 0.00099056
v 0.02822984 0.02449684 0.00007233
v 0.02465793 -0.04583868 0.00737421
v 0.04270029 0.02335653 0.00092048
v 0.05211549 0.00809520 0.00625241
v 0.03329584 -0.04014652 0.00762680
v 0.02822957 0.02449585 0.00214365
v 0.02456209 -0.04083097 0.00062527
v 0.04880205 0.01571810 0.00380749
v 0.04614636 0.01587791 0.00095779
v 0.04383838 0.02517645 0.00710586
v 0.05241996 0.00810300 0.00749554
v 0.05218813 0.00035108 0.00516747
v 0.05058347 0.01583634 0.00758848
v 0.02590128 -0.04518032 0.00745246
v 0.04165977 -0.02327689 0.00070144
v 0.02500385 -0.02389769 0.00007155
v 0.04718284 0.02191843 0.00517436
v 0.05049086 0.00960039 0.00377223
v 0.04425234 0.02047265 0.00093627
v 0.04418396 0.02353354 0.00246777
v 0.05218249 0.00186675 0.00513818
v 0.03658490 -0.03704702 0.00762685
v 0.05028120 0.01576093 0.00633990
v 0.02698483 -0.04294232 0.00390715
v 0.04787944 -0.00910146 0.00098135
v 0.02427553 -0.04512269 0.00486554
v 0.04899788 0.01115113 0.00232605
v 0.04574525 0.02038863 0.00244357
v 0.04708489 0.02341362 0.00648297
v 0.05095540 -0.00913307 0.00474433
v 0.02868813 -0.04316752 0.00625376
v 0.03462046 -0.03685183 0.00391143
v 0.04906945 -0.00905722 0.00215891
v 0.02500383 -0.02389844 0.00215079
v 0.02711938 -0.04150694 0.00248290
v 0.02553144 -0.04458087 0.00512665
v 0.03636022 -0.03682698 0.00638455
v 0.05213866 -0.00583530 0.00625235
v 0.02886125 -0.04340430 0.00751430
v 0.03320060 -0.03990285 0.00652201
v 0.03670974 -0.03094151 0.00102440
v 0.05059675 -0.00748707 0.00378444
v 0.02879809 -0.03858314 0.00099866
v 0.02584698 -0.04045006 0.00092619
f 12 3 4
f 13 6 4
f 13 4 9
f 13 9 5
f 13 5 1
f 16 2 14
f 16 14 7
f 17 8 1
f 17 1 5
f 19 9 4
f 19 18 10
f 19 4 18
f 22 12 4
f 22 4 6
f 23 6 13
f 23 22 6
f 24 7 14
f 24 14 2
f 24 2 15
f 24 21 7
f 24 3 21
f 25 2 16
f 25 16 1
f 25 1 8
f 26 16 7
f 26 11 20
f 26 1 16
f 26 21 11
f 26 7 21
f 28 18 4
f 28 4 3
f 28 3 24
f 29 19 10
f 30 12 11
f 30 11 21
f 30 21 3
f 30 3 12
f 31 11 12
f 31 12 22
f 31 22 23
f 31 23 20
f 31 20 11
f 32 23 13
f 32 13 1
f 32 20 23
f 32 26 20
f 32 1 26
f 33 2 25
f 36 28 24
f 36 24 15
f 36 33 18
f 36 18 28
f 37 29 5
f 37 5 9
f 37 9 19
f 37 19 29
f 38 29 10
f 38 27 29
f 38 35 27
f 39 17 5
f 39 5 29
f 39 34 17
f 39 29 27
f 39 27 34
f 40 33 25
f 40 18 33
f 41 15 2
f 41 2 33
f 42 8 17
f 42 17 34
f 43 34 27
f 43 27 35
f 43 42 34
f 43 8 42
f 43 35 40
f 43 40 25
f 43 25 8
f 44 10 18
f 44 40 35
f 44 18 40
f 45 36 15
f 45 33 36
f 45 41 33
f 45 15 41
f 46 10 44
f 46 44 35
f 46 35 38
f 47 46 38
f 47 38 10
f 47 10 46

