# https://github.com/mikedh/trimesh
v -0.02428067 0.04578555 0.01345857
v -0.01693777 0.02933549 0.00214689
v -0.01693778 0.04223442 0.00007951
v -0.03348616 0.03451711 0.00101753
v -0.05044497 0.01468791 0.01364357
v -0.03791104 0.01481619 0.00005934
v -0.02428146 0.04573704 0.00627004
v -0.01694873 0.04226427 0.00224586
v -0.04763241 0.01538955 0.01396470
v -0.01693793 0.02933587 0.00007793
v -0.04908331 0.01430262 0.00360044
v -0.02567828 0.04072137 0.00106181
v -0.03947841 0.03423019 0.00760660
v -0.02588275 0.04205825 0.01394267
v -0.03790864 0.01481796 0.00214442
v -0.04627407 0.01441001 0.00082891
v -0.02429958 0.04409481 0.00359526
v -0.03780028 0.03570882 0.01335254
v -0.04724373 0.02343368 0.00767275
v -0.05085158 0.01431719 0.01185819
v -0.04140789 0.02521125 0.00110438
v -0.03025842 0.04057761 0.00384811
v -0.02863958 0.04358251 0.00767811
v -0.03025504 0.04217082 0.01331352
v -0.04406861 0.02808669 0.01338125
v -0.05089550 0.01435387 0.00746137
v -0.04719323 0.02338999 0.01184032
v -0.04599940 0.01585312 0.00102623
v -0.04712894 0.02180431 0.00514811
v -0.04118800 0.02830041 0.00263932
v -0.02563287 0.04363332 0.00388638
v -0.03031373 0.03760485 0.00114033
v -0.03475974 0.03888601 0.01189354
v -0.03473361 0.03886854 0.00754828
v -0.02712887 0.04359682 0.00514753
v -0.02860083 0.04359632 0.01183126
v -0.03946208 0.03426631 0.01182824
v -0.04406363 0.02811499 0.00637256
v -0.05045817 0.01577068 0.00754575
v -0.04899269 0.01889699 0.01339758
v -0.04875244 0.01572067 0.00383017
v -0.03823945 0.02978374 0.00117828
v -0.04239273 0.02947791 0.00517265
v -0.03620788 0.03722948 0.01330689
v -0.03160530 0.04043217 0.00509010
v -0.02548352 0.04507535 0.00624992
v -0.02552106 0.04511823 0.01332810
v -0.05039145 0.01575845 0.01185254
v -0.04244447 0.02806403 0.00386980
f 6 4 3
f 8 1 2
f 8 2 3
f 8 7 1
f 8 3 7
f 10 6 3
f 10 3 2
f 10 2 6
f 14 9 2
f 14 2 1
f 15 6 2
f 15 2 9
f 15 9 5
f 16 15 11
f 16 6 15
f 17 7 3
f 17 3 12
f 20 15 5
f 20 11 15
f 21 4 6
f 21 6 16
f 23 1 7
f 24 18 14
f 24 14 1
f 25 5 9
f 25 9 14
f 25 14 18
f 26 11 20
f 27 25 19
f 28 21 16
f 28 16 11
f 29 21 28
f 30 22 4
f 30 21 29
f 31 17 12
f 31 12 22
f 31 7 17
f 32 22 12
f 32 4 22
f 32 12 3
f 32 3 4
f 34 33 23
f 34 13 33
f 35 31 22
f 35 7 31
f 36 1 23
f 36 33 24
f 36 23 33
f 37 25 18
f 37 33 13
f 37 18 33
f 38 19 25
f 38 29 19
f 38 37 13
f 38 25 37
f 39 26 20
f 39 19 29
f 39 27 19
f 40 5 25
f 40 25 27
f 41 29 28
f 41 28 11
f 41 39 29
f 41 11 26
f 41 26 39
f 42 30 4
f 42 4 21
f 42 21 30
f 43 38 13
f 44 33 18
f 44 18 24
f 44 24 33
f 45 13 34
f 45 43 13
f 45 22 30
f 45 30 43
f 45 35 22
f 45 34 23
f 45 23 35
f 46 35 23
f 46 23 7
f 46 7 35
f 47 36 24
f 47 24 1
f 47 1 36
f 48 20 5
f 48 5 40
f 48 39 20
f 48 40 27
f 48 27 39
f 49 43 30
f 49 30 29
f 49 29 38
f 49 38 43

