# https://github.com/mikedh/trimesh
v -0.04399981 -0.02130233 0.02204528
v -0.01035110 -0.05074122 0.01358709
v -0.02500353 -0.02067239 0.00214442
v -0.04350739 -0.02030543 0.00049585
v -0.03172208 -0.04125635 0.00642479
v -0.04783784 -0.02009378 0.01826765
v -0.01087137 -0.04810073 0.01400532
v -0.03239080 -0.03910723 0.02158204
v -0.01018406 -0.04665916 0.00085553
v -0.04699683 -0.02037891 0.02165315
v -0.04781916 -0.02007978 0.00489508
v -0.02096017 -0.04774747 0.01181176
v -0.04406351 -0.02908083 0.01180085
v -0.03401898 -0.03469675 0.02209030
v -0.01048587 -0.03680337 0.00215096
v -0.02883197 -0.03864791 0.00106083
v -0.02500367 -0.02067293 0.00006772
v -0.04084854 -0.03209251 0.00537570
v -0.03179417 -0.04136978 0.01338771
v -0.01625225 -0.04920617 0.01334710
v -0.01628756 -0.04924974 0.00636793
v -0.04729411 -0.02301498 0.00636880
v -0.04549661 -0.02597289 0.01489314
v -0.04092251 -0.03049705 0.02137940
v -0.04299656 -0.02322547 0.02215690
v -0.01016527 -0.04821678 0.00231768
v -0.01048553 -0.03680292 0.00007494
v -0.04405164 -0.02602602 0.00394932
v -0.04408685 -0.02908905 0.00755302
v -0.03328613 -0.03838255 0.00388050
v -0.02395413 -0.04607717 0.01332923
v -0.02712680 -0.04461361 0.00761647
v -0.04717024 -0.02289113 0.01489813
v -0.04411468 -0.02597636 0.02135942
v -0.03615256 -0.03681155 0.01807047
v -0.01023862 -0.05010025 0.00476093
v -0.02089662 -0.04607701 0.00376413
v -0.02102913 -0.04325157 0.00098273
v -0.04576295 -0.02299731 0.00400955
v -0.04122482 -0.02616326 0.00118232
v -0.03480634 -0.03829375 0.00531103
v -0.04413283 -0.02757548 0.00533373
v -0.02716807 -0.04459499 0.01179550
v -0.02091313 -0.04775438 0.00751668
v -0.04395557 -0.02739120 0.01808169
v -0.04573829 -0.02294476 0.02136642
v -0.03347397 -0.03829937 0.02131953
v -0.03926959 -0.03356499 0.01806299
v -0.02558359 -0.04457586 0.00521521
v -0.01635650 -0.04784807 0.00377171
v -0.02712607 -0.04146200 0.00249365
v -0.04736076 -0.02148008 0.00514771
v -0.03799701 -0.03226194 0.00250171
v -0.04287791 -0.02308526 0.00105528
v -0.04572188 -0.02600138 0.00641507
v -0.01934419 -0.04756072 0.00509551
v -0.04250829 -0.03048944 0.01492758
v -0.02391334 -0.04602077 0.00638823
v -0.01328114 -0.04952151 0.00509361
v -0.01168547 -0.04802885 0.00248099
v -0.01784463 -0.04625638 0.00250596
v -0.02409306 -0.04171775 0.00105023
v -0.02393412 -0.04456418 0.00386716
v -0.03342187 -0.03686495 0.00247818
f 7 3 1
f 8 2 7
f 10 1 3
f 10 3 6
f 11 6 3
f 14 8 7
f 14 7 1
f 15 7 2
f 15 3 7
f 17 11 3
f 17 4 11
f 20 2 8
f 21 20 12
f 21 2 20
f 22 6 11
f 24 8 14
f 25 14 1
f 25 1 10
f 25 24 14
f 25 10 24
f 26 15 2
f 26 9 15
f 27 4 17
f 27 15 9
f 27 17 3
f 27 3 15
f 29 19 13
f 31 20 8
f 31 12 20
f 32 19 5
f 33 10 6
f 33 6 22
f 33 22 13
f 33 13 23
f 34 24 10
f 34 33 23
f 35 13 19
f 36 26 2
f 36 2 21
f 38 16 4
f 38 4 27
f 38 27 9
f 39 11 4
f 40 4 16
f 41 29 18
f 41 5 19
f 41 19 29
f 41 30 5
f 42 28 18
f 42 18 29
f 42 39 28
f 43 31 8
f 43 8 19
f 43 19 32
f 43 32 12
f 43 12 31
f 44 21 12
f 44 12 32
f 45 34 23
f 45 23 13
f 45 24 34
f 46 34 10
f 46 10 33
f 46 33 34
f 47 35 19
f 47 19 8
f 47 8 24
f 48 47 24
f 48 35 47
f 49 32 5
f 49 5 30
f 51 49 30
f 52 22 11
f 52 11 39
f 52 39 42
f 53 40 16
f 53 18 28
f 53 28 40
f 53 41 18
f 54 39 4
f 54 4 40
f 54 40 28
f 54 28 39
f 55 42 29
f 55 52 42
f 55 22 52
f 55 29 13
f 55 13 22
f 56 21 44
f 56 50 21
f 56 37 50
f 56 49 37
f 57 45 13
f 57 24 45
f 57 48 24
f 57 13 35
f 57 35 48
f 58 44 32
f 58 32 49
f 58 56 44
f 58 49 56
f 59 50 36
f 59 36 21
f 59 21 50
f 60 26 36
f 60 36 50
f 60 9 26
f 61 50 37
f 61 37 38
f 61 60 50
f 61 38 9
f 61 9 60
f 62 38 37
f 62 51 16
f 62 16 38
f 63 37 49
f 63 49 51
f 63 62 37
f 63 51 62
f 64 51 30
f 64 16 51
f 64 53 16
f 64 30 41
f 64 41 53

