# https://github.com/mikedh/trimesh
v -0.03080216 0.03178455 0.05136816
v -0.03260096 0.02707405 0.05115550
v -0.02550728 0.03984333 0.02518260
v -0.03535059 0.03803882 0.01347823
v -0.04899269 0.01889699 0.01339758
v -0.03202091 0.03761791 0.02625587
v -0.02535777 0.03959721 0.02674256
v -0.04232073 0.01559408 0.05116479
v -0.03774774 0.02479296 0.05018872
v -0.03000940 0.03923659 0.01375162
v -0.03298786 0.03080937 0.04874015
v -0.03071754 0.03320836 0.04736312
v -0.04368904 -0.00133356 0.05149836
v -0.04286372 0.02977859 0.01341457
v -0.03935731 0.02169606 0.05114122
v -0.02881754 0.03979699 0.01548774
v -0.03177787 0.03120734 0.05108152
v -0.03475480 0.03744027 0.01813334
v -0.04542482 -0.00133042 0.05148227
v -0.04385577 -0.00136877 0.04277577
v -0.03772066 0.03408497 0.01964995
v -0.04714640 0.02171481 0.01643754
v -0.03614102 0.02642709 0.05104157
v -0.03318489 0.03713405 0.02448130
v -0.03162655 0.03247104 0.04715067
v -0.04563455 0.00485137 0.05047006
v -0.04763241 0.01538955 0.01396470
v -0.03607171 0.02779374 0.04716400
v -0.03858927 0.03487125 0.01351711
v -0.04392800 0.01410857 0.04722359
v -0.04226907 0.01859572 0.04553881
v -0.04592273 0.02520317 0.01340966
v -0.04398770 0.01092824 0.05117408
v -0.05044497 0.01468791 0.01364357
v -0.04240801 0.02947227 0.01644668
v -0.04709162 0.01881583 0.02297219
v -0.04571550 0.02506134 0.01492119
v -0.04764275 -0.00127163 0.04085862
v -0.04935263 0.01432004 0.01986767
v -0.04870118 0.01889161 0.01489046
v -0.04597795 -0.00130713 0.05043051
v -0.04735801 0.00021638 0.04241718
v -0.04735630 -0.00132014 0.04244369
v -0.04555320 0.01095522 0.04393824
f 6 3 4
f 7 1 2
f 7 3 6
f 10 5 4
f 12 7 6
f 12 1 7
f 13 2 1
f 13 7 2
f 14 4 5
f 15 8 1
f 16 10 4
f 16 4 3
f 17 1 12
f 18 6 4
f 19 13 1
f 19 1 8
f 20 3 7
f 20 7 13
f 20 16 3
f 20 10 16
f 20 13 19
f 21 11 18
f 23 17 11
f 23 9 15
f 23 15 1
f 23 1 17
f 24 12 6
f 24 6 18
f 25 18 11
f 25 24 18
f 25 12 24
f 25 17 12
f 25 11 17
f 27 10 20
f 28 9 23
f 28 23 11
f 28 11 21
f 29 21 18
f 29 18 4
f 29 4 14
f 31 8 15
f 31 30 8
f 32 14 5
f 32 5 22
f 33 26 19
f 33 19 8
f 33 8 30
f 34 5 10
f 34 10 27
f 34 27 20
f 35 28 21
f 35 9 28
f 35 29 14
f 35 21 29
f 36 31 22
f 36 30 31
f 37 31 15
f 37 22 31
f 37 32 22
f 37 15 9
f 37 9 35
f 37 35 14
f 37 14 32
f 38 34 20
f 40 36 22
f 40 22 5
f 40 30 36
f 40 39 30
f 40 5 34
f 40 34 39
f 41 19 26
f 42 26 34
f 42 34 38
f 42 41 26
f 42 38 41
f 43 38 20
f 43 20 19
f 43 41 38
f 43 19 41
f 44 33 30
f 44 30 39
f 44 26 33
f 44 39 34
f 44 34 26

