# https://github.com/mikedh/trimesh
v 0.03529068 0.03634961 0.02146810
v 0.04628142 0.02374039 0.01666462
v 0.03470547 0.03883853 0.00645404
v 0.01532271 0.04063036 0.00005947
v 0.01532448 0.02933502 0.00214521
v 0.02745341 0.04408905 0.01346637
v 0.04254799 0.03108159 0.01184169
v 0.04126634 0.02573312 0.02219192
v 0.04185643 0.02393339 0.00049245
v 0.03322019 0.04037216 0.01181110
v 0.02767452 0.04295343 0.00470914
v 0.02801722 0.04189193 0.02169231
v 0.04255943 0.02803433 0.02132336
v 0.02822957 0.02449585 0.00214365
v 0.01532536 0.02933448 0.00007902
v 0.04258771 0.02964455 0.00524090
v 0.03331540 0.04039906 0.00764438
v 0.03632666 0.03716094 0.01493854
v 0.02756157 0.04427816 0.00747612
v 0.02741192 0.03938701 0.00104201
v 0.03160174 0.04027421 0.01808069
v 0.02896226 0.03840942 0.02200833
v 0.01532357 0.04063102 0.00214934
v 0.03945915 0.03256245 0.01965815
v 0.04408937 0.02801085 0.01491438
v 0.04505506 0.02397174 0.02155215
v 0.02822984 0.02449684 0.00007233
v 0.04253902 0.03105056 0.00760750
v 0.04620081 0.02376626 0.00504376
v 0.03176260 0.04052970 0.00514314
v 0.02858027 0.04344820 0.01332922
v 0.02869360 0.04362412 0.00752764
v 0.03197880 0.03613394 0.00113520
v 0.03020075 0.04051228 0.02134193
v 0.03303244 0.03876610 0.01960928
v 0.02749592 0.04265272 0.01987271
v 0.03934591 0.03408448 0.01486025
v 0.04573245 0.02649409 0.00761449
v 0.04400543 0.02648481 0.01969615
v 0.04083099 0.03264724 0.00635000
v 0.04271388 0.02811310 0.00398012
v 0.03037391 0.03928737 0.00253055
v 0.02889476 0.04238390 0.00497632
v 0.02865799 0.04197612 0.01970849
v 0.04564012 0.02649682 0.01182949
v 0.04566690 0.02502042 0.00530064
v 0.04440096 0.02516260 0.02138970
v 0.04118432 0.02816511 0.00252668
v 0.03027727 0.04060312 0.00382157
v 0.04558711 0.02498537 0.01652237
v 0.03814854 0.02979235 0.00119984
f 12 8 1
f 15 5 4
f 15 14 5
f 17 10 7
f 18 7 10
f 19 11 4
f 20 9 4
f 20 4 11
f 21 18 10
f 22 12 5
f 22 5 8
f 22 8 12
f 23 4 5
f 23 5 12
f 23 19 4
f 23 6 19
f 24 13 7
f 24 1 13
f 25 7 13
f 26 14 2
f 26 8 5
f 26 5 14
f 26 13 1
f 26 1 8
f 27 15 4
f 27 4 9
f 27 14 15
f 27 9 2
f 27 2 14
f 28 17 7
f 29 2 9
f 30 17 3
f 31 19 6
f 31 21 10
f 32 10 17
f 32 17 30
f 32 31 10
f 32 19 31
f 33 9 20
f 34 12 1
f 35 1 18
f 35 18 21
f 35 34 1
f 35 21 34
f 36 23 12
f 36 6 23
f 36 31 6
f 37 18 1
f 37 1 24
f 37 24 7
f 37 7 18
f 38 2 29
f 38 28 7
f 38 16 28
f 39 25 13
f 40 28 16
f 40 3 17
f 40 17 28
f 40 30 3
f 41 29 9
f 42 20 11
f 42 33 20
f 42 40 33
f 42 30 40
f 43 32 30
f 43 11 19
f 43 19 32
f 44 12 34
f 44 36 12
f 44 31 36
f 44 34 21
f 44 21 31
f 45 2 38
f 45 38 7
f 45 7 25
f 46 38 29
f 46 16 38
f 46 41 16
f 46 29 41
f 47 39 13
f 47 13 26
f 47 26 2
f 48 16 41
f 48 40 16
f 48 33 40
f 48 41 9
f 49 42 11
f 49 11 43
f 49 43 30
f 49 30 42
f 50 2 45
f 50 47 2
f 50 39 47
f 50 45 25
f 50 25 39
f 51 48 9
f 51 9 33
f 51 33 48

