# https://github.com/mikedh/trimesh
v 0.01532684 0.04225324 0.00220159
v 0.02823044 -0.02389872 0.00215544
v 0.02822985 0.02933545 0.00007045
v -0.03789174 0.02610683 0.00007807
v -0.03791108 -0.02067416 0.00218158
v 0.01371102 -0.04325016 0.00006389
v -0.01693778 0.04223442 0.00007951
v 0.02822999 0.02933604 0.00215429
v 0.01371990 -0.04327980 0.00226312
v -0.03792455 0.02612138 0.00230416
v 0.02823040 -0.02389764 0.00006914
v -0.03790902 -0.02067284 0.00005854
v 0.01532385 0.04223646 0.00006396
v 0.02501411 -0.03681602 0.00225307
v -0.01694873 0.04226427 0.00224586
v -0.02500688 -0.03680871 0.00221291
v 0.02500292 -0.03680640 0.00006499
v -0.01048159 -0.04325534 0.00006230
v -0.02500545 -0.03680319 0.00005814
v -0.01049075 -0.04326623 0.00222146
f 8 3 1
f 10 7 4
f 11 8 2
f 11 3 8
f 12 10 4
f 12 5 10
f 13 1 3
f 13 12 4
f 13 4 7
f 14 8 1
f 14 10 9
f 14 1 10
f 14 2 8
f 14 11 2
f 15 10 1
f 15 7 10
f 15 13 7
f 15 1 13
f 16 10 5
f 16 9 10
f 16 5 12
f 17 14 9
f 17 9 6
f 17 11 14
f 17 13 3
f 17 3 11
f 18 6 9
f 19 16 12
f 19 6 18
f 19 17 6
f 19 12 13
f 19 13 17
f 20 18 9
f 20 9 16
f 20 19 18
f 20 16 19

