# https://github.com/mikedh/trimesh
v 0.00554546 0.04308319 0.05139287
v 0.00894978 0.04274473 0.04125631
v -0.01179809 0.05034854 0.01343805
v -0.03371209 0.03948493 0.01344346
v -0.03199230 0.02818959 0.05144946
v 0.00917646 0.04850651 0.01390469
v 0.00573911 0.04137672 0.05154779
v -0.02081056 0.03873665 0.05099776
v 0.00877111 0.05104254 0.01357019
v -0.03397733 0.03182051 0.03010298
v -0.00548510 0.04363040 0.05025733
v -0.02386586 0.04496378 0.01805027
v -0.03010865 0.03267235 0.05113449
v -0.01159359 0.04202831 0.05104969
v -0.03025504 0.04217082 0.01331352
v 0.00855031 0.04518801 0.04073130
v 0.00913122 0.04377664 0.03662044
v -0.03447747 0.03878090 0.01365629
v -0.03228663 0.02849686 0.04267262
v -0.00224770 0.05005266 0.02139762
v -0.01780085 0.04826454 0.01492254
v -0.02382619 0.03703837 0.05111157
v -0.00846072 0.04345167 0.04879001
v -0.01790034 0.04853527 0.01336276
v -0.02690057 0.03540688 0.05041234
v 0.00548648 0.04361156 0.05044449
v 0.00921656 0.04724700 0.02056786
v -0.03386115 0.03010258 0.03650129
v -0.03392998 0.03812824 0.01833053
v -0.00708598 0.04996095 0.01975251
v -0.01929328 0.04659988 0.01965870
v -0.01460450 0.04176038 0.04874550
v -0.02222506 0.03851716 0.04890443
v -0.01172469 0.05009567 0.01495175
v -0.02847118 0.03392967 0.05109831
v -0.02849103 0.04184383 0.01966307
v 0.00864123 0.05010277 0.01815085
v 0.00394315 0.04681486 0.03589142
v 0.00074597 0.04520013 0.04397994
v -0.02994893 0.03385600 0.04712008
v -0.03322493 0.03875202 0.01809882
v -0.03163644 0.03407756 0.04066599
v -0.01151598 0.04344395 0.04555961
v -0.01763759 0.04175665 0.04380638
v -0.02538573 0.04175267 0.02772409
v -0.03008103 0.04192703 0.01486897
v 0.00704730 0.04996864 0.01970729
v -0.00227070 0.04516980 0.04395635
v -0.00084840 0.05003841 0.02137914
v -0.01469261 0.04820704 0.01970204
f 7 5 2
f 7 2 1
f 9 6 4
f 14 7 1
f 14 1 11
f 15 9 4
f 16 1 2
f 17 2 6
f 17 16 2
f 17 9 16
f 18 4 6
f 18 6 10
f 19 10 6
f 19 6 2
f 19 2 5
f 20 9 3
f 22 13 5
f 22 14 8
f 22 5 7
f 22 7 14
f 23 14 11
f 24 3 9
f 24 9 15
f 24 15 12
f 24 12 21
f 26 1 16
f 26 11 1
f 27 17 6
f 27 6 9
f 27 9 17
f 28 18 10
f 28 19 5
f 28 10 19
f 29 4 18
f 29 18 28
f 30 20 3
f 30 11 20
f 30 23 11
f 31 21 12
f 31 12 8
f 32 8 14
f 33 22 8
f 33 8 12
f 33 25 22
f 34 24 21
f 34 3 24
f 34 30 3
f 34 23 30
f 35 25 13
f 35 13 22
f 35 22 25
f 36 12 15
f 37 26 16
f 37 16 9
f 39 11 26
f 39 26 38
f 40 29 13
f 40 13 25
f 41 15 4
f 41 4 29
f 41 40 25
f 41 29 40
f 42 5 13
f 42 13 29
f 42 29 28
f 42 28 5
f 43 32 14
f 43 14 23
f 43 23 34
f 44 31 8
f 44 8 32
f 44 32 21
f 44 21 31
f 45 36 25
f 45 12 36
f 45 33 12
f 45 25 33
f 46 36 15
f 46 25 36
f 46 41 25
f 46 15 41
f 47 37 9
f 47 38 26
f 47 26 37
f 48 39 20
f 48 20 11
f 48 11 39
f 49 39 38
f 49 20 39
f 49 38 47
f 49 47 9
f 49 9 20
f 50 43 34
f 50 34 21
f 50 21 32
f 50 32 43

