# https://github.com/mikedh/trimesh
v 0.03202847 0.03147285 0.05117202
v 0.04453067 0.01271499 0.04894835
v 0.04122863 0.02984318 0.02140549
v 0.00877111 0.05104254 0.01357019
v 0.00573911 0.04137672 0.05154779
v 0.04641270 0.01557446 0.02215498
v 0.02745341 0.04408905 0.01346637
v 0.03927159 0.02323665 0.05034594
v 0.04756112 0.01883548 0.02140051
v 0.00576582 0.04197272 0.04278548
v 0.03465650 0.03559970 0.02610700
v 0.01931082 0.04020671 0.05029986
v 0.02899147 0.04012245 0.01391425
v 0.03450755 0.02933618 0.05021208
v 0.04360612 0.01294363 0.05145561
v 0.04862254 0.01306201 0.02650411
v 0.04232496 0.01708537 0.05116578
v 0.04440096 0.02516260 0.02138970
v 0.00544373 0.04564763 0.04082513
v 0.00917646 0.04850651 0.01390469
v 0.03003632 0.04024222 0.02288819
v 0.01781440 0.04036690 0.05122275
v 0.01793452 0.04863330 0.01338155
v 0.04901539 0.01475364 0.02174093
v 0.03779345 0.02479704 0.05115904
v 0.03151858 0.03242419 0.05020620
v 0.03768675 0.03253487 0.02612086
v 0.04085023 0.01361080 0.04364388
v 0.04405304 0.01416132 0.04886284
v 0.04073632 0.02017945 0.05113766
v 0.00554546 0.04308319 0.05139287
v 0.04611765 0.01382027 0.02699056
v 0.01327487 0.05011354 0.01338153
v 0.03148384 0.03873725 0.02449331
v 0.02532486 0.03707163 0.05015998
v 0.02385618 0.04505334 0.01807752
v 0.04118191 0.01371848 0.05117031
v 0.04749825 0.01275457 0.03271581
v 0.01323927 0.04198374 0.05103114
v 0.02718675 0.04361286 0.01651946
v 0.02694393 0.03558013 0.05105653
v 0.02232666 0.04012385 0.04392314
v 0.00860321 0.04350817 0.04882297
v 0.01630299 0.04171585 0.04879363
v 0.00551283 0.04391806 0.04889233
v 0.01009962 0.04986481 0.01810417
v 0.01622270 0.04822822 0.01809226
v 0.01319255 0.04982444 0.01486848
v 0.00864123 0.05010277 0.01815085
v 0.00550300 0.04532221 0.04238871
f 11 3 7
f 14 8 3
f 15 1 5
f 17 15 2
f 18 3 8
f 18 17 9
f 18 9 7
f 18 7 3
f 19 4 10
f 20 10 4
f 22 5 1
f 24 20 13
f 24 6 20
f 24 16 6
f 24 2 16
f 24 13 7
f 24 7 9
f 25 14 1
f 25 8 14
f 25 1 15
f 26 1 14
f 27 14 3
f 27 3 11
f 27 26 14
f 27 11 26
f 28 5 10
f 28 2 15
f 29 17 2
f 29 9 17
f 29 24 9
f 29 2 24
f 30 18 8
f 30 17 18
f 30 8 25
f 30 25 15
f 30 15 17
f 31 19 10
f 31 10 5
f 31 5 22
f 32 20 6
f 32 10 20
f 32 28 10
f 32 6 16
f 32 16 28
f 33 20 4
f 33 13 20
f 33 23 7
f 33 7 13
f 34 11 7
f 34 7 21
f 34 26 11
f 34 21 26
f 35 26 21
f 36 23 12
f 36 7 23
f 37 28 15
f 37 15 5
f 37 5 28
f 38 28 16
f 38 16 2
f 38 2 28
f 39 31 22
f 39 22 12
f 40 35 21
f 40 21 7
f 40 7 36
f 41 1 26
f 41 26 35
f 41 22 1
f 41 35 12
f 41 12 22
f 42 36 12
f 42 12 35
f 42 40 36
f 42 35 40
f 43 31 39
f 44 39 12
f 44 12 23
f 45 19 31
f 45 31 43
f 46 43 39
f 46 33 4
f 47 44 23
f 47 23 33
f 48 39 44
f 48 46 39
f 48 33 46
f 48 47 33
f 48 44 47
f 49 46 4
f 49 43 46
f 50 19 45
f 50 45 43
f 50 43 49
f 50 49 4
f 50 4 19

