# https://github.com/mikedh/trimesh
v 0.00899611 -0.04073513 0.05146749
v 0.00869525 -0.04238764 0.05146406
v 0.00877979 -0.05084446 0.01363079
v -0.03333427 -0.03711200 0.01375222
v -0.02553102 -0.03427035 0.05141786
v 0.00918555 -0.04818757 0.01401301
v -0.03198468 -0.03090306 0.04149071
v -0.01617897 -0.04130269 0.05102211
v -0.03051746 -0.03111306 0.04248129
v -0.03181918 -0.03840834 0.02613825
v -0.03401772 -0.03624057 0.01553023
v -0.00076683 -0.04461942 0.04721397
v -0.02426778 -0.03730863 0.05138755
v 0.00917688 -0.04114981 0.04274405
v -0.01488102 -0.04962594 0.01339915
v -0.03387979 -0.03441208 0.02361561
v -0.03247233 -0.04084454 0.01357028
v 0.00853287 -0.04312742 0.05037243
v -0.00858113 -0.04295856 0.05117624
v -0.03039404 -0.03554533 0.04083214
v -0.02257372 -0.04615892 0.01654284
v -0.00382900 -0.05102934 0.01652984
v 0.00552664 -0.05136596 0.01343820
v -0.02390862 -0.03810967 0.05039855
v 0.00692510 -0.04304352 0.05113423
v -0.01001912 -0.04602434 0.03584524
v -0.03226342 -0.03123567 0.03979878
v -0.01783958 -0.04770405 0.01813357
v -0.02889585 -0.04333859 0.01338823
v -0.00704368 -0.05128922 0.01339979
v -0.00080839 -0.05104170 0.01657213
v 0.00226159 -0.04459356 0.04720949
v 0.00848317 -0.04931300 0.02134632
v -0.02088972 -0.03972306 0.05025010
v -0.01321001 -0.04599204 0.03260245
v -0.01955049 -0.04801300 0.01341306
v -0.01480170 -0.04934525 0.01493190
v -0.02844360 -0.04294555 0.01647706
v -0.00698398 -0.05098645 0.01492808
v 0.00549343 -0.05107912 0.01496568
v -0.02264367 -0.03854846 0.05106653
v -0.01942250 -0.04776428 0.01494204
v -0.01477645 -0.04764918 0.02296940
v -0.03161905 -0.03973310 0.02133534
v 0.00687239 -0.04612284 0.03748319
v 0.00546073 -0.04938526 0.02299353
f 1 2 3
f 5 2 1
f 6 1 3
f 6 3 4
f 9 7 5
f 9 5 1
f 11 6 4
f 13 2 5
f 14 9 1
f 14 1 6
f 14 7 9
f 14 6 11
f 16 14 11
f 16 7 14
f 17 11 4
f 17 16 11
f 17 10 16
f 18 3 2
f 19 13 8
f 19 2 13
f 20 13 5
f 20 5 7
f 20 16 10
f 22 12 19
f 23 4 3
f 24 20 10
f 24 13 20
f 25 18 2
f 25 2 19
f 25 19 12
f 26 19 8
f 27 20 7
f 27 7 16
f 27 16 20
f 29 17 4
f 29 4 23
f 30 23 22
f 30 29 23
f 30 15 29
f 31 12 22
f 31 22 23
f 32 12 31
f 32 25 12
f 32 18 25
f 33 3 18
f 34 24 21
f 34 28 8
f 35 26 8
f 36 15 28
f 36 29 15
f 36 21 29
f 37 28 15
f 37 8 28
f 37 26 35
f 37 15 30
f 38 29 21
f 38 21 24
f 39 30 22
f 39 22 19
f 39 19 26
f 39 37 30
f 39 26 37
f 40 32 31
f 40 31 23
f 40 23 3
f 40 3 33
f 41 34 8
f 41 8 13
f 41 13 24
f 41 24 34
f 42 34 21
f 42 28 34
f 42 36 28
f 42 21 36
f 43 37 35
f 43 35 8
f 43 8 37
f 44 38 24
f 44 24 10
f 44 10 17
f 44 17 29
f 44 29 38
f 45 33 18
f 45 18 32
f 46 45 32
f 46 32 40
f 46 40 33
f 46 33 45

