# https://github.com/mikedh/trimesh
v -0.04368904 -0.00133356 0.05149836
v -0.04169982 -0.01278343 0.05146434
v -0.03790864 0.01481796 0.00214442
v -0.04627407 0.01441001 0.00082891
v -0.05221404 -0.00905968 0.00759959
v -0.04530049 0.01514903 0.02680431
v -0.04372862 0.01026213 0.04156291
v -0.04565996 -0.00594529 0.05036005
v -0.03790902 -0.02067284 0.00005854
v -0.03791104 0.01481619 0.00005934
v -0.05219398 0.00962013 0.01033746
v -0.04888126 -0.01991154 0.01337948
v -0.04542482 -0.00133042 0.05148227
v -0.04090462 -0.01315056 0.04532774
v -0.04776591 -0.00908637 0.00095743
v -0.05062269 0.01427723 0.00630013
v -0.05215904 -0.00279880 0.01657400
v -0.04644223 0.00969246 0.04091635
v -0.04412191 -0.01197577 0.05113335
v -0.04214099 -0.01954648 0.03490512
v -0.03791108 -0.02067416 0.00218158
v -0.04724902 -0.01977761 0.00391233
v -0.05208261 0.00801441 0.00639438
v -0.05221230 -0.00905562 0.01188393
v -0.04597795 -0.00130713 0.05043051
v -0.05040578 0.01410808 0.01492906
v -0.04504003 -0.01860567 0.03448500
v -0.04326586 -0.02091883 0.02672317
v -0.04874186 -0.01978349 0.00641124
v -0.05041398 -0.01364592 0.00529308
v -0.04439772 -0.01996034 0.00102728
v -0.05207901 0.00958051 0.00754634
v -0.05063419 -0.00745733 0.00376719
v -0.05069406 0.00811163 0.00379889
v -0.05215965 0.00180757 0.01658013
v -0.05047821 -0.01517452 0.00635811
v -0.05217042 -0.00594728 0.01497256
v -0.04562014 -0.01199995 0.04397824
v -0.05207643 0.00801886 0.01337389
v -0.04793700 0.01445019 0.02636588
v -0.04616033 -0.01996266 0.02630995
v -0.04887652 -0.01523560 0.00374795
v -0.04609266 -0.01534347 0.00095647
v -0.05212797 -0.00751799 0.00627861
v -0.05053286 0.01266830 0.00511353
v -0.04770004 0.00960787 0.00100011
v -0.05032695 -0.01514658 0.01493953
v -0.04884574 -0.01823135 0.00528614
v -0.05046366 -0.00752750 0.02297612
v -0.04557178 -0.01825129 0.03266484
v -0.05206644 0.00641977 0.01495853
v -0.04876683 0.01412007 0.02294094
v -0.04728941 -0.01986114 0.02137987
v -0.04901500 -0.01060980 0.00244602
v -0.04908331 0.01430262 0.00360044
v -0.04713332 -0.01056944 0.03753820
v -0.04885506 0.00495311 0.03269577
v -0.04912718 0.00963799 0.00234715
v -0.04732354 0.00486926 0.04073421
f 7 1 2
f 7 2 3
f 7 3 6
f 10 6 3
f 10 4 6
f 10 3 9
f 13 2 1
f 13 1 7
f 14 3 2
f 15 10 9
f 15 4 10
f 16 6 4
f 18 7 6
f 18 13 7
f 19 13 8
f 19 2 13
f 20 14 2
f 21 9 3
f 21 3 14
f 21 14 20
f 23 5 11
f 24 11 5
f 25 17 8
f 25 8 13
f 25 13 18
f 26 16 11
f 26 6 16
f 27 20 2
f 27 2 19
f 28 21 20
f 28 9 21
f 28 20 27
f 29 28 12
f 29 9 28
f 31 29 22
f 31 9 29
f 32 23 11
f 32 11 16
f 32 16 23
f 34 15 33
f 35 24 17
f 35 11 24
f 35 17 25
f 36 24 5
f 36 29 12
f 37 8 17
f 37 17 24
f 38 19 8
f 39 26 11
f 39 18 26
f 40 18 6
f 40 6 26
f 41 28 27
f 41 12 28
f 42 31 22
f 43 15 9
f 43 9 31
f 43 31 42
f 44 5 23
f 44 34 33
f 44 23 34
f 44 33 30
f 44 36 5
f 44 30 36
f 45 34 23
f 45 23 16
f 46 4 15
f 46 15 34
f 47 36 12
f 47 24 36
f 48 22 29
f 48 29 36
f 48 42 22
f 48 36 30
f 48 30 42
f 49 37 24
f 49 8 37
f 50 27 19
f 50 19 38
f 51 39 11
f 51 11 35
f 51 18 39
f 52 40 26
f 52 26 18
f 52 18 40
f 53 41 27
f 53 12 41
f 53 27 50
f 53 50 38
f 53 47 12
f 53 38 47
f 54 33 15
f 54 43 42
f 54 15 43
f 54 42 30
f 54 30 33
f 55 45 16
f 55 16 4
f 55 34 45
f 56 47 38
f 56 24 47
f 56 49 24
f 56 38 8
f 56 8 49
f 57 51 35
f 57 35 25
f 58 46 34
f 58 34 55
f 58 55 4
f 58 4 46
f 59 57 25
f 59 25 18
f 59 18 51
f 59 51 57

