# https://github.com/mikedh/trimesh
v 0.04180754 -0.01120318 0.05148237
v 0.03951466 -0.02142079 0.05108408
v 0.03809095 -0.03213210 0.00719920
v 0.02945635 -0.04002849 0.00660295
v 0.00869525 -0.04238764 0.05146406
v 0.03466120 -0.03822103 0.01492002
v 0.00918555 -0.04818757 0.01401301
v 0.03976711 -0.02467461 0.04084571
v 0.03779915 -0.02423186 0.05117705
v 0.03658490 -0.03704702 0.00762685
v 0.04186000 -0.00959401 0.04326812
v 0.03730549 -0.03288417 0.00691721
v 0.01942605 -0.04791139 0.01341363
v 0.04193020 -0.01290340 0.04233909
v 0.02552555 -0.03653047 0.05027902
v 0.03912491 -0.02267761 0.05034495
v 0.03623313 -0.03508089 0.02127949
v 0.00940876 -0.04026233 0.04362746
v 0.00924163 -0.04039334 0.05114904
v 0.02568374 -0.04271837 0.00695159
v 0.00877979 -0.05084446 0.01363079
v 0.02711977 -0.04457247 0.01035114
v 0.02696307 -0.03520270 0.05111913
v 0.01629950 -0.04127043 0.04877123
v 0.03763904 -0.02720647 0.04231551
v 0.03632797 -0.03669568 0.01495410
v 0.00853269 -0.04963195 0.01981289
v 0.04178449 -0.00956413 0.04549875
v 0.02465793 -0.04583868 0.00737421
v 0.03165378 -0.04132811 0.01181669
v 0.02546071 -0.04440526 0.01647463
v 0.01781400 -0.04001741 0.05117387
v 0.03152593 -0.03191817 0.05020217
v 0.00853287 -0.04312742 0.05037243
v 0.01311544 -0.04929851 0.01650468
v 0.03168183 -0.04139418 0.00764111
v 0.01324617 -0.04987984 0.01342242
v 0.02241856 -0.04599524 0.01645622
v 0.02859686 -0.04294846 0.01484845
v 0.03450432 -0.02874085 0.05056424
v 0.03460263 -0.03664950 0.02127445
v 0.01320831 -0.04158598 0.05115053
v 0.01007296 -0.04933079 0.01973919
v 0.01779979 -0.04756638 0.01807287
v 0.01154448 -0.04279596 0.04878736
v 0.02705604 -0.04450692 0.00751200
v 0.01930467 -0.03969873 0.05042439
v 0.01007977 -0.04286880 0.05020330
v 0.01931930 -0.04765463 0.01491288
v 0.01309155 -0.04758645 0.02455058
f 8 1 2
f 9 2 1
f 9 1 5
f 10 3 8
f 11 3 7
f 12 7 3
f 12 10 4
f 12 3 10
f 14 8 3
f 14 1 8
f 14 11 1
f 14 3 11
f 16 8 2
f 16 2 9
f 18 11 7
f 19 5 1
f 19 18 5
f 20 12 4
f 20 7 12
f 21 7 20
f 23 9 5
f 25 16 9
f 25 8 16
f 25 17 8
f 26 10 8
f 26 8 17
f 27 18 7
f 27 7 21
f 28 19 1
f 28 1 11
f 28 11 18
f 28 18 19
f 29 20 4
f 29 21 20
f 29 22 13
f 30 26 6
f 30 10 26
f 32 23 5
f 32 15 23
f 33 23 15
f 33 26 17
f 33 30 6
f 34 5 18
f 34 18 27
f 36 4 10
f 36 30 22
f 36 10 30
f 37 29 13
f 37 21 29
f 37 35 21
f 38 13 22
f 38 22 31
f 38 31 15
f 39 15 31
f 39 33 15
f 39 30 33
f 39 31 22
f 39 22 30
f 40 33 17
f 40 17 25
f 40 25 9
f 40 9 23
f 40 23 33
f 41 33 6
f 41 6 26
f 41 26 33
f 42 32 5
f 42 5 34
f 42 24 32
f 43 27 21
f 43 21 35
f 44 37 13
f 44 35 37
f 45 44 24
f 46 29 4
f 46 4 36
f 46 36 22
f 46 22 29
f 47 38 15
f 47 15 32
f 47 32 24
f 47 24 44
f 48 34 27
f 48 27 43
f 48 43 35
f 48 42 34
f 48 45 24
f 48 24 42
f 49 44 13
f 49 13 38
f 49 47 44
f 49 38 47
f 50 35 44
f 50 44 45
f 50 48 35
f 50 45 48

