# https://github.com/mikedh/trimesh
v 0.04044611 -0.01625086 0.04247192
v 0.04777095 -0.00912619 0.03442117
v 0.04797387 -0.00295686 0.02668778
v 0.04274723 -0.00937970 0.00007082
v 0.03705731 -0.03597870 0.00613426
v 0.05046713 -0.01523113 0.00760453
v 0.02878958 -0.03261459 0.04207424
v 0.04529740 -0.00962248 0.03488230
v 0.03785517 -0.02738223 0.04075202
v 0.05113413 -0.00283671 0.02152114
v 0.04135663 -0.02467487 0.00106748
v 0.04274998 -0.00938067 0.00217682
v 0.03791268 -0.02389003 0.00004399
v 0.04461896 -0.01525378 0.04086717
v 0.03391638 -0.03436740 0.03120797
v 0.04561465 -0.02604559 0.01182914
v 0.05017200 -0.00286898 0.02650073
v 0.05046115 -0.01367297 0.01495997
v 0.05095540 -0.00913307 0.00474433
v 0.04884064 -0.00305354 0.02201262
v 0.04561342 -0.02606617 0.00771542
v 0.02829654 -0.03366333 0.04116420
v 0.03704851 -0.02961724 0.00050695
v 0.04696852 -0.00924442 0.00035352
v 0.04087093 -0.02283839 0.04070106
v 0.03783036 -0.03519783 0.01497339
v 0.05083319 -0.00280084 0.02309008
v 0.05054829 -0.00584120 0.02300559
v 0.04710042 -0.01200265 0.03424349
v 0.04886308 -0.01983827 0.01041725
v 0.04886455 -0.01513300 0.00380467
v 0.05047003 -0.01520103 0.01188094
v 0.04255070 -0.02899265 0.00528478
v 0.02897845 -0.03449796 0.03653408
v 0.03347238 -0.03233116 0.04081548
v 0.04906945 -0.00905722 0.00215891
v 0.04547959 -0.02281704 0.02134378
v 0.04234944 -0.02732743 0.02286020
v 0.03707838 -0.03593147 0.01511856
v 0.04252404 -0.03049369 0.01180624
v 0.05031871 -0.01046717 0.01974511
v 0.04867382 -0.01516316 0.02133117
v 0.04732402 -0.02283444 0.00761294
v 0.05051955 -0.01211742 0.00513202
v 0.04627001 -0.01528541 0.00113331
v 0.04886532 -0.01986380 0.00898453
v 0.04246039 -0.03048978 0.00764686
v 0.04584145 -0.01977739 0.00263820
v 0.04116808 -0.02767187 0.00256486
v 0.03760914 -0.03370744 0.02124988
v 0.04894535 -0.01056816 0.00237118
v 0.04226357 -0.02111185 0.03900320
v 0.04723352 -0.02131211 0.01652161
v 0.04391990 -0.02423780 0.02449706
v 0.03787490 -0.03523806 0.00633491
v 0.04243236 -0.02887608 0.01806345
v 0.04888830 -0.01824386 0.01495988
v 0.04727183 -0.02124478 0.00532939
v 0.04730606 -0.02286422 0.01188711
v 0.03827585 -0.02926107 0.00111651
v 0.03617179 -0.03039544 0.03742635
v 0.04409037 -0.01658186 0.04072048
v 0.04090364 -0.03199682 0.00653511
v 0.04083394 -0.03041104 0.01966836
f 7 1 3
f 8 1 2
f 8 2 3
f 8 3 1
f 9 1 7
f 12 7 3
f 12 3 4
f 12 4 7
f 14 2 1
f 17 3 2
f 20 10 4
f 20 4 3
f 22 7 4
f 22 4 13
f 24 13 4
f 24 23 13
f 24 11 23
f 24 4 10
f 25 14 1
f 25 1 9
f 27 17 10
f 27 3 17
f 27 20 3
f 27 10 20
f 28 17 2
f 28 10 17
f 29 2 14
f 32 6 19
f 32 19 10
f 32 10 18
f 34 15 22
f 34 23 5
f 34 22 13
f 34 13 23
f 35 22 15
f 35 9 7
f 35 7 22
f 36 24 10
f 36 10 19
f 38 25 9
f 39 34 5
f 39 15 34
f 39 35 15
f 40 21 16
f 41 28 2
f 41 18 10
f 41 10 28
f 41 29 18
f 41 2 29
f 42 29 14
f 42 18 29
f 44 19 6
f 44 6 31
f 45 11 24
f 46 32 30
f 46 6 32
f 46 43 6
f 47 33 21
f 47 21 40
f 48 45 31
f 48 11 45
f 49 11 48
f 49 33 5
f 50 39 26
f 50 35 39
f 51 36 19
f 51 31 45
f 51 45 24
f 51 24 36
f 51 44 31
f 51 19 44
f 53 37 16
f 54 25 38
f 54 52 25
f 54 37 52
f 54 38 16
f 54 16 37
f 55 39 5
f 55 26 39
f 55 40 26
f 55 47 40
f 55 5 33
f 56 40 16
f 56 16 38
f 56 38 9
f 57 32 18
f 57 18 42
f 57 42 14
f 57 30 32
f 58 31 6
f 58 6 43
f 58 48 31
f 58 49 48
f 58 33 49
f 58 43 21
f 58 21 33
f 59 16 21
f 59 21 43
f 59 43 46
f 59 46 30
f 59 53 16
f 59 57 53
f 59 30 57
f 60 23 11
f 60 11 49
f 60 49 5
f 60 5 23
f 61 9 35
f 61 35 50
f 62 52 37
f 62 14 25
f 62 25 52
f 62 37 53
f 62 57 14
f 62 53 57
f 63 55 33
f 63 33 47
f 63 47 55
f 64 56 9
f 64 50 26
f 64 26 40
f 64 40 56
f 64 61 50
f 64 9 61

