# https://github.com/mikedh/trimesh
v -0.01972167 0.03447266 0.06740147
v -0.02053771 0.03141685 0.06719589
v -0.02046490 0.02709750 0.03520953
v -0.03908567 0.03343214 0.03469071
v -0.06171072 0.00430665 0.06396453
v -0.01962875 0.04343318 0.03490144
v -0.02076840 0.02824513 0.06108640
v -0.05356050 0.00873859 0.06704128
v -0.03703059 0.02940609 0.06088382
v -0.05179863 0.01241510 0.03508067
v -0.01937504 0.04087443 0.04780860
v -0.03685873 0.01360404 0.03504007
v -0.04762505 0.01092883 0.06731387
v -0.04075180 0.02778196 0.05530326
v -0.02837598 0.03872873 0.04597603
v -0.03187527 0.02947965 0.06751998
v -0.04664857 0.02446030 0.03472325
v -0.01947479 0.03695112 0.06098010
v -0.01951880 0.04287271 0.03865356
v -0.02139083 0.04301940 0.03482493
v -0.03984553 0.00122682 0.05394485
v -0.03524575 0.03503324 0.04413583
v -0.05838927 0.00768193 0.06535734
v -0.03015693 0.03282466 0.06279840
v -0.05309404 0.00993583 0.06703522
v -0.06223563 0.00398745 0.06270595
v -0.05015962 0.01761282 0.03490618
v -0.02316513 0.03491085 0.06464671
v -0.02490181 0.04044457 0.04398560
v -0.02829871 0.04076637 0.03475965
v -0.02126727 0.04248148 0.03860185
v -0.04112206 0.00113823 0.06080938
v -0.03898105 0.02930651 0.05544409
v -0.03701655 0.03315386 0.04602791
v -0.03364631 0.03493499 0.04972707
v -0.04081273 0.03170269 0.03477547
v -0.03708010 0.02752982 0.06423354
v -0.05934528 0.00525161 0.06527476
v -0.03361798 0.03109453 0.06270177
v -0.05452827 0.01039350 0.06624415
v -0.05699609 0.00133297 0.05431788
v -0.02126214 0.03659173 0.06087875
v -0.02662642 0.03328395 0.06601073
v -0.02816533 0.04052979 0.03659290
v -0.03364087 0.03700669 0.04039236
v -0.04195386 0.00113480 0.06250408
v -0.03362059 0.02928425 0.06602290
v -0.03551342 0.03102263 0.05905579
v -0.03209076 0.03470645 0.05339370
v -0.06220797 0.00148887 0.06268368
v -0.02114604 0.04042990 0.04767641
v -0.02843824 0.03473177 0.05912456
v -0.02846063 0.03145061 0.06745439
v -0.03006661 0.03854879 0.04224138
v -0.06200670 0.00152230 0.06404314
v -0.02306759 0.03357924 0.06737088
f 7 1 2
f 7 3 1
f 13 2 1
f 16 13 1
f 17 4 12
f 18 1 3
f 18 3 11
f 19 11 3
f 19 3 6
f 20 6 3
f 20 3 12
f 20 12 4
f 21 10 12
f 21 12 3
f 21 3 7
f 23 9 14
f 25 8 13
f 25 13 16
f 25 23 8
f 26 5 23
f 27 17 12
f 27 12 10
f 27 26 17
f 27 10 26
f 28 1 18
f 29 15 28
f 30 20 4
f 31 19 6
f 31 6 20
f 31 29 11
f 31 11 19
f 32 21 7
f 32 7 2
f 33 14 9
f 34 22 4
f 34 4 14
f 34 33 22
f 34 14 33
f 35 33 9
f 35 22 33
f 36 23 14
f 36 14 4
f 36 26 23
f 36 4 17
f 36 17 26
f 37 9 23
f 38 23 5
f 38 8 23
f 40 25 16
f 40 23 25
f 41 10 21
f 41 21 32
f 42 28 18
f 42 18 11
f 42 29 28
f 43 39 16
f 43 24 39
f 44 15 29
f 44 29 31
f 44 31 20
f 44 20 30
f 45 30 4
f 45 4 22
f 45 44 30
f 45 35 15
f 45 22 35
f 46 32 2
f 46 2 13
f 46 13 8
f 46 41 32
f 47 16 39
f 47 40 16
f 47 37 23
f 47 23 40
f 47 39 9
f 47 9 37
f 48 39 35
f 48 35 9
f 48 9 39
f 49 39 24
f 49 24 15
f 49 15 35
f 49 35 39
f 50 26 10
f 50 10 41
f 50 41 46
f 51 42 11
f 51 11 29
f 51 29 42
f 52 15 24
f 52 24 43
f 52 43 28
f 52 28 15
f 53 43 16
f 53 16 1
f 54 45 15
f 54 15 44
f 54 44 45
f 55 46 8
f 55 8 38
f 55 50 46
f 55 38 5
f 55 5 26
f 55 26 50
f 56 53 1
f 56 43 53
f 56 1 28
f 56 28 43

