# https://github.com/mikedh/trimesh
v 0.02788976 -0.01906742 0.05405617
v 0.02723149 -0.02049885 0.05402155
v 0.02897645 -0.02391977 0.00566979
v 0.01799696 -0.02163628 0.00087534
v -0.00471469 -0.04089540 0.05414628
v 0.02974379 -0.02087787 0.00393822
v 0.02908262 -0.02412498 0.01972359
v 0.00118485 -0.02996707 0.05411122
v 0.00069074 -0.04665917 0.01053406
v 0.02972434 -0.01918755 0.03496376
v 0.02901175 -0.02256165 0.02928878
v 0.01550375 -0.02095880 0.03509437
v 0.01479107 -0.04065228 0.01066704
v 0.00133524 -0.02988240 0.01979673
v 0.02832263 -0.02093423 0.00236005
v 0.02904094 -0.02076143 0.03676790
v 0.02168671 -0.03321617 0.02909092
v 0.01580608 -0.02151866 0.05390917
v 0.02958639 -0.01914881 0.03687973
v 0.00752111 -0.04006135 0.04789034
v 0.00116226 -0.04016328 0.00984843
v 0.00153709 -0.02966429 0.02024239
v 0.02714706 -0.02575448 0.00424086
v 0.02540474 -0.02578115 0.04421782
v 0.02726116 -0.02768184 0.00881807
v -0.00119625 -0.04208958 0.04799367
v 0.00778852 -0.04449478 0.01049775
v 0.01633372 -0.03847451 0.02723304
v 0.01290954 -0.03632420 0.05358446
v 0.01768573 -0.02891919 0.00110678
v -0.00474912 -0.04424768 0.03509385
v 0.02786985 -0.02246655 0.00276218
v 0.02920942 -0.02237280 0.00430519
v 0.02701601 -0.02222392 0.04811980
v 0.02708394 -0.02777172 0.01783463
v 0.02521058 -0.02930855 0.00566558
v 0.00414702 -0.04018204 0.05372539
v 0.00409441 -0.04389116 0.02906140
v 0.02000082 -0.03486208 0.03102843
v 0.01471864 -0.04033413 0.01977021
v 0.02372631 -0.02602121 0.05385515
v 0.01322547 -0.04021053 0.02917600
v 0.01739582 -0.03416930 0.00193345
v 0.02163198 -0.02150619 0.00099856
v -0.00436577 -0.04227908 0.03515786
v -0.00484924 -0.04166833 0.05399414
v 0.01834304 -0.03673992 0.00560571
v 0.00934797 -0.03811689 0.05355918
v 0.00224267 -0.04578294 0.01763143
v 0.00412097 -0.04198545 0.04232012
v 0.01805970 -0.03477044 0.04229659
v 0.02536380 -0.02398738 0.05185611
v 0.02155974 -0.02931087 0.05191090
v 0.01139178 -0.04004176 0.03659773
v 0.01450689 -0.03646819 0.04798557
v 0.00753286 -0.04386601 0.01763676
v 0.00245191 -0.04631295 0.01041843
v 0.01861522 -0.03362741 0.00235051
v 0.01949722 -0.02886785 0.00141657
v -0.00489449 -0.04244752 0.04815088
v 0.00059747 -0.04612785 0.01770148
v 0.01812545 -0.03651319 0.03102052
v 0.01990755 -0.03096995 0.05179051
v 0.01452495 -0.03828109 0.03659483
f 5 2 1
f 7 3 6
f 8 5 1
f 10 7 6
f 11 7 10
f 14 5 8
f 15 10 6
f 15 4 10
f 16 1 2
f 16 2 11
f 16 11 10
f 18 12 8
f 18 8 1
f 18 1 12
f 19 12 1
f 19 10 4
f 19 4 12
f 19 16 10
f 19 1 16
f 21 14 4
f 22 12 4
f 22 4 14
f 22 14 8
f 22 8 12
f 25 3 7
f 30 21 4
f 30 9 21
f 31 21 9
f 32 15 6
f 33 6 3
f 33 3 23
f 33 32 6
f 33 23 32
f 34 24 11
f 34 11 2
f 34 2 24
f 35 24 17
f 35 7 11
f 35 11 24
f 35 25 7
f 35 17 13
f 35 13 25
f 36 23 3
f 36 3 25
f 37 29 5
f 39 13 17
f 40 27 13
f 40 39 28
f 40 13 39
f 41 2 5
f 41 5 29
f 42 40 28
f 42 27 40
f 43 9 30
f 44 30 4
f 44 4 15
f 45 5 14
f 45 14 21
f 45 21 31
f 46 37 5
f 46 26 37
f 47 36 25
f 47 25 13
f 47 13 27
f 47 27 43
f 48 37 20
f 48 20 29
f 48 29 37
f 50 38 20
f 50 20 37
f 50 37 26
f 52 41 24
f 52 24 2
f 52 2 41
f 53 39 17
f 53 17 24
f 53 24 41
f 53 51 39
f 54 29 20
f 54 20 38
f 54 38 42
f 55 54 42
f 55 29 54
f 55 28 51
f 56 42 38
f 56 27 42
f 56 49 27
f 56 38 49
f 57 43 27
f 57 9 43
f 57 27 49
f 58 23 36
f 58 47 43
f 58 36 47
f 58 32 23
f 58 43 15
f 58 15 32
f 59 43 30
f 59 15 43
f 59 44 15
f 59 30 44
f 60 45 31
f 60 5 45
f 60 46 5
f 60 31 46
f 61 46 31
f 61 26 46
f 61 31 9
f 61 57 49
f 61 9 57
f 61 49 38
f 61 50 26
f 61 38 50
f 62 51 28
f 62 28 39
f 62 39 51
f 63 53 41
f 63 41 29
f 63 29 55
f 63 55 51
f 63 51 53
f 64 55 42
f 64 42 28
f 64 28 55

