# https://github.com/mikedh/trimesh
v 0.02320127 -0.01949736 0.06768325
v 0.02618744 -0.01901157 0.06476287
v -0.02919106 -0.03070987 0.06776225
v -0.02972564 -0.03345355 0.05419949
v 0.00241956 -0.04055725 0.05378207
v 0.01580608 -0.02151866 0.05390917
v 0.01270632 -0.03261973 0.06615234
v -0.01752587 -0.04024613 0.05556400
v -0.02009586 -0.02965277 0.05411214
v 0.02372631 -0.02602121 0.05385515
v 0.02788962 -0.01896218 0.05589072
v 0.02000381 -0.02569200 0.06721238
v -0.02824027 -0.03641469 0.05729479
v -0.01759868 -0.04056344 0.05377114
v -0.01209454 -0.03823217 0.06633108
v -0.03034998 -0.03249825 0.05635699
v 0.01474032 -0.03501129 0.05364584
v 0.02788976 -0.01906742 0.05405617
v 0.02526016 -0.02201997 0.06128812
v 0.02231156 -0.02254680 0.06722647
v 0.00573315 -0.03502864 0.06757456
v -0.01029785 -0.04023270 0.06112731
v -0.02842272 -0.03692055 0.05381705
v -0.02481289 -0.03818326 0.05561130
v -0.02099886 -0.03651381 0.06646562
v -0.02827036 -0.03468913 0.06279389
v 0.00574935 -0.03809256 0.06090502
v 0.00775644 -0.03878377 0.05369957
v 0.01820879 -0.03099734 0.05935675
v 0.02723149 -0.02049885 0.05402155
v 0.02725495 -0.02024502 0.05573067
v 0.02333704 -0.02364663 0.06441034
v 0.01326921 -0.03129420 0.06724769
v -0.01391136 -0.03744485 0.06714460
v -0.01387888 -0.04022070 0.05938112
v -0.02483519 -0.03842424 0.05380678
v -0.02634987 -0.03635668 0.06089570
v -0.02112469 -0.03816085 0.06115189
v -0.02838517 -0.03316058 0.06637654
v 0.01100012 -0.03449253 0.06460122
v -0.00305391 -0.04024060 0.06103476
v 0.00232468 -0.04027788 0.05564156
v 0.01635970 -0.03089745 0.06440849
v 0.02335890 -0.02578174 0.05753410
v 0.02548399 -0.02042464 0.06453183
v 0.02356635 -0.02211394 0.06604941
v 0.01833784 -0.02749529 0.06708675
v 0.00039035 -0.03679094 0.06725451
v -0.01750192 -0.03817642 0.06472288
v -0.02309662 -0.03529318 0.06691164
v -0.02631115 -0.03430728 0.06635585
v 0.00574809 -0.03617860 0.06607245
v 0.01109944 -0.03646049 0.05727775
v 0.00218032 -0.03806784 0.06455612
v 0.01280955 -0.03439552 0.06111269
v 0.02169420 -0.02732934 0.05932044
v -0.00145247 -0.03823221 0.06605065
v -0.02857535 -0.03165560 0.06753593
v 0.00750571 -0.03615784 0.06447369
v 0.00742994 -0.03814940 0.05740786
v 0.01458076 -0.03467408 0.05544077
v -0.02671737 -0.03330069 0.06709728
f 6 3 1
f 9 3 6
f 11 6 1
f 11 1 2
f 16 9 4
f 16 3 9
f 17 6 10
f 18 10 6
f 18 6 11
f 20 2 1
f 20 1 12
f 21 1 3
f 23 4 9
f 23 9 6
f 23 17 14
f 23 6 17
f 23 16 4
f 23 13 16
f 24 14 8
f 24 13 23
f 26 16 13
f 28 5 14
f 28 14 17
f 29 17 10
f 30 18 11
f 30 10 18
f 31 11 2
f 31 2 19
f 31 30 11
f 31 10 30
f 33 12 1
f 33 1 21
f 33 21 7
f 34 21 3
f 35 8 14
f 35 14 22
f 36 24 23
f 36 23 14
f 36 14 24
f 37 13 24
f 37 26 13
f 38 24 8
f 38 8 35
f 38 37 24
f 38 25 37
f 39 3 16
f 39 16 26
f 41 22 14
f 41 14 5
f 41 15 22
f 42 28 27
f 42 5 28
f 42 41 5
f 43 7 40
f 43 29 32
f 44 31 19
f 44 10 31
f 44 19 32
f 45 32 19
f 45 19 2
f 46 20 12
f 46 12 32
f 46 32 45
f 46 45 2
f 46 2 20
f 47 33 7
f 47 12 33
f 47 7 43
f 47 43 32
f 47 32 12
f 48 21 34
f 49 34 25
f 49 15 34
f 49 38 35
f 49 25 38
f 49 35 22
f 49 22 15
f 50 25 34
f 51 37 25
f 51 25 50
f 51 39 26
f 51 26 37
f 52 40 7
f 52 7 21
f 52 21 48
f 53 28 17
f 53 40 27
f 54 42 27
f 54 41 42
f 55 43 40
f 55 29 43
f 55 40 53
f 56 44 32
f 56 32 29
f 56 29 10
f 56 10 44
f 57 48 34
f 57 34 15
f 57 15 41
f 57 41 54
f 57 54 52
f 57 52 48
f 58 50 34
f 58 34 3
f 58 3 39
f 59 27 40
f 59 40 52
f 59 54 27
f 59 52 54
f 60 53 27
f 60 27 28
f 60 28 53
f 61 17 29
f 61 29 55
f 61 55 53
f 61 53 17
f 62 51 50
f 62 50 58
f 62 58 39
f 62 39 51

