# https://github.com/mikedh/trimesh
v -0.04282226 -0.01325001 0.06712164
v -0.02857535 -0.03165560 0.06753593
v -0.03984553 0.00122682 0.05394485
v -0.05699609 0.00133297 0.05431788
v -0.05974485 -0.00279213 0.06479284
v -0.02921819 -0.03643943 0.05403826
v -0.04195386 0.00113480 0.06250408
v -0.05230665 -0.00697987 0.06717902
v -0.03059910 -0.02296948 0.05410122
v -0.04446317 -0.02223170 0.05381002
v -0.03018722 -0.02845793 0.06751769
v -0.04071390 0.00130724 0.05943614
v -0.06200670 0.00152230 0.06404314
v -0.03904421 -0.02392593 0.06712038
v -0.04928587 -0.00813752 0.06732002
v -0.03204645 -0.03484577 0.05374253
v -0.02854590 -0.03515739 0.06112778
v -0.05930344 -0.00104432 0.06538495
v -0.06203221 0.00039734 0.06296408
v -0.05951408 0.00148251 0.05917324
v -0.05819754 -0.00368365 0.06585076
v -0.04063770 -0.02553600 0.06107362
v -0.04576498 -0.00987381 0.06698406
v -0.03187972 -0.03460397 0.05559793
v -0.03339569 -0.03080131 0.06440799
v -0.05521328 0.00119387 0.06380802
v -0.06002727 -0.00255868 0.06426049
v -0.06159553 -0.00003565 0.06402631
v -0.05606842 -0.00180108 0.05446707
v -0.06220797 0.00148887 0.06268368
v -0.05098677 -0.00900850 0.06714521
v -0.04066254 -0.02372837 0.06454964
v -0.04252919 -0.02385529 0.05920305
v -0.03002708 -0.03443597 0.06088983
v -0.03534515 -0.03079017 0.06092080
v -0.03015525 -0.03126555 0.06701151
v -0.03348251 -0.03274486 0.05913937
v -0.03743143 -0.02562121 0.06705962
f 9 3 2
f 10 4 3
f 11 7 1
f 11 2 7
f 12 7 2
f 12 2 3
f 13 7 12
f 15 7 8
f 15 11 1
f 15 8 2
f 15 2 11
f 16 9 6
f 16 3 9
f 16 10 3
f 17 9 2
f 17 6 9
f 18 8 7
f 20 13 12
f 20 12 3
f 20 3 4
f 21 5 14
f 21 8 18
f 21 18 13
f 23 15 1
f 23 1 7
f 23 7 15
f 24 16 6
f 26 18 7
f 26 7 13
f 26 13 18
f 27 19 10
f 28 13 19
f 28 21 13
f 28 5 21
f 28 27 5
f 28 19 27
f 29 19 4
f 29 4 10
f 29 10 19
f 30 19 13
f 30 13 20
f 30 20 4
f 30 4 19
f 31 21 14
f 31 8 21
f 31 14 2
f 31 2 8
f 32 14 5
f 32 5 22
f 33 10 16
f 33 16 22
f 33 27 10
f 33 22 5
f 33 5 27
f 34 24 6
f 34 6 17
f 34 17 25
f 35 22 16
f 36 25 17
f 36 17 2
f 37 35 16
f 37 16 24
f 37 24 34
f 37 34 25
f 37 25 35
f 38 32 22
f 38 22 35
f 38 14 32
f 38 35 25
f 38 25 36
f 38 36 2
f 38 2 14

