# https://github.com/mikedh/trimesh
v -0.03952996 -0.00652247 0.05407119
v -0.01977421 -0.03999955 0.05397314
v -0.02029051 -0.03780577 0.05434688
v -0.03846750 -0.00881465 0.01781452
v -0.04678930 -0.02603058 0.01785599
v -0.02852256 -0.02458423 0.01795246
v -0.04719648 -0.01725778 0.05399803
v -0.01945765 -0.04269687 0.03492971
v -0.03925929 -0.00647870 0.03511557
v -0.03019366 -0.04037158 0.01783528
v -0.03518265 -0.03267182 0.05361612
v -0.04026723 -0.00634703 0.05411834
v -0.05004441 -0.01959674 0.01797562
v -0.02044129 -0.04010440 0.03522830
v -0.01940706 -0.04069659 0.05008704
v -0.04862643 -0.02271365 0.01774562
v -0.02721984 -0.04192749 0.01797520
v -0.02483519 -0.03842424 0.05380678
v -0.04060842 -0.02738783 0.05372537
v -0.03722197 -0.03466417 0.02915417
v -0.03954770 -0.00804964 0.01828706
v -0.03999888 -0.00633404 0.03509941
v -0.04894954 -0.01732906 0.03495407
v -0.01939748 -0.04251187 0.03676926
v -0.03578076 -0.03694630 0.01792268
v -0.04609459 -0.02039048 0.05000696
v -0.04805711 -0.01858168 0.04064194
v -0.03005227 -0.03825980 0.03864738
v -0.02108226 -0.04020259 0.05001819
v -0.04065211 -0.03110234 0.03103897
v -0.04857847 -0.01719750 0.04068022
v -0.02472179 -0.04008144 0.04243101
v -0.03886003 -0.03293039 0.03102429
v -0.04446317 -0.02223170 0.05381002
v -0.02999102 -0.03640055 0.05179695
v -0.02840273 -0.04022490 0.02917677
v -0.03549805 -0.03464231 0.04060582
v -0.03186141 -0.03832052 0.02914474
v -0.04427781 -0.02753705 0.02722891
v -0.02111013 -0.04221603 0.03484600
v -0.02823695 -0.03814976 0.04617610
v -0.02107892 -0.04199918 0.03671767
v -0.03690983 -0.03289913 0.04428872
v -0.04647560 -0.01872955 0.05386401
v -0.04419621 -0.02392017 0.04807772
v -0.03547135 -0.03646702 0.02535539
v -0.03363208 -0.03451541 0.04991292
v -0.03012475 -0.04023293 0.01972075
v -0.04242647 -0.02556418 0.05185841
f 9 1 3
f 9 3 6
f 9 6 4
f 10 4 6
f 12 7 3
f 12 3 1
f 12 1 9
f 14 8 6
f 14 6 3
f 15 3 2
f 16 4 10
f 16 13 4
f 17 10 6
f 17 6 8
f 18 2 3
f 18 3 11
f 19 11 3
f 19 3 7
f 21 9 4
f 21 4 13
f 22 12 9
f 22 21 13
f 22 9 21
f 23 22 13
f 23 12 22
f 24 14 3
f 24 8 14
f 24 3 15
f 25 16 10
f 25 5 16
f 26 16 5
f 26 7 16
f 27 16 7
f 27 7 13
f 27 13 16
f 29 15 2
f 29 2 18
f 29 24 15
f 31 23 13
f 31 13 7
f 31 7 12
f 31 12 23
f 32 29 18
f 33 25 20
f 33 5 25
f 33 30 5
f 34 19 7
f 35 18 11
f 36 17 32
f 38 36 28
f 38 28 37
f 39 30 19
f 39 5 30
f 40 32 17
f 40 17 8
f 40 8 24
f 41 32 18
f 41 36 32
f 41 28 36
f 41 35 28
f 41 18 35
f 42 24 29
f 42 29 32
f 42 40 24
f 42 32 40
f 43 19 30
f 43 30 33
f 43 33 20
f 43 20 37
f 43 37 11
f 43 11 19
f 44 34 7
f 44 7 26
f 44 26 34
f 45 34 26
f 45 26 5
f 46 37 20
f 46 20 25
f 46 38 37
f 46 25 10
f 46 10 38
f 47 35 11
f 47 11 37
f 47 37 28
f 47 28 35
f 48 38 10
f 48 36 38
f 48 10 17
f 48 17 36
f 49 19 34
f 49 34 45
f 49 39 19
f 49 45 5
f 49 5 39

