# https://github.com/mikedh/trimesh
v -0.03726411 0.01264406 0.05406899
v -0.03952996 -0.00652247 0.05407119
v -0.04078125 -0.01969527 0.00010430
v -0.04961313 0.01409387 0.00143581
v -0.05620417 0.00589863 0.05451282
v -0.03421010 0.01522102 0.01794279
v -0.05401503 -0.00496746 0.05445332
v -0.05123392 0.01414290 0.03501684
v -0.04080244 0.01441309 0.00031876
v -0.03441972 0.01539183 0.02169733
v -0.03846750 -0.00881465 0.01781452
v -0.04402887 -0.01757344 0.05405362
v -0.05364294 -0.01126249 0.00720558
v -0.05243429 0.01103758 0.05417157
v -0.05372749 0.01377311 0.00865936
v -0.05134727 0.00675909 0.00136361
v -0.03597936 0.01501393 0.03509971
v -0.04339266 -0.01999762 0.03515768
v -0.05606842 -0.00180108 0.05446707
v -0.04990253 -0.01867106 0.02153051
v -0.05406640 0.00914526 0.05430467
v -0.05371746 0.01381012 0.01035467
v -0.05583925 0.00294438 0.00864152
v -0.04996397 -0.01701910 0.00225477
v -0.05343317 0.01178486 0.00390182
v -0.04719648 -0.01725778 0.05399803
v -0.05173771 -0.01692850 0.01394734
v -0.04228896 -0.02069452 0.00726999
v -0.05578921 -0.00059810 0.00876653
v -0.05137687 -0.00817513 0.00132871
v -0.05210305 0.01384177 0.00286701
v -0.04840506 -0.01884464 0.03486793
v -0.05372781 -0.01143224 0.01232723
v -0.04982349 -0.01863135 0.00362075
v -0.04736462 -0.01925229 0.00151591
v -0.05353231 -0.00774633 0.00398405
v -0.05386900 0.00119751 0.00232027
v -0.05375349 0.00467007 0.00243484
v -0.05155948 -0.01680653 0.00724198
v -0.05172249 -0.01148085 0.00226785
f 7 2 1
f 7 1 5
f 9 6 3
f 10 1 2
f 10 2 6
f 10 4 8
f 10 9 4
f 10 6 9
f 11 6 2
f 11 2 3
f 11 3 6
f 12 2 7
f 14 1 8
f 16 9 3
f 16 4 9
f 17 10 8
f 17 8 1
f 17 1 10
f 18 3 2
f 18 2 12
f 19 7 5
f 21 5 1
f 21 1 14
f 22 8 4
f 22 14 8
f 22 21 14
f 22 15 5
f 22 5 21
f 23 5 15
f 25 23 15
f 26 12 7
f 26 7 19
f 26 18 12
f 28 3 18
f 29 19 5
f 29 5 23
f 30 16 3
f 31 25 15
f 31 22 4
f 31 15 22
f 32 18 26
f 32 28 18
f 32 20 28
f 32 27 20
f 32 26 19
f 32 19 27
f 33 27 19
f 33 13 27
f 33 29 13
f 33 19 29
f 34 20 27
f 34 28 20
f 34 13 24
f 35 30 3
f 35 24 30
f 35 34 24
f 35 3 28
f 35 28 34
f 36 13 29
f 37 16 30
f 37 36 29
f 37 29 23
f 38 31 4
f 38 4 16
f 38 16 37
f 38 25 31
f 38 37 23
f 38 23 25
f 39 34 27
f 39 27 13
f 39 13 34
f 40 30 24
f 40 24 13
f 40 13 36
f 40 37 30
f 40 36 37

