# https://github.com/mikedh/trimesh
v 0.01500040 0.02487234 0.06698985
v 0.03516513 0.00137767 0.05398944
v 0.02719142 0.02795117 0.01955654
v 0.00054288 0.04330015 0.00235039
v 0.01613160 0.00116174 0.00101920
v 0.00935970 0.04053808 0.03090438
v 0.02335492 0.02040695 0.06434283
v 0.02637723 0.00122382 0.06707182
v 0.00108803 0.02825162 0.03518457
v 0.04047253 0.00094491 0.00446511
v 0.01652612 0.03878732 0.00886757
v 0.02719500 0.02425417 0.03476581
v 0.02046022 0.02286277 0.06615569
v 0.03278922 0.00051901 0.06383494
v 0.00094730 0.02583567 0.00108717
v 0.00081159 0.04241273 0.03502153
v 0.00918187 0.02506425 0.05757802
v 0.01615990 0.00115524 0.01337616
v 0.04011540 0.00287345 0.01527628
v 0.02940273 0.02104410 0.00319681
v 0.01832444 0.03696330 0.02145188
v 0.00409996 0.04440661 0.01953960
v 0.02525053 0.01888278 0.06116754
v 0.00759941 0.04051301 0.03462776
v 0.02563016 0.00875563 0.06738024
v 0.03295379 -0.01580081 0.01980626
v 0.00043311 0.04294820 0.03284723
v 0.01114037 0.02513269 0.06120959
v 0.02585276 0.00131585 0.06499501
v 0.00098072 0.02587604 0.01303385
v 0.03285529 0.01914792 0.00884431
v 0.03101081 0.02082026 0.02320623
v 0.03635576 0.00092787 0.00279888
v 0.01473684 0.03718879 0.00269699
v 0.01472522 0.03689510 0.03465250
v 0.02169665 0.03148555 0.03280067
v 0.00404561 0.04450251 0.00704021
v 0.01299244 0.04057912 0.01956282
v 0.02334676 0.02230234 0.05934437
v 0.02708618 0.01528606 0.06114061
v 0.02638881 0.00311532 0.06729568
v 0.02704184 0.01160480 0.06581544
v 0.03362716 -0.01508460 0.01911807
v 0.03257148 -0.01566222 0.02171367
v 0.00041893 0.04477921 0.02338334
v 0.00402931 0.04236277 0.03088030
v 0.04002132 0.00241183 0.00592583
v 0.03095353 0.02093974 0.00452319
v 0.04071157 0.00081758 0.01771945
v 0.02693709 0.02087088 0.04608511
v 0.03283045 0.01911100 0.01403802
v 0.02890994 0.02438650 0.02327752
v 0.03143744 0.01727931 0.00327435
v 0.02350915 0.03159791 0.02333630
v 0.01814393 0.03496798 0.03274056
v 0.01116751 0.04055151 0.00392604
v 0.01648638 0.03882932 0.01780455
v 0.00930034 0.04255974 0.00715717
v 0.00932007 0.04239096 0.01955916
v 0.01472815 0.03876711 0.02527715
v 0.02172320 0.02231296 0.06460262
v 0.02686956 0.01346287 0.06454782
v 0.02980709 0.00096444 0.06579520
v 0.02680061 0.00851651 0.06706141
f 17 9 8
f 17 16 9
f 18 15 5
f 21 3 11
f 24 1 13
f 24 16 1
f 24 6 22
f 25 13 1
f 27 9 16
f 28 17 8
f 28 8 1
f 28 1 16
f 28 16 17
f 29 8 9
f 29 9 18
f 30 18 9
f 30 15 18
f 30 27 15
f 30 9 27
f 34 15 4
f 34 5 15
f 34 33 5
f 34 20 33
f 35 24 13
f 35 6 24
f 39 23 12
f 39 7 23
f 39 12 36
f 40 14 2
f 40 2 32
f 41 25 1
f 41 1 8
f 42 7 13
f 43 2 14
f 43 33 10
f 43 26 5
f 43 5 33
f 44 18 5
f 44 5 26
f 44 29 18
f 44 8 29
f 44 43 14
f 44 26 43
f 45 4 15
f 45 15 27
f 45 37 4
f 45 22 37
f 46 27 16
f 46 16 24
f 46 45 27
f 46 24 22
f 46 22 45
f 47 31 19
f 47 19 10
f 47 10 31
f 48 31 10
f 48 11 3
f 48 3 31
f 48 34 11
f 48 20 34
f 49 32 2
f 49 19 32
f 49 2 43
f 49 43 10
f 49 10 19
f 50 32 12
f 50 12 23
f 50 40 32
f 50 23 40
f 51 32 19
f 51 19 31
f 51 31 3
f 51 3 32
f 52 32 3
f 52 3 12
f 52 12 32
f 53 33 20
f 53 10 33
f 53 48 10
f 53 20 48
f 54 36 12
f 54 12 3
f 54 3 21
f 55 35 13
f 55 39 36
f 55 54 21
f 55 36 54
f 56 34 4
f 56 4 37
f 56 11 34
f 57 21 11
f 58 37 22
f 58 56 37
f 58 11 56
f 58 57 11
f 58 38 57
f 59 22 6
f 59 6 38
f 59 58 22
f 59 38 58
f 60 38 6
f 60 6 35
f 60 57 38
f 60 21 57
f 60 55 21
f 60 35 55
f 61 13 7
f 61 7 39
f 61 55 13
f 61 39 55
f 62 40 23
f 62 23 7
f 62 7 42
f 62 42 14
f 62 14 40
f 63 41 8
f 63 44 14
f 63 8 44
f 64 14 42
f 64 63 14
f 64 25 41
f 64 41 63
f 64 42 13
f 64 13 25

