# https://github.com/mikedh/trimesh
v 0.05983545 -0.00177530 0.02038539
v 0.05968887 -0.01459561 0.02035584
v 0.04984136 -0.01335780 0.00697407
v 0.01802911 0.00116125 0.00106156
v 0.01737381 -0.02086982 0.01810022
v 0.04929215 -0.00108218 0.00701861
v 0.05940702 -0.00664673 0.01528510
v 0.05129851 -0.00793705 0.02133161
v 0.02690150 0.00126081 0.01811493
v 0.02163198 -0.02150619 0.00099856
v 0.05974400 -0.00359755 0.01703162
v 0.05737430 -0.01291145 0.01368296
v 0.05265660 -0.00190747 0.00867828
v 0.03221727 -0.01736117 0.01976814
v 0.01808241 0.00113788 0.01346318
v 0.04019809 0.00303452 0.00747529
v 0.03240148 0.00118532 0.01994550
v 0.05122149 -0.01603839 0.01030372
v 0.03106671 -0.02066276 0.01770829
v 0.01799696 -0.02163628 0.00087534
v 0.03635576 0.00092787 0.00279888
v 0.05918690 -0.01113925 0.01550636
v 0.05594105 -0.00181922 0.01162214
v 0.05284162 -0.01288732 0.00848427
v 0.05840656 -0.01569294 0.02042600
v 0.04030167 0.00328974 0.01376515
v 0.05092473 -0.00073882 0.02079403
v 0.02902127 -0.02062850 0.00274255
v 0.01798617 -0.01403827 0.00094800
v 0.02177219 -0.01784014 0.00100255
v 0.04011549 0.00165826 0.00465458
v 0.05747325 -0.01462079 0.01544713
v 0.05788111 -0.00342440 0.01345759
v 0.05780781 -0.00062636 0.01694050
v 0.05081467 -0.00054674 0.00833478
v 0.05106437 -0.01413804 0.00840026
v 0.05892702 -0.00065919 0.01995316
v 0.05626245 -0.01566158 0.01530355
v 0.03116308 -0.02045405 0.00586112
v 0.04168138 0.00111550 0.00487028
v 0.05922799 -0.01452472 0.01903805
v 0.05957171 -0.00216203 0.01878537
v 0.05633386 -0.00090941 0.01328261
v 0.04206377 0.00251673 0.00725346
v 0.05196821 0.00096903 0.01400051
v 0.04544085 0.00066989 0.00640170
v 0.05807519 -0.01548326 0.01864822
v 0.05144345 0.00075704 0.01092082
f 8 2 1
f 11 1 2
f 11 2 7
f 15 4 5
f 15 5 9
f 17 14 8
f 17 9 5
f 17 5 14
f 20 19 5
f 20 10 19
f 21 6 3
f 21 3 10
f 22 7 2
f 24 3 6
f 24 6 13
f 24 13 23
f 24 22 12
f 24 7 22
f 25 2 8
f 25 8 14
f 25 14 5
f 25 5 19
f 26 15 9
f 26 9 17
f 26 16 4
f 26 4 15
f 27 17 8
f 27 8 1
f 28 10 3
f 28 3 18
f 29 20 5
f 29 5 4
f 29 4 20
f 30 20 4
f 30 10 20
f 30 21 10
f 30 4 21
f 31 21 4
f 31 4 16
f 32 12 22
f 32 24 12
f 33 11 7
f 33 24 23
f 33 7 24
f 35 23 13
f 35 13 6
f 36 24 18
f 36 18 3
f 36 3 24
f 37 26 17
f 37 17 27
f 37 27 1
f 38 28 18
f 38 25 28
f 38 18 24
f 38 24 32
f 39 28 25
f 39 25 19
f 39 19 10
f 39 10 28
f 40 6 21
f 40 21 31
f 41 32 22
f 41 22 2
f 42 1 11
f 42 11 34
f 42 37 1
f 42 34 37
f 43 33 23
f 43 23 35
f 43 34 11
f 43 11 33
f 44 31 16
f 45 37 34
f 45 16 26
f 45 26 37
f 46 35 6
f 46 6 40
f 46 40 31
f 46 31 44
f 47 38 32
f 47 32 41
f 47 25 38
f 47 41 2
f 47 2 25
f 48 43 35
f 48 46 44
f 48 35 46
f 48 44 16
f 48 16 45
f 48 45 34
f 48 34 43

