# https://github.com/mikedh/trimesh
v -0.00471469 -0.04089540 0.05414628
v 0.00084809 -0.04382740 0.03502330
v 0.00116226 -0.04016328 0.00984843
v -0.02761524 -0.03698120 0.01038722
v -0.02292921 -0.04399021 0.01404019
v -0.02029051 -0.03780577 0.05434688
v 0.00105938 -0.04101126 0.03515659
v -0.01203956 -0.04595191 0.01976560
v -0.01559455 -0.04595185 0.01049691
v -0.02758821 -0.03692587 0.03512158
v 0.00138209 -0.04077194 0.01178498
v -0.00484924 -0.04166833 0.05399414
v -0.01934831 -0.04016301 0.05369826
v -0.02665435 -0.04246422 0.01048162
v -0.01558423 -0.04598666 0.01235876
v 0.00069074 -0.04665917 0.01053406
v -0.00490382 -0.04601232 0.02156222
v -0.01728899 -0.03881315 0.05476471
v -0.02663519 -0.04021960 0.03479802
v -0.01201876 -0.04205981 0.04993098
v -0.02289882 -0.04406940 0.01055938
v -0.02454281 -0.03841895 0.00995508
v -0.01563512 -0.04409922 0.03107114
v -0.00851397 -0.04606463 0.02152750
v -0.00115071 -0.04415895 0.03482002
v -0.02647728 -0.04207571 0.01972466
v -0.02103517 -0.04389305 0.02152891
v -0.01382948 -0.04587899 0.01776935
v -0.01571433 -0.04207262 0.04618067
v 0.00059747 -0.04612785 0.01770148
v -0.02292610 -0.04207387 0.03103519
v -0.01929444 -0.04202956 0.04045214
v 0.00064298 -0.04419972 0.03287766
f 7 1 2
f 7 6 1
f 7 3 6
f 10 6 3
f 10 3 4
f 11 7 2
f 11 3 7
f 12 2 1
f 14 10 4
f 16 15 9
f 16 11 2
f 16 9 3
f 16 3 11
f 18 12 1
f 18 1 6
f 18 13 12
f 18 6 13
f 19 13 6
f 19 6 10
f 19 10 14
f 20 12 13
f 21 14 9
f 21 5 14
f 21 15 5
f 21 9 15
f 22 14 4
f 22 4 3
f 22 3 9
f 22 9 14
f 23 8 20
f 24 8 15
f 24 15 16
f 24 16 17
f 24 20 8
f 24 17 12
f 24 12 20
f 25 12 17
f 26 19 14
f 26 14 5
f 27 5 15
f 27 26 5
f 28 15 8
f 28 8 23
f 28 27 15
f 28 23 27
f 29 23 20
f 29 20 13
f 30 25 17
f 30 17 16
f 30 16 2
f 31 13 19
f 31 19 26
f 31 26 27
f 32 27 23
f 32 31 27
f 32 13 31
f 32 29 13
f 32 23 29
f 33 30 2
f 33 25 30
f 33 2 12
f 33 12 25

