# https://github.com/mikedh/trimesh
v -0.02572379 -0.03156658 0.06761818
v 0.00118485 -0.02996707 0.05411122
v -0.03040700 -0.02483456 0.06098806
v -0.02757083 -0.02546703 0.01802570
v -0.00429338 -0.03154078 0.01833931
v -0.02965482 -0.02381261 0.03511907
v -0.03013818 -0.03226864 0.06406099
v -0.03018722 -0.02845793 0.06751769
v 0.00121386 -0.02981267 0.02012037
v -0.01943906 -0.03073031 0.01834652
v 0.00040480 -0.03092089 0.05403841
v -0.02653381 -0.03080558 0.06752326
v -0.02919106 -0.03070987 0.06776225
v -0.02423380 -0.02905540 0.01851520
v -0.02503376 -0.02740649 0.01753587
v 0.00103744 -0.03043565 0.02017915
v -0.02608642 -0.02772660 0.01820652
v -0.00081761 -0.03086616 0.02240978
f 6 3 2
f 7 6 4
f 7 3 6
f 8 2 3
f 8 3 7
f 9 5 4
f 9 6 2
f 9 4 6
f 10 5 7
f 11 7 5
f 11 2 1
f 11 1 7
f 12 8 1
f 12 1 2
f 12 2 8
f 13 8 7
f 13 7 1
f 13 1 8
f 14 10 7
f 15 4 5
f 15 5 10
f 15 10 14
f 16 9 2
f 16 2 11
f 16 5 9
f 17 14 7
f 17 7 4
f 17 15 14
f 17 4 15
f 18 16 11
f 18 11 5
f 18 5 16

