# https://github.com/mikedh/trimesh
v 0.01564177 0.02503908 0.01369084
v 0.01812376 -0.03309168 0.01802589
v 0.01763153 -0.03073933 0.00136891
v -0.04074489 0.02384136 0.00061753
v -0.05041939 -0.01892657 0.01767172
v 0.01612412 0.02583299 0.00134177
v -0.03613388 0.01383084 0.01808054
v -0.01392766 -0.04591840 0.00719343
v 0.01797928 -0.00643865 0.00100514
v -0.02612001 0.03939071 0.00720517
v -0.02721984 -0.04192749 0.01797520
v 0.01880243 -0.01862033 0.01796298
v -0.04102104 0.02414080 0.00138487
v 0.00767833 -0.04412042 0.00731125
v -0.04571213 -0.02106720 0.00122791
v 0.00661241 0.01631855 0.00100253
v 0.00093339 0.03904165 0.00134736
v -0.03421010 0.01522102 0.01794279
v -0.03869805 0.00821513 0.01832676
v 0.01802911 0.00116125 0.00106156
v -0.02747428 0.03901665 0.00151961
v -0.02746829 0.03892590 0.00745686
v 0.00070876 -0.04170615 0.00130143
v 0.01690943 -0.03908801 0.01068263
v 0.00245191 -0.04631295 0.01041843
v -0.04904295 -0.01894846 0.00233140
v -0.03544608 -0.03632747 0.00576563
v 0.01608370 -0.00075752 0.00099640
v -0.00477592 0.02580291 0.00100507
v 0.00097951 0.03926744 0.00213007
v -0.03364918 -0.03838575 0.01786773
v -0.03730703 0.01188445 0.01821588
v 0.01808241 0.00113788 0.01346318
v 0.00849656 0.01441494 0.00100481
v -0.02754238 0.03338724 0.00094984
v 0.01283148 -0.03863333 0.00282331
v 0.00828106 -0.03830197 0.00130100
v -0.04595534 -0.01939560 0.00100611
v -0.01380716 -0.04637441 0.01048654
v 0.00051268 -0.04591801 0.00560469
v 0.00778852 -0.04449478 0.01049775
v -0.05059325 -0.01901402 0.00703585
v -0.02288680 -0.04392491 0.00904145
v -0.04447293 -0.02583146 0.00260014
v -0.01930645 -0.04234137 0.00245905
v 0.00055627 0.03554472 0.00624654
v -0.01994505 0.03338583 0.00100120
v 0.01638555 -0.03830336 0.00539671
v 0.00576658 -0.04250449 0.00270376
v 0.01686771 -0.03529579 0.00251580
v 0.00251848 -0.04588411 0.00719455
v -0.01010892 -0.04602639 0.00530626
v 0.01479107 -0.04065228 0.01066704
v -0.04446907 -0.02934204 0.01404757
v -0.03365513 -0.03844942 0.00900941
v -0.02289882 -0.04406940 0.01055938
v -0.04380081 -0.02489282 0.00151077
v -0.04651980 -0.02562944 0.00575908
v -0.02308030 -0.04243566 0.00423208
v 0.00051563 -0.04405138 0.00263730
v 0.00427310 -0.04423120 0.00399417
v 0.01388930 -0.03449781 0.00138146
v 0.01449199 -0.04019613 0.00733010
v -0.04791473 -0.02420337 0.01762675
f 12 2 3
f 12 3 9
f 17 6 16
f 18 12 1
f 18 7 12
f 19 11 2
f 19 2 12
f 20 12 9
f 21 4 13
f 22 21 13
f 22 10 21
f 22 7 18
f 22 18 1
f 22 1 10
f 24 3 2
f 25 2 11
f 26 13 4
f 28 9 4
f 28 20 9
f 29 17 16
f 29 16 4
f 30 1 6
f 30 6 17
f 30 21 10
f 30 17 21
f 31 19 5
f 31 11 19
f 32 13 5
f 32 5 19
f 32 22 13
f 32 7 22
f 32 19 12
f 32 12 7
f 33 20 6
f 33 6 1
f 33 1 12
f 33 12 20
f 34 16 6
f 34 6 20
f 34 20 28
f 34 28 4
f 34 4 16
f 35 21 17
f 35 4 21
f 37 23 9
f 37 9 3
f 38 4 9
f 38 9 23
f 38 26 4
f 38 15 26
f 39 25 11
f 41 2 25
f 42 5 13
f 42 13 26
f 43 8 39
f 46 30 10
f 46 10 1
f 46 1 30
f 47 29 4
f 47 4 35
f 47 35 17
f 47 17 29
f 49 37 36
f 49 23 37
f 50 36 37
f 50 48 36
f 50 3 24
f 50 24 48
f 51 25 40
f 51 41 25
f 51 14 41
f 52 39 8
f 52 40 25
f 52 25 39
f 53 24 2
f 53 2 41
f 53 41 14
f 55 54 27
f 55 31 54
f 55 11 31
f 56 43 39
f 56 39 11
f 56 55 43
f 56 11 55
f 57 44 26
f 57 26 15
f 57 15 38
f 57 38 23
f 57 23 45
f 57 27 44
f 58 42 26
f 58 26 44
f 58 44 27
f 58 27 54
f 59 57 45
f 59 27 57
f 59 55 27
f 59 43 55
f 59 8 43
f 59 52 8
f 59 45 52
f 60 23 49
f 60 40 52
f 60 52 45
f 60 45 23
f 61 60 49
f 61 40 60
f 61 51 40
f 61 14 51
f 61 48 14
f 61 49 36
f 61 36 48
f 62 50 37
f 62 37 3
f 62 3 50
f 63 48 24
f 63 24 53
f 63 53 14
f 63 14 48
f 64 54 31
f 64 31 5
f 64 5 42
f 64 58 54
f 64 42 58

