# https://github.com/mikedh/trimesh
v 0.01181690 0.02904422 0.06727762
v 0.02609371 0.02295151 0.04425576
v 0.01122346 0.03889346 0.03468742
v -0.01962875 0.04343318 0.03490144
v -0.02046490 0.02709750 0.03520953
v -0.00496926 0.03877458 0.05913713
v 0.01623361 0.02929624 0.06111842
v 0.02046022 0.02286277 0.06615569
v 0.02741843 0.02386608 0.03509413
v 0.02568582 0.02629267 0.03473868
v -0.00142598 0.04307181 0.03474295
v -0.02042981 0.03099692 0.06658594
v 0.00921299 0.03302728 0.06462975
v 0.02164739 0.02406264 0.06100866
v 0.01805737 0.03338076 0.04034504
v -0.00699892 0.04252843 0.04230124
v -0.02026989 0.03229329 0.06768234
v -0.02052838 0.02747899 0.05751808
v 0.01262078 0.03109697 0.06455146
v 0.00218733 0.03865392 0.05364080
v 0.02240481 0.02297782 0.06136705
v 0.01813453 0.02584734 0.06566291
v 0.01689273 0.03548025 0.03475313
v 0.02170454 0.02965962 0.04031639
v 0.01977038 0.02762838 0.05544785
v -0.01763630 0.04262655 0.04225356
v 0.01231635 0.02765374 0.06736187
v -0.00135182 0.03540260 0.06719128
v -0.02041141 0.02912831 0.06287557
v 0.01625885 0.03305421 0.04768322
v 0.00745336 0.03320355 0.06617776
v -0.00325452 0.04055146 0.04984254
v 0.00577761 0.03661253 0.05727459
v 0.00601116 0.04104310 0.03473954
v 0.01973223 0.02392782 0.06595073
v 0.02545616 0.02611314 0.03660506
v 0.01095254 0.03133086 0.06581844
v -0.00691952 0.04074936 0.05174248
v -0.01948730 0.03499641 0.06657005
v 0.00032452 0.03664421 0.06280969
v 0.00991246 0.03074745 0.06721821
v -0.01567259 0.03526986 0.06748334
v 0.01652791 0.03496031 0.03846195
v 0.01107540 0.03670471 0.04593996
v 0.01801318 0.02935590 0.05535912
v -0.00138365 0.03869476 0.05724645
v -0.00140252 0.04239037 0.03846818
v 0.00587440 0.03860269 0.04794275
v -0.01389564 0.03866893 0.05909145
v -0.01926465 0.04040466 0.04958982
v -0.01972167 0.03447266 0.06740147
v -0.00328218 0.03681628 0.06471010
v 0.00222078 0.03500584 0.06630340
v 0.00411183 0.03362508 0.06713128
v 0.01277821 0.03488075 0.04964864
v 0.00214631 0.04047960 0.04408409
v 0.01109615 0.03858897 0.03652517
v -0.01578573 0.04058389 0.05152950
v -0.01376748 0.03683360 0.06463458
v -0.01950209 0.04261803 0.04046141
v -0.01747683 0.03859450 0.05714402
v -0.01754508 0.03674952 0.06274641
f 8 5 2
f 9 2 5
f 10 5 4
f 10 4 3
f 10 9 5
f 11 3 4
f 12 4 5
f 16 11 4
f 17 12 8
f 17 4 12
f 18 12 5
f 18 5 8
f 21 8 2
f 21 2 9
f 22 14 7
f 22 7 19
f 23 10 3
f 24 23 15
f 24 10 23
f 25 7 14
f 25 24 15
f 25 14 24
f 26 16 4
f 27 17 8
f 27 8 1
f 29 18 8
f 29 8 12
f 29 12 18
f 30 19 7
f 31 19 13
f 33 31 13
f 34 3 11
f 35 21 14
f 35 8 21
f 35 14 22
f 35 22 1
f 35 1 8
f 36 21 9
f 36 9 10
f 36 14 21
f 36 24 14
f 36 10 24
f 37 22 19
f 37 19 31
f 38 16 26
f 38 32 16
f 41 28 27
f 41 27 1
f 41 37 31
f 41 1 22
f 41 22 37
f 42 17 27
f 42 27 28
f 43 30 15
f 43 15 23
f 43 23 3
f 44 33 13
f 44 43 3
f 45 25 15
f 45 15 30
f 45 30 7
f 45 7 25
f 46 20 32
f 46 40 33
f 46 33 20
f 46 38 6
f 46 32 38
f 47 32 20
f 47 11 16
f 47 16 32
f 48 20 33
f 48 33 44
f 48 3 34
f 49 6 38
f 51 42 39
f 51 17 42
f 51 39 50
f 52 42 28
f 52 46 6
f 52 40 46
f 53 31 33
f 53 33 40
f 53 52 28
f 53 40 52
f 54 41 31
f 54 28 41
f 54 53 28
f 54 31 53
f 55 44 13
f 55 13 19
f 55 19 30
f 55 30 43
f 55 43 44
f 56 34 11
f 56 11 47
f 56 47 20
f 56 48 34
f 56 20 48
f 57 48 44
f 57 44 3
f 57 3 48
f 58 49 38
f 58 38 26
f 58 26 50
f 59 39 42
f 59 42 52
f 59 52 6
f 59 6 49
f 60 50 26
f 60 26 4
f 60 51 50
f 60 4 17
f 60 17 51
f 61 50 39
f 61 58 50
f 61 49 58
f 62 59 49
f 62 49 61
f 62 61 39
f 62 39 59

