# https://github.com/mikedh/trimesh
v 0.00109294 0.04154952 0.03521574
v 0.00034555 0.04260872 0.03464457
v -0.02742897 0.03892395 0.03509724
v -0.02747428 0.03901665 0.00151961
v 0.00093339 0.03904165 0.00134736
v -0.01958167 0.04639115 0.01409710
v -0.02307180 0.04258878 0.03475579
v 0.00043569 0.04455966 0.00416776
v -0.00183198 0.04079019 0.03503608
v -0.02671464 0.04299588 0.00416472
v -0.02690830 0.04138049 0.03484447
v -0.01588994 0.04462285 0.03102877
v 0.00033673 0.04445737 0.02520938
v 0.00097951 0.03926744 0.00213007
v -0.00326608 0.04444989 0.00266892
v -0.02473682 0.04449061 0.01973543
v -0.00318386 0.04642471 0.01406840
v -0.00681400 0.04454443 0.03095942
v 0.00054288 0.04330015 0.00235039
v -0.01758041 0.04474351 0.00291230
v -0.02314443 0.04441720 0.02338549
v -0.02482483 0.04432292 0.00542728
v -0.02662761 0.04240726 0.02900117
v -0.00861270 0.04653457 0.01977563
v -0.00685304 0.04649239 0.00564082
v -0.00318467 0.04437900 0.02903675
v -0.02685432 0.04144255 0.00245976
v -0.01951203 0.04639538 0.00885339
v -0.02304411 0.04461213 0.00435138
v -0.01413080 0.04641478 0.01959889
v -0.00324675 0.04636001 0.00709966
v -0.01596942 0.04640557 0.00566332
v -0.02486669 0.04270248 0.00298043
f 5 3 4
f 7 1 2
f 9 5 1
f 9 1 3
f 9 3 5
f 10 4 3
f 11 3 1
f 11 1 7
f 11 10 3
f 12 7 2
f 13 2 1
f 13 1 8
f 14 8 1
f 14 1 5
f 17 13 8
f 18 12 2
f 19 14 5
f 19 8 14
f 19 15 8
f 19 5 4
f 19 4 15
f 20 15 4
f 21 11 7
f 21 7 12
f 21 12 6
f 21 6 16
f 22 10 16
f 23 16 10
f 23 10 11
f 23 21 16
f 23 11 21
f 24 12 18
f 24 13 17
f 25 8 15
f 25 15 20
f 25 24 17
f 26 18 2
f 26 2 13
f 26 24 18
f 26 13 24
f 27 20 4
f 27 4 10
f 28 22 16
f 28 16 6
f 28 6 24
f 28 24 25
f 29 10 22
f 29 22 28
f 30 24 6
f 30 6 12
f 30 12 24
f 31 25 17
f 31 17 8
f 31 8 25
f 32 28 25
f 32 25 20
f 32 29 28
f 32 20 29
f 33 27 10
f 33 10 29
f 33 29 20
f 33 20 27

