# https://github.com/mikedh/trimesh
v 0.00108803 0.02825162 0.03518457
v 0.00032784 0.02925781 0.03483233
v -0.05123392 0.01414290 0.03501684
v -0.04199473 0.02721210 0.00145536
v 0.00083895 0.02738106 0.01250889
v -0.02690830 0.04138049 0.03484447
v 0.00020584 0.03141087 0.01353032
v -0.01229928 0.01446289 0.01261715
v -0.04249975 0.03340983 0.01766336
v 0.00018949 0.03101640 0.02142254
v -0.02685432 0.04144255 0.00245976
v 0.00089902 0.02571000 0.01231640
v -0.03509992 0.01620268 0.03490686
v -0.05123470 0.01409618 0.00210325
v -0.04081273 0.03170269 0.03477547
v -0.02680409 0.04321264 0.02351300
v -0.04273555 0.03317637 0.00588615
v 0.00098072 0.02587604 0.01303385
v -0.02753359 0.03525269 0.00100126
v -0.05223453 0.01388874 0.02726304
v -0.04802412 0.02418854 0.02912201
v -0.03557014 0.03679450 0.03298001
v -0.02671464 0.04299588 0.00416472
v -0.03570738 0.03708100 0.00288011
v -0.03373802 0.04059669 0.00727819
v -0.04816479 0.02291149 0.00273965
v -0.04080244 0.01441309 0.00031876
v -0.05259406 0.01397381 0.00354026
v -0.04631915 0.02784023 0.02307825
v -0.04809382 0.02249676 0.03462288
v -0.03708837 0.03524574 0.03468770
v -0.03370920 0.04049650 0.01758798
v -0.03448506 0.03444601 0.00149305
v -0.02850301 0.04095125 0.00275002
v -0.03907182 0.03683800 0.01745566
v -0.03015543 0.04245235 0.00708859
v -0.03715089 0.03678975 0.00404017
v -0.03176478 0.04051658 0.00434118
v -0.04579910 0.02163155 0.00145645
v -0.04466856 0.02826952 0.00288494
v -0.02753760 0.02389429 0.00073986
v -0.01237225 0.01443627 0.01190238
v -0.04786243 0.01416635 0.00094673
v -0.05009220 0.01914431 0.00283958
v -0.05176305 0.01925281 0.01218792
v -0.04802764 0.02641572 0.01219015
v -0.05015962 0.01761282 0.03490618
v -0.03193266 0.03876382 0.03477169
v -0.03887896 0.03690588 0.00731567
v -0.04057998 0.03353851 0.02708752
v -0.03030076 0.04237806 0.01571541
v -0.04457615 0.02988168 0.00423424
v -0.02827921 0.04250976 0.00451394
v -0.04770397 0.01790778 0.00144290
v -0.04985145 0.02276480 0.00527567
v -0.04995076 0.02265724 0.01601493
v -0.05172072 0.01561598 0.02719618
v -0.04981880 0.01938657 0.03291654
v -0.02829871 0.04076637 0.03475965
v -0.03891257 0.03516228 0.02704208
v -0.04844280 0.02460347 0.00425600
v -0.05162319 0.01713258 0.00383752
v -0.04800440 0.02617842 0.00696362
v -0.05180061 0.01733166 0.02160254
f 6 1 2
f 6 3 1
f 7 1 5
f 10 2 1
f 10 1 7
f 11 7 5
f 12 1 8
f 13 8 1
f 13 1 3
f 13 3 8
f 15 3 6
f 16 10 7
f 16 6 2
f 16 2 10
f 18 12 5
f 18 5 1
f 18 1 12
f 19 11 5
f 19 5 12
f 23 16 7
f 23 7 11
f 27 4 19
f 29 21 15
f 29 15 9
f 30 15 21
f 33 19 4
f 33 4 24
f 33 24 11
f 33 11 19
f 34 23 11
f 34 11 24
f 35 17 9
f 35 32 25
f 35 22 32
f 35 31 22
f 36 16 23
f 38 37 25
f 38 24 37
f 38 34 24
f 39 26 4
f 40 24 4
f 40 4 26
f 41 27 19
f 41 19 12
f 42 20 28
f 42 8 3
f 42 3 20
f 42 27 41
f 42 41 12
f 42 12 8
f 43 28 14
f 43 42 28
f 43 27 42
f 43 39 4
f 43 4 27
f 44 26 14
f 44 14 28
f 45 28 20
f 46 29 9
f 46 9 17
f 46 21 29
f 47 3 15
f 47 15 30
f 48 31 15
f 48 15 6
f 48 22 31
f 48 32 22
f 49 35 25
f 49 17 35
f 49 37 17
f 49 25 37
f 50 35 9
f 50 9 15
f 51 32 16
f 51 16 36
f 51 36 25
f 51 25 32
f 52 37 24
f 52 17 37
f 52 24 40
f 53 23 34
f 53 34 38
f 53 36 23
f 53 38 25
f 53 25 36
f 54 43 14
f 54 39 43
f 54 14 26
f 54 26 39
f 55 45 46
f 56 46 45
f 56 21 46
f 57 20 3
f 57 3 47
f 58 47 30
f 58 30 21
f 58 57 47
f 58 21 56
f 59 48 6
f 59 6 16
f 59 16 32
f 59 32 48
f 60 50 15
f 60 15 31
f 60 31 35
f 60 35 50
f 61 52 40
f 61 40 26
f 61 26 44
f 61 17 52
f 62 44 28
f 62 28 45
f 62 45 55
f 62 61 44
f 62 55 61
f 63 55 46
f 63 46 17
f 63 61 55
f 63 17 61
f 64 45 20
f 64 20 57
f 64 57 58
f 64 58 56
f 64 56 45

