# https://github.com/mikedh/trimesh
v 0.02637723 0.00122382 0.06707182
v 0.06125793 -0.01176536 0.03853475
v 0.05484709 -0.00120449 0.05362971
v 0.05050598 -0.00000717 0.01929729
v 0.04682148 -0.01516083 0.01951069
v 0.06123794 -0.00212177 0.02604170
v 0.03245749 0.00413778 0.05444942
v 0.04755070 -0.01098869 0.06187757
v 0.06123303 -0.00338347 0.04029429
v 0.06119153 -0.00993208 0.02047151
v 0.03219776 0.00357788 0.06125681
v 0.02511906 0.00117410 0.06151648
v 0.05892702 -0.00065919 0.01995316
v 0.05614205 -0.01113584 0.05450773
v 0.04742611 -0.00119673 0.06145169
v 0.06136523 -0.00182421 0.03487534
v 0.05840656 -0.01569294 0.02042600
v 0.02585276 0.00131585 0.06499501
v 0.04583226 0.00079039 0.05919247
v 0.02579171 -0.00879665 0.06679262
v 0.04683283 -0.01154660 0.01914456
v 0.06126023 -0.00510517 0.02060648
v 0.05923217 -0.00365417 0.04749757
v 0.04241128 -0.00155789 0.06336288
v 0.04565023 -0.00061912 0.06200639
v 0.05579770 -0.00345054 0.05495345
v 0.05964486 -0.00194178 0.04386744
v 0.05918347 -0.00108030 0.03872251
v 0.06124647 -0.00985836 0.04043344
v 0.06133662 -0.01294032 0.02407458
v 0.05920065 -0.01553465 0.03496500
v 0.05281233 -0.00120200 0.05688785
v 0.04249594 -0.00982820 0.06345271
v 0.02441100 -0.00846463 0.06150311
v 0.04900366 -0.01618660 0.01919061
v 0.06123543 -0.00354346 0.02234726
v 0.04917288 -0.00498370 0.06134899
v 0.04402022 0.00070149 0.06043609
v 0.05784195 -0.00216081 0.04952835
v 0.05940342 -0.00994047 0.04765607
v 0.06134903 -0.01333302 0.03494559
v 0.05968887 -0.01459561 0.02035584
v 0.05325258 -0.01394540 0.05535034
v 0.05396566 -0.00223477 0.05642918
v 0.04906150 -0.00095927 0.06020806
v 0.05764392 -0.01576862 0.03677551
v 0.03270804 -0.01212773 0.06205874
v 0.05983545 -0.00177530 0.02038539
v 0.04912296 -0.00969590 0.06130050
v 0.05756143 -0.01261908 0.05133498
v 0.05945892 -0.01263105 0.04581040
v 0.05058376 -0.00206635 0.05977372
v 0.05789887 -0.01382078 0.04745137
v 0.03338603 -0.01212239 0.05470599
v 0.04646446 -0.01395661 0.05579592
v 0.04224738 -0.01206945 0.06180597
v 0.05232273 -0.01238004 0.05795671
v 0.05388601 -0.01271683 0.05602948
v 0.05966966 -0.01384191 0.04218129
v 0.05623399 -0.01362058 0.05137195
v 0.05501852 -0.01576167 0.03708073
v 0.04946013 -0.01182264 0.06005586
f 12 7 4
f 13 4 7
f 16 6 13
f 18 11 7
f 18 1 11
f 18 7 12
f 19 7 11
f 21 12 4
f 22 10 13
f 25 11 1
f 25 24 15
f 25 1 24
f 27 9 16
f 27 23 9
f 28 16 13
f 28 13 7
f 28 7 19
f 28 19 3
f 28 27 16
f 28 3 27
f 29 16 9
f 30 10 22
f 30 22 16
f 32 3 19
f 33 20 8
f 33 1 20
f 33 24 1
f 34 18 12
f 34 21 5
f 34 12 21
f 34 20 1
f 34 1 18
f 35 21 4
f 35 4 13
f 35 5 21
f 35 34 5
f 36 6 16
f 36 16 22
f 37 15 24
f 37 14 26
f 37 33 8
f 37 24 33
f 38 25 19
f 38 19 11
f 38 11 25
f 39 26 23
f 39 3 26
f 39 27 3
f 39 23 27
f 40 26 14
f 40 23 26
f 40 29 9
f 40 9 23
f 41 29 2
f 41 16 29
f 41 30 16
f 42 10 30
f 42 17 35
f 42 35 13
f 42 13 10
f 42 31 17
f 42 41 31
f 42 30 41
f 44 26 3
f 44 3 32
f 45 25 15
f 45 32 19
f 45 19 25
f 46 35 17
f 46 17 31
f 47 20 34
f 48 36 22
f 48 22 13
f 48 13 6
f 48 6 36
f 49 37 8
f 49 14 37
f 50 40 14
f 51 2 29
f 51 29 40
f 51 40 50
f 51 41 2
f 52 37 26
f 52 26 44
f 52 44 32
f 52 32 45
f 52 45 15
f 52 15 37
f 53 46 31
f 53 43 46
f 53 51 50
f 54 47 34
f 54 34 35
f 54 35 47
f 55 47 35
f 56 8 20
f 56 20 47
f 56 55 43
f 56 47 55
f 57 14 49
f 57 49 8
f 58 50 14
f 58 43 50
f 58 57 43
f 58 14 57
f 59 31 41
f 59 41 51
f 59 53 31
f 59 51 53
f 60 53 50
f 60 50 43
f 60 43 53
f 61 55 35
f 61 35 46
f 61 46 43
f 61 43 55
f 62 56 43
f 62 8 56
f 62 57 8
f 62 43 57

