# https://github.com/mikedh/trimesh
v 0.02579171 -0.00879665 0.06679262
v 0.03316902 -0.00830034 0.06427370
v 0.02881841 0.00105950 0.06162801
v 0.02587439 0.00890776 0.01829777
v 0.01480478 -0.02220891 0.01801795
v 0.03372272 0.00192578 0.05374663
v 0.02443114 0.00896358 0.03520331
v 0.02954439 -0.00789234 0.06550352
v 0.02240843 -0.02012906 0.06760574
v 0.03106671 -0.02066276 0.01770829
v 0.02511906 0.00117410 0.06151648
v 0.02552591 0.00918905 0.02377545
v 0.02531560 -0.01607513 0.06729294
v 0.01570117 -0.02137613 0.01789281
v 0.03235507 0.00120789 0.01805029
v 0.02916192 -0.02091650 0.03491101
v 0.02076596 -0.02028178 0.06675787
v 0.01452292 -0.02192321 0.03510792
v 0.02630064 0.00870676 0.01848723
v 0.02555792 -0.01861406 0.06620496
v 0.03270804 -0.01212773 0.06205874
v 0.01734008 -0.02089117 0.05926249
v 0.02421443 -0.01899481 0.06729799
v 0.02709358 -0.01851506 0.06308111
v 0.03262228 -0.01049379 0.06350479
f 6 3 2
f 7 4 5
f 7 3 6
f 8 2 3
f 8 3 1
f 10 6 2
f 11 1 3
f 11 3 7
f 12 7 6
f 12 4 7
f 13 8 1
f 13 2 8
f 13 1 9
f 14 10 5
f 14 5 4
f 15 6 10
f 15 14 4
f 15 10 14
f 16 5 10
f 17 9 1
f 17 1 11
f 18 7 5
f 18 5 16
f 19 12 6
f 19 4 12
f 19 15 4
f 19 6 15
f 21 16 10
f 21 10 2
f 22 16 9
f 22 9 17
f 22 18 16
f 22 17 11
f 22 11 7
f 22 7 18
f 23 13 9
f 23 9 20
f 23 20 2
f 23 2 13
f 24 20 9
f 24 9 16
f 24 21 20
f 24 16 21
f 25 21 2
f 25 2 20
f 25 20 21

