# https://github.com/mikedh/trimesh
v 0.02401106 0.01880369 0.00796362
v 0.02388972 -0.00838877 0.00556410
v 0.02365877 0.01848833 0.00063951
v -0.01987566 0.01862804 0.00111922
v -0.01998309 -0.02001944 0.00674705
v 0.02163292 0.01895488 0.00715002
v 0.02426509 0.01499265 0.00702994
v 0.02007615 -0.02003051 0.00670383
v -0.01992535 0.01867509 0.00694617
v 0.01995621 -0.01984661 0.00042538
v 0.02383315 -0.00835169 0.00006123
v -0.01987683 -0.01990875 0.00109847
v -0.01213886 0.01472261 0.00073446
v -0.00186253 -0.01861132 0.00068954
v 0.00712840 -0.01990603 0.00067108
v -0.00314617 0.01856288 0.00073423
v -0.01597499 0.00065062 0.00069382
v -0.01595007 0.01218380 0.00074000
v -0.01470609 -0.00320016 0.00068361
v -0.01469068 0.01345254 0.00074253
v -0.00957020 -0.00962538 0.00067713
v -0.00314640 -0.01733710 0.00068059
f 6 1 3
f 7 1 2
f 7 3 1
f 8 2 1
f 8 1 5
f 9 5 1
f 9 4 5
f 9 6 4
f 9 1 6
f 11 7 2
f 11 3 7
f 11 2 8
f 11 8 10
f 12 5 4
f 12 8 5
f 14 11 10
f 14 10 12
f 15 12 10
f 15 10 8
f 15 8 12
f 16 13 4
f 16 3 11
f 16 11 13
f 16 6 3
f 16 4 6
f 17 12 4
f 18 17 4
f 18 11 17
f 19 12 17
f 19 17 11
f 20 18 4
f 20 4 13
f 20 13 11
f 20 11 18
f 21 12 19
f 21 19 11
f 22 14 12
f 22 12 21
f 22 21 11
f 22 11 14

