# https://github.com/mikedh/trimesh
v -0.00731410 -0.02344186 0.06225549
v -0.00674341 -0.03656161 0.05380438
v -0.00717313 -0.03362739 0.04205710
v -0.03692548 -0.01688242 0.04166909
v -0.02889985 -0.02037937 0.05584802
v -0.02285820 -0.03400371 0.04156065
v -0.01933167 -0.01534078 0.05914134
v -0.00678077 -0.02569489 0.06241245
v -0.00696561 -0.04021209 0.04175313
v -0.02996413 -0.02514285 0.04893892
v -0.00732925 -0.02367614 0.05917848
v -0.02915292 -0.01849704 0.04248355
v -0.03300478 -0.01678921 0.05389645
v -0.01901181 -0.03021065 0.05578579
v -0.02066649 -0.01697096 0.06239123
v -0.01658534 -0.03633075 0.04649802
v -0.00679799 -0.03932240 0.04664978
v -0.01547486 -0.03791613 0.04154143
v -0.03641792 -0.01795020 0.04159562
v -0.03533941 -0.01679136 0.04913256
v -0.02751074 -0.02510307 0.05352028
v -0.00932914 -0.03295742 0.05713971
v -0.01404603 -0.02272775 0.06220222
v -0.02162252 -0.02674376 0.05691452
v -0.02929842 -0.01682436 0.05729333
v -0.01926561 -0.01535379 0.06244192
v -0.01284105 -0.03498698 0.05368607
v -0.01785276 -0.03635432 0.04401740
v -0.01416830 -0.03760199 0.04527515
v -0.01174519 -0.03913093 0.04160439
v -0.03282608 -0.02419913 0.04151406
v -0.03499467 -0.01894666 0.04653720
v -0.03255655 -0.02021691 0.05128591
v -0.03119150 -0.02019871 0.05357019
v -0.02381686 -0.03132987 0.04890545
v -0.00681447 -0.03319781 0.05743427
v -0.01302856 -0.03175848 0.05702435
v -0.02652670 -0.02166572 0.05690517
v -0.01779375 -0.02025399 0.06212896
v -0.01674215 -0.02800691 0.05810465
v -0.02390410 -0.02778116 0.05454990
v -0.02906105 -0.01796484 0.05696212
v -0.01852196 -0.01571038 0.06213247
v -0.03679141 -0.01681613 0.04286929
v -0.01046756 -0.03414152 0.05587775
v -0.00790848 -0.03753826 0.05136456
v -0.01538748 -0.03770939 0.04278706
v -0.01167074 -0.03895478 0.04276264
v -0.03504733 -0.02029096 0.04280664
v -0.03245514 -0.02388932 0.04397107
v -0.03262102 -0.01783802 0.05361519
v -0.02995743 -0.02389499 0.05121069
v -0.03496410 -0.01771589 0.04890541
v -0.01902253 -0.03138618 0.05466082
v -0.02147558 -0.03373728 0.04655270
v -0.02869974 -0.02767573 0.04649486
v -0.00911962 -0.02533259 0.06215413
v -0.02035743 -0.01780233 0.06222195
v -0.02633793 -0.02523121 0.05460471
v -0.01426127 -0.02927085 0.05819497
v -0.02377254 -0.02883179 0.05353057
v -0.01041928 -0.03506111 0.05480501
v -0.00676493 -0.03772496 0.05147596
v -0.00796280 -0.03906856 0.04659252
f 11 7 1
f 11 3 7
f 11 8 3
f 11 1 8
f 12 7 3
f 12 3 4
f 12 4 7
f 17 8 2
f 17 9 3
f 17 3 8
f 19 4 3
f 23 8 15
f 26 15 8
f 26 8 1
f 26 25 15
f 26 13 25
f 26 20 13
f 28 6 18
f 30 18 19
f 30 19 3
f 30 3 9
f 31 19 18
f 31 18 6
f 33 32 10
f 34 21 5
f 35 21 10
f 36 2 8
f 36 8 22
f 39 24 23
f 39 23 15
f 40 24 14
f 40 23 24
f 40 14 37
f 41 14 24
f 42 25 13
f 42 13 5
f 42 5 38
f 42 38 15
f 42 15 25
f 43 26 1
f 43 1 7
f 43 7 26
f 44 26 7
f 44 7 4
f 44 20 26
f 44 32 20
f 44 4 19
f 45 22 37
f 45 36 22
f 45 2 36
f 46 27 16
f 46 16 29
f 47 28 18
f 47 16 28
f 47 29 16
f 48 30 9
f 48 9 17
f 48 29 47
f 48 47 18
f 48 18 30
f 49 19 31
f 49 44 19
f 49 32 44
f 50 10 32
f 50 49 31
f 50 32 49
f 51 13 20
f 51 20 33
f 51 33 34
f 51 34 5
f 51 5 13
f 52 33 10
f 52 10 21
f 52 34 33
f 52 21 34
f 53 33 20
f 53 20 32
f 53 32 33
f 54 14 41
f 54 27 45
f 54 45 37
f 54 37 14
f 54 16 27
f 55 28 16
f 55 54 35
f 55 16 54
f 55 35 6
f 55 6 28
f 56 31 6
f 56 6 35
f 56 35 10
f 56 50 31
f 56 10 50
f 57 37 22
f 57 22 8
f 57 8 23
f 58 38 24
f 58 15 38
f 58 39 15
f 58 24 39
f 59 38 5
f 59 5 21
f 59 21 41
f 59 41 24
f 59 24 38
f 60 40 37
f 60 23 40
f 60 57 23
f 60 37 57
f 61 41 21
f 61 21 35
f 61 54 41
f 61 35 54
f 62 45 27
f 62 2 45
f 62 46 2
f 62 27 46
f 63 46 17
f 63 17 2
f 63 2 46
f 64 46 29
f 64 17 46
f 64 48 17
f 64 29 48

