# https://github.com/mikedh/trimesh
v 0.02886781 0.03137696 0.01737187
v 0.02973886 0.02314375 0.01576492
v 0.02356456 0.01967878 0.00080271
v -0.01918170 0.02665023 0.00219148
v -0.02014071 0.03192504 0.01735135
v -0.02028043 0.01895311 0.00712727
v 0.00434661 0.03782976 0.00706215
v 0.02846612 0.02217851 0.00513979
v 0.02935005 0.02415193 0.01729330
v 0.02401106 0.01880369 0.00796362
v -0.01987566 0.01862804 0.00111922
v 0.00927960 0.03158435 0.00214805
v 0.00686429 0.04176278 0.01743734
v -0.01917289 0.03622876 0.01168693
v -0.01548461 0.03916902 0.01748232
v 0.02365877 0.01848833 0.00063951
v -0.00802001 0.03174089 0.00208028
v 0.01799858 0.02786701 0.00216658
v 0.01805176 0.03760548 0.01269234
v -0.01916170 0.03396267 0.00837790
v 0.01922711 0.03779297 0.01745515
v -0.01962270 0.03737256 0.01741502
v -0.00302649 0.04159654 0.01381151
v 0.02109507 0.02226394 0.00083700
v 0.00552472 0.03405204 0.00330869
v -0.01532590 0.02909873 0.00214564
v 0.02302752 0.02305006 0.00188562
v 0.00805622 0.04019703 0.01154002
v 0.02785704 0.03037814 0.01046481
v 0.01428710 0.03654133 0.00825572
v 0.01187289 0.04058798 0.01745382
v 0.01919685 0.03761200 0.01498583
v -0.01790969 0.03753500 0.01396097
v -0.00670451 0.04161276 0.01741706
v -0.00928038 0.03777702 0.00821742
v 0.01311166 0.03026022 0.00213577
v 0.01359333 0.02244648 0.00072012
v -0.00429045 0.03408684 0.00333603
v -0.01903286 0.03153831 0.00599395
v 0.02540179 0.02305636 0.00341861
v 0.00441125 0.04149831 0.01386802
v 0.00564003 0.04024724 0.01064446
v 0.01055837 0.03411589 0.00464636
v 0.01181156 0.03886824 0.01057052
v 0.02050748 0.03269651 0.00723463
v 0.01178694 0.04010640 0.01393650
v 0.02411805 0.03275695 0.00968614
v -0.01812006 0.03807113 0.01744379
v -0.01174980 0.04046509 0.01746678
v -0.01665689 0.03513360 0.00831203
v -0.00911779 0.04010186 0.01275888
v -0.01042598 0.03407750 0.00465339
v 0.00841996 0.01856541 0.00064551
v -0.00303090 0.03787312 0.00703614
v 0.02784140 0.02661109 0.00727198
v 0.01062504 0.03764668 0.00813171
v 0.01799943 0.03280798 0.00604579
v 0.01558683 0.03763521 0.01054257
v 0.00684554 0.04162893 0.01630426
v 0.01553858 0.03887100 0.01382485
v -0.01537569 0.03884656 0.01515497
v -0.01413320 0.03760829 0.01047323
v -0.01412611 0.03400478 0.00589472
v -0.00421984 0.04023999 0.01059298
f 8 1 2
f 9 2 1
f 9 6 2
f 9 5 6
f 10 2 6
f 11 10 6
f 11 6 5
f 15 5 9
f 16 8 2
f 16 2 10
f 16 3 8
f 16 10 11
f 20 11 5
f 20 4 11
f 21 15 9
f 21 9 1
f 22 20 5
f 22 14 20
f 24 3 16
f 25 12 17
f 26 17 11
f 26 11 4
f 27 24 18
f 27 3 24
f 29 1 8
f 31 15 21
f 32 21 1
f 32 31 21
f 32 1 29
f 33 14 22
f 34 13 23
f 36 24 12
f 36 18 24
f 37 17 12
f 37 12 24
f 37 11 17
f 37 24 16
f 38 25 17
f 39 26 4
f 39 4 20
f 40 8 3
f 40 3 27
f 41 23 13
f 42 41 28
f 42 23 41
f 43 12 25
f 43 36 12
f 44 42 28
f 46 28 41
f 46 44 28
f 47 32 29
f 47 19 32
f 48 33 22
f 48 22 5
f 48 5 15
f 49 13 34
f 49 31 13
f 49 15 31
f 50 20 14
f 51 49 34
f 51 34 23
f 52 17 26
f 52 38 17
f 52 35 38
f 53 37 16
f 53 16 11
f 53 11 37
f 54 7 25
f 54 25 38
f 54 38 35
f 54 42 7
f 55 29 8
f 55 8 40
f 55 47 29
f 55 45 47
f 55 40 27
f 55 27 18
f 55 18 45
f 56 43 25
f 56 25 7
f 56 30 43
f 56 7 42
f 56 42 44
f 57 43 30
f 57 36 43
f 57 30 45
f 57 45 18
f 57 18 36
f 58 56 44
f 58 30 56
f 58 19 47
f 58 47 45
f 58 45 30
f 59 13 31
f 59 31 46
f 59 46 41
f 59 41 13
f 60 32 19
f 60 19 58
f 60 58 44
f 60 44 46
f 60 46 31
f 60 31 32
f 61 48 15
f 61 33 48
f 61 15 49
f 61 49 51
f 62 50 14
f 62 35 50
f 62 51 35
f 62 14 33
f 62 61 51
f 62 33 61
f 63 39 20
f 63 20 50
f 63 50 35
f 63 35 52
f 63 52 26
f 63 26 39
f 64 51 23
f 64 35 51
f 64 54 35
f 64 23 42
f 64 42 54

