# https://github.com/mikedh/trimesh
v -0.02171694 0.01115315 0.06269032
v -0.01858566 -0.01731652 0.06268258
v -0.03324326 0.01108223 0.04198727
v -0.03930742 0.01063562 0.04159915
v -0.03638732 -0.00687681 0.05363324
v -0.03256043 0.01127921 0.04356931
v -0.01935755 -0.01801081 0.05663719
v -0.02525559 -0.00940431 0.06223341
v -0.03386722 0.01055334 0.05587527
v -0.02087322 0.01143815 0.06020952
v -0.03533941 -0.01679136 0.04913256
v -0.03761915 0.00561688 0.05137196
v -0.03760790 0.01059034 0.04897362
v -0.02525652 0.00807490 0.06222132
v -0.03188085 -0.00313783 0.05823031
v -0.02226743 0.01144569 0.05819969
v -0.02078173 0.01132944 0.06187602
v -0.03144307 -0.01656195 0.05571915
v -0.03992317 -0.00699655 0.04171058
v -0.03634334 0.00564922 0.05371008
v -0.03892104 0.00559021 0.04776573
v -0.02422538 0.01061224 0.06225603
v -0.03187532 0.00440283 0.05828340
v -0.03061286 0.01069322 0.05825242
v -0.02144689 -0.01663149 0.06210636
v -0.03499688 -0.01283295 0.05361396
v -0.03304639 -0.00816593 0.05705715
v -0.04045932 -0.00184543 0.04159457
v -0.03377435 -0.00731170 0.04212554
v -0.03761200 -0.00685960 0.05148710
v -0.03622240 0.01047787 0.05250228
v -0.03880990 0.00801387 0.04652650
v -0.03746801 0.00927384 0.05021154
v -0.03285399 0.00935009 0.05708033
v -0.02783767 0.00184053 0.06088213
v -0.03040422 -0.01558164 0.05695429
v -0.03254212 -0.01654068 0.05466099
v -0.03272657 -0.01411565 0.05576278
v -0.03511351 -0.00928818 0.05481122
v -0.04045733 0.00312927 0.04157328
v -0.02556591 -0.01769319 0.04986086
v -0.03889678 0.00184669 0.04895284
v -0.03897804 -0.00559648 0.04778369
v -0.03635537 -0.01053368 0.05248273
v -0.03501947 0.00932519 0.05485115
v -0.03883914 0.01058675 0.04402385
v -0.02778975 -0.00307275 0.06086751
v -0.03505792 -0.01667113 0.05021457
v -0.03174462 -0.01301958 0.05690696
v -0.03402789 -0.00934202 0.05600077
v -0.04023613 0.00313666 0.04280322
v -0.03757657 -0.00930642 0.05025874
v -0.04024760 -0.00183206 0.04279910
v -0.03889043 -0.00059899 0.04896612
v -0.03903261 -0.00679505 0.04661057
f 6 3 4
f 8 2 1
f 10 7 3
f 10 2 7
f 13 6 4
f 14 8 1
f 16 10 3
f 16 3 6
f 16 6 13
f 16 13 9
f 17 1 2
f 17 2 10
f 18 7 2
f 22 14 1
f 24 17 10
f 24 1 17
f 24 22 1
f 24 14 22
f 24 16 9
f 24 10 16
f 25 18 2
f 25 2 8
f 27 8 15
f 27 15 23
f 27 23 20
f 27 20 5
f 28 4 3
f 29 28 3
f 29 19 28
f 30 20 12
f 30 5 20
f 31 12 20
f 31 9 13
f 32 21 13
f 33 21 12
f 33 13 21
f 33 31 13
f 33 12 31
f 34 20 23
f 34 24 9
f 34 23 14
f 34 14 24
f 35 23 15
f 35 8 14
f 35 14 23
f 36 25 8
f 36 18 25
f 37 11 7
f 37 7 18
f 38 18 36
f 38 37 18
f 38 26 37
f 39 26 38
f 40 4 28
f 41 29 3
f 41 3 7
f 41 7 11
f 41 11 19
f 41 19 29
f 42 30 12
f 42 12 21
f 44 5 30
f 44 39 5
f 44 26 39
f 45 31 20
f 45 9 31
f 45 34 9
f 45 20 34
f 46 32 13
f 46 13 4
f 46 4 32
f 47 35 15
f 47 15 8
f 47 8 35
f 48 37 26
f 48 11 37
f 48 26 44
f 49 38 36
f 49 36 8
f 49 8 27
f 50 27 5
f 50 5 39
f 50 39 38
f 50 49 27
f 50 38 49
f 51 21 32
f 51 32 4
f 51 4 40
f 51 42 21
f 52 19 11
f 52 48 44
f 52 11 48
f 52 44 30
f 52 30 43
f 53 28 19
f 53 19 43
f 53 42 51
f 53 51 40
f 53 40 28
f 54 43 30
f 54 30 42
f 54 53 43
f 54 42 53
f 55 52 43
f 55 43 19
f 55 19 52

