# https://github.com/mikedh/trimesh
v 0.02388617 0.01154251 0.06217253
v 0.03894764 -0.00934882 0.04521546
v 0.03410062 0.01922810 0.04906753
v 0.03735850 0.00719624 0.01730553
v 0.02067006 -0.03688531 0.01745314
v 0.04162882 0.00684753 0.02885365
v 0.02373996 0.02133748 0.04854361
v 0.03647178 0.00557206 0.05362789
v 0.02065266 -0.02817586 0.05612687
v 0.04171704 0.00684575 0.01749349
v 0.02458667 0.02206518 0.05749328
v 0.02226378 -0.03034354 0.01713567
v 0.03897186 0.01050996 0.04400030
v 0.03017724 -0.02764917 0.04142701
v 0.01963768 0.01288007 0.06172409
v 0.02537697 -0.00812525 0.06219626
v 0.03218332 0.02204308 0.04927944
v 0.04163261 -0.00678521 0.02756158
v 0.03295889 0.01300756 0.05577606
v 0.03641840 -0.02157419 0.01746596
v 0.03628472 0.01174474 0.05136422
v 0.04035536 0.00314005 0.04280876
v 0.02068376 -0.03449123 0.04544695
v 0.03268313 -0.01778581 0.05349102
v 0.01968466 0.01287135 0.06016976
v 0.02059637 0.01264529 0.06250861
v 0.04173379 -0.00056418 0.03392772
v 0.03022339 0.02151403 0.05362981
v 0.02800787 0.01925126 0.05688785
v 0.03306344 0.00688656 0.05706714
v 0.02530212 -0.03392252 0.01751420
v 0.04163183 -0.00677860 0.01747834
v 0.03897396 -0.01549012 0.03266673
v 0.03509160 0.01655337 0.05014913
v 0.03897976 0.00552319 0.04777209
v 0.03515081 0.01170145 0.05368597
v 0.04041261 0.00683179 0.04029283
v 0.02762067 -0.02510142 0.05361941
v 0.02054780 -0.03297910 0.05034678
v 0.03649960 -0.00555120 0.05359511
v 0.02526701 0.00805615 0.06219870
v 0.02086445 -0.01575212 0.06231203
v 0.04166064 0.00555685 0.03133812
v 0.04034547 -0.00567474 0.04154501
v 0.03254783 0.02020716 0.05136904
v 0.02558583 0.01930996 0.05814387
v 0.03040859 0.01797990 0.05580134
v 0.02790104 0.02158980 0.05573686
v 0.03401491 -0.02532059 0.01752405
v 0.02287599 -0.03510868 0.03387736
v 0.04171068 -0.00562497 0.03009919
v 0.04055237 -0.01179434 0.01743742
v 0.03509897 -0.02025891 0.04395130
v 0.03762586 0.01176010 0.04774883
v 0.03763716 0.00557044 0.05142211
v 0.03519436 0.00812286 0.05489700
v 0.03501427 0.01419062 0.05250987
v 0.04040216 0.00558832 0.04153882
v 0.02070221 -0.03695363 0.02760269
v 0.02055440 -0.03174648 0.05271364
v 0.02512957 -0.03008266 0.04889883
v 0.03632407 -0.01177663 0.05139234
v 0.03296504 -0.01300859 0.05578193
v 0.03302946 -0.00688293 0.05707037
f 10 3 6
f 12 7 4
f 12 5 7
f 13 6 3
f 15 11 7
f 17 3 10
f 17 7 11
f 17 10 4
f 17 4 7
f 25 15 7
f 25 7 5
f 25 5 15
f 26 1 11
f 26 11 15
f 28 17 11
f 31 5 12
f 32 4 10
f 34 13 3
f 37 6 13
f 39 15 5
f 40 8 30
f 41 26 16
f 41 1 26
f 41 16 30
f 41 30 19
f 41 19 1
f 42 26 15
f 42 15 9
f 42 16 26
f 42 9 38
f 43 27 10
f 43 10 6
f 43 6 37
f 44 27 22
f 44 2 33
f 44 22 35
f 44 40 2
f 44 35 40
f 45 3 17
f 45 17 28
f 45 34 3
f 46 29 11
f 46 11 1
f 46 1 29
f 47 29 1
f 47 1 19
f 48 28 11
f 48 11 29
f 48 47 28
f 48 29 47
f 49 31 12
f 49 12 20
f 49 14 31
f 50 31 14
f 50 14 23
f 51 18 32
f 51 27 44
f 51 44 33
f 51 33 18
f 51 32 10
f 51 10 27
f 52 20 12
f 52 12 4
f 52 4 32
f 52 33 20
f 52 32 18
f 52 18 33
f 53 14 49
f 53 49 20
f 53 20 33
f 53 38 14
f 53 24 38
f 53 33 2
f 54 34 21
f 54 13 34
f 54 35 13
f 55 40 35
f 55 8 40
f 55 36 8
f 55 21 36
f 55 54 21
f 55 35 54
f 56 30 8
f 56 8 36
f 56 36 19
f 56 19 30
f 57 36 21
f 57 21 34
f 57 34 45
f 57 19 36
f 57 45 28
f 57 47 19
f 57 28 47
f 58 35 22
f 58 43 37
f 58 22 27
f 58 27 43
f 58 37 13
f 58 13 35
f 59 39 5
f 59 23 39
f 59 50 23
f 59 5 31
f 59 31 50
f 60 9 15
f 60 15 39
f 60 38 9
f 61 39 23
f 61 23 14
f 61 14 38
f 61 60 39
f 61 38 60
f 62 2 40
f 62 53 2
f 62 24 53
f 63 62 40
f 63 24 62
f 63 16 42
f 63 42 38
f 63 38 24
f 64 40 30
f 64 30 16
f 64 63 40
f 64 16 63

