# https://github.com/mikedh/trimesh
v 0.01990728 0.02241701 0.05962422
v 0.04016421 0.00701159 0.04173694
v 0.02771040 0.03010134 0.04148020
v 0.02100513 0.03317805 0.00802098
v 0.03735850 0.00719624 0.01730553
v 0.01940497 0.03553264 0.04410289
v 0.03006707 0.02269508 0.05252745
v 0.03380989 0.00730151 0.04223438
v 0.02846612 0.02217851 0.00513979
v 0.02167645 0.03640376 0.01620672
v 0.01954363 0.03582369 0.01032549
v 0.03710043 0.01196521 0.04921251
v 0.02155602 0.03018882 0.05344944
v 0.04056450 0.00685946 0.03907219
v 0.02820529 0.01239535 0.04982957
v 0.02539194 0.03383168 0.03131945
v 0.03145144 0.02774168 0.01272380
v 0.01954123 0.02450795 0.05871430
v 0.01942532 0.03686336 0.03525036
v 0.02697214 0.02189606 0.05622274
v 0.03640242 0.01909422 0.04026188
v 0.02517194 0.03008293 0.04902151
v 0.04188396 0.00685326 0.01997549
v 0.02277448 0.03385196 0.04276327
v 0.02909854 0.02663964 0.00835375
v 0.02757681 0.03135073 0.01147098
v 0.03524078 0.02405274 0.02501668
v 0.01934555 0.03301467 0.05148902
v 0.01951509 0.03693257 0.01249734
v 0.02162542 0.03634929 0.02753977
v 0.02206709 0.02210337 0.05880706
v 0.02666974 0.02292222 0.05581238
v 0.03258276 0.02402873 0.04395405
v 0.03892887 0.01299572 0.04026006
v 0.02514835 0.02885383 0.05123345
v 0.04167409 0.00704587 0.01737796
v 0.02643743 0.03263403 0.03381901
v 0.02514591 0.03133250 0.04517379
v 0.02161192 0.03503388 0.04029433
v 0.02817966 0.02328352 0.00547912
v 0.02530166 0.03389624 0.01378909
v 0.02537483 0.03274235 0.01080225
v 0.03140725 0.02652035 0.01067194
v 0.01948127 0.02700177 0.05736496
v 0.02267910 0.03249715 0.04770891
v 0.02289770 0.03509461 0.03387034
v 0.02196959 0.02309839 0.05841523
v 0.03507412 0.01899386 0.04642413
v 0.02886734 0.02635422 0.04884669
v 0.03141980 0.02772859 0.03392987
v 0.03511081 0.02278795 0.03387122
v 0.03794175 0.01184267 0.04657853
v 0.04028899 0.00929379 0.03771636
v 0.03898616 0.01665616 0.02756981
v 0.02275950 0.03011712 0.05237105
v 0.03902722 0.01666435 0.01751881
v 0.02411681 0.03378215 0.03767166
v 0.02032877 0.03506989 0.04395835
v 0.03449117 0.02188368 0.01031987
v 0.02889593 0.03012971 0.01162634
v 0.03396289 0.02530721 0.01510423
v 0.02297029 0.03512287 0.01262213
v 0.02064216 0.03546740 0.01059901
v 0.02167035 0.02773577 0.05577281
f 9 1 4
f 11 4 1
f 12 8 2
f 14 2 8
f 15 5 8
f 15 9 5
f 15 1 9
f 15 12 1
f 15 8 12
f 18 11 1
f 20 12 7
f 23 14 8
f 23 8 5
f 28 11 18
f 28 6 19
f 29 19 10
f 29 28 19
f 29 11 28
f 30 16 10
f 30 10 19
f 31 1 12
f 31 12 20
f 32 20 7
f 35 32 7
f 36 23 5
f 36 5 9
f 38 22 3
f 38 3 24
f 39 19 6
f 40 9 4
f 40 4 25
f 41 10 16
f 42 41 26
f 42 26 25
f 42 25 4
f 44 28 18
f 44 13 28
f 45 6 28
f 45 28 22
f 45 38 24
f 45 22 38
f 46 30 19
f 46 16 30
f 46 19 39
f 47 18 1
f 47 1 31
f 47 44 18
f 47 31 20
f 47 20 32
f 48 33 7
f 48 7 12
f 48 21 33
f 48 34 21
f 49 7 33
f 49 35 7
f 49 22 35
f 49 33 3
f 49 3 22
f 50 3 33
f 50 37 3
f 50 27 16
f 50 16 37
f 51 33 21
f 51 50 33
f 51 27 50
f 52 12 2
f 52 2 34
f 52 48 12
f 52 34 48
f 53 34 2
f 53 2 14
f 53 14 23
f 54 21 34
f 54 51 21
f 54 27 51
f 54 53 23
f 54 34 53
f 55 13 32
f 55 32 35
f 55 28 13
f 55 35 22
f 55 22 28
f 56 27 54
f 56 54 23
f 56 23 36
f 57 24 3
f 57 3 37
f 57 37 16
f 57 39 24
f 57 46 39
f 57 16 46
f 58 39 6
f 58 24 39
f 58 45 24
f 58 6 45
f 59 40 25
f 59 9 40
f 59 25 43
f 59 36 9
f 59 56 36
f 59 43 17
f 60 41 17
f 60 26 41
f 60 17 43
f 60 43 25
f 60 25 26
f 61 17 41
f 61 27 56
f 61 59 17
f 61 56 59
f 61 41 16
f 61 16 27
f 62 29 10
f 62 10 41
f 62 41 42
f 63 42 4
f 63 4 11
f 63 62 42
f 63 11 29
f 63 29 62
f 64 32 13
f 64 13 44
f 64 47 32
f 64 44 47

