# https://github.com/mikedh/trimesh
v -0.03230590 0.02054432 0.01730662
v -0.02045017 -0.02708560 0.00992454
v -0.02019297 0.02017148 0.00740084
v -0.02655440 0.01904167 0.00216178
v -0.04012467 -0.00929568 0.01137788
v -0.01944982 -0.02576576 0.00168498
v -0.01987443 0.01991183 0.00117337
v -0.02669218 -0.02674966 0.01724945
v -0.03894302 0.01167014 0.01046105
v -0.03297235 -0.00428335 0.00214327
v -0.03160086 0.01909913 0.00592219
v -0.04159213 -0.00680086 0.01748094
v -0.03273426 -0.02525355 0.01161635
v -0.03179147 -0.00935176 0.00208201
v -0.03179563 0.00936170 0.00214798
v -0.03907588 0.00430278 0.00821116
v -0.03758881 0.01909999 0.01626497
v -0.03901100 0.01655791 0.01754649
v -0.03014010 -0.02523301 0.00843610
v -0.03772474 -0.01924136 0.01743272
v -0.03652784 -0.00676838 0.00586600
v -0.03040143 0.01299823 0.00219382
v -0.03301069 0.00312244 0.00212657
v -0.03754215 0.01173381 0.00819487
v -0.04158273 0.00431669 0.01380471
v -0.03514165 0.01900370 0.00935206
v -0.03769424 0.01915492 0.01743293
v -0.03888221 0.01536975 0.01387815
v -0.02917649 -0.01549063 0.00212481
v -0.03764827 -0.01418851 0.00951965
v -0.04052720 -0.01186912 0.01743116
v -0.03391020 -0.02530310 0.01744423
v -0.03527584 -0.00678608 0.00462297
v -0.03903715 -0.00436696 0.00825554
v -0.03032197 0.01660703 0.00350674
v -0.03532422 0.00686593 0.00459196
v -0.03892792 0.00931261 0.00930339
v -0.03407450 0.01178359 0.00461317
v -0.04166566 0.00683642 0.01747132
v -0.04148988 -0.00435960 0.01379500
v -0.03638265 0.01662346 0.00930160
v -0.03633512 0.01908288 0.01161217
v -0.03884681 0.01656447 0.01628176
v -0.04010355 0.01051987 0.01261636
v -0.03044302 -0.01303914 0.00211713
v -0.02658974 -0.01914385 0.00214443
v -0.03384941 -0.02153094 0.00952853
v -0.03895168 -0.01545223 0.01384323
v -0.04011034 -0.01180261 0.01379958
v -0.03633931 -0.02160727 0.01614286
v -0.03382041 -0.02528767 0.01619590
v -0.03641743 -0.02159371 0.01746190
v -0.03648318 -0.01176208 0.00717901
v -0.04027676 0.00554276 0.01048712
v -0.03903339 -0.00928172 0.00936177
v -0.02920272 0.01546454 0.00225550
v -0.03409633 0.00562089 0.00331113
v -0.03778347 0.00686808 0.00707593
v -0.03158943 0.01421929 0.00347190
v -0.04013587 -0.00685439 0.01049595
v -0.03759058 0.01539535 0.01045383
v -0.03516530 0.01538252 0.00714320
v -0.04013895 0.01296865 0.01631210
v -0.04156669 0.00681930 0.01619313
f 6 3 2
f 7 1 3
f 7 3 6
f 8 2 3
f 8 3 1
f 11 7 4
f 11 1 7
f 13 2 8
f 14 10 7
f 14 7 6
f 18 8 1
f 19 6 2
f 19 2 13
f 22 4 7
f 22 7 15
f 23 15 7
f 23 7 10
f 23 10 16
f 26 1 11
f 27 18 1
f 27 1 17
f 27 17 18
f 32 8 18
f 33 21 10
f 33 10 14
f 34 16 10
f 34 10 21
f 35 11 4
f 37 9 24
f 38 22 15
f 38 15 36
f 39 25 12
f 39 12 18
f 40 12 25
f 42 17 1
f 42 1 26
f 42 28 17
f 42 26 41
f 43 18 17
f 43 17 28
f 44 28 9
f 45 14 6
f 45 6 29
f 46 29 6
f 46 6 19
f 46 19 29
f 47 19 13
f 47 29 19
f 48 5 30
f 48 20 31
f 48 47 13
f 48 30 47
f 49 31 12
f 49 48 31
f 49 5 48
f 49 40 5
f 49 12 40
f 50 48 13
f 50 20 48
f 51 13 8
f 51 8 32
f 51 50 13
f 51 32 50
f 52 32 18
f 52 18 12
f 52 50 32
f 52 20 50
f 52 31 20
f 52 12 31
f 53 21 33
f 53 33 14
f 53 14 45
f 53 47 30
f 53 45 29
f 53 29 47
f 54 16 34
f 54 37 16
f 54 25 44
f 54 44 9
f 54 9 37
f 54 40 25
f 55 30 5
f 55 53 30
f 55 34 21
f 55 21 53
f 56 35 4
f 56 4 22
f 57 36 15
f 57 15 23
f 57 23 16
f 57 16 36
f 58 36 16
f 58 38 36
f 58 24 38
f 58 37 24
f 58 16 37
f 59 22 38
f 59 56 22
f 59 35 56
f 60 5 40
f 60 55 5
f 60 34 55
f 60 54 34
f 60 40 54
f 61 41 24
f 61 24 9
f 61 9 28
f 61 42 41
f 61 28 42
f 62 38 24
f 62 24 41
f 62 59 38
f 62 11 35
f 62 35 59
f 62 41 26
f 62 26 11
f 63 43 28
f 63 18 43
f 63 28 44
f 63 39 18
f 64 44 25
f 64 25 39
f 64 63 44
f 64 39 63

