# https://github.com/mikedh/trimesh
v 0.00197988 -0.03417189 0.04182257
v 0.01193390 -0.04061173 0.02632081
v 0.00840742 -0.01993397 0.00066003
v -0.01987683 -0.01990875 0.00109847
v -0.02523349 -0.03393784 0.01756831
v -0.03126707 -0.02621885 0.04174996
v 0.01229729 -0.03547848 0.02637094
v 0.00446813 -0.03909124 0.00818292
v 0.00842624 -0.01997785 0.00536571
v -0.03313978 -0.02564352 0.01373182
v -0.01174519 -0.03913093 0.04160439
v 0.00825854 -0.04103502 0.03272649
v 0.01212347 -0.02986939 0.00132426
v -0.01534125 -0.03399328 0.00589763
v -0.02087497 -0.02757014 0.04238389
v -0.01998309 -0.02001944 0.00674705
v -0.03261494 -0.02646518 0.03139333
v -0.02393547 -0.03389427 0.03777372
v -0.00672170 -0.04164477 0.01876793
v 0.00844500 -0.03556488 0.03283211
v 0.00190574 -0.04074572 0.04163510
v 0.01243892 -0.03065310 0.00896819
v 0.01183585 -0.03899176 0.01037409
v -0.00426483 -0.03288532 0.00205628
v -0.02936155 -0.02567358 0.00808548
v -0.01909499 -0.03627423 0.04148730
v -0.03192322 -0.02575324 0.04034628
v -0.03317759 -0.02573816 0.03143299
v -0.03253509 -0.02644162 0.01388611
v -0.02637802 -0.03268673 0.03134070
v 0.00687959 -0.04160700 0.01748609
v -0.00920532 -0.03889149 0.00930366
v -0.00555002 -0.04165010 0.03012660
v 0.01184207 -0.04023139 0.01506757
v 0.00815810 -0.03534343 0.00452583
v -0.01923686 -0.02669639 0.00217368
v -0.03059227 -0.02562103 0.00920812
v -0.02636034 -0.03134707 0.04143204
v -0.02041836 -0.03638452 0.03520041
v -0.03009404 -0.02766491 0.04143864
v -0.03133260 -0.02653258 0.04028389
v -0.03140121 -0.02769583 0.03263698
v 0.00682328 -0.04165723 0.02882680
v -0.00050639 -0.04160869 0.01384979
v -0.00686318 -0.03787844 0.00707583
v -0.01796033 -0.03761600 0.01382212
v -0.00672268 -0.04028747 0.04157355
v -0.01177268 -0.04020839 0.03135203
v 0.00806439 -0.04025566 0.01153456
v 0.01178336 -0.03766914 0.00819900
v 0.00565195 -0.03296332 0.00215820
v -0.01168748 -0.03288252 0.00348801
v -0.00926076 -0.03183159 0.00213085
v -0.02184689 -0.02572284 0.00288264
v -0.03003607 -0.02769647 0.01056907
v -0.02150613 -0.03510393 0.04025677
v -0.02512280 -0.03261579 0.04028374
v -0.02517769 -0.03391278 0.02883945
v -0.02764157 -0.03141185 0.03262249
v 0.00565040 -0.04163063 0.03139606
v -0.00671091 -0.04165759 0.02758239
v -0.00306189 -0.04025110 0.01037747
v -0.00793538 -0.04010654 0.01145790
v -0.00305881 -0.04163256 0.01499709
f 9 3 4
f 9 1 7
f 12 2 7
f 13 4 3
f 15 9 6
f 15 1 9
f 16 9 4
f 20 12 7
f 20 7 1
f 21 1 15
f 21 20 1
f 21 12 20
f 22 9 7
f 22 13 3
f 22 3 9
f 23 13 22
f 24 4 13
f 26 15 6
f 26 11 15
f 27 6 9
f 27 9 16
f 28 16 4
f 28 4 10
f 28 27 16
f 29 5 17
f 29 28 10
f 29 17 28
f 34 22 7
f 34 7 2
f 34 23 22
f 34 2 31
f 37 10 4
f 37 4 25
f 38 26 6
f 40 38 6
f 41 28 17
f 41 27 28
f 41 40 6
f 41 6 27
f 42 17 5
f 42 41 17
f 42 40 41
f 43 31 2
f 43 2 12
f 45 24 8
f 45 32 14
f 46 14 32
f 46 39 5
f 47 33 21
f 47 21 15
f 47 15 11
f 48 11 26
f 48 26 39
f 48 46 19
f 48 39 46
f 48 47 11
f 49 34 31
f 49 23 34
f 49 31 44
f 49 44 8
f 49 8 23
f 50 23 8
f 50 8 35
f 50 35 13
f 50 13 23
f 51 24 13
f 51 13 35
f 51 35 8
f 51 8 24
f 52 14 36
f 52 45 14
f 52 24 45
f 53 36 4
f 53 4 24
f 53 52 36
f 53 24 52
f 54 25 4
f 54 4 36
f 54 36 14
f 54 14 25
f 55 29 10
f 55 10 37
f 55 5 29
f 55 46 5
f 55 14 46
f 55 37 25
f 55 25 14
f 56 26 38
f 56 39 26
f 56 18 39
f 57 30 18
f 57 56 38
f 57 18 56
f 58 5 39
f 58 42 5
f 58 30 42
f 58 39 18
f 58 18 30
f 59 42 30
f 59 38 40
f 59 40 42
f 59 57 38
f 59 30 57
f 60 43 12
f 60 12 21
f 60 21 33
f 60 33 43
f 61 43 33
f 61 19 43
f 61 48 19
f 61 33 47
f 61 47 48
f 62 8 44
f 62 45 8
f 62 32 45
f 63 62 44
f 63 32 62
f 63 46 32
f 63 19 46
f 64 43 19
f 64 63 44
f 64 19 63
f 64 44 31
f 64 31 43

