# https://github.com/mikedh/trimesh
v 0.03661455 0.02173105 0.01745981
v 0.04182594 -0.00559860 0.01744697
v 0.03774863 0.01060277 0.00816364
v 0.02365877 0.01848833 0.00063951
v 0.03289483 -0.01918496 0.01750345
v 0.03407478 0.02159984 0.00952587
v 0.04160152 0.00682715 0.01621814
v 0.04171704 0.00684575 0.01749349
v 0.02437812 0.02288054 0.01010177
v 0.03420356 -0.01424876 0.00584051
v 0.03767021 0.01795871 0.01260225
v 0.02921950 0.01537195 0.00203532
v 0.04033924 -0.00437540 0.01059038
v 0.03818093 -0.01815072 0.01746963
v 0.03782893 0.01926717 0.01749974
v 0.04157290 0.00434829 0.01383183
v 0.03055244 0.02271979 0.01729776
v 0.02415724 -0.00854682 0.00564416
v 0.02334751 0.02203649 0.00150785
v 0.03533475 0.02165768 0.01152921
v 0.03641568 0.01907723 0.01049413
v 0.02981437 -0.00823673 0.00072086
v 0.03343945 -0.01947970 0.00780231
v 0.04032688 -0.01186568 0.01500884
v 0.03638769 0.02157996 0.01506007
v 0.04061219 0.01189515 0.01745034
v 0.04159359 -0.00309244 0.01386208
v 0.04027071 0.00553679 0.01055107
v 0.04015932 0.01055547 0.01273436
v 0.02383315 -0.00835169 0.00006123
v 0.02703842 0.01560389 0.00092606
v 0.03161970 0.02161772 0.00718330
v 0.03545234 0.01813747 0.00848659
v 0.03290552 0.00181848 0.00203359
v 0.03745709 -0.01966855 0.01742162
v 0.04055237 -0.01179434 0.01743742
v 0.03777334 -0.01541927 0.01061482
v 0.03772863 0.01922084 0.01622323
v 0.04026242 -0.00806050 0.01150898
v 0.04173852 -0.00557054 0.01618409
v 0.04035587 0.01182937 0.01499927
v 0.03890924 0.01177154 0.01052111
v 0.02473696 0.01836347 0.00082773
v 0.02960467 0.01070458 0.00087982
v 0.02661475 0.01910291 0.00212430
v 0.03406611 0.01799639 0.00721535
v 0.03532791 -0.00432580 0.00451647
v 0.03797280 0.00316678 0.00707089
v 0.03928583 -0.01561790 0.01744868
v 0.03653104 -0.01417867 0.00827634
v 0.03645275 -0.01917707 0.01144291
v 0.03900050 0.01549223 0.01394881
v 0.03900666 -0.01179325 0.01061135
v 0.03079078 0.00691344 0.00092436
v 0.03162018 0.01045619 0.00210813
v 0.03036501 0.01652662 0.00349514
v 0.02655479 0.02162971 0.00349560
v 0.03176530 -0.00809337 0.00186205
v 0.03794391 -0.00058225 0.00704317
v 0.03527688 -0.01917250 0.00959391
v 0.03412241 -0.01913905 0.00824220
v 0.03663688 -0.01060367 0.00704982
v 0.03780138 -0.01789111 0.01384948
v 0.03889833 -0.01539416 0.01388115
f 14 8 5
f 14 2 8
f 15 1 5
f 15 5 8
f 16 8 2
f 16 7 8
f 17 9 5
f 17 5 1
f 18 5 9
f 19 9 6
f 19 18 9
f 20 17 1
f 20 6 9
f 20 9 17
f 21 20 11
f 21 6 20
f 23 22 10
f 25 20 1
f 25 11 20
f 26 15 8
f 26 8 7
f 27 16 2
f 27 13 16
f 28 16 13
f 29 7 16
f 29 16 28
f 30 19 4
f 30 18 19
f 30 22 23
f 30 23 5
f 30 5 18
f 31 19 12
f 32 19 6
f 33 32 6
f 33 6 21
f 35 14 5
f 35 5 23
f 36 2 14
f 38 11 25
f 38 25 1
f 38 1 15
f 39 13 27
f 40 27 2
f 40 39 27
f 40 24 39
f 40 36 24
f 40 2 36
f 41 26 7
f 41 7 29
f 42 21 11
f 42 33 21
f 42 3 33
f 42 29 28
f 42 28 3
f 43 31 4
f 43 4 19
f 43 19 31
f 44 30 4
f 44 4 31
f 44 31 12
f 45 12 19
f 46 32 33
f 48 3 28
f 48 28 13
f 49 36 14
f 49 24 36
f 51 35 23
f 52 38 15
f 52 15 26
f 52 26 41
f 52 11 38
f 52 41 29
f 52 42 11
f 52 29 42
f 53 39 24
f 53 37 50
f 53 13 39
f 54 22 30
f 54 30 44
f 54 34 22
f 55 33 3
f 55 54 44
f 55 3 48
f 55 48 34
f 55 34 54
f 55 44 12
f 55 46 33
f 55 12 46
f 56 45 32
f 56 12 45
f 56 46 12
f 56 32 46
f 57 45 19
f 57 19 32
f 57 32 45
f 58 10 22
f 58 22 34
f 58 34 47
f 59 47 34
f 59 34 48
f 59 48 13
f 60 50 37
f 60 51 23
f 60 37 51
f 61 23 10
f 61 10 50
f 61 60 23
f 61 50 60
f 62 50 10
f 62 53 50
f 62 13 53
f 62 59 13
f 62 47 59
f 62 58 47
f 62 10 58
f 63 14 35
f 63 35 51
f 64 53 24
f 64 37 53
f 64 24 49
f 64 49 14
f 64 14 63
f 64 63 51
f 64 51 37

