# https://github.com/mikedh/trimesh
v 0.02170303 -0.01111102 0.06246247
v 0.02035481 -0.02908246 0.05566265
v 0.02163307 -0.03077619 0.02644100
v 0.00862048 -0.03636078 0.02645960
v -0.00731410 -0.02344186 0.06225549
v 0.01556137 -0.03895119 0.03263789
v 0.02025741 -0.03138951 0.05352416
v 0.00800577 -0.02552018 0.06213865
v 0.02189856 -0.00991081 0.05892493
v 0.01926507 -0.03776964 0.02628927
v -0.00696561 -0.04021209 0.04175313
v 0.01813726 -0.01927127 0.06212938
v -0.00678077 -0.02569489 0.06241245
v 0.01057088 -0.03401147 0.05578449
v 0.02175546 -0.00982299 0.06204837
v -0.00717313 -0.03362739 0.04205710
v 0.02026384 -0.03509161 0.04401388
v 0.00832944 -0.04144528 0.02635391
v 0.01662183 -0.02292471 0.06084922
v 0.02063268 -0.01684511 0.06209008
v 0.00322428 -0.02678717 0.06218448
v -0.00674341 -0.03656161 0.05380438
v 0.01423874 -0.03285869 0.05564290
v 0.00441406 -0.03900626 0.04899722
v -0.00732925 -0.02367614 0.05917848
v 0.02041874 -0.03639549 0.03519036
v 0.02026492 -0.03375033 0.04885153
v 0.01303130 -0.04025784 0.02629796
v 0.01062126 -0.02438128 0.06207149
v 0.01805948 -0.02673577 0.05812033
v 0.00932080 -0.03289452 0.05708500
v -0.00680992 -0.03190100 0.05824232
v -0.00676493 -0.03772496 0.05147596
v 0.01664130 -0.03259286 0.05462636
v 0.01183496 -0.03898328 0.04274290
v 0.00197554 -0.04177833 0.03279338
v 0.00436411 -0.03760792 0.05265028
v 0.01674763 -0.03756743 0.04028783
v 0.01800765 -0.03766278 0.03517693
v 0.02074877 -0.03698671 0.02632115
v 0.01303241 -0.03175852 0.05687898
v 0.01555887 -0.03042812 0.05687729
v 0.00693005 -0.03192306 0.05821272
v -0.00311466 -0.02675456 0.06218075
v -0.00430655 -0.03900364 0.04898014
v 0.01787432 -0.03499554 0.04892679
v 0.01294901 -0.03501408 0.05357185
v 0.01185292 -0.04023009 0.03264768
v 0.00564141 -0.04027754 0.04285102
v -0.00305857 -0.03765945 0.05265296
v 0.00436114 -0.03530219 0.05594743
v 0.01916934 -0.03640919 0.04025978
v 0.01419857 -0.03890439 0.03775091
v 0.01919356 -0.03766870 0.02885073
v -0.00671872 -0.03905174 0.04778410
v 0.01666791 -0.03633391 0.04654690
v 0.00809386 -0.03644608 0.05363287
v 0.01301645 -0.04020663 0.02758020
v 0.00930677 -0.03882810 0.04650550
v 0.00187941 -0.04036003 0.04412850
v 0.00811215 -0.04022691 0.04028807
v -0.00426069 -0.03534413 0.05587310
v 0.00065797 -0.03420226 0.05712088
v -0.00308726 -0.04032023 0.04408106
f 7 1 2
f 7 3 1
f 9 1 3
f 9 3 4
f 12 1 8
f 13 1 5
f 15 9 5
f 15 5 1
f 15 1 9
f 16 9 4
f 16 11 5
f 18 16 4
f 18 11 16
f 20 12 2
f 20 2 1
f 20 1 12
f 21 8 1
f 21 1 13
f 25 16 5
f 25 5 9
f 25 9 16
f 27 3 7
f 28 18 4
f 28 4 3
f 28 3 10
f 29 19 12
f 29 12 8
f 30 2 12
f 30 12 19
f 31 14 23
f 32 13 5
f 32 5 22
f 33 22 5
f 33 5 11
f 34 7 2
f 34 2 23
f 36 11 18
f 40 10 3
f 40 17 26
f 40 27 17
f 40 3 27
f 41 29 8
f 41 31 23
f 41 8 31
f 42 30 19
f 42 19 29
f 42 29 41
f 42 2 30
f 42 41 23
f 42 23 2
f 43 31 8
f 43 8 21
f 44 21 13
f 44 13 32
f 46 27 7
f 47 34 23
f 47 23 14
f 47 46 7
f 47 7 34
f 50 22 33
f 50 33 45
f 50 45 24
f 50 24 37
f 51 14 31
f 51 31 43
f 51 50 37
f 52 26 17
f 52 39 26
f 52 38 39
f 53 38 35
f 53 39 38
f 53 6 39
f 53 48 6
f 53 35 48
f 54 39 6
f 54 6 10
f 54 26 39
f 54 40 26
f 54 10 40
f 55 45 33
f 55 33 11
f 56 17 27
f 56 27 46
f 56 52 17
f 56 38 52
f 56 35 38
f 56 46 47
f 57 47 14
f 57 37 24
f 57 51 37
f 57 14 51
f 58 6 48
f 58 28 10
f 58 10 6
f 58 48 18
f 58 18 28
f 59 24 49
f 59 57 24
f 59 35 56
f 59 56 47
f 59 47 57
f 60 49 24
f 60 24 45
f 60 36 49
f 61 48 35
f 61 59 49
f 61 35 59
f 61 18 48
f 61 49 36
f 61 36 18
f 62 22 50
f 62 50 51
f 62 32 22
f 63 51 43
f 63 43 21
f 63 21 44
f 63 62 51
f 63 44 32
f 63 32 62
f 64 55 11
f 64 45 55
f 64 60 45
f 64 11 36
f 64 36 60

