# https://github.com/mikedh/trimesh
v -0.02987091 -0.00728910 0.05022296
v -0.02248748 -0.02639446 0.04181267
v -0.03713979 -0.00717517 0.01728586
v -0.04153979 -0.00703378 0.01737935
v -0.03533941 -0.01679136 0.04913256
v -0.02669218 -0.02674966 0.01724945
v -0.03903261 -0.00679505 0.04661057
v -0.02556591 -0.01769319 0.04986086
v -0.02730800 -0.02609537 0.01706470
v -0.03176122 -0.02562418 0.04155581
v -0.04054807 -0.00679295 0.03777102
v -0.03833768 -0.00691486 0.04926830
v -0.02596791 -0.01661571 0.05019808
v -0.02307024 -0.02692589 0.03949592
v -0.03391020 -0.02530310 0.01744423
v -0.03884010 -0.01062589 0.04403786
v -0.03386894 -0.02528203 0.02505212
v -0.03641743 -0.02159371 0.01746190
v -0.03766062 -0.01061552 0.04907320
v -0.03624992 -0.02040290 0.03388426
v -0.03880069 -0.00804342 0.04657101
v -0.03756646 -0.01287256 0.04657561
v -0.03251596 -0.02528364 0.03898095
v -0.03640403 -0.02151455 0.02373908
v -0.04022137 -0.01296897 0.02373805
v -0.03643169 -0.01421544 0.04905518
v -0.03755601 -0.01549688 0.04157644
v -0.03506360 -0.02281020 0.03133560
v -0.03376248 -0.02278723 0.04147698
v -0.04024975 -0.01185559 0.02880471
v -0.03758388 -0.01922763 0.02626046
v -0.04018974 -0.01299050 0.01745503
v -0.03638112 -0.01664878 0.04532335
v -0.04014664 -0.00923534 0.03649244
v -0.03886958 -0.01287702 0.03903133
v -0.03890222 -0.01548006 0.03008999
v -0.03893693 -0.01664988 0.02246612
v -0.03627804 -0.01544830 0.04783987
v -0.03886920 -0.01419877 0.03515794
v -0.03758956 -0.01792109 0.03259879
v -0.03887432 -0.01668713 0.01750315
v -0.03755890 -0.01660365 0.03772871
f 6 1 2
f 6 3 1
f 7 1 3
f 9 4 3
f 9 3 6
f 10 8 5
f 10 2 8
f 11 7 3
f 11 3 4
f 12 5 1
f 12 1 7
f 13 8 2
f 13 2 1
f 13 1 5
f 13 5 8
f 14 10 6
f 14 6 2
f 14 2 10
f 15 9 6
f 16 7 11
f 17 15 6
f 17 6 10
f 18 4 9
f 18 9 15
f 18 15 17
f 19 5 12
f 21 7 16
f 21 16 19
f 21 19 12
f 21 12 7
f 22 19 16
f 23 17 10
f 24 18 17
f 26 5 19
f 26 19 22
f 27 22 16
f 28 23 20
f 28 17 23
f 28 24 17
f 29 23 10
f 29 10 5
f 29 20 23
f 30 11 4
f 30 4 25
f 31 28 20
f 31 24 28
f 31 18 24
f 32 25 4
f 32 4 18
f 33 22 27
f 33 29 5
f 33 27 20
f 33 20 29
f 34 16 11
f 34 11 30
f 35 27 16
f 35 34 30
f 35 16 34
f 36 30 25
f 37 25 32
f 37 36 25
f 37 31 36
f 37 18 31
f 38 26 22
f 38 22 33
f 38 33 5
f 38 5 26
f 39 35 30
f 39 30 36
f 39 27 35
f 40 36 31
f 40 31 20
f 40 39 36
f 41 37 32
f 41 32 18
f 41 18 37
f 42 40 20
f 42 20 27
f 42 27 39
f 42 39 40

