# https://github.com/mikedh/trimesh
v 0.00193893 0.02580346 0.06259981
v 0.00210604 0.02345638 0.06171723
v 0.00191731 0.04217126 0.01740457
v -0.01913423 0.03760906 0.01751312
v -0.03662172 0.01055761 0.05154185
v -0.00665442 0.03906765 0.04764732
v 0.00193841 0.03674965 0.05396755
v -0.02422538 0.01061224 0.06225603
v -0.03299564 0.01139746 0.04238447
v -0.00680537 0.04157555 0.02883037
v -0.02626440 0.03005183 0.04513723
v 0.00190314 0.03207759 0.05851423
v 0.00215349 0.02359112 0.06021715
v 0.00188340 0.04028883 0.04405682
v 0.00203212 0.02419403 0.06251257
v -0.03702034 0.01945094 0.03270444
v -0.03930742 0.01063562 0.04159915
v -0.00670451 0.04161276 0.01741706
v -0.01659247 0.03755355 0.04019428
v -0.02659339 0.02167187 0.05690271
v 0.00198222 0.03738569 0.01730341
v -0.02103833 0.01142428 0.06232705
v 0.00187147 0.03905178 0.04902280
v -0.00666371 0.04029553 0.04158299
v 0.00187729 0.04168563 0.03397973
v -0.03017284 0.02909532 0.03266493
v -0.03372559 0.02147543 0.04525523
v -0.01300900 0.04023547 0.02629499
v -0.01771155 0.03371759 0.05121136
v -0.03167884 0.01304003 0.05709154
v -0.01654397 0.02143312 0.06216414
v -0.02120883 0.01161536 0.05945958
v -0.02014071 0.03192504 0.01735135
v -0.00177974 0.04027669 0.04411145
v -0.00300679 0.03896122 0.04890996
v -0.01042779 0.03889889 0.04397024
v -0.00175557 0.04163694 0.03398522
v -0.03406622 0.02426778 0.03270546
v -0.02273049 0.03522309 0.03262706
v -0.03002853 0.02754529 0.04131126
v -0.02998276 0.02267353 0.05245633
v -0.03628187 0.01544259 0.04771935
v -0.01174980 0.04046509 0.01746678
v -0.01050508 0.04023014 0.03518821
v -0.02009785 0.03504610 0.04389783
v -0.00791338 0.03515265 0.05483133
v -0.03198959 0.01069599 0.05744705
v -0.02130284 0.01669561 0.06210577
v -0.01536736 0.03036987 0.05700173
v -0.01916872 0.03249339 0.01732848
v -0.01540329 0.03628346 0.04764769
v -0.03647813 0.02037624 0.03267513
v -0.02903128 0.03019840 0.03264655
v -0.01917940 0.03765268 0.02755188
v -0.03255674 0.02523366 0.03892843
v -0.03121010 0.02387119 0.04767760
v -0.02385408 0.02886123 0.05236514
v -0.03253535 0.01659265 0.05467692
v -0.03767989 0.01174509 0.04786142
v -0.03363990 0.01901499 0.05019800
v -0.03622498 0.01780298 0.04391312
v -0.01289243 0.04026343 0.01997748
v -0.01176086 0.04029859 0.03138242
v -0.01284726 0.03889391 0.04019860
f 12 2 7
f 13 7 2
f 13 3 7
f 14 7 3
f 15 12 1
f 15 2 12
f 17 9 8
f 17 8 5
f 18 10 3
f 21 3 13
f 21 18 3
f 22 13 2
f 22 2 15
f 22 15 1
f 22 1 8
f 23 7 14
f 25 14 3
f 28 10 18
f 31 8 1
f 32 21 13
f 32 9 21
f 32 13 22
f 32 22 8
f 32 8 9
f 33 21 9
f 33 9 17
f 33 17 16
f 33 16 4
f 34 23 14
f 34 24 6
f 34 14 25
f 35 7 23
f 35 34 6
f 35 23 34
f 36 6 24
f 37 25 3
f 37 3 10
f 37 10 24
f 37 34 25
f 37 24 34
f 38 26 4
f 44 24 10
f 45 39 11
f 45 19 39
f 46 35 6
f 46 7 35
f 46 12 7
f 47 30 5
f 47 5 8
f 47 8 30
f 48 30 8
f 48 20 30
f 48 31 20
f 48 8 31
f 49 20 31
f 49 46 29
f 49 31 1
f 49 1 12
f 49 12 46
f 50 18 21
f 50 21 33
f 50 43 18
f 50 33 4
f 50 4 43
f 51 6 36
f 51 46 6
f 51 29 46
f 51 45 29
f 51 19 45
f 52 38 4
f 52 4 16
f 53 39 4
f 53 4 26
f 53 11 39
f 53 40 11
f 53 26 40
f 54 4 39
f 54 39 19
f 55 38 52
f 55 40 26
f 55 26 38
f 56 55 27
f 56 40 55
f 56 11 40
f 57 56 41
f 57 11 56
f 57 45 11
f 57 29 45
f 57 41 20
f 57 49 29
f 57 20 49
f 58 30 20
f 58 20 41
f 58 5 30
f 59 17 5
f 59 5 42
f 60 56 27
f 60 41 56
f 60 58 41
f 60 42 5
f 60 5 58
f 61 16 17
f 61 59 42
f 61 17 59
f 61 52 16
f 61 55 52
f 61 27 55
f 61 60 27
f 61 42 60
f 62 28 18
f 62 18 43
f 62 43 4
f 62 54 28
f 62 4 54
f 63 44 10
f 63 10 28
f 63 54 19
f 63 28 54
f 64 36 24
f 64 24 44
f 64 51 36
f 64 19 51
f 64 63 19
f 64 44 63

