# https://github.com/mikedh/trimesh
v 0.02158707 0.01549384 0.06226118
v 0.02446822 0.01185435 0.06156110
v 0.01918104 0.03764686 0.02877963
v 0.00191731 0.04217126 0.01740457
v 0.00210604 0.02345638 0.06171723
v 0.02021735 0.03185988 0.01732057
v 0.01914355 0.03260533 0.05237948
v 0.01995755 0.01307716 0.06230747
v 0.02576066 0.02184886 0.04475499
v 0.01922711 0.03779297 0.01745515
v 0.02458667 0.02206518 0.05749328
v 0.00928256 0.02513907 0.06220369
v 0.00681050 0.03901790 0.04776706
v 0.02324887 0.01193506 0.06243119
v 0.02594671 0.01257720 0.05271892
v 0.01928006 0.03247131 0.01725716
v 0.00807713 0.04155405 0.02754142
v 0.01917670 0.03636764 0.04027621
v 0.01924854 0.02793063 0.05694186
v 0.00193893 0.02580346 0.06259981
v 0.00935645 0.03511201 0.05479593
v 0.02294679 0.01302485 0.06228271
v 0.02002336 0.01307429 0.05942040
v 0.00198222 0.03738569 0.01730341
v 0.00686429 0.04176278 0.01743734
v 0.01309106 0.04022177 0.02754412
v 0.00188386 0.04177790 0.03270034
v 0.01910481 0.03505818 0.04648249
v 0.01657101 0.02137187 0.06204976
v 0.00203212 0.02419403 0.06251257
v 0.01415476 0.03503515 0.05246791
v 0.01290130 0.03406519 0.05468608
v 0.00683410 0.03180328 0.05823532
v 0.02419032 0.01800234 0.05939751
v 0.00224548 0.02399140 0.05950087
v 0.00189686 0.02780583 0.06110172
v 0.01672085 0.03891576 0.02753309
v 0.00808346 0.04157191 0.01869667
v 0.01057105 0.04018636 0.03645541
v 0.00683222 0.04163453 0.03009494
v 0.01916422 0.03374860 0.05011541
v 0.01547360 0.03028394 0.05695417
v 0.01898783 0.01904087 0.06204416
v 0.00932395 0.03767250 0.05018395
v 0.01062304 0.03624403 0.05249362
v 0.01534225 0.03380250 0.05348739
v 0.00935290 0.03291739 0.05702126
v 0.00193841 0.03674965 0.05396755
v 0.00190314 0.03207759 0.05851423
v 0.01672606 0.03900549 0.01997287
v 0.01788855 0.03766358 0.03519784
v 0.01184369 0.04025786 0.03267378
v 0.00576772 0.04165268 0.03139740
v 0.01787270 0.03494345 0.04881997
v 0.01792008 0.03031770 0.05580037
v 0.01177105 0.03891156 0.04278194
v 0.01292022 0.03154943 0.05700647
v 0.00187147 0.03905178 0.04902280
v 0.00677224 0.03774409 0.05132507
v 0.01300614 0.04021209 0.01747178
v 0.01420523 0.03890428 0.03773645
v 0.00442748 0.04034920 0.04285280
v 0.00687809 0.04031341 0.04155818
v 0.01661817 0.03626320 0.04648352
f 10 9 6
f 10 3 9
f 15 2 14
f 15 6 9
f 15 11 2
f 15 9 11
f 16 10 6
f 18 11 9
f 18 9 3
f 19 11 7
f 20 14 1
f 20 1 12
f 22 11 1
f 22 1 14
f 22 14 2
f 23 15 14
f 23 14 8
f 23 8 5
f 24 6 15
f 24 16 6
f 24 4 16
f 24 15 23
f 25 16 4
f 25 10 16
f 28 11 18
f 29 12 1
f 29 11 19
f 30 5 8
f 30 8 14
f 30 14 20
f 30 24 5
f 30 20 24
f 33 20 12
f 34 22 2
f 34 2 11
f 34 11 22
f 35 24 23
f 35 23 5
f 35 5 24
f 36 24 20
f 36 4 24
f 36 27 4
f 37 3 10
f 38 25 17
f 38 17 26
f 40 25 4
f 40 17 25
f 41 7 11
f 41 11 28
f 41 31 7
f 42 29 19
f 42 12 29
f 43 29 1
f 43 1 11
f 43 11 29
f 45 32 31
f 45 21 32
f 45 31 44
f 46 7 31
f 46 31 32
f 47 32 21
f 47 33 12
f 48 47 21
f 49 36 20
f 49 20 33
f 49 33 47
f 49 47 48
f 50 37 10
f 50 26 37
f 51 18 3
f 51 3 37
f 52 26 17
f 52 40 39
f 52 17 40
f 52 37 26
f 53 40 4
f 53 4 27
f 54 41 28
f 54 31 41
f 55 42 19
f 55 19 7
f 55 7 46
f 55 46 32
f 56 13 44
f 57 32 47
f 57 55 32
f 57 42 55
f 57 47 12
f 57 12 42
f 58 49 48
f 58 27 36
f 58 36 49
f 59 45 44
f 59 58 48
f 59 44 13
f 59 13 58
f 59 48 21
f 59 21 45
f 60 38 26
f 60 26 50
f 60 25 38
f 60 50 10
f 60 10 25
f 61 51 37
f 61 37 52
f 61 52 39
f 61 39 56
f 61 18 51
f 62 53 27
f 62 58 13
f 62 27 58
f 63 39 40
f 63 40 53
f 63 53 62
f 63 56 39
f 63 62 13
f 63 13 56
f 64 44 31
f 64 31 54
f 64 56 44
f 64 54 28
f 64 28 18
f 64 61 56
f 64 18 61

