# https://github.com/mikedh/trimesh
v -0.02830385 0.02044503 0.04212851
v -0.03377435 -0.00731170 0.04212554
v -0.03713979 -0.00717517 0.01728586
v -0.03769424 0.01915492 0.01743293
v -0.04025221 0.00549852 0.04156930
v -0.03275581 0.01994072 0.01736175
v -0.02884910 0.01952489 0.04238567
v -0.03585259 0.01951733 0.04167498
v -0.03992317 -0.00699655 0.04171058
v -0.04159213 -0.00680086 0.01748094
v -0.03397951 0.01805896 0.01727546
v -0.04014676 0.01293203 0.02753955
v -0.03234107 0.02054816 0.02123846
v -0.03412968 -0.00739413 0.04095293
v -0.04166566 0.00683642 0.01747132
v -0.04162090 -0.00180847 0.03267266
v -0.03761950 0.01922332 0.02626317
v -0.03903644 0.01169589 0.04153971
v -0.02865920 0.02069444 0.04102829
v -0.04022802 0.01300452 0.01747445
v -0.04160521 0.00559173 0.03012350
v -0.04154965 -0.00676858 0.02632477
v -0.04025941 -0.00435665 0.04157303
v -0.03883912 0.01546250 0.03265278
v -0.03901100 0.01655791 0.01754649
v -0.04157650 0.00679454 0.02756781
v -0.04017583 0.01062618 0.03523075
v -0.04163669 0.00182616 0.03264745
v -0.04159565 -0.00564358 0.02882199
v -0.04017763 -0.00684982 0.04025855
v -0.03886801 0.01656780 0.02623826
v -0.03762424 0.01793058 0.03394792
v -0.03768940 0.01553773 0.04152983
v -0.03881406 0.01296390 0.04022152
v -0.04016900 0.00809645 0.03900812
v -0.04159162 0.00441662 0.03137192
v -0.03625005 0.01913234 0.04029906
v -0.03762527 0.01661437 0.03899500
v -0.03659081 0.01805348 0.04160334
f 1 2 3
f 6 1 3
f 7 2 1
f 8 7 1
f 8 5 7
f 9 7 5
f 9 2 7
f 10 3 9
f 11 6 3
f 11 4 6
f 13 6 4
f 13 1 6
f 14 9 3
f 14 3 2
f 14 2 9
f 15 3 10
f 15 11 3
f 15 4 11
f 16 15 10
f 17 13 4
f 17 8 13
f 18 5 8
f 19 13 8
f 19 8 1
f 19 1 13
f 20 15 12
f 20 4 15
f 22 10 9
f 23 9 5
f 25 17 4
f 25 4 20
f 25 20 12
f 26 12 15
f 26 15 21
f 27 26 21
f 27 12 26
f 27 24 12
f 28 23 5
f 28 16 23
f 28 21 15
f 28 15 16
f 29 16 10
f 29 10 22
f 30 23 16
f 30 9 23
f 30 16 29
f 30 29 22
f 30 22 9
f 31 12 24
f 31 25 12
f 31 17 25
f 32 31 24
f 32 17 31
f 34 27 18
f 34 24 27
f 34 18 33
f 35 27 21
f 35 21 5
f 35 5 18
f 35 18 27
f 36 28 5
f 36 5 21
f 36 21 28
f 37 8 17
f 37 17 32
f 38 32 24
f 38 34 33
f 38 24 34
f 38 37 32
f 39 38 33
f 39 8 37
f 39 37 38
f 39 33 18
f 39 18 8

