# https://github.com/mikedh/trimesh
v -0.01951026 0.03714497 0.03271336
v -0.02088166 0.03035793 0.03307472
v -0.02019297 0.02017148 0.00740084
v -0.01950448 0.02583649 0.00182597
v -0.03694404 0.01938414 0.01376812
v -0.01987443 0.01991183 0.00117337
v -0.03702034 0.01945094 0.03270444
v -0.02156337 0.03509994 0.01181842
v -0.01931491 0.02934275 0.00428254
v -0.02933143 0.01927956 0.00420170
v -0.03135437 0.02774141 0.03266247
v -0.03109263 0.02061258 0.03302828
v -0.01940990 0.03684953 0.01378292
v -0.02569078 0.01945718 0.00185650
v -0.02902945 0.02775266 0.00979756
v -0.03554275 0.01928060 0.01024652
v -0.03386014 0.02529267 0.01744732
v -0.01932470 0.03547056 0.01036784
v -0.02514315 0.03386126 0.01628507
v -0.02515666 0.02276410 0.00347315
v -0.02146829 0.02655824 0.00344897
v -0.03262722 0.02148703 0.00834101
v -0.03246806 0.02531677 0.01177173
v -0.03638979 0.02153917 0.01876435
v -0.02284764 0.03272534 0.00965272
v -0.02516399 0.03390046 0.03010469
v -0.02166900 0.03637827 0.01747996
v -0.02516652 0.03260923 0.01160128
v -0.02533069 0.02038128 0.00210504
v -0.03038465 0.02281404 0.00726448
v -0.02275235 0.03031401 0.00726606
v -0.02030408 0.02914264 0.00466007
v -0.03371751 0.02403942 0.01273180
v -0.03512184 0.02025395 0.01057927
v -0.03137843 0.02773522 0.01388231
v -0.03514269 0.02280992 0.01512404
v -0.03385189 0.02527577 0.02624960
v -0.02042856 0.03508678 0.01059799
v -0.02764530 0.03139516 0.03261361
v -0.03262565 0.02653255 0.01510783
v -0.02279064 0.03509427 0.01391704
v -0.02153965 0.03639394 0.02755603
v -0.02773152 0.02902649 0.00981244
v -0.02043889 0.02550106 0.00207922
v -0.02910129 0.02024041 0.00464349
v -0.02767656 0.03133871 0.01385215
v -0.02884694 0.02880566 0.01066417
v -0.03643005 0.02030969 0.01386363
v -0.03637627 0.02154960 0.02496295
v -0.03508852 0.02284102 0.03139747
v -0.02273049 0.03522309 0.03262706
v -0.02043981 0.03640135 0.01387794
v -0.03647813 0.02037624 0.03267513
v -0.03260716 0.02650375 0.03009833
v -0.02042749 0.03664512 0.03266380
f 1 2 3
f 6 1 3
f 7 6 3
f 9 6 4
f 9 1 6
f 11 2 1
f 12 7 3
f 12 3 2
f 12 11 7
f 12 2 11
f 14 4 6
f 14 6 7
f 14 7 10
f 16 10 7
f 16 7 5
f 18 13 1
f 18 1 9
f 22 10 16
f 23 15 22
f 24 5 7
f 27 1 13
f 27 19 26
f 29 14 10
f 29 10 20
f 30 21 20
f 30 15 21
f 30 22 15
f 30 10 22
f 32 9 4
f 32 21 31
f 32 31 25
f 32 25 9
f 34 23 22
f 34 22 16
f 34 33 23
f 34 16 5
f 35 23 33
f 36 24 17
f 38 18 9
f 38 9 25
f 38 8 13
f 38 13 18
f 38 28 8
f 38 25 28
f 39 26 11
f 39 11 1
f 40 11 26
f 40 17 37
f 40 26 19
f 40 19 35
f 40 36 17
f 40 35 33
f 40 33 36
f 41 19 27
f 41 8 28
f 42 27 26
f 42 1 27
f 43 28 25
f 43 25 31
f 43 31 21
f 43 21 15
f 44 29 20
f 44 20 21
f 44 4 14
f 44 14 29
f 44 32 4
f 44 21 32
f 45 30 20
f 45 20 10
f 45 10 30
f 46 35 19
f 46 41 28
f 46 19 41
f 47 15 23
f 47 23 35
f 47 43 15
f 47 28 43
f 47 46 28
f 47 35 46
f 48 5 24
f 48 24 36
f 48 36 33
f 48 34 5
f 48 33 34
f 49 24 7
f 49 37 17
f 49 17 24
f 50 37 49
f 51 39 1
f 51 26 39
f 51 42 26
f 52 41 27
f 52 27 13
f 52 13 8
f 52 8 41
f 53 7 11
f 53 11 50
f 53 50 49
f 53 49 7
f 54 50 11
f 54 37 50
f 54 40 37
f 54 11 40
f 55 51 1
f 55 1 42
f 55 42 51

