# https://github.com/mikedh/trimesh
v 0.02163307 -0.03077619 0.02644100
v 0.03745709 -0.01966855 0.01742162
v 0.03465103 -0.00846670 0.01171843
v 0.02001912 -0.00835995 0.00010531
v 0.01186369 -0.03549480 0.00568561
v 0.03041883 -0.01299907 0.00210313
v 0.02009119 -0.00842775 0.00496251
v 0.03443655 -0.01621629 0.01732433
v 0.02284805 -0.03513127 0.01387844
v 0.03307817 -0.00813106 0.00306990
v 0.00838700 -0.03014755 0.00099013
v 0.02074877 -0.03698671 0.02632115
v 0.03022751 -0.02653624 0.00961060
v 0.03698855 -0.01942061 0.01373833
v 0.02981437 -0.00823673 0.00072086
v 0.03176530 -0.00809337 0.00186205
v 0.01803807 -0.02799619 0.00221398
v 0.00842624 -0.01997785 0.00536571
v 0.03401491 -0.02532059 0.01752405
v 0.01192214 -0.04056034 0.01871039
v 0.02029303 -0.03395362 0.00832415
v 0.03531773 -0.02039816 0.01060996
v 0.01850056 -0.02480195 0.00085525
v 0.03285053 -0.01054410 0.00337716
v 0.02951593 -0.01072490 0.00089144
v 0.01194483 -0.03075466 0.00179847
v 0.02659710 -0.02413930 0.00478636
v 0.00840742 -0.01993397 0.00066003
v 0.01267327 -0.03534536 0.02649153
v 0.02669824 -0.03284535 0.01753803
v 0.03697056 -0.02063997 0.01745853
v 0.01669144 -0.03896505 0.01869967
v 0.01191218 -0.03935142 0.01135899
v 0.02768010 -0.03009635 0.01064997
v 0.01790325 -0.03153493 0.00475237
v 0.03260728 -0.02535515 0.01162286
v 0.01227376 -0.02504362 0.00067667
v 0.03166395 -0.00933767 0.00204792
v 0.03288241 -0.01416366 0.00465679
v 0.02711950 -0.01574905 0.00093933
v 0.01191210 -0.03420695 0.00446157
v 0.01310264 -0.03058730 0.00203134
v 0.03148953 -0.02162751 0.00725474
v 0.02202728 -0.02200844 0.00095543
v 0.01193390 -0.04061173 0.02632081
v 0.02065963 -0.03135681 0.02651635
v 0.01918870 -0.03766577 0.01751071
v 0.03511146 -0.02280979 0.01389640
v 0.01191431 -0.03822549 0.00904270
v 0.01554675 -0.03899787 0.01506620
v 0.01672250 -0.03767170 0.01151511
v 0.02289753 -0.03390650 0.01055796
v 0.02775177 -0.03129940 0.01387058
v 0.02533723 -0.02903044 0.00723873
v 0.01298018 -0.03526074 0.00588837
v 0.03383355 -0.02274712 0.01064779
v 0.03016217 -0.02768280 0.01071389
v 0.01100144 -0.02378001 0.00067937
v 0.03150170 -0.01415217 0.00342395
v 0.01294795 -0.03399829 0.00465809
v 0.02778395 -0.02658518 0.00729094
v 0.03274849 -0.02164525 0.00849004
v 0.02164310 -0.02907317 0.00480949
v 0.02782668 -0.01777918 0.00216264
f 7 1 3
f 8 1 2
f 8 2 3
f 8 3 1
f 12 2 1
f 14 10 3
f 14 3 2
f 16 7 3
f 16 3 10
f 16 4 7
f 16 15 4
f 18 7 4
f 22 10 14
f 23 4 15
f 24 16 10
f 24 10 22
f 25 15 16
f 26 11 23
f 28 18 4
f 28 11 18
f 29 1 7
f 29 7 18
f 30 19 12
f 31 2 12
f 31 12 19
f 31 14 2
f 33 20 11
f 37 23 11
f 37 4 23
f 38 24 6
f 38 16 24
f 38 25 16
f 38 6 25
f 39 24 22
f 40 23 15
f 40 15 25
f 40 25 6
f 41 5 11
f 41 11 26
f 42 26 23
f 42 23 17
f 42 17 35
f 42 41 26
f 44 17 23
f 44 23 40
f 45 29 18
f 45 18 11
f 45 11 20
f 45 32 12
f 45 20 32
f 46 12 1
f 46 1 29
f 46 45 12
f 46 29 45
f 47 30 12
f 47 9 30
f 47 12 32
f 48 31 19
f 48 14 31
f 48 19 36
f 48 36 22
f 48 22 14
f 49 33 11
f 49 11 5
f 50 32 20
f 50 20 33
f 50 47 32
f 50 9 47
f 51 50 33
f 51 9 50
f 51 49 21
f 51 33 49
f 52 51 21
f 52 9 51
f 53 30 9
f 53 52 34
f 53 9 52
f 53 36 19
f 53 19 30
f 54 13 34
f 54 52 21
f 54 34 52
f 55 35 21
f 55 5 41
f 55 49 5
f 55 21 49
f 56 36 13
f 56 22 36
f 57 34 13
f 57 13 36
f 57 53 34
f 57 36 53
f 58 37 11
f 58 11 28
f 58 28 4
f 58 4 37
f 59 6 24
f 59 24 39
f 59 39 43
f 60 42 35
f 60 41 42
f 60 55 41
f 60 35 55
f 61 43 13
f 61 27 43
f 61 54 27
f 61 13 54
f 62 43 39
f 62 39 22
f 62 22 56
f 62 56 13
f 62 13 43
f 63 44 27
f 63 17 44
f 63 27 54
f 63 35 17
f 63 54 21
f 63 21 35
f 64 44 40
f 64 27 44
f 64 40 6
f 64 6 59
f 64 59 43
f 64 43 27

