# https://github.com/mikedh/trimesh
v 0.01455935 -0.02400528 0.06598778
v 0.01471187 -0.02228659 0.06322554
v 0.00022998 -0.03636720 0.06584420
v 0.00122202 -0.03139063 0.00911379
v 0.01766532 -0.03476466 0.00982078
v 0.00173267 -0.03309166 0.06599951
v 0.01596565 -0.01994754 0.05249013
v 0.01224202 -0.03229412 0.05946683
v 0.00072202 -0.04301584 0.02660319
v 0.01271682 -0.02957364 0.06569868
v 0.01507489 -0.02120444 0.01067781
v 0.00035161 -0.04187598 0.03564773
v 0.00095866 -0.03270340 0.01002391
v 0.01064257 -0.03778617 0.03192665
v 0.01045129 -0.03219570 0.06443529
v 0.01388892 -0.03229409 0.05204264
v 0.01654072 -0.02034803 0.04149702
v 0.01252893 -0.02197609 0.00902774
v 0.00394207 -0.04191285 0.02643022
v 0.00888640 -0.03248846 0.06557234
v 0.01238669 -0.03080364 0.06448470
v 0.00705748 -0.03584619 0.05760284
v 0.01409052 -0.03615212 0.02640471
v 0.01225998 -0.03590893 0.03742264
v 0.00202888 -0.04133781 0.03559734
v 0.00367024 -0.03580317 0.06446484
v 0.00714957 -0.03951048 0.03373773
v 0.01396225 -0.03598838 0.02822186
v 0.00876525 -0.03582845 0.05205314
v 0.00190075 -0.03599528 0.06546155
v 0.00038872 -0.03825635 0.05955103
v 0.00371947 -0.03941124 0.04476192
v 0.00707304 -0.03767018 0.04656643
v 0.00037841 -0.04001533 0.04850829
v 0.00195782 -0.03772946 0.05947310
v 0.00379213 -0.04146665 0.03008377
v 0.00186953 -0.03954386 0.04841572
v 0.00539638 -0.03757896 0.05205872
f 6 4 3
f 6 1 2
f 7 2 1
f 7 1 5
f 7 6 2
f 7 4 6
f 10 6 3
f 10 1 6
f 13 4 5
f 13 5 9
f 13 9 12
f 13 12 3
f 13 3 4
f 16 5 1
f 16 1 10
f 17 11 7
f 17 7 5
f 17 5 11
f 18 11 5
f 18 5 4
f 18 4 7
f 18 7 11
f 19 9 5
f 20 10 3
f 21 15 8
f 21 20 15
f 21 10 20
f 21 16 10
f 21 8 16
f 22 8 15
f 23 5 16
f 23 19 5
f 23 14 19
f 24 16 8
f 24 14 23
f 25 12 9
f 25 9 19
f 26 15 20
f 26 22 15
f 27 19 14
f 28 24 23
f 28 23 16
f 28 16 24
f 29 14 24
f 29 24 8
f 29 8 22
f 30 26 20
f 30 20 3
f 30 3 26
f 31 26 3
f 33 27 14
f 33 14 29
f 33 29 22
f 33 32 27
f 34 31 3
f 34 3 12
f 35 22 26
f 35 26 31
f 36 32 25
f 36 25 19
f 36 19 27
f 36 27 32
f 37 25 32
f 37 32 35
f 37 35 31
f 37 31 34
f 37 34 12
f 37 12 25
f 38 33 22
f 38 22 35
f 38 35 32
f 38 32 33

