# https://github.com/mikedh/trimesh
v -0.02783361 0.03419331 0.06725053
v -0.02776826 0.03593382 0.06320821
v -0.05570523 0.01442710 0.01363527
v -0.03917585 0.02585087 0.00135392
v -0.02848896 0.02439329 0.00023340
v -0.03621852 0.03872835 0.00890094
v -0.04721025 0.01722526 0.06467902
v -0.05629499 0.01289750 0.01024940
v -0.02805945 0.03824183 0.00266684
v -0.03587306 0.02973941 0.06591369
v -0.04752303 0.00803569 0.04700419
v -0.04497317 0.03189913 0.01358678
v -0.03927033 0.02414516 0.00109318
v -0.04875757 0.02507533 0.00590104
v -0.05316573 0.00756563 0.04685024
v -0.02833469 0.03331859 0.00109044
v -0.02782442 0.04305265 0.01730394
v -0.03581343 0.02802987 0.06715935
v -0.03087011 0.03320670 0.06649019
v -0.04376870 0.01418709 0.06601767
v -0.05064488 0.00817839 0.01947797
v -0.05033218 0.02487327 0.01538543
v -0.04128853 0.02629286 0.05948660
v -0.03626310 0.03689538 0.02809741
v -0.04166445 0.01538207 0.00748883
v -0.04595694 0.02377038 0.00291385
v -0.03460550 0.03723273 0.00466880
v -0.04503078 0.03189741 0.01030265
v -0.04859624 0.01374404 0.06496373
v -0.05673860 0.00764248 0.01915208
v -0.03319668 0.03603409 0.00300654
v -0.03005394 0.03321501 0.00128705
v -0.02788304 0.04305069 0.00869132
v -0.02793142 0.04147281 0.00549405
v -0.03766796 0.02804144 0.06585741
v -0.02940712 0.03373226 0.06694777
v -0.03512558 0.02916025 0.06705022
v -0.02857573 0.02455430 0.00675431
v -0.02943557 0.03168208 0.06711518
v -0.05389305 0.01789855 0.01715191
v -0.05033140 0.02487917 0.00878169
v -0.04835249 0.02662664 0.02080599
v -0.03625657 0.03879864 0.01541432
v -0.03101275 0.04064108 0.02450951
v -0.03266240 0.03314288 0.06294132
v -0.04150298 0.03346112 0.02447724
v -0.04349657 0.03014065 0.00488587
v -0.05581196 0.01109681 0.02085595
v -0.04759427 0.01643803 0.06514344
v -0.04580441 0.01369695 0.00903141
v -0.05439224 0.00754321 0.03569153
v -0.03846888 0.03238185 0.00323461
v -0.03119456 0.03914654 0.00453989
v -0.02953464 0.04101770 0.00587083
v -0.04126338 0.02471622 0.06445148
v -0.03779200 0.02990380 0.05959407
v -0.05582764 0.01442465 0.01035702
v -0.04861363 0.02665790 0.00752497
v -0.05025391 0.02318650 0.02261517
v -0.04297875 0.02469479 0.05765742
v -0.04335386 0.03354309 0.01365747
v -0.02939349 0.04247447 0.00894950
v -0.02782948 0.04116374 0.03008976
v -0.03287645 0.04064223 0.01725136
f 5 2 1
f 16 9 5
f 16 5 13
f 20 15 11
f 21 5 11
f 25 13 5
f 25 8 13
f 25 5 21
f 26 13 8
f 26 8 14
f 26 4 13
f 28 22 12
f 29 15 20
f 30 3 8
f 32 16 13
f 32 13 4
f 32 31 9
f 32 9 16
f 34 17 2
f 34 2 5
f 34 5 9
f 34 33 17
f 36 1 2
f 36 2 19
f 37 19 10
f 37 36 19
f 37 18 1
f 37 1 36
f 37 10 35
f 38 20 11
f 38 11 5
f 38 5 1
f 39 1 18
f 39 18 20
f 39 38 1
f 39 20 38
f 41 22 28
f 42 12 22
f 45 19 2
f 45 44 24
f 45 2 44
f 45 10 19
f 46 42 23
f 46 12 42
f 46 24 43
f 47 26 14
f 47 28 6
f 47 6 27
f 48 29 3
f 48 15 29
f 48 30 15
f 48 3 30
f 49 29 20
f 49 20 18
f 49 40 3
f 49 3 29
f 49 37 35
f 49 18 37
f 50 25 21
f 50 21 30
f 50 30 8
f 50 8 25
f 51 30 21
f 51 21 11
f 51 11 15
f 51 15 30
f 52 4 26
f 52 26 47
f 52 47 27
f 52 27 31
f 52 32 4
f 52 31 32
f 53 31 27
f 53 9 31
f 53 34 9
f 54 33 34
f 54 34 53
f 54 53 27
f 54 27 6
f 55 35 23
f 55 23 7
f 55 49 35
f 55 7 49
f 56 35 10
f 56 23 35
f 56 46 23
f 56 10 45
f 56 45 24
f 56 24 46
f 57 40 22
f 57 3 40
f 57 22 41
f 57 8 3
f 57 41 14
f 57 14 8
f 58 41 28
f 58 14 41
f 58 47 14
f 58 28 47
f 59 42 22
f 59 7 42
f 59 49 7
f 59 22 40
f 59 40 49
f 60 42 7
f 60 7 23
f 60 23 42
f 61 28 12
f 61 46 43
f 61 12 46
f 61 43 6
f 61 6 28
f 62 6 43
f 62 54 6
f 62 33 54
f 62 17 33
f 63 44 2
f 63 2 17
f 63 17 44
f 64 43 24
f 64 24 44
f 64 44 17
f 64 62 43
f 64 17 62

