# https://github.com/mikedh/trimesh
v 0.01916203 0.02293376 0.06568372
v 0.02488523 0.01282308 0.06446852
v 0.02637382 0.02488528 0.00735582
v 0.00083678 0.03513467 0.00097874
v 0.00091367 0.01331861 0.00694952
v 0.00404468 0.04303776 0.01729936
v 0.02629439 0.02314444 0.02820838
v 0.00178224 0.03216779 0.06586352
v 0.03040976 0.01295177 0.00567686
v 0.01606854 0.03558124 0.00592916
v 0.02258489 0.01954695 0.06280792
v 0.02121327 0.01430452 0.06582895
v 0.00889527 0.03310796 0.06286454
v 0.00036974 0.04293285 0.02641510
v 0.03034663 0.01288679 0.02647742
v 0.00092446 0.01342142 0.00010364
v 0.00076842 0.04411058 0.01741532
v 0.02031431 0.02388814 0.00129433
v 0.01940343 0.03360273 0.01902898
v 0.02289380 0.01623480 0.06569889
v 0.02633347 0.01446616 0.05401269
v 0.02382989 0.01311994 0.06609677
v 0.00890432 0.03161589 0.06557492
v 0.00045952 0.03606325 0.06459460
v 0.00199303 0.03692059 0.05946409
v 0.03000890 0.01808506 0.00867691
v 0.00034805 0.03746117 0.05957006
v 0.00623868 0.03499572 0.00130673
v 0.00386440 0.04238262 0.02268525
v 0.02257357 0.01325412 0.00113395
v 0.02147932 0.02688357 0.00304980
v 0.02455801 0.02842999 0.01543206
v 0.01247584 0.03890985 0.01726299
v 0.01572487 0.02976190 0.05582233
v 0.02433923 0.01599971 0.06276143
v 0.02988488 0.01814087 0.01723245
v 0.02684599 0.01290750 0.05409758
v 0.02440292 0.01442844 0.06428939
v 0.00064151 0.03475472 0.06632495
v 0.01410705 0.02805510 0.06555654
v 0.00364587 0.03504044 0.06426401
v 0.02829047 0.01978875 0.00588213
v 0.01331819 0.03111210 0.00136032
v 0.00205174 0.04242208 0.02633465
v 0.00895974 0.03871571 0.03178386
v 0.02695245 0.01658931 0.00294112
v 0.02235334 0.02037894 0.00127930
v 0.02269975 0.02998882 0.00745349
v 0.02819284 0.02158457 0.00741606
v 0.02086364 0.02288509 0.06122767
v 0.01755979 0.03520017 0.00746466
v 0.01588718 0.03523038 0.02633745
v 0.02619589 0.01621755 0.05032064
v 0.02437729 0.01958445 0.05211201
v 0.02806374 0.02157370 0.02087816
v 0.02851746 0.01288953 0.04115878
v 0.02985597 0.01638226 0.02272938
v 0.01053547 0.03155310 0.06420908
v 0.00536514 0.03335861 0.06568475
v 0.03005238 0.01466786 0.00582663
v 0.02460183 0.02491938 0.00466064
v 0.01639001 0.03237632 0.00306608
v 0.00718205 0.04047649 0.02633310
v 0.00711750 0.03497798 0.05764800
f 9 2 5
f 12 8 5
f 15 2 9
f 16 9 5
f 16 14 4
f 17 6 10
f 17 4 14
f 18 16 4
f 20 11 1
f 22 12 5
f 22 5 2
f 22 20 1
f 26 15 9
f 27 16 5
f 27 14 16
f 27 5 24
f 27 24 25
f 28 17 10
f 28 4 17
f 29 6 17
f 30 9 16
f 35 11 20
f 36 15 26
f 37 35 2
f 37 21 35
f 38 22 2
f 38 20 22
f 38 35 20
f 38 2 35
f 39 22 1
f 39 8 12
f 39 12 22
f 39 24 5
f 39 5 8
f 40 39 1
f 40 23 39
f 41 25 24
f 41 13 25
f 43 18 4
f 43 4 28
f 44 27 25
f 44 25 29
f 44 14 27
f 44 29 17
f 44 17 14
f 46 9 30
f 47 30 16
f 47 16 18
f 47 46 30
f 47 18 31
f 47 31 46
f 48 32 3
f 49 32 26
f 49 3 32
f 49 42 3
f 49 26 42
f 50 7 32
f 50 32 19
f 50 19 34
f 50 1 11
f 50 40 1
f 50 34 40
f 51 33 19
f 51 10 6
f 51 6 33
f 51 48 10
f 51 19 32
f 51 32 48
f 52 34 19
f 52 19 33
f 52 33 45
f 52 45 13
f 52 13 34
f 53 35 21
f 54 11 35
f 54 50 11
f 54 7 50
f 54 53 7
f 54 35 53
f 55 32 7
f 55 7 53
f 55 36 26
f 55 26 32
f 56 37 2
f 56 2 15
f 57 21 37
f 57 53 21
f 57 55 53
f 57 36 55
f 57 37 56
f 57 56 15
f 57 15 36
f 58 23 40
f 58 41 23
f 58 13 41
f 58 40 34
f 58 34 13
f 59 39 23
f 59 23 41
f 59 41 24
f 59 24 39
f 60 42 26
f 60 26 9
f 60 46 42
f 60 9 46
f 61 3 42
f 61 48 3
f 61 31 48
f 61 46 31
f 61 42 46
f 62 31 18
f 62 18 43
f 62 48 31
f 62 10 48
f 62 43 28
f 62 28 10
f 63 29 25
f 63 6 29
f 63 45 33
f 63 33 6
f 64 25 13
f 64 13 45
f 64 63 25
f 64 45 63

