# https://github.com/mikedh/trimesh
v 0.01679831 -0.03378591 0.02688459
v 0.01409052 -0.03615212 0.02640471
v 0.01484339 -0.03176885 0.00259137
v -0.02844577 -0.03242759 0.00059690
v -0.02853820 -0.03446645 0.02853573
v -0.00506875 -0.04498355 0.00727376
v 0.01069261 -0.03973590 0.00880972
v 0.00065107 -0.04278441 0.02841175
v -0.00473292 -0.03916662 0.00124217
v -0.02780954 -0.04343630 0.00889782
v 0.01063491 -0.03957455 0.01908125
v 0.01412769 -0.03612732 0.00590878
v 0.00100161 -0.03462955 0.02854841
v 0.00383014 -0.04330355 0.01547568
v 0.00968981 -0.03210397 0.00105555
v -0.02923780 -0.03421403 0.01332010
v -0.01896038 -0.04353404 0.00435803
v -0.02249842 -0.04330545 0.02822146
v 0.00893822 -0.03962436 0.02637702
v 0.00732781 -0.03837448 0.00309678
v -0.00310010 -0.04515047 0.01545828
v 0.00378635 -0.04319493 0.00887018
v -0.02782985 -0.04167258 0.02822562
v -0.02808074 -0.03889587 0.00264148
v -0.00498582 -0.04344454 0.00434434
v -0.01901935 -0.04520031 0.00719217
v 0.01227582 -0.03780149 0.02456107
v 0.00719109 -0.04142657 0.01909714
v 0.01244617 -0.03634188 0.00454634
v 0.00950524 -0.03369483 0.00145551
v 0.00025169 -0.04319258 0.02637070
v 0.00546013 -0.04144077 0.00583159
v -0.00324803 -0.04508531 0.00890608
v -0.02776380 -0.04320733 0.01721786
v -0.02825391 -0.03572786 0.00123960
v -0.02793995 -0.04201472 0.00564779
v -0.01732460 -0.03919966 0.00124816
v -0.00489419 -0.04198980 0.00286397
v -0.01726197 -0.04523941 0.02090596
v 0.00546063 -0.04131243 0.02637730
v 0.01251801 -0.03463830 0.00313206
v 0.01430142 -0.03299125 0.00301507
v 0.00248316 -0.03729874 0.00129156
v 0.00713531 -0.04127496 0.00734608
v 0.00728296 -0.03965622 0.00436435
v 0.00034174 -0.04320624 0.00586751
v -0.00843314 -0.04529990 0.02095919
v -0.02588005 -0.04315646 0.02266292
v -0.02603391 -0.04179478 0.00441025
v -0.02419340 -0.04337089 0.00581016
v -0.01905259 -0.04212188 0.00300021
v -0.02459825 -0.03737280 0.00128561
v -0.02253142 -0.04510628 0.01360139
v 0.00228252 -0.04019867 0.00282042
v 0.00888693 -0.03967722 0.00578219
v -0.00135965 -0.04334634 0.02823827
v -0.02248355 -0.04496115 0.00887899
v -0.02609240 -0.04025523 0.00298778
v -0.02070361 -0.04511701 0.01725757
v 0.00216502 -0.04169829 0.00432859
f 5 1 3
f 5 3 4
f 11 7 1
f 11 1 2
f 12 3 1
f 12 1 7
f 13 8 1
f 13 1 5
f 13 5 8
f 14 7 11
f 15 9 4
f 15 4 3
f 16 5 4
f 18 8 5
f 19 2 1
f 19 1 8
f 22 7 14
f 23 5 16
f 23 18 5
f 26 25 6
f 26 17 25
f 27 19 11
f 27 11 2
f 27 2 19
f 28 14 11
f 28 11 19
f 30 15 3
f 31 21 14
f 33 26 6
f 33 22 14
f 33 14 21
f 34 23 16
f 34 16 10
f 35 24 16
f 35 16 4
f 36 10 16
f 36 16 24
f 37 4 9
f 38 25 17
f 38 37 9
f 40 28 19
f 40 19 8
f 40 14 28
f 40 31 14
f 40 8 31
f 41 29 20
f 41 30 3
f 41 20 30
f 42 3 12
f 42 12 29
f 42 41 3
f 42 29 41
f 43 30 20
f 43 9 15
f 43 15 30
f 44 7 22
f 44 22 32
f 45 20 29
f 46 32 22
f 46 6 25
f 46 33 6
f 46 22 33
f 47 33 21
f 47 26 33
f 47 39 26
f 47 18 39
f 48 18 23
f 48 23 34
f 49 36 24
f 50 10 36
f 50 36 49
f 50 49 17
f 50 17 26
f 51 17 49
f 51 38 17
f 51 37 38
f 52 24 35
f 52 35 4
f 52 4 37
f 52 37 51
f 53 34 10
f 53 26 39
f 53 48 34
f 54 38 9
f 54 9 43
f 54 43 20
f 54 20 45
f 55 12 7
f 55 7 44
f 55 44 32
f 55 32 45
f 55 45 29
f 55 29 12
f 56 47 21
f 56 21 31
f 56 31 8
f 56 8 18
f 56 18 47
f 57 50 26
f 57 10 50
f 57 53 10
f 57 26 53
f 58 51 49
f 58 49 24
f 58 52 51
f 58 24 52
f 59 53 39
f 59 39 18
f 59 18 48
f 59 48 53
f 60 25 38
f 60 38 54
f 60 46 25
f 60 32 46
f 60 54 45
f 60 45 32

