# https://github.com/mikedh/trimesh
v 0.03141238 0.01319126 0.01740951
v 0.03011834 -0.01528411 0.01725334
v 0.02861954 -0.00646283 0.00298698
v 0.00092446 0.01342142 0.00010364
v 0.01554388 -0.03616657 0.01747553
v 0.02747753 0.01316008 0.00280257
v 0.03106401 -0.00577961 0.00481433
v 0.00091367 0.01331861 0.00694952
v 0.00092358 -0.02157683 0.00021279
v 0.02219571 0.01373936 0.01748317
v 0.03040976 0.01295177 0.00567686
v 0.02894750 0.00941433 0.00320464
v 0.01608192 -0.03454736 0.00583271
v 0.02437725 0.00955843 0.00125097
v 0.00091457 -0.02154795 0.00748730
v 0.02257357 0.01325412 0.00113395
v 0.01653833 -0.02220149 0.01747372
v 0.03018911 0.01107227 0.00467110
v 0.02317183 -0.02251110 0.00320279
v 0.01472066 -0.03689541 0.00863493
v 0.01536875 -0.02504708 0.00090743
v 0.02681911 -0.01365472 0.00314575
v 0.02817487 -0.02049784 0.00894308
v 0.01480666 -0.03527724 0.00541355
v 0.01473737 -0.03699982 0.01556130
v 0.02422785 -0.01030550 0.00130542
v 0.02987190 -0.01520089 0.00756273
v 0.02272534 -0.02744659 0.00592802
v 0.02485710 -0.02589306 0.01726422
v 0.01484339 -0.03176885 0.00259137
v 0.02278986 -0.02909734 0.00885207
v 0.02237626 -0.01576778 0.00138333
v 0.02662521 -0.01897073 0.00473296
v 0.02815987 -0.02049319 0.01541014
v 0.01869231 -0.02306750 0.00134226
v 0.01968044 -0.02765334 0.00317487
v 0.01612766 -0.03129574 0.00301871
v 0.01589081 -0.03603612 0.00874206
v 0.02108021 -0.03093769 0.01722066
v 0.02631386 -0.02399041 0.00899224
v 0.02087032 -0.03080212 0.00751082
v 0.02837361 -0.01360957 0.00455100
v 0.02299267 -0.02570555 0.00467423
v 0.01703758 -0.02493061 0.00123331
v 0.01746451 -0.03423174 0.00742266
v 0.02273982 -0.02914585 0.01536651
v 0.01760979 -0.03446650 0.01723866
v 0.02624854 -0.02391624 0.01542596
v 0.02995375 -0.01188702 0.00604645
v 0.01587219 -0.03609164 0.01546876
f 5 2 1
f 7 1 2
f 9 8 4
f 10 1 6
f 10 4 8
f 10 5 1
f 11 6 1
f 11 1 7
f 12 7 3
f 14 12 3
f 14 6 12
f 15 5 8
f 15 8 9
f 16 10 6
f 16 4 10
f 16 6 14
f 17 10 8
f 17 8 5
f 17 5 10
f 18 11 7
f 18 7 12
f 18 12 6
f 18 6 11
f 21 9 4
f 21 4 16
f 22 3 7
f 24 20 9
f 24 13 20
f 25 15 9
f 25 9 20
f 25 5 15
f 26 21 16
f 26 16 14
f 26 14 3
f 26 3 22
f 27 7 2
f 27 2 23
f 29 2 5
f 30 24 9
f 30 9 21
f 32 26 22
f 32 22 19
f 32 21 26
f 33 19 22
f 33 27 23
f 34 23 2
f 34 2 29
f 35 32 19
f 35 21 32
f 36 28 13
f 36 35 19
f 37 13 24
f 37 24 30
f 37 36 13
f 37 30 36
f 38 25 20
f 39 29 5
f 40 31 28
f 40 23 34
f 41 13 28
f 41 28 31
f 42 33 22
f 42 22 7
f 42 27 33
f 43 19 33
f 43 36 19
f 43 28 36
f 43 33 23
f 43 40 28
f 43 23 40
f 44 30 21
f 44 21 35
f 44 36 30
f 44 35 36
f 45 38 20
f 45 20 13
f 45 13 41
f 45 41 31
f 45 31 38
f 46 39 31
f 46 29 39
f 46 31 40
f 47 38 31
f 47 31 39
f 47 39 5
f 48 40 34
f 48 34 29
f 48 46 40
f 48 29 46
f 49 42 7
f 49 7 27
f 49 27 42
f 50 25 38
f 50 38 47
f 50 47 5
f 50 5 25

