# https://github.com/mikedh/trimesh
v -0.04882279 0.00788998 0.03590330
v -0.04452487 -0.02046384 0.03611105
v -0.04704551 0.01344581 0.01003572
v -0.05629499 0.01289750 0.01024940
v -0.05386671 -0.00995675 0.03550151
v -0.04352882 -0.01989333 0.00982962
v -0.04933397 0.01358332 0.01937950
v -0.05439224 0.00754321 0.03569153
v -0.04424959 -0.01646879 0.00887657
v -0.05420564 -0.01891273 0.01034589
v -0.04871038 0.01403467 0.01307240
v -0.04531799 -0.01900611 0.03622094
v -0.05778063 -0.00483567 0.01362179
v -0.05562073 0.01263474 0.01901064
v -0.05790142 -0.00483348 0.01032519
v -0.05073793 -0.01888963 0.03555337
v -0.05586885 -0.00468137 0.02823487
v -0.05564858 -0.01352612 0.01720623
v -0.05783375 0.00404110 0.01360528
v -0.05789684 0.00405734 0.01023598
v -0.05609611 -0.01359032 0.01037251
v -0.05563388 -0.01177437 0.02085673
v -0.05385304 -0.01351525 0.03000112
v -0.05383256 -0.01875985 0.01718164
v -0.05568051 0.00749863 0.02633436
v -0.05590790 0.00404289 0.02824097
v -0.05223917 -0.01528606 0.03550565
v -0.05383081 -0.01690239 0.02264246
v -0.05195490 -0.01699970 0.03362017
v -0.05192104 -0.01864469 0.02994254
f 1 2 3
f 6 3 2
f 7 1 3
f 8 1 7
f 9 4 3
f 9 3 6
f 10 9 6
f 10 6 2
f 11 7 3
f 11 3 4
f 12 8 5
f 12 2 1
f 12 1 8
f 14 8 7
f 14 11 4
f 14 7 11
f 16 10 2
f 16 2 12
f 17 5 8
f 19 13 17
f 19 14 4
f 19 15 13
f 20 4 9
f 20 9 15
f 20 19 4
f 20 15 19
f 21 15 9
f 21 9 10
f 21 18 13
f 21 13 15
f 22 17 13
f 22 13 18
f 22 5 17
f 23 22 18
f 23 5 22
f 24 10 16
f 24 21 10
f 24 18 21
f 25 8 14
f 25 14 19
f 26 19 17
f 26 17 8
f 26 25 19
f 26 8 25
f 27 5 23
f 27 16 12
f 27 12 5
f 28 23 18
f 28 18 24
f 29 27 23
f 29 23 28
f 29 16 27
f 30 28 24
f 30 24 16
f 30 29 28
f 30 16 29

