# https://github.com/mikedh/trimesh
v 0.04286464 0.00202394 0.06323798
v 0.05942528 -0.00289154 0.04290728
v 0.05385665 0.00770190 0.04855659
v 0.04358718 0.00647147 0.01867676
v 0.04148247 -0.00765319 0.01850270
v 0.05824966 0.00593471 0.02182960
v 0.03220945 0.00785666 0.05780750
v 0.05229970 0.00369990 0.05790207
v 0.03220823 -0.00705237 0.05923980
v 0.05932168 0.00506387 0.04103636
v 0.05591207 0.00780920 0.03040616
v 0.05783818 -0.00556925 0.02010929
v 0.03123770 0.00493237 0.05037804
v 0.05109083 -0.00508273 0.05806605
v 0.04780774 0.00599302 0.05988690
v 0.03227220 0.00357807 0.06316588
v 0.05941078 -0.00421861 0.02351871
v 0.05754159 0.00366175 0.04978387
v 0.05702061 0.00625069 0.01983089
v 0.05596163 0.00781236 0.03404799
v 0.05437780 0.00785247 0.03037648
v 0.04149245 0.00573522 0.01907887
v 0.03159524 -0.00269299 0.05023336
v 0.04780364 -0.00264281 0.06133135
v 0.05691121 -0.00650926 0.04301811
v 0.04765824 0.00370359 0.06133305
v 0.05239514 0.00599818 0.05637670
v 0.04660592 0.00761289 0.05735507
v 0.03227933 -0.00266987 0.06335081
v 0.03225241 0.00612818 0.06159912
v 0.05955883 -0.00421747 0.03932350
v 0.05935207 0.00496697 0.02363356
v 0.05940666 0.00375369 0.04280893
v 0.05583699 -0.00273652 0.05321040
v 0.05627936 0.00614874 0.04985460
v 0.05803021 0.00525857 0.02007303
v 0.05658506 -0.00680628 0.01987938
v 0.05026601 0.00771594 0.05396767
v 0.03212833 0.00783954 0.05619668
v 0.03202747 -0.00664910 0.05366507
v 0.05081576 -0.00118600 0.05967340
v 0.04290690 -0.00524521 0.06147920
v 0.05365121 -0.00653168 0.05210373
v 0.04622496 0.00494114 0.06147781
v 0.04937907 0.00488707 0.05982068
v 0.04289356 -0.00109929 0.06327214
v 0.05561268 0.00493831 0.05300404
v 0.03226487 -0.00543415 0.06188757
v 0.04121128 0.00595235 0.06165499
v 0.05769593 -0.00529432 0.04643060
v 0.05761073 -0.00109917 0.04976484
v 0.05776322 0.00498427 0.04802418
v 0.05800086 0.00602667 0.04463913
v 0.05528295 -0.00658439 0.04846570
v 0.03187788 0.00631320 0.05177696
v 0.03195150 -0.00547094 0.05204388
v 0.05238654 -0.00283412 0.05799736
v 0.05085255 0.00209636 0.05956782
v 0.04797070 -0.00521371 0.05993113
v 0.05402081 -0.00505801 0.05484364
v 0.04630007 -0.00402412 0.06144156
v 0.04117786 -0.00258697 0.06317047
v 0.03589136 -0.00649075 0.06059485
v 0.04119835 0.00366310 0.06313931
f 19 11 6
f 19 5 4
f 20 10 6
f 20 6 11
f 21 20 11
f 21 7 20
f 21 19 4
f 21 11 19
f 22 4 5
f 22 5 13
f 23 13 5
f 23 9 13
f 28 15 27
f 29 1 16
f 29 16 13
f 30 7 13
f 30 13 16
f 32 6 10
f 32 31 17
f 33 2 31
f 33 32 10
f 33 31 32
f 35 3 27
f 36 19 6
f 36 12 19
f 36 6 32
f 36 32 17
f 36 17 12
f 37 19 12
f 37 5 19
f 37 31 25
f 37 12 17
f 37 17 31
f 38 20 7
f 38 3 20
f 38 7 28
f 38 28 27
f 38 27 3
f 39 21 4
f 39 7 21
f 39 4 22
f 39 13 7
f 40 5 9
f 40 9 23
f 41 26 24
f 44 1 26
f 45 44 26
f 45 15 44
f 45 27 15
f 45 8 27
f 46 26 1
f 46 24 26
f 46 1 29
f 47 27 8
f 47 35 27
f 47 34 18
f 47 8 34
f 48 29 13
f 48 13 9
f 49 28 7
f 49 7 30
f 49 15 28
f 49 44 15
f 50 31 2
f 50 25 31
f 51 33 18
f 51 2 33
f 51 18 34
f 51 50 2
f 51 34 50
f 52 33 10
f 52 18 33
f 52 47 18
f 52 35 47
f 53 20 3
f 53 3 35
f 53 10 20
f 53 52 10
f 53 35 52
f 54 37 25
f 54 5 37
f 54 50 43
f 54 25 50
f 54 43 9
f 54 9 5
f 55 39 22
f 55 22 13
f 55 13 39
f 56 40 23
f 56 23 5
f 56 5 40
f 57 41 24
f 57 24 14
f 57 34 8
f 58 26 41
f 58 45 26
f 58 8 45
f 58 57 8
f 58 41 57
f 59 14 24
f 59 43 14
f 60 14 43
f 60 57 14
f 60 34 57
f 60 50 34
f 60 43 50
f 61 24 46
f 61 59 24
f 61 42 59
f 62 46 29
f 62 61 46
f 62 42 61
f 62 48 42
f 62 29 48
f 63 48 9
f 63 42 48
f 63 59 42
f 63 9 43
f 63 43 59
f 64 49 30
f 64 30 16
f 64 16 1
f 64 1 44
f 64 44 49

