# https://github.com/mikedh/trimesh
v 0.01507489 -0.02120444 0.01067781
v 0.01766532 -0.03476466 0.00982078
v 0.01546988 -0.02147491 0.00060193
v -0.02852979 -0.02157860 0.00006115
v -0.02857170 -0.03270436 0.01005510
v -0.02844577 -0.03242759 0.00059690
v -0.02841987 -0.02152213 0.00694090
v 0.01143294 -0.03198090 0.00140772
v -0.02890320 -0.02977342 0.00803536
v 0.01484339 -0.03176885 0.00259137
v 0.01501060 -0.02838507 0.00144218
f 1 2 3
f 1 3 4
f 5 2 1
f 6 4 3
f 6 2 5
f 7 5 1
f 7 1 4
f 8 6 3
f 8 2 6
f 9 6 5
f 9 4 6
f 9 7 4
f 9 5 7
f 10 2 8
f 11 10 8
f 11 8 3
f 11 3 2
f 11 2 10

