# https://github.com/mikedh/trimesh
v 0.00011634 0.03529322 0.01166584
v 0.00091457 -0.02154795 0.00748730
v 0.00083678 0.03513467 0.00097874
v -0.04098742 0.02407029 0.00136975
v -0.05609611 -0.01359032 0.01037251
v 0.00092358 -0.02157683 0.00021279
v -0.02826811 0.03685421 0.00204673
v 0.00129807 0.03083274 0.00824480
v -0.05420564 -0.01891273 0.01034589
v -0.02852979 -0.02157860 0.00006115
v 0.00088024 0.03718174 0.00144950
v -0.02102041 0.03681735 0.00118267
v -0.05137122 0.02372310 0.01031297
v -0.02841987 -0.02152213 0.00694090
v -0.04805242 -0.01577011 0.00133583
v -0.02780222 0.03554649 0.01106875
v -0.02647308 0.03507134 0.00123656
v -0.00102499 0.03688878 0.00124486
v -0.04889395 0.02327108 0.00473876
v -0.04038622 -0.02034853 0.00814542
v -0.04945676 -0.01920057 0.00272740
v -0.04825560 0.00776883 0.00122716
v -0.05430465 0.01811656 0.01034452
v -0.04462426 0.01863566 0.00129624
v -0.05019844 0.02308438 0.00612361
v -0.04595694 0.02377038 0.00291385
v -0.04626629 -0.01937820 0.00123572
v -0.05400575 -0.01539203 0.00595938
v -0.05202716 0.02133353 0.00740282
v -0.05121000 0.01477118 0.00315004
v -0.05245913 -0.01893315 0.00566606
v -0.05400743 -0.01881615 0.00896142
v -0.05281766 -0.01020467 0.00297919
v -0.05257502 0.02163691 0.01031719
v -0.04752998 0.02182722 0.00310598
v -0.04638032 0.01500150 0.00132058
v -0.05578402 0.00926278 0.00594404
v -0.05387853 0.01606159 0.00609597
v -0.05226573 -0.01714804 0.00444112
v -0.05582583 -0.01352158 0.00881738
v -0.05081169 -0.01718106 0.00305968
v -0.05316739 0.00767300 0.00315415
v -0.05377380 0.01785103 0.00748989
v -0.05254994 0.01634944 0.00470875
v -0.05789684 0.00405734 0.01023598
v -0.05409879 -0.01180839 0.00456366
v -0.05562571 0.01268368 0.00741028
v -0.05427552 0.01103891 0.00465251
v -0.05777133 -0.00306660 0.00877079
v -0.05562117 -0.00994509 0.00610261
v -0.05629499 0.01289750 0.01024940
v -0.05765170 0.00402910 0.00875893
v -0.05800252 -0.00305280 0.01022683
f 8 1 2
f 8 2 6
f 9 2 1
f 9 1 5
f 10 3 6
f 10 6 2
f 11 1 8
f 11 8 6
f 11 6 3
f 12 3 10
f 12 7 11
f 14 10 2
f 14 2 9
f 16 11 7
f 16 1 11
f 16 7 13
f 16 5 1
f 17 4 7
f 17 7 12
f 17 12 10
f 18 12 11
f 18 11 3
f 18 3 12
f 20 14 9
f 20 9 10
f 20 10 14
f 21 10 9
f 22 10 15
f 23 16 13
f 23 5 16
f 24 17 10
f 24 4 17
f 24 10 22
f 25 13 7
f 25 7 19
f 26 19 7
f 26 7 4
f 26 4 24
f 27 21 15
f 27 15 10
f 27 10 21
f 29 13 25
f 31 21 9
f 32 9 5
f 32 31 9
f 32 28 31
f 33 22 15
f 34 23 13
f 34 13 29
f 35 26 24
f 35 24 30
f 35 19 26
f 36 30 24
f 36 24 22
f 36 22 30
f 38 29 25
f 39 31 28
f 39 21 31
f 40 32 5
f 40 28 32
f 41 33 15
f 41 15 21
f 41 21 39
f 42 30 22
f 42 22 33
f 42 33 37
f 43 34 29
f 43 23 34
f 43 29 38
f 44 35 30
f 44 19 35
f 44 38 25
f 44 25 19
f 45 5 23
f 46 39 28
f 46 41 39
f 46 33 41
f 47 43 38
f 47 38 37
f 48 37 38
f 48 38 44
f 48 42 37
f 48 44 30
f 48 30 42
f 49 40 5
f 50 46 28
f 50 28 40
f 50 40 49
f 50 49 37
f 50 37 33
f 50 33 46
f 51 23 43
f 51 43 47
f 51 45 23
f 52 47 37
f 52 51 47
f 52 45 51
f 52 49 45
f 52 37 49
f 53 49 5
f 53 5 45
f 53 45 49

