# https://github.com/mikedh/trimesh
v -0.04611155 -0.00899578 0.06725672
v -0.02791336 -0.03487004 0.06473162
v -0.02853964 -0.01974589 0.00009322
v -0.04472647 -0.01954963 0.00085341
v -0.05032423 -0.02568591 0.01541122
v -0.05409541 -0.00864187 0.03586153
v -0.02894321 -0.03158523 0.06699599
v -0.04118223 -0.02546139 0.06294106
v -0.02793995 -0.04201472 0.00564779
v -0.04899386 -0.00919179 0.03620953
v -0.05245913 -0.01893315 0.00566606
v -0.02842538 -0.01968519 0.00700272
v -0.03813413 -0.03772801 0.01898757
v -0.04768574 -0.01295227 0.06694724
v -0.03486748 -0.02944792 0.06692170
v -0.02838986 -0.03414772 0.00087734
v -0.05253368 -0.00814412 0.04666964
v -0.04726602 -0.00923967 0.04730529
v -0.04945676 -0.01920057 0.00272740
v -0.05196272 -0.02216279 0.01901778
v -0.04324938 -0.03252307 0.00603233
v -0.02846253 -0.03234735 0.06714544
v -0.04547692 -0.00931259 0.06364944
v -0.04547136 -0.00928979 0.06651878
v -0.02775342 -0.03830950 0.04844551
v -0.04492104 -0.03077916 0.02443200
v -0.04140102 -0.02373401 0.06594006
v -0.04799427 -0.00853473 0.06735686
v -0.03432235 -0.03227763 0.06125105
v -0.02808074 -0.03889587 0.00264148
v -0.05194086 -0.01517607 0.03728995
v -0.05226899 -0.02225593 0.00885450
v -0.04836617 -0.02554030 0.02808058
v -0.04855065 -0.02738044 0.00741930
v -0.03284326 -0.04130726 0.00895177
v -0.03665811 -0.03487531 0.00308447
v -0.02818423 -0.03366111 0.06655105
v -0.02950969 -0.03068053 0.06643558
v -0.02782161 -0.03654095 0.05772249
v -0.04177991 -0.02230028 0.06680396
v -0.04459156 -0.02024412 0.06290717
v -0.03599437 -0.03065418 0.06302194
v -0.03153471 -0.03149286 0.06702194
v -0.03279825 -0.03949369 0.02818587
v -0.05190138 -0.01342694 0.04100725
v -0.05205212 -0.02036406 0.02446765
v -0.05014728 -0.02383046 0.02443775
v -0.04478013 -0.02717691 0.03909058
v -0.04846650 -0.02726831 0.02078823
v -0.03797364 -0.03777322 0.00762604
v -0.05021560 -0.02565462 0.00891877
v -0.05201700 -0.02040147 0.00608460
v -0.04877117 -0.02399464 0.00439689
v -0.02790365 -0.04192254 0.02644255
v -0.04440786 -0.02291280 0.00130796
v -0.03188426 -0.03387189 0.00124223
v -0.03118885 -0.03973155 0.00453880
v -0.03101871 -0.03397509 0.06280700
v -0.04285121 -0.02371399 0.06124189
v -0.03441896 -0.03060832 0.06589714
v -0.04128242 -0.03066482 0.04092289
v -0.03795511 -0.03589218 0.02997542
v -0.03295887 -0.04144226 0.01362870
v -0.04636472 -0.01861229 0.05937979
f 6 3 4
f 10 3 6
f 12 9 3
f 16 4 3
f 17 10 6
f 18 3 10
f 18 10 17
f 19 11 6
f 19 6 4
f 22 12 7
f 22 7 1
f 23 12 3
f 23 18 1
f 23 3 18
f 24 1 7
f 24 23 1
f 24 12 23
f 25 9 12
f 26 5 13
f 28 17 14
f 28 18 17
f 28 1 18
f 28 22 1
f 30 16 3
f 30 3 9
f 32 5 20
f 32 20 6
f 32 6 11
f 34 13 5
f 37 2 12
f 37 12 22
f 38 24 7
f 38 7 12
f 38 12 24
f 39 25 12
f 39 12 2
f 40 27 15
f 40 14 27
f 40 28 14
f 40 15 28
f 41 27 14
f 42 27 8
f 43 28 15
f 43 22 28
f 43 37 22
f 45 17 6
f 45 6 31
f 45 31 14
f 45 14 17
f 46 14 31
f 46 31 6
f 46 6 20
f 47 20 5
f 47 46 20
f 48 33 26
f 48 26 8
f 48 8 33
f 49 5 26
f 49 26 33
f 49 47 5
f 49 33 47
f 50 34 21
f 50 13 34
f 50 21 36
f 51 34 5
f 51 5 32
f 51 32 34
f 52 34 32
f 52 32 11
f 53 21 34
f 53 36 21
f 53 34 52
f 53 52 11
f 53 11 19
f 54 9 25
f 54 25 44
f 55 19 4
f 55 53 19
f 55 36 53
f 56 16 30
f 56 30 36
f 56 36 55
f 56 55 4
f 56 4 16
f 57 36 30
f 57 30 9
f 57 50 36
f 57 9 35
f 57 35 50
f 58 39 2
f 58 29 44
f 58 44 25
f 58 25 39
f 58 42 29
f 59 8 27
f 59 27 41
f 59 33 8
f 60 15 27
f 60 27 42
f 60 42 58
f 60 43 15
f 60 58 2
f 60 2 37
f 60 37 43
f 61 42 8
f 61 8 26
f 62 29 42
f 62 44 29
f 62 13 44
f 62 42 61
f 62 61 26
f 62 26 13
f 63 44 13
f 63 54 44
f 63 35 9
f 63 9 54
f 63 50 35
f 63 13 50
f 64 41 14
f 64 14 46
f 64 46 47
f 64 59 41
f 64 47 33
f 64 33 59

