# https://github.com/mikedh/trimesh
v 0.00071396 0.04389857 0.01922986
v 0.01628035 0.03636163 0.01761351
v 0.00562019 0.04073379 0.00468474
v -0.02826811 0.03685421 0.00204673
v -0.02896859 0.03647083 0.01933371
v 0.01148557 0.03477686 0.00232886
v -0.02057631 0.04428100 0.00611508
v 0.00559592 0.04232254 0.00727707
v 0.00124726 0.03634060 0.01934448
v -0.00305650 0.04136149 0.00310153
v -0.02874988 0.03413461 0.00968637
v -0.02249101 0.04444590 0.01905007
v 0.00546428 0.04251380 0.01721358
v -0.00318678 0.04428497 0.00610942
v 0.01409140 0.03700656 0.00585155
v 0.00091490 0.03547360 0.00104699
v 0.00413865 0.03949628 0.00313457
v -0.02083284 0.04132051 0.00310042
v -0.02918661 0.03500523 0.01124347
v 0.00093046 0.03368598 0.01009709
v -0.02764114 0.04269015 0.00734897
v 0.00022769 0.04413674 0.00739187
v 0.01247584 0.03890985 0.01726299
v -0.00138157 0.04441807 0.01905357
v -0.02416971 0.04438039 0.00885084
v -0.00136446 0.04277611 0.00461602
v 0.01244056 0.03721080 0.00461241
v 0.01493261 0.03459924 0.00383832
v 0.01119693 0.03604591 0.00296612
v -0.02776801 0.04285099 0.01908441
v -0.02772249 0.04085519 0.00464047
v 0.00033576 0.04424748 0.01720295
v 0.00377656 0.04230111 0.00597683
v 0.01244971 0.03879792 0.00733948
v 0.01435895 0.03563445 0.00438167
v -0.02424964 0.04423935 0.01718351
v -0.02610782 0.03951669 0.00297331
v -0.02805945 0.03824183 0.00266684
v -0.02597405 0.04261498 0.00603812
v -0.02244566 0.04271395 0.00471051
v 0.01458670 0.03756142 0.01729089
f 9 2 1
f 9 1 5
f 14 10 7
f 16 11 4
f 16 6 11
f 17 16 10
f 17 6 16
f 18 7 10
f 18 16 4
f 18 10 16
f 19 11 5
f 19 4 11
f 20 9 5
f 20 5 11
f 20 2 9
f 20 11 6
f 21 4 19
f 23 13 1
f 23 1 2
f 23 8 13
f 24 12 1
f 24 22 14
f 25 14 7
f 25 24 14
f 25 12 24
f 25 7 21
f 26 10 14
f 26 17 10
f 26 3 17
f 27 3 8
f 28 15 2
f 28 20 6
f 28 2 20
f 29 17 3
f 29 6 17
f 29 3 27
f 29 28 6
f 29 27 28
f 30 25 21
f 30 5 1
f 30 1 12
f 30 21 19
f 30 19 5
f 32 1 13
f 32 13 8
f 32 8 22
f 32 24 1
f 32 22 24
f 33 22 8
f 33 8 3
f 33 3 26
f 33 26 14
f 33 14 22
f 34 8 23
f 34 27 8
f 34 15 27
f 34 2 15
f 35 28 27
f 35 27 15
f 35 15 28
f 36 30 12
f 36 12 25
f 36 25 30
f 37 18 4
f 38 4 21
f 38 21 31
f 38 37 4
f 38 31 37
f 39 31 21
f 39 21 7
f 40 7 18
f 40 37 31
f 40 18 37
f 40 39 7
f 40 31 39
f 41 34 23
f 41 23 2
f 41 2 34

