# https://github.com/mikedh/trimesh
v 0.00117926 -0.03345955 0.06616723
v 0.00157953 -0.03249883 0.06325507
v -0.02927057 -0.03042282 0.06508280
v -0.02919512 -0.03416381 0.02872015
v 0.00065107 -0.04278441 0.02841175
v 0.00166108 -0.03416027 0.03050078
v -0.01548786 -0.03968602 0.05950674
v 0.00156441 -0.03236726 0.05077462
v -0.02932426 -0.03045886 0.05087752
v 0.00100161 -0.03462955 0.02854841
v 0.00015644 -0.03763972 0.06283963
v -0.02782985 -0.04167258 0.02822562
v -0.00661823 -0.03976007 0.05960823
v -0.01535704 -0.03794202 0.06580243
v -0.02742260 -0.03571527 0.06283604
v -0.01544332 -0.04340272 0.03559909
v -0.00314976 -0.04370464 0.02828374
v 0.00022495 -0.03949810 0.05209337
v -0.00502473 -0.03790923 0.06567572
v -0.02879846 -0.03137483 0.06677512
v -0.02226552 -0.03768255 0.06281824
v -0.01200840 -0.04352194 0.03562472
v -0.02080203 -0.04366657 0.02828387
v -0.00153886 -0.04131874 0.04292074
v 0.00022998 -0.03636720 0.06584420
v -0.00159508 -0.03767331 0.06442904
v -0.02774279 -0.03440962 0.06586435
v -0.02772522 -0.04142991 0.03002681
v -0.02058811 -0.03765422 0.06441297
v -0.00840777 -0.04154147 0.04843389
v -0.01541249 -0.04145490 0.04842691
v -0.02249943 -0.04138998 0.04107700
v 0.00039115 -0.04137046 0.03926904
v -0.00490079 -0.04149065 0.04661747
v -0.02404874 -0.03593019 0.06574141
v -0.01886739 -0.04327835 0.03372277
v -0.00318143 -0.04321672 0.03190240
v -0.00841091 -0.04341424 0.03560892
v -0.02072114 -0.04318555 0.03188669
v -0.00495770 -0.04329262 0.03374414
f 1 2 3
f 5 2 1
f 6 2 5
f 8 3 2
f 8 2 6
f 9 6 4
f 9 4 3
f 9 8 6
f 9 3 8
f 10 6 5
f 10 4 6
f 11 5 1
f 12 3 4
f 12 4 10
f 14 7 13
f 17 12 10
f 17 10 5
f 18 5 11
f 18 11 13
f 19 14 13
f 20 1 3
f 20 3 12
f 23 12 17
f 23 22 16
f 23 17 22
f 25 11 1
f 25 14 19
f 25 20 14
f 25 1 20
f 26 19 13
f 26 13 11
f 26 25 19
f 26 11 25
f 27 20 12
f 27 12 15
f 28 21 15
f 28 15 12
f 29 21 7
f 29 7 14
f 30 13 7
f 31 16 22
f 31 30 7
f 31 22 30
f 32 7 21
f 32 21 28
f 32 28 12
f 33 17 5
f 33 5 18
f 33 18 24
f 34 24 18
f 34 18 13
f 35 14 20
f 35 20 27
f 35 29 14
f 35 21 29
f 35 27 15
f 35 15 21
f 36 23 16
f 36 16 31
f 36 31 7
f 36 7 32
f 37 24 34
f 37 33 24
f 37 17 33
f 38 34 13
f 38 13 30
f 38 30 22
f 38 22 17
f 39 36 32
f 39 23 36
f 39 32 12
f 39 12 23
f 40 37 34
f 40 17 37
f 40 38 17
f 40 34 38

