# https://github.com/mikedh/trimesh
v 0.05803021 0.00525857 0.02007303
v 0.05825006 -0.00455979 0.01995476
v 0.05108003 0.00213017 0.01041530
v 0.03108931 0.00392232 0.00391956
v 0.03180165 -0.00494951 0.02294991
v 0.03091448 -0.01023236 0.00710840
v 0.03176062 0.01328158 0.01017818
v 0.05590104 0.00369011 0.01534277
v 0.04935353 -0.00578793 0.01056364
v 0.03147369 -0.00855822 0.02108038
v 0.03139059 0.01138066 0.00683112
v 0.03186235 0.00783765 0.02112166
v 0.05758531 0.00479710 0.01865537
v 0.05578623 -0.00425501 0.01549061
v 0.04799732 -0.00827974 0.01285478
v 0.04253512 -0.00433825 0.00691730
v 0.05658506 -0.00680628 0.01987938
v 0.04632465 0.00448302 0.00859359
v 0.05278672 0.00587583 0.01366760
v 0.03193937 0.00418243 0.02298174
v 0.03178989 0.01149030 0.01743402
v 0.05775255 -0.00424144 0.01860229
v 0.05254651 -0.00424208 0.01210817
v 0.04265063 -0.00826792 0.00971314
v 0.03138649 -0.01213993 0.01555724
v 0.03158999 -0.00432913 0.00449457
v 0.04769039 -0.00279219 0.00859138
v 0.05609718 -0.00673571 0.01845007
v 0.04265815 0.00200799 0.00673364
v 0.04945065 0.00474758 0.01029479
v 0.05419151 0.00468190 0.01386008
v 0.05702061 0.00625069 0.01983089
v 0.03172700 0.01326886 0.01378642
v 0.03149309 -0.01215635 0.01019568
v 0.04761666 -0.00674367 0.01026090
v 0.03138970 -0.01035504 0.01923338
v 0.04088183 -0.00564958 0.00692719
v 0.03367929 -0.00426670 0.00490217
v 0.04588118 -0.00572275 0.00875771
v 0.05098551 -0.00272884 0.01049456
v 0.04768047 0.00356707 0.00876235
v 0.05637510 0.00613950 0.01842955
v 0.03186820 0.00967243 0.01928622
v 0.04617728 -0.00826933 0.01145450
v 0.04267391 -0.00711363 0.00838388
v 0.05453887 0.00574100 0.01533025
f 5 2 1
f 10 4 6
f 13 1 2
f 17 2 5
f 17 5 10
f 18 4 11
f 19 11 7
f 20 5 1
f 20 12 10
f 20 10 5
f 21 11 4
f 21 4 10
f 21 10 12
f 22 13 2
f 22 8 13
f 22 14 8
f 23 3 8
f 23 8 14
f 26 6 4
f 28 17 15
f 28 14 22
f 28 22 2
f 28 2 17
f 28 23 14
f 28 9 23
f 29 16 4
f 29 4 18
f 29 27 16
f 30 18 11
f 30 11 19
f 31 8 3
f 31 30 19
f 31 3 30
f 31 13 8
f 32 20 1
f 32 12 20
f 33 7 11
f 33 11 21
f 33 32 7
f 33 21 32
f 34 6 24
f 34 25 6
f 34 15 17
f 34 17 25
f 35 28 15
f 35 9 28
f 36 10 6
f 36 6 25
f 36 25 17
f 36 17 10
f 37 6 26
f 38 26 4
f 38 4 16
f 38 37 26
f 38 16 37
f 39 27 9
f 39 16 27
f 39 9 35
f 39 37 16
f 40 23 9
f 40 9 27
f 40 27 3
f 40 3 23
f 41 29 18
f 41 3 27
f 41 27 29
f 41 30 3
f 41 18 30
f 42 19 7
f 42 7 32
f 42 32 1
f 42 1 13
f 43 32 21
f 43 21 12
f 43 12 32
f 44 34 24
f 44 15 34
f 44 35 15
f 44 24 35
f 45 39 35
f 45 35 24
f 45 24 6
f 45 6 37
f 45 37 39
f 46 31 19
f 46 19 42
f 46 42 13
f 46 13 31

