# https://github.com/mikedh/trimesh
v 0.00122156 0.03265824 0.06633867
v 0.00172813 0.03177992 0.06473279
v 0.00071396 0.04389857 0.01922986
v -0.02776801 0.04285099 0.01908441
v -0.02933113 0.03135465 0.06661192
v 0.00124726 0.03634060 0.01934448
v -0.01730651 0.03899638 0.06301358
v 0.00012216 0.03689692 0.06287504
v 0.00160662 0.03538158 0.02874817
v -0.00314109 0.04479343 0.01910239
v -0.02896859 0.03647083 0.01933371
v -0.01391773 0.03703223 0.06714342
v -0.02580223 0.03691285 0.06307810
v -0.02937734 0.03147192 0.05089230
v -0.02249101 0.04444590 0.01905007
v -0.00327635 0.03877872 0.05767317
v -0.02941888 0.03347504 0.03986007
v -0.02889506 0.03231060 0.06732389
v -0.00846145 0.03885972 0.06294767
v 0.00020831 0.03533311 0.06586781
v -0.02247774 0.03701063 0.06633355
v 0.00164093 0.03152313 0.05448747
v -0.01725679 0.04432438 0.02634818
v -0.02073233 0.03891461 0.05966380
v -0.02427465 0.04237810 0.02998217
v 0.00019612 0.04241537 0.03001135
v -0.02741568 0.03510654 0.06638098
v -0.00497469 0.04435639 0.02454353
v -0.00515467 0.03708536 0.06563046
v -0.02588307 0.03538942 0.06703728
v -0.00841405 0.04445089 0.02637379
v -0.02243449 0.04421830 0.02086065
v -0.02766507 0.04239772 0.02267311
v -0.00322580 0.04428849 0.02269645
v -0.00153748 0.03696556 0.06421546
v -0.02783361 0.03419331 0.06725053
f 5 2 1
f 8 1 2
f 8 2 3
f 9 6 3
f 9 3 2
f 10 3 6
f 11 4 6
f 14 11 6
f 15 10 6
f 15 6 4
f 17 5 4
f 17 4 11
f 17 14 5
f 17 11 14
f 18 5 1
f 18 1 12
f 18 4 5
f 19 7 12
f 19 8 16
f 20 12 1
f 20 1 8
f 21 12 7
f 22 9 2
f 22 2 5
f 22 5 14
f 22 14 6
f 22 6 9
f 23 10 15
f 24 7 23
f 24 21 7
f 24 13 21
f 25 13 24
f 26 16 8
f 26 8 3
f 27 4 18
f 27 21 13
f 28 19 16
f 29 19 12
f 29 12 20
f 30 12 21
f 30 21 27
f 31 23 7
f 31 7 19
f 31 19 28
f 31 28 10
f 31 10 23
f 32 24 23
f 32 23 15
f 32 25 24
f 33 13 25
f 33 27 13
f 33 4 27
f 33 25 32
f 33 32 15
f 33 15 4
f 34 26 3
f 34 3 10
f 34 10 28
f 34 28 16
f 34 16 26
f 35 29 20
f 35 20 8
f 35 8 19
f 35 19 29
f 36 18 12
f 36 12 30
f 36 30 27
f 36 27 18

