# https://github.com/mikedh/trimesh
v -0.04414673 0.01368134 0.06631900
v -0.04611155 -0.00899578 0.06725672
v -0.04913363 -0.00875013 0.03594611
v -0.05439224 0.00754321 0.03569153
v -0.05996682 -0.00013465 0.06548089
v -0.04571228 0.01363724 0.04703217
v -0.04753530 0.00746498 0.06699807
v -0.04908882 0.01554426 0.06439285
v -0.04851215 -0.01593735 0.05425631
v -0.05422171 -0.00828694 0.03555929
v -0.04871906 0.00825842 0.03612989
v -0.04698503 -0.00916762 0.04909934
v -0.04799427 -0.00853473 0.06735686
v -0.04610482 0.00797984 0.06691575
v -0.04803008 0.01635503 0.06470965
v -0.05626733 0.00831767 0.06429898
v -0.05965875 -0.00375613 0.06341835
v -0.04842319 0.01689917 0.05425321
v -0.04493700 0.01409742 0.05085427
v -0.04873622 -0.00912810 0.03801140
v -0.04792087 -0.01568866 0.05782082
v -0.05967050 0.00174366 0.06493053
v -0.05938709 0.00178477 0.06247076
v -0.05988376 -0.00386519 0.06551017
v -0.04791317 -0.01313816 0.06663442
v -0.05659632 -0.00676123 0.06566462
v -0.04922393 -0.01236954 0.06609983
f 10 3 9
f 11 6 3
f 11 10 4
f 11 3 10
f 12 1 2
f 13 7 5
f 14 2 1
f 14 1 7
f 14 13 2
f 14 7 13
f 15 7 1
f 15 5 7
f 16 15 8
f 16 5 15
f 17 4 10
f 18 11 4
f 18 6 11
f 18 8 15
f 18 16 8
f 18 4 16
f 18 15 1
f 19 1 12
f 19 18 1
f 19 6 18
f 20 12 9
f 20 9 3
f 20 19 12
f 20 3 6
f 20 6 19
f 21 12 2
f 21 9 12
f 22 16 4
f 22 5 16
f 23 17 5
f 23 4 17
f 23 22 4
f 23 5 22
f 24 17 10
f 24 10 9
f 24 13 5
f 24 5 17
f 25 21 2
f 25 2 13
f 25 13 24
f 26 24 9
f 26 9 21
f 26 25 24
f 27 26 21
f 27 21 25
f 27 25 26

