# https://github.com/mikedh/trimesh
v -0.02633176 0.00051190 0.05007380
v -0.01494051 -0.01315921 0.03758137
v -0.02109114 0.00137504 0.03836098
v -0.02213606 0.00135458 0.01386854
v -0.02344648 -0.01142008 0.04804660
v -0.01819372 0.00133253 0.01337705
v -0.02703430 0.00139119 0.04794348
v -0.02286541 0.00137358 0.04731078
v -0.02023974 -0.00901303 0.01389199
v -0.01406802 -0.01315190 0.03262907
v -0.02602613 -0.00586780 0.04887323
v -0.02201969 0.00136269 0.04328920
v -0.02690584 0.00137694 0.04972663
v -0.01759375 -0.01320139 0.04795530
v -0.01755176 -0.00047111 0.01322499
v -0.01979874 -0.01234230 0.02609900
v -0.02264816 -0.01219854 0.05011503
v -0.02520704 -0.00814560 0.04887358
v -0.02263387 -0.00174809 0.01625968
v -0.02434524 0.00134245 0.04923398
v -0.02539258 -0.00595570 0.05003331
v -0.02682967 -0.00255483 0.04885250
v -0.01591962 -0.01319632 0.04166049
v -0.02175375 -0.00424277 0.01390340
v -0.01577795 -0.00862853 0.01429192
v -0.01915230 -0.01312193 0.04942531
v -0.02269823 -0.01216284 0.04719990
v -0.02180824 -0.00654770 0.01706805
v -0.02086169 -0.00810605 0.01475904
v -0.02340899 -0.01141176 0.04953218
v -0.02269175 0.00134928 0.01627923
v -0.02622150 -0.00259643 0.05001702
v -0.02339652 -0.01059754 0.05015400
v -0.02097492 -0.00732704 0.01391599
v -0.01395077 -0.01294236 0.02607633
v -0.02060850 -0.01296717 0.05000680
v -0.02177456 -0.00589235 0.01546949
v -0.02666139 0.00050549 0.05002766
v -0.02670412 -0.00167998 0.04959810
v -0.02417508 -0.00973556 0.04951183
v -0.02588455 -0.00501524 0.04957724
f 6 4 3
f 7 3 4
f 8 3 7
f 10 6 3
f 10 3 2
f 12 8 2
f 12 2 3
f 12 3 8
f 13 8 7
f 15 4 6
f 15 6 10
f 16 5 9
f 20 13 1
f 20 8 13
f 20 14 8
f 21 11 18
f 22 13 7
f 22 7 19
f 23 2 8
f 23 8 14
f 23 14 10
f 23 10 2
f 24 4 15
f 24 19 4
f 25 9 15
f 26 16 10
f 26 10 14
f 26 14 20
f 27 17 5
f 27 5 16
f 28 18 11
f 29 9 5
f 29 5 18
f 29 18 28
f 30 18 5
f 30 5 17
f 31 19 7
f 31 7 4
f 31 4 19
f 33 32 21
f 33 1 32
f 33 30 17
f 34 24 15
f 34 15 9
f 34 9 29
f 35 25 15
f 35 15 10
f 35 10 16
f 35 16 9
f 35 9 25
f 36 26 20
f 36 20 1
f 36 17 27
f 36 27 16
f 36 16 26
f 36 33 17
f 36 1 33
f 37 28 11
f 37 11 22
f 37 22 19
f 37 19 24
f 37 24 34
f 37 34 29
f 37 29 28
f 38 32 1
f 38 1 13
f 39 22 11
f 39 21 32
f 39 32 38
f 39 38 13
f 39 13 22
f 40 33 21
f 40 21 18
f 40 18 30
f 40 30 33
f 41 39 11
f 41 11 21
f 41 21 39

