# https://github.com/mikedh/trimesh
v 0.00446137 0.02649007 0.04936326
v 0.00460928 0.02444956 0.04867335
v 0.00442586 0.02040923 0.01322041
v -0.00444486 0.02069504 0.01306517
v -0.01311048 0.02179380 0.04933943
v 0.00117958 0.02193835 0.01628534
v 0.00456625 0.02570700 0.04921728
v -0.01156852 0.02532382 0.04802288
v 0.00463671 0.01478192 0.01269586
v 0.00442451 0.02113971 0.01486904
v 0.00275452 0.02105715 0.01411320
v -0.00772563 0.02594933 0.04965895
v -0.01228479 0.02037800 0.02531807
v -0.00431611 0.02284417 0.02209689
v -0.01327440 0.01590890 0.03420248
v 0.00313250 0.01515958 0.01235548
v 0.00278493 0.02697393 0.04784818
v 0.00486238 0.01511290 0.01325914
v -0.00443805 0.02112818 0.01405334
v -0.01227464 0.02457125 0.04958423
v -0.01083664 0.02124668 0.02530623
v 0.00469327 0.02051287 0.03576580
v -0.01319054 0.02024229 0.04781482
v -0.01324375 0.01506365 0.03016008
v 0.00440198 0.02192950 0.01959514
v -0.00038740 0.02195756 0.01628845
v -0.00283626 0.02688883 0.04901643
v 0.00464790 0.02375608 0.04725768
v -0.01087457 0.02525136 0.04958987
v -0.01232864 0.02451604 0.04735028
v -0.00438981 0.02198862 0.01712561
v 0.00469921 0.01967885 0.03247006
v -0.01294936 0.01474538 0.02523741
v 0.00444413 0.02607066 0.04653050
v 0.00273905 0.02688020 0.04912077
v -0.00368107 0.02698185 0.04827418
v -0.00848204 0.02608424 0.04827921
v -0.01147922 0.02518957 0.04901071
v -0.00460395 0.01572806 0.01258598
v -0.00852314 0.02603092 0.04793410
f 7 5 2
f 7 1 5
f 10 1 7
f 11 3 4
f 11 10 3
f 11 6 10
f 12 5 1
f 16 4 3
f 16 3 9
f 17 10 6
f 18 9 3
f 18 3 10
f 18 10 7
f 19 11 4
f 19 6 11
f 19 4 13
f 20 5 12
f 21 13 8
f 21 19 13
f 23 2 5
f 23 5 15
f 24 15 5
f 24 5 13
f 24 9 15
f 25 1 10
f 25 10 17
f 26 17 6
f 26 14 17
f 26 6 19
f 28 18 7
f 28 7 2
f 28 22 18
f 28 15 22
f 28 23 15
f 28 2 23
f 29 20 12
f 30 13 5
f 30 5 20
f 30 20 8
f 30 8 13
f 31 21 8
f 31 8 14
f 31 19 21
f 31 26 19
f 31 14 26
f 32 22 15
f 32 15 9
f 32 9 18
f 32 18 22
f 33 24 13
f 33 13 4
f 33 9 24
f 34 25 17
f 34 17 1
f 34 1 25
f 35 27 12
f 35 12 1
f 35 1 17
f 36 12 27
f 36 17 14
f 36 35 17
f 36 27 35
f 37 29 12
f 37 12 36
f 38 8 20
f 38 20 29
f 38 37 8
f 38 29 37
f 39 33 4
f 39 4 16
f 39 16 9
f 39 9 33
f 40 37 36
f 40 36 14
f 40 14 8
f 40 8 37

