# https://github.com/mikedh/trimesh
v 0.00696975 -0.02611419 0.04968175
v 0.00704767 -0.02391117 0.04918165
v 0.00037050 -0.02459369 0.04944842
v 0.00041435 -0.01589723 0.01293444
v 0.00604127 -0.02026615 0.01316134
v 0.00734766 -0.01754583 0.03171925
v 0.00043216 -0.02262832 0.01959662
v 0.00715703 -0.02270347 0.04781792
v 0.00040120 -0.01857500 0.03082918
v 0.00603883 -0.01544940 0.01350894
v 0.00697830 -0.02233713 0.02527512
v 0.00056968 -0.02662885 0.04735571
v 0.00028333 -0.02271231 0.04573653
v 0.00037999 -0.02120707 0.01306180
v 0.00740171 -0.01844551 0.03495867
v 0.00708343 -0.01693309 0.02524714
v 0.00268585 -0.02164622 0.01471190
v 0.00054300 -0.02670317 0.04964518
v 0.00030426 -0.02336897 0.04794203
v 0.00036281 -0.02022060 0.03738458
v 0.00039730 -0.01663076 0.01482141
v 0.00039028 -0.02180192 0.01473354
v 0.00657004 -0.01670677 0.01935719
v 0.00600041 -0.02087490 0.01469286
v 0.00429662 -0.02075033 0.01329836
v 0.00526226 -0.02665342 0.04796066
v 0.00694837 -0.02603338 0.04719863
v 0.00278370 -0.02662306 0.04735172
v 0.00272184 -0.02246574 0.01963783
v 0.00525536 -0.02668666 0.04824674
v 0.00601759 -0.02165371 0.01881680
v 0.00276363 -0.02667710 0.04961468
v 0.00434302 -0.02242857 0.02129523
v 0.00442147 -0.02662732 0.04901815
f 1 2 3
f 8 3 2
f 8 2 1
f 9 6 4
f 10 5 4
f 10 4 6
f 13 9 4
f 14 4 5
f 15 8 1
f 15 11 6
f 16 10 6
f 16 6 11
f 16 11 5
f 18 1 3
f 18 7 12
f 19 3 8
f 19 15 13
f 19 8 15
f 20 6 9
f 20 9 13
f 20 15 6
f 20 13 15
f 21 14 13
f 21 13 4
f 21 4 14
f 22 3 19
f 22 19 13
f 22 13 14
f 22 18 3
f 22 7 18
f 22 17 7
f 22 14 17
f 23 16 5
f 23 5 10
f 23 10 16
f 24 5 11
f 25 17 14
f 25 14 5
f 25 24 17
f 25 5 24
f 27 15 1
f 27 11 15
f 28 12 7
f 28 7 26
f 29 26 7
f 29 7 17
f 30 18 12
f 30 28 26
f 30 12 28
f 30 27 1
f 30 26 27
f 31 17 24
f 31 27 26
f 31 24 11
f 31 11 27
f 32 1 18
f 32 18 30
f 33 29 17
f 33 17 31
f 33 31 26
f 33 26 29
f 34 32 30
f 34 30 1
f 34 1 32

