# https://github.com/mikedh/trimesh
v -0.00438111 0.02309057 0.02529016
v -0.00459344 0.01910903 0.02523279
v -0.00460395 0.01572806 0.01258598
v -0.01443932 0.01621504 0.01331302
v -0.02371431 0.00137612 0.02528792
v -0.00444486 0.02069504 0.01306517
v -0.00434163 0.02296645 0.02288405
v -0.01941833 0.01395786 0.02530568
v -0.01988224 0.00136502 0.02520453
v -0.01744716 0.00140228 0.01245998
v -0.01060389 0.01945903 0.01492945
v -0.01228479 0.02037800 0.02531807
v -0.02083336 0.00757950 0.01325358
v -0.01863691 0.01152977 0.01322784
v -0.02189075 0.00135165 0.01312007
v -0.00670931 0.02101293 0.01552790
v -0.00918778 0.01930610 0.01331382
v -0.02277902 0.00777554 0.02531164
v -0.01083664 0.02124668 0.02530623
v -0.01471274 0.01862456 0.02295008
v -0.02013384 0.01228557 0.02131757
v -0.01952229 0.00135536 0.02185181
v -0.02168637 0.00440841 0.01319952
v -0.00440128 0.02212150 0.01792811
v -0.01218385 0.01771601 0.01333936
v -0.00503129 0.02100108 0.01414215
v -0.00921491 0.02023045 0.01555427
v -0.00842826 0.02197133 0.02530397
v -0.01448761 0.01702663 0.01493829
v -0.01478415 0.01879628 0.02531272
v -0.01078570 0.02105280 0.02294892
v -0.01931261 0.01163476 0.01484470
v -0.01775773 0.01541618 0.02138294
v -0.02095998 0.01163490 0.02530829
v -0.02179229 0.00834236 0.01878890
v -0.02269175 0.00134928 0.01627923
v -0.00443805 0.02112818 0.01405334
v -0.00515104 0.02288759 0.02529004
v -0.01137326 0.01940097 0.01634639
v -0.01691530 0.01459427 0.01496177
v -0.01215632 0.01851368 0.01495492
v -0.01003138 0.02100649 0.02131516
v -0.00838930 0.02188964 0.02368092
v -0.01218814 0.02020852 0.02296709
v -0.02006589 0.00906870 0.01328249
v -0.01933933 0.01392060 0.02370116
v -0.01527528 0.01783296 0.02130646
v -0.01848896 0.01300922 0.01553436
v -0.01849692 0.01471357 0.02211811
v -0.02179077 0.00913856 0.02127462
v -0.02170859 0.00688683 0.01548550
v -0.02009120 0.01075859 0.01631882
v -0.02265644 0.00300241 0.01628276
v -0.01300800 0.01854158 0.01717805
v -0.01605804 0.01456895 0.01334550
v -0.01855102 0.01220953 0.01412190
v -0.01769286 0.01464333 0.01803316
v -0.00508546 0.02193456 0.01795383
v -0.02087433 0.00824596 0.01412053
v -0.02092201 0.01161568 0.02448460
v -0.02261548 0.00773181 0.02288466
v -0.02258487 0.00443026 0.01711988
v -0.02355426 0.00367388 0.02288070
v -0.00511119 0.02275582 0.02291610
f 5 2 1
f 6 3 4
f 7 1 2
f 7 2 3
f 7 3 6
f 9 3 2
f 9 2 5
f 10 3 9
f 12 5 1
f 14 4 3
f 14 3 10
f 14 10 13
f 18 5 12
f 22 15 10
f 22 10 9
f 23 13 10
f 23 10 15
f 25 17 6
f 25 6 4
f 25 11 17
f 26 6 17
f 27 17 11
f 27 26 17
f 27 16 26
f 28 19 12
f 28 12 1
f 29 25 4
f 30 12 20
f 31 12 19
f 33 30 20
f 34 30 8
f 34 18 12
f 34 12 30
f 36 15 22
f 36 22 9
f 36 9 5
f 37 6 26
f 37 24 7
f 37 7 6
f 37 26 16
f 37 16 24
f 38 28 1
f 38 1 7
f 39 31 27
f 39 27 11
f 40 29 4
f 41 11 25
f 41 25 29
f 41 39 11
f 41 29 39
f 42 16 27
f 42 27 31
f 43 28 38
f 43 31 19
f 43 19 28
f 44 20 12
f 44 12 31
f 44 39 20
f 44 31 39
f 45 32 14
f 45 14 13
f 47 33 20
f 47 20 29
f 47 29 33
f 48 32 21
f 49 8 30
f 49 30 33
f 49 46 8
f 49 48 21
f 49 21 46
f 50 21 35
f 51 13 23
f 52 35 21
f 52 21 32
f 53 23 15
f 53 15 36
f 54 39 29
f 54 29 20
f 54 20 39
f 55 40 4
f 55 4 14
f 56 14 32
f 56 48 40
f 56 32 48
f 56 55 14
f 56 40 55
f 57 33 29
f 57 29 40
f 57 40 48
f 57 49 33
f 57 48 49
f 58 24 16
f 58 16 42
f 58 7 24
f 58 42 31
f 59 45 13
f 59 32 45
f 59 52 32
f 59 13 51
f 59 51 35
f 59 35 52
f 60 46 21
f 60 34 8
f 60 8 46
f 60 21 50
f 60 18 34
f 61 50 35
f 61 60 50
f 61 18 60
f 61 35 51
f 62 51 23
f 62 23 53
f 62 61 51
f 63 53 36
f 63 36 5
f 63 62 53
f 63 61 62
f 63 5 18
f 63 18 61
f 64 7 58
f 64 43 38
f 64 38 7
f 64 58 31
f 64 31 43

