# https://github.com/mikedh/trimesh
v 0.00044063 -0.01805650 0.02610801
v 0.00041982 -0.02335288 0.02608743
v 0.00040899 -0.01548933 0.01341701
v -0.01672589 -0.00370787 0.01328246
v -0.02141363 -0.00916170 0.02609725
v -0.00815142 -0.00645398 0.01327368
v 0.00043216 -0.02262832 0.01959662
v -0.00833664 -0.02191115 0.02612876
v -0.00569872 -0.00878124 0.01323405
v -0.01609645 -0.00989809 0.02601744
v -0.01225170 -0.01823761 0.01400244
v -0.00599551 -0.02263130 0.02612642
v -0.01940359 -0.01286506 0.02612208
v -0.00968647 -0.00560190 0.01323261
v -0.01735355 -0.00369380 0.01423177
v -0.02006664 -0.00929649 0.01371968
v 0.00040256 -0.02148261 0.01378689
v -0.00431934 -0.02249186 0.02043724
v -0.01305537 -0.01931815 0.02611232
v -0.01698737 -0.00360231 0.01365205
v -0.02040549 -0.00908689 0.01466022
v -0.01688539 -0.01448437 0.01478969
v -0.00202481 -0.02253220 0.01959414
v -0.00677779 -0.02077004 0.01401532
v -0.00818428 -0.02168746 0.02210579
v -0.02118923 -0.00905574 0.02202872
v -0.01853689 -0.01199392 0.01395471
v -0.01686366 -0.01522560 0.01874937
v -0.00365945 -0.02165635 0.01472691
v -0.00595381 -0.02244850 0.02289399
v -0.00736698 -0.02079249 0.01476322
v -0.01301539 -0.01915476 0.02286478
v -0.02005053 -0.01139110 0.02123012
v -0.01948358 -0.01063735 0.01386147
v -0.01292459 -0.01842838 0.01710795
v 0.00039028 -0.02180192 0.01473354
v -0.00593716 -0.02158853 0.01713202
v -0.02012889 -0.00977740 0.01475431
v -0.02110714 -0.00985147 0.02610519
v -0.01849946 -0.01363699 0.02206138
v -0.01936299 -0.01125150 0.01476178
v -0.01537392 -0.01591614 0.01477678
v -0.00512207 -0.02242481 0.02127066
v -0.02088157 -0.00974719 0.02206214
v -0.01935673 -0.01282573 0.02446655
v -0.01936080 -0.01199820 0.01873165
v -0.01770419 -0.01365412 0.01546234
f 7 1 2
f 7 3 1
f 9 6 1
f 9 1 3
f 9 3 4
f 10 5 1
f 12 2 1
f 12 1 8
f 13 8 1
f 14 9 4
f 14 6 9
f 14 10 1
f 14 1 6
f 15 5 10
f 15 10 14
f 16 4 3
f 16 3 11
f 17 11 3
f 17 3 7
f 18 2 12
f 19 8 13
f 20 15 14
f 20 14 4
f 20 16 15
f 20 4 16
f 21 15 16
f 23 7 2
f 23 2 18
f 24 11 17
f 26 5 15
f 26 15 21
f 27 11 22
f 28 19 13
f 29 23 18
f 29 7 23
f 29 24 17
f 30 18 12
f 30 12 8
f 30 8 25
f 31 25 11
f 31 11 24
f 31 24 29
f 32 19 28
f 32 25 8
f 32 8 19
f 34 16 11
f 34 11 27
f 35 32 28
f 35 11 25
f 35 25 32
f 36 29 17
f 36 17 7
f 36 7 29
f 37 30 25
f 37 25 31
f 37 31 29
f 37 29 18
f 38 26 21
f 38 21 16
f 38 16 34
f 39 33 13
f 39 5 26
f 39 13 1
f 39 1 5
f 40 28 13
f 41 27 22
f 41 34 27
f 41 38 34
f 41 33 38
f 42 35 28
f 42 28 22
f 42 22 11
f 42 11 35
f 43 37 18
f 43 18 30
f 43 30 37
f 44 39 26
f 44 33 39
f 44 38 33
f 44 26 38
f 45 40 13
f 45 13 33
f 46 33 41
f 46 45 33
f 46 40 45
f 47 28 40
f 47 40 46
f 47 22 28
f 47 46 41
f 47 41 22

