# https://github.com/mikedh/trimesh
v -0.01267549 0.02424702 0.04973807
v -0.01243724 0.02465989 0.04906154
v -0.02346397 0.01480070 0.04819258
v -0.01478415 0.01879628 0.02531272
v -0.01988224 0.00136502 0.02520453
v -0.01701612 0.02203813 0.04795032
v -0.01366418 0.01549247 0.03406333
v -0.02434524 0.00134245 0.04923398
v -0.02277902 0.00777554 0.02531164
v -0.01249749 0.02479009 0.04794966
v -0.02108086 0.01811967 0.04814103
v -0.01564195 0.02268537 0.04961799
v -0.01336818 0.01974339 0.04724629
v -0.01335717 0.01437534 0.02518367
v -0.02686224 0.00615350 0.04890715
v -0.01265817 0.02013655 0.02527325
v -0.01941833 0.01395786 0.02530568
v -0.01394640 0.02362255 0.04965279
v -0.01700519 0.02199479 0.04891093
v -0.02257845 0.01556749 0.04961434
v -0.01311048 0.02179380 0.04933943
v -0.02123330 0.00137258 0.03916031
v -0.02593618 0.01000672 0.04855484
v -0.02371431 0.00137612 0.02528792
v -0.01310276 0.02443501 0.04793538
v -0.02095998 0.01163490 0.02530829
v -0.02105628 0.01813869 0.04891600
v -0.01307772 0.02433145 0.04897521
v -0.02690584 0.00137694 0.04972663
v -0.01947749 0.01948047 0.04957518
v -0.02286541 0.00137358 0.04731078
v -0.01364855 0.01469025 0.03010103
v -0.02678252 0.00611908 0.04810733
v -0.02344901 0.01476254 0.04891402
v -0.02585331 0.00928870 0.04961466
v -0.02505922 0.01165439 0.04820614
v -0.02180170 0.00998047 0.02531018
v -0.02029995 0.01873440 0.04952248
v -0.02354641 0.00448098 0.02530284
v -0.02703430 0.00139119 0.04794348
v -0.02589525 0.00997381 0.04884043
v -0.02673392 0.00531582 0.04960284
f 11 6 4
f 14 13 7
f 14 2 13
f 16 4 6
f 16 10 2
f 16 2 14
f 17 3 11
f 17 11 4
f 17 4 16
f 17 16 14
f 18 12 1
f 18 1 2
f 21 13 2
f 21 2 1
f 21 1 8
f 22 8 5
f 22 7 13
f 24 5 8
f 25 16 6
f 25 10 16
f 25 6 19
f 26 3 17
f 26 17 14
f 27 19 6
f 27 6 11
f 27 11 3
f 28 19 12
f 28 2 10
f 28 25 19
f 28 10 25
f 28 18 2
f 28 12 18
f 29 8 1
f 29 1 20
f 29 24 8
f 30 20 1
f 30 1 12
f 30 12 19
f 31 21 8
f 31 13 21
f 31 22 13
f 31 8 22
f 32 14 7
f 32 7 22
f 32 22 5
f 32 5 14
f 33 23 9
f 33 15 23
f 34 3 23
f 34 27 3
f 34 20 27
f 35 20 34
f 35 29 20
f 36 23 3
f 37 9 23
f 37 23 36
f 37 36 3
f 37 3 26
f 37 26 14
f 37 14 5
f 37 5 9
f 38 27 20
f 38 20 30
f 38 30 19
f 38 19 27
f 39 33 9
f 39 9 5
f 39 5 24
f 40 29 15
f 40 15 33
f 40 24 29
f 40 39 24
f 40 33 39
f 41 23 15
f 41 15 35
f 41 35 34
f 41 34 23
f 42 35 15
f 42 15 29
f 42 29 35

