# https://github.com/mikedh/trimesh
v -0.01029573 0.01866734 0.01287381
v -0.01011224 -0.01477455 0.00684237
v -0.00998493 0.01816942 0.01146277
v -0.01002159 0.01099424 0.00036630
v -0.02181163 0.00136473 0.01287467
v -0.00998976 -0.01126781 0.00130046
v -0.01765580 0.01130037 0.01083000
v -0.01706497 0.00160573 0.01205000
v -0.01531425 -0.00327467 0.00087275
v -0.01371853 0.01476906 0.00949630
v -0.01793380 0.01237555 0.01319475
v -0.01173395 -0.01486025 0.00756420
v -0.01155476 0.01803418 0.01318561
v -0.01011521 -0.00992497 0.00039208
v -0.01531038 0.00427592 0.00085080
v -0.01004914 0.01735228 0.00987987
v -0.01609338 0.01227294 0.00952990
v -0.02120509 0.00613353 0.01310057
v -0.01030935 -0.01511834 0.00714574
v -0.01578092 -0.01077577 0.00758072
v -0.01406009 0.01644710 0.01314691
v -0.01221219 0.01608047 0.01001465
v -0.01378464 -0.00715909 0.00083723
v -0.01453131 0.00506525 0.00043578
v -0.02063146 0.00130719 0.00915876
v -0.01051369 0.01076145 0.00055838
v -0.02037417 0.00841037 0.01315188
v -0.01084716 0.01276887 0.01206883
v -0.01384915 0.01624273 0.01243729
v -0.01147202 0.01625742 0.00954666
v -0.01084947 -0.00985909 0.00060044
v -0.01464206 -0.00420057 0.00056206
v -0.01821547 -0.00591505 0.00755830
v -0.01930607 0.00741131 0.00940000
v -0.02085515 0.00437231 0.01075120
v -0.01374653 0.00673556 0.00059624
v -0.01948717 0.01003614 0.01317619
v -0.01317179 -0.00731856 0.00053046
v -0.01040762 -0.01095045 0.00137080
v -0.01444570 -0.00571482 0.00085960
v -0.02114762 0.00129959 0.01056034
v -0.02096745 0.00604846 0.01237089
v -0.02007227 0.00519036 0.00939777
v -0.01132163 0.00988290 0.00059357
v -0.01924714 0.00990481 0.01244677
f 1 2 3
f 6 3 2
f 6 4 3
f 12 8 5
f 13 5 8
f 14 4 6
f 16 3 4
f 17 11 10
f 17 7 11
f 18 5 13
f 19 2 1
f 19 13 8
f 19 8 12
f 19 12 6
f 19 6 2
f 20 12 5
f 21 10 11
f 21 11 13
f 22 1 3
f 22 3 16
f 23 12 20
f 24 9 15
f 24 4 14
f 25 15 9
f 26 17 10
f 26 10 4
f 27 18 13
f 28 19 1
f 28 1 13
f 28 13 19
f 29 21 13
f 29 13 1
f 29 1 22
f 29 22 10
f 29 10 21
f 30 22 16
f 30 16 4
f 30 4 10
f 30 10 22
f 31 14 6
f 32 24 14
f 32 9 24
f 33 23 20
f 33 25 9
f 33 20 5
f 35 5 18
f 36 24 15
f 36 15 34
f 36 34 7
f 36 7 17
f 36 4 24
f 37 11 7
f 37 27 13
f 37 13 11
f 38 31 23
f 38 14 31
f 38 32 14
f 38 23 32
f 39 31 6
f 39 6 12
f 39 12 23
f 39 23 31
f 40 32 23
f 40 9 32
f 40 33 9
f 40 23 33
f 41 33 5
f 41 25 33
f 41 35 25
f 41 5 35
f 42 18 27
f 42 27 34
f 42 35 18
f 43 34 15
f 43 15 25
f 43 25 35
f 43 42 34
f 43 35 42
f 44 36 17
f 44 17 26
f 44 26 4
f 44 4 36
f 45 37 7
f 45 7 34
f 45 34 27
f 45 27 37

