# https://github.com/mikedh/trimesh
v 0.02574191 -0.00850849 0.04968247
v 0.02613268 -0.00837974 0.04831604
v 0.02192432 -0.00903543 0.04510503
v 0.00817820 -0.01917600 0.03822026
v 0.01543440 -0.02258227 0.04818796
v 0.02156321 -0.01248334 0.03857952
v 0.00704767 -0.02391117 0.04918165
v 0.02391673 -0.00867312 0.04923080
v 0.02258467 -0.01536144 0.04909232
v 0.02485226 -0.00847172 0.04534865
v 0.01671723 -0.01328991 0.03819643
v 0.01373439 -0.02089258 0.03871839
v 0.00715703 -0.02270347 0.04781792
v 0.02521288 -0.01063552 0.04964507
v 0.01393255 -0.02328706 0.04945988
v 0.02504703 -0.01128375 0.04739639
v 0.02599949 -0.00834359 0.04730930
v 0.00720200 -0.01968577 0.03834878
v 0.01946056 -0.01923630 0.04735294
v 0.02208453 -0.00905062 0.04702681
v 0.02594879 -0.00916346 0.04828518
v 0.01709589 -0.02088924 0.04954037
v 0.00910219 -0.02582274 0.04788663
v 0.00696975 -0.02611419 0.04968175
v 0.02506696 -0.01122993 0.04900989
v 0.02581578 -0.00910679 0.04732109
v 0.00697826 -0.02381614 0.03859110
v 0.01537503 -0.02250496 0.04730444
v 0.01853583 -0.01691375 0.03954192
v 0.02267776 -0.01527825 0.04730690
v 0.02336284 -0.01380678 0.04964825
v 0.01949033 -0.01934721 0.04825125
v 0.00827905 -0.02587286 0.04956163
v 0.00832727 -0.02348970 0.03866977
v 0.00694837 -0.02603338 0.04719863
v 0.00693416 -0.02429340 0.04113627
v 0.01071934 -0.02489692 0.04737734
v 0.01698836 -0.01838463 0.03957288
v 0.02025302 -0.01451402 0.03870142
v 0.02186932 -0.01608885 0.04947997
v 0.00903057 -0.02567807 0.04902384
v 0.00836035 -0.02585830 0.04730664
v 0.01068747 -0.02240728 0.03871897
v 0.02121321 -0.01309842 0.03865385
f 8 1 2
f 8 7 1
f 10 3 8
f 11 10 6
f 11 3 10
f 12 11 6
f 12 4 11
f 13 7 8
f 17 6 10
f 17 10 8
f 17 8 2
f 18 11 4
f 18 3 11
f 18 7 13
f 20 13 8
f 20 8 3
f 20 18 13
f 20 3 18
f 21 2 1
f 21 1 14
f 21 17 2
f 22 15 5
f 23 5 15
f 24 1 7
f 24 15 22
f 25 21 14
f 25 16 21
f 26 16 6
f 26 6 17
f 26 21 16
f 26 17 21
f 27 18 4
f 27 4 12
f 28 12 19
f 28 5 23
f 30 25 9
f 30 16 25
f 30 6 16
f 31 24 22
f 31 14 1
f 31 1 24
f 31 25 14
f 31 9 25
f 32 30 9
f 32 19 30
f 32 22 5
f 32 28 19
f 32 5 28
f 33 24 23
f 33 15 24
f 34 27 12
f 35 23 24
f 36 7 18
f 36 18 27
f 36 27 35
f 36 35 24
f 36 24 7
f 37 28 23
f 37 12 28
f 38 29 19
f 38 19 12
f 38 12 29
f 39 29 12
f 39 12 6
f 39 30 19
f 39 19 29
f 40 31 22
f 40 9 31
f 40 32 9
f 40 22 32
f 41 33 23
f 41 23 15
f 41 15 33
f 42 34 23
f 42 27 34
f 42 35 27
f 42 23 35
f 43 34 12
f 43 12 37
f 43 37 23
f 43 23 34
f 44 39 6
f 44 6 30
f 44 30 39

