# https://github.com/mikedh/trimesh
v 0.00027576 -0.02428604 0.04924648
v 0.00054300 -0.02670317 0.04964518
v 0.00041982 -0.02335288 0.02608743
v -0.01979874 -0.01234230 0.02609900
v -0.02290852 -0.01224888 0.04964918
v -0.01304791 -0.02250759 0.04862538
v 0.00044063 -0.01805650 0.02610801
v -0.02234716 -0.01242123 0.05028687
v -0.00585942 -0.02592626 0.04887862
v -0.00833664 -0.02191115 0.02612876
v -0.02108123 -0.01532241 0.04868254
v -0.01343056 -0.01342307 0.02606519
v 0.00036281 -0.02022060 0.03738458
v 0.00045658 -0.02345153 0.02778501
v -0.00291652 -0.02582453 0.05006685
v 0.00051522 -0.02698465 0.04797421
v -0.01305537 -0.01931815 0.02611232
v -0.00820306 -0.02506090 0.04863834
v -0.02294398 -0.01230045 0.04790643
v -0.02018882 -0.01616615 0.04948502
v -0.01709352 -0.01346373 0.04736347
v 0.00030426 -0.02336897 0.04794203
v 0.00040120 -0.01857500 0.03082918
v -0.00296734 -0.02542091 0.04999534
v -0.00502627 -0.02588716 0.04968088
v -0.00194033 -0.02665737 0.04894368
v -0.00599551 -0.02263130 0.02612642
v -0.01693889 -0.01605645 0.02617054
v -0.00993517 -0.02410878 0.04809610
v -0.02261185 -0.01285129 0.04946960
v -0.02264040 -0.01285625 0.04805082
v -0.01542126 -0.02093924 0.04869300
v -0.01361258 -0.01355709 0.03255776
v -0.01785008 -0.01342353 0.04839676
v -0.00027750 -0.02658120 0.04966656
v -0.00987985 -0.02408603 0.04952558
v -0.00192780 -0.02667187 0.04811034
v -0.01940359 -0.01286506 0.02612208
v -0.02107822 -0.01534181 0.04898191
v -0.02027273 -0.01542857 0.05016815
v -0.02200770 -0.01298558 0.05022854
v -0.01858518 -0.01761682 0.04722201
v -0.01450320 -0.01357661 0.03750300
v -0.02060850 -0.01296717 0.05000680
v -0.00832105 -0.02498850 0.04885416
v -0.01461707 -0.02084760 0.05025940
v -0.01537598 -0.02099122 0.04902031
v -0.02019796 -0.01614055 0.04805338
v -0.01306434 -0.02251473 0.04894265
v -0.01070000 -0.02330981 0.05019581
v -0.01618891 -0.02006043 0.04947565
v -0.00673021 -0.02500973 0.05005030
v -0.01138516 -0.02327330 0.04954035
f 12 7 3
f 12 4 5
f 14 7 2
f 14 3 7
f 15 2 1
f 16 14 2
f 16 3 14
f 17 10 6
f 17 4 12
f 17 12 3
f 17 3 10
f 18 10 9
f 19 5 4
f 21 5 8
f 22 1 2
f 22 2 13
f 22 13 21
f 23 13 2
f 23 2 7
f 23 21 13
f 23 7 21
f 24 15 1
f 24 1 8
f 24 8 15
f 26 16 2
f 26 25 9
f 27 10 3
f 27 3 16
f 27 9 10
f 28 4 17
f 29 18 6
f 29 6 10
f 29 10 18
f 30 5 19
f 31 19 4
f 31 4 11
f 31 30 19
f 32 28 17
f 32 17 6
f 33 7 12
f 33 12 5
f 34 22 21
f 34 21 8
f 35 2 15
f 35 15 25
f 35 26 2
f 35 25 26
f 37 26 9
f 37 16 26
f 37 27 16
f 37 9 27
f 38 28 11
f 38 11 4
f 38 4 28
f 39 20 30
f 39 11 32
f 39 31 11
f 39 30 31
f 40 30 20
f 41 8 5
f 41 5 30
f 41 40 8
f 41 30 40
f 42 28 32
f 43 21 7
f 43 7 33
f 43 33 5
f 43 5 21
f 44 34 8
f 44 8 1
f 44 1 22
f 44 22 34
f 45 18 9
f 45 9 25
f 45 25 36
f 46 15 8
f 46 8 40
f 46 40 20
f 47 39 32
f 47 20 39
f 47 32 6
f 48 42 32
f 48 32 11
f 48 11 28
f 48 28 42
f 49 45 36
f 49 6 18
f 49 18 45
f 49 47 6
f 49 46 47
f 50 15 46
f 51 47 46
f 51 46 20
f 51 20 47
f 52 50 36
f 52 36 25
f 52 25 15
f 52 15 50
f 53 49 36
f 53 36 50
f 53 50 46
f 53 46 49

