# https://github.com/mikedh/trimesh
v 0.02615919 0.00626059 0.04925066
v 0.02671965 -0.00502865 0.04945941
v 0.02112474 0.00130850 0.01483435
v 0.01563899 0.00146017 0.01260375
v 0.01408329 -0.01319319 0.03174485
v 0.01688812 0.00759852 0.02018871
v 0.02673480 0.00523766 0.04728077
v 0.01973034 -0.01286149 0.04510926
v 0.01840687 -0.00957062 0.01337431
v 0.02098685 0.00676930 0.01960524
v 0.01958541 0.00804383 0.03843149
v 0.01208765 -0.00956530 0.01246357
v 0.02688018 0.00446471 0.04929497
v 0.02269426 -0.00355124 0.02209569
v 0.02391673 -0.00867312 0.04923080
v 0.02038461 0.00130891 0.01316617
v 0.01962497 -0.01225506 0.02532462
v 0.01676093 0.00744670 0.01926054
v 0.02177779 0.00363087 0.01963008
v 0.02604880 0.00772284 0.04728580
v 0.02351524 0.00816268 0.04804744
v 0.01771842 0.00742880 0.02931591
v 0.02677593 -0.00503923 0.04731565
v 0.02267393 0.00135072 0.02207217
v 0.02081977 -0.00491047 0.01492620
v 0.02591353 -0.00832640 0.04949776
v 0.02007173 -0.00491317 0.01333355
v 0.01577759 -0.01319091 0.03582629
v 0.01243266 -0.01074782 0.01330102
v 0.02679826 0.00528120 0.04891722
v 0.02314912 0.00783518 0.03858529
v 0.02604906 0.00778828 0.04892091
v 0.02022553 0.00832457 0.03968747
v 0.02398395 0.00803752 0.04856054
v 0.02273161 0.00817895 0.04648793
v 0.01322165 -0.01315810 0.02846052
v 0.02183819 0.00134451 0.01798544
v 0.02175714 -0.00418898 0.01799650
v 0.02096279 -0.00977871 0.02286157
v 0.02599949 -0.00834359 0.04730930
v 0.02003135 -0.00739537 0.01497273
v 0.02314830 -0.01244709 0.04536398
v 0.01201813 -0.01025298 0.01277265
v 0.02644151 0.00616274 0.04912513
v 0.01871387 0.00742772 0.03566461
v 0.01295863 -0.01285458 0.02524261
v 0.01935664 -0.00965075 0.01553177
v 0.02171547 -0.00658089 0.02133626
v 0.02002946 -0.00903068 0.01722083
v 0.02013306 -0.00967748 0.01884281
v 0.02084214 -0.00821178 0.01969747
v 0.02171486 -0.00492324 0.01884654
f 13 1 2
f 16 10 3
f 16 12 4
f 18 6 10
f 18 4 12
f 18 16 4
f 18 10 16
f 19 10 7
f 19 3 10
f 20 7 10
f 22 11 6
f 22 18 12
f 22 6 18
f 23 13 2
f 23 7 13
f 24 23 14
f 24 7 23
f 24 19 7
f 25 16 3
f 26 2 1
f 26 1 15
f 26 15 8
f 27 9 12
f 27 12 16
f 27 16 25
f 29 9 17
f 30 13 7
f 30 7 20
f 31 20 10
f 31 10 6
f 31 21 20
f 32 20 21
f 32 30 20
f 32 13 30
f 33 6 11
f 33 31 6
f 33 21 31
f 34 15 1
f 34 32 21
f 34 1 32
f 34 21 8
f 34 8 15
f 35 11 5
f 35 5 28
f 35 28 8
f 35 8 21
f 35 33 11
f 35 21 33
f 36 22 12
f 36 28 5
f 36 17 28
f 37 24 14
f 37 14 3
f 37 3 19
f 37 19 24
f 38 25 3
f 38 3 14
f 40 23 2
f 40 2 26
f 40 14 23
f 41 27 25
f 41 9 27
f 42 28 17
f 42 8 28
f 42 17 39
f 42 39 40
f 42 40 26
f 42 26 8
f 43 12 9
f 43 9 29
f 43 36 12
f 44 32 1
f 44 1 13
f 44 13 32
f 45 36 5
f 45 5 11
f 45 11 22
f 45 22 36
f 46 29 17
f 46 17 36
f 46 43 29
f 46 36 43
f 47 17 9
f 47 9 41
f 48 40 39
f 48 14 40
f 49 41 25
f 49 25 38
f 49 47 41
f 50 39 17
f 50 17 47
f 50 49 39
f 50 47 49
f 51 48 39
f 51 39 49
f 52 51 49
f 52 49 38
f 52 48 51
f 52 38 14
f 52 14 48

