# https://github.com/mikedh/trimesh
v 0.02156321 -0.01248334 0.03857952
v 0.02121321 -0.01309842 0.03865385
v 0.01807969 -0.00988226 0.01311364
v 0.00626997 -0.01052852 0.01349276
v 0.00747904 -0.01945293 0.03810508
v 0.02097777 -0.01014653 0.02526321
v 0.01671723 -0.01328991 0.03819643
v 0.00736720 -0.02163688 0.02047277
v 0.00620565 -0.01016852 0.01432099
v 0.02014371 -0.01123076 0.02370421
v 0.00832727 -0.02348970 0.03866977
v 0.00604127 -0.02026615 0.01316134
v 0.02041909 -0.00986115 0.02049598
v 0.01523826 -0.01070502 0.02525454
v 0.01534816 -0.01673277 0.02211967
v 0.00697826 -0.02381614 0.03859110
v 0.01963391 -0.00983411 0.01712175
v 0.01766277 -0.01446952 0.02210178
v 0.01284869 -0.01677627 0.01417488
v 0.01462354 -0.02015351 0.03870094
v 0.00618212 -0.02248075 0.02526415
v 0.02025302 -0.01451402 0.03870142
v 0.01844915 -0.01284807 0.02052123
v 0.01140124 -0.01749740 0.01331064
v 0.01615858 -0.01439843 0.01550932
v 0.01223514 -0.01908687 0.02132558
v 0.01313977 -0.02073024 0.03620916
v 0.01696617 -0.01516131 0.02136957
v 0.00643683 -0.01727573 0.02522339
v 0.00604549 -0.02179453 0.01961282
v 0.02010963 -0.01038875 0.02053294
v 0.01612730 -0.01366421 0.01408712
v 0.00735158 -0.02083325 0.01635455
v 0.01284435 -0.01756132 0.01636803
v 0.00812880 -0.02164461 0.02286535
v 0.01698988 -0.01755149 0.03624492
v 0.00603597 -0.02101221 0.01545898
v 0.00681010 -0.02165341 0.01965073
v 0.01842293 -0.01201818 0.01804896
v 0.01680441 -0.01206383 0.01333106
v 0.01891807 -0.00986566 0.01473950
v 0.00731457 -0.01992667 0.01336658
v 0.00893829 -0.02078011 0.02049228
v 0.01448359 -0.01591904 0.01554823
v 0.01615041 -0.01588807 0.02134657
v 0.00975749 -0.01911074 0.01476546
v 0.01846306 -0.01606352 0.03623110
v 0.00680077 -0.02085639 0.01550366
v 0.01761295 -0.01205070 0.01496171
v 0.01928973 -0.01040528 0.01722111
v 0.01776883 -0.01050577 0.01327048
v 0.00809592 -0.02075571 0.01801589
v 0.01857674 -0.01050131 0.01489444
f 7 5 2
f 7 2 1
f 9 3 4
f 9 5 7
f 10 6 1
f 10 1 2
f 12 4 3
f 12 9 4
f 13 9 6
f 13 6 10
f 14 1 6
f 14 6 9
f 14 9 7
f 14 7 1
f 16 11 2
f 16 2 5
f 16 5 9
f 16 8 11
f 17 3 9
f 17 9 13
f 21 8 16
f 22 18 10
f 22 10 2
f 22 2 11
f 22 11 20
f 24 12 3
f 25 23 18
f 26 15 20
f 27 20 11
f 27 26 20
f 28 18 22
f 28 25 18
f 29 21 16
f 29 16 9
f 29 9 21
f 30 21 9
f 31 17 13
f 31 13 10
f 31 10 18
f 31 18 23
f 32 19 24
f 32 25 19
f 34 24 19
f 34 15 26
f 35 27 11
f 35 11 8
f 35 26 27
f 36 22 20
f 36 20 28
f 37 30 9
f 37 9 12
f 38 8 21
f 38 21 30
f 38 30 37
f 39 31 23
f 39 23 25
f 40 32 24
f 40 24 3
f 41 3 17
f 42 12 24
f 43 35 8
f 43 26 35
f 44 34 19
f 44 19 25
f 44 25 28
f 45 15 34
f 45 28 20
f 45 20 15
f 45 44 28
f 45 34 44
f 46 24 34
f 46 42 24
f 46 34 26
f 46 26 33
f 47 36 28
f 47 28 22
f 47 22 36
f 48 38 37
f 48 33 8
f 48 8 38
f 48 37 12
f 48 12 42
f 48 46 33
f 48 42 46
f 49 39 25
f 49 25 32
f 49 32 40
f 49 40 41
f 50 17 31
f 50 31 39
f 50 49 17
f 50 39 49
f 51 41 40
f 51 40 3
f 51 3 41
f 52 33 26
f 52 26 43
f 52 43 8
f 52 8 33
f 53 49 41
f 53 41 17
f 53 17 49

