# https://github.com/mikedh/trimesh
v 0.01635225 -0.00366727 0.01273871
v 0.01837751 -0.00926517 0.01295622
v 0.01117770 0.00136824 0.00000106
v -0.01034470 0.00137352 0.00006247
v -0.02124805 -0.00662974 0.01384008
v -0.00033961 -0.01428447 0.00086437
v -0.02213606 0.00135458 0.01386854
v 0.01571905 -0.00349556 0.00772133
v 0.01251124 -0.00904337 0.00078364
v -0.00594598 -0.01283439 0.00049970
v 0.00040256 -0.02148261 0.01378689
v 0.01126633 0.00139336 0.00919633
v -0.02033512 -0.00185025 0.00873441
v 0.00629371 -0.01619948 0.01522674
v 0.01785533 -0.00894388 0.01155532
v 0.01169959 -0.00904192 0.00027167
v -0.00670488 -0.01911851 0.00904963
v 0.01076260 -0.01780991 0.01316162
v -0.01782632 0.00158461 0.01294023
v -0.02094341 0.00128049 0.00978754
v -0.02094977 -0.00263443 0.00978862
v -0.01004464 -0.01059788 0.00063673
v 0.00747053 -0.00735115 0.01441328
v -0.02189378 -0.00343870 0.01387286
v -0.01296075 -0.01768552 0.01394931
v 0.00191711 -0.01377986 0.00057460
v -0.00505719 -0.01344582 0.00081200
v 0.00256821 -0.01914897 0.00850467
v 0.01552028 -0.01375737 0.01317761
v 0.00821489 -0.01935256 0.01320401
v -0.01892328 0.00129320 0.00764249
v -0.02189075 0.00135165 0.01312007
v -0.01999422 -0.00653427 0.00925459
v -0.01153313 -0.01675195 0.00871023
v 0.01807969 -0.00988226 0.01311364
v -0.02023974 -0.00901303 0.01389199
v -0.02086682 -0.00586349 0.01142807
v -0.00521855 -0.02109938 0.01391524
v -0.00117910 -0.01378893 0.00054498
v 0.00917604 -0.01170861 0.00084573
v -0.00738716 -0.01253475 0.00083977
v -0.00523123 -0.01919576 0.00859634
v 0.00103358 -0.01420557 0.00077718
v 0.01117981 -0.01595293 0.01002410
v 0.01384695 -0.01531723 0.01323719
v 0.00604127 -0.02026615 0.01316134
v -0.02033747 -0.00035300 0.00873928
v -0.00826100 -0.02009951 0.01395668
v -0.01766793 -0.01112757 0.00915494
v 0.01712195 -0.01144608 0.01317390
v -0.01781809 -0.01290848 0.01392252
v -0.01999635 -0.00807726 0.01149368
v -0.02170715 -0.00341646 0.01309294
v -0.02087610 -0.00649397 0.01227019
v 0.00592634 -0.01285298 0.00057235
v 0.01058088 -0.01088259 0.00087560
v 0.00506940 -0.01837854 0.00859158
v -0.00989492 -0.01757543 0.00872785
v -0.00909906 -0.01168336 0.00088576
v -0.00356652 -0.01995733 0.00988174
v 0.01445216 -0.01342899 0.01086776
v 0.01061061 -0.01756378 0.01244675
v 0.01127633 -0.01671898 0.01163296
v 0.00273937 -0.02105286 0.01314438
f 8 1 2
f 8 3 1
f 9 3 8
f 12 7 1
f 12 1 3
f 15 9 8
f 15 8 2
f 15 2 9
f 16 10 4
f 16 4 3
f 16 3 9
f 19 12 3
f 19 3 4
f 19 7 12
f 21 7 20
f 22 13 4
f 22 4 10
f 23 1 7
f 23 7 14
f 24 14 7
f 30 18 14
f 30 14 11
f 31 20 19
f 31 19 4
f 32 20 7
f 32 7 19
f 32 19 20
f 33 21 13
f 33 13 22
f 35 23 14
f 35 2 1
f 35 1 23
f 35 9 2
f 36 24 5
f 36 14 24
f 37 5 24
f 37 21 33
f 38 11 14
f 39 10 16
f 39 16 26
f 39 27 10
f 39 6 27
f 41 27 17
f 41 10 27
f 42 27 6
f 42 17 27
f 42 6 28
f 43 28 6
f 43 39 26
f 43 6 39
f 45 29 14
f 45 14 18
f 45 44 29
f 46 30 11
f 47 31 4
f 47 4 13
f 47 20 31
f 47 21 20
f 47 13 21
f 48 25 34
f 48 17 38
f 48 38 14
f 48 14 25
f 49 33 22
f 49 22 34
f 49 34 25
f 50 35 14
f 50 14 29
f 50 29 9
f 50 9 35
f 51 25 14
f 51 14 36
f 51 49 25
f 51 36 49
f 52 36 5
f 52 49 36
f 52 33 49
f 53 37 24
f 53 21 37
f 53 24 7
f 53 7 21
f 54 37 33
f 54 5 37
f 54 52 5
f 54 33 52
f 55 26 16
f 55 16 40
f 55 43 26
f 55 28 43
f 56 40 16
f 56 16 9
f 56 44 40
f 56 9 44
f 57 55 40
f 57 28 55
f 57 46 28
f 57 30 46
f 57 44 30
f 57 40 44
f 58 41 17
f 58 34 41
f 58 48 34
f 58 17 48
f 59 41 34
f 59 34 22
f 59 22 10
f 59 10 41
f 60 42 28
f 60 28 11
f 60 11 38
f 60 38 17
f 60 17 42
f 61 44 9
f 61 9 29
f 61 29 44
f 62 18 30
f 62 30 44
f 63 45 18
f 63 44 45
f 63 62 44
f 63 18 62
f 64 46 11
f 64 11 28
f 64 28 46

