# https://github.com/mikedh/trimesh
v 0.01223947 0.01634826 0.01326148
v 0.01965842 -0.00587799 0.01313245
v 0.01964574 0.00536419 0.01315211
v 0.01080782 0.00926666 0.00025376
v 0.01104065 -0.00928413 0.00728649
v 0.01538717 -0.00410224 0.00035180
v 0.01723431 0.01088746 0.01313496
v 0.01546820 0.01325706 0.01323084
v 0.01693432 -0.00988693 0.01243371
v 0.01073322 0.01654793 0.01148190
v 0.01932927 -0.00335632 0.01079542
v 0.01451590 0.00509832 0.00079229
v 0.01104277 -0.00923981 0.00008339
v 0.01882647 0.00767937 0.01317770
v 0.01111703 0.00971091 0.00087623
v 0.01883748 -0.00835717 0.01312686
v 0.01129102 -0.00366397 0.00992516
v 0.01070375 0.00997695 0.00083166
v 0.01925972 0.00202355 0.01082003
v 0.01447242 0.00440259 0.00045181
v 0.01288799 0.01448346 0.01089986
v 0.01200481 0.00819658 0.00054210
v 0.01364282 0.00644340 0.00085056
v 0.01837751 -0.00926517 0.01295622
v 0.01146981 0.00850919 0.01200065
v 0.01068374 0.01570135 0.00989335
v 0.01525655 0.00194948 0.00047740
v 0.01433055 0.01299190 0.01093604
v 0.01123367 0.00906558 0.00043793
v 0.01373642 0.00579198 0.00049735
v 0.01604851 0.01140028 0.01170200
v 0.01695242 0.01077730 0.01246065
v 0.01297426 -0.00861774 0.00077473
v 0.01519768 -0.00488811 0.00058665
v 0.01111481 0.01702101 0.01287739
v 0.01388158 -0.00740276 0.00053300
v 0.01233950 -0.00880526 0.00046814
v 0.01367918 -0.00796943 0.00078047
f 8 1 2
f 11 3 2
f 11 2 6
f 13 4 6
f 13 9 5
f 14 8 2
f 14 2 3
f 14 7 8
f 14 12 7
f 14 3 12
f 16 2 1
f 16 6 2
f 17 5 9
f 17 10 5
f 18 13 5
f 18 4 13
f 18 15 4
f 19 11 6
f 19 3 11
f 20 6 4
f 21 1 8
f 23 22 15
f 24 16 1
f 24 1 9
f 25 17 9
f 26 18 5
f 26 5 10
f 26 15 18
f 26 21 15
f 26 10 1
f 26 1 21
f 27 12 3
f 27 3 19
f 27 20 12
f 27 19 6
f 27 6 20
f 28 21 8
f 28 8 15
f 28 15 21
f 29 4 15
f 29 15 22
f 30 20 4
f 30 29 22
f 30 4 29
f 30 12 20
f 30 23 12
f 30 22 23
f 31 23 15
f 31 15 8
f 32 7 12
f 32 12 23
f 32 23 31
f 32 31 8
f 32 8 7
f 33 24 9
f 34 6 16
f 34 16 24
f 35 25 9
f 35 9 1
f 35 1 10
f 35 10 17
f 35 17 25
f 36 13 6
f 36 6 34
f 36 34 24
f 37 13 36
f 37 33 9
f 37 9 13
f 38 36 24
f 38 24 33
f 38 37 36
f 38 33 37

