# https://github.com/mikedh/trimesh
v 0.00997187 0.01801590 0.01316967
v 0.01166334 0.00429538 0.01054493
v 0.01056630 0.00970772 0.00045195
v -0.00985360 0.01145732 0.00052730
v -0.01063602 0.01332826 0.01240174
v -0.01034470 0.00137352 0.00006247
v 0.00193445 0.01383598 0.00044158
v 0.01077659 0.01742499 0.01311519
v -0.00515187 0.02052350 0.01316666
v 0.01117770 0.00136824 0.00000106
v -0.01038072 0.00131153 0.00853765
v 0.00731988 0.01212272 0.00048113
v -0.00588601 0.01299874 0.00040012
v 0.01146981 0.00850919 0.01200065
v -0.01004822 0.01893503 0.01314025
v 0.00361954 0.02050524 0.01316932
v 0.01126633 0.00139336 0.00919633
v -0.00774222 0.00115213 0.00874212
v 0.00511689 0.01293813 0.00046314
v 0.00966895 0.01624171 0.00952282
v -0.00370069 0.01943570 0.01006731
v -0.00122793 0.01377431 0.00041462
v 0.00667414 0.01974940 0.01320631
v -0.00992073 0.01720102 0.00955940
v 0.01039918 0.01694656 0.01173037
v 0.00107609 0.01951061 0.01016968
v -0.00507589 0.01361235 0.00078427
v 0.00832046 0.01705509 0.00957588
v 0.00571937 0.01853334 0.01001479
v -0.00834800 0.01848833 0.01082236
v 0.00978865 0.01775944 0.01245459
v -0.00038986 0.02022583 0.01161908
v -0.00833957 0.01208603 0.00048108
v 0.00575168 0.01944689 0.01177970
v -0.00992198 0.01866148 0.01243491
v -0.00504875 0.02023966 0.01244687
v -0.00517920 0.01879220 0.00967402
v 0.00112407 0.02019313 0.01166190
v 0.00356659 0.02020070 0.01249053
f 6 5 4
f 11 5 6
f 12 3 10
f 13 6 4
f 13 10 6
f 14 3 8
f 14 10 3
f 14 2 10
f 15 8 1
f 15 14 8
f 15 5 14
f 15 4 5
f 17 10 2
f 18 11 6
f 18 6 10
f 18 10 17
f 18 17 2
f 18 2 14
f 18 14 5
f 18 5 11
f 19 12 10
f 19 10 7
f 20 3 12
f 22 7 10
f 22 10 13
f 22 21 7
f 23 15 1
f 23 9 15
f 23 16 9
f 24 4 15
f 25 8 3
f 25 3 20
f 25 1 8
f 26 7 21
f 27 22 13
f 27 21 22
f 28 20 12
f 29 19 7
f 29 7 26
f 29 28 12
f 29 12 19
f 30 15 9
f 30 27 24
f 31 25 20
f 31 1 25
f 31 20 28
f 31 28 23
f 31 23 1
f 32 26 21
f 32 21 9
f 32 9 16
f 33 27 13
f 33 13 4
f 33 4 24
f 33 24 27
f 34 29 26
f 34 16 23
f 34 23 28
f 34 28 29
f 35 30 24
f 35 24 15
f 35 15 30
f 36 30 9
f 36 9 21
f 36 21 30
f 37 30 21
f 37 21 27
f 37 27 30
f 38 32 16
f 38 26 32
f 39 34 26
f 39 16 34
f 39 38 16
f 39 26 38

