# https://github.com/mikedh/trimesh
v 0.01973478 0.01825537 0.04898056
v 0.02593355 0.00795383 0.04909409
v 0.01859549 0.01309960 0.02531625
v 0.00448896 0.02250125 0.02527877
v 0.00460928 0.02444956 0.04867335
v 0.01741917 0.00732578 0.02522660
v 0.01070500 0.02027733 0.02532501
v 0.02273198 0.01489909 0.04727337
v 0.00446137 0.02649007 0.04936326
v 0.02160666 0.00704453 0.02527419
v 0.00576318 0.01793087 0.02511907
v 0.01871387 0.00742772 0.03566461
v 0.01538999 0.01698043 0.02617066
v 0.02265328 0.01490305 0.04888380
v 0.00456625 0.02570700 0.04921728
v 0.01315846 0.02354584 0.04728923
v 0.00472862 0.01838416 0.02517640
v 0.02529519 0.01012385 0.04733375
v 0.01300543 0.01872961 0.02532490
v 0.00684583 0.02208684 0.02530642
v 0.02398395 0.00803752 0.04856054
v 0.02284025 0.00693026 0.03532916
v 0.01608920 0.01631363 0.02617507
v 0.01940608 0.01876177 0.04834418
v 0.01312988 0.02353314 0.04902828
v 0.00444413 0.02607066 0.04653050
v 0.00481768 0.01984441 0.03322742
v 0.01800413 0.00755459 0.03259596
v 0.02528001 0.01011676 0.04893551
v 0.02103386 0.00840078 0.02532904
v 0.00904703 0.02108252 0.02532216
v 0.01962936 0.00748535 0.03808107
v 0.02542322 0.00779390 0.04650984
v 0.02338323 0.00709763 0.03854034
v 0.01940706 0.01873312 0.04730964
v 0.00756519 0.02618844 0.04903562
v 0.00784132 0.02562144 0.04924001
v 0.01862730 0.01958766 0.04837233
v 0.00494010 0.01898429 0.03006567
v 0.00464790 0.02375608 0.04725768
v 0.00984006 0.02512145 0.04728011
v 0.01858774 0.01956638 0.04729169
v 0.00990448 0.02515555 0.04889487
v 0.00762117 0.02610016 0.04732931
v 0.00775832 0.02588306 0.04919396
v 0.01543766 0.02193911 0.04892011
v 0.00467927 0.02308076 0.04495464
v 0.02297368 0.00824078 0.04705471
v 0.01544926 0.02195802 0.04730063
v 0.00599079 0.02633054 0.04922357
f 9 2 1
f 11 10 6
f 11 3 10
f 14 1 2
f 15 9 5
f 15 2 9
f 17 4 11
f 17 11 6
f 18 2 10
f 18 3 8
f 19 11 7
f 19 3 11
f 19 7 16
f 20 11 4
f 20 7 11
f 21 15 5
f 21 2 15
f 22 12 6
f 22 6 10
f 23 8 3
f 23 19 13
f 23 3 19
f 24 14 8
f 24 1 14
f 26 4 17
f 26 17 5
f 26 5 9
f 28 17 6
f 28 6 12
f 29 14 2
f 29 2 18
f 29 18 8
f 29 8 14
f 30 18 10
f 30 10 3
f 30 3 18
f 31 16 7
f 31 7 20
f 32 12 22
f 33 22 10
f 33 10 2
f 33 2 22
f 34 22 2
f 34 2 21
f 34 32 22
f 34 21 32
f 35 24 8
f 35 8 23
f 37 9 1
f 37 1 25
f 38 24 35
f 38 1 24
f 39 27 17
f 39 12 27
f 39 28 12
f 39 17 28
f 40 5 17
f 40 12 32
f 40 21 5
f 41 31 20
f 41 16 31
f 42 35 23
f 42 23 13
f 42 13 19
f 42 38 35
f 43 36 25
f 43 25 16
f 43 16 41
f 44 26 9
f 44 9 36
f 44 4 26
f 44 20 4
f 44 41 20
f 44 43 41
f 44 36 43
f 45 9 37
f 45 37 25
f 45 25 36
f 46 16 25
f 46 25 1
f 46 1 38
f 47 27 12
f 47 12 40
f 47 40 17
f 47 17 27
f 48 40 32
f 48 32 21
f 48 21 40
f 49 42 19
f 49 19 16
f 49 38 42
f 49 46 38
f 49 16 46
f 50 45 36
f 50 36 9
f 50 9 45

