# https://github.com/mikedh/trimesh
v 0.01641823 0.01582659 0.02529665
v 0.02216819 0.00132735 0.01956966
v 0.01690035 0.01147694 0.01331821
v 0.00442586 0.02040923 0.01322041
v 0.00472862 0.01838416 0.02517640
v 0.01563899 0.00146017 0.01260375
v 0.01289023 0.01693585 0.01556894
v 0.02091540 0.00835495 0.02368284
v 0.00684583 0.02208684 0.02530642
v 0.02038461 0.00130891 0.01316617
v 0.00489404 0.01430784 0.01233336
v 0.01856616 0.00140775 0.01939126
v 0.01522627 0.01552946 0.01725861
v 0.01044051 0.01782859 0.01336222
v 0.01741917 0.00732578 0.02522660
v 0.00448896 0.02250125 0.02527877
v 0.01137519 0.01949247 0.02128970
v 0.01932240 0.00672926 0.01333775
v 0.01522404 0.01476058 0.01486663
v 0.01926845 0.01159935 0.02212457
v 0.01449858 0.01459003 0.01336825
v 0.02160666 0.00704453 0.02527419
v 0.00524451 0.02114099 0.01548429
v 0.00443032 0.02204156 0.02041229
v 0.02103386 0.00840078 0.02532904
v 0.01070500 0.02027733 0.02532501
v 0.01125502 0.01861472 0.01720989
v 0.01455124 0.01692079 0.02054150
v 0.02089744 0.00607223 0.01798053
v 0.01462908 0.01539932 0.01492309
v 0.01771923 0.01388743 0.02210246
v 0.01767778 0.01144375 0.01474793
v 0.00660369 0.02112174 0.01717005
v 0.00586623 0.02023717 0.01335406
v 0.00441726 0.02127240 0.01547517
v 0.00679235 0.02195410 0.02283095
v 0.01859549 0.01309960 0.02531625
v 0.01300543 0.01872961 0.02532490
v 0.00904703 0.02108252 0.02532216
v 0.00898006 0.01935641 0.01486504
v 0.01372813 0.01775207 0.02136143
v 0.02094620 0.00283190 0.01491145
v 0.02195723 0.00285529 0.01962356
v 0.02085947 0.00751461 0.02049937
v 0.01209593 0.01699547 0.01419403
v 0.01605371 0.01551941 0.02050400
v 0.01681779 0.01222026 0.01418810
v 0.01851704 0.01234278 0.02054888
v 0.02006425 0.00670792 0.01482888
v 0.00734594 0.02025018 0.01485802
v 0.00523774 0.02192291 0.02041454
v 0.00606897 0.02191294 0.02124174
v 0.00816224 0.02098995 0.02047630
v 0.01067490 0.02022888 0.02450326
v 0.01851845 0.01304340 0.02366569
v 0.01294513 0.01864105 0.02366972
v 0.01208224 0.01859525 0.01969400
v 0.02112474 0.00130850 0.01483435
v 0.02007515 0.00365667 0.01331108
v 0.02179794 0.00282829 0.01883267
v 0.01370246 0.01527873 0.01340989
v 0.02004227 0.00749986 0.01636612
v 0.00982875 0.02016495 0.02049029
v 0.00901881 0.02103792 0.02449860
f 11 3 6
f 11 6 5
f 11 5 4
f 12 5 6
f 12 10 2
f 12 6 10
f 14 11 4
f 15 5 12
f 16 5 15
f 18 10 6
f 18 6 3
f 21 3 11
f 21 11 14
f 21 19 3
f 22 15 12
f 22 12 2
f 24 4 5
f 24 5 16
f 25 16 15
f 25 9 16
f 25 15 22
f 25 22 8
f 25 8 20
f 28 7 27
f 30 13 19
f 30 28 13
f 30 7 28
f 30 19 21
f 32 18 3
f 34 14 4
f 35 4 24
f 35 34 4
f 35 23 34
f 36 16 9
f 37 25 20
f 38 37 1
f 38 26 25
f 38 25 37
f 39 9 25
f 39 25 26
f 39 36 9
f 40 27 7
f 40 17 27
f 41 28 27
f 41 1 28
f 43 22 2
f 44 8 22
f 44 43 29
f 44 22 43
f 44 20 8
f 45 7 30
f 45 40 7
f 45 14 40
f 46 28 1
f 46 1 31
f 46 13 28
f 46 31 19
f 46 19 13
f 47 32 3
f 47 3 19
f 47 19 32
f 48 31 20
f 48 20 32
f 48 32 19
f 48 19 31
f 49 18 32
f 49 29 42
f 49 44 29
f 50 34 23
f 50 23 33
f 50 40 14
f 50 14 34
f 51 35 24
f 51 23 35
f 52 24 16
f 52 16 36
f 52 51 24
f 52 36 33
f 52 33 23
f 52 23 51
f 53 33 36
f 54 26 17
f 55 31 1
f 55 1 37
f 55 37 20
f 55 20 31
f 56 17 26
f 56 26 38
f 56 41 17
f 56 38 1
f 56 1 41
f 57 41 27
f 57 27 17
f 57 17 41
f 58 42 2
f 58 2 10
f 58 10 42
f 59 42 10
f 59 10 18
f 59 49 42
f 59 18 49
f 60 42 29
f 60 29 43
f 60 43 2
f 60 2 42
f 61 45 30
f 61 30 21
f 61 21 14
f 61 14 45
f 62 49 32
f 62 32 20
f 62 20 44
f 62 44 49
f 63 50 33
f 63 17 40
f 63 40 50
f 63 33 53
f 63 54 17
f 63 53 36
f 63 36 54
f 64 39 26
f 64 26 54
f 64 54 36
f 64 36 39

