# https://github.com/mikedh/trimesh
v 0.05508184 0.07021315 0.22846618
v 0.05314262 0.07221615 0.22820396
v -0.04164570 0.08685610 0.22846081
v -0.02525053 0.10048224 0.13901892
v 0.03585724 0.09247512 0.15046033
v -0.02539677 0.08831864 0.13770804
v 0.01232712 0.09473387 0.22834176
v 0.05380460 0.08406709 0.17732168
v 0.05523985 0.07034259 0.17672917
v -0.04139331 0.08927971 0.14905227
v 0.00139049 0.10004491 0.13916221
v 0.03850473 0.08324929 0.22795686
v -0.04021169 0.09615738 0.22924461
v 0.05257287 0.08291730 0.20723298
v 0.03717038 0.07986624 0.14970802
v 0.00101373 0.10600715 0.20768103
v -0.03996923 0.10229103 0.21785179
v 0.05275192 0.07916366 0.21792299
v 0.00196848 0.08749116 0.13808503
v 0.01278117 0.10240019 0.16164777
v 0.03432303 0.09456092 0.21111760
v -0.04167432 0.08783810 0.20167731
v -0.03938186 0.10625676 0.17430085
v -0.00293796 0.10223417 0.22164971
v 0.05284940 0.07530841 0.22452337
v 0.02320789 0.09781232 0.15102502
v 0.03080416 0.09015015 0.22436662
v 0.04879568 0.08696874 0.20346351
v 0.01616918 0.10213376 0.21111051
v 0.02727591 0.09824510 0.16554305
v -0.04025361 0.10031981 0.15029989
v -0.02840620 0.10611452 0.21140678
v -0.01021016 0.10641879 0.16588536
v -0.03207926 0.09846475 0.22860367
v 0.04859766 0.08280207 0.21772472
v 0.04945071 0.07562543 0.22783995
v 0.00144301 0.10237569 0.14663918
v 0.02363628 0.09084408 0.22765709
v 0.01635613 0.10213447 0.17343551
v -0.00274371 0.10630209 0.21144839
v 0.01577495 0.09812939 0.22143470
v 0.04961296 0.08720888 0.17730851
v 0.03487648 0.09387656 0.15483874
v 0.02738265 0.09818253 0.20754105
v -0.03209103 0.10219501 0.15071198
v -0.03914069 0.10621087 0.18338387
v 0.00128208 0.10626561 0.19298825
v -0.02509415 0.10248161 0.14688111
v -0.03990542 0.09860963 0.22529306
v -0.00286897 0.09839649 0.22816761
v -0.03217413 0.10220224 0.22153020
v 0.03434404 0.09020829 0.22140568
v 0.04587703 0.08669699 0.21407922
v -0.00254141 0.10619648 0.17362829
v 0.03085746 0.09379717 0.21744817
v 0.01249691 0.10209019 0.21428913
v 0.03119462 0.09451255 0.15086515
v -0.03202367 0.10587441 0.20750317
v -0.03195669 0.10585458 0.16720229
v 0.00863413 0.09805963 0.22469219
f 9 1 3
f 9 8 1
f 10 4 6
f 10 9 3
f 10 6 9
f 11 6 4
f 12 7 1
f 12 1 2
f 13 3 1
f 13 1 7
f 14 1 8
f 15 9 6
f 15 5 8
f 15 8 9
f 17 3 13
f 18 1 14
f 19 11 5
f 19 5 15
f 19 15 6
f 19 6 11
f 22 10 3
f 22 3 17
f 25 2 1
f 25 1 18
f 26 5 11
f 28 14 8
f 30 26 20
f 31 22 17
f 31 10 22
f 31 17 23
f 31 4 10
f 35 25 18
f 36 12 2
f 36 2 25
f 36 35 12
f 36 25 35
f 37 26 11
f 37 20 26
f 37 11 4
f 38 7 12
f 38 12 27
f 39 30 20
f 40 29 16
f 40 33 23
f 41 38 27
f 41 7 38
f 42 8 5
f 42 28 8
f 42 21 28
f 43 26 30
f 43 42 5
f 43 30 42
f 44 29 21
f 44 42 30
f 44 21 42
f 44 39 29
f 44 30 39
f 45 31 23
f 45 4 31
f 46 23 17
f 46 40 23
f 46 32 40
f 47 39 20
f 47 16 29
f 47 29 39
f 47 40 16
f 47 33 40
f 48 45 23
f 48 4 45
f 48 37 4
f 48 33 37
f 49 17 13
f 49 13 34
f 50 34 13
f 50 13 7
f 50 24 34
f 51 32 17
f 51 49 34
f 51 17 49
f 51 34 24
f 51 40 32
f 51 24 40
f 52 27 12
f 52 12 35
f 52 41 27
f 53 28 21
f 53 52 35
f 53 21 52
f 53 14 28
f 53 35 18
f 53 18 14
f 54 37 33
f 54 20 37
f 54 47 20
f 54 33 47
f 55 21 29
f 55 29 41
f 55 52 21
f 55 41 52
f 56 40 24
f 56 24 41
f 56 41 29
f 56 29 40
f 57 43 5
f 57 5 26
f 57 26 43
f 58 46 17
f 58 17 32
f 58 32 46
f 59 48 23
f 59 23 33
f 59 33 48
f 60 41 24
f 60 24 50
f 60 50 7
f 60 7 41

