# https://github.com/mikedh/trimesh
v -0.05420346 0.03912443 0.05842100
v 0.00206826 -0.03737000 0.02875790
v 0.00199511 0.03688122 0.04460921
v -0.03515186 0.02239173 0.00583229
v -0.08767030 -0.04243708 0.06151734
v 0.00112748 0.01489646 0.00233751
v -0.03551812 0.03237847 0.01764427
v -0.08663477 0.02279006 0.05134188
v -0.04325055 -0.03525892 0.00703390
v -0.04474898 -0.07605949 0.06031945
v 0.00305492 0.03123944 0.04123488
v 0.00028677 0.03297499 0.01774517
v -0.08408681 0.03399876 0.06195928
v 0.00055089 -0.03523778 0.00402361
v -0.00966653 -0.03569108 0.00252026
v -0.05642602 0.00381102 0.00963473
v -0.06823185 -0.05633979 0.04449205
v -0.01027832 0.02487882 0.00579422
v -0.09548120 0.00888195 0.06123144
v -0.06871939 0.03410317 0.03698870
v -0.05474994 -0.07256209 0.06119111
v -0.05137542 -0.02118445 0.00657347
v 0.00040477 -0.03173889 0.00222059
v -0.04335990 -0.07190087 0.04637725
v -0.00043194 0.02136415 0.00592030
v -0.02783971 0.02490573 0.00569053
v -0.09187660 0.01979596 0.06134072
v -0.09566690 -0.02088308 0.06122161
v -0.08697275 0.00100065 0.04048580
v -0.05768266 0.03389731 0.02981142
v -0.07538878 0.03356094 0.04398305
v -0.05259109 0.01107327 0.00961506
v -0.07256627 -0.06058623 0.06148407
v -0.04696804 -0.03156313 0.00698540
v -0.00533678 0.01288686 0.00216993
v -0.05056409 0.00483770 0.00655107
v -0.08306137 -0.03098205 0.04005462
v -0.00294591 -0.03476564 0.00242305
v -0.04350825 -0.06472608 0.03595342
v -0.06110461 -0.06371921 0.04677893
v -0.05380269 -0.07117053 0.05461720
v -0.00177746 0.01622026 0.00266717
v -0.02457607 0.02876647 0.00927752
v -0.08643061 0.02639011 0.05435913
v -0.09462861 0.00883898 0.05748890
v -0.05621704 -0.02377465 0.00960491
v -0.08302178 0.01545049 0.04054371
v -0.04230094 0.02126723 0.00937957
v -0.06195422 -0.06848543 0.06133709
v -0.07950362 -0.04922327 0.05041592
v -0.06461482 -0.05261040 0.03679152
v -0.04655618 0.01207933 0.00640099
v -0.08640160 -0.03859671 0.05063387
v -0.09457596 -0.01669543 0.05392451
v -0.05391794 -0.06378900 0.04074595
v -0.04679257 -0.07082578 0.04669306
v -0.01083732 0.02876081 0.00967843
v -0.09095678 0.01938432 0.05779925
v -0.08263853 0.02633488 0.04743115
v -0.08277765 0.02975649 0.05141343
v -0.08689422 -0.01674211 0.03991568
v -0.08349058 0.00474942 0.03713524
v -0.07249764 0.02286039 0.03360683
v -0.09026972 0.00818070 0.04744578
f 10 2 3
f 10 3 1
f 11 3 2
f 11 2 6
f 12 7 1
f 12 1 3
f 12 11 6
f 12 3 11
f 13 10 1
f 14 6 2
f 14 2 10
f 20 13 1
f 21 10 13
f 23 6 14
f 24 14 10
f 25 18 12
f 25 12 6
f 25 6 18
f 26 4 7
f 27 19 13
f 28 5 13
f 28 13 19
f 30 20 1
f 30 1 7
f 30 7 4
f 31 13 20
f 33 13 5
f 34 22 15
f 34 15 9
f 35 15 22
f 35 23 15
f 35 6 23
f 35 4 26
f 36 22 16
f 36 35 22
f 38 23 14
f 38 15 23
f 38 14 24
f 39 9 15
f 39 38 24
f 39 15 38
f 41 24 10
f 41 10 21
f 42 26 18
f 42 18 6
f 42 35 26
f 42 6 35
f 43 26 7
f 43 7 12
f 43 18 26
f 44 27 13
f 45 19 27
f 46 16 22
f 46 22 34
f 48 30 4
f 48 20 30
f 48 32 20
f 49 21 13
f 49 13 33
f 49 41 21
f 49 33 40
f 49 40 41
f 50 33 5
f 50 40 33
f 50 17 40
f 51 34 9
f 51 46 34
f 51 37 46
f 51 50 37
f 51 17 50
f 51 40 17
f 52 4 35
f 52 35 36
f 52 48 4
f 52 32 48
f 52 36 16
f 52 16 32
f 53 5 28
f 53 50 5
f 53 37 50
f 54 28 19
f 54 19 45
f 54 53 28
f 54 37 53
f 55 40 51
f 55 51 9
f 55 9 39
f 56 41 40
f 56 24 41
f 56 40 55
f 56 55 39
f 56 39 24
f 57 43 12
f 57 12 18
f 57 18 43
f 58 44 8
f 58 27 44
f 58 45 27
f 59 8 44
f 59 47 8
f 59 31 47
f 60 44 13
f 60 13 31
f 60 59 44
f 60 31 59
f 61 29 16
f 61 16 46
f 61 46 37
f 61 54 29
f 61 37 54
f 62 47 16
f 62 16 29
f 63 32 16
f 63 16 47
f 63 20 32
f 63 47 31
f 63 31 20
f 64 8 47
f 64 58 8
f 64 45 58
f 64 54 45
f 64 29 54
f 64 62 29
f 64 47 62

