# https://github.com/mikedh/trimesh
v -0.10942859 0.03007004 0.15294635
v -0.07634648 -0.04920152 0.11836951
v -0.07827678 -0.05090395 0.12284117
v -0.08170816 0.02998600 0.11729010
v -0.11438593 -0.02823667 0.12963907
v -0.11353297 0.02745372 0.13346679
v -0.10691421 -0.03186782 0.12234977
v -0.11743461 -0.04834062 0.15394195
v -0.08314659 0.03066680 0.11903785
v -0.07785993 -0.04652673 0.11743216
v -0.10702896 0.01978118 0.12258616
v -0.10245101 -0.05086895 0.15253272
v -0.12630577 0.00523264 0.15442245
v -0.10996116 -0.04689192 0.13363737
v -0.12128498 0.02856269 0.15402615
v -0.10359199 0.02760760 0.12222003
v -0.10014824 -0.04651144 0.12183305
v -0.11812016 0.00909788 0.13364297
v -0.12291432 0.02396054 0.15455963
v -0.12142338 -0.03132596 0.14429862
v -0.10633987 -0.04329095 0.12653527
v -0.11025269 0.01977962 0.12619800
v -0.11926968 -0.04368205 0.15431422
v -0.12158234 0.01952469 0.14439472
v -0.11370507 -0.04679639 0.14036172
v -0.11789194 -0.03159713 0.13659832
v -0.12589532 -0.01326533 0.15068124
v -0.11055519 -0.03166187 0.12626870
v -0.10274342 -0.04319624 0.12243836
v -0.11420918 0.01622309 0.12992747
v -0.12236842 -0.03559356 0.15447080
v -0.12167653 0.00914951 0.14045614
v -0.12558322 0.00520686 0.15076705
v -0.11776876 0.01968504 0.13665242
v -0.12128713 0.02343852 0.14722383
v -0.11795053 -0.04336140 0.14722251
v -0.11373839 -0.04285187 0.13711907
v -0.12150824 -0.02104018 0.14037671
v -0.12657381 -0.01335437 0.15438211
v -0.11735420 0.02734200 0.14072276
v -0.12175984 -0.03536021 0.15067916
v -0.11782321 -0.02124413 0.13346979
f 1 3 4
f 3 2 4
f 9 1 4
f 10 7 4
f 10 4 2
f 11 4 7
f 11 7 5
f 12 3 1
f 14 12 8
f 14 3 12
f 15 9 6
f 15 1 9
f 16 9 4
f 16 6 9
f 16 4 11
f 17 10 2
f 17 7 10
f 17 2 3
f 17 3 14
f 18 11 5
f 19 12 1
f 19 1 15
f 21 14 5
f 21 17 14
f 22 16 11
f 22 6 16
f 23 8 12
f 23 12 19
f 25 14 8
f 26 5 14
f 26 25 20
f 28 21 5
f 28 5 7
f 29 7 17
f 29 17 21
f 29 28 7
f 29 21 28
f 30 6 22
f 30 22 11
f 30 11 18
f 31 23 19
f 31 8 23
f 33 13 19
f 33 19 24
f 33 24 32
f 33 32 27
f 33 27 13
f 34 32 24
f 34 18 32
f 34 30 18
f 34 6 30
f 35 24 19
f 35 19 15
f 36 25 8
f 36 20 25
f 37 26 14
f 37 14 25
f 37 25 26
f 38 32 18
f 38 27 32
f 38 26 20
f 38 20 27
f 39 13 27
f 39 27 20
f 39 31 19
f 39 19 13
f 40 34 24
f 40 6 34
f 40 24 35
f 40 35 15
f 40 15 6
f 41 20 36
f 41 39 20
f 41 31 39
f 41 36 8
f 41 8 31
f 42 38 18
f 42 18 5
f 42 5 26
f 42 26 38

