# https://github.com/mikedh/trimesh
v 0.03921676 0.07371104 0.12095671
v 0.07328139 0.00144111 0.12034376
v 0.04346095 0.01919577 0.03939892
v 0.00112748 0.01489646 0.00233751
v 0.00295379 -0.03893819 0.02985460
v 0.02276065 0.03429878 0.02972387
v 0.06180548 0.04710045 0.12100359
v 0.00283737 0.06778980 0.11553867
v 0.04399255 -0.03510441 0.04349098
v 0.04071897 0.04462768 0.06669998
v 0.02977594 0.02678349 0.03007212
v 0.01673761 0.08509742 0.12086227
v 0.05954581 0.00898377 0.06923571
v 0.05913461 0.00205090 0.11703190
v 0.00040477 -0.03173889 0.00222059
v 0.03695182 -0.03918088 0.05838495
v 0.05585688 0.02292386 0.06889373
v 0.05094193 0.06285251 0.12033324
v 0.01095772 0.00132301 0.00283419
v 0.00638982 0.01066654 0.00291169
v 0.03705251 0.03341284 0.04317109
v 0.07291906 0.00523027 0.12061514
v 0.00185428 0.08696794 0.11906501
v 0.03742652 0.04527214 0.06254969
v 0.04778684 -0.01705401 0.03942113
v 0.00055089 -0.03523778 0.00402361
v 0.05261170 -0.03544017 0.06176928
v 0.04428284 0.04061059 0.06651708
v 0.05167120 0.01210155 0.05112799
v 0.05428781 0.05869805 0.12084589
v 0.03701262 0.01220737 0.02987357
v 0.01086148 -0.01658601 0.00259037
v 0.00298028 0.01405945 0.00265822
v 0.03996627 0.02601166 0.03980382
v 0.06920775 0.02433356 0.12043274
v 0.00142154 0.08508896 0.11702918
v 0.00098528 0.03479699 0.01972201
v 0.03634850 -0.03492597 0.03326983
v 0.04771194 -0.02720874 0.04378630
v 0.06023069 -0.01725163 0.06928257
v 0.05565064 0.00841003 0.05819041
v 0.04776965 0.01965153 0.04776973
v 0.04765041 0.00514722 0.03930527
v 0.00369975 -0.03093067 0.00321561
v 0.04392630 0.02991563 0.05108396
v 0.00801863 0.03332622 0.02145275
v 0.03750661 -0.02432234 0.02978605
v 0.05117864 -0.03169619 0.05455625
v 0.04437313 -0.02397307 0.03682776
v 0.05954878 -0.00246899 0.06587755
v 0.05566063 -0.02093284 0.05827603
v 0.05561666 0.02006221 0.06623585
v 0.04040566 0.01208553 0.03328212
v 0.00299423 -0.03428520 0.00512762
v 0.00891915 -0.02718695 0.00527571
v 0.04741664 0.02999261 0.05872721
v 0.05123936 0.02291739 0.05836450
v 0.05161651 -0.03499984 0.05875570
v 0.04381380 -0.03129768 0.04043797
v 0.05948911 -0.01327341 0.06593488
v 0.05170937 0.00165159 0.04721451
v 0.05147665 -0.01708374 0.04703982
v 0.05137016 0.02617261 0.06261321
f 12 7 1
f 14 8 5
f 16 14 5
f 16 2 14
f 18 10 1
f 20 6 11
f 20 19 4
f 21 11 6
f 22 12 2
f 22 7 12
f 22 2 13
f 23 2 12
f 23 14 2
f 23 8 14
f 24 6 12
f 24 21 6
f 24 10 21
f 24 12 1
f 24 1 10
f 26 16 5
f 27 16 9
f 27 2 16
f 28 7 17
f 28 10 18
f 28 21 10
f 30 18 1
f 30 1 7
f 30 28 18
f 30 7 28
f 31 11 3
f 31 20 11
f 31 19 20
f 32 15 4
f 32 4 19
f 33 20 4
f 33 4 6
f 33 6 20
f 34 3 11
f 34 11 21
f 35 17 7
f 35 7 22
f 35 22 13
f 35 13 17
f 36 15 26
f 36 8 23
f 36 26 5
f 36 5 8
f 37 23 12
f 37 12 6
f 37 36 23
f 37 4 15
f 37 15 36
f 38 9 16
f 38 16 26
f 40 2 27
f 42 17 29
f 42 3 34
f 43 42 29
f 43 3 42
f 43 19 31
f 43 32 19
f 43 25 32
f 43 29 41
f 44 26 15
f 44 15 32
f 45 34 21
f 45 21 28
f 45 42 34
f 46 37 6
f 46 6 4
f 46 4 37
f 47 32 25
f 48 9 39
f 49 38 47
f 49 47 25
f 49 25 39
f 50 13 2
f 50 41 13
f 51 48 39
f 51 40 27
f 51 27 48
f 52 41 29
f 52 29 17
f 52 17 13
f 52 13 41
f 53 43 31
f 53 31 3
f 53 3 43
f 54 44 38
f 54 38 26
f 54 26 44
f 55 44 32
f 55 38 44
f 55 47 38
f 55 32 47
f 56 45 28
f 57 17 42
f 57 42 45
f 58 48 27
f 58 27 9
f 58 9 48
f 59 49 39
f 59 39 9
f 59 9 38
f 59 38 49
f 60 50 2
f 60 2 40
f 60 40 51
f 61 43 41
f 61 41 50
f 61 25 43
f 61 50 60
f 62 51 39
f 62 39 25
f 62 60 51
f 62 61 60
f 62 25 61
f 63 56 28
f 63 28 17
f 63 17 57
f 63 57 45
f 63 45 56

