# https://github.com/mikedh/trimesh
v -0.04021169 0.09615738 0.22924461
v -0.04164570 0.08685610 0.22846081
v -0.04139331 0.08927971 0.14905227
v -0.05796015 0.07888204 0.14059151
v -0.11159281 0.05051979 0.21502502
v -0.04184219 0.08437160 0.21343087
v -0.07346508 0.09025613 0.17366712
v -0.10133422 0.05126961 0.23209956
v -0.05030882 0.08278338 0.14054172
v -0.03985903 0.10264535 0.16235158
v -0.08066889 0.08278927 0.22120369
v -0.11018304 0.05185500 0.15389109
v -0.05988744 0.08622445 0.23138570
v -0.08782669 0.05591050 0.22928061
v -0.04753827 0.10191140 0.21121569
v -0.03990542 0.09860963 0.22529306
v -0.04025361 0.10031981 0.15029989
v -0.10650846 0.06083155 0.19623284
v -0.10278158 0.06092101 0.22146495
v -0.11166915 0.05069333 0.15805776
v -0.06161032 0.08189412 0.23114059
v -0.08425661 0.07227831 0.23135108
v -0.04195314 0.08461457 0.22262483
v -0.09015082 0.05481064 0.23086671
v -0.08739270 0.05582051 0.21372942
v -0.05799981 0.09833650 0.17780416
v -0.07296352 0.09073050 0.21103901
v -0.03996679 0.10288876 0.21529891
v -0.06898289 0.09058676 0.22088313
v -0.04887949 0.08399464 0.14184614
v -0.05831303 0.09484938 0.15052352
v -0.09568754 0.07158704 0.15822367
v -0.10751044 0.05019791 0.22510863
v -0.10216954 0.06446434 0.21468357
v -0.09514736 0.06075150 0.23173745
v -0.09125682 0.07166762 0.22417681
v -0.09465792 0.05487439 0.15247313
v -0.04720932 0.10171093 0.16645526
v -0.05826452 0.09793528 0.21111416
v -0.05061117 0.09409417 0.22827885
v -0.06649952 0.08490519 0.23089510
v -0.07661721 0.08644400 0.21860212
v -0.04764361 0.09867326 0.15057172
v -0.09317887 0.07310464 0.15412535
v -0.05449972 0.09792154 0.15836818
v -0.10630673 0.06066677 0.18163264
v -0.09872406 0.06836572 0.15823755
v -0.08460541 0.08297814 0.21098650
v -0.10622377 0.05316699 0.22419560
v -0.11005476 0.05307233 0.21457118
v -0.09972009 0.05383951 0.23202543
v -0.07375043 0.08009908 0.23127262
v -0.08379462 0.07558010 0.22815711
v -0.09517271 0.06779531 0.22410736
v -0.06125840 0.07756257 0.14121288
v -0.05436128 0.09796069 0.21867069
v -0.06573851 0.09388028 0.21483841
v -0.04366517 0.09797770 0.22492472
v -0.08786355 0.07921721 0.16584441
v -0.07665288 0.08656673 0.15464251
v -0.11023747 0.05310327 0.15849374
v -0.10662406 0.05706176 0.15458815
v -0.08764056 0.07953514 0.21481969
v -0.07295394 0.08296046 0.22851581
f 6 1 2
f 6 3 1
f 9 3 6
f 13 2 1
f 16 1 3
f 16 3 10
f 17 10 3
f 20 5 18
f 21 13 8
f 21 2 13
f 23 14 6
f 23 6 2
f 24 21 8
f 24 2 21
f 24 23 2
f 24 14 23
f 25 9 6
f 25 6 14
f 25 14 24
f 25 24 8
f 27 26 7
f 28 16 10
f 28 10 15
f 30 17 3
f 30 3 9
f 30 9 17
f 31 9 4
f 33 20 8
f 33 5 20
f 37 4 9
f 37 9 25
f 37 20 12
f 37 25 8
f 37 8 20
f 38 26 15
f 38 15 10
f 39 15 26
f 39 26 27
f 41 40 29
f 41 13 1
f 41 1 40
f 42 29 27
f 42 11 29
f 43 17 9
f 43 9 31
f 43 38 10
f 43 10 17
f 45 7 26
f 45 26 38
f 45 43 31
f 45 38 43
f 46 20 18
f 47 46 18
f 47 18 32
f 47 32 44
f 48 27 7
f 48 32 18
f 48 18 34
f 48 42 27
f 48 11 42
f 49 19 5
f 49 5 33
f 49 35 19
f 50 34 18
f 50 18 5
f 50 5 19
f 50 19 34
f 51 8 13
f 51 35 49
f 51 49 33
f 51 33 8
f 52 22 35
f 52 13 41
f 52 51 13
f 52 35 51
f 53 36 22
f 53 11 36
f 53 22 52
f 54 35 22
f 54 22 36
f 54 19 35
f 54 34 19
f 55 37 12
f 55 4 37
f 55 12 44
f 55 44 31
f 55 31 4
f 56 15 39
f 56 29 40
f 56 28 15
f 57 39 27
f 57 27 29
f 57 56 39
f 57 29 56
f 58 40 1
f 58 1 16
f 58 56 40
f 58 16 28
f 58 28 56
f 59 44 32
f 59 48 7
f 59 32 48
f 60 45 31
f 60 7 45
f 60 59 7
f 60 31 44
f 60 44 59
f 61 12 20
f 61 20 46
f 61 46 47
f 62 47 44
f 62 44 12
f 62 61 47
f 62 12 61
f 63 36 11
f 63 11 48
f 63 48 34
f 63 54 36
f 63 34 54
f 64 52 41
f 64 41 29
f 64 29 11
f 64 53 52
f 64 11 53

