# https://github.com/mikedh/trimesh
v 0.09144773 0.03505398 0.17821484
v 0.10010154 -0.00960556 0.17897201
v 0.07112169 0.01993392 0.12159655
v 0.05067012 0.03358285 0.11734021
v 0.03815040 -0.07422002 0.13689713
v 0.06651859 0.04014666 0.12369379
v 0.08675088 0.00477785 0.14418709
v 0.06653663 -0.07459910 0.17702165
v 0.07609678 0.04078503 0.17706224
v 0.03709847 -0.07239619 0.11849062
v 0.06782599 0.03156801 0.12159534
v 0.10040449 0.00538019 0.17899041
v 0.07885685 0.03945319 0.14439068
v 0.07133823 0.04195665 0.15229564
v 0.07201071 -0.04738169 0.17778694
v 0.04639552 -0.07482250 0.14885285
v 0.03820205 -0.05400298 0.11752086
v 0.07168082 -0.03857746 0.12243002
v 0.09068953 -0.02137454 0.15098413
v 0.08261342 0.03167202 0.14821578
v 0.08916800 0.03972202 0.17747850
v 0.07880101 0.01632336 0.13316462
v 0.07082140 0.03915125 0.12948406
v 0.06613076 -0.07415172 0.16563893
v 0.07539504 -0.01367464 0.12198759
v 0.09060903 -0.00246464 0.15165828
v 0.09057401 0.00880137 0.15549918
v 0.09590175 0.02395835 0.17833445
v 0.08700568 0.03916936 0.16655665
v 0.08260414 0.01625719 0.14044792
v 0.06798312 0.03935790 0.12540454
v 0.07489976 0.02385175 0.12940813
v 0.06794422 -0.06428194 0.14012334
v 0.09098416 -0.03960846 0.17789118
v 0.08288668 -0.03228962 0.13644184
v 0.08295201 0.00493267 0.13681284
v 0.07505821 -0.00622913 0.12167192
v 0.09437756 0.02038551 0.17148812
v 0.06407143 -0.06817607 0.14006144
v 0.06416224 -0.05011522 0.12207592
v 0.09538646 -0.02782454 0.17831893
v 0.07578241 -0.06453355 0.16958710
v 0.08698795 -0.02832047 0.14384664
v 0.07878283 -0.03206765 0.12958106
v 0.07899638 -0.04553550 0.13698288
v 0.07506199 0.01271093 0.12555733
v 0.07904131 0.00119516 0.12930095
v 0.07133656 -0.06448014 0.14760424
v 0.04589752 -0.06927182 0.12166875
v 0.09050069 -0.02811112 0.15503300
v 0.08347338 -0.05396985 0.17737123
v 0.06770734 -0.04991446 0.12612503
v 0.08258935 -0.03976724 0.14009767
v 0.06782991 -0.06796404 0.14779641
v 0.07189794 -0.06824200 0.16574279
v 0.07479120 -0.05723602 0.14413858
v 0.08332004 -0.04619035 0.14753851
v 0.07596718 -0.06472942 0.17705715
v 0.07126871 -0.05753736 0.13717460
v 0.08628741 -0.03949307 0.15096842
v 0.08666387 -0.04653786 0.16591243
v 0.07880002 -0.05339856 0.14783207
v 0.08630834 -0.03570917 0.14749300
v 0.07135125 -0.05362162 0.13382516
f 9 4 5
f 11 3 4
f 11 4 6
f 14 6 4
f 14 4 9
f 14 13 6
f 15 9 8
f 15 1 9
f 15 12 1
f 15 8 2
f 15 2 12
f 16 9 5
f 16 8 9
f 16 5 10
f 17 10 5
f 17 5 4
f 18 10 17
f 19 12 2
f 21 9 1
f 21 14 9
f 21 13 14
f 23 6 13
f 23 3 11
f 24 16 10
f 24 8 16
f 25 18 17
f 26 19 7
f 26 7 12
f 26 12 19
f 27 12 7
f 27 7 20
f 28 1 12
f 29 21 1
f 29 13 21
f 29 1 28
f 29 28 20
f 29 20 13
f 30 20 7
f 30 22 13
f 30 13 20
f 31 23 11
f 31 11 6
f 31 6 23
f 32 22 3
f 32 3 23
f 32 23 13
f 32 13 22
f 36 7 19
f 36 19 25
f 36 30 7
f 36 22 30
f 37 4 3
f 37 25 17
f 37 17 4
f 38 27 20
f 38 12 27
f 38 28 12
f 38 20 28
f 39 24 10
f 40 10 18
f 41 2 8
f 41 8 34
f 43 35 25
f 43 25 19
f 44 18 25
f 44 25 35
f 45 44 35
f 45 18 44
f 46 3 22
f 46 22 36
f 46 37 3
f 47 36 25
f 47 25 37
f 47 46 36
f 47 37 46
f 48 39 33
f 49 39 10
f 49 10 40
f 49 40 33
f 49 33 39
f 50 19 2
f 50 2 41
f 50 43 19
f 51 34 8
f 52 40 18
f 52 18 45
f 53 45 35
f 53 35 43
f 54 48 24
f 54 24 39
f 54 39 48
f 55 48 42
f 55 24 48
f 55 42 8
f 55 8 24
f 56 48 33
f 57 56 45
f 57 45 53
f 58 51 8
f 58 8 42
f 58 42 51
f 59 33 40
f 59 40 52
f 59 56 33
f 59 45 56
f 60 50 41
f 61 41 34
f 61 34 51
f 61 51 42
f 61 60 41
f 61 57 60
f 62 48 56
f 62 56 57
f 62 42 48
f 62 61 42
f 62 57 61
f 63 57 53
f 63 53 43
f 63 60 57
f 63 43 50
f 63 50 60
f 64 59 52
f 64 52 45
f 64 45 59

