# https://github.com/mikedh/trimesh
v 0.03585724 0.09247512 0.15046033
v 0.03882229 0.07831078 0.14875260
v 0.03823925 0.03439097 0.04648472
v -0.03620017 0.03455288 0.01992410
v -0.08228686 0.03565947 0.06098984
v 0.00027779 0.05588628 0.03927055
v 0.04443217 0.03659496 0.06046584
v -0.05038038 0.05886235 0.11553757
v -0.07660965 0.03449878 0.04683053
v 0.02192478 0.04743868 0.04319818
v 0.04356373 0.04755606 0.09180848
v 0.04218321 0.03510584 0.05395843
v 0.00277917 0.09165219 0.14885327
v -0.08138632 0.03493678 0.05707134
v -0.03960078 0.05955555 0.04736811
v 0.03502753 0.08674510 0.13304164
v 0.00098528 0.03479699 0.01972201
v 0.03878170 0.05826609 0.12391121
v 0.03676342 0.04872692 0.06651422
v 0.02018852 0.09884533 0.15073596
v -0.02436908 0.05575142 0.03642323
v -0.05791527 0.04440783 0.03751127
v -0.02525053 0.10048224 0.13901892
v 0.01162625 0.05135411 0.03906601
v 0.01925160 0.03768217 0.02976511
v 0.01222252 0.03456132 0.02453693
v -0.05050372 0.05543397 0.10964945
v 0.04102454 0.03738683 0.05490382
v 0.03371626 0.05157302 0.06661185
v 0.03457285 0.08999993 0.13987883
v -0.02457108 0.04872042 0.02948435
v -0.06620036 0.03493189 0.03576967
v -0.06834268 0.04816078 0.05462366
v -0.03912788 0.05548559 0.04040974
v -0.04822812 0.08221190 0.12004680
v -0.02547691 0.08716989 0.13573243
v 0.00192255 0.10278569 0.14983981
v -0.02850065 0.05937084 0.04266419
v 0.02711674 0.09038880 0.13329942
v 0.00825029 0.04485563 0.02989594
v 0.02964967 0.04422327 0.04771521
v 0.01480529 0.04806650 0.03696591
v 0.01978256 0.03503469 0.02845118
v 0.01996036 0.09808273 0.14699538
v -0.00633005 0.04886587 0.02967657
v -0.05453168 0.03470485 0.02842095
v -0.06811557 0.04430174 0.04747161
v -0.07568470 0.04074666 0.05403473
v -0.05407728 0.05559118 0.05056413
v -0.02835576 0.05236389 0.03337084
v -0.05014486 0.04814674 0.03668907
v -0.00269654 0.09799313 0.13267456
v -0.03604363 0.06324988 0.05382852
v -0.01004524 0.05565536 0.03624927
v 0.00821920 0.04765789 0.03279390
v 0.03656932 0.03690321 0.04740522
v 0.01483056 0.04437585 0.03299558
v -0.06531978 0.03776642 0.03711333
v -0.07520902 0.03732742 0.04780421
v -0.08061707 0.03819481 0.06180377
v -0.06149392 0.04762572 0.04441476
v -0.04663813 0.05532010 0.04440012
v -0.06499606 0.05134585 0.05782624
v -0.02528705 0.09936852 0.13588669
f 9 4 3
f 11 7 1
f 11 1 2
f 12 7 5
f 13 8 2
f 14 9 3
f 14 12 5
f 14 3 12
f 16 1 7
f 18 11 2
f 18 2 8
f 18 5 7
f 18 7 11
f 19 16 7
f 20 13 2
f 20 2 1
f 24 16 10
f 26 3 4
f 26 4 17
f 26 17 25
f 27 18 8
f 27 8 5
f 27 5 18
f 28 12 3
f 28 19 7
f 28 7 12
f 29 10 16
f 29 16 19
f 30 1 16
f 31 17 4
f 35 5 8
f 35 8 23
f 36 23 8
f 36 8 13
f 36 13 23
f 37 23 13
f 37 13 20
f 38 34 15
f 38 21 34
f 39 24 6
f 39 16 24
f 39 30 16
f 40 25 17
f 41 25 10
f 41 3 25
f 41 19 28
f 41 29 19
f 41 10 29
f 42 24 10
f 42 10 25
f 43 26 25
f 43 25 3
f 43 3 26
f 44 20 1
f 44 1 30
f 44 30 39
f 44 37 20
f 45 40 17
f 45 17 31
f 46 4 9
f 46 9 32
f 48 33 47
f 49 35 23
f 50 34 21
f 50 21 31
f 50 31 4
f 51 46 22
f 51 4 46
f 51 50 4
f 51 34 50
f 52 23 37
f 52 37 44
f 52 44 39
f 52 39 6
f 53 38 15
f 54 21 38
f 54 6 45
f 54 45 31
f 54 31 21
f 54 52 6
f 54 38 52
f 55 6 24
f 55 24 42
f 55 45 6
f 55 40 45
f 56 41 28
f 56 28 3
f 56 3 41
f 57 42 25
f 57 25 40
f 57 55 42
f 57 40 55
f 58 46 32
f 58 22 46
f 58 32 9
f 59 9 14
f 59 14 48
f 59 48 47
f 59 58 9
f 59 47 58
f 60 35 33
f 60 33 48
f 60 5 35
f 60 48 14
f 60 14 5
f 61 47 33
f 61 33 49
f 61 58 47
f 61 22 58
f 61 51 22
f 62 49 15
f 62 15 34
f 62 34 51
f 62 61 49
f 62 51 61
f 63 49 33
f 63 33 35
f 63 35 49
f 64 49 23
f 64 15 49
f 64 53 15
f 64 38 53
f 64 52 38
f 64 23 52

