# https://github.com/mikedh/trimesh
v -0.00981367 -0.09316922 0.22896328
v -0.00983349 -0.10017786 0.22941092
v 0.00199415 -0.07236026 0.11858982
v -0.09770047 -0.04755632 0.12033469
v -0.11120631 -0.04705350 0.22516578
v -0.04007408 -0.10237073 0.14434078
v 0.00230458 -0.09458154 0.15296168
v -0.10494746 -0.04781175 0.23203025
v -0.04321993 -0.08715917 0.12250593
v -0.08481299 -0.08678178 0.15483674
v 0.00257591 -0.07585357 0.12265902
v 0.00173587 -0.10571810 0.15409668
v -0.06904514 -0.09084364 0.22449679
v -0.04110783 -0.09250900 0.23139650
v -0.00973336 -0.09088232 0.22590262
v -0.07421889 -0.05073463 0.11711016
v -0.10400695 -0.04664791 0.12567082
v -0.06560886 -0.09049132 0.13680896
v -0.03248984 -0.10671656 0.20013514
v -0.01040927 -0.09858805 0.13307806
v -0.09842910 -0.06849891 0.22205544
v -0.03990446 -0.09853935 0.22905453
v -0.07776737 -0.08008536 0.23133904
v -0.09722322 -0.05035898 0.23100274
v -0.06946833 -0.07616019 0.12282083
v 0.00163241 -0.08824825 0.12121209
v -0.11400380 -0.05345061 0.15077504
v -0.04709349 -0.09492389 0.13380659
v -0.06265784 -0.09840908 0.15487941
v -0.00985473 -0.10713326 0.20792491
v -0.03655903 -0.10673211 0.15854029
v -0.01031527 -0.10647629 0.15108173
v -0.10297008 -0.05744115 0.22807905
v -0.08780887 -0.08368819 0.20371748
v -0.04083131 -0.09484186 0.23143563
v -0.04768070 -0.10252075 0.21113735
v -0.05514106 -0.09220911 0.23121313
v -0.08070576 -0.08312362 0.22523009
v -0.05491517 -0.08326100 0.12266648
v -0.08104267 -0.07944449 0.13401354
v -0.02095305 -0.09887817 0.13354303
v 0.00149141 -0.10272796 0.14373243
v -0.11496459 -0.04734164 0.14368622
v -0.11381578 -0.05402656 0.19997987
v -0.05494168 -0.09410919 0.13675350
v -0.06933438 -0.09475839 0.15091590
v -0.00993658 -0.10252273 0.22533324
v -0.04012551 -0.10673344 0.17657607
v -0.05092123 -0.10213296 0.15494422
v -0.02100349 -0.10625082 0.15109578
v -0.10417961 -0.05122693 0.23137997
v -0.10286951 -0.06121327 0.22471020
v -0.06634237 -0.09860341 0.17672313
v -0.04760368 -0.09872981 0.22568664
v -0.03595187 -0.10234133 0.22254251
v -0.07698665 -0.08325134 0.22816323
v -0.08063058 -0.08671710 0.21451922
v -0.06249215 -0.08686616 0.13009002
v -0.09556415 -0.05366472 0.12288768
v -0.10253846 -0.06922413 0.14769418
v -0.04027079 -0.09103957 0.12621142
v -0.04035765 -0.09858486 0.13670568
v -0.01031185 -0.10260431 0.14055216
v 0.00148327 -0.09489483 0.12989850
f 7 1 2
f 12 7 2
f 12 11 7
f 14 2 1
f 14 1 8
f 15 11 3
f 15 1 7
f 15 7 11
f 16 8 3
f 17 5 8
f 17 16 4
f 17 8 16
f 24 8 1
f 24 1 15
f 24 15 3
f 24 3 8
f 25 4 16
f 26 16 3
f 26 9 16
f 26 3 11
f 26 11 12
f 32 12 30
f 32 30 31
f 35 22 2
f 35 2 14
f 35 14 8
f 35 8 23
f 37 23 13
f 37 35 23
f 37 22 35
f 38 23 21
f 39 25 16
f 39 16 9
f 41 26 20
f 42 26 12
f 42 12 32
f 43 5 17
f 44 43 27
f 44 5 43
f 44 34 21
f 45 6 18
f 45 18 28
f 46 18 6
f 46 6 29
f 46 40 18
f 46 10 40
f 47 30 12
f 47 12 2
f 47 2 22
f 48 31 30
f 48 30 19
f 48 19 36
f 49 29 6
f 49 6 31
f 49 31 48
f 50 32 31
f 50 31 6
f 51 8 5
f 51 5 33
f 51 33 23
f 51 23 8
f 52 33 5
f 52 21 23
f 52 23 33
f 52 44 21
f 52 5 44
f 53 34 10
f 53 48 36
f 53 49 48
f 53 29 49
f 53 36 13
f 53 46 29
f 53 10 46
f 54 13 36
f 54 37 13
f 54 22 37
f 55 36 19
f 55 19 30
f 55 54 36
f 55 30 47
f 55 47 22
f 55 22 54
f 56 38 13
f 56 13 23
f 56 23 38
f 57 13 38
f 57 53 13
f 57 34 53
f 57 38 21
f 57 21 34
f 58 25 39
f 58 40 25
f 58 18 40
f 58 28 18
f 58 39 9
f 58 9 28
f 59 17 4
f 59 4 25
f 59 25 40
f 60 40 10
f 60 27 43
f 60 43 17
f 60 59 40
f 60 17 59
f 60 44 27
f 60 10 34
f 60 34 44
f 61 9 26
f 61 26 41
f 61 28 9
f 62 41 6
f 62 61 41
f 62 28 61
f 62 45 28
f 62 6 45
f 63 41 20
f 63 32 50
f 63 50 6
f 63 6 41
f 63 42 32
f 63 20 42
f 64 42 20
f 64 20 26
f 64 26 42

