# https://github.com/mikedh/trimesh
v -0.02516788 0.10320026 0.15044959
v -0.02583588 0.09268095 0.14818175
v -0.04755886 0.06126748 0.06110402
v -0.07168956 0.04789674 0.06227009
v -0.12128498 0.02856269 0.15402615
v -0.07608784 0.08295368 0.13976253
v -0.02574688 0.06966520 0.11687248
v -0.10942859 0.03007004 0.15294635
v -0.05432605 0.09386184 0.13991424
v -0.06122926 0.05518520 0.06207376
v -0.08050887 0.08345506 0.15433675
v -0.09835934 0.06449283 0.14335105
v -0.02519998 0.08943535 0.12054206
v -0.08145887 0.00202612 0.05933342
v -0.06635283 0.09157084 0.15426255
v -0.09102531 0.00227030 0.11726988
v -0.02528705 0.09936852 0.13588669
v -0.05399463 0.05882006 0.06230293
v -0.09166864 0.07139219 0.14359711
v -0.09060300 0.02308250 0.06176765
v -0.10662406 0.05706176 0.15458815
v -0.02504622 0.09581613 0.12860313
v -0.04993263 0.04250729 0.05886978
v -0.06168251 0.08216358 0.15278731
v -0.11891857 0.03518579 0.15454519
v -0.04764361 0.09867326 0.15057172
v -0.07353381 0.08662414 0.14722344
v -0.09920667 0.00136560 0.07282955
v -0.03564892 0.09780974 0.13659255
v -0.09528613 0.06455235 0.13739687
v -0.08398109 0.07907578 0.14737198
v -0.08316113 0.03741641 0.06589332
v -0.02509415 0.10248161 0.14688111
v -0.07909817 0.00717952 0.05818860
v -0.11777292 0.03110703 0.14427690
v -0.06002529 0.09456370 0.15380641
v -0.08012330 0.08310447 0.15060982
v -0.10666821 0.00171523 0.11899588
v -0.10304730 0.00107051 0.11198105
v -0.09642563 0.00141954 0.06100873
v -0.04754571 0.09798010 0.14696168
v -0.08680143 0.03002086 0.06178909
v -0.07543840 0.04421741 0.06230025
v -0.02836799 0.10219314 0.14660910
v -0.11824160 0.03470636 0.15100597
v -0.02857745 0.10285106 0.15059170
v -0.05831303 0.09484938 0.15052352
v -0.09487591 0.01200020 0.06152988
v -0.11003892 0.04934352 0.14722074
v -0.05801192 0.09431920 0.14733811
v -0.11866189 0.02775608 0.14373937
v -0.10245477 0.05719150 0.14084362
v -0.11364491 0.04208677 0.14726947
v -0.10607131 0.05669437 0.15114983
f 7 1 2
f 8 2 1
f 10 3 4
f 10 4 6
f 10 6 9
f 13 7 3
f 16 7 2
f 16 2 8
f 16 14 7
f 16 8 5
f 18 10 9
f 18 9 3
f 18 3 10
f 19 6 4
f 21 19 12
f 21 11 19
f 21 15 11
f 22 7 13
f 22 13 3
f 22 3 17
f 23 3 7
f 23 7 14
f 23 4 3
f 24 8 1
f 25 5 8
f 25 24 15
f 25 8 24
f 25 15 21
f 27 9 6
f 27 11 15
f 29 17 3
f 29 3 9
f 30 19 4
f 30 12 19
f 31 19 11
f 31 6 19
f 33 1 7
f 33 7 22
f 33 22 17
f 34 23 14
f 36 24 1
f 36 15 24
f 37 27 6
f 37 11 27
f 37 31 11
f 37 6 31
f 38 16 5
f 38 5 28
f 39 14 16
f 39 38 28
f 39 16 38
f 40 39 28
f 40 14 39
f 40 34 14
f 40 28 5
f 41 29 9
f 42 12 32
f 42 34 20
f 42 4 23
f 42 23 34
f 43 30 4
f 43 42 32
f 43 4 42
f 43 32 12
f 43 12 30
f 44 33 17
f 44 17 29
f 44 29 41
f 44 1 33
f 44 41 26
f 45 35 5
f 45 5 25
f 46 36 1
f 46 26 36
f 46 44 26
f 46 1 44
f 47 27 15
f 47 15 36
f 47 36 26
f 48 20 34
f 48 34 40
f 48 35 20
f 49 25 21
f 49 42 20
f 50 9 27
f 50 27 47
f 50 41 9
f 50 47 26
f 50 26 41
f 51 48 40
f 51 40 5
f 51 5 35
f 51 35 48
f 52 49 12
f 52 12 42
f 52 42 49
f 53 35 45
f 53 45 25
f 53 25 49
f 53 49 20
f 53 20 35
f 54 49 21
f 54 21 12
f 54 12 49

