# https://github.com/mikedh/trimesh
v 0.05742075 0.06902334 0.22772600
v 0.08913823 0.03877970 0.20755973
v 0.05317545 0.08267610 0.15076778
v 0.03465025 0.05394676 0.11706295
v 0.07009971 0.03420667 0.22302408
v 0.06638688 0.03234434 0.11986456
v 0.03681128 0.09488746 0.17706674
v 0.05674526 0.07931914 0.20728581
v 0.08183408 0.03892928 0.22793930
v 0.03444167 0.07392767 0.22562803
v 0.08242076 0.04632271 0.15876249
v 0.03843169 0.07618962 0.12257329
v 0.05067012 0.03358285 0.11734021
v 0.04961296 0.08720888 0.17730851
v 0.08508972 0.03852575 0.22315069
v 0.03546358 0.09171275 0.14686097
v 0.05450676 0.07726775 0.21880957
v 0.04174548 0.07304663 0.22842181
v 0.06729883 0.06079959 0.13728209
v 0.08786071 0.03925453 0.17007884
v 0.07908463 0.05721415 0.16941330
v 0.04364243 0.04273355 0.11617849
v 0.03555914 0.07222571 0.22449835
v 0.04943519 0.08666038 0.15839933
v 0.04257835 0.09147863 0.17711133
v 0.06367651 0.07158471 0.21077803
v 0.06787487 0.05700609 0.22745630
v 0.03337026 0.05656454 0.11837109
v 0.03862766 0.08670526 0.13608040
v 0.05427826 0.07317659 0.22584860
v 0.07018069 0.04240946 0.22767281
v 0.07482407 0.04682345 0.14087761
v 0.05658006 0.05763840 0.12242149
v 0.08250398 0.05024203 0.16647956
v 0.07920578 0.05693641 0.18834863
v 0.07517833 0.06130430 0.15864065
v 0.03558389 0.07688598 0.12154183
v 0.04221754 0.09057865 0.15484769
v 0.07902213 0.05296802 0.20722903
v 0.06007167 0.07543435 0.21095475
v 0.05674616 0.07562295 0.21821985
v 0.08020924 0.04168978 0.22742273
v 0.07130841 0.05662940 0.22165373
v 0.03412945 0.07362345 0.20887509
v 0.05315836 0.07484097 0.13354581
v 0.07847144 0.05005141 0.15172289
v 0.06686843 0.05065587 0.12948452
v 0.08328867 0.03950890 0.15530304
v 0.08655781 0.04252593 0.17032411
v 0.06784205 0.06800908 0.14747793
v 0.03530641 0.08379731 0.12905989
v 0.03862373 0.09041857 0.14734042
v 0.07131938 0.06048722 0.21428425
v 0.07505201 0.06060848 0.19952419
v 0.05678757 0.07174835 0.22489344
v 0.06347718 0.06403898 0.22506626
v 0.05279773 0.06832826 0.12648853
v 0.05314090 0.07898792 0.14046951
v 0.07847565 0.04650281 0.14812510
v 0.06798312 0.03935790 0.12540454
v 0.06396700 0.05723630 0.13003316
v 0.06401987 0.04311152 0.12160170
v 0.08240845 0.04314662 0.15562556
v 0.05604294 0.07185574 0.13323508
f 6 2 5
f 13 6 5
f 15 9 5
f 15 5 2
f 16 10 7
f 17 8 7
f 18 9 1
f 18 17 7
f 18 7 10
f 20 2 6
f 22 13 4
f 22 6 13
f 23 10 4
f 23 4 13
f 23 13 5
f 23 5 10
f 25 7 8
f 25 8 14
f 25 24 7
f 25 14 24
f 27 1 9
f 28 4 10
f 30 18 1
f 30 17 18
f 31 18 10
f 31 10 5
f 31 5 9
f 31 9 18
f 33 6 22
f 35 14 8
f 35 2 21
f 36 35 21
f 36 14 35
f 36 24 14
f 36 3 24
f 36 21 34
f 36 34 11
f 37 22 4
f 37 33 22
f 37 12 33
f 37 4 28
f 38 16 7
f 38 7 24
f 38 24 3
f 39 15 2
f 40 8 17
f 41 40 17
f 41 26 40
f 42 27 9
f 42 9 15
f 42 15 27
f 43 27 15
f 44 28 10
f 44 10 16
f 44 16 28
f 46 36 11
f 47 19 32
f 48 20 6
f 48 6 32
f 49 34 21
f 49 21 2
f 49 2 20
f 49 20 11
f 49 11 34
f 50 3 36
f 50 46 19
f 50 36 46
f 51 37 28
f 51 28 16
f 51 16 29
f 51 12 37
f 51 45 12
f 51 29 45
f 52 29 16
f 52 16 38
f 52 38 3
f 52 3 29
f 53 39 26
f 53 15 39
f 53 43 15
f 53 26 43
f 54 26 39
f 54 40 26
f 54 35 8
f 54 8 40
f 54 39 2
f 54 2 35
f 55 30 1
f 55 41 17
f 55 17 30
f 56 43 26
f 56 26 41
f 56 41 55
f 56 27 43
f 56 55 1
f 56 1 27
f 57 33 12
f 57 12 45
f 58 45 29
f 58 29 3
f 58 3 50
f 59 32 19
f 59 19 46
f 59 48 32
f 59 46 11
f 60 47 32
f 60 32 6
f 61 19 47
f 61 33 57
f 62 6 33
f 62 61 47
f 62 33 61
f 62 60 6
f 62 47 60
f 63 11 20
f 63 20 48
f 63 59 11
f 63 48 59
f 64 50 19
f 64 58 50
f 64 45 58
f 64 57 45
f 64 61 57
f 64 19 61

