# https://github.com/mikedh/trimesh
v 0.03611822 -0.06288083 0.12057146
v 0.03603080 -0.07448813 0.12011487
v 0.04131094 -0.03567456 0.03950198
v -0.03619106 -0.03603290 0.00546279
v -0.05194697 -0.08204862 0.11983252
v 0.00038581 -0.07497838 0.05123438
v -0.05314729 -0.06592010 0.11784362
v 0.05153790 -0.03658481 0.06070741
v -0.02111495 -0.08898027 0.12081156
v 0.00055089 -0.03523778 0.00402361
v -0.04335990 -0.07190087 0.04637725
v 0.04949575 -0.03539500 0.05377887
v -0.04532715 -0.03763340 0.03138699
v 0.03170554 -0.07763967 0.12078177
v -0.04398035 -0.08519042 0.12040277
v 0.02549742 -0.05619942 0.04055097
v -0.01404431 -0.07167832 0.04018128
v -0.02466691 -0.08351804 0.07668622
v -0.04419271 -0.03638409 0.00774583
v 0.01283218 -0.08522608 0.12068564
v -0.04685322 -0.07883813 0.07675047
v 0.02572291 -0.04926158 0.03326987
v 0.04032482 -0.04523695 0.04737838
v 0.02226443 -0.06746522 0.05764232
v 0.00781592 -0.06390668 0.03692109
v -0.03163583 -0.04472241 0.00891434
v -0.01384110 -0.07931796 0.05728052
v -0.05280137 -0.06089619 0.06016478
v 0.01526787 -0.07151974 0.05762558
v -0.01006130 -0.08342220 0.07697410
v -0.04295149 -0.07874417 0.06913177
v 0.03000255 -0.03868590 0.02969916
v 0.04028758 -0.03924219 0.04011718
v 0.04854806 -0.04272714 0.06192969
v 0.03327733 -0.05643000 0.05147535
v 0.00023451 -0.07111269 0.04337908
v -0.00788786 -0.04094432 0.00533275
v 0.01518343 -0.06008369 0.03687901
v -0.03574655 -0.06772841 0.03644332
v -0.03201905 -0.04250641 0.00695750
v -0.01038028 -0.07500977 0.04679996
v -0.05386435 -0.06392656 0.11050902
v -0.05166055 -0.07374725 0.06082959
v 0.00031650 -0.07899959 0.06560252
v 0.02454738 -0.08148011 0.12054380
v 0.02178998 -0.06379688 0.04755804
v -0.01380170 -0.08907635 0.12074132
v -0.02851124 -0.07895800 0.05755512
v 0.03065117 -0.03575777 0.02875851
v 0.03276547 -0.04923879 0.04055941
v 0.04360683 -0.04564664 0.05477137
v 0.02569321 -0.06410473 0.05426122
v -0.01802248 -0.04827442 0.01289415
v -0.00334477 -0.06752186 0.03685646
v 0.01522590 -0.05303981 0.02995811
v -0.02479884 -0.07164439 0.04011239
v -0.04328859 -0.06799848 0.04011410
v -0.03893775 -0.04153789 0.00896947
v -0.03601482 -0.03926400 0.00647197
v -0.05071121 -0.07509292 0.06524519
v -0.03975716 -0.07887483 0.06543034
v 0.00420781 -0.07494100 0.05383998
v 0.01892025 -0.06749234 0.05126258
v 0.01876903 -0.06329460 0.04366073
f 7 5 1
f 8 1 2
f 8 7 1
f 12 10 4
f 12 3 10
f 13 7 8
f 13 8 12
f 14 2 1
f 14 1 9
f 15 9 1
f 15 1 5
f 18 9 15
f 19 13 12
f 19 12 4
f 20 14 9
f 21 15 5
f 24 2 14
f 28 13 19
f 29 24 14
f 30 18 27
f 31 18 15
f 31 15 21
f 32 22 10
f 33 3 12
f 33 12 23
f 33 22 32
f 34 12 8
f 34 8 2
f 35 34 2
f 37 4 10
f 38 22 16
f 38 37 10
f 38 25 37
f 40 37 26
f 40 4 37
f 41 6 27
f 41 36 6
f 41 17 36
f 42 5 7
f 42 7 13
f 42 13 28
f 43 42 28
f 43 5 42
f 43 28 19
f 44 20 30
f 44 30 27
f 44 27 6
f 45 29 14
f 45 14 20
f 45 44 29
f 45 20 44
f 46 16 35
f 47 30 20
f 47 20 9
f 47 9 18
f 47 18 30
f 48 27 18
f 48 41 27
f 49 32 10
f 49 10 3
f 49 33 32
f 49 3 33
f 50 33 23
f 50 16 22
f 50 22 33
f 50 35 16
f 50 23 35
f 51 23 12
f 51 12 34
f 51 35 23
f 51 34 35
f 52 35 2
f 52 2 24
f 52 46 35
f 53 37 17
f 53 26 37
f 54 36 17
f 54 17 37
f 54 37 25
f 54 25 36
f 55 38 10
f 55 10 22
f 55 22 38
f 56 39 26
f 56 17 41
f 56 41 48
f 56 48 11
f 56 11 39
f 56 53 17
f 56 26 53
f 57 39 11
f 57 26 39
f 57 43 19
f 57 11 43
f 58 40 26
f 58 19 40
f 58 57 19
f 58 26 57
f 59 40 19
f 59 19 4
f 59 4 40
f 60 21 5
f 60 5 43
f 60 43 31
f 60 31 21
f 61 43 11
f 61 31 43
f 61 11 48
f 61 48 18
f 61 18 31
f 62 44 6
f 62 29 44
f 62 6 36
f 63 24 29
f 63 29 62
f 63 62 36
f 63 52 24
f 63 46 52
f 64 38 16
f 64 16 46
f 64 25 38
f 64 46 63
f 64 63 36
f 64 36 25

