# https://github.com/mikedh/trimesh
v -0.09318537 0.05347864 0.23199803
v -0.09380886 -0.05043474 0.22662306
v -0.09636451 0.05313900 0.15336335
v -0.11118365 0.05047450 0.15440892
v -0.12590653 0.00148925 0.21439798
v -0.10380075 -0.04924932 0.15350441
v -0.08967784 0.05453947 0.23019234
v -0.11531682 -0.02444963 0.23104287
v -0.11387998 0.04617179 0.21462989
v -0.09411203 -0.05069480 0.21294894
v -0.09808373 0.05055582 0.15262811
v -0.12568547 -0.02103496 0.15456954
v -0.09045870 0.05442841 0.20929314
v -0.11388686 0.04971120 0.19609127
v -0.09995582 -0.04931208 0.23203224
v -0.11504170 0.02038179 0.23128311
v -0.12590461 0.01673187 0.16157438
v -0.12597202 0.00912328 0.15457954
v -0.12174139 -0.03551751 0.20380490
v -0.10998407 0.04958000 0.22203146
v -0.11801661 -0.04709721 0.15453789
v -0.11029962 0.03483114 0.23148918
v -0.12196739 0.01632165 0.22182944
v -0.11801156 0.04206255 0.18547130
v -0.12180851 0.02744596 0.15462489
v -0.12603431 -0.02495922 0.16172353
v -0.12598946 0.01639582 0.19990298
v -0.12164681 -0.02097777 0.22218647
v -0.11417661 -0.04642136 0.21831619
v -0.12236842 -0.03559356 0.15447080
v -0.10271481 0.04964864 0.23166927
v -0.12187825 0.00527615 0.22449419
v -0.11364003 0.04207761 0.22204361
v -0.11387764 0.04973129 0.18555362
v -0.12177812 0.03153608 0.20368880
v -0.11798750 0.03835267 0.15829299
v -0.12178420 0.03132315 0.17323795
v -0.12580134 -0.02083465 0.20389600
v -0.12593238 -0.01320251 0.21112498
v -0.11794578 -0.04632104 0.19999724
v -0.12122933 -0.03171712 0.21447924
v -0.10661777 -0.04657173 0.23136992
v -0.11380255 -0.04243131 0.22481857
v -0.12170553 -0.03930510 0.17682717
v -0.11025369 0.04626366 0.22442078
v -0.11810061 -0.02102967 0.22856342
v -0.11804739 0.01643270 0.22834458
v -0.12185540 -0.00945919 0.22454922
v -0.11766230 0.02769330 0.22454585
v -0.11404662 0.04611575 0.15829141
v -0.11768765 0.04219159 0.19594794
v -0.12581875 0.01990821 0.19224638
v -0.12190436 0.02766698 0.21149203
v -0.12596716 -0.02482416 0.18856946
v -0.11765171 -0.04238287 0.21437096
v -0.12125234 -0.02775447 0.21812489
v -0.11046652 -0.03938559 0.23122407
v -0.12158434 -0.03917995 0.15813477
v -0.11396242 0.03846334 0.22439536
v -0.11761054 -0.03185994 0.22461871
v -0.12579736 -0.00556956 0.21454961
v -0.11764910 0.03842240 0.21443103
v -0.12576884 0.01998657 0.18895822
f 10 6 3
f 10 7 2
f 11 4 3
f 11 3 6
f 12 11 6
f 13 3 4
f 13 4 7
f 13 10 3
f 13 7 10
f 14 7 4
f 15 7 1
f 15 2 7
f 15 10 2
f 16 8 15
f 18 11 12
f 20 1 7
f 20 7 14
f 20 14 9
f 21 6 10
f 21 10 15
f 22 16 15
f 22 15 1
f 25 4 11
f 25 11 18
f 25 18 17
f 26 18 12
f 27 17 18
f 27 18 26
f 30 12 6
f 30 6 21
f 30 26 12
f 31 22 1
f 31 1 20
f 32 23 5
f 33 20 9
f 34 24 14
f 34 14 4
f 36 4 25
f 37 25 17
f 37 36 25
f 37 24 36
f 37 35 24
f 39 27 26
f 39 5 27
f 40 21 15
f 40 15 29
f 41 38 19
f 41 39 38
f 42 29 15
f 43 29 42
f 44 40 19
f 44 21 40
f 45 31 20
f 45 22 31
f 45 20 33
f 46 8 16
f 47 23 32
f 47 46 16
f 47 32 46
f 48 32 5
f 48 46 32
f 48 28 46
f 49 16 22
f 49 47 16
f 49 23 47
f 50 34 4
f 50 24 34
f 50 36 24
f 50 4 36
f 51 9 14
f 51 14 24
f 51 24 35
f 52 17 27
f 52 27 35
f 52 35 37
f 53 35 27
f 53 23 49
f 53 27 5
f 53 5 23
f 54 39 26
f 54 38 39
f 54 26 44
f 54 44 19
f 54 19 38
f 55 40 29
f 55 29 43
f 55 41 19
f 55 19 40
f 56 28 39
f 56 39 41
f 57 42 15
f 57 15 8
f 57 43 42
f 58 44 26
f 58 26 30
f 58 30 21
f 58 21 44
f 59 45 33
f 59 22 45
f 59 49 22
f 59 33 49
f 60 46 28
f 60 43 57
f 60 57 8
f 60 8 46
f 60 28 56
f 60 55 43
f 60 56 41
f 60 41 55
f 61 39 28
f 61 28 48
f 61 48 5
f 61 5 39
f 62 51 35
f 62 9 51
f 62 35 53
f 62 33 9
f 62 53 49
f 62 49 33
f 63 52 37
f 63 37 17
f 63 17 52

