# https://github.com/mikedh/trimesh
v 0.06897624 -0.05751082 0.22783680
v 0.06933621 -0.04991778 0.22513169
v -0.00981367 -0.09316922 0.22896328
v 0.03709847 -0.07239619 0.11849062
v 0.06568451 -0.06974140 0.14700947
v 0.07053084 -0.04266131 0.19347473
v 0.02706122 -0.09835690 0.21102484
v 0.06972201 -0.04225070 0.21890804
v -0.00967083 -0.09607222 0.15356705
v 0.06767395 -0.05247681 0.14994608
v 0.06395924 -0.07587116 0.20739637
v 0.01978679 -0.09492315 0.22807989
v 0.01573829 -0.10234149 0.15136003
v -0.00500208 -0.08828626 0.20893859
v 0.04321281 -0.07038257 0.12043407
v 0.06399812 -0.07593249 0.16234100
v -0.00983349 -0.10017786 0.22941092
v 0.05742178 -0.07560315 0.22520087
v -0.01018538 -0.10744918 0.15470380
v -0.00973336 -0.09088232 0.22590262
v 0.06194283 -0.06991619 0.13924072
v 0.03806283 -0.08701561 0.13732383
v 0.04558236 -0.09105020 0.17330147
v 0.00507434 -0.09857048 0.22874241
v 0.06382768 -0.07174563 0.22206329
v 0.04269044 -0.08449886 0.22726434
v 0.03497748 -0.07657950 0.12174202
v 0.00492398 -0.10677162 0.18827357
v -0.00960966 -0.09220357 0.19793084
v 0.05251723 -0.07965923 0.14046504
v 0.06091302 -0.07943124 0.20030757
v 0.03458589 -0.09512608 0.15100477
v 0.00853158 -0.10249918 0.21874255
v 0.05687699 -0.07915738 0.21807004
v 0.06573757 -0.06585585 0.22713821
v 0.03446030 -0.09039246 0.22489422
v 0.04249658 -0.07238769 0.12206178
v 0.00509469 -0.10654457 0.16579434
v -0.00985473 -0.10713326 0.20792491
v 0.03124520 -0.09858008 0.16585120
v 0.05610997 -0.07956344 0.14780964
v 0.06018767 -0.07975936 0.16229034
v 0.04232226 -0.09084119 0.21105161
v 0.03778056 -0.09063280 0.14376460
v 0.01967507 -0.09831961 0.22165973
v 0.01591072 -0.10209306 0.21100792
v 0.00117869 -0.10272706 0.22209704
v 0.04564484 -0.08713296 0.21836429
v 0.04933181 -0.08704571 0.20721963
v 0.05376173 -0.07653251 0.22679552
v 0.04215287 -0.07948698 0.12992130
v 0.00123524 -0.10647734 0.15802097
v 0.01999298 -0.10238572 0.19226873
v 0.03785659 -0.09477262 0.15844754
v 0.01948510 -0.10224299 0.15811874
v 0.06016852 -0.07206166 0.14001609
v 0.05336792 -0.08304646 0.15122986
v 0.06390994 -0.07182185 0.14772868
v 0.03864503 -0.09473440 0.18842151
v 0.04176593 -0.08686124 0.14059356
v -0.00636242 -0.10680882 0.20789435
v -0.00976244 -0.10404855 0.22223830
v 0.04927982 -0.08310069 0.22174849
v 0.04552183 -0.09106684 0.18084094
f 1 2 3
f 6 2 1
f 6 1 5
f 8 3 2
f 8 2 6
f 9 6 4
f 10 6 5
f 10 4 6
f 14 8 6
f 14 6 9
f 15 4 10
f 16 5 1
f 16 1 11
f 17 1 3
f 19 9 4
f 19 17 3
f 20 3 8
f 20 8 14
f 20 19 3
f 20 9 19
f 21 15 10
f 21 10 5
f 24 12 1
f 24 1 17
f 26 1 12
f 27 19 4
f 27 13 19
f 27 22 13
f 29 20 14
f 29 14 9
f 29 9 20
f 30 15 21
f 31 16 11
f 34 25 18
f 34 11 25
f 35 25 11
f 35 11 1
f 35 18 25
f 35 1 26
f 36 26 12
f 37 27 4
f 37 4 15
f 38 28 19
f 39 17 19
f 39 19 28
f 42 31 23
f 42 16 31
f 44 32 13
f 44 13 22
f 45 12 24
f 45 24 33
f 45 36 12
f 45 7 36
f 46 45 33
f 46 7 45
f 47 33 24
f 47 24 17
f 48 26 36
f 48 36 7
f 48 7 43
f 49 31 11
f 49 11 34
f 49 48 43
f 49 34 48
f 50 35 26
f 50 26 18
f 50 18 35
f 51 22 27
f 51 27 37
f 51 37 15
f 51 15 30
f 52 38 19
f 52 19 13
f 52 13 38
f 53 28 38
f 53 46 28
f 53 7 46
f 54 40 32
f 54 23 40
f 54 42 23
f 55 38 13
f 55 13 32
f 55 32 40
f 55 53 38
f 55 40 53
f 56 41 30
f 56 30 21
f 56 21 5
f 57 30 41
f 57 32 44
f 57 54 32
f 57 41 42
f 57 42 54
f 58 42 41
f 58 5 16
f 58 16 42
f 58 56 5
f 58 41 56
f 59 40 23
f 59 49 43
f 59 43 7
f 59 53 40
f 59 7 53
f 60 44 22
f 60 57 44
f 60 30 57
f 60 51 30
f 60 22 51
f 61 39 28
f 61 28 46
f 61 46 33
f 61 33 47
f 62 47 17
f 62 17 39
f 62 61 47
f 62 39 61
f 63 48 34
f 63 34 18
f 63 18 26
f 63 26 48
f 64 23 31
f 64 31 49
f 64 59 23
f 64 49 59

