# https://github.com/mikedh/trimesh
v 0.08408367 0.03782254 0.22705219
v 0.12544758 -0.01140540 0.21755952
v 0.08916800 0.03972202 0.17747850
v 0.07609678 0.04078503 0.17706224
v 0.06585594 -0.07386518 0.20771514
v 0.07018069 0.04240946 0.22767281
v 0.12563372 -0.00076870 0.21420700
v 0.06715643 -0.06344498 0.22769940
v 0.07596718 -0.06472942 0.17705715
v 0.09107252 0.03723971 0.20380018
v 0.07525393 0.04233899 0.18100370
v 0.11167087 0.00711005 0.22704891
v 0.10301724 -0.03307547 0.22482358
v 0.06569690 -0.06966287 0.22292390
v 0.07933439 -0.06081896 0.20351358
v 0.12645390 -0.00833093 0.20301727
v 0.06653663 -0.07459910 0.17702165
v 0.09052554 0.03841264 0.18182144
v 0.11449003 0.00954142 0.22132596
v 0.11850084 0.00279841 0.22343781
v 0.11548817 -0.01309732 0.22722652
v 0.09184688 -0.04112487 0.22753544
v 0.06783807 -0.06781737 0.22233743
v 0.12642884 -0.01080364 0.20617213
v 0.11438804 -0.02197714 0.22445068
v 0.09808521 -0.02053098 0.17939940
v 0.12549942 -0.00127982 0.20238161
v 0.06837291 -0.07264565 0.17697227
v 0.07152167 0.04250357 0.19734709
v 0.07921324 -0.06127289 0.19266816
v 0.08720965 0.03728518 0.21874660
v 0.11821006 0.00582311 0.22077911
v 0.12557434 -0.00381782 0.21723059
v 0.11540361 0.00039082 0.22673682
v 0.06923018 -0.06222573 0.22731415
v 0.08347338 -0.05396985 0.17737123
v 0.12183177 -0.01475231 0.22110983
v 0.10775097 -0.02602876 0.22694740
v 0.09775267 0.01941308 0.17912538
v 0.09397108 -0.03134815 0.17828953
v 0.11901023 -0.01620544 0.22367307
v 0.11551908 -0.00246529 0.19317498
f 9 4 3
f 10 6 1
f 10 3 6
f 11 6 3
f 11 3 4
f 12 1 6
f 14 8 6
f 14 6 5
f 17 11 4
f 17 5 6
f 17 15 5
f 18 10 7
f 18 3 10
f 19 1 12
f 21 12 6
f 22 14 13
f 22 21 6
f 22 6 8
f 23 14 5
f 23 5 13
f 23 13 14
f 24 2 15
f 24 16 7
f 25 13 5
f 25 5 15
f 27 7 16
f 27 18 7
f 27 3 18
f 28 17 4
f 28 4 9
f 28 9 17
f 29 17 6
f 29 6 11
f 29 11 17
f 30 17 9
f 30 15 17
f 30 24 15
f 30 9 24
f 31 19 10
f 31 10 1
f 31 1 19
f 32 7 10
f 32 10 19
f 32 20 7
f 32 19 12
f 32 12 20
f 33 7 20
f 33 24 7
f 33 2 24
f 33 21 2
f 34 20 12
f 34 12 21
f 34 33 20
f 34 21 33
f 35 22 8
f 35 8 14
f 35 14 22
f 36 24 9
f 36 16 24
f 36 9 3
f 37 25 15
f 37 15 2
f 37 2 21
f 38 22 13
f 38 13 25
f 38 25 21
f 38 21 22
f 39 3 27
f 40 26 16
f 40 16 36
f 40 36 3
f 40 39 26
f 40 3 39
f 41 37 21
f 41 21 25
f 41 25 37
f 42 39 27
f 42 27 16
f 42 16 26
f 42 26 39

