# https://github.com/mikedh/trimesh
v 0.03886377 -0.07925557 0.14860816
v 0.07338190 -0.02882029 0.12056475
v 0.05662070 0.00209972 0.11272541
v 0.04439501 -0.02206809 0.05886279
v 0.04028303 -0.05636126 0.06633506
v 0.06368630 0.00147435 0.09244929
v 0.00326379 -0.07272967 0.11992231
v 0.07328139 0.00144111 0.12034376
v 0.03604262 -0.09404032 0.15035111
v 0.05545374 -0.02775353 0.06225534
v 0.05311135 0.00182483 0.09143338
v 0.00218495 -0.09364703 0.14929676
v 0.00110124 -0.07752293 0.06084314
v 0.06530710 -0.04703821 0.12107874
v 0.05734435 -0.01732543 0.06143567
v 0.05913461 0.00205090 0.11703190
v 0.02380346 -0.09928350 0.15105347
v 0.00066369 -0.07995332 0.06925195
v 0.01850696 -0.07096984 0.06190701
v 0.00231726 -0.06567241 0.05978102
v 0.04798929 -0.04911247 0.07012455
v 0.06962579 -0.03962475 0.12083776
v 0.05130599 -0.03813578 0.06235528
v 0.06023069 -0.01725163 0.06928257
v 0.04538319 -0.01776777 0.06005675
v 0.03177994 -0.09623000 0.15076223
v 0.00162314 -0.10474842 0.15049882
v 0.03353088 -0.06439303 0.07001643
v 0.02947599 -0.06418545 0.06211214
v 0.05581118 -0.03534285 0.06972191
v 0.04431317 -0.04924383 0.06230777
v 0.05987040 -0.02105910 0.06957562
v 0.03104548 -0.09436020 0.14372493
v 0.00149141 -0.10272796 0.14373243
v 0.03436227 -0.09144975 0.14068103
v 0.00812616 -0.07527484 0.06165218
v 0.01228727 -0.10223588 0.14720632
v 0.02346590 -0.09830804 0.14746094
v 0.00516455 -0.10245588 0.14404871
v 0.01252343 -0.10331852 0.15091759
f 8 1 2
f 9 2 1
f 11 3 6
f 11 7 3
f 12 3 7
f 12 1 8
f 15 11 6
f 16 12 8
f 16 3 12
f 16 8 6
f 16 6 3
f 17 1 12
f 18 12 7
f 20 4 13
f 20 7 11
f 20 18 7
f 20 13 18
f 21 14 9
f 21 9 5
f 22 2 9
f 22 9 14
f 22 14 21
f 23 15 10
f 23 4 15
f 24 15 6
f 24 6 8
f 24 8 2
f 25 15 4
f 25 11 15
f 25 20 11
f 25 4 20
f 26 9 1
f 26 1 17
f 28 5 9
f 29 19 13
f 29 13 4
f 29 5 28
f 29 28 9
f 30 2 22
f 30 23 10
f 30 22 21
f 30 21 23
f 31 23 21
f 31 21 5
f 31 5 29
f 31 29 4
f 31 4 23
f 32 24 2
f 32 10 15
f 32 15 24
f 32 30 10
f 32 2 30
f 33 9 26
f 33 26 17
f 34 27 12
f 34 12 18
f 34 18 13
f 35 29 9
f 35 19 29
f 35 33 19
f 35 9 33
f 36 33 13
f 36 13 19
f 36 19 33
f 37 13 33
f 38 37 33
f 38 33 17
f 39 34 13
f 39 13 37
f 39 27 34
f 40 39 37
f 40 27 39
f 40 17 12
f 40 12 27
f 40 38 17
f 40 37 38

