# https://github.com/mikedh/trimesh
v -0.09102531 0.00227030 0.11726988
v -0.05194697 -0.08204862 0.11983252
v -0.08145887 0.00202612 0.05933342
v -0.09642563 0.00141954 0.06100873
v -0.10092272 -0.04377129 0.12074825
v -0.05166055 -0.07374725 0.06082959
v -0.08310931 0.00230956 0.06223991
v -0.05500796 -0.06440825 0.11656196
v -0.10878341 -0.00213614 0.12075347
v -0.05450493 -0.05928726 0.05910445
v -0.08297786 -0.04952094 0.06170991
v -0.10666821 0.00171523 0.11899588
v -0.05127474 -0.08026750 0.11656893
v -0.06617833 -0.07716548 0.12163788
v -0.05558494 -0.08141460 0.12085711
v -0.09860420 -0.02413803 0.07667291
v -0.06846806 -0.06417719 0.06162993
v -0.09405364 -0.02769343 0.06173188
v -0.09840104 0.00138483 0.06914219
v -0.05116437 -0.07646952 0.07267697
v -0.09303040 -0.05469695 0.12145787
v -0.10501712 -0.03253978 0.12059954
v -0.09824174 -0.01688794 0.06919665
v -0.09066463 -0.04275463 0.07300129
v -0.09455015 -0.03535417 0.07673884
v -0.05450389 -0.07519064 0.07296223
v -0.08204309 -0.06595562 0.12118945
v -0.10874487 -0.00586108 0.12067149
v -0.09051133 -0.03899742 0.06541966
v -0.08708106 -0.04954490 0.07696829
v -0.06838336 -0.06745774 0.07318665
v -0.08678698 -0.04574995 0.06564242
v -0.07963264 -0.05671679 0.06939833
v -0.06124912 -0.07109626 0.06940461
v -0.07598171 -0.06004840 0.06943039
v -0.05747705 -0.07122040 0.06162855
f 7 1 3
f 7 3 4
f 8 1 2
f 8 3 1
f 10 3 8
f 12 7 4
f 12 1 7
f 12 9 1
f 13 8 2
f 13 10 8
f 15 2 1
f 15 1 9
f 15 9 14
f 17 11 10
f 17 10 6
f 18 4 3
f 18 3 10
f 18 10 11
f 19 12 4
f 19 9 12
f 20 13 2
f 20 6 10
f 20 10 13
f 20 2 15
f 21 14 9
f 22 21 9
f 22 5 21
f 23 18 16
f 23 4 18
f 23 19 4
f 25 16 18
f 25 22 16
f 25 5 22
f 25 24 5
f 26 20 15
f 26 15 14
f 26 6 20
f 27 14 21
f 28 9 19
f 28 19 23
f 28 22 9
f 28 23 16
f 28 16 22
f 29 18 11
f 29 25 18
f 29 24 25
f 30 21 5
f 30 5 24
f 31 14 27
f 32 29 11
f 32 24 29
f 32 30 24
f 32 11 30
f 33 27 21
f 33 21 30
f 33 30 11
f 33 11 17
f 34 26 14
f 34 14 31
f 34 31 17
f 35 31 27
f 35 27 33
f 35 33 17
f 35 17 31
f 36 6 26
f 36 26 34
f 36 34 17
f 36 17 6

