# https://github.com/mikedh/trimesh
v 0.04650861 -0.02631953 0.03804199
v 0.04299592 -0.03885163 0.03649971
v 0.04389043 -0.03968237 0.00140381
v 0.02455278 -0.02564983 0.00036850
v 0.02457768 -0.02564057 0.03751331
v 0.04525154 -0.02565756 0.00058808
v 0.04280488 -0.04334344 0.02373551
v 0.02640273 -0.04331374 0.03923247
v 0.02421148 -0.05033297 0.00105566
v 0.02413985 -0.05012936 0.03702785
v 0.03825817 -0.04844850 0.00699198
v 0.03550455 -0.04563308 0.03377856
v 0.03780586 -0.04317266 0.03629807
v 0.02372164 -0.05125361 0.03407335
v 0.03093731 -0.04950966 0.00170347
v 0.04289988 -0.04371959 0.00397241
v 0.03795880 -0.04833152 0.01883253
v 0.02849118 -0.04856371 0.03639094
v 0.04274091 -0.04107338 0.03155848
v 0.02386825 -0.05422890 0.00484147
v 0.03600934 -0.04654611 0.00186073
v 0.02593946 -0.05058400 0.03387705
v 0.02369492 -0.05406714 0.02390698
v 0.03323687 -0.05070817 0.00520493
v 0.03054633 -0.05072097 0.02635464
v 0.03042766 -0.05097483 0.00313187
v 0.02835419 -0.05338820 0.01880572
v 0.03574747 -0.04839163 0.00327295
v 0.02588986 -0.05335181 0.02372615
v 0.02609111 -0.05370778 0.00532105
v 0.02854078 -0.05336192 0.00707704
f 6 1 3
f 6 5 1
f 6 4 5
f 7 1 2
f 7 3 1
f 8 2 1
f 8 1 5
f 9 6 3
f 9 4 6
f 10 8 5
f 13 2 8
f 13 8 10
f 14 10 5
f 14 5 4
f 15 9 3
f 16 3 7
f 16 7 11
f 17 11 7
f 18 13 10
f 18 12 13
f 19 13 12
f 19 7 2
f 19 2 13
f 19 17 7
f 19 12 17
f 20 4 9
f 20 9 15
f 21 15 3
f 21 3 16
f 22 18 10
f 22 10 14
f 23 14 4
f 23 4 20
f 23 22 14
f 25 17 12
f 25 12 18
f 25 18 22
f 26 20 15
f 27 23 20
f 27 17 25
f 27 11 17
f 28 21 16
f 28 16 11
f 28 11 24
f 28 24 26
f 28 26 15
f 28 15 21
f 29 25 22
f 29 22 23
f 29 27 25
f 29 23 27
f 30 26 24
f 30 20 26
f 31 24 11
f 31 11 27
f 31 30 24
f 31 27 20
f 31 20 30

