# https://github.com/mikedh/trimesh
v 0.06870392 0.01123294 0.03327815
v 0.07176020 0.00309323 0.03350147
v 0.05556753 0.02255812 0.00548931
v 0.04519818 0.02341022 0.00062793
v 0.04390600 -0.03982609 0.03184346
v 0.04636693 0.02427201 0.03270216
v 0.07134442 0.00695492 0.03357162
v 0.04840932 -0.03465980 0.00171487
v 0.05562047 0.02176398 0.03182147
v 0.05178659 0.02285576 0.00187709
v 0.06033050 0.00252782 0.00528710
v 0.06971758 -0.00076511 0.03356392
v 0.04367586 -0.04211486 0.00316847
v 0.06398684 0.01554959 0.03269642
v 0.05647007 -0.00973362 0.00175338
v 0.05752249 0.01725014 0.00563364
v 0.05231857 -0.03412942 0.00565809
v 0.04458754 -0.03820977 0.00110801
v 0.06651024 0.01353125 0.03281127
v 0.05651642 0.00775324 0.00175232
v 0.06023502 -0.01462681 0.00715709
v 0.05771859 0.01237676 0.00371896
v 0.05006301 -0.03889682 0.01398537
v 0.04778864 -0.03883916 0.00377026
v 0.05107203 -0.03008301 0.00184316
v 0.05382228 0.01778264 0.00170032
v 0.06029473 -0.00745138 0.00534275
v 0.05740797 -0.02436170 0.00750620
v 0.05515972 0.02000010 0.00361593
v 0.05508116 -0.02924855 0.01891444
v 0.04404422 -0.04463764 0.01408725
v 0.04620700 -0.03721527 0.00153481
v 0.05008940 -0.03865962 0.00757494
v 0.05816339 -0.01460461 0.00367164
v 0.05533845 -0.02466411 0.00389892
v 0.05246056 -0.02908763 0.03151022
v 0.05766701 -0.02450803 0.01150974
v 0.04779443 -0.04099797 0.01615398
v 0.04377180 -0.04457685 0.00706513
v 0.04551306 -0.04360251 0.01387909
v 0.05736026 -0.02199139 0.00543391
v 0.05253092 -0.03405123 0.01866403
v 0.04751204 -0.03609424 0.03152728
v 0.04389042 -0.04234418 0.02410458
v 0.04543032 -0.04113532 0.00382198
v 0.04528736 -0.04341922 0.00754915
v 0.05242412 -0.03136045 0.02633204
v 0.04534429 -0.03851529 0.03143851
f 6 4 5
f 7 3 1
f 7 1 6
f 9 3 6
f 10 6 3
f 10 4 6
f 11 7 2
f 12 7 6
f 12 6 5
f 12 2 7
f 13 5 4
f 14 9 6
f 14 6 1
f 14 3 9
f 16 3 7
f 18 13 4
f 18 4 15
f 19 14 1
f 19 1 3
f 19 3 14
f 20 15 4
f 20 11 15
f 22 16 7
f 22 7 11
f 22 11 20
f 24 8 17
f 25 18 15
f 25 8 18
f 25 17 8
f 26 20 4
f 26 4 10
f 26 22 20
f 27 15 11
f 27 11 2
f 27 2 21
f 28 21 2
f 29 3 16
f 29 16 22
f 29 22 26
f 29 26 10
f 29 10 3
f 30 2 12
f 32 18 8
f 32 8 24
f 32 24 13
f 32 13 18
f 33 24 17
f 34 25 15
f 34 27 21
f 34 15 27
f 35 17 25
f 35 25 34
f 37 28 2
f 37 2 30
f 37 30 23
f 37 23 33
f 37 33 17
f 37 17 28
f 39 5 13
f 40 33 23
f 40 31 39
f 40 23 38
f 41 28 17
f 41 17 35
f 41 21 28
f 41 35 34
f 41 34 21
f 42 30 12
f 42 23 30
f 43 36 12
f 43 12 5
f 43 38 23
f 43 23 42
f 44 39 31
f 44 5 39
f 44 31 40
f 44 40 38
f 45 39 13
f 45 13 24
f 46 24 33
f 46 40 39
f 46 33 40
f 46 45 24
f 46 39 45
f 47 42 12
f 47 12 36
f 47 43 42
f 47 36 43
f 48 43 5
f 48 38 43
f 48 44 38
f 48 5 44

