# https://github.com/mikedh/trimesh
v 0.02457768 -0.02564057 0.01940343
v 0.02402889 -0.05494609 0.01913547
v 0.02455278 -0.02564983 0.00036850
v 0.00129029 -0.02564368 0.00005376
v 0.00129356 -0.02564057 0.01940343
v 0.00150966 -0.05284158 0.00133169
v 0.02397525 -0.05165085 0.00175296
v 0.02149543 -0.05224330 0.00147515
v 0.00150890 -0.05733356 0.01664396
v 0.02127043 -0.05616736 0.00936580
v 0.00159826 -0.05707288 0.01909979
v 0.02345361 -0.05359282 0.00357220
v 0.01886176 -0.05630075 0.01895690
v 0.00156111 -0.05639272 0.00531078
v 0.02120558 -0.05623658 0.01403774
v 0.01641615 -0.05596083 0.00506280
f 1 2 3
f 1 3 4
f 5 2 1
f 5 1 4
f 7 3 2
f 8 6 4
f 8 4 3
f 8 3 7
f 9 5 4
f 9 4 6
f 11 2 5
f 11 5 9
f 12 8 7
f 12 7 2
f 12 2 10
f 13 11 9
f 13 2 11
f 14 9 6
f 15 10 2
f 15 2 13
f 15 13 9
f 15 9 10
f 16 10 9
f 16 9 14
f 16 12 10
f 16 8 12
f 16 14 6
f 16 6 8

