# https://github.com/mikedh/trimesh
v 0.01506045 -0.02502274 0.06836414
v 0.01379627 -0.02931999 0.06822917
v 0.01436888 -0.01292913 0.03722967
v -0.00400019 -0.01034892 0.03622862
v -0.00678733 -0.02431793 0.06862512
v -0.00651157 -0.03336135 0.05686434
v 0.01527954 -0.01712665 0.05485343
v 0.01419612 -0.03334322 0.05728398
v -0.00305948 -0.01534892 0.03919900
v -0.00778742 -0.01169480 0.03957011
v -0.00570395 -0.02870766 0.06838913
v 0.01516517 -0.01484332 0.04768776
v -0.00789784 -0.01468031 0.05225803
v 0.00159415 -0.03067414 0.06757584
v 0.01205291 -0.01605797 0.03885463
v -0.00678544 -0.01048546 0.03696733
v -0.00644176 -0.03330548 0.05904658
v -0.00765215 -0.01749940 0.05673243
v 0.01109154 -0.03065285 0.06742630
f 5 2 1
f 8 1 2
f 8 7 1
f 11 2 5
f 12 3 4
f 12 8 3
f 12 7 8
f 13 5 1
f 13 1 7
f 13 12 4
f 13 7 12
f 13 10 6
f 14 2 11
f 15 9 4
f 15 4 3
f 15 3 8
f 15 8 6
f 15 6 9
f 16 9 6
f 16 6 10
f 16 4 9
f 16 13 4
f 16 10 13
f 17 11 5
f 17 5 6
f 17 14 11
f 17 6 8
f 18 13 6
f 18 6 5
f 18 5 13
f 19 8 2
f 19 2 14
f 19 17 8
f 19 14 17

