# https://github.com/mikedh/trimesh
v -0.05123470 0.00433609 0.06572729
v -0.03850304 -0.02208631 0.04984337
v -0.03863558 0.02285724 0.05256138
v -0.03916083 0.02810993 0.00132039
v -0.05948468 -0.00779081 0.02169019
v -0.03842249 0.03518890 0.00484362
v -0.03852042 -0.01207744 0.05953916
v -0.06088522 -0.00528130 0.06451277
v -0.03871196 -0.03242818 0.00493027
v -0.05892327 0.01040172 0.02157217
v -0.03881797 0.01538819 0.05977787
v -0.03846414 0.03274273 0.03692365
v -0.05375036 -0.00294259 0.06574034
v -0.03884670 -0.01974710 0.05251996
v -0.04597653 -0.00951150 0.00171157
v -0.03876061 -0.03501679 0.01922564
v -0.03843144 -0.02717821 0.04204258
v -0.03877610 -0.02987471 0.00298549
v -0.04740368 0.01985243 0.00543878
v -0.05912556 0.00692381 0.01957131
v -0.06071072 0.00590387 0.06627672
v -0.03938339 0.00794608 0.06058742
v -0.06083255 -0.00346082 0.06651905
v -0.05135629 -0.00143143 0.06570851
v -0.03964305 -0.03370064 0.00967474
v -0.03869596 -0.03489273 0.00936326
v -0.03861486 -0.03230685 0.03194780
v -0.03858664 0.03277344 0.00302453
v -0.03913241 -0.02511482 0.00127780
v -0.04502601 -0.01938012 0.00362122
v -0.04212684 0.03177251 0.00749429
v -0.04560975 0.01503982 0.00161619
v -0.04993233 -0.00462458 0.00518023
v -0.05359699 0.00590342 0.06555170
v -0.06048221 0.00774005 0.06299915
v -0.04472248 0.00216886 0.06308165
v -0.04224640 -0.02899356 0.00748054
v -0.04523450 0.02240002 0.00369700
v -0.03995695 -0.02887833 0.00343427
v -0.04072238 -0.02461211 0.00201351
v -0.04722564 0.02212804 0.00726858
v -0.03871022 0.03537654 0.02950191
v -0.05008281 0.01017512 0.00552664
v -0.05915223 -0.00422961 0.01986097
v -0.04751101 -0.01199099 0.00357415
v -0.05826546 0.01176878 0.02571914
v -0.03940525 -0.00478336 0.06047420
v -0.03984645 -0.03141202 0.00556149
v -0.04713243 -0.01927868 0.00756298
v -0.04052545 0.02736859 0.00174605
v -0.03992018 0.03193911 0.00373433
v -0.04762774 0.01499211 0.00346610
v -0.03954942 0.03437660 0.00565279
v -0.04735037 -0.01679631 0.00571090
v -0.04219698 0.03171201 0.02410592
v -0.04314420 0.02260785 0.00181027
f 11 7 3
f 12 3 7
f 14 8 2
f 14 2 7
f 16 8 5
f 17 9 6
f 17 2 8
f 17 6 12
f 17 12 7
f 17 7 2
f 18 6 9
f 20 5 8
f 20 10 19
f 21 11 3
f 21 3 12
f 21 20 8
f 22 11 1
f 22 7 11
f 23 7 13
f 23 14 7
f 23 8 14
f 23 21 8
f 23 1 21
f 24 13 7
f 24 23 13
f 24 1 23
f 25 16 5
f 26 9 17
f 26 16 25
f 27 17 8
f 27 8 16
f 27 26 17
f 27 16 26
f 28 6 18
f 29 28 18
f 29 4 28
f 32 29 15
f 32 4 29
f 33 32 15
f 34 21 1
f 34 1 11
f 34 11 21
f 35 10 20
f 35 20 21
f 35 21 12
f 36 22 1
f 36 1 24
f 37 25 5
f 37 26 25
f 39 18 9
f 39 37 30
f 40 30 15
f 40 15 29
f 40 39 30
f 40 29 18
f 40 18 39
f 41 19 10
f 41 10 31
f 41 38 19
f 41 31 38
f 42 12 6
f 42 35 12
f 43 33 20
f 43 32 33
f 44 5 20
f 44 20 33
f 45 44 33
f 45 5 44
f 45 33 15
f 45 15 30
f 46 31 10
f 46 10 35
f 47 36 24
f 47 24 7
f 47 7 22
f 47 22 36
f 48 9 26
f 48 26 37
f 48 39 9
f 48 37 39
f 49 37 5
f 49 30 37
f 50 28 4
f 51 38 31
f 51 6 28
f 51 50 38
f 51 28 50
f 52 19 38
f 52 32 43
f 52 43 20
f 52 20 19
f 53 42 6
f 53 31 42
f 53 51 31
f 53 6 51
f 54 45 30
f 54 5 45
f 54 49 5
f 54 30 49
f 55 42 31
f 55 31 46
f 55 46 35
f 55 35 42
f 56 50 4
f 56 4 32
f 56 38 50
f 56 52 38
f 56 32 52

