# https://github.com/mikedh/trimesh
v 0.02384052 0.02802441 0.06965460
v 0.04748047 -0.02397400 0.03844453
v 0.04406718 0.02283147 0.06049457
v 0.02403029 0.05069314 0.03710295
v 0.02457768 -0.02305344 0.03751331
v 0.04326291 0.03724976 0.03668840
v 0.02542695 0.04127205 0.06080835
v 0.02865714 -0.02161766 0.06799973
v 0.02341733 -0.02633583 0.06733726
v 0.04608073 0.01331818 0.06107550
v 0.03559473 0.04422497 0.03648547
v 0.03551521 0.03375066 0.06061547
v 0.02365418 0.04212772 0.06087316
v 0.02344109 0.04945402 0.04196051
v 0.02412765 -0.02227337 0.06909748
v 0.03720059 -0.03304871 0.05537517
v 0.03423894 0.01435036 0.06933784
v 0.02615391 0.04982842 0.03681325
v 0.03156306 0.01912538 0.06963980
v 0.04116531 0.02748850 0.06048506
v 0.03269448 0.04116143 0.04923061
v 0.03515861 0.04362328 0.03880866
v 0.02347102 0.04689730 0.04953889
v 0.02535314 -0.02520498 0.06740530
v 0.02455205 -0.03077229 0.05743471
v 0.04262374 -0.02400339 0.05886887
v 0.03576505 -0.01174034 0.06838977
v 0.02533565 0.02665788 0.06956411
v 0.03999266 0.02912946 0.06023626
v 0.04279420 0.03671649 0.03890379
v 0.02531000 0.04611592 0.04921423
v 0.03648663 -0.03226986 0.05740797
v 0.04349591 -0.02690457 0.05444851
v 0.03107526 -0.01918917 0.06792940
v 0.03784142 -0.00917009 0.06736860
v 0.02773893 0.04366006 0.05152609
v 0.03828495 -0.02907264 0.05916278
v 0.02455701 -0.03078524 0.05911231
v 0.03880843 -0.03204699 0.05466924
v 0.04262368 -0.02628503 0.05644774
v 0.03807054 -0.03130710 0.05668726
f 6 2 5
f 10 6 3
f 10 2 6
f 11 6 5
f 12 7 1
f 13 1 7
f 13 9 1
f 14 4 5
f 14 5 9
f 15 1 9
f 16 5 2
f 17 10 3
f 18 11 5
f 18 5 4
f 18 4 14
f 19 17 3
f 19 1 15
f 19 15 17
f 20 3 6
f 20 19 3
f 21 7 12
f 22 6 11
f 22 21 12
f 23 14 9
f 23 9 13
f 23 13 7
f 24 15 9
f 24 8 15
f 25 9 5
f 25 5 16
f 27 17 15
f 28 12 1
f 28 1 19
f 28 20 12
f 28 19 20
f 29 12 20
f 30 22 12
f 30 6 22
f 30 12 29
f 30 29 20
f 30 20 6
f 31 18 14
f 31 14 23
f 31 11 18
f 31 23 7
f 33 2 10
f 33 10 26
f 34 27 15
f 34 15 8
f 34 26 27
f 35 27 26
f 35 26 10
f 35 10 17
f 35 17 27
f 36 22 11
f 36 11 31
f 36 21 22
f 36 31 7
f 36 7 21
f 37 24 9
f 37 9 32
f 37 8 24
f 37 34 8
f 37 26 34
f 38 25 16
f 38 16 32
f 38 32 9
f 38 9 25
f 39 16 2
f 39 2 33
f 40 37 33
f 40 33 26
f 40 26 37
f 41 39 33
f 41 33 37
f 41 37 32
f 41 32 16
f 41 16 39

