# https://github.com/mikedh/trimesh
v 0.04454911 0.02029327 0.06072945
v 0.05870602 -0.00094174 0.04810260
v 0.05562047 0.02176398 0.03182147
v 0.04636693 0.02427201 0.03270216
v 0.04512439 -0.03843306 0.03228085
v 0.04419213 0.02287317 0.06023581
v 0.04448388 -0.01996317 0.05953968
v 0.05555237 -0.02210167 0.03166188
v 0.04640492 -0.03724578 0.03184054
v 0.04364661 -0.03692652 0.03930523
v 0.05850744 0.00915415 0.04831919
v 0.04996876 0.00279813 0.05958093
v 0.05769746 0.01540633 0.04237947
v 0.04975690 -0.02384679 0.04636001
v 0.05072834 -0.03185451 0.03166470
v 0.04360941 -0.02442462 0.05699129
v 0.04494067 -0.03583169 0.03886653
v 0.04827431 0.01254893 0.06048299
v 0.04754674 -0.01428766 0.05894756
v 0.05632875 0.01789642 0.04047524
v 0.05233585 -0.02654823 0.03645725
v 0.04722885 -0.01882006 0.05637883
v 0.05022328 -0.03155900 0.03394598
v 0.04395101 -0.03219215 0.04699159
v 0.04571506 0.01978132 0.06048331
v 0.04770560 -0.00476519 0.06067213
v 0.04990362 -0.00453783 0.05886147
v 0.05501734 -0.02184489 0.03405998
v 0.04719127 -0.02626303 0.04885425
v 0.04533359 -0.01916193 0.05909327
v 0.04964213 -0.02175092 0.04880219
v 0.05001866 -0.01169773 0.05641624
v 0.04753764 -0.03121509 0.04136507
v 0.04482533 0.02180485 0.06023581
v 0.04825143 -0.00446515 0.06054417
v 0.05516814 -0.01717263 0.03930029
v 0.04472324 -0.02359653 0.05612738
v 0.04512692 -0.03121569 0.04630271
f 6 3 4
f 7 1 6
f 9 5 4
f 9 4 3
f 10 6 4
f 10 4 5
f 12 2 11
f 13 8 3
f 13 2 8
f 13 11 2
f 13 6 11
f 15 9 3
f 15 3 8
f 16 7 6
f 16 6 10
f 17 10 5
f 17 5 9
f 18 12 11
f 20 13 3
f 20 3 6
f 20 6 13
f 21 2 14
f 21 15 8
f 23 17 9
f 23 9 15
f 23 15 21
f 24 16 10
f 24 10 17
f 25 18 11
f 25 6 1
f 25 1 18
f 26 18 1
f 26 1 7
f 27 19 2
f 27 2 12
f 28 21 8
f 28 8 2
f 30 7 16
f 30 22 19
f 30 19 7
f 31 14 2
f 31 2 22
f 31 29 14
f 31 22 29
f 32 22 2
f 32 2 19
f 32 19 22
f 33 17 23
f 33 23 21
f 33 21 14
f 33 14 29
f 34 25 11
f 34 11 6
f 34 6 25
f 35 12 18
f 35 18 26
f 35 27 12
f 35 19 27
f 35 26 7
f 35 7 19
f 36 28 2
f 36 2 21
f 36 21 28
f 37 29 22
f 37 16 29
f 37 30 16
f 37 22 30
f 38 29 16
f 38 16 24
f 38 33 29
f 38 24 17
f 38 17 33

