# https://github.com/mikedh/trimesh
v 0.07576423 0.00694503 0.05559689
v 0.08513837 -0.00004474 0.04975100
v 0.08040862 0.00830531 0.05317510
v 0.05715759 0.01982803 0.03217375
v 0.05745106 -0.00999192 0.03476010
v 0.08441792 0.00431408 0.04927769
v 0.05698626 0.01895533 0.03691226
v 0.07520286 -0.00205348 0.05563676
v 0.07132316 0.00002779 0.03457574
v 0.08353738 0.00549637 0.05099429
v 0.05768163 0.01653510 0.04115050
v 0.05674717 -0.00644752 0.04435882
v 0.07973362 -0.00403268 0.05289996
v 0.05815239 -0.00971103 0.03176254
v 0.07056769 0.00882581 0.03379683
v 0.06398684 0.01554959 0.03269642
v 0.05850744 0.00915415 0.04831919
v 0.05798050 -0.01008370 0.03228990
v 0.08212614 -0.00236215 0.04739995
v 0.08483565 -0.00130942 0.04930935
v 0.05921350 0.01840778 0.03209670
v 0.06976243 0.00821158 0.05275851
v 0.07039831 0.00133216 0.05559122
v 0.08227852 -0.00342691 0.05104005
v 0.07210223 0.00603517 0.05547234
v 0.05870602 -0.00094174 0.04810260
v 0.07277465 -0.00076932 0.05596813
v 0.08489392 -0.00132425 0.04964791
v 0.07027062 0.00417485 0.05545178
f 7 3 4
f 8 3 1
f 10 3 2
f 10 2 6
f 11 1 3
f 11 3 7
f 12 7 4
f 12 4 5
f 13 2 3
f 13 3 8
f 13 12 5
f 13 8 12
f 15 6 2
f 15 9 14
f 16 10 6
f 16 4 3
f 16 3 10
f 16 6 15
f 16 15 14
f 17 11 7
f 17 7 12
f 18 5 4
f 18 4 14
f 18 13 5
f 19 14 9
f 19 18 14
f 20 15 2
f 20 9 15
f 20 19 9
f 21 16 14
f 21 14 4
f 21 4 16
f 22 1 11
f 22 11 17
f 24 13 18
f 24 18 19
f 24 19 20
f 25 22 17
f 25 1 22
f 26 23 17
f 26 17 12
f 27 12 8
f 27 8 1
f 27 1 25
f 27 26 12
f 27 23 26
f 28 24 20
f 28 20 2
f 28 2 13
f 28 13 24
f 29 25 17
f 29 17 23
f 29 27 25
f 29 23 27

