# https://github.com/mikedh/trimesh
v -0.01580624 0.02991878 0.06952527
v -0.00582804 -0.02909768 0.06779441
v -0.00389429 0.01837053 0.03745131
v -0.03521263 0.03706220 0.03669522
v -0.03718655 -0.01657595 0.05879066
v -0.01622243 0.05062531 0.03715954
v -0.00755524 0.02018534 0.05232401
v -0.02821008 -0.00688229 0.06808137
v -0.01632369 -0.04787223 0.03715899
v -0.00411647 0.01617413 0.03648044
v -0.02048945 0.04176330 0.06020067
v -0.00445666 0.01945423 0.03987293
v -0.01632714 0.04351847 0.06082534
v -0.01793635 -0.02127979 0.06841468
v -0.03772139 -0.03155028 0.03656023
v -0.02767421 0.04418233 0.03670120
v -0.00305948 -0.01534892 0.03919900
v -0.03770578 0.01757189 0.06042681
v -0.01575530 0.04948710 0.04195645
v -0.01844312 0.04265401 0.06063643
v -0.02576042 -0.01185435 0.06816973
v -0.00641836 -0.02806486 0.06857947
v -0.02053884 -0.03588004 0.05799997
v -0.02051401 -0.04615864 0.03650254
v -0.01831972 0.04973343 0.03690800
v -0.02734531 0.03639847 0.05988958
v -0.00651157 -0.03336135 0.05686434
v -0.02685992 0.01760509 0.06884658
v -0.03900395 0.01051127 0.06064813
v -0.01572020 0.04702016 0.04961702
v -0.02299099 0.03970839 0.06054620
v -0.03476096 -0.02133234 0.05848357
v -0.02468948 0.02159169 0.06920479
v -0.01568259 -0.04390988 0.04920441
v -0.01077750 -0.02653255 0.06839924
v -0.01578362 -0.03930924 0.05699702
v -0.02482506 -0.04081406 0.04415275
v -0.02237305 0.04616146 0.04151496
v -0.01781957 0.04862926 0.04167820
v -0.03449929 0.02689216 0.05942921
v -0.00644176 -0.03330548 0.05904658
v -0.03846414 0.03274273 0.03692365
v -0.03688522 -0.02347768 0.05168190
v -0.03661465 0.02203606 0.05981145
v -0.03046262 0.03275607 0.06012020
v -0.01726180 0.02900373 0.06928889
v -0.01573375 -0.04662915 0.04202490
v -0.01528297 -0.02370828 0.06832486
v -0.01997827 -0.04050836 0.05101194
v -0.02769597 -0.04127845 0.03651711
v -0.03202887 -0.02830857 0.05430459
v -0.02016234 -0.04300234 0.04638124
v -0.03455772 -0.02358816 0.05662194
v -0.01793347 -0.03842059 0.05665195
v -0.02462879 -0.03555069 0.05397384
v -0.03714185 -0.03109565 0.03877219
v -0.01772788 -0.04313655 0.04870742
v -0.01788321 -0.04572531 0.04173163
v -0.03683506 -0.02850465 0.04382479
f 7 1 2
f 10 6 3
f 12 7 2
f 12 2 3
f 13 1 7
f 13 7 12
f 15 4 10
f 16 10 4
f 17 10 3
f 17 3 2
f 17 9 10
f 19 12 3
f 19 3 6
f 20 1 13
f 20 13 19
f 21 8 5
f 22 2 1
f 24 10 9
f 25 6 10
f 25 10 16
f 26 16 4
f 27 9 17
f 29 5 8
f 29 28 18
f 29 8 28
f 29 15 5
f 30 19 13
f 30 13 12
f 30 12 19
f 31 20 11
f 31 1 20
f 31 11 16
f 31 16 26
f 32 21 5
f 32 14 21
f 32 23 14
f 33 22 1
f 33 14 22
f 33 21 14
f 33 28 8
f 33 8 21
f 35 22 14
f 36 2 22
f 36 35 23
f 36 22 35
f 36 34 2
f 38 25 16
f 38 16 11
f 39 20 19
f 39 19 6
f 39 6 25
f 39 11 20
f 39 38 11
f 39 25 38
f 41 27 17
f 41 17 2
f 41 2 34
f 41 9 27
f 42 29 18
f 42 4 15
f 42 15 29
f 43 5 15
f 44 18 28
f 44 28 33
f 44 42 18
f 44 40 42
f 45 33 31
f 45 31 26
f 45 42 40
f 45 26 4
f 45 4 42
f 45 44 33
f 45 40 44
f 46 33 1
f 46 1 31
f 46 31 33
f 47 24 9
f 47 41 34
f 47 9 41
f 48 35 14
f 48 14 23
f 48 23 35
f 50 37 15
f 50 24 37
f 50 15 10
f 50 10 24
f 52 37 24
f 52 47 34
f 53 32 5
f 53 5 43
f 53 51 23
f 53 23 32
f 54 36 23
f 54 23 49
f 54 34 36
f 55 49 23
f 55 52 49
f 55 37 52
f 55 51 37
f 55 23 51
f 56 15 37
f 56 37 51
f 57 52 34
f 57 49 52
f 57 54 49
f 57 34 54
f 58 52 24
f 58 24 47
f 58 47 52
f 59 56 51
f 59 51 53
f 59 53 43
f 59 43 15
f 59 15 56

