# https://github.com/mikedh/trimesh
v 0.02297864 0.02886061 0.06950000
v 0.02556802 0.02196339 0.06928881
v 0.02403029 0.05069314 0.03710295
v -0.01622243 0.05062531 0.03715954
v -0.01818154 0.02228009 0.06914061
v 0.02223880 0.00282753 0.03708610
v 0.01079622 0.04678663 0.06084777
v 0.02365418 0.04212772 0.06087316
v -0.01580624 0.02991878 0.06952527
v 0.02525642 0.00287797 0.05024778
v 0.02103104 0.05197564 0.03672082
v -0.01176723 0.01424280 0.03925350
v 0.01336647 0.03381991 0.06966935
v -0.01536618 0.04424530 0.06078862
v 0.02399650 0.00280650 0.03780169
v -0.01326663 0.05188112 0.03688023
v 0.02312704 0.04625443 0.05163313
v -0.01821768 0.01115039 0.05719925
v 0.01859102 0.04450882 0.06070849
v -0.00841933 0.04665543 0.06081143
v 0.00884310 0.05464401 0.03696210
v -0.01313493 0.05132597 0.03932940
v 0.02321187 0.04884969 0.04429678
v -0.01718495 0.01073124 0.05540600
v -0.00848370 0.03360915 0.06940217
v 0.01600683 0.05133483 0.04420686
v -0.00106535 0.05457034 0.03694257
v -0.00100825 0.05401456 0.03936413
v -0.01360352 0.03135945 0.06953898
v 0.01107969 0.05144922 0.04675883
v 0.02075156 0.05135439 0.03912972
v -0.00580806 0.05117212 0.04675714
v 0.00874716 0.05407632 0.03930299
f 8 1 2
f 8 2 3
f 9 5 2
f 10 3 2
f 10 2 5
f 11 3 6
f 12 4 6
f 13 1 8
f 13 9 2
f 13 2 1
f 14 4 5
f 14 5 9
f 15 10 6
f 15 6 3
f 15 3 10
f 16 11 6
f 16 6 4
f 17 8 3
f 18 5 4
f 18 4 12
f 18 10 5
f 19 13 8
f 19 7 13
f 19 8 17
f 20 13 7
f 22 16 4
f 22 4 14
f 22 14 20
f 23 17 3
f 23 3 11
f 24 18 12
f 24 12 6
f 24 6 10
f 24 10 18
f 25 20 14
f 25 13 20
f 26 11 21
f 26 7 19
f 26 19 17
f 26 17 23
f 27 21 11
f 27 11 16
f 28 20 7
f 28 21 27
f 28 27 16
f 28 16 22
f 29 25 14
f 29 14 9
f 29 9 13
f 29 13 25
f 30 7 26
f 31 26 23
f 31 23 11
f 31 11 26
f 32 28 22
f 32 22 20
f 32 20 28
f 33 30 26
f 33 26 21
f 33 21 28
f 33 28 7
f 33 7 30

