# https://github.com/mikedh/trimesh
v 0.02457768 -0.02564057 0.03751331
v 0.02413985 -0.05012936 0.03702785
v 0.00129029 -0.02564368 0.00005376
v -0.03913241 -0.02511482 0.00127780
v -0.04011075 -0.02564691 0.03751701
v 0.00156111 -0.05639272 0.00531078
v 0.02457768 -0.02564057 0.01940343
v 0.00150966 -0.05284158 0.00133169
v -0.02752221 -0.04593729 0.00976828
v 0.02402889 -0.05494609 0.01913547
v -0.03712130 -0.03631464 0.00759232
v -0.01306573 -0.05133744 0.00356499
v -0.01035444 -0.05075292 0.03644786
v -0.03493818 -0.03876837 0.02640549
v -0.03797449 -0.03183470 0.00359307
v -0.00568783 -0.05394753 0.00360598
v -0.02595716 -0.04205371 0.00190464
v 0.01374347 -0.05362226 0.03399675
v -0.03721746 -0.03639064 0.02415340
v -0.02511543 -0.04334974 0.03641044
v -0.01287629 -0.04952829 0.00170788
v -0.01310946 -0.05345584 0.01904577
v -0.03562257 -0.03194551 0.00180307
v -0.02518375 -0.04603386 0.00551614
v -0.03006957 -0.04113045 0.00388659
v 0.01857110 -0.05347695 0.03142158
v 0.02116935 -0.05118258 0.03652774
v 0.01651085 -0.05668010 0.01903000
v -0.03772139 -0.03155028 0.03656023
v -0.02274080 -0.04840836 0.02411313
v -0.00573813 -0.05175586 0.00163629
v -0.02284268 -0.04618257 0.00371028
v -0.01318684 -0.05362048 0.00970737
v -0.03861812 -0.02745696 0.00168436
v -0.03483807 -0.03611676 0.00384693
v -0.03014254 -0.04327921 0.00758610
v 0.02356077 -0.05347324 0.02625196
v -0.00094929 -0.05357646 0.03414237
v 0.02372164 -0.05125361 0.03407335
v 0.01380045 -0.05617761 0.02396841
v 0.01643138 -0.05628121 0.02148877
v -0.03703246 -0.03364114 0.03394136
v -0.03249991 -0.04113719 0.02634534
v -0.01548225 -0.05090071 0.02899714
v -0.01803983 -0.05104510 0.00738827
v -0.00321078 -0.05616544 0.00718502
v -0.01790587 -0.05095549 0.02398766
v -0.00812810 -0.05331880 0.02899114
v 0.00160666 -0.05629106 0.02396590
v -0.02979211 -0.04068606 0.03368700
v -0.02516236 -0.04583090 0.02887140
v -0.02763788 -0.04574816 0.02151277
v -0.02032470 -0.04805115 0.03116617
v -0.01051823 -0.05348085 0.00540412
v -0.02274066 -0.04843788 0.00742104
v -0.00081078 -0.05617335 0.00543859
v -0.00314469 -0.05622911 0.01904026
v -0.00562243 -0.05341177 0.03161721
f 5 2 1
f 5 1 4
f 7 3 4
f 7 4 1
f 7 1 2
f 8 4 3
f 10 8 3
f 10 3 7
f 10 7 2
f 10 6 8
f 13 2 5
f 14 11 9
f 15 11 5
f 15 5 4
f 16 8 6
f 19 5 11
f 19 11 14
f 20 13 5
f 21 16 12
f 21 17 4
f 21 4 8
f 23 4 17
f 25 23 17
f 27 2 13
f 27 18 26
f 28 6 10
f 29 5 19
f 29 20 5
f 31 21 8
f 31 8 16
f 31 16 21
f 32 21 12
f 32 17 21
f 32 25 17
f 32 24 25
f 34 23 15
f 34 15 4
f 34 4 23
f 35 25 11
f 35 11 15
f 35 15 23
f 35 23 25
f 36 25 24
f 36 24 9
f 36 9 11
f 36 11 25
f 37 10 2
f 38 27 13
f 38 18 27
f 39 27 26
f 39 2 27
f 39 37 2
f 39 26 37
f 40 26 18
f 41 28 10
f 41 40 28
f 41 26 40
f 41 37 26
f 41 10 37
f 42 29 19
f 42 19 14
f 43 14 9
f 43 42 14
f 45 32 12
f 45 24 32
f 45 33 30
f 45 30 9
f 47 33 22
f 47 30 33
f 47 22 44
f 48 44 22
f 48 13 44
f 49 40 18
f 49 18 38
f 49 28 40
f 50 20 29
f 50 29 42
f 50 43 20
f 50 42 43
f 51 20 43
f 52 43 9
f 52 9 30
f 52 51 43
f 52 30 51
f 53 44 13
f 53 13 20
f 53 20 51
f 53 51 30
f 53 47 44
f 53 30 47
f 54 45 12
f 54 12 16
f 54 46 33
f 54 33 45
f 55 45 9
f 55 9 24
f 55 24 45
f 56 16 6
f 56 6 46
f 56 54 16
f 56 46 54
f 57 22 33
f 57 33 46
f 57 46 6
f 57 6 28
f 57 28 49
f 57 48 22
f 58 38 13
f 58 13 48
f 58 49 38
f 58 57 49
f 58 48 57

