# https://github.com/mikedh/trimesh
v 0.04326291 0.03724976 0.03668840
v 0.04650861 -0.02631953 0.03804199
v 0.04525154 -0.02565756 0.00058808
v -0.03060686 0.03981026 0.00188289
v -0.04011075 -0.02564691 0.03751701
v 0.03631490 0.04253584 0.00193044
v 0.04375833 0.03514406 0.00179541
v -0.00585012 0.05397129 0.03675403
v -0.03913241 -0.02511482 0.00127780
v 0.02123430 0.05014345 0.00168810
v 0.04292097 0.04171570 0.00731495
v 0.01363698 0.05404528 0.03671770
v -0.03737549 0.03445988 0.03648602
v -0.03861281 0.03008485 0.00168409
v -0.00101409 0.05673741 0.00729368
v 0.04291362 0.03923714 0.00385432
v 0.02813402 0.05127973 0.00555281
v -0.02516523 0.04891130 0.02165718
v -0.02767421 0.04418233 0.03670120
v -0.00110172 0.05284842 0.00187551
v 0.00882982 0.05677007 0.02668995
v 0.03322548 0.04681561 0.00356879
v 0.01378948 0.05426537 0.00349993
v 0.02817349 0.05112793 0.02897310
v -0.03494100 0.04156565 0.01185460
v -0.00582781 0.05683370 0.01661722
v -0.01540435 0.05111059 0.03665366
v -0.02358994 0.04518733 0.00187255
v 0.02369118 0.05189219 0.00372712
v 0.04045252 0.04168898 0.00392156
v 0.03777297 0.04636792 0.00775362
v 0.01626601 0.05661591 0.00975647
v -0.00581944 0.05434355 0.00386853
v 0.01156683 0.05264337 0.00185086
v 0.03282293 0.04627966 0.03634296
v 0.02351342 0.05392381 0.02412139
v -0.03743822 0.03691231 0.00546366
v -0.03490590 0.04155555 0.01914143
v 0.00153160 0.05671488 0.02667892
v -0.02270496 0.04879486 0.03157278
v -0.01314722 0.05405427 0.02421392
v -0.02055149 0.05148249 0.00951460
v 0.03299950 0.04866466 0.00575638
v 0.03766136 0.04645241 0.02399546
v 0.02108597 0.05395877 0.00554328
v 0.01133282 0.05674746 0.00749739
v -0.01356535 0.05007941 0.00193876
v 0.02317760 0.05127669 0.03642176
v 0.01368084 0.05683156 0.02167642
v 0.03072574 0.05140705 0.00955655
v -0.03723568 0.03660363 0.03162194
v -0.03768701 0.03469598 0.00356630
v -0.03020429 0.04396294 0.00537185
v -0.02758323 0.04620809 0.02912055
v -0.00343138 0.05682447 0.02168150
v -0.02031478 0.04880637 0.03663305
v -0.02046678 0.05144719 0.02176783
v -0.01058464 0.05388046 0.03172941
v -0.02546310 0.04870214 0.00961050
v -0.01317156 0.05404501 0.00738978
v 0.04249493 0.04154019 0.02641012
v 0.03532116 0.04642503 0.03134707
v 0.03046005 0.04861301 0.03377077
v 0.02100916 0.05389590 0.02911646
f 7 1 2
f 7 2 3
f 8 5 2
f 9 3 2
f 9 2 5
f 10 7 3
f 10 6 7
f 11 1 7
f 12 8 2
f 12 2 1
f 14 3 9
f 14 10 3
f 14 9 5
f 14 5 13
f 16 11 7
f 16 7 6
f 19 13 5
f 19 5 8
f 20 10 14
f 21 8 12
f 22 6 10
f 27 19 8
f 28 20 14
f 28 14 4
f 29 22 10
f 29 17 22
f 29 10 23
f 30 16 6
f 30 6 22
f 30 11 16
f 31 11 30
f 33 23 20
f 33 15 23
f 34 23 10
f 34 10 20
f 34 20 23
f 38 18 25
f 38 25 37
f 39 8 21
f 43 22 17
f 43 31 30
f 43 30 22
f 44 11 31
f 45 29 23
f 45 17 29
f 46 23 15
f 46 15 26
f 46 45 23
f 46 32 45
f 47 33 20
f 47 20 28
f 48 12 1
f 48 1 35
f 49 21 12
f 49 36 32
f 49 32 46
f 49 46 26
f 50 32 36
f 50 45 32
f 50 17 45
f 50 43 17
f 50 31 43
f 50 44 31
f 50 36 24
f 50 24 44
f 51 37 14
f 51 14 13
f 51 38 37
f 51 13 19
f 52 4 14
f 52 14 37
f 53 28 4
f 53 52 37
f 53 4 52
f 53 37 25
f 54 18 38
f 54 40 18
f 54 19 40
f 54 51 19
f 54 38 51
f 55 8 39
f 55 39 21
f 55 49 26
f 55 21 49
f 56 40 19
f 56 19 27
f 56 27 40
f 57 40 27
f 57 27 41
f 57 18 40
f 57 42 18
f 57 41 26
f 57 26 42
f 58 41 27
f 58 27 8
f 58 8 55
f 58 55 26
f 58 26 41
f 59 25 18
f 59 18 42
f 59 53 25
f 59 42 53
f 60 42 26
f 60 26 15
f 60 15 33
f 60 33 47
f 60 47 28
f 60 53 42
f 60 28 53
f 61 1 11
f 61 11 44
f 62 44 24
f 62 61 44
f 62 35 1
f 62 1 61
f 63 48 35
f 63 24 48
f 63 62 24
f 63 35 62
f 64 12 48
f 64 49 12
f 64 36 49
f 64 48 24
f 64 24 36

