# https://github.com/mikedh/trimesh
v -0.06071072 0.00590387 0.06627672
v -0.06083255 -0.00346082 0.06651905
v -0.05970537 -0.00822078 0.02262678
v -0.05951045 0.00940192 0.02110114
v -0.08362675 -0.00097490 0.03868033
v -0.08145208 0.00399536 0.05621054
v -0.07923630 -0.00501246 0.05646050
v -0.07441834 0.00066020 0.02768726
v -0.06983380 0.00411449 0.06550158
v -0.07590602 0.00792665 0.03504889
v -0.08188330 -0.00438734 0.04097396
v -0.06088522 -0.00528130 0.06451277
v -0.08390046 -0.00144119 0.05210057
v -0.06417154 -0.00121756 0.02226933
v -0.07698307 -0.00116870 0.02995235
v -0.06549595 0.00567457 0.06587360
v -0.07435357 -0.00323349 0.06302698
v -0.08350808 0.00403895 0.03858726
v -0.05986436 -0.00871348 0.02476568
v -0.08160267 -0.00475209 0.05222593
v -0.08380209 -0.00296877 0.04988612
v -0.06424097 0.00640367 0.02268538
v -0.05968522 -0.00669822 0.02114146
v -0.08147728 -0.00273622 0.03650851
v -0.07234221 0.00533671 0.06332556
v -0.06992337 -0.00304462 0.06533630
v -0.07011115 -0.00503491 0.06355168
v -0.08111531 -0.00322859 0.05617535
v -0.08141972 0.00560631 0.05421172
v -0.08112037 0.00409791 0.03418117
v -0.07940477 -0.00438530 0.03620310
v -0.08338941 -0.00298274 0.04113669
v -0.06911940 0.00614429 0.02516711
v -0.06929197 -0.00103993 0.02513175
v -0.08131867 -0.00108585 0.03447196
v -0.07463208 0.00415848 0.06293684
v -0.07461558 -0.00515786 0.06104994
v -0.08156542 0.00541424 0.03620464
v -0.08364373 0.00366381 0.05221601
v -0.07505145 -0.00414744 0.03158708
v -0.07414398 0.00447012 0.02773479
v -0.07494886 0.00728381 0.03111939
v -0.06966673 0.00738171 0.02678944
f 1 2 3
f 1 3 4
f 10 1 4
f 12 3 2
f 16 9 2
f 16 2 1
f 16 1 10
f 18 5 13
f 19 3 12
f 20 19 7
f 20 11 19
f 21 13 5
f 21 11 20
f 22 4 14
f 23 14 4
f 23 4 3
f 23 3 15
f 23 15 8
f 25 9 16
f 26 2 9
f 26 9 17
f 27 26 17
f 27 12 2
f 27 2 26
f 28 20 7
f 28 21 20
f 28 13 21
f 28 17 6
f 28 6 13
f 29 25 16
f 29 16 10
f 30 5 18
f 30 8 15
f 31 19 11
f 31 3 19
f 31 11 24
f 31 24 15
f 32 21 5
f 32 11 21
f 32 24 11
f 32 5 24
f 33 22 14
f 33 14 8
f 33 4 22
f 34 23 8
f 34 8 14
f 34 14 23
f 35 24 5
f 35 15 24
f 35 30 15
f 35 5 30
f 36 17 9
f 36 9 25
f 36 6 17
f 36 29 6
f 36 25 29
f 37 27 17
f 37 7 19
f 37 19 12
f 37 12 27
f 37 28 7
f 37 17 28
f 38 29 10
f 38 18 29
f 38 30 18
f 39 29 18
f 39 18 13
f 39 13 6
f 39 6 29
f 40 31 15
f 40 15 3
f 40 3 31
f 41 33 8
f 41 8 30
f 42 38 10
f 42 10 4
f 42 41 30
f 42 30 38
f 43 42 4
f 43 4 33
f 43 33 41
f 43 41 42

