# https://github.com/mikedh/trimesh
v 0.04523018 0.02349055 0.05560254
v 0.05617477 0.02218914 0.02684913
v 0.04399135 0.04047714 0.02433742
v 0.04442649 0.03318647 0.00138692
v 0.04519818 0.02341022 0.00062793
v 0.05267102 0.02936157 0.00715378
v 0.04395662 0.02771107 0.05246827
v 0.04610646 0.02255800 0.05480911
v 0.04998061 0.03424458 0.01901371
v 0.04403756 0.04043151 0.00698942
v 0.05373350 0.02268639 0.00314795
v 0.04428240 0.02548116 0.05514815
v 0.04383929 0.03760575 0.00325465
v 0.04994371 0.03188399 0.02919672
v 0.05520287 0.02470506 0.00722263
v 0.05000628 0.03418526 0.00979070
v 0.04539521 0.03925188 0.00751243
v 0.04981782 0.02312722 0.00127304
v 0.04849530 0.02239670 0.04961425
v 0.04362083 0.03262741 0.04455980
v 0.05063350 0.02953730 0.00390226
v 0.04749986 0.03651297 0.02402742
v 0.05238229 0.02937975 0.02402756
v 0.05608977 0.02264987 0.00711943
v 0.04766961 0.03661656 0.00753848
v 0.04955208 0.02549505 0.00164760
v 0.05369407 0.02225641 0.03676837
v 0.04751582 0.02432878 0.04927533
v 0.04518283 0.02456981 0.05437732
v 0.04381251 0.03769456 0.03436078
v 0.04602071 0.03251898 0.00190368
v 0.05321864 0.02474789 0.00368646
v 0.04516704 0.03921683 0.02407377
v 0.05035852 0.03189790 0.00562861
v 0.04529944 0.03679988 0.00391478
v 0.05245692 0.02680001 0.03159302
v 0.05259551 0.02420518 0.03636546
v 0.04496855 0.02670897 0.05179952
v 0.04499434 0.03656653 0.03388374
v 0.04378931 0.03523060 0.03947381
v 0.04464106 0.03153888 0.04400222
f 8 1 5
f 12 7 5
f 12 5 1
f 13 4 5
f 13 3 10
f 15 9 2
f 15 6 9
f 16 9 6
f 17 10 3
f 17 3 9
f 17 9 16
f 18 11 5
f 18 5 4
f 19 8 5
f 19 5 11
f 19 11 2
f 20 13 5
f 20 5 7
f 22 14 9
f 23 14 2
f 23 2 9
f 23 9 14
f 24 15 2
f 24 2 11
f 25 17 16
f 25 16 6
f 26 18 4
f 26 11 18
f 27 19 2
f 28 19 27
f 29 12 1
f 29 1 8
f 29 8 19
f 29 19 28
f 30 3 13
f 30 13 20
f 31 21 11
f 31 4 13
f 31 26 4
f 31 11 26
f 32 11 21
f 32 24 11
f 32 15 24
f 32 6 15
f 33 22 9
f 33 9 3
f 34 25 6
f 34 32 21
f 34 6 32
f 35 10 17
f 35 17 25
f 35 25 34
f 35 13 10
f 35 34 21
f 35 31 13
f 35 21 31
f 36 27 2
f 36 2 14
f 37 28 27
f 37 36 14
f 37 27 36
f 38 7 12
f 38 29 28
f 38 12 29
f 38 28 37
f 38 20 7
f 39 14 22
f 39 22 33
f 39 33 3
f 39 3 30
f 39 37 14
f 40 39 30
f 40 30 20
f 41 40 20
f 41 20 38
f 41 38 37
f 41 37 39
f 41 39 40

