# https://github.com/mikedh/trimesh
v 0.03679102 -0.03009205 0.05948448
v 0.04533396 -0.02308777 0.05565987
v -0.01702103 -0.02334562 0.05702262
v -0.01681631 -0.02305344 0.03751331
v 0.02625794 -0.04940078 0.03670770
v 0.04299592 -0.03885163 0.03649971
v -0.00571769 -0.04339716 0.05651728
v 0.04244921 -0.03088288 0.05117550
v 0.03036869 -0.04052485 0.05123568
v -0.01326376 -0.04944299 0.03678897
v 0.04748047 -0.02397400 0.03844453
v -0.01704896 -0.03359832 0.05944520
v 0.04255613 -0.03574517 0.04366329
v 0.04256490 -0.02866041 0.05379845
v 0.03566627 -0.04356425 0.03889869
v 0.01113491 -0.04574338 0.05389082
v -0.00822263 -0.05141624 0.03673589
v 0.02101070 -0.04058978 0.05864164
v -0.01511824 -0.04307210 0.05117340
v -0.01632369 -0.04787223 0.03715899
v 0.03753460 -0.03573672 0.05107250
v 0.03600233 -0.03154570 0.05883241
v 0.03055685 -0.04564401 0.04113908
v 0.03614057 -0.04414850 0.03670161
v 0.04252307 -0.03829527 0.03873447
v 0.01880418 -0.05175673 0.03669777
v 0.00420537 -0.04840179 0.04908009
v -0.01050480 -0.04087254 0.05813989
v -0.01075887 -0.04826139 0.04391657
v -0.01552437 -0.04602829 0.04436009
v 0.03291300 -0.04304973 0.04356940
v 0.03049539 -0.03582531 0.05863681
v 0.02579431 -0.04554315 0.04615820
v 0.00158348 -0.04581808 0.05396487
v 0.01369327 -0.05103509 0.04146807
v -0.01534421 -0.03851851 0.05830377
v -0.00329098 -0.05080937 0.04144677
v -0.01270366 -0.04813411 0.04172193
v 0.02789151 -0.04052121 0.05388589
v 0.02595545 -0.04865073 0.03900238
v 0.01844396 -0.04553836 0.05128357
v 0.01113173 -0.04823541 0.04895004
v -0.00812878 -0.05074008 0.03892704
v -0.00593048 -0.04826204 0.04640236
v 0.02563534 -0.04297221 0.05136744
v 0.01864907 -0.05099429 0.03892823
v 0.02099553 -0.04839608 0.04385325
f 1 2 3
f 3 2 4
f 10 4 6
f 11 6 4
f 11 4 2
f 11 2 6
f 12 1 3
f 12 3 4
f 13 6 2
f 13 2 8
f 14 8 2
f 14 2 1
f 17 10 6
f 18 1 12
f 18 7 16
f 20 12 4
f 20 4 10
f 21 13 8
f 21 15 13
f 22 14 1
f 22 8 14
f 22 21 8
f 24 5 6
f 24 23 5
f 24 15 23
f 25 6 13
f 25 13 15
f 25 24 6
f 25 15 24
f 26 17 6
f 26 6 5
f 28 18 12
f 28 7 18
f 28 19 7
f 29 7 19
f 29 10 17
f 30 12 20
f 30 29 19
f 30 20 10
f 31 21 9
f 31 15 21
f 31 23 15
f 31 9 23
f 32 9 21
f 32 21 22
f 32 22 1
f 32 1 18
f 34 27 16
f 34 16 7
f 35 17 26
f 36 28 12
f 36 19 28
f 36 30 19
f 36 12 30
f 37 35 27
f 37 17 35
f 38 30 10
f 38 10 29
f 38 29 30
f 39 32 18
f 39 9 32
f 39 23 9
f 40 5 23
f 40 23 33
f 41 18 16
f 42 16 27
f 42 27 35
f 42 41 16
f 43 37 29
f 43 29 17
f 43 17 37
f 44 37 27
f 44 27 34
f 44 34 7
f 44 7 29
f 44 29 37
f 45 39 18
f 45 33 23
f 45 23 39
f 45 18 41
f 46 26 5
f 46 5 40
f 46 35 26
f 47 42 35
f 47 41 42
f 47 35 46
f 47 45 41
f 47 33 45
f 47 46 40
f 47 40 33

