# https://github.com/mikedh/trimesh
v 0.02559499 -0.01893617 0.06911831
v 0.02500883 -0.03389797 0.05683343
v 0.02399650 0.00280650 0.03780169
v 0.02223880 0.00282753 0.03708610
v 0.01397643 -0.02985513 0.06775993
v 0.02457768 -0.02305344 0.03751331
v 0.02473752 0.00304454 0.04759613
v 0.02341733 -0.02633583 0.06733726
v 0.01205291 -0.01605797 0.03885463
v 0.01506045 -0.02502274 0.06836414
v 0.02477868 0.00283440 0.04784237
v 0.02462083 -0.03351512 0.05913664
v 0.02112022 -0.02673708 0.06804545
v 0.01443384 -0.01034244 0.03635991
v 0.01419612 -0.03334322 0.05728398
v 0.01420801 -0.02781642 0.06858523
v 0.02381268 -0.02464739 0.06822052
v 0.02052685 -0.02804544 0.06737367
v 0.01356114 -0.03039982 0.06195601
f 6 4 3
f 6 1 2
f 7 3 4
f 11 6 3
f 11 3 7
f 11 1 6
f 11 10 1
f 11 7 10
f 12 2 1
f 14 4 6
f 14 6 9
f 14 7 4
f 14 10 7
f 14 9 10
f 15 9 6
f 15 6 2
f 15 12 5
f 15 2 12
f 16 1 10
f 16 5 13
f 16 10 9
f 16 9 5
f 17 12 1
f 17 8 12
f 17 13 8
f 17 16 13
f 17 1 16
f 18 12 8
f 18 8 13
f 18 13 5
f 18 5 12
f 19 15 5
f 19 5 9
f 19 9 15

