# https://github.com/mikedh/trimesh
v 0.02380521 0.02083808 0.02725801
v 0.02960508 -0.00278208 0.02730507
v 0.01611343 0.00750475 0.00104847
v -0.01446467 0.01196092 0.00117234
v -0.02905157 -0.00713625 0.02724338
v 0.00444237 0.02744433 0.01259587
v 0.02596677 0.01018854 0.01556165
v 0.01612281 0.02766519 0.02738361
v 0.00149645 -0.02433621 0.01544226
v 0.00590841 0.01991450 0.00220633
v -0.01292249 0.02909641 0.02727483
v 0.02945184 0.00894285 0.02732123
v 0.02313382 -0.00543279 0.00970032
v -0.01884343 -0.02170555 0.02742024
v -0.00275628 -0.01429233 0.00108109
v 0.00754512 0.01755995 0.00108010
v -0.01286582 0.02278876 0.00648559
v 0.01750378 0.02150277 0.01290669
v 0.00899299 0.03073668 0.02731595
v 0.02761728 0.01317227 0.02437116
v 0.02762592 0.00749330 0.01835197
v 0.02505984 0.01915241 0.02732826
v 0.02012311 0.00444942 0.00381342
v 0.01617902 -0.02301324 0.02735674
v -0.02746214 0.01465091 0.02723799
v 0.01145064 -0.01685410 0.00687964
v -0.00843812 -0.02121771 0.01124589
v -0.02270990 -0.00540271 0.00826323
v -0.00736132 0.01770491 0.00109810
v -0.00593306 0.02598174 0.00956119
v 0.02026751 0.02299579 0.02141510
v 0.01155694 0.01728652 0.00250729
v 0.01009828 0.02587716 0.01268201
v -0.00272640 0.03067409 0.02123507
v 0.02917093 0.00742891 0.02435418
v 0.02747707 0.01021150 0.01987579
v 0.02757205 -0.00276916 0.01840149
v 0.02815644 0.01336448 0.02728820
v 0.02304787 0.01864263 0.01847963
v 0.02617015 -0.00123942 0.01392700
v 0.01842212 0.01305011 0.00517192
v -0.01016729 -0.02629064 0.02730835
v 0.02492190 -0.01434496 0.02733543
v -0.02901244 0.01032528 0.02723474
v -0.01812635 0.02196197 0.01256757
v 0.00155013 -0.01980223 0.00656586
v 0.01024196 -0.02415898 0.02006675
v 0.01305645 -0.00841980 0.00114093
v -0.01563500 -0.00408283 0.00095785
v -0.01692462 -0.01672157 0.01136147
v -0.00268979 0.01991307 0.00208042
v -0.01307946 0.02033718 0.00413783
v 0.00306938 0.02598167 0.00967766
v 0.01325252 0.01328961 0.00107009
v 0.01450262 0.02579564 0.01702076
v 0.00599958 0.02900767 0.01677376
v 0.01134929 0.01975676 0.00510359
v -0.00719164 0.03102814 0.02721974
v -0.00270568 0.02901438 0.01538681
v 0.02919354 0.00888550 0.02584850
v 0.02923709 -0.00126714 0.02426254
v 0.02465324 0.01883086 0.02444769
v 0.02158187 0.02165533 0.02146105
v 0.02599587 0.01315263 0.01851083
f 14 8 11
f 19 11 8
f 22 1 8
f 22 8 12
f 24 8 14
f 25 14 11
f 31 8 1
f 32 16 10
f 35 12 2
f 36 21 7
f 36 35 21
f 38 22 12
f 39 18 31
f 40 13 23
f 40 37 13
f 40 21 37
f 40 23 7
f 40 7 21
f 41 7 23
f 41 39 7
f 41 18 39
f 41 23 3
f 41 32 18
f 42 24 14
f 42 27 9
f 42 14 27
f 43 2 12
f 43 12 8
f 43 8 24
f 43 37 2
f 43 13 37
f 43 26 13
f 43 24 26
f 44 5 14
f 44 14 25
f 44 28 5
f 45 25 11
f 45 11 17
f 45 44 25
f 45 4 28
f 45 28 44
f 46 15 26
f 46 27 15
f 46 9 27
f 47 26 24
f 47 46 26
f 47 9 46
f 47 42 9
f 47 24 42
f 48 23 13
f 48 13 26
f 48 3 23
f 48 26 15
f 48 15 3
f 49 28 4
f 49 4 29
f 49 3 15
f 49 29 16
f 49 16 3
f 50 27 14
f 50 14 5
f 50 5 28
f 50 28 49
f 50 49 15
f 50 15 27
f 51 10 16
f 51 16 29
f 51 17 30
f 52 29 4
f 52 51 29
f 52 17 51
f 52 45 17
f 52 4 45
f 53 51 30
f 53 10 51
f 53 33 10
f 53 6 33
f 54 3 16
f 54 16 32
f 54 41 3
f 54 32 41
f 55 31 18
f 55 18 33
f 55 8 31
f 55 19 8
f 56 33 6
f 56 55 33
f 56 19 55
f 56 34 19
f 57 32 10
f 57 10 33
f 57 33 18
f 57 18 32
f 58 11 19
f 58 19 34
f 59 30 17
f 59 58 34
f 59 17 11
f 59 11 58
f 59 53 30
f 59 6 53
f 59 56 6
f 59 34 56
f 60 36 20
f 60 12 35
f 60 35 36
f 60 38 12
f 60 20 38
f 61 35 2
f 61 2 37
f 61 37 21
f 61 21 35
f 62 38 20
f 62 22 38
f 62 1 22
f 63 39 31
f 63 31 1
f 63 62 39
f 63 1 62
f 64 36 7
f 64 7 39
f 64 20 36
f 64 62 20
f 64 39 62

