# https://github.com/mikedh/trimesh
v 0.02642935 0.02203216 0.10129887
v 0.02982761 0.01653207 0.10154682
v 0.02919496 0.01745073 0.04587025
v 0.01981121 0.02721958 0.04101470
v 0.02042253 0.01722217 0.08285659
v 0.02344080 0.02625402 0.06442997
v 0.02923009 0.01899128 0.07022293
v 0.02130942 0.02451739 0.10167889
v 0.02982477 0.01632224 0.04576777
v 0.02479928 0.02325868 0.04420427
v 0.02799807 0.02043582 0.10073558
v 0.02677938 0.01813425 0.10129585
v 0.01941630 0.02831565 0.10141929
v 0.02921609 0.01895757 0.06296784
v 0.02384145 0.01981705 0.04038333
v 0.02337669 0.02470584 0.04410372
v 0.02766283 0.01891735 0.04121297
v 0.02947322 0.01746161 0.10144767
v 0.02481465 0.02470706 0.06715892
v 0.01947176 0.02818780 0.05976657
v 0.02063827 0.02760896 0.10128526
v 0.02623485 0.02190902 0.04724799
v 0.02889922 0.01669451 0.04102122
v 0.02084132 0.02648624 0.04106730
v 0.02480667 0.02464404 0.06297135
f 8 2 1
f 9 2 5
f 9 7 2
f 11 6 1
f 12 8 5
f 12 5 2
f 12 2 8
f 13 5 8
f 13 8 1
f 14 9 3
f 14 7 9
f 15 5 4
f 16 6 10
f 17 3 9
f 18 11 1
f 18 1 2
f 18 2 7
f 18 7 11
f 19 11 7
f 19 6 11
f 19 7 14
f 20 4 5
f 20 5 13
f 20 13 6
f 20 6 4
f 21 13 1
f 21 1 6
f 21 6 13
f 22 14 3
f 22 10 6
f 22 17 10
f 22 3 17
f 23 9 5
f 23 5 15
f 23 17 9
f 24 16 10
f 24 4 6
f 24 6 16
f 24 10 17
f 24 17 23
f 24 23 15
f 24 15 4
f 25 19 14
f 25 14 22
f 25 22 6
f 25 6 19

