# https://github.com/mikedh/trimesh
v 0.02022385 -0.01380677 0.07843304
v 0.02423375 -0.01718898 0.06542328
v 0.01253659 -0.01387113 0.06564522
v 0.01359780 -0.02396324 0.05164997
v 0.01215017 -0.02973663 0.07661388
v 0.01991163 -0.02111250 0.05181298
v 0.01918696 -0.02620020 0.07655865
v 0.01253492 -0.01386510 0.07820575
v 0.01199049 -0.02793635 0.05191764
v 0.01254129 -0.02153210 0.07921689
v 0.01884634 -0.02610178 0.05856674
v 0.01953240 -0.02360420 0.05181084
v 0.01478682 -0.02907483 0.07603525
v 0.01584325 -0.02741808 0.05560754
v 0.01760741 -0.02754750 0.07601961
v 0.01344394 -0.02940889 0.07645722
v 0.01593590 -0.02601257 0.05206870
v 0.01372063 -0.02904500 0.06107600
v 0.01321671 -0.02743543 0.05194283
v 0.01240340 -0.02923476 0.06113079
v 0.01471994 -0.02899198 0.07185017
f 1 2 3
f 6 3 2
f 6 4 3
f 7 2 1
f 8 1 3
f 9 3 4
f 9 8 3
f 9 5 8
f 10 7 1
f 10 5 7
f 10 8 5
f 10 1 8
f 11 2 7
f 12 9 4
f 12 4 6
f 12 6 2
f 12 2 11
f 14 12 11
f 15 11 7
f 15 7 13
f 16 13 7
f 16 7 5
f 16 5 13
f 17 12 14
f 18 14 11
f 18 13 5
f 18 9 14
f 19 17 14
f 19 14 9
f 19 9 12
f 19 12 17
f 20 18 5
f 20 5 9
f 20 9 18
f 21 15 13
f 21 13 18
f 21 18 11
f 21 11 15

