# https://github.com/mikedh/trimesh
v 0.01122152 -0.02982285 0.10006147
v 0.01151952 -0.02888593 0.09898244
v -0.01612153 -0.03070351 0.09708478
v -0.01614825 -0.02297042 0.05164476
v 0.01199049 -0.02793635 0.05191764
v -0.01504677 -0.02132084 0.07919212
v 0.01240340 -0.02923476 0.06113079
v -0.00990346 -0.02901764 0.05190888
v -0.01604710 -0.02906717 0.09454694
v 0.01254129 -0.02153210 0.07921689
v 0.01215017 -0.02973663 0.07661388
v -0.01470938 -0.02896421 0.05954890
v 0.01359780 -0.02396324 0.05164997
v -0.01526685 -0.03467486 0.09925786
v 0.00163216 -0.03075373 0.05639392
v -0.01462415 -0.02753076 0.05265502
v 0.00881661 -0.02923711 0.05188772
v 0.00304719 -0.03379756 0.09513383
v -0.01560889 -0.03198634 0.09866463
v -0.00130761 -0.03080432 0.05639811
v 0.01033414 -0.03208215 0.09347788
v 0.00299299 -0.03378003 0.09984416
v 0.00164004 -0.03381854 0.09361008
v 0.00886349 -0.03202579 0.08447819
v -0.01204251 -0.03332301 0.09934082
v 0.01047054 -0.03202902 0.10016571
v -0.01206349 -0.03458484 0.09952544
f 1 2 3
f 9 3 2
f 9 2 6
f 9 6 4
f 9 4 3
f 10 4 6
f 10 6 2
f 11 2 1
f 13 4 10
f 13 7 5
f 13 11 7
f 13 10 2
f 13 2 11
f 14 12 8
f 14 3 4
f 14 4 12
f 16 12 4
f 16 4 8
f 16 8 12
f 17 8 4
f 17 4 13
f 17 13 5
f 17 5 7
f 19 1 3
f 19 3 14
f 20 15 14
f 20 14 8
f 20 17 15
f 20 8 17
f 23 14 15
f 23 15 18
f 24 17 7
f 24 21 18
f 24 7 21
f 24 18 15
f 24 15 17
f 25 19 14
f 25 1 19
f 26 21 7
f 26 7 11
f 26 11 1
f 26 22 18
f 26 18 21
f 27 18 22
f 27 23 18
f 27 14 23
f 27 22 26
f 27 25 14
f 27 26 1
f 27 1 25

