# https://github.com/mikedh/trimesh
v 0.01930166 0.02798088 0.05173327
v 0.03415354 -0.00144524 0.05182966
v 0.02762776 0.01459841 0.02739912
v -0.01463806 0.02820324 0.02718002
v -0.01489847 -0.02713924 0.05203620
v 0.00899299 0.03073668 0.02731595
v 0.03136440 0.01478193 0.05173328
v 0.02526886 -0.02052375 0.05244177
v -0.01434878 0.02927452 0.05170031
v -0.01143132 -0.02584375 0.02744512
v 0.02031227 0.02458093 0.02742309
v 0.02799880 -0.00859944 0.02730975
v 0.03400961 0.00604847 0.05055050
v -0.00424574 0.03227542 0.03336982
v 0.00900427 0.03237349 0.05172466
v -0.01442179 -0.02448337 0.02739172
v 0.00881661 -0.02923711 0.05188772
v 0.01610595 0.02911871 0.03645744
v 0.01326284 0.02918168 0.02733564
v 0.02618711 0.02037190 0.03813726
v 0.03266834 -0.00842348 0.05192154
v 0.03412795 0.00605801 0.05172278
v 0.03233917 0.01179870 0.04908427
v 0.03074437 0.00602028 0.03199128
v -0.00860962 0.03068266 0.02723877
v -0.01140664 0.03072480 0.05173150
v 0.01350281 0.03092773 0.05173813
v 0.00458750 0.03223174 0.03184102
v -0.01433296 -0.02585924 0.03501142
v 0.00302224 -0.02748654 0.02736665
v 0.02031929 0.02605814 0.03499834
v 0.00897299 0.03219595 0.04104948
v 0.02612086 0.01748543 0.02738505
v 0.01612281 0.02766519 0.02738361
v 0.01181895 0.03051384 0.03189797
v 0.02652168 0.02057059 0.04116911
v 0.02932476 -0.00431234 0.02732739
v 0.02806254 -0.01710094 0.04994747
v 0.03065941 0.01467480 0.04594880
v 0.03263040 0.01182468 0.05168408
v 0.02913180 0.01037481 0.02737514
v 0.03079738 0.00017634 0.03196022
v -0.00706704 0.03219633 0.05170952
v -0.01144135 0.03061228 0.03790859
v 0.01339502 0.03058727 0.03797654
v -0.00272071 0.03231822 0.03181552
v -0.01288934 -0.02583228 0.03048021
v -0.00571604 -0.02741091 0.02739159
v 0.01617902 -0.02301324 0.02735674
v 0.01902169 0.02762106 0.03955986
v 0.02463456 0.02174242 0.03508238
v 0.00751341 0.03222233 0.03647383
v 0.01466026 0.02902710 0.03041793
v 0.01890554 0.02605276 0.02892663
v 0.01039028 0.03056483 0.02885794
v 0.03270223 -0.00796911 0.05092617
v 0.02804563 -0.01739583 0.05157123
v 0.02923111 -0.01478860 0.04963664
v 0.02756887 0.01744311 0.03508940
v 0.03220229 0.01028216 0.04587228
v 0.03396060 -0.00155742 0.05049950
v -0.00999433 0.03064705 0.03029377
v -0.01427500 0.02903730 0.03334535
v -0.00707853 0.03221271 0.04253745
f 8 7 1
f 8 2 7
f 9 4 5
f 16 5 4
f 17 8 5
f 21 2 8
f 22 7 2
f 22 2 13
f 25 6 4
f 26 8 15
f 26 9 5
f 26 5 8
f 27 15 8
f 27 8 1
f 29 5 16
f 30 16 4
f 30 4 12
f 32 15 27
f 33 19 11
f 34 11 19
f 36 1 7
f 37 6 19
f 37 12 4
f 37 4 6
f 39 23 3
f 39 7 23
f 39 36 7
f 40 22 13
f 40 13 23
f 40 23 7
f 40 7 22
f 41 13 24
f 41 3 23
f 41 24 37
f 41 33 3
f 41 37 19
f 41 19 33
f 42 24 13
f 42 37 24
f 43 26 15
f 44 9 26
f 45 27 1
f 45 1 18
f 45 32 27
f 45 35 32
f 46 15 28
f 46 43 15
f 46 25 14
f 46 28 6
f 46 6 25
f 47 29 16
f 47 16 10
f 48 10 16
f 48 16 30
f 48 47 10
f 48 5 29
f 48 29 47
f 48 30 17
f 48 17 5
f 49 30 12
f 49 8 17
f 49 17 30
f 49 38 8
f 49 12 38
f 50 31 18
f 50 18 1
f 50 36 31
f 50 1 36
f 51 11 31
f 51 33 11
f 51 20 33
f 51 36 20
f 51 31 36
f 52 28 15
f 52 15 32
f 52 6 28
f 52 32 35
f 53 34 19
f 53 18 34
f 53 19 35
f 53 45 18
f 53 35 45
f 54 31 11
f 54 11 34
f 54 34 18
f 54 18 31
f 55 35 19
f 55 19 6
f 55 52 35
f 55 6 52
f 56 12 37
f 56 2 21
f 57 21 8
f 57 8 38
f 58 38 12
f 58 57 38
f 58 21 57
f 58 56 21
f 58 12 56
f 59 39 3
f 59 3 33
f 59 33 20
f 59 20 36
f 59 36 39
f 60 41 23
f 60 23 13
f 60 13 41
f 61 42 13
f 61 13 2
f 61 37 42
f 61 56 37
f 61 2 56
f 62 25 4
f 62 14 25
f 63 4 9
f 63 9 44
f 63 62 4
f 63 44 62
f 64 44 26
f 64 26 43
f 64 62 44
f 64 14 62
f 64 46 14
f 64 43 46

