# https://github.com/mikedh/trimesh
v -0.01526609 0.01702074 0.05174388
v -0.01489847 -0.02713924 0.05203620
v -0.01495906 -0.02414399 0.02716212
v -0.02657198 0.01645453 0.02716835
v -0.03214099 -0.01014636 0.05164477
v -0.01526609 0.01702074 0.02703038
v -0.01593766 -0.02660940 0.05240301
v -0.03076291 0.01443242 0.05171120
v -0.02905157 -0.00713625 0.02724338
v -0.01461787 -0.02496539 0.03036841
v -0.02984476 0.01555647 0.05183214
v -0.02287326 -0.01850582 0.02898614
v -0.03054208 0.00447798 0.03179661
v -0.01468249 -0.02651394 0.04409368
v -0.02928561 -0.01560861 0.05192577
v -0.02590896 -0.01419657 0.02738687
v -0.01865175 -0.02284580 0.03201390
v -0.02901244 0.01032528 0.02723474
v -0.03047537 -0.00131070 0.03029491
v -0.03200247 0.01170895 0.05151966
v -0.01578477 -0.02592311 0.04409431
v -0.02749767 -0.01145393 0.02728500
v -0.01720076 -0.02285367 0.02741512
v -0.02575436 -0.01565747 0.03195079
v -0.02141323 -0.02146146 0.03795718
v -0.03200381 -0.01012241 0.04943805
v -0.03058269 0.00154756 0.03030823
v -0.03188285 0.01183421 0.04941676
v -0.01718741 -0.02429134 0.03503132
v -0.03084206 -0.01270341 0.04958155
v -0.02149895 -0.01992004 0.02904201
v -0.01574738 -0.02437897 0.03048965
v -0.02293413 -0.02001250 0.03806553
v -0.02036301 -0.02323019 0.05180456
v -0.02883833 -0.00859625 0.02887486
v -0.03201064 0.00893769 0.04823500
v -0.02746214 0.01465091 0.02723799
v -0.02010769 -0.02296093 0.04260845
v -0.03209887 0.00018501 0.04731119
f 6 4 1
f 7 2 1
f 9 6 3
f 9 4 6
f 10 6 1
f 10 3 6
f 11 1 4
f 11 4 8
f 11 7 1
f 11 8 5
f 14 10 1
f 14 1 2
f 15 11 5
f 15 7 11
f 18 4 9
f 20 5 8
f 21 14 2
f 21 2 7
f 22 9 3
f 22 3 16
f 23 16 3
f 24 16 12
f 24 12 15
f 26 19 9
f 27 18 9
f 27 9 19
f 27 13 18
f 27 19 26
f 28 18 13
f 28 20 8
f 28 8 4
f 29 21 7
f 29 10 14
f 29 14 21
f 29 25 17
f 30 22 16
f 30 26 22
f 30 15 5
f 30 5 26
f 30 24 15
f 30 16 24
f 31 23 17
f 31 12 16
f 31 16 23
f 31 17 25
f 32 23 3
f 32 3 10
f 32 17 23
f 32 29 17
f 32 10 29
f 33 25 15
f 33 15 12
f 33 31 25
f 33 12 31
f 34 7 15
f 35 26 9
f 35 9 22
f 35 22 26
f 36 28 13
f 36 13 27
f 36 20 28
f 37 28 4
f 37 4 18
f 37 18 28
f 38 29 7
f 38 25 29
f 38 7 34
f 38 34 15
f 38 15 25
f 39 36 27
f 39 27 26
f 39 26 5
f 39 5 20
f 39 20 36

