# https://github.com/mikedh/trimesh
v -0.01499279 0.02890217 0.05173378
v -0.01526609 0.01702074 0.05174388
v -0.01299461 0.02645714 0.01520965
v -0.01558758 0.01867852 0.01176276
v -0.02743315 0.01678801 0.05178992
v -0.01372150 0.01702074 0.02703038
v -0.01610179 0.02826010 0.05176691
v -0.02473975 0.01626164 0.01815980
v -0.01306554 0.02795083 0.02119424
v -0.02118160 0.02010979 0.01554416
v -0.02359328 0.01645589 0.01507747
v -0.01723327 0.02755762 0.03940454
v -0.01855924 0.02293651 0.01535775
v -0.02412756 0.01741857 0.01834512
v -0.01342745 0.02881624 0.02711000
v -0.02035611 0.02508512 0.05171173
v -0.01562382 0.02589185 0.01830928
v -0.02303427 0.01751530 0.01530962
v -0.02576134 0.01753369 0.02582058
v -0.01883540 0.02637409 0.05173235
v -0.01430454 0.02738283 0.02128579
v -0.01409385 0.02590896 0.01536363
v -0.02004072 0.02455660 0.02727804
v -0.02638434 0.01635519 0.02569189
v -0.02133410 0.02180555 0.01979523
v -0.01716803 0.02756905 0.05013760
v -0.02004658 0.02311528 0.01973097
v -0.01856910 0.02603266 0.03029390
v -0.02436229 0.02034190 0.03029449
v -0.02584393 0.01893600 0.04094979
v -0.02428438 0.01889044 0.02278938
v -0.01974384 0.02176393 0.01552466
v -0.02139148 0.02307686 0.02575687
v -0.01711332 0.02600306 0.02274387
v -0.01564147 0.02745614 0.02576847
v -0.02585185 0.01892269 0.05171155
v -0.02286471 0.02173451 0.02720905
f 6 4 3
f 7 5 2
f 7 2 1
f 8 6 2
f 9 1 2
f 9 2 6
f 9 6 3
f 11 4 6
f 11 6 8
f 12 7 1
f 13 3 4
f 13 4 11
f 14 11 8
f 15 12 1
f 15 1 9
f 18 14 10
f 18 11 14
f 18 13 11
f 18 10 13
f 19 14 8
f 20 16 5
f 20 5 7
f 20 12 16
f 21 9 3
f 21 3 17
f 21 15 9
f 22 17 3
f 22 3 13
f 22 13 17
f 24 19 8
f 24 8 2
f 24 2 5
f 25 10 14
f 26 20 7
f 26 7 12
f 26 12 20
f 27 17 13
f 27 13 25
f 28 23 16
f 28 16 12
f 30 24 5
f 30 19 24
f 30 29 19
f 30 16 29
f 31 25 14
f 31 14 19
f 32 25 13
f 32 13 10
f 32 10 25
f 33 27 25
f 33 23 27
f 34 27 23
f 34 21 17
f 34 17 27
f 34 23 28
f 35 28 12
f 35 12 15
f 35 34 28
f 35 15 21
f 35 21 34
f 36 30 5
f 36 5 16
f 36 16 30
f 37 31 19
f 37 19 29
f 37 23 33
f 37 29 16
f 37 16 23
f 37 33 25
f 37 25 31

