# https://github.com/mikedh/trimesh
v -0.02515299 0.01900789 0.08532583
v -0.00908796 -0.01541626 0.07948771
v -0.01522115 0.01846929 0.07850245
v -0.02441038 0.01848249 0.07793840
v -0.02521683 -0.01592115 0.07856168
v -0.00908699 -0.01541204 0.07815848
v -0.02408858 0.01956950 0.08455737
v -0.02456507 -0.01543636 0.08249773
v -0.02559131 0.01775055 0.08472236
v -0.00908769 -0.00614775 0.07949443
v -0.00908768 -0.00614811 0.07810933
v -0.01773754 -0.01625212 0.08134171
v -0.01583216 0.01919735 0.08208140
v -0.01728695 0.01911799 0.08281987
f 6 5 4
f 7 4 1
f 9 1 4
f 9 4 5
f 9 8 1
f 9 5 8
f 10 2 6
f 11 6 4
f 11 4 3
f 11 10 6
f 11 3 10
f 12 6 2
f 12 5 6
f 12 8 5
f 12 2 1
f 12 1 8
f 13 3 4
f 13 4 7
f 13 10 3
f 14 13 7
f 14 7 1
f 14 1 2
f 14 2 10
f 14 10 13

