# https://github.com/mikedh/trimesh
v 0.01279950 0.02996183 0.10187657
v 0.02022368 0.02010347 0.07840992
v 0.01350281 0.03092773 0.05173813
v -0.01434878 0.02927452 0.05170031
v -0.02229632 0.02243557 0.10085266
v 0.02253728 0.02254674 0.05175659
v -0.00577072 0.03378479 0.10083345
v 0.01307386 0.02917418 0.10087528
v 0.01930166 0.02798088 0.05173327
v -0.02171697 0.01883230 0.07972111
v 0.01968393 0.02844021 0.07704770
v 0.00749089 0.03375233 0.09343170
v -0.00411670 0.03368202 0.06145027
v -0.00414956 0.03376576 0.10159160
v -0.02012279 0.02775353 0.10051700
v 0.00900427 0.03237349 0.05172466
v -0.01801757 0.02329893 0.05184376
v -0.01522115 0.01846929 0.07850245
v 0.01904392 0.02892684 0.06153645
v 0.01185032 0.03211307 0.10140179
v -0.01146883 0.03204139 0.06322921
v 0.00459398 0.03389790 0.10141960
v -0.02182474 0.02360616 0.10143918
v -0.01456451 0.03088816 0.10099403
v -0.00565930 0.03253378 0.05171746
v 0.00748438 0.03362240 0.06297143
v -0.02045368 0.02650383 0.07723628
v -0.02156829 0.01870174 0.08310464
v 0.01330871 0.03204247 0.06296920
v -0.00712840 0.03370241 0.06437284
v 0.00609328 0.03385157 0.10095190
v -0.01011099 0.03244317 0.10139842
v -0.01587793 0.03063808 0.09647738
v -0.02059110 0.02671684 0.10125883
v 0.00600871 0.03358100 0.06145016
v -0.01140664 0.03072480 0.05173150
v -0.01442289 0.03079525 0.06314328
v 0.01628011 0.03041323 0.06160039
v 0.01344115 0.03214856 0.07175419
v -0.00715629 0.03376246 0.09494420
v -0.01733085 0.02942137 0.10101267
v -0.01151637 0.03227078 0.10069910
v -0.02023002 0.02776786 0.08462013
v 0.01919475 0.02904598 0.07621697
v -0.01577079 0.03048891 0.08463690
f 8 5 2
f 8 2 1
f 8 1 5
f 9 6 4
f 11 1 2
f 11 2 6
f 16 9 4
f 16 3 9
f 17 4 6
f 18 6 2
f 18 17 6
f 18 10 17
f 19 11 6
f 19 6 9
f 20 1 11
f 22 7 14
f 22 14 1
f 22 1 20
f 23 5 1
f 23 1 14
f 25 16 4
f 26 13 22
f 27 4 17
f 27 17 10
f 27 10 5
f 28 18 2
f 28 2 5
f 28 5 10
f 28 10 18
f 29 3 16
f 29 16 26
f 30 13 25
f 30 22 13
f 31 22 20
f 31 20 12
f 31 26 22
f 31 12 26
f 32 14 7
f 32 23 14
f 33 30 21
f 34 23 32
f 34 5 23
f 35 25 13
f 35 16 25
f 35 26 16
f 35 13 26
f 36 25 4
f 36 30 25
f 36 21 30
f 37 36 4
f 37 21 36
f 37 33 21
f 38 29 19
f 38 19 9
f 38 9 3
f 38 3 29
f 39 19 29
f 39 12 20
f 39 29 26
f 39 26 12
f 40 7 22
f 40 22 30
f 41 33 15
f 41 24 33
f 41 15 34
f 41 34 32
f 41 32 24
f 42 33 24
f 42 24 32
f 42 32 7
f 42 7 40
f 42 40 30
f 42 30 33
f 43 34 15
f 43 27 5
f 43 5 34
f 43 15 33
f 43 37 4
f 43 4 27
f 44 39 20
f 44 20 11
f 44 11 19
f 44 19 39
f 45 43 33
f 45 33 37
f 45 37 43

