# https://github.com/mikedh/trimesh
v 0.02066808 0.01260248 0.08078219
v 0.02026997 -0.01542455 0.08256572
v 0.01991163 -0.02111250 0.05181298
v -0.01801757 0.02329893 0.05184376
v -0.01530781 0.02016725 0.08256934
v 0.02253728 0.02254674 0.05175659
v 0.01747119 -0.02352565 0.08371487
v -0.01614825 -0.02297042 0.05164476
v 0.02022368 0.02010347 0.07840992
v 0.02105748 -0.01120968 0.08162329
v 0.02041397 -0.02178864 0.06563203
v 0.01729079 -0.02332173 0.07809617
v -0.01524670 -0.02309300 0.08232749
v 0.01293183 0.02073885 0.08065472
v -0.01545875 -0.02357577 0.07897617
v -0.01414907 0.02063328 0.08216823
v 0.01427362 -0.02354036 0.08259197
f 7 2 1
f 7 1 5
f 8 6 3
f 8 4 6
f 9 1 6
f 10 6 1
f 10 1 2
f 11 2 7
f 11 10 2
f 11 3 6
f 11 6 10
f 12 8 3
f 12 7 8
f 12 11 7
f 12 3 11
f 13 7 5
f 13 5 4
f 14 5 1
f 14 1 9
f 14 9 6
f 14 6 4
f 15 7 13
f 15 13 4
f 15 4 8
f 16 14 4
f 16 4 5
f 16 5 14
f 17 15 8
f 17 8 7
f 17 7 15

