# https://github.com/mikedh/trimesh
v 0.03328645 -0.00593376 0.10125002
v 0.03281837 -0.00874741 0.10093366
v 0.03171871 -0.01044203 0.07703931
v 0.02025729 -0.00614562 0.07821507
v 0.01085728 -0.03174608 0.10032420
v 0.03239302 -0.00609197 0.07787489
v 0.03298420 -0.00589584 0.08324207
v 0.03014796 -0.01495331 0.10099745
v 0.03099555 -0.00653009 0.10032900
v 0.01094344 -0.02918381 0.07799943
v 0.03222827 -0.01004574 0.08450705
v 0.02840590 -0.01558474 0.10104994
v 0.03182298 -0.00638117 0.10115149
v 0.01185608 -0.02927427 0.09979115
v 0.01099539 -0.02313983 0.08246295
v 0.01518599 -0.02826459 0.07682489
v 0.03244683 -0.00872970 0.08360373
v 0.03078988 -0.01448433 0.09353159
v 0.01913964 -0.02763841 0.10022179
v 0.02034593 -0.00616831 0.07951478
v 0.01041320 -0.02940049 0.07970275
v 0.01096812 -0.02307379 0.07928261
v 0.01046202 -0.03106200 0.08304957
v 0.02862757 -0.01637729 0.07698985
v 0.03255509 -0.01013024 0.10068727
v 0.02793103 -0.01894224 0.10049437
v 0.01320329 -0.03037272 0.08466062
v 0.01798673 -0.02669692 0.07682614
v 0.03081296 -0.01447655 0.10058145
v 0.02776076 -0.01879638 0.08584360
v 0.01341698 -0.03093733 0.09997044
v 0.01611971 -0.02891755 0.08463329
v 0.02053356 -0.02603244 0.08466316
v 0.01911329 -0.02743650 0.08741090
v 0.02193100 -0.02460606 0.08359865
v 0.02619646 -0.02019862 0.08361354
f 6 3 4
f 7 1 2
f 7 3 6
f 7 6 4
f 7 4 1
f 8 2 1
f 12 8 1
f 12 1 5
f 13 5 1
f 14 13 9
f 14 5 13
f 15 5 14
f 16 10 4
f 16 4 3
f 17 11 3
f 17 3 7
f 17 7 11
f 18 3 11
f 19 12 5
f 19 8 12
f 20 13 1
f 20 1 4
f 20 9 13
f 20 14 9
f 20 15 14
f 20 4 15
f 21 5 15
f 22 15 4
f 22 4 10
f 22 21 15
f 22 10 21
f 23 10 16
f 23 21 10
f 23 5 21
f 24 3 18
f 25 18 11
f 25 2 8
f 25 11 7
f 25 7 2
f 26 8 19
f 27 5 23
f 27 23 16
f 28 16 3
f 28 3 24
f 29 25 8
f 29 18 25
f 29 26 18
f 29 8 26
f 30 24 18
f 30 18 26
f 31 19 5
f 31 5 27
f 32 27 16
f 32 16 28
f 32 31 27
f 33 26 19
f 34 19 31
f 34 31 32
f 34 33 19
f 34 32 28
f 34 28 33
f 35 33 28
f 35 28 24
f 35 30 26
f 35 26 33
f 36 35 24
f 36 24 30
f 36 30 35

