# https://github.com/mikedh/trimesh
v 0.01941630 0.02831565 0.10141929
v 0.02100724 0.02435964 0.10081731
v 0.01968393 0.02844021 0.07704770
v 0.01231966 0.03179209 0.07742255
v 0.01253211 0.01238671 0.07960040
v 0.01618470 0.03059938 0.09807991
v 0.01311744 0.02946714 0.10155821
v 0.02127228 0.01291506 0.08182923
v 0.01253649 0.01238681 0.07813211
v 0.01370757 0.03151151 0.07716011
v 0.02056377 0.02521178 0.10175208
v 0.01227626 0.03171836 0.10167003
v 0.02025912 0.01238661 0.07822037
v 0.01612721 0.03049577 0.08471421
v 0.01486766 0.03086557 0.10139811
v 0.01785319 0.02933498 0.10131267
f 1 2 3
f 6 1 3
f 8 3 2
f 8 2 5
f 9 5 4
f 10 9 4
f 10 3 9
f 11 7 5
f 11 5 2
f 11 2 1
f 12 4 5
f 12 5 7
f 12 10 4
f 12 6 10
f 12 11 1
f 12 7 11
f 13 8 5
f 13 5 9
f 13 9 3
f 13 3 8
f 14 10 6
f 14 6 3
f 14 3 10
f 15 12 1
f 15 6 12
f 16 15 1
f 16 1 6
f 16 6 15

