# https://github.com/mikedh/trimesh
v -0.02868198 -0.01575647 0.09968479
v -0.01526685 -0.03467486 0.09925786
v -0.01524074 -0.01537525 0.07832826
v -0.02988149 -0.01506456 0.07790181
v -0.02448028 -0.02667923 0.09926868
v -0.01516946 -0.02902355 0.07781383
v -0.03136591 -0.01507535 0.09981686
v -0.01560889 -0.03198634 0.09866463
v -0.01480724 -0.02984559 0.08193689
v -0.02049037 -0.02660210 0.07748536
v -0.03097541 -0.01486036 0.08316837
v -0.02622468 -0.02381900 0.09973366
v -0.01513359 -0.03371876 0.09558694
v -0.01770803 -0.02809946 0.07754556
v -0.02779218 -0.01904453 0.07795894
v -0.01980462 -0.03246165 0.09845185
v -0.01987891 -0.03250147 0.09927904
v -0.02893837 -0.01877539 0.08325673
v -0.01754859 -0.03431454 0.09925553
v -0.02936725 -0.01647805 0.07784890
v -0.02396540 -0.02728486 0.09948720
v -0.02749863 -0.02214846 0.09932122
v -0.03050813 -0.01614776 0.08351327
v -0.02737788 -0.02192042 0.09364022
v -0.02922645 -0.01911831 0.09971477
v -0.03082963 -0.01620163 0.09980372
f 7 1 3
f 8 1 2
f 8 2 3
f 8 3 1
f 9 6 3
f 10 4 3
f 11 7 3
f 11 3 4
f 12 2 1
f 12 1 7
f 13 9 3
f 13 3 2
f 13 2 6
f 13 6 9
f 14 10 3
f 14 3 6
f 16 15 10
f 18 17 5
f 18 15 16
f 18 16 17
f 19 14 6
f 19 6 2
f 19 17 16
f 19 2 12
f 19 12 17
f 19 16 10
f 19 10 14
f 20 4 10
f 20 10 15
f 20 15 18
f 20 11 4
f 21 17 12
f 21 12 5
f 21 5 17
f 22 5 12
f 23 7 11
f 23 20 18
f 23 11 20
f 23 18 22
f 24 22 18
f 24 18 5
f 24 5 22
f 25 22 12
f 25 23 22
f 26 25 12
f 26 12 7
f 26 7 23
f 26 23 25

