# https://github.com/mikedh/trimesh
v -0.01479364 0.02993111 0.07747529
v -0.01516946 -0.02902355 0.07781383
v -0.01489847 -0.02713924 0.05203620
v -0.03076291 0.01443242 0.05171120
v -0.03192275 0.00871023 0.07776017
v -0.01499279 0.02890217 0.05173378
v -0.01490065 -0.02801539 0.05378958
v -0.02582578 0.02176738 0.07670297
v -0.01462563 0.02954929 0.05985161
v -0.03214099 -0.01014636 0.05164477
v -0.02170776 0.02589144 0.07686123
v -0.03023123 0.01461736 0.07693484
v -0.03238679 0.01042084 0.05166248
v -0.02606597 -0.02000428 0.05419757
v -0.02891653 -0.01745496 0.07777213
v -0.02021158 0.02767425 0.06448932
v -0.02740153 0.02040952 0.06554920
v -0.01883540 0.02637409 0.05173235
v -0.03367313 -0.00135989 0.07446849
v -0.03211314 0.01045850 0.07599924
v -0.02928561 -0.01560861 0.05192577
v -0.01585159 -0.02783601 0.05417365
v -0.03187773 -0.01010094 0.07786490
v -0.01890661 -0.02745571 0.07756324
v -0.01740938 0.02914372 0.07604469
v -0.01731989 0.02921464 0.06316030
v -0.02886200 0.01742416 0.07673299
v -0.02604762 0.02159002 0.06170231
v -0.01610179 0.02826010 0.05176691
v -0.03369117 -0.00285391 0.06276534
v -0.03366552 0.00309840 0.07453726
v -0.03039361 -0.01452167 0.06275178
v -0.02734827 -0.01885570 0.05967644
v -0.01678339 -0.02636696 0.05299704
v -0.01711109 -0.02755587 0.05549244
v -0.02015858 0.02759322 0.06874760
v -0.01595891 0.02940095 0.07725783
v -0.02739774 0.02032245 0.06273685
v -0.02296952 0.02455424 0.06182245
v -0.03359798 -0.00143702 0.06127971
v -0.03368464 -0.00289311 0.06404598
v -0.03370120 0.00295387 0.06281844
v -0.03040253 -0.01447477 0.07618982
v -0.01980297 -0.02628614 0.05844585
v -0.01884623 -0.02748989 0.07687762
v -0.03359857 0.00152800 0.06118405
f 5 2 1
f 7 1 2
f 9 3 6
f 9 7 3
f 9 1 7
f 10 6 3
f 11 8 5
f 11 5 1
f 13 6 10
f 16 8 11
f 17 8 16
f 18 13 4
f 18 6 13
f 20 12 4
f 20 4 13
f 20 5 12
f 21 10 3
f 21 3 14
f 22 3 7
f 22 7 2
f 23 15 2
f 23 2 5
f 24 2 15
f 26 9 6
f 26 16 25
f 26 25 1
f 26 1 9
f 27 8 17
f 27 12 5
f 27 5 8
f 27 17 4
f 27 4 12
f 28 18 4
f 29 18 16
f 29 6 18
f 29 26 6
f 29 16 26
f 31 5 20
f 31 23 5
f 31 19 23
f 31 20 13
f 32 10 21
f 33 21 14
f 33 32 21
f 33 15 32
f 33 24 15
f 34 22 14
f 34 14 3
f 34 3 22
f 35 22 2
f 35 14 22
f 36 25 16
f 36 16 11
f 36 11 25
f 37 25 11
f 37 11 1
f 37 1 25
f 38 17 16
f 38 16 28
f 38 28 4
f 38 4 17
f 39 28 16
f 39 16 18
f 39 18 28
f 40 13 10
f 40 10 30
f 41 23 19
f 41 19 30
f 41 30 10
f 41 10 23
f 42 30 19
f 42 19 31
f 42 31 13
f 43 23 10
f 43 10 32
f 43 32 15
f 43 15 23
f 44 33 14
f 44 24 33
f 44 14 35
f 45 35 2
f 45 2 24
f 45 44 35
f 45 24 44
f 46 42 13
f 46 13 40
f 46 40 30
f 46 30 42

