# https://github.com/mikedh/trimesh
v 0.02982761 0.01653207 0.10154682
v 0.03408620 -0.00417909 0.10036869
v 0.03412795 0.00605801 0.05172278
v 0.02421188 0.02094687 0.05177326
v 0.01967354 -0.02535561 0.07705439
v 0.03032567 0.01657387 0.05176665
v 0.03410995 0.00608913 0.10060091
v 0.03099555 -0.00653009 0.10032900
v 0.02042253 0.01722217 0.08285659
v 0.02804563 -0.01739583 0.05157123
v 0.03075412 0.01611326 0.09958847
v 0.03328645 -0.00593376 0.10125002
v 0.03417962 -0.00136409 0.10110752
v 0.02733974 0.01758030 0.10148935
v 0.01953240 -0.02360420 0.05181084
v 0.03412251 -0.00288743 0.05177019
v 0.03263040 0.01182468 0.05168408
v 0.03235527 0.01153522 0.10136661
v 0.03182298 -0.00638117 0.10115149
v 0.03239030 -0.01001765 0.07620757
v 0.03413661 0.00436625 0.10120385
v 0.01952181 -0.02535834 0.05838698
v 0.03228022 0.01321409 0.06711640
v 0.03093367 0.01462459 0.10131466
v 0.03394619 -0.00432828 0.06568830
v 0.03266834 -0.00842348 0.05192154
v 0.02637373 -0.02020219 0.07601028
v 0.02410846 -0.02162299 0.05256487
v 0.03136440 0.01478193 0.05173328
v 0.03395196 0.00736787 0.09655114
v 0.03077071 -0.01289121 0.05481829
v 0.03232210 -0.01009559 0.06431436
v 0.02930770 -0.01584214 0.07664085
v 0.02351399 -0.02319352 0.07603282
v 0.02268823 -0.02275502 0.05392701
v 0.02479498 -0.02158292 0.06431093
v 0.03072820 0.01610331 0.06264119
v 0.03396752 0.00737463 0.09038172
v 0.03085094 -0.01291990 0.07685739
v 0.02925482 -0.01577538 0.06283478
v 0.02085138 -0.02486018 0.07671099
v 0.02346751 -0.02303810 0.06881544
v 0.02632358 -0.02014104 0.06878320
v 0.02061529 -0.02462614 0.05871992
f 11 6 4
f 11 4 1
f 13 12 2
f 14 5 8
f 14 9 5
f 14 1 4
f 14 4 9
f 14 12 1
f 15 9 4
f 15 4 10
f 16 10 3
f 16 13 2
f 16 3 13
f 17 3 10
f 17 10 4
f 18 1 12
f 19 8 5
f 19 5 12
f 19 14 8
f 19 12 14
f 20 2 12
f 21 13 3
f 21 3 7
f 21 7 18
f 21 18 12
f 21 12 13
f 22 5 9
f 22 9 15
f 24 18 11
f 24 11 1
f 24 1 18
f 25 16 2
f 25 2 20
f 26 10 16
f 26 16 25
f 28 15 10
f 29 23 17
f 29 17 4
f 29 4 6
f 30 23 11
f 30 11 18
f 30 18 7
f 31 10 26
f 32 26 25
f 32 25 20
f 32 31 26
f 33 12 27
f 33 32 20
f 33 31 32
f 34 27 12
f 35 22 15
f 35 15 28
f 36 28 10
f 37 29 6
f 37 6 11
f 37 11 23
f 37 23 29
f 38 30 7
f 38 7 3
f 38 3 17
f 38 17 23
f 38 23 30
f 39 33 20
f 39 20 12
f 39 12 33
f 40 33 27
f 40 27 10
f 40 10 31
f 40 31 33
f 41 34 12
f 41 12 5
f 41 5 22
f 41 22 34
f 42 34 22
f 42 36 34
f 42 28 36
f 43 36 10
f 43 10 27
f 43 27 34
f 43 34 36
f 44 35 28
f 44 28 42
f 44 42 22
f 44 22 35

