# https://github.com/mikedh/trimesh
v -0.02112679 0.02586212 0.10148776
v -0.02500892 -0.01569395 0.08264385
v -0.02106988 0.02578051 0.07767226
v -0.02643667 0.02062852 0.07715468
v -0.03358549 0.00428421 0.10038407
v -0.02521683 -0.01592115 0.07856168
v -0.02176983 0.02639559 0.10048881
v -0.02069683 0.02673502 0.08332377
v -0.02868198 -0.01575647 0.09968479
v -0.02211981 0.02526386 0.07726900
v -0.03219786 -0.00886700 0.07801713
v -0.02948094 0.01639970 0.10097880
v -0.02082000 0.02706175 0.10076502
v -0.02988149 -0.01506456 0.07790181
v -0.02731364 0.02023181 0.08379269
v -0.02165195 0.02624896 0.08361712
v -0.03363562 0.00736879 0.08457943
v -0.03354722 -0.00732757 0.09983672
v -0.02775720 0.01909459 0.10098213
v -0.03069203 0.01087023 0.10116001
v -0.02207527 0.02538697 0.10126920
v -0.02932286 0.01623520 0.07707330
v -0.03194152 0.01169894 0.10042996
v -0.03358715 -0.00734706 0.08342490
v -0.03366766 0.00600190 0.09932255
v -0.03136591 -0.01507535 0.09981686
v -0.03039005 0.01608002 0.09802123
v -0.02747205 0.02011493 0.10032600
v -0.03223633 0.00749057 0.07793280
v -0.03035604 0.01607294 0.08486872
v -0.03178378 -0.01302191 0.08335741
v -0.03354953 0.00734164 0.09645491
v -0.03352020 -0.00878371 0.09033194
v -0.03357333 0.00582606 0.08336355
v -0.03196597 0.01321263 0.08592219
v -0.03347417 -0.00882671 0.08437412
v -0.03068900 -0.01329957 0.07796230
v -0.03201067 -0.01328778 0.09978090
v -0.03195983 0.01313478 0.09032694
f 8 6 3
f 8 2 6
f 9 2 1
f 9 6 2
f 10 3 6
f 10 8 3
f 13 1 2
f 13 2 8
f 14 10 6
f 14 6 9
f 15 10 4
f 16 8 10
f 16 13 8
f 16 7 13
f 16 15 7
f 16 10 15
f 19 12 1
f 20 9 1
f 20 1 12
f 21 13 7
f 21 1 13
f 21 19 1
f 22 4 10
f 22 10 14
f 22 14 11
f 23 20 12
f 23 5 20
f 25 18 5
f 25 24 18
f 25 17 24
f 25 5 23
f 26 14 9
f 26 9 20
f 26 20 5
f 26 5 18
f 27 23 12
f 28 21 7
f 28 19 21
f 28 7 15
f 28 27 12
f 28 12 19
f 29 22 11
f 29 17 22
f 29 11 24
f 30 15 4
f 30 4 22
f 30 28 15
f 30 27 28
f 31 14 26
f 32 25 23
f 32 17 25
f 33 18 24
f 34 29 24
f 34 24 17
f 34 17 29
f 35 30 22
f 35 22 17
f 35 27 30
f 36 24 11
f 36 33 24
f 36 31 26
f 37 11 14
f 37 14 31
f 37 36 11
f 37 31 36
f 38 26 18
f 38 18 33
f 38 36 26
f 38 33 36
f 39 35 17
f 39 17 32
f 39 32 23
f 39 23 27
f 39 27 35

