# https://github.com/mikedh/trimesh
v -0.02334840 0.01365519 0.05021293
v -0.01692551 0.01346913 0.02595212
v -0.01724359 0.01375196 0.02754970
v -0.02089634 0.01269124 0.02618982
v -0.02686467 -0.00483736 0.05005088
v -0.02756002 0.00361848 0.04411755
v -0.02378745 -0.00474491 0.03279727
v -0.02764285 0.00455103 0.04977288
v -0.02498451 0.01275825 0.04664227
v -0.02177040 0.00042773 0.02604960
v -0.02761838 -0.00458418 0.04326863
v -0.02681908 0.00784544 0.05012584
v -0.02407367 0.01258578 0.03997829
v -0.02171229 0.00128243 0.02585442
v -0.02555730 -0.00463826 0.03299081
v -0.02763722 0.00042643 0.04155384
v -0.02772495 -0.00457790 0.05013613
v -0.02498616 0.01275269 0.04970220
v -0.02663989 0.00783523 0.04416222
v -0.01729023 0.01291797 0.02581395
v -0.02442917 -0.00481175 0.03518609
v -0.02461728 0.00042456 0.02618431
v -0.02763310 0.00204882 0.04240426
v -0.02765851 0.00378171 0.05007261
v -0.02462846 0.01294815 0.05024823
v -0.02668151 0.00861676 0.04836021
v -0.02757858 0.00446686 0.04584847
v -0.02583315 0.00936998 0.04160688
v -0.02340040 0.00779000 0.02621679
v -0.02671906 -0.00121916 0.03653764
v -0.02584216 0.00362123 0.03311796
v -0.02588781 0.01026596 0.05014164
v -0.02666662 0.00857911 0.04982404
v -0.02581736 0.01023206 0.04412284
v -0.02668450 0.00616192 0.04069955
v -0.02417865 0.00446772 0.02621831
v -0.02403380 0.01104279 0.03568658
v -0.02670436 -0.00459131 0.03825091
v -0.02760505 -0.00123615 0.04157118
v -0.02518488 0.00041207 0.02880778
v -0.02509434 0.01197539 0.05020303
v -0.02497596 0.01192563 0.04328299
v -0.02576002 0.00687440 0.03659949
v -0.02671531 0.00459095 0.03905533
v -0.02502234 0.00288574 0.02887222
v -0.02489762 0.00941128 0.03657428
v -0.02154091 0.01172050 0.02627760
v -0.02578832 -0.00456336 0.03398625
v -0.02756872 -0.00377981 0.04242501
v -0.02674051 -0.00044826 0.03654650
v -0.02491475 0.01017657 0.03819006
v -0.02405902 0.00849851 0.03056546
v -0.02239916 0.01254532 0.03228331
v -0.02242394 0.01017129 0.02624038
v -0.02240576 0.01092726 0.02800524
f 1 3 4
f 3 2 4
f 5 2 3
f 5 3 1
f 7 2 5
f 10 2 7
f 13 9 1
f 13 1 4
f 15 5 11
f 17 11 5
f 17 16 11
f 17 5 1
f 18 1 9
f 20 4 2
f 20 2 10
f 20 10 14
f 21 15 7
f 21 7 5
f 21 5 15
f 22 10 7
f 22 7 15
f 22 14 10
f 23 16 17
f 24 17 12
f 24 12 8
f 24 23 17
f 24 8 23
f 25 17 1
f 25 12 17
f 25 1 18
f 26 18 9
f 27 26 19
f 27 8 26
f 27 23 8
f 27 6 23
f 29 20 14
f 29 4 20
f 31 16 23
f 32 12 25
f 33 18 26
f 33 32 18
f 33 12 32
f 33 26 8
f 33 8 12
f 34 26 9
f 34 19 26
f 34 28 19
f 35 27 19
f 35 6 27
f 35 19 28
f 35 23 6
f 36 29 14
f 36 14 22
f 36 31 29
f 38 15 11
f 39 11 16
f 40 22 30
f 41 32 25
f 41 25 18
f 41 18 32
f 42 34 9
f 42 9 13
f 42 28 34
f 43 35 28
f 43 29 31
f 43 31 35
f 44 35 31
f 44 31 23
f 44 23 35
f 45 36 22
f 45 31 36
f 45 40 31
f 45 22 40
f 46 43 28
f 48 38 30
f 48 15 38
f 48 30 22
f 48 22 15
f 49 38 11
f 49 30 38
f 49 39 30
f 49 11 39
f 50 39 16
f 50 30 39
f 50 40 30
f 50 16 31
f 50 31 40
f 51 28 42
f 51 46 28
f 51 42 13
f 51 13 37
f 52 29 43
f 52 43 46
f 52 51 37
f 52 46 51
f 53 37 13
f 53 13 4
f 53 4 47
f 54 47 4
f 54 4 29
f 54 52 37
f 54 29 52
f 55 53 47
f 55 37 53
f 55 54 37
f 55 47 54

