# https://github.com/mikedh/trimesh
v 0.01370139 -0.02163275 0.03871107
v 0.01299085 -0.02377511 0.03899292
v 0.01191520 -0.01843011 0.01350369
v 0.00227216 -0.01820147 0.01288507
v 0.00133388 -0.02560766 0.03879463
v 0.01271971 -0.01266427 0.01305632
v 0.01293549 -0.02125017 0.02618618
v 0.01193517 -0.02437309 0.03904670
v 0.00123786 -0.02201504 0.01345866
v 0.01222990 -0.01300579 0.01279428
v 0.00133296 -0.01847014 0.01319323
v 0.01370273 -0.01807020 0.02670127
v 0.01265363 -0.02167957 0.02716269
v 0.00379992 -0.02677829 0.03813517
v 0.00124047 -0.02684569 0.03734992
v 0.01295935 -0.01288591 0.01379219
v 0.01274608 -0.02332304 0.03565865
v 0.00610694 -0.02236427 0.01775707
v 0.01183451 -0.02070620 0.02118631
v 0.00126529 -0.02715666 0.03897766
v 0.00212702 -0.02592492 0.03135984
v 0.01031643 -0.02529240 0.03906653
v 0.00450982 -0.02155274 0.01358466
v 0.01177833 -0.01906299 0.01526122
v 0.00124826 -0.02509294 0.02711880
v 0.00769349 -0.02497901 0.03225624
v 0.00792992 -0.02609951 0.03901912
v 0.00367358 -0.02333230 0.01944969
v 0.00934392 -0.01985361 0.01369242
v 0.00133442 -0.02593992 0.03135145
v 0.00533931 -0.02583170 0.03394586
v 0.00856568 -0.02324549 0.02541762
v 0.00380849 -0.02688039 0.03897697
v 0.00528541 -0.02235980 0.01696152
v 0.00205558 -0.02247784 0.01525603
v 0.01100096 -0.01900442 0.01358717
v 0.00934850 -0.02069939 0.01611972
v 0.00367937 -0.02585297 0.03222299
v 0.00772213 -0.02407622 0.02799120
v 0.01018425 -0.02235690 0.02465314
v 0.00127985 -0.02251006 0.01519022
v 0.01090129 -0.01988329 0.01613822
v 0.00848198 -0.02152981 0.01771089
v 0.01177743 -0.02157149 0.02461848
f 6 5 1
f 7 1 2
f 8 2 1
f 8 1 5
f 9 4 3
f 10 6 3
f 10 3 4
f 11 5 6
f 11 4 9
f 11 10 4
f 11 6 10
f 12 1 7
f 12 7 3
f 15 11 9
f 15 5 11
f 16 6 1
f 16 1 12
f 16 12 3
f 16 3 6
f 17 13 7
f 17 7 2
f 19 7 13
f 20 8 5
f 20 5 15
f 21 14 20
f 22 17 2
f 22 2 8
f 22 13 17
f 22 8 20
f 23 9 3
f 24 3 7
f 24 7 19
f 25 15 9
f 27 22 20
f 27 26 22
f 28 21 25
f 28 18 26
f 30 25 21
f 30 21 20
f 30 20 15
f 30 15 25
f 31 28 26
f 31 27 14
f 31 26 27
f 32 22 26
f 33 27 20
f 33 20 14
f 33 14 27
f 34 23 18
f 34 18 28
f 35 9 23
f 35 34 28
f 35 23 34
f 36 29 23
f 36 23 3
f 37 23 29
f 37 29 36
f 38 31 14
f 38 14 21
f 38 21 28
f 38 28 31
f 39 32 26
f 39 26 18
f 39 18 32
f 40 13 22
f 40 22 32
f 41 35 28
f 41 28 25
f 41 25 9
f 41 9 35
f 42 36 3
f 42 3 24
f 42 37 36
f 42 24 19
f 42 19 37
f 43 18 23
f 43 23 37
f 43 32 18
f 43 40 32
f 43 37 19
f 44 19 13
f 44 13 40
f 44 43 19
f 44 40 43

