# https://github.com/mikedh/trimesh
v 0.01267785 0.01669450 0.01352649
v 0.02127559 0.00038689 0.01338814
v 0.01117603 0.00617020 0.00149128
v -0.00454846 0.00789737 0.00060323
v -0.00469966 0.01683397 0.01315959
v 0.00723411 0.00040274 0.00021485
v 0.00365698 0.01569135 0.00545645
v 0.01735568 0.00844676 0.00966259
v 0.01024270 0.01837375 0.01359727
v -0.00470798 0.00650826 0.00431703
v 0.01368474 0.00037883 0.00186191
v 0.00466226 0.00795056 0.00058335
v 0.00845729 0.01395267 0.00556466
v -0.00457545 0.01717434 0.00753123
v 0.01763214 0.01106196 0.01352531
v 0.02092617 0.00279700 0.01348632
v 0.01743415 0.00043011 0.01277506
v -0.00458482 0.00627858 0.00030458
v 0.01220237 0.00039969 0.00124427
v 0.01673345 0.00029440 0.00534312
v 0.00796580 0.00543089 0.00062487
v 0.00048387 0.01196256 0.00144791
v 0.01333620 0.01243762 0.00815635
v 0.01086709 0.01652371 0.01045590
v 0.00208070 0.01989754 0.01112834
v -0.00489925 0.01660309 0.01281336
v 0.01588735 0.01341587 0.01353277
v 0.02004123 0.00606997 0.01352431
v 0.00743705 0.00045182 0.00415964
v 0.00127894 0.00877879 0.00055837
v 0.00884693 0.00039048 0.00045480
v 0.01203385 0.00451606 0.00149565
v 0.01903930 0.00192574 0.00877367
v 0.00699899 0.01019410 0.00146085
v 0.00630147 0.00709159 0.00060230
v -0.00280228 0.01651499 0.00630100
v -0.00439995 0.01251887 0.00218412
v 0.01400309 0.00838391 0.00557341
v 0.00836660 0.01057502 0.00217542
v 0.01091303 0.01728936 0.01198749
v 0.01248289 0.01410172 0.00896184
v 0.00686008 0.01812591 0.00966316
v 0.00131543 0.02071590 0.01330596
v -0.00480767 0.00757483 0.00462258
v 0.01574953 0.01243804 0.01121879
v 0.01812875 0.00923918 0.01197617
v -0.00204600 0.00873434 0.00056623
v 0.00535916 0.01106676 0.00145534
v 0.00880500 0.00293658 0.00056224
v 0.01316270 0.00431718 0.00215423
v 0.02074862 0.00111179 0.01194040
v 0.01905989 0.00518540 0.01036677
v 0.00204282 0.01657155 0.00628188
v 0.00131247 0.01917193 0.00964891
v -0.00449044 0.01108332 0.00143740
v -0.00450888 0.01492317 0.00468508
v 0.01650513 0.01011737 0.00973037
v 0.01072868 0.00826350 0.00218139
v 0.01254565 0.01654999 0.01284011
v 0.00924402 0.01649189 0.00890802
v 0.01247057 0.01328923 0.00813730
v 0.00684368 0.01400514 0.00471228
v 0.00617828 0.01981259 0.01273948
v 0.00685839 0.01896353 0.01120427
f 16 9 5
f 16 5 2
f 17 2 5
f 17 5 10
f 20 2 17
f 26 10 5
f 26 5 14
f 27 1 9
f 27 9 15
f 28 15 9
f 28 9 16
f 29 17 10
f 29 20 17
f 29 6 20
f 29 18 6
f 29 10 18
f 30 12 6
f 30 6 18
f 31 19 11
f 31 20 6
f 31 11 20
f 32 11 19
f 32 21 3
f 35 21 6
f 35 6 12
f 35 12 34
f 35 34 3
f 35 3 21
f 39 3 34
f 43 14 5
f 43 5 9
f 44 18 10
f 44 10 26
f 44 4 18
f 45 27 15
f 45 23 41
f 46 15 28
f 46 45 15
f 47 30 18
f 47 18 4
f 47 22 30
f 48 30 22
f 48 12 30
f 48 34 12
f 48 22 7
f 48 39 34
f 49 31 6
f 49 6 21
f 49 21 32
f 49 32 19
f 49 19 31
f 50 20 11
f 50 11 32
f 50 33 20
f 50 32 3
f 50 38 8
f 50 8 33
f 51 16 2
f 51 2 20
f 51 20 33
f 52 33 8
f 52 51 33
f 52 28 16
f 52 16 51
f 52 46 28
f 52 8 46
f 53 7 22
f 53 22 36
f 54 36 14
f 54 53 36
f 54 25 42
f 54 42 7
f 54 7 53
f 54 43 25
f 54 14 43
f 55 4 44
f 55 44 26
f 55 26 14
f 55 47 4
f 55 37 22
f 55 22 47
f 56 36 22
f 56 22 37
f 56 14 36
f 56 55 14
f 56 37 55
f 57 38 23
f 57 8 38
f 57 23 45
f 57 46 8
f 57 45 46
f 58 3 39
f 58 50 3
f 58 38 50
f 58 23 38
f 59 40 9
f 59 9 1
f 59 24 40
f 59 1 27
f 59 27 45
f 59 45 41
f 59 41 24
f 60 41 13
f 60 24 41
f 60 42 24
f 61 39 13
f 61 13 41
f 61 41 23
f 61 58 39
f 61 23 58
f 62 7 42
f 62 48 7
f 62 13 39
f 62 39 48
f 62 60 13
f 62 42 60
f 63 43 9
f 63 25 43
f 64 40 24
f 64 24 42
f 64 9 40
f 64 63 9
f 64 42 25
f 64 25 63

