# https://github.com/mikedh/trimesh
v -0.02528052 -0.00483763 0.03865009
v -0.01129259 -0.02220256 0.02615254
v -0.02060882 0.00662107 0.02588929
v -0.01130135 0.00539094 0.00125559
v -0.01895921 -0.00851312 0.01038365
v -0.01208713 0.00585563 0.00743777
v -0.01880794 -0.01799600 0.03867420
v -0.01098357 -0.01100217 0.00274399
v -0.02235912 0.00360086 0.01615000
v -0.01218246 -0.01858650 0.02567212
v -0.01112547 -0.02187552 0.02458403
v -0.01656472 0.00683430 0.01463653
v -0.02519517 -0.01032438 0.03906191
v -0.01403590 -0.00447822 0.00211836
v -0.02378069 0.00627164 0.02612931
v -0.01327488 -0.01650469 0.01122365
v -0.01999941 0.00673650 0.02405733
v -0.02111970 0.00620628 0.01428321
v -0.02612066 -0.00781852 0.03906236
v -0.01393942 -0.00847433 0.00379220
v -0.01116930 -0.00789000 0.00128128
v -0.01905663 -0.00202095 0.00798879
v -0.02684127 -0.00469499 0.03887683
v -0.01100519 -0.01846704 0.01184535
v -0.01902397 -0.01499786 0.02292826
v -0.01201722 0.00537375 0.00144198
v -0.02237832 0.00524637 0.01773444
v -0.02268560 -0.01527354 0.03904947
v -0.02148255 -0.00772850 0.01691448
v -0.01737847 -0.00687963 0.00720666
v -0.01569028 -0.01248346 0.00888852
v -0.01241940 -0.00847589 0.00213405
v -0.02072852 0.00363917 0.01121373
v -0.02593922 0.00043142 0.03290265
v -0.01101594 -0.01513242 0.00697092
v -0.01172474 -0.01988305 0.01693596
v -0.01402161 0.00362691 0.00217159
v -0.01273606 -0.00539179 0.00143024
v -0.02149402 0.00605228 0.01531805
v -0.02408960 0.00360368 0.02456624
v -0.02130066 -0.01716960 0.03896950
v -0.01812222 -0.01249651 0.01363470
v -0.02064794 -0.01100291 0.01945409
v -0.02239570 -0.00528403 0.01774468
v -0.01658304 -0.01015082 0.00810325
v -0.01474440 -0.00681986 0.00381891
v -0.01647969 -0.00286725 0.00460736
v -0.01904143 -0.00529420 0.00876588
v -0.01188953 -0.00789311 0.00156494
v -0.01317650 -0.01084052 0.00469521
v -0.02069094 0.00522674 0.01203350
v -0.01099590 -0.01765218 0.01021054
v -0.01406833 -0.01489836 0.00963413
v -0.01108333 -0.02024018 0.01684116
v -0.01405845 -0.01734353 0.01449358
v -0.01901188 0.00275545 0.00802411
v -0.01277770 0.00371297 0.00144582
v -0.01328965 -0.00693719 0.00216808
v -0.02332014 0.00618377 0.02370639
v -0.02436328 0.00365761 0.02618807
v -0.02518488 0.00041207 0.02880778
v -0.01344375 -0.02100620 0.02621321
v -0.01977669 -0.01012016 0.01444075
v -0.01730109 -0.01168821 0.01041029
f 7 3 1
f 10 6 3
f 10 2 6
f 10 7 2
f 10 3 7
f 11 6 2
f 11 4 6
f 11 8 4
f 12 6 4
f 17 3 6
f 17 6 12
f 17 15 3
f 18 17 12
f 18 15 17
f 19 7 1
f 21 4 8
f 23 1 3
f 23 19 1
f 24 8 11
f 26 18 12
f 26 12 4
f 28 19 13
f 28 7 19
f 29 13 19
f 34 23 3
f 34 3 15
f 38 4 21
f 39 9 27
f 40 27 9
f 40 15 27
f 41 28 25
f 41 2 7
f 41 7 28
f 43 28 13
f 43 13 29
f 43 25 28
f 43 42 25
f 44 29 19
f 44 19 23
f 44 9 33
f 44 33 22
f 44 5 29
f 45 5 30
f 46 45 30
f 46 20 45
f 47 46 30
f 47 14 46
f 47 37 14
f 48 30 5
f 48 47 30
f 48 22 47
f 48 44 22
f 48 5 44
f 49 21 8
f 49 8 32
f 49 38 21
f 50 20 32
f 50 45 20
f 50 31 45
f 50 32 8
f 51 33 9
f 51 18 26
f 51 26 37
f 51 39 18
f 51 9 39
f 52 24 16
f 52 35 8
f 52 8 24
f 53 31 50
f 53 50 8
f 53 8 35
f 53 52 16
f 53 35 52
f 54 36 24
f 54 24 11
f 54 11 2
f 55 16 24
f 55 24 36
f 55 25 42
f 55 53 16
f 55 42 53
f 55 41 25
f 56 22 33
f 56 51 37
f 56 33 51
f 56 47 22
f 56 37 47
f 57 37 26
f 57 26 4
f 57 4 38
f 57 38 14
f 57 14 37
f 58 14 38
f 58 46 14
f 58 32 20
f 58 20 46
f 58 49 32
f 58 38 49
f 59 39 27
f 59 27 15
f 59 15 18
f 59 18 39
f 60 40 34
f 60 34 15
f 60 15 40
f 61 40 9
f 61 34 40
f 61 9 44
f 61 44 23
f 61 23 34
f 62 2 41
f 62 54 2
f 62 36 54
f 62 55 36
f 62 41 55
f 63 29 5
f 63 43 29
f 63 42 43
f 64 53 42
f 64 31 53
f 64 45 31
f 64 5 45
f 64 63 5
f 64 42 63

