# https://github.com/mikedh/trimesh
v 0.02127559 0.00038689 0.01338814
v 0.02101880 -0.00453902 0.01352093
v 0.01410004 -0.00296891 0.00210846
v 0.00723411 0.00040274 0.00021485
v 0.01065541 -0.01908357 0.01329501
v 0.01287354 0.00036652 0.00145931
v 0.01906925 -0.00367096 0.00880682
v 0.01191520 -0.01843011 0.01350369
v 0.00743705 0.00045182 0.00415964
v 0.00718211 -0.01051982 0.00109527
v 0.02081009 -0.00124821 0.01192396
v 0.01743415 0.00043011 0.01277506
v 0.01734339 -0.01258159 0.01203012
v 0.01027647 -0.01685931 0.00864432
v 0.01207396 -0.00623427 0.00143728
v 0.00714480 -0.00717441 0.00045345
v 0.00748786 -0.01092462 0.00686974
v 0.01995696 -0.00363986 0.01031690
v 0.01919752 0.00033201 0.00867071
v 0.01131096 -0.01389717 0.01279559
v 0.01845351 -0.01185945 0.01356026
v 0.01105128 -0.01832989 0.01189963
v 0.01043036 -0.01858594 0.01178448
v 0.01295665 -0.00213457 0.00144444
v 0.01486366 -0.00773893 0.00474699
v 0.01118544 -0.00783779 0.00146187
v 0.02076216 -0.00449001 0.01275509
v 0.01901110 -0.00770597 0.01048118
v 0.02083488 0.00036575 0.01194565
v 0.01408647 -0.00047960 0.00212036
v 0.01740971 -0.00291348 0.00628418
v 0.01426131 -0.01675590 0.01356587
v 0.01181646 -0.01822451 0.01276788
v 0.00884693 0.00039048 0.00045480
v 0.01327377 -0.00599285 0.00207270
v 0.01651376 -0.01257167 0.01048973
v 0.00796837 -0.00715206 0.00059842
v 0.01083428 -0.01007479 0.00219350
v 0.01907144 -0.00608432 0.00965518
v 0.01901992 -0.01019709 0.01280542
v 0.01997665 -0.00773994 0.01278228
v 0.01741940 0.00031779 0.00627828
v 0.01926389 -0.01030443 0.01356632
v 0.01672017 -0.01424975 0.01353114
v 0.01327719 -0.01652407 0.01123892
v 0.00882108 -0.00546535 0.00058551
v 0.01653245 -0.00447864 0.00549378
v 0.01820588 -0.00854190 0.00971156
v 0.00875735 -0.01043204 0.00141221
v 0.01406339 -0.00923270 0.00472215
v 0.01157842 -0.00922722 0.00224367
v 0.01821270 -0.01175350 0.01284413
v 0.01990404 -0.00696376 0.01195222
v 0.02019840 -0.00784149 0.01350702
v 0.01659670 -0.01406483 0.01284243
v 0.01091845 -0.01659197 0.00885200
v 0.01409412 -0.01658187 0.01278632
v 0.01393302 -0.00601652 0.00289273
v 0.01733050 -0.00605467 0.00716236
v 0.01822148 -0.00520921 0.00801558
v 0.01653807 -0.01174037 0.00972869
v 0.01575501 -0.01410334 0.01124499
v 0.01733348 -0.00773100 0.00801576
f 9 6 4
f 11 1 2
f 12 8 1
f 12 5 8
f 12 1 6
f 12 6 9
f 16 9 4
f 17 5 9
f 17 16 10
f 17 9 16
f 19 18 7
f 19 11 18
f 20 12 9
f 20 9 5
f 20 5 12
f 23 10 14
f 23 17 10
f 23 5 17
f 23 22 5
f 23 14 22
f 24 3 15
f 27 18 11
f 27 11 2
f 29 19 6
f 29 6 1
f 29 1 11
f 29 11 19
f 30 24 6
f 30 3 24
f 31 19 7
f 32 2 1
f 32 1 8
f 33 8 5
f 33 5 22
f 33 32 8
f 34 4 6
f 34 6 24
f 35 15 3
f 35 26 15
f 37 15 26
f 37 10 16
f 39 7 18
f 40 13 36
f 41 40 28
f 42 30 6
f 42 6 19
f 42 19 31
f 42 31 3
f 42 3 30
f 43 32 21
f 43 2 32
f 43 21 40
f 43 40 41
f 44 21 32
f 45 33 22
f 46 16 4
f 46 4 34
f 46 37 16
f 46 34 24
f 46 24 15
f 46 15 37
f 47 35 3
f 47 3 31
f 48 28 40
f 48 39 28
f 49 37 26
f 49 10 37
f 49 26 38
f 49 38 14
f 49 14 10
f 50 36 38
f 50 25 48
f 50 35 25
f 51 38 26
f 51 26 35
f 51 50 38
f 51 35 50
f 52 40 21
f 52 21 13
f 52 13 40
f 53 27 2
f 53 18 27
f 53 39 18
f 53 41 28
f 53 28 39
f 54 43 41
f 54 2 43
f 54 53 2
f 54 41 53
f 55 13 21
f 55 21 44
f 56 45 22
f 56 22 14
f 56 14 38
f 57 32 33
f 57 33 45
f 57 55 44
f 57 44 32
f 58 47 25
f 58 25 35
f 58 35 47
f 59 25 47
f 60 47 31
f 60 31 7
f 60 59 47
f 60 7 39
f 60 39 59
f 61 50 48
f 61 36 50
f 61 48 40
f 61 40 36
f 62 36 13
f 62 13 55
f 62 45 56
f 62 56 38
f 62 38 36
f 62 57 45
f 62 55 57
f 63 48 25
f 63 25 59
f 63 59 39
f 63 39 48

