# https://github.com/mikedh/trimesh
v -0.01165280 0.01168860 0.01140554
v 0.00748786 -0.01092462 0.00686974
v 0.00711979 0.00626127 0.00059241
v -0.01126581 0.00621538 0.00140832
v -0.01158931 -0.01077038 0.00887104
v -0.00374710 -0.01045839 0.00057807
v -0.00460743 0.01139320 0.00159484
v 0.00744024 0.00652854 0.00516815
v -0.01197485 0.01115109 0.01114758
v 0.00718211 -0.01051982 0.00109527
v -0.00957120 0.00287942 0.00054006
v -0.01100307 -0.01103233 0.00855934
v -0.01089929 0.01085463 0.00389381
v -0.00478264 0.01183137 0.00687303
v 0.00714966 -0.00794974 0.00056472
v 0.00764445 -0.01024134 0.00652522
v -0.00457002 0.00710759 0.00044854
v -0.01108047 -0.00871115 0.00143661
v -0.00847122 0.01077249 0.00231742
v -0.01112597 0.01201065 0.01114327
v -0.01101291 0.00848791 0.00210301
v 0.00377338 -0.01041802 0.00063129
v -0.00457617 0.01045173 0.00121763
v -0.01040466 -0.00297324 0.00057159
v -0.00622340 0.00705194 0.00063626
v -0.01093003 -0.01013382 0.00197510
v -0.01081396 0.00988969 0.00306412
v 0.00544949 -0.00959772 0.00063811
v -0.00784348 0.00947966 0.00145795
v -0.00788782 -0.00879506 0.00061499
v -0.01041064 0.00040758 0.00056775
v -0.00872385 0.00453273 0.00062163
v -0.00951187 -0.01038371 0.00137031
v -0.00619743 0.01029678 0.00142319
v -0.00703560 -0.00965121 0.00060375
v -0.00955834 -0.00627573 0.00061313
f 5 2 1
f 8 1 2
f 8 3 7
f 9 5 1
f 9 4 5
f 12 2 5
f 12 10 2
f 12 6 10
f 13 9 1
f 14 8 7
f 16 8 2
f 16 2 10
f 16 10 15
f 16 15 3
f 16 3 8
f 17 3 15
f 17 15 6
f 18 5 4
f 19 13 7
f 20 13 1
f 20 7 13
f 20 14 7
f 20 1 8
f 20 8 14
f 21 4 9
f 21 9 13
f 22 10 6
f 22 6 15
f 23 7 3
f 23 3 17
f 24 17 6
f 24 11 17
f 24 18 4
f 25 23 17
f 26 12 5
f 26 5 18
f 27 21 13
f 27 13 19
f 27 19 21
f 28 22 15
f 28 15 10
f 28 10 22
f 29 4 21
f 29 21 19
f 29 25 4
f 29 23 25
f 31 24 4
f 31 4 11
f 31 11 24
f 32 25 17
f 32 17 11
f 32 11 4
f 32 4 25
f 33 6 12
f 33 12 26
f 33 26 18
f 33 18 30
f 34 29 19
f 34 19 7
f 34 7 23
f 34 23 29
f 35 24 6
f 35 33 30
f 35 6 33
f 36 30 18
f 36 18 24
f 36 35 30
f 36 24 35

