# https://github.com/mikedh/trimesh
v -0.00453224 0.02386247 0.02615101
v -0.00479681 0.02143380 0.02589892
v -0.00460743 0.01139320 0.00159484
v -0.01148338 0.00554367 0.00132778
v -0.02378069 0.00627164 0.02612931
v -0.01208713 0.00585563 0.00743777
v -0.01410858 0.01480051 0.01121938
v -0.00444590 0.02350262 0.02457769
v -0.02060882 0.00662107 0.02588929
v -0.00494207 0.01221993 0.00722240
v -0.02093165 0.00528665 0.01268761
v -0.01004139 0.01160696 0.00393810
v -0.01594833 0.01831949 0.02624823
v -0.00453764 0.01204656 0.00191684
v -0.01341624 0.00524803 0.00206876
v -0.01173357 0.00762578 0.00203043
v -0.00611707 0.02344727 0.02624730
v -0.02068411 0.01255445 0.02454320
v -0.00610572 0.01906003 0.01112907
v -0.01725610 0.00999950 0.00963236
v -0.00680796 0.01159914 0.00223689
v -0.02340040 0.00779000 0.02621679
v -0.00607163 0.02328483 0.02542775
v -0.01813350 0.01335631 0.01699073
v -0.00447524 0.02000809 0.01270482
v -0.01085077 0.01896150 0.01619837
v -0.01083425 0.01560622 0.00882483
v -0.01926681 0.00527494 0.00944452
v -0.01566456 0.00843593 0.00640047
v -0.00607825 0.01654219 0.00723329
v -0.01922229 0.01507180 0.02624505
v -0.02061496 0.00838401 0.01535511
v -0.02172859 0.00612842 0.01609504
v -0.01579244 0.01571745 0.01704938
v -0.01731423 0.01242135 0.01282712
v -0.00445006 0.01326493 0.00294120
v -0.00524624 0.02071451 0.01529033
v -0.01181992 0.02075870 0.02458456
v -0.01408711 0.01320124 0.00883663
v -0.01007305 0.01813125 0.01280358
v -0.01977460 0.00762394 0.01198230
v -0.01315380 0.00588976 0.00217496
v -0.01739120 0.00764362 0.00798985
v -0.00444975 0.01752638 0.00793262
v -0.00765770 0.01725546 0.00877162
v -0.02089634 0.01269124 0.02618982
v -0.01913101 0.01497795 0.02536420
v -0.02244593 0.00935728 0.02461364
v -0.02066942 0.01088595 0.02034882
v -0.02133512 0.00544176 0.01421279
v -0.02331693 0.00702267 0.02456982
v -0.02150354 0.00691071 0.01617025
v -0.01413471 0.01736740 0.01783793
v -0.01813720 0.01168165 0.01358379
v -0.01493596 0.01483879 0.01281991
v -0.00519070 0.01319433 0.00306777
v -0.00521315 0.02243780 0.02120742
v -0.00450859 0.02085472 0.01524066
v -0.00529986 0.01986029 0.01275582
v -0.00755719 0.01894833 0.01198235
v -0.00861429 0.02269321 0.02620676
v -0.01329907 0.01320979 0.00809227
v -0.01245520 0.01558999 0.01040375
v -0.01494095 0.01163315 0.00813309
f 6 4 3
f 8 1 2
f 9 2 1
f 9 1 5
f 10 6 3
f 10 3 2
f 10 9 6
f 10 2 9
f 11 9 5
f 11 6 9
f 14 8 2
f 14 2 3
f 15 4 6
f 15 6 11
f 16 3 4
f 16 4 15
f 17 5 1
f 21 14 3
f 21 3 16
f 21 16 12
f 22 5 17
f 23 17 1
f 23 1 8
f 28 15 11
f 31 22 17
f 31 17 13
f 36 8 14
f 39 35 7
f 41 28 11
f 42 29 16
f 42 16 15
f 42 15 29
f 43 20 29
f 43 41 20
f 43 28 41
f 43 29 15
f 43 15 28
f 44 19 25
f 44 36 30
f 44 25 8
f 44 8 36
f 45 44 30
f 45 19 44
f 45 27 40
f 45 12 27
f 46 22 31
f 47 24 18
f 47 46 31
f 47 18 46
f 47 34 24
f 47 31 13
f 47 13 34
f 48 46 18
f 48 22 46
f 49 18 24
f 49 48 18
f 49 32 48
f 50 33 11
f 50 11 5
f 50 5 33
f 51 33 5
f 51 5 22
f 52 11 33
f 52 41 11
f 52 32 41
f 52 48 32
f 52 33 51
f 52 51 22
f 52 22 48
f 53 26 7
f 53 38 26
f 53 34 13
f 53 13 38
f 54 24 35
f 54 49 24
f 54 32 49
f 54 41 32
f 54 35 20
f 54 20 41
f 55 7 35
f 55 53 7
f 55 34 53
f 55 35 24
f 55 24 34
f 56 36 14
f 56 14 21
f 56 30 36
f 56 45 30
f 56 21 12
f 56 12 45
f 57 23 8
f 58 8 25
f 58 57 8
f 58 37 57
f 59 25 19
f 59 58 25
f 59 37 58
f 60 40 26
f 60 45 40
f 60 19 45
f 60 59 19
f 60 37 59
f 61 38 13
f 61 13 17
f 61 17 23
f 61 26 38
f 61 23 57
f 61 60 26
f 61 57 37
f 61 37 60
f 62 39 27
f 62 27 12
f 63 39 7
f 63 27 39
f 63 40 27
f 63 7 26
f 63 26 40
f 64 29 20
f 64 20 35
f 64 35 39
f 64 39 62
f 64 16 29
f 64 62 12
f 64 12 16

