# https://github.com/mikedh/trimesh
v -0.00544193 0.02735623 0.05035729
v -0.00559091 0.02655636 0.05035287
v -0.00559735 0.02123569 0.02596028
v -0.02063341 0.01307422 0.02609599
v -0.02462846 0.01294815 0.05024823
v -0.01263291 0.02243617 0.03320978
v -0.02334840 0.01365519 0.05021293
v -0.01654379 0.01388123 0.02575418
v -0.00532760 0.02365300 0.02619881
v -0.01681126 0.02247078 0.04903380
v -0.02114745 0.01283514 0.02793383
v -0.00861648 0.02674315 0.04582102
v -0.00530138 0.02517174 0.03308922
v -0.01500883 0.01902115 0.02630402
v -0.00660953 0.02089317 0.02580201
v -0.01261220 0.02504431 0.05024622
v -0.02081226 0.01838885 0.04495074
v -0.00774537 0.02494005 0.03482862
v -0.01346343 0.02417705 0.04345730
v -0.00535427 0.02682313 0.04163711
v -0.00929908 0.02242538 0.02627869
v -0.01763963 0.01680175 0.02624374
v -0.01094030 0.02156098 0.02626582
v -0.02079683 0.01844053 0.05018341
v -0.00865628 0.02674778 0.05012518
v -0.02323044 0.01516155 0.04415627
v -0.00611421 0.02498674 0.03313332
v -0.01097981 0.02588503 0.04663191
v -0.01748878 0.02170734 0.04580819
v -0.01090442 0.02494717 0.04081304
v -0.00696946 0.02667325 0.04249528
v -0.00686488 0.02324143 0.02628761
v -0.02073557 0.01499397 0.03232040
v -0.01837605 0.02086778 0.05015461
v -0.02255610 0.01666711 0.04750441
v -0.01101353 0.02583973 0.05024548
v -0.02277898 0.01280598 0.03476043
v -0.01263381 0.02499060 0.04579262
v -0.01677082 0.02252089 0.04831836
v -0.01828659 0.01995997 0.04085107
v -0.01505363 0.02331481 0.04416772
v -0.01098797 0.02324083 0.03318882
v -0.01014531 0.02491061 0.03917090
v -0.01023981 0.02589636 0.04417006
v -0.00614073 0.02668495 0.04165917
v -0.01989479 0.01422095 0.02622043
v -0.01996343 0.01831791 0.04085559
v -0.01507001 0.02343192 0.05010703
v -0.02243539 0.01589141 0.04253794
v -0.02414072 0.01428191 0.04747859
v -0.02251809 0.01669896 0.04970997
v -0.01994636 0.01919901 0.04416032
v -0.01744618 0.01745913 0.02800563
v -0.01409756 0.02166789 0.03394540
v -0.02068642 0.01423103 0.02967955
v -0.01991243 0.01497996 0.02884938
v -0.02447507 0.01283651 0.04323844
v -0.02337317 0.01520993 0.05015441
v -0.01836430 0.02081168 0.04501969
v -0.02157964 0.01670343 0.04174130
v -0.02241937 0.01339069 0.03487245
v -0.01823554 0.01664082 0.02800812
v -0.02410717 0.01347422 0.04329091
v -0.02410714 0.01430002 0.04980710
f 1 2 3
f 5 2 1
f 7 3 2
f 7 2 5
f 8 7 5
f 8 3 7
f 11 8 5
f 11 4 8
f 13 1 3
f 13 3 9
f 15 9 3
f 15 3 8
f 16 5 1
f 20 12 1
f 20 1 13
f 21 9 15
f 22 8 4
f 23 15 8
f 23 21 15
f 23 14 6
f 23 6 21
f 23 22 14
f 23 8 22
f 24 5 16
f 25 1 12
f 27 18 13
f 27 13 9
f 27 9 18
f 28 25 12
f 30 6 19
f 31 12 20
f 31 13 18
f 32 21 18
f 32 18 9
f 32 9 21
f 34 24 16
f 34 10 24
f 36 16 1
f 36 1 25
f 36 28 16
f 36 25 28
f 37 4 11
f 37 11 5
f 38 16 28
f 39 10 16
f 39 16 38
f 39 17 35
f 39 35 24
f 39 24 10
f 41 40 29
f 41 29 39
f 41 39 38
f 41 38 19
f 42 21 6
f 42 6 30
f 43 18 21
f 43 42 30
f 43 21 42
f 44 28 12
f 44 43 30
f 44 18 43
f 44 31 18
f 44 12 31
f 44 38 28
f 44 30 19
f 44 19 38
f 45 31 20
f 45 20 13
f 45 13 31
f 46 22 4
f 48 34 16
f 48 16 10
f 48 10 34
f 49 35 17
f 49 26 35
f 49 37 26
f 50 35 26
f 51 24 35
f 51 35 50
f 53 14 22
f 53 52 40
f 53 22 47
f 53 47 52
f 54 41 19
f 54 19 6
f 54 6 14
f 54 40 41
f 54 53 40
f 54 14 53
f 55 46 4
f 55 4 37
f 55 49 33
f 55 33 46
f 56 46 33
f 56 22 46
f 57 37 5
f 57 5 50
f 57 50 26
f 58 5 24
f 58 24 51
f 59 52 17
f 59 29 40
f 59 40 52
f 59 39 29
f 59 17 39
f 60 49 17
f 60 17 52
f 60 52 47
f 60 47 56
f 60 56 33
f 60 33 49
f 61 55 37
f 61 37 49
f 61 49 55
f 62 56 47
f 62 47 22
f 62 22 56
f 63 57 26
f 63 26 37
f 63 37 57
f 64 58 51
f 64 51 50
f 64 50 5
f 64 5 58

