# https://github.com/mikedh/trimesh
v 0.02774298 -0.00202804 0.05013615
v 0.02766922 -0.00367909 0.04980344
v 0.02127559 0.00038689 0.01338814
v 0.01767793 0.00042765 0.01316082
v 0.01299085 -0.02377511 0.03899292
v 0.02764167 0.00042096 0.04316341
v 0.01959650 -0.01869570 0.05033619
v 0.02695454 -0.00227241 0.05005448
v 0.01227620 -0.01813559 0.01331785
v 0.01835321 0.00047356 0.01461117
v 0.02775371 -0.00201325 0.04492549
v 0.02505608 -0.01192642 0.05016957
v 0.01370139 -0.02163275 0.03871107
v 0.02631609 0.00043130 0.04309995
v 0.01306450 -0.01210899 0.01280372
v 0.02085949 -0.01759833 0.03916925
v 0.02768511 -0.00368627 0.04744319
v 0.02512450 -0.00380084 0.03054220
v 0.02682828 -0.00705090 0.05019168
v 0.02447997 0.00044859 0.03604072
v 0.01205790 -0.02116232 0.02363424
v 0.01898133 -0.01096243 0.01360905
v 0.02175646 -0.01764592 0.04974846
v 0.02511314 0.00035375 0.03052223
v 0.02682326 -0.00201881 0.03905609
v 0.02674380 -0.00698327 0.04242523
v 0.02767964 -0.00287485 0.05008811
v 0.02336324 -0.01514947 0.05020074
v 0.02681297 -0.00782711 0.04970686
v 0.01194462 -0.01940548 0.01683185
v 0.01289646 -0.02366311 0.03812292
v 0.01743146 -0.01338001 0.01358965
v 0.02169204 -0.00536102 0.01609163
v 0.02128942 -0.01794238 0.05020083
v 0.01520412 -0.02256950 0.03908086
v 0.02254000 -0.00287137 0.01858916
v 0.02252948 0.00038109 0.01857727
v 0.02763355 -0.00282718 0.04494914
v 0.02501984 -0.01198109 0.04248663
v 0.02678534 -0.00624179 0.04158795
v 0.02674135 -0.00778502 0.04412336
v 0.02596892 -0.01024090 0.04975741
v 0.01203235 -0.01860083 0.01428402
v 0.01504814 -0.01817126 0.02035887
v 0.02167747 -0.01425894 0.03226996
v 0.02070007 -0.00615171 0.01362182
v 0.02172433 -0.01762832 0.04578119
v 0.01367625 -0.02344397 0.03906624
v 0.02425222 -0.00125828 0.02624993
v 0.02251333 -0.00548851 0.01947996
v 0.02591401 -0.01031764 0.04412865
v 0.01337076 -0.01992685 0.02205850
v 0.01839276 -0.01916437 0.03567988
v 0.01743833 -0.01490309 0.01778578
v 0.01420857 -0.01740604 0.01525046
v 0.01904950 -0.01258972 0.01687634
v 0.02249065 -0.01599166 0.04077134
v 0.02072521 -0.00858238 0.01611147
v 0.02330470 -0.01516910 0.04244970
v 0.01232340 -0.02161683 0.02609775
v 0.02499489 -0.00525810 0.03138504
v 0.02240927 -0.00777394 0.02199660
v 0.02499597 -0.00944904 0.03736064
v 0.01267040 -0.02081876 0.02372375
f 8 7 1
f 10 6 3
f 10 3 4
f 11 6 1
f 13 5 7
f 13 7 8
f 14 13 8
f 14 4 13
f 14 10 4
f 14 8 1
f 14 1 6
f 15 4 3
f 15 13 4
f 15 5 13
f 17 11 1
f 17 1 2
f 19 1 7
f 20 14 6
f 20 6 10
f 20 10 14
f 24 6 18
f 25 18 6
f 25 6 11
f 27 19 2
f 27 2 1
f 27 1 19
f 28 19 7
f 28 12 19
f 29 17 2
f 29 2 19
f 30 21 15
f 31 5 15
f 31 15 21
f 32 9 15
f 32 15 22
f 34 7 5
f 34 28 7
f 34 23 28
f 35 23 34
f 36 33 3
f 37 3 6
f 37 6 24
f 37 36 3
f 38 11 17
f 38 17 26
f 40 25 11
f 40 38 26
f 40 11 38
f 40 18 25
f 41 26 17
f 41 17 29
f 42 29 19
f 42 19 12
f 42 12 28
f 43 30 15
f 43 15 9
f 46 3 33
f 46 22 15
f 46 15 3
f 47 35 16
f 47 23 35
f 48 5 31
f 48 35 34
f 48 34 5
f 49 24 18
f 49 18 36
f 49 37 24
f 49 36 37
f 50 36 18
f 50 33 36
f 51 26 41
f 51 41 29
f 51 29 42
f 51 42 28
f 51 28 39
f 52 44 35
f 53 16 35
f 53 35 44
f 54 53 44
f 54 16 53
f 55 9 32
f 55 54 44
f 55 32 54
f 55 44 52
f 55 43 9
f 55 52 30
f 55 30 43
f 56 32 22
f 56 39 45
f 56 54 32
f 56 45 16
f 56 16 54
f 57 16 45
f 57 47 16
f 58 46 33
f 58 22 46
f 58 33 50
f 58 56 22
f 59 39 28
f 59 28 23
f 59 23 47
f 59 47 57
f 59 57 45
f 59 45 39
f 60 48 31
f 60 31 21
f 60 35 48
f 61 50 18
f 61 18 40
f 62 40 26
f 62 58 50
f 62 39 56
f 62 56 58
f 62 61 40
f 62 50 61
f 63 51 39
f 63 26 51
f 63 62 26
f 63 39 62
f 64 21 30
f 64 30 52
f 64 60 21
f 64 52 35
f 64 35 60

