# https://github.com/mikedh/trimesh
v 0.02268223 0.01683751 0.05003866
v 0.02774298 -0.00202804 0.05013615
v 0.02544418 0.00792242 0.03902495
v 0.01318409 0.02333166 0.03890369
v 0.01430224 0.02290984 0.05019581
v 0.02613018 -0.00213938 0.04313283
v 0.02163231 0.01590256 0.03919551
v 0.02770395 0.00455940 0.05004147
v 0.02589736 0.01107811 0.05004486
v 0.01525974 0.02349602 0.04579052
v 0.02755938 -0.00209846 0.04316854
v 0.02345257 0.00835359 0.03859578
v 0.01371966 0.02069545 0.03863483
v 0.02695454 -0.00227241 0.05005448
v 0.01468419 0.02267390 0.05019614
v 0.02593100 0.01041306 0.04581268
v 0.01307163 0.02479491 0.04573614
v 0.01842801 0.02078507 0.04340211
v 0.02769349 0.00208535 0.04410031
v 0.01681491 0.02092138 0.03907371
v 0.01773673 0.02173040 0.05003683
v 0.02594006 0.01117795 0.04831988
v 0.02411757 0.01273547 0.04085199
v 0.01358222 0.02416348 0.04333667
v 0.01291873 0.02368990 0.03986325
v 0.02257680 0.01674816 0.04505339
v 0.02768494 -0.00198016 0.04410135
v 0.02769035 0.00449949 0.04839734
v 0.02677233 0.00611331 0.04325026
v 0.02007168 0.01829201 0.04093586
v 0.01372954 0.02445524 0.04575633
v 0.01765235 0.02168769 0.04499421
v 0.02435699 0.01438615 0.04998742
v 0.02505236 0.01193686 0.04333833
v 0.02494268 0.00946131 0.03911929
v 0.01440938 0.02262496 0.03907156
v 0.01291790 0.02449651 0.04326403
v 0.02336936 0.01512331 0.04336693
v 0.02766263 0.00283680 0.04488793
v 0.01922022 0.02004831 0.04333897
v 0.02180991 0.01750366 0.04417037
v 0.01515545 0.02335006 0.04417145
v 0.02337961 0.01598240 0.04743011
v 0.02585101 0.00861503 0.04165570
v 0.02249416 0.01507687 0.04004163
v 0.02499671 0.01113630 0.04170185
v 0.02415224 0.01347036 0.04255084
v 0.01843327 0.01996683 0.04090055
v 0.01678992 0.02161287 0.04175699
v 0.02339260 0.01600357 0.04984128
v 0.02418032 0.01438256 0.04581906
v 0.02505139 0.01271570 0.04585760
f 9 2 8
f 12 11 6
f 12 3 11
f 12 7 3
f 13 12 6
f 14 2 5
f 14 13 6
f 14 5 13
f 14 11 2
f 14 6 11
f 15 5 2
f 15 2 9
f 15 9 1
f 17 13 5
f 19 8 2
f 19 11 3
f 20 13 4
f 20 7 12
f 20 12 13
f 21 5 15
f 21 17 5
f 21 15 1
f 22 9 8
f 25 4 13
f 27 19 2
f 27 2 11
f 27 11 19
f 28 8 19
f 28 22 8
f 28 16 22
f 29 19 3
f 29 16 28
f 30 7 20
f 31 21 10
f 31 17 21
f 31 24 17
f 32 10 21
f 32 21 1
f 33 1 9
f 33 9 22
f 34 22 16
f 35 3 7
f 36 20 4
f 36 4 24
f 37 25 13
f 37 13 17
f 37 17 24
f 37 24 4
f 37 4 25
f 39 29 28
f 39 28 19
f 39 19 29
f 40 20 18
f 40 18 32
f 41 7 30
f 41 26 38
f 41 30 40
f 41 40 32
f 41 32 1
f 41 1 26
f 42 31 10
f 42 24 31
f 42 10 32
f 42 36 24
f 42 32 18
f 43 26 1
f 44 29 3
f 44 3 35
f 44 34 16
f 44 16 29
f 45 35 7
f 45 23 35
f 45 41 38
f 45 7 41
f 46 35 23
f 46 23 34
f 46 44 35
f 46 34 44
f 47 34 23
f 47 45 38
f 47 23 45
f 48 40 30
f 48 30 20
f 48 20 40
f 49 42 18
f 49 18 20
f 49 20 36
f 49 36 42
f 50 43 1
f 50 1 33
f 50 33 43
f 51 38 26
f 51 26 43
f 51 47 38
f 51 43 33
f 52 34 47
f 52 47 51
f 52 22 34
f 52 51 33
f 52 33 22

