# https://github.com/mikedh/trimesh
v 0.02631431 0.00792402 0.04320781
v 0.02764167 0.00042096 0.04316341
v 0.02127559 0.00038689 0.01338814
v 0.01119658 0.01295110 0.01290741
v 0.01984442 0.01540667 0.03776574
v 0.01767793 0.00042765 0.01316082
v 0.02422585 0.00453497 0.02800051
v 0.02479729 0.00821556 0.04308387
v 0.02631609 0.00043130 0.04309995
v 0.01659355 0.01251599 0.01355006
v 0.02684368 0.00537728 0.04246060
v 0.02340319 0.00213796 0.02285780
v 0.02041947 0.01519666 0.03874702
v 0.01103535 0.01363067 0.01389514
v 0.02695417 0.00537696 0.04322586
v 0.02611279 0.00039091 0.04212072
v 0.01905325 0.00847708 0.01358082
v 0.02591087 0.00780715 0.04082651
v 0.02589639 0.00440117 0.03647687
v 0.02509338 0.00293639 0.03134332
v 0.02344312 0.00037435 0.02284902
v 0.02245836 0.00349846 0.01945189
v 0.02085271 0.01419297 0.03140066
v 0.01903499 0.01541191 0.03603025
v 0.01084613 0.01339328 0.01315113
v 0.02416882 0.00607648 0.02966400
v 0.02675536 0.00277552 0.03992185
v 0.02696538 0.00037360 0.03994970
v 0.02181151 0.00035857 0.01600521
v 0.02076151 0.00359676 0.01354081
v 0.02263419 0.01440067 0.03914942
v 0.01985525 0.01170918 0.02210922
v 0.01550237 0.01541146 0.02670942
v 0.02074152 0.00769161 0.01784282
v 0.02327097 0.00524445 0.02456203
v 0.02164362 0.00291315 0.01611564
v 0.02414597 0.01107770 0.03830447
v 0.01823191 0.01008120 0.01358788
v 0.01907468 0.01249571 0.02125355
v 0.01907154 0.01431074 0.02637257
v 0.01645896 0.01542852 0.02924046
v 0.02154085 0.00609027 0.01867817
v 0.02332669 0.00852334 0.02973091
v 0.02250728 0.01183152 0.03227174
v 0.01897316 0.00924730 0.01445433
v 0.02156406 0.00438205 0.01701017
v 0.02413700 0.01018197 0.03655158
v 0.02163265 0.01263858 0.03058333
v 0.02072907 0.01011036 0.02209689
f 6 4 3
f 13 8 1
f 13 9 8
f 13 5 9
f 15 9 2
f 15 1 8
f 15 8 9
f 15 11 1
f 15 2 11
f 16 9 6
f 16 2 9
f 17 3 4
f 18 1 11
f 19 7 11
f 20 12 7
f 20 2 12
f 20 7 19
f 21 12 2
f 21 3 12
f 22 12 3
f 22 7 12
f 24 14 9
f 24 9 5
f 25 4 6
f 25 6 9
f 25 9 14
f 25 14 10
f 25 10 4
f 26 18 11
f 26 11 7
f 27 19 11
f 27 11 2
f 27 20 19
f 27 2 20
f 28 21 2
f 28 2 16
f 29 16 6
f 29 6 3
f 29 3 21
f 29 28 16
f 29 21 28
f 30 3 17
f 31 23 5
f 31 5 13
f 31 13 1
f 33 10 14
f 33 14 24
f 34 30 17
f 35 26 7
f 35 7 22
f 36 30 22
f 36 22 3
f 36 3 30
f 37 31 1
f 37 1 18
f 38 17 4
f 38 4 10
f 39 10 23
f 39 23 32
f 39 38 10
f 39 32 38
f 40 23 10
f 40 10 33
f 40 5 23
f 41 33 24
f 41 24 5
f 41 40 33
f 41 5 40
f 42 30 34
f 42 35 22
f 43 26 35
f 43 18 26
f 43 42 34
f 43 35 42
f 44 31 37
f 44 43 34
f 45 34 17
f 45 17 38
f 45 38 32
f 46 42 22
f 46 22 30
f 46 30 42
f 47 37 18
f 47 18 43
f 47 44 37
f 47 43 44
f 48 32 23
f 48 23 31
f 48 31 44
f 49 44 34
f 49 48 44
f 49 32 48
f 49 45 32
f 49 34 45

