# https://github.com/mikedh/trimesh
v 0.02128942 -0.01794238 0.05020083
v 0.02091123 -0.01851455 0.05013505
v 0.02051606 -0.01795706 0.03903474
v -0.00908564 -0.02397255 0.03874045
v -0.00924335 -0.02523048 0.05018845
v 0.02128410 -0.01791147 0.04319330
v 0.00794036 -0.02687550 0.05011389
v 0.01278664 -0.02499935 0.05020355
v -0.00450030 -0.02765629 0.04492971
v 0.01764234 -0.02181054 0.05007940
v -0.00873220 -0.02633704 0.05021658
v 0.00868104 -0.02588609 0.03902956
v 0.02009319 -0.01919105 0.04164854
v -0.00369617 -0.02761709 0.05019516
v -0.00861017 -0.02592036 0.03902387
v 0.01105641 -0.02588947 0.04577403
v 0.00202210 -0.02765225 0.04242152
v 0.01722597 -0.01891852 0.03867496
v 0.02085636 -0.01842331 0.04318574
v 0.01690673 -0.02255566 0.04983163
v 0.01520412 -0.02256950 0.03908086
v -0.00447931 -0.02767159 0.04975423
v -0.00919956 -0.02435965 0.04036985
v -0.00771624 -0.02670906 0.04241658
v 0.00461622 -0.02680597 0.03897484
v 0.01112093 -0.02595173 0.04984432
v -0.00535851 -0.02670461 0.03908918
v 0.00453508 -0.02763214 0.05009208
v 0.01438441 -0.02420291 0.05007515
v 0.01760595 -0.02075423 0.03908404
v 0.01186029 -0.02505996 0.04162689
v 0.01515158 -0.02336065 0.04248156
v -0.00780642 -0.02674392 0.05010389
v -0.00117926 -0.02765679 0.04243020
v 0.00787123 -0.02674792 0.04328400
v 0.00872853 -0.02674875 0.04575727
v -0.00694135 -0.02671191 0.04074145
v 0.00543129 -0.02763622 0.04743501
v 0.01273943 -0.02504441 0.04492854
v 0.02012656 -0.01842597 0.03916493
v 0.01095934 -0.02496052 0.03916922
v 0.01682448 -0.02249260 0.04581749
v 0.01439950 -0.02326723 0.03995916
v 0.01847942 -0.02077984 0.04243948
v 0.01675231 -0.02161778 0.03996189
v -0.00290078 -0.02762180 0.04329555
v 0.00704799 -0.02672277 0.04158422
v 0.01034455 -0.02584989 0.04241003
v 0.00871680 -0.02677096 0.04974767
v 0.01930885 -0.01995619 0.04164362
v 0.01435396 -0.02417878 0.04580173
v 0.01357226 -0.02412716 0.04171475
v 0.00374939 -0.02759739 0.04411289
v 0.00537366 -0.02758790 0.04980236
f 1 3 4
f 5 1 4
f 6 1 2
f 6 3 1
f 10 2 1
f 10 1 8
f 11 8 1
f 11 1 5
f 13 3 6
f 14 7 8
f 14 8 11
f 15 11 5
f 18 4 3
f 19 13 6
f 19 6 2
f 19 2 13
f 20 13 2
f 20 2 10
f 21 12 18
f 23 15 5
f 23 5 4
f 23 4 15
f 24 11 15
f 25 18 12
f 25 4 18
f 26 8 7
f 27 15 4
f 27 4 25
f 28 7 14
f 28 14 22
f 29 20 10
f 29 10 8
f 29 8 26
f 30 21 18
f 30 18 3
f 33 22 14
f 33 14 11
f 33 11 24
f 33 24 9
f 33 9 22
f 34 22 9
f 34 17 22
f 34 27 25
f 34 25 17
f 36 16 26
f 37 24 15
f 37 15 27
f 37 27 9
f 37 9 24
f 38 28 22
f 38 22 17
f 38 35 36
f 39 29 26
f 39 26 16
f 40 30 3
f 40 3 13
f 41 12 21
f 43 21 32
f 43 41 21
f 43 31 41
f 44 42 32
f 45 32 21
f 45 21 30
f 45 44 32
f 46 34 9
f 46 9 27
f 46 27 34
f 47 25 12
f 47 12 35
f 47 35 38
f 48 35 12
f 48 36 35
f 48 16 36
f 48 39 16
f 48 31 39
f 48 41 31
f 48 12 41
f 49 36 26
f 49 26 7
f 49 38 36
f 50 40 13
f 50 30 40
f 50 13 20
f 50 20 42
f 50 42 44
f 50 45 30
f 50 44 45
f 51 39 32
f 51 32 42
f 51 29 39
f 51 42 20
f 51 20 29
f 52 43 32
f 52 31 43
f 52 39 31
f 52 32 39
f 53 17 25
f 53 25 47
f 53 47 38
f 53 38 17
f 54 49 7
f 54 7 28
f 54 28 38
f 54 38 49

