# https://github.com/mikedh/trimesh
v -0.00924335 -0.02523048 0.05018845
v 0.00126529 -0.02715666 0.03897766
v 0.00133296 -0.01847014 0.01319323
v -0.01164805 -0.01426817 0.01314015
v -0.00846327 -0.02152953 0.01697995
v -0.01963186 -0.01876675 0.04823670
v -0.01021565 -0.02581479 0.04243164
v 0.00123786 -0.02201504 0.01345866
v -0.01795336 -0.01714911 0.02615040
v 0.00133388 -0.02560766 0.03879463
v -0.00448216 -0.02589046 0.03313766
v -0.00873220 -0.02633704 0.05021658
v -0.01092447 -0.01918516 0.01356480
v -0.01106784 -0.01464299 0.01295902
v -0.02119124 -0.01705935 0.03818153
v -0.01952153 -0.01964682 0.05020327
v 0.00147393 -0.02185883 0.02492680
v -0.00857938 -0.02579791 0.03820190
v -0.00285410 -0.02336189 0.01860608
v -0.00369237 -0.02692935 0.03904504
v -0.00523395 -0.02150697 0.01362411
v -0.01589052 -0.02246552 0.03994179
v -0.01941314 -0.01699980 0.03139332
v -0.02130066 -0.01716960 0.03896950
v 0.00140165 -0.01932807 0.01551493
v 0.00133442 -0.02593992 0.03135145
v -0.00592327 -0.02326045 0.02118098
v -0.00692023 -0.02581246 0.03566200
v -0.00770835 -0.02074163 0.01358455
v -0.00282918 -0.02248318 0.01528772
v -0.01258583 -0.02162210 0.02625558
v -0.01438337 -0.02417500 0.04968663
v -0.01839341 -0.02086085 0.04162066
v -0.02081316 -0.01754933 0.03828076
v 0.00127985 -0.02251006 0.01519022
v -0.00035728 -0.02679836 0.03647418
v -0.01023281 -0.02492341 0.03653791
v -0.00444297 -0.02325184 0.01943014
v -0.00927043 -0.02064291 0.01531498
v -0.01586393 -0.01912408 0.02621062
v -0.01435750 -0.02417185 0.04576904
v -0.01272036 -0.02499435 0.04966200
v -0.01869094 -0.02112213 0.05019134
v -0.02091754 -0.01766348 0.03907393
v 0.00040536 -0.02333924 0.01857294
v 0.00048697 -0.02592550 0.03136068
v -0.01181248 -0.02408236 0.03569957
v -0.00447801 -0.02245728 0.01610886
v -0.01094594 -0.02075625 0.01859487
v -0.01753746 -0.01760758 0.02624915
v -0.01575428 -0.02164718 0.03575829
v -0.01674531 -0.02249994 0.04406142
v -0.01025070 -0.02587871 0.05013949
v -0.01270776 -0.02501693 0.04577138
v -0.01913093 -0.01914594 0.03745414
v 0.00124157 -0.02418612 0.02288881
v -0.01097139 -0.02410174 0.03402110
v -0.01344551 -0.02416815 0.04075994
v -0.01082870 -0.01988887 0.01532875
v -0.01755747 -0.02170572 0.04242176
v -0.01748409 -0.02083963 0.03832496
v -0.01691617 -0.02256241 0.05006028
v -0.01513462 -0.02330162 0.04160701
f 6 3 4
f 10 3 6
f 12 10 1
f 12 2 10
f 13 9 4
f 14 4 3
f 14 3 8
f 14 13 4
f 15 6 4
f 16 10 6
f 16 1 10
f 16 12 1
f 17 3 10
f 20 12 7
f 20 2 12
f 20 7 18
f 23 15 4
f 23 4 9
f 23 9 15
f 24 16 6
f 24 6 15
f 25 8 3
f 25 3 17
f 26 17 10
f 26 10 2
f 28 20 18
f 28 11 20
f 28 27 11
f 28 18 27
f 29 21 5
f 29 13 14
f 29 14 8
f 29 8 21
f 30 21 8
f 34 24 15
f 34 15 9
f 35 25 17
f 35 8 25
f 35 17 26
f 35 30 8
f 35 19 30
f 36 11 19
f 36 20 11
f 36 26 2
f 36 2 20
f 37 27 18
f 37 5 27
f 37 18 7
f 38 19 11
f 38 11 27
f 39 29 5
f 39 13 29
f 43 12 16
f 43 16 24
f 44 24 34
f 44 43 24
f 44 33 43
f 45 26 19
f 45 19 35
f 46 36 19
f 46 19 26
f 46 26 36
f 48 30 19
f 48 19 38
f 48 21 30
f 48 5 21
f 48 38 27
f 48 27 5
f 49 31 40
f 49 47 31
f 50 9 13
f 50 13 40
f 51 40 31
f 51 31 22
f 53 7 12
f 53 32 42
f 53 12 43
f 54 53 42
f 54 7 53
f 54 42 32
f 54 32 41
f 55 44 34
f 55 34 9
f 55 9 50
f 55 33 44
f 55 50 40
f 56 45 35
f 56 35 26
f 56 26 45
f 57 5 37
f 57 37 47
f 57 49 5
f 57 47 49
f 58 31 47
f 58 54 41
f 58 7 54
f 58 47 37
f 58 37 7
f 59 13 39
f 59 39 5
f 59 5 49
f 59 49 40
f 59 40 13
f 60 51 22
f 60 33 51
f 60 52 43
f 60 43 33
f 61 51 33
f 61 40 51
f 61 55 40
f 61 33 55
f 62 52 41
f 62 41 32
f 62 43 52
f 62 53 43
f 62 32 53
f 63 22 31
f 63 31 58
f 63 60 22
f 63 52 60
f 63 58 41
f 63 41 52

