# https://github.com/mikedh/trimesh
v -0.02686467 -0.00483736 0.05005088
v -0.01869094 -0.02112213 0.05019134
v -0.02533731 -0.00472349 0.03882970
v -0.02690571 -0.00460251 0.03908262
v -0.02584353 -0.01198787 0.04663279
v -0.01894294 -0.01978353 0.03895612
v -0.02772495 -0.00457790 0.05013613
v -0.01966763 -0.01711735 0.03870073
v -0.02329502 -0.01436216 0.03916654
v -0.02251192 -0.01754192 0.04750475
v -0.02759057 -0.00624480 0.04495505
v -0.01869440 -0.02039440 0.04068579
v -0.02510420 -0.00575394 0.03869699
v -0.02573104 -0.00945418 0.03997347
v -0.02163572 -0.01676932 0.03908673
v -0.02332003 -0.01594098 0.04421687
v -0.02418983 -0.01520727 0.05005358
v -0.02773313 -0.00458137 0.04411162
v -0.02671221 -0.00951497 0.05007113
v -0.01995167 -0.01918165 0.04076446
v -0.01926020 -0.02079914 0.04666628
v -0.02489211 -0.01103447 0.03911444
v -0.02663866 -0.00692458 0.03994288
v -0.02493290 -0.01350169 0.04500755
v -0.02414387 -0.01515258 0.04665364
v -0.02252952 -0.01758947 0.05005088
v -0.02763988 -0.00622854 0.04972619
v -0.02761956 -0.00541147 0.04412022
v -0.02671205 -0.00945532 0.04495004
v -0.02586382 -0.01196977 0.05002535
v -0.01939007 -0.01940489 0.03907871
v -0.02076886 -0.01926197 0.04584958
v -0.01874993 -0.02119900 0.04661094
v -0.02664861 -0.00614255 0.03912620
v -0.02489951 -0.01268983 0.04252828
v -0.01931117 -0.02080548 0.05004167
v -0.02765308 -0.00542203 0.05007787
v -0.02580004 -0.01105721 0.04334785
v -0.01914158 -0.01999466 0.04076406
v -0.02001792 -0.02003630 0.04585334
f 1 2 3
f 7 1 3
f 7 3 4
f 7 2 1
f 8 3 2
f 12 8 2
f 12 6 8
f 13 4 3
f 13 3 8
f 15 8 6
f 16 9 15
f 18 7 4
f 19 17 2
f 19 2 7
f 20 16 15
f 22 13 8
f 22 15 9
f 22 8 15
f 23 22 14
f 24 9 16
f 25 16 10
f 25 10 17
f 25 24 16
f 25 17 5
f 25 5 24
f 26 17 10
f 26 2 17
f 27 18 11
f 27 7 18
f 28 18 4
f 28 11 18
f 28 23 11
f 29 11 23
f 29 23 14
f 29 27 11
f 29 19 27
f 30 5 17
f 30 17 19
f 30 29 5
f 30 19 29
f 31 6 12
f 31 20 15
f 31 15 6
f 32 10 16
f 32 16 20
f 33 21 12
f 33 12 2
f 34 4 13
f 34 13 22
f 34 22 23
f 34 28 4
f 34 23 28
f 35 22 9
f 35 9 24
f 36 2 26
f 36 33 2
f 36 21 33
f 37 27 19
f 37 19 7
f 37 7 27
f 38 24 5
f 38 5 29
f 38 35 24
f 38 29 14
f 38 14 22
f 38 22 35
f 39 31 12
f 39 20 31
f 40 26 10
f 40 10 32
f 40 36 26
f 40 21 36
f 40 32 20
f 40 20 39
f 40 39 12
f 40 12 21

