# https://github.com/mikedh/trimesh
v 0.01094489 -0.01437763 0.01305871
v 0.01036505 -0.01928761 0.01350570
v 0.01036417 -0.01037105 0.00201782
v -0.00874343 -0.01047424 0.00117603
v -0.01200447 -0.01381410 0.01290630
v 0.00200595 -0.01738760 0.00544780
v 0.01113371 -0.01114040 0.00935069
v -0.01092447 -0.01918516 0.01356480
v 0.00857533 -0.01735924 0.00808683
v 0.00209139 -0.01367124 0.00148571
v -0.01191445 -0.01104313 0.00944483
v -0.00370263 -0.02178714 0.01352618
v 0.01004365 -0.01654422 0.00809329
v -0.00522123 -0.01488529 0.00305243
v 0.00796088 -0.01048890 0.00122690
v 0.00690530 -0.01321646 0.00208457
v -0.01121209 -0.01041822 0.00245377
v 0.00864096 -0.02013809 0.01357508
v 0.01017142 -0.01811469 0.01042223
v -0.00280390 -0.01740594 0.00542577
v -0.00620123 -0.01275593 0.00144917
v -0.00114636 -0.01361898 0.00144660
v 0.00449637 -0.01818196 0.00719318
v 0.00450747 -0.01408863 0.00207981
v 0.00843433 -0.01312120 0.00292698
v 0.00791734 -0.01120534 0.00142587
v -0.01035248 -0.01038911 0.00177685
v -0.01083206 -0.01740369 0.00961870
v 0.01025955 -0.01906141 0.01278899
v 0.00125663 -0.02074957 0.01038129
v -0.00526255 -0.01407235 0.00225630
v 0.00609533 -0.01567526 0.00464897
v 0.00606294 -0.01983029 0.01037334
v 0.00545222 -0.01283143 0.00149944
v 0.00445044 -0.01483425 0.00292077
v 0.00686250 -0.01398109 0.00294020
v 0.00840480 -0.01248049 0.00220975
v -0.00773440 -0.01191404 0.00143652
v -0.00760728 -0.01904291 0.00957624
v -0.01080951 -0.01403911 0.00553092
v 0.00282847 -0.01910762 0.00796340
v 0.00291445 -0.02181333 0.01352726
v 0.00687597 -0.01738151 0.00718602
v 0.00852092 -0.01987938 0.01282997
v 0.00708853 -0.01202089 0.00150907
v 0.01007479 -0.01094472 0.00218058
v -0.00866352 -0.01115343 0.00139570
v -0.00752330 -0.01314503 0.00218107
v -0.00517693 -0.01817488 0.00718566
v -0.00687109 -0.02075287 0.01274517
v -0.00929121 -0.01979992 0.01276647
v 0.00449812 -0.01984980 0.00961983
v -0.00364027 -0.02154732 0.01275483
v 0.00618758 -0.02103263 0.01351236
v -0.00678850 -0.01567637 0.00462533
v -0.01011821 -0.01093702 0.00198311
v -0.00284648 -0.02071735 0.01033575
v -0.00696834 -0.02096322 0.01350071
v -0.01078937 -0.01898800 0.01279103
v -0.00764311 -0.01982756 0.01113383
v 0.00283326 -0.02155438 0.01279717
v 0.00611276 -0.02078166 0.01274887
v -0.01005181 -0.01736699 0.00879735
v -0.00759754 -0.01736004 0.00727015
f 7 1 2
f 7 2 3
f 7 5 1
f 8 2 1
f 8 1 5
f 11 7 3
f 11 5 7
f 15 4 3
f 17 11 3
f 17 5 11
f 18 2 8
f 18 8 12
f 19 13 3
f 19 3 2
f 19 9 13
f 20 10 6
f 22 15 10
f 22 4 15
f 22 21 4
f 22 20 14
f 22 10 20
f 24 6 10
f 25 13 9
f 26 15 3
f 27 17 3
f 27 3 4
f 28 8 5
f 28 5 17
f 29 19 2
f 29 2 18
f 29 18 19
f 31 22 14
f 31 21 22
f 33 9 19
f 34 24 10
f 34 16 24
f 34 10 15
f 35 23 6
f 35 6 24
f 35 32 23
f 36 25 9
f 36 16 25
f 36 32 35
f 36 35 24
f 36 24 16
f 37 25 16
f 37 13 25
f 37 26 3
f 38 4 21
f 40 28 17
f 41 30 20
f 41 20 6
f 41 6 23
f 42 18 12
f 43 23 32
f 43 9 33
f 43 36 9
f 43 32 36
f 44 33 19
f 44 19 18
f 44 18 33
f 45 16 34
f 45 37 16
f 45 26 37
f 45 34 15
f 45 15 26
f 46 37 3
f 46 3 13
f 46 13 37
f 47 27 4
f 47 4 38
f 48 31 14
f 48 38 21
f 48 21 31
f 49 14 20
f 52 30 41
f 52 41 23
f 52 43 33
f 52 23 43
f 53 42 12
f 53 30 42
f 53 12 50
f 54 18 42
f 55 48 14
f 55 14 49
f 56 47 38
f 56 38 48
f 56 27 47
f 56 17 27
f 56 48 40
f 56 40 17
f 57 49 20
f 57 20 30
f 57 30 53
f 57 39 49
f 57 53 50
f 58 50 12
f 58 12 8
f 58 51 50
f 58 8 51
f 59 51 8
f 59 8 28
f 59 28 51
f 60 51 28
f 60 28 39
f 60 50 51
f 60 57 50
f 60 39 57
f 61 42 30
f 61 30 52
f 61 52 33
f 62 33 18
f 62 18 54
f 62 61 33
f 62 54 42
f 62 42 61
f 63 39 28
f 63 28 40
f 63 40 48
f 63 48 55
f 64 55 49
f 64 49 39
f 64 63 55
f 64 39 63

