# https://github.com/mikedh/trimesh
v 0.01648348 0.02232744 0.05025185
v 0.02235920 0.01474384 0.03897613
v 0.01014953 0.01896595 0.01531226
v -0.00470173 0.01682206 0.00713022
v -0.00559091 0.02655636 0.05035287
v 0.01624841 0.01290164 0.01338575
v 0.01671798 0.02080780 0.03824640
v -0.00483871 0.01743054 0.01462562
v -0.00201952 0.02419456 0.02627411
v 0.00133065 0.01709140 0.00688505
v 0.01685091 0.02251101 0.04745699
v 0.01507641 0.01822186 0.02376368
v -0.00575933 0.02174030 0.02746880
v 0.01952981 0.01280996 0.02362317
v 0.01174183 0.01737825 0.01359315
v 0.00294003 0.02071178 0.01359525
v 0.01723835 0.02217972 0.04980235
v 0.02200618 0.01532925 0.03908997
v 0.01032934 0.02585139 0.04417004
v 0.01269022 0.02239457 0.03310615
v -0.00532760 0.02365300 0.02619881
v 0.01654004 0.01380186 0.02582243
v 0.01663448 0.01580508 0.02122878
v 0.01026205 0.01372075 0.01292031
v 0.01257583 0.01901727 0.02033999
v 0.00695635 0.01984306 0.01357883
v -0.00115210 0.01988200 0.01110354
v 0.01998639 0.01501382 0.03057183
v 0.00450512 0.02501133 0.03149681
v 0.00373344 0.02767318 0.05008324
v 0.01275317 0.02500033 0.04901372
v 0.01418290 0.01992742 0.02733083
v 0.01525974 0.02349602 0.04579052
v -0.00535427 0.02682313 0.04163711
v 0.01981787 0.01305771 0.02611772
v 0.02202871 0.01447791 0.03734685
v 0.01861470 0.01267720 0.02030431
v 0.01829474 0.01663787 0.02891775
v 0.01338479 0.01649220 0.01444272
v 0.01095537 0.01983181 0.01953490
v 0.00131247 0.01917193 0.00964891
v -0.00442889 0.01908415 0.01035850
v -0.00447118 0.02163945 0.01780307
v -0.00028572 0.02161222 0.01615932
v 0.00537110 0.02151906 0.01781392
v 0.00784039 0.02667838 0.05015852
v 0.00376218 0.02766112 0.04408115
v 0.01683925 0.02245581 0.04979182
v 0.01340593 0.02156122 0.03149259
v 0.01585673 0.01910161 0.02893683
v 0.01192173 0.02501177 0.04333031
v 0.01276107 0.02502153 0.04663408
v -0.00360072 0.02589556 0.03480943
v -0.00531198 0.02762615 0.04986178
v 0.01691258 0.01274009 0.01512888
v 0.01917164 0.01661636 0.03228475
v 0.01501389 0.01656422 0.01873050
v 0.01335695 0.01822157 0.01954309
v 0.01588735 0.01341587 0.01353277
v 0.00689688 0.02068491 0.01615623
v 0.00128290 0.01776083 0.00773434
v 0.00129189 0.01995222 0.01112710
v -0.00437763 0.01818120 0.00877337
v -0.00444538 0.02328738 0.02376856
f 5 2 1
f 8 2 5
f 10 6 4
f 13 8 5
f 13 4 8
f 15 6 10
f 17 1 2
f 18 7 11
f 18 17 2
f 18 11 17
f 21 4 13
f 24 14 8
f 24 8 4
f 24 4 6
f 26 15 10
f 26 3 15
f 28 18 2
f 28 2 14
f 28 14 23
f 33 11 7
f 34 21 13
f 34 13 5
f 35 22 8
f 35 8 14
f 36 2 8
f 36 8 22
f 36 22 35
f 36 35 14
f 36 14 2
f 37 23 14
f 37 6 23
f 37 14 24
f 38 23 12
f 38 28 23
f 38 18 28
f 40 25 15
f 40 15 3
f 40 32 25
f 42 4 21
f 43 42 21
f 43 27 42
f 44 29 16
f 44 9 29
f 44 27 43
f 45 16 29
f 46 30 5
f 46 5 1
f 46 1 31
f 47 19 29
f 47 29 9
f 47 46 19
f 47 30 46
f 48 17 11
f 48 11 31
f 48 31 1
f 48 1 17
f 49 33 7
f 49 20 33
f 49 40 20
f 49 32 40
f 50 12 32
f 50 38 12
f 50 7 38
f 50 49 7
f 50 32 49
f 51 33 20
f 51 20 19
f 52 31 11
f 52 11 33
f 52 33 51
f 52 51 19
f 52 46 31
f 52 19 46
f 53 21 34
f 53 47 9
f 53 34 47
f 54 34 5
f 54 5 30
f 54 47 34
f 54 30 47
f 55 37 24
f 55 24 6
f 55 6 37
f 56 38 7
f 56 7 18
f 56 18 38
f 57 39 12
f 57 12 23
f 58 12 39
f 58 32 12
f 58 25 32
f 58 39 15
f 58 15 25
f 59 6 15
f 59 15 39
f 59 39 57
f 59 57 23
f 59 23 6
f 60 40 3
f 60 3 26
f 60 26 16
f 60 16 45
f 60 20 40
f 60 19 20
f 60 45 29
f 60 29 19
f 61 41 26
f 61 26 10
f 62 16 26
f 62 26 41
f 62 41 27
f 62 44 16
f 62 27 44
f 63 4 42
f 63 41 61
f 63 61 10
f 63 10 4
f 63 42 27
f 63 27 41
f 64 43 21
f 64 44 43
f 64 9 44
f 64 53 9
f 64 21 53

