# https://github.com/mikedh/trimesh
v 0.02180731 0.02179834 0.07882735
v 0.04835301 -0.01027520 0.05093982
v 0.04267907 0.02088954 0.05674274
v 0.04219771 0.02888920 0.02194305
v 0.02821816 -0.01105334 0.07381464
v 0.05286076 0.00893615 0.02195424
v 0.03644610 0.02704659 0.06145165
v 0.02078048 0.02898672 0.06997191
v 0.04132203 0.00553940 0.06776340
v 0.05095089 0.00691978 0.04272559
v 0.04767381 0.02407843 0.02665420
v 0.05039552 0.00911296 0.02195668
v 0.01968914 0.02439674 0.07833090
v 0.03950473 0.02722171 0.05519636
v 0.04271010 -0.00998055 0.06464098
v 0.02987448 -0.00839179 0.07902129
v 0.03963382 0.01308380 0.06768540
v 0.05158176 0.00076087 0.04122279
v 0.04606372 0.00398793 0.06019400
v 0.04781160 0.02417872 0.02190609
v 0.05090734 0.01630103 0.02827466
v 0.04537431 -0.01075087 0.05140667
v 0.01980814 0.02777049 0.07420713
v 0.03170615 0.02692127 0.06755886
v 0.04441911 0.02727225 0.03782101
v 0.04108041 0.02230701 0.05842669
v 0.03993015 -0.00708990 0.06906587
v 0.02807959 -0.01107717 0.07934408
v 0.02992354 0.00845828 0.07888997
v 0.04938182 0.00074537 0.05073870
v 0.04601516 -0.00544400 0.05993825
v 0.04589773 0.01456117 0.05519446
v 0.04434000 0.01004130 0.06152831
v 0.05115500 0.01636899 0.02190807
v 0.05089767 0.01339872 0.03469925
v 0.04464153 -0.01104385 0.05339113
v 0.02738571 0.02741572 0.07070294
v 0.03635372 0.02242753 0.06599927
v 0.04113003 0.02721687 0.05055445
v 0.04564383 0.02803580 0.02193606
v 0.04768049 0.02274700 0.03311813
v 0.04112191 0.01939003 0.06140099
v 0.02903198 -0.01016087 0.07933014
v 0.03988687 0.00697437 0.06907644
v 0.05129027 0.00074929 0.04279472
v 0.04762996 0.00696885 0.05530220
v 0.04447037 -0.01001020 0.06153365
v 0.04763977 -0.00546317 0.05539898
v 0.04443842 -0.00385453 0.06317424
v 0.04113900 0.01169888 0.06615502
v 0.04438948 0.00559769 0.06312301
v 0.05086329 0.01013063 0.03946410
v 0.02269048 0.02108654 0.07878901
v 0.02672871 0.01602079 0.07875950
v 0.04106518 0.02557147 0.05377565
v 0.04419608 0.02102799 0.05223762
v 0.04604200 0.02568293 0.03305608
v 0.04920933 0.01788692 0.03633335
v 0.04427483 0.01324880 0.06005919
v 0.03954791 0.01622747 0.06602396
v 0.03949164 0.02234014 0.06140106
v 0.02824830 0.01290884 0.07891748
v 0.04932847 0.00237346 0.05072333
v 0.04919445 0.01012526 0.04741585
f 8 4 5
f 12 5 4
f 14 8 7
f 14 4 8
f 18 2 6
f 18 6 10
f 22 12 6
f 22 6 2
f 22 5 12
f 23 8 5
f 23 5 13
f 26 14 7
f 26 3 14
f 27 9 16
f 28 13 5
f 28 1 13
f 29 16 9
f 34 6 12
f 34 12 4
f 34 4 20
f 34 21 6
f 34 20 11
f 34 11 21
f 35 6 21
f 36 22 2
f 36 15 28
f 36 28 5
f 36 5 22
f 37 23 13
f 37 8 23
f 37 24 7
f 37 7 8
f 38 7 24
f 39 25 4
f 39 4 14
f 40 20 4
f 40 4 25
f 40 11 20
f 41 21 11
f 42 3 26
f 43 27 16
f 43 15 27
f 43 28 15
f 43 16 29
f 43 1 28
f 44 29 9
f 44 9 17
f 44 17 29
f 45 18 10
f 45 30 2
f 45 2 18
f 46 19 30
f 46 33 19
f 47 2 31
f 47 36 2
f 47 15 36
f 48 30 19
f 48 19 31
f 48 31 2
f 48 2 30
f 49 31 19
f 49 9 27
f 49 27 15
f 49 47 31
f 49 15 47
f 50 17 9
f 51 19 33
f 51 49 19
f 51 9 49
f 51 50 9
f 51 33 50
f 52 10 6
f 52 6 35
f 53 37 13
f 53 13 1
f 53 24 37
f 54 38 24
f 54 24 53
f 55 39 14
f 55 14 3
f 56 25 39
f 56 41 25
f 56 3 32
f 56 55 3
f 56 39 55
f 57 40 25
f 57 11 40
f 57 41 11
f 57 25 41
f 58 35 21
f 58 21 41
f 58 41 56
f 58 56 32
f 59 32 3
f 59 3 42
f 59 46 32
f 59 33 46
f 59 50 33
f 60 42 38
f 60 38 17
f 60 17 50
f 60 59 42
f 60 50 59
f 61 42 26
f 61 26 7
f 61 7 38
f 61 38 42
f 62 43 29
f 62 1 43
f 62 29 17
f 62 17 38
f 62 38 54
f 62 54 53
f 62 53 1
f 63 45 10
f 63 30 45
f 63 46 30
f 63 10 46
f 64 46 10
f 64 32 46
f 64 10 52
f 64 58 32
f 64 52 35
f 64 35 58

