# https://github.com/mikedh/trimesh
v -0.03296347 0.03625670 0.05106761
v -0.03252753 0.03727735 0.04925706
v -0.04604777 0.02720121 0.02347615
v -0.03794320 0.03132082 0.01125036
v -0.04461973 0.00932333 0.05347886
v -0.03411317 0.04046157 0.01414747
v -0.04121932 0.03202342 0.03770306
v -0.03434092 0.03103003 0.05161554
v -0.05279200 0.00894255 0.02195322
v -0.04579146 0.02603103 0.01306159
v -0.03479411 0.03652281 0.04585366
v -0.04194206 0.02458401 0.05243869
v -0.04277952 0.03198572 0.02506796
v -0.03577958 0.03410066 0.01170366
v -0.05044539 0.00907748 0.02197328
v -0.03451533 0.03935627 0.01245203
v -0.05126246 0.01502754 0.02192137
v -0.03345151 0.03662644 0.04894062
v -0.03410641 0.04052527 0.02995313
v -0.03805316 0.03175728 0.04892323
v -0.03965369 0.02276453 0.05344161
v -0.04929491 0.01011753 0.04586047
v -0.04584399 0.02421158 0.03936817
v -0.04438224 0.02880402 0.03145057
v -0.04273251 0.03195687 0.01728864
v -0.03246064 0.03883673 0.04446536
v -0.04808715 0.00872148 0.05078276
v -0.04223607 0.02575314 0.01178994
v -0.04279632 0.03044911 0.01294345
v -0.04645666 0.02448797 0.01288086
v -0.03387700 0.03552707 0.05072313
v -0.03646115 0.03809828 0.03311715
v -0.03507234 0.03969511 0.01426069
v -0.03951884 0.03187532 0.04419548
v -0.04746877 0.00885743 0.05270335
v -0.05072508 0.01326261 0.03466859
v -0.04577761 0.01774209 0.05050825
v -0.04926903 0.01945676 0.03145287
v -0.04130050 0.03336814 0.02983821
v -0.04427459 0.02704535 0.03931429
v -0.04605194 0.02723015 0.01888023
v -0.03286727 0.03932382 0.04133229
v -0.04953212 0.00871259 0.04597678
v -0.04446262 0.02884353 0.01440005
v -0.03502753 0.03808255 0.03940423
v -0.03507679 0.03971736 0.02984131
v -0.03788772 0.03661324 0.01324136
v -0.03651815 0.03809522 0.01318920
v -0.03630609 0.03489996 0.04580063
v -0.04101621 0.02864821 0.04736074
v -0.05088658 0.01490451 0.02991889
v -0.04415492 0.02257047 0.04886554
v -0.04575627 0.01642452 0.05212333
v -0.04908689 0.01646768 0.03938374
v -0.04764563 0.02430422 0.02187581
v -0.04587002 0.02581836 0.03471835
v -0.03962169 0.03497357 0.03141438
v -0.05096458 0.00876853 0.03943960
v -0.03963104 0.03332590 0.03931658
v -0.04103770 0.02704548 0.05048225
v -0.04289751 0.02273262 0.05224066
v -0.04738301 0.01939211 0.04253328
v -0.04260792 0.02558062 0.04890544
v -0.04750146 0.01167837 0.05056562
f 8 2 1
f 14 8 5
f 14 2 8
f 15 14 5
f 15 4 14
f 16 14 4
f 16 6 14
f 18 1 2
f 18 2 11
f 21 8 1
f 21 1 12
f 21 5 8
f 24 13 3
f 26 14 6
f 26 2 14
f 26 11 2
f 27 15 5
f 28 4 15
f 28 15 9
f 29 16 4
f 30 9 17
f 30 28 9
f 30 4 28
f 30 29 4
f 30 10 29
f 31 18 11
f 31 1 18
f 31 11 20
f 31 20 12
f 31 12 1
f 33 19 6
f 33 25 13
f 35 21 12
f 35 5 21
f 35 27 5
f 35 22 27
f 39 24 7
f 39 13 24
f 41 3 13
f 41 13 25
f 41 10 30
f 42 26 6
f 42 6 19
f 43 9 15
f 43 15 27
f 43 27 22
f 44 29 10
f 44 25 29
f 44 41 25
f 44 10 41
f 45 11 26
f 45 26 42
f 45 42 19
f 45 19 32
f 46 33 13
f 46 19 33
f 46 13 39
f 46 39 32
f 46 32 19
f 47 29 25
f 47 16 29
f 48 33 6
f 48 6 16
f 48 16 47
f 48 47 25
f 48 25 33
f 49 34 20
f 49 20 11
f 50 20 34
f 50 34 7
f 50 7 40
f 51 17 9
f 51 9 36
f 51 38 17
f 53 35 12
f 54 51 36
f 54 38 51
f 55 17 38
f 55 3 41
f 55 41 30
f 55 30 17
f 56 24 3
f 56 55 38
f 56 3 55
f 56 38 23
f 56 23 40
f 56 40 7
f 56 7 24
f 57 39 7
f 57 7 32
f 57 32 39
f 58 36 9
f 58 9 43
f 58 43 22
f 58 54 36
f 58 22 54
f 59 45 32
f 59 32 7
f 59 11 45
f 59 49 11
f 59 7 34
f 59 34 49
f 60 12 20
f 60 20 50
f 61 52 37
f 61 12 52
f 61 53 12
f 61 37 53
f 62 52 23
f 62 37 52
f 62 23 38
f 62 38 54
f 62 53 37
f 62 54 22
f 62 22 53
f 63 40 23
f 63 23 52
f 63 50 40
f 63 52 12
f 63 60 50
f 63 12 60
f 64 53 22
f 64 22 35
f 64 35 53

