# https://github.com/mikedh/trimesh
v 0.01712576 0.02358284 0.00230465
v 0.01712501 -0.02520874 0.00233181
v 0.01711859 -0.02519121 0.00001247
v -0.02979851 0.02498682 0.00079260
v -0.03823783 0.01384700 0.00380234
v 0.01711940 0.02358062 0.00001080
v -0.02527495 0.02859637 0.00321146
v -0.03830257 -0.00897629 0.00330771
v -0.01052123 -0.02520692 0.00000963
v -0.03012120 0.02530046 0.00341429
v 0.01060900 0.02843558 0.00003479
v -0.03770688 0.01367029 0.00102035
v -0.01052280 -0.02520815 0.00228676
v -0.02503011 0.02830233 0.00065929
v 0.01061963 0.02846138 0.00233604
v -0.03790308 -0.00889951 0.00077555
f 1 2 3
f 5 2 1
f 6 1 3
f 8 2 5
f 9 6 3
f 9 3 2
f 10 5 1
f 10 1 7
f 10 4 5
f 11 6 9
f 12 5 4
f 13 9 2
f 13 2 8
f 13 8 9
f 14 10 7
f 14 4 10
f 14 7 11
f 14 11 9
f 15 11 7
f 15 7 1
f 15 1 6
f 15 6 11
f 16 8 5
f 16 5 12
f 16 9 8
f 16 12 4
f 16 14 9
f 16 4 14

