# https://github.com/mikedh/trimesh
v 0.04938182 0.00074537 0.05073870
v 0.05091142 -0.00869465 0.04110122
v 0.05158497 0.01512560 0.02196440
v 0.04243214 0.01039400 0.00222418
v 0.03880223 -0.02560866 0.05141545
v 0.04764833 -0.02097283 0.01132068
v 0.04813332 0.00896960 0.04148934
v 0.05271964 0.00693275 0.03148912
v 0.04601091 -0.01802312 0.05067060
v 0.05098586 0.00696558 0.00992005
v 0.04240117 -0.02481790 0.00653474
v 0.05091644 0.00852242 0.04109880
v 0.04410997 0.01576791 0.00796524
v 0.04651512 0.00081751 0.05125725
v 0.05099174 0.00072683 0.04429227
v 0.05271135 -0.00869977 0.01713028
v 0.04932036 -0.01018473 0.04748244
v 0.04925127 -0.02092364 0.02665861
v 0.04245219 -0.01033284 0.00225502
v 0.05257476 0.00856728 0.02990364
v 0.04871204 0.01570448 0.02196297
v 0.04278251 0.01532591 0.00315839
v 0.03953552 -0.02443126 0.05170678
v 0.05276546 -0.00386126 0.03315292
v 0.05084220 -0.00704822 0.01008316
v 0.05254667 0.00855342 0.01589154
v 0.04925073 -0.00383763 0.05069774
v 0.04921192 -0.01957487 0.03304676
v 0.04936875 -0.02098054 0.01876897
v 0.04770783 -0.02418169 0.02506357
v 0.04636336 0.00705781 0.00403562
v 0.04928592 0.01487454 0.01008959
v 0.04292510 -0.02422502 0.05069396
v 0.05088962 -0.00383471 0.04427148
v 0.05269744 0.00242922 0.03311870
v 0.05082049 -0.01315400 0.01279949
v 0.05258811 -0.00542259 0.01437340
v 0.04783248 -0.01326384 0.00706545
v 0.04757311 -0.01315098 0.05065862
v 0.04758833 -0.01931593 0.04267075
v 0.05090251 -0.01481465 0.03147283
v 0.03946423 -0.02609206 0.04836881
v 0.04765607 -0.02416282 0.01723457
v 0.04757715 -0.02251246 0.03469768
v 0.04932125 -0.00537693 0.00708782
v 0.04370355 0.01027220 0.00285062
v 0.04644035 0.01478268 0.00581514
v 0.05075450 0.01337283 0.01278769
v 0.04920591 -0.01963425 0.01446869
v 0.05247817 0.00696002 0.01432189
v 0.04612251 -0.01808209 0.00694939
v 0.04921770 -0.01476243 0.01016520
v 0.04923231 -0.01316359 0.04430318
v 0.04591315 -0.01927414 0.04898712
v 0.05080515 -0.01320330 0.03630011
v 0.05273815 -0.00875320 0.02509055
v 0.05092403 -0.01639680 0.02508063
v 0.04588516 -0.02410609 0.03935776
v 0.04602747 -0.02415877 0.01136013
v 0.04754874 -0.02087392 0.03936404
v 0.04933873 0.00555510 0.00691325
v 0.04919381 -0.01173264 0.00847049
v 0.04634743 -0.00707274 0.00418888
v 0.04478673 0.01486602 0.00436696
f 12 7 1
f 12 3 7
f 14 1 7
f 15 12 1
f 15 8 12
f 19 11 5
f 19 5 4
f 20 12 8
f 20 3 12
f 21 13 7
f 21 7 3
f 22 4 5
f 22 5 14
f 22 14 7
f 22 7 13
f 23 14 5
f 24 16 8
f 26 3 20
f 26 20 8
f 26 8 16
f 27 1 14
f 27 14 23
f 30 29 18
f 31 19 4
f 32 21 3
f 32 13 21
f 32 22 13
f 33 23 5
f 33 9 23
f 34 24 15
f 34 2 24
f 34 15 1
f 34 1 27
f 34 27 17
f 34 17 2
f 35 24 8
f 35 8 15
f 35 15 24
f 37 25 10
f 37 36 25
f 37 16 36
f 37 26 16
f 39 17 27
f 39 27 23
f 39 23 9
f 42 5 11
f 42 33 5
f 43 29 30
f 43 42 11
f 43 30 42
f 44 30 18
f 44 18 28
f 45 10 25
f 46 31 4
f 46 4 22
f 47 22 32
f 48 10 32
f 48 32 3
f 48 3 26
f 49 6 36
f 49 43 6
f 49 29 43
f 49 36 16
f 49 16 29
f 50 37 10
f 50 26 37
f 50 48 26
f 50 10 48
f 51 6 11
f 51 11 19
f 52 36 6
f 52 51 38
f 52 6 51
f 53 39 9
f 53 17 39
f 53 9 40
f 54 40 9
f 54 9 33
f 54 33 40
f 55 24 2
f 55 2 17
f 55 17 53
f 55 28 41
f 55 53 40
f 55 40 28
f 56 16 24
f 56 55 41
f 56 24 55
f 57 41 28
f 57 28 18
f 57 56 41
f 57 18 29
f 57 29 16
f 57 16 56
f 58 42 30
f 58 33 42
f 58 30 44
f 58 40 33
f 59 43 11
f 59 11 6
f 59 6 43
f 60 44 28
f 60 28 40
f 60 58 44
f 60 40 58
f 61 10 45
f 61 31 47
f 61 47 32
f 61 32 10
f 62 45 25
f 62 38 45
f 62 52 38
f 62 25 36
f 62 36 52
f 63 45 38
f 63 19 31
f 63 61 45
f 63 31 61
f 63 51 19
f 63 38 51
f 64 46 22
f 64 31 46
f 64 47 31
f 64 22 47

