# https://github.com/mikedh/trimesh
v 0.02903198 -0.01016087 0.07933014
v 0.04835301 -0.01027520 0.05093982
v 0.04233961 -0.02564519 0.01166811
v 0.01761942 -0.04605838 0.01129334
v 0.02856597 -0.03796928 0.05675309
v 0.00256785 -0.03008470 0.07406849
v 0.02732192 -0.01147665 0.07462128
v 0.03785589 -0.02391767 0.06292586
v 0.03196868 -0.04293806 0.02657527
v 0.01573854 -0.04703063 0.01174025
v 0.01283358 -0.02815719 0.07898345
v 0.04511924 -0.01117971 0.05181729
v 0.02721194 -0.01141144 0.07790104
v 0.04155798 -0.01008211 0.06620630
v 0.03499735 -0.03958423 0.01443364
v 0.04122841 -0.03187992 0.03778137
v -0.00233008 -0.04859520 0.05256738
v 0.00266115 -0.03016086 0.07909217
v 0.03176353 -0.02545615 0.06900551
v 0.04270020 -0.01768934 0.06008297
v 0.04637450 -0.01008227 0.05710008
v 0.04009099 -0.03381322 0.01269404
v 0.02277473 -0.04774107 0.01422065
v 0.03663974 -0.03320931 0.05056681
v -0.00252057 -0.04589729 0.05319187
v 0.01186582 -0.04115384 0.06635335
v 0.01631833 -0.04927199 0.03942304
v 0.01760535 -0.02534955 0.07917230
v 0.03644289 -0.01784892 0.06901290
v 0.03158003 -0.03165207 0.06318799
v 0.04429882 -0.02575737 0.04261366
v 0.04800799 -0.01018968 0.05241769
v 0.04267407 -0.01318298 0.06307013
v 0.04295491 -0.03193933 0.02502859
v 0.01516067 -0.05016781 0.01259450
v 0.02440830 -0.04640272 0.01289365
v 0.03180736 -0.04285042 0.01605587
v 0.03186929 -0.04140596 0.03777284
v -0.00240991 -0.04170719 0.06276861
v 0.00838807 -0.02989767 0.07889544
v 0.00858352 -0.04748237 0.05386350
v 0.02429217 -0.04767950 0.02662730
v 0.00244117 -0.03072757 0.07921074
v 0.02658998 -0.01606411 0.07902739
v 0.02098165 -0.03644199 0.06738790
v 0.03954994 -0.01329230 0.06761113
v 0.03485826 -0.02084593 0.06908622
v 0.03329831 -0.02858965 0.06454054
v 0.03489651 -0.03020689 0.06004914
v 0.04272778 -0.02705847 0.04573748
v 0.04606716 -0.01645699 0.05229966
v 0.04428068 -0.01313600 0.06002692
v 0.03831298 -0.03648351 0.03305290
v 0.04140482 -0.03357872 0.01602471
v 0.04443723 -0.02865545 0.03304054
v 0.01054864 -0.05252223 0.02194466
v 0.01804442 -0.04925606 0.01300322
v 0.02888859 -0.04424955 0.01436586
v 0.03019798 -0.03962532 0.04893012
v -0.00260567 -0.04326722 0.06007960
v -0.00221701 -0.04511457 0.06197980
v 0.01795827 -0.03505734 0.07044692
v 0.01027248 -0.05130336 0.03637174
v 0.02113916 -0.04413881 0.05219564
f 7 1 2
f 7 3 6
f 10 6 3
f 10 3 4
f 12 7 2
f 12 2 3
f 12 3 7
f 13 7 6
f 13 1 7
f 18 13 6
f 18 1 13
f 21 1 14
f 22 4 3
f 25 6 10
f 32 2 1
f 32 1 21
f 33 21 14
f 35 10 4
f 36 22 15
f 36 35 4
f 36 4 22
f 39 18 6
f 39 6 25
f 42 9 38
f 42 37 9
f 42 23 37
f 43 11 28
f 43 40 11
f 43 26 40
f 43 18 39
f 43 28 1
f 43 1 18
f 44 28 19
f 44 1 28
f 44 29 1
f 45 5 30
f 45 30 19
f 45 19 28
f 46 14 1
f 46 1 29
f 46 33 14
f 46 20 33
f 46 29 8
f 46 8 20
f 47 19 8
f 47 8 29
f 47 44 19
f 47 29 44
f 48 8 19
f 48 19 30
f 49 48 30
f 49 8 48
f 49 30 5
f 49 5 24
f 50 24 16
f 50 16 31
f 50 49 24
f 50 8 49
f 50 20 8
f 51 32 21
f 51 31 2
f 51 2 32
f 51 50 31
f 51 20 50
f 52 33 20
f 52 21 33
f 52 51 21
f 52 20 51
f 53 9 34
f 53 38 9
f 53 16 24
f 53 24 38
f 54 15 22
f 54 22 3
f 54 3 34
f 54 37 15
f 54 34 9
f 54 9 37
f 55 31 16
f 55 53 34
f 55 16 53
f 55 2 31
f 55 34 3
f 55 3 2
f 56 17 25
f 56 25 10
f 56 10 35
f 56 42 27
f 56 23 42
f 57 36 23
f 57 35 36
f 57 56 35
f 57 23 56
f 58 36 15
f 58 15 37
f 58 37 23
f 58 23 36
f 59 38 24
f 59 24 5
f 60 39 25
f 60 25 17
f 61 43 39
f 61 26 43
f 61 41 26
f 61 17 41
f 61 60 17
f 61 39 60
f 62 40 26
f 62 11 40
f 62 26 45
f 62 45 28
f 62 28 11
f 63 41 17
f 63 27 41
f 63 56 27
f 63 17 56
f 64 41 27
f 64 26 41
f 64 45 26
f 64 5 45
f 64 59 5
f 64 38 59
f 64 42 38
f 64 27 42

