# https://github.com/mikedh/trimesh
v 0.03659713 0.03633341 0.04098729
v 0.05158497 0.01512560 0.02196440
v 0.02429958 0.04438789 0.00869681
v -0.01037998 0.03783193 0.00097106
v -0.01056933 0.02853870 0.00236851
v 0.00236325 0.05141647 0.04115967
v 0.04295699 0.03186805 0.01740394
v 0.03629962 0.01531530 0.00091195
v 0.01953916 0.04928159 0.02988821
v -0.00557189 0.05265484 0.01428884
v 0.03922505 0.02926951 0.04170873
v 0.04439352 0.02894514 0.03142892
v 0.03028369 0.01552735 0.00259318
v 0.04818462 0.01493963 0.00816162
v -0.01050310 0.02842909 0.00003003
v 0.01512009 0.04231543 0.00290473
v 0.01946434 0.04756686 0.04103323
v 0.03209488 0.04282996 0.01883056
v -0.01061927 0.05000850 0.02199313
v 0.01497387 0.05089852 0.01567639
v 0.00256207 0.04877954 0.04162847
v 0.04871204 0.01570448 0.02196297
v 0.03809603 0.03664278 0.03303755
v 0.04781160 0.02417872 0.02190609
v 0.04344892 0.02767166 0.04116322
v 0.03007640 0.01541469 0.00020422
v 0.03838211 0.02737430 0.00434184
v -0.01042137 0.04244736 0.00237536
v 0.01014733 0.05092646 0.03944929
v 0.03053766 0.04147074 0.04108952
v 0.03665043 0.03644456 0.01029586
v -0.01042823 0.05241708 0.02193914
v 0.00562045 0.05081614 0.00978888
v 0.01946572 0.04913854 0.01445632
v 0.01490594 0.04922159 0.04107140
v 0.04300842 0.03184757 0.02513225
v 0.05115500 0.01636899 0.02190807
v 0.04750137 0.02255396 0.01276436
v 0.04289066 0.03020530 0.03627637
v 0.04384948 0.01512103 0.00366231
v 0.00729571 0.03941263 0.00104983
v 0.05126552 0.01490841 0.01592374
v 0.02919380 0.03686201 0.00444375
v 0.00873019 0.05261709 0.02673521
v 0.03183548 0.04127812 0.03781158
v 0.02571438 0.04449633 0.04104354
v 0.03972753 0.03501559 0.01435091
v 0.03200788 0.04116195 0.01137309
v -0.01029774 0.04515741 0.00386421
v 0.00556163 0.05261114 0.01443808
v 0.01336681 0.04767457 0.00703957
v 0.00716216 0.05094830 0.04107340
v 0.01649565 0.04908589 0.03941030
v 0.03198778 0.04293044 0.02356651
v 0.04750926 0.02410476 0.01588512
v 0.04458069 0.02245107 0.00719140
v 0.03961715 0.03338099 0.03935303
v 0.03967881 0.03509606 0.03140256
v 0.04052416 0.01979932 0.00290530
v -0.00712878 0.03944261 0.00107872
v 0.02331016 0.03287034 0.00121627
v 0.04990761 0.01497942 0.01126901
v 0.05083750 0.01624829 0.01605361
v 0.02431955 0.04007584 0.00433824
f 21 5 11
f 21 19 5
f 21 6 19
f 22 11 5
f 22 13 2
f 22 5 13
f 25 22 2
f 25 11 22
f 25 1 11
f 26 13 5
f 26 5 15
f 26 2 13
f 28 15 5
f 28 4 15
f 28 5 19
f 30 11 1
f 32 19 6
f 34 20 9
f 34 9 18
f 35 21 17
f 36 7 18
f 36 24 7
f 36 12 24
f 37 24 12
f 37 25 2
f 37 12 25
f 39 25 12
f 39 12 36
f 40 26 8
f 40 14 26
f 41 26 15
f 42 26 14
f 42 2 26
f 43 31 27
f 44 29 9
f 44 9 20
f 44 6 29
f 44 32 6
f 44 10 32
f 45 30 1
f 45 1 23
f 46 17 21
f 46 21 11
f 46 11 30
f 46 30 45
f 46 9 17
f 47 18 7
f 47 38 31
f 47 7 38
f 48 47 31
f 48 18 47
f 48 34 18
f 48 3 34
f 48 43 3
f 48 31 43
f 49 28 19
f 49 19 32
f 49 32 10
f 49 10 33
f 49 41 28
f 49 16 41
f 50 33 10
f 50 20 33
f 50 44 20
f 50 10 44
f 51 49 33
f 51 16 49
f 51 34 3
f 51 33 20
f 51 20 34
f 52 6 21
f 52 21 35
f 52 35 29
f 52 29 6
f 53 35 17
f 53 17 9
f 53 9 29
f 53 29 35
f 54 36 18
f 54 45 23
f 54 18 9
f 54 46 45
f 54 9 46
f 55 38 7
f 55 7 24
f 55 24 37
f 56 27 31
f 56 31 38
f 56 14 40
f 57 39 23
f 57 23 1
f 57 1 25
f 57 25 39
f 58 39 36
f 58 23 39
f 58 54 23
f 58 36 54
f 59 40 8
f 59 56 40
f 59 27 56
f 60 41 15
f 60 15 4
f 60 4 28
f 60 28 41
f 61 41 16
f 61 8 26
f 61 26 41
f 61 59 8
f 61 43 27
f 61 27 59
f 62 42 14
f 62 56 38
f 62 14 56
f 63 37 2
f 63 2 42
f 63 55 37
f 63 38 55
f 63 62 38
f 63 42 62
f 64 3 43
f 64 51 3
f 64 16 51
f 64 61 16
f 64 43 61

