# https://github.com/mikedh/trimesh
v 0.00266115 -0.03016086 0.07909217
v -0.04678812 -0.02138445 0.04119549
v -0.02656656 -0.01600168 0.07893631
v -0.04616078 -0.02270335 0.04106477
v -0.00931982 -0.04801408 0.04180975
v -0.03631519 -0.02239224 0.06617234
v -0.02843051 -0.00946337 0.07421802
v -0.00882335 -0.05076570 0.04136261
v -0.04248780 -0.02254460 0.05372708
v -0.01783096 -0.03792672 0.06744007
v -0.02943208 -0.00876336 0.07920870
v 0.00253247 -0.02964405 0.07465795
v -0.04414843 -0.02255298 0.04886917
v -0.01303406 -0.02826099 0.07892189
v -0.02709916 -0.03017104 0.06889604
v 0.00246495 -0.04506765 0.06199262
v -0.03796890 -0.01775192 0.06733873
v -0.04381688 -0.00880346 0.06222208
v -0.04308875 -0.02280116 0.04187558
v -0.04586848 -0.02257014 0.04261956
v -0.03051631 -0.04156769 0.04109722
v -0.00550012 -0.04128541 0.06763826
v -0.01587864 -0.02659703 0.07899125
v -0.03310290 -0.02547465 0.06757407
v 0.00254156 -0.04121306 0.06347394
v -0.02827202 -0.01307239 0.07877998
v -0.04092009 -0.01474955 0.06455394
v -0.04321398 -0.00872016 0.06347783
v -0.04648623 -0.02125591 0.04274976
v -0.04279525 -0.01158456 0.06315662
v -0.04003383 -0.00929013 0.06363522
v -0.01337684 -0.04967152 0.04113992
v -0.03794405 -0.03330902 0.04578496
v -0.02689412 -0.03636564 0.06167335
v -0.01322098 -0.03972715 0.06750344
v -0.00833143 -0.02977884 0.07908574
v 0.00242949 -0.04146154 0.06767928
v -0.00839457 -0.04592474 0.05846639
v -0.02074248 -0.03628641 0.06756208
v -0.03015624 -0.02709228 0.06889844
v -0.03637390 -0.01776927 0.06895713
v -0.00252057 -0.04589729 0.05319187
v -0.04145726 -0.00865590 0.06653235
v -0.02574289 -0.04460489 0.04105322
v -0.04262501 -0.02549523 0.04886461
v -0.04139258 -0.03056838 0.04105931
v -0.03635731 -0.03012896 0.05673353
v -0.03166340 -0.03631975 0.05372211
v -0.02844895 -0.03316969 0.06444316
v -0.01779765 -0.03493318 0.07044462
v 0.00244117 -0.03072757 0.07921074
v -0.00841420 -0.03805840 0.07066757
v -0.00381398 -0.04435443 0.06304005
v -0.00233008 -0.04859520 0.05256738
v -0.01000545 -0.04911540 0.04735906
v -0.01476594 -0.04420507 0.05843332
v -0.02538193 -0.03329942 0.06746023
v -0.02078666 -0.03949297 0.06306514
v -0.03958213 -0.01319936 0.06747059
v -0.04423845 -0.02572519 0.04263650
v -0.03938077 -0.03028051 0.04884523
v -0.03618580 -0.02706142 0.06159401
v -0.03779540 -0.02711716 0.05835152
v -0.03327837 -0.03798666 0.04576776
f 8 4 2
f 8 2 5
f 12 11 1
f 12 7 11
f 19 12 5
f 19 5 2
f 20 2 4
f 23 11 3
f 23 3 15
f 24 17 6
f 25 12 1
f 25 1 16
f 25 5 12
f 26 3 11
f 27 9 6
f 27 6 17
f 28 11 7
f 28 7 18
f 29 18 2
f 29 20 13
f 29 2 20
f 30 13 9
f 30 9 27
f 30 28 18
f 30 29 13
f 30 18 29
f 31 7 12
f 31 12 19
f 31 18 7
f 31 19 2
f 31 2 18
f 32 4 8
f 36 14 35
f 36 23 14
f 36 11 23
f 37 16 1
f 40 24 15
f 40 15 3
f 40 3 24
f 41 24 3
f 41 17 24
f 41 3 26
f 42 8 5
f 42 5 25
f 43 11 28
f 43 28 30
f 44 4 32
f 45 9 13
f 46 21 33
f 46 44 21
f 46 4 44
f 48 44 34
f 48 21 44
f 48 47 33
f 48 34 47
f 49 47 34
f 50 35 14
f 50 10 35
f 50 39 10
f 50 14 23
f 50 23 39
f 51 1 11
f 51 11 36
f 51 37 1
f 51 22 37
f 52 36 35
f 52 35 22
f 52 51 36
f 52 22 51
f 53 37 22
f 53 16 37
f 53 22 35
f 53 35 38
f 54 53 38
f 54 16 53
f 54 8 42
f 54 42 25
f 54 25 16
f 55 32 8
f 55 54 38
f 55 8 54
f 56 38 35
f 56 55 38
f 56 44 32
f 56 32 55
f 57 39 23
f 57 23 15
f 57 15 24
f 57 24 49
f 57 49 34
f 58 10 39
f 58 34 44
f 58 44 56
f 58 56 35
f 58 35 10
f 58 57 34
f 58 39 57
f 59 41 26
f 59 26 11
f 59 17 41
f 59 11 43
f 59 27 17
f 59 43 30
f 59 30 27
f 60 45 13
f 60 13 20
f 60 20 4
f 60 4 46
f 61 46 33
f 61 60 46
f 61 45 60
f 61 33 47
f 62 24 6
f 62 49 24
f 62 47 49
f 63 9 45
f 63 61 47
f 63 45 61
f 63 47 62
f 63 62 6
f 63 6 9
f 64 48 33
f 64 33 21
f 64 21 48

