# https://github.com/mikedh/trimesh
v -0.01042823 0.05241708 0.02193914
v -0.01056933 0.02853870 0.00236851
v -0.01029774 0.04515741 0.00386421
v -0.03291291 0.02328780 0.00108835
v -0.04407271 -0.02251256 0.01148269
v -0.01050310 0.02842909 0.00003003
v -0.03172495 0.04117351 0.01151233
v -0.03919308 -0.02247223 0.00615923
v -0.01681380 0.03613723 0.00108491
v -0.01019340 0.05133329 0.01280370
v -0.05260484 0.01014681 0.02187832
v -0.01061927 0.05000850 0.02199313
v -0.03766768 -0.02167845 0.00223037
v -0.02324811 0.03293305 0.00118304
v -0.01037998 0.03783193 0.00097106
v -0.02414717 0.04765725 0.01896999
v -0.01792337 0.04627112 0.00721250
v -0.04749164 0.01790129 0.00846869
v -0.05049933 -0.00909394 0.02194986
v -0.03362080 0.04153560 0.02183302
v -0.03790308 -0.00889951 0.00077555
v -0.04169369 -0.02122664 0.00422877
v -0.03509852 0.03377804 0.00593041
v -0.01965827 0.04042798 0.00292607
v -0.01020212 0.04805296 0.00666632
v -0.01496172 0.05084283 0.01424689
v -0.04764563 0.02430422 0.02187581
v -0.01629815 0.05093432 0.02193674
v -0.03177036 0.04282862 0.01734492
v -0.03930643 0.00881653 0.00104596
v -0.03912169 -0.02156072 0.00272299
v -0.05078235 -0.01028528 0.01121962
v -0.03569236 0.02782490 0.00288787
v -0.02739650 0.04126953 0.00715034
v -0.01042137 0.04244736 0.00237536
v -0.01322607 0.04485401 0.00414953
v -0.01494500 0.04916112 0.01003125
v -0.02399810 0.04591906 0.01153874
v -0.05088144 0.01485826 0.01451265
v -0.04162166 0.03202469 0.01288005
v -0.02411387 0.04775345 0.02188711
v -0.01628504 0.05083152 0.01884608
v -0.04648691 -0.00708044 0.00431675
v -0.04191220 -0.01667214 0.00281723
v -0.04750219 -0.02106370 0.01144911
v -0.05285189 -0.00874890 0.02193102
v -0.03974666 0.03032061 0.00733665
v -0.04457105 0.01480953 0.00420539
v -0.04190408 0.01667892 0.00291254
v -0.02772474 0.03571306 0.00297541
v -0.03336707 0.03798718 0.00855249
v -0.02734575 0.03824916 0.00422679
v -0.01202309 0.03781227 0.00107895
v -0.01501725 0.04217777 0.00282437
v -0.01801461 0.04303748 0.00418542
v -0.01463366 0.04625707 0.00585441
v -0.01332051 0.05075175 0.01307436
v -0.01955501 0.04906327 0.01424244
v -0.02881805 0.04429313 0.01420748
v -0.02253926 0.04592499 0.01006911
v -0.02561775 0.04427620 0.01009659
v -0.04922312 0.02101054 0.02186709
v -0.05254982 0.00557257 0.01439619
v -0.04749275 0.02254624 0.01311867
f 6 1 2
f 10 1 6
f 12 8 2
f 12 2 1
f 12 5 8
f 13 6 2
f 13 2 8
f 14 9 6
f 14 6 4
f 15 6 9
f 19 5 12
f 21 6 13
f 24 9 14
f 25 10 6
f 25 6 15
f 25 15 3
f 26 1 10
f 27 19 12
f 28 12 1
f 28 27 12
f 30 4 6
f 30 6 21
f 31 13 8
f 31 8 5
f 31 5 22
f 33 14 4
f 35 3 15
f 36 25 3
f 37 10 25
f 40 29 7
f 40 27 20
f 40 20 29
f 41 28 16
f 41 20 27
f 41 27 28
f 41 29 20
f 41 16 29
f 42 16 28
f 42 28 1
f 42 1 26
f 43 30 21
f 44 21 13
f 44 13 31
f 44 43 21
f 44 31 22
f 44 22 43
f 45 22 5
f 45 43 22
f 45 32 43
f 46 27 11
f 46 19 27
f 46 32 45
f 46 45 5
f 46 5 19
f 47 23 33
f 48 47 33
f 48 18 47
f 48 43 18
f 48 30 43
f 49 33 4
f 49 4 30
f 49 48 33
f 49 30 48
f 50 24 14
f 50 14 33
f 50 33 23
f 51 7 34
f 51 23 47
f 51 47 40
f 51 40 7
f 52 34 17
f 52 24 50
f 52 50 23
f 52 51 34
f 52 23 51
f 53 35 15
f 53 15 9
f 53 9 35
f 54 35 9
f 54 9 24
f 54 36 3
f 54 3 35
f 55 52 17
f 55 24 52
f 55 54 24
f 55 36 54
f 56 25 36
f 56 37 25
f 56 17 37
f 56 55 17
f 56 36 55
f 57 37 26
f 57 26 10
f 57 10 37
f 58 26 37
f 58 42 26
f 58 16 42
f 59 29 16
f 59 58 38
f 59 16 58
f 59 7 29
f 60 37 17
f 60 17 34
f 60 58 37
f 60 38 58
f 61 34 7
f 61 59 38
f 61 7 59
f 61 60 34
f 61 38 60
f 62 39 11
f 62 11 27
f 63 11 39
f 63 46 11
f 63 32 46
f 63 39 18
f 63 43 32
f 63 18 43
f 64 27 40
f 64 62 27
f 64 39 62
f 64 18 39
f 64 47 18
f 64 40 47

