# https://github.com/mikedh/trimesh
v 0.02623059 -0.04526460 0.01271034
v 0.02758044 -0.04110443 0.01124404
v -0.04753281 -0.02178601 0.01231692
v -0.03790308 -0.00889951 0.00077555
v -0.00717278 -0.03938259 0.00111229
v -0.01052143 -0.01057005 0.00226926
v 0.02466497 -0.03721599 0.00284915
v -0.01178082 -0.05129572 0.01292862
v -0.02946452 -0.03419356 0.00299457
v -0.03830257 -0.00897629 0.00330771
v 0.02633195 -0.03889129 0.00417785
v 0.02700989 -0.02530074 0.00294596
v -0.04464792 -0.02744822 0.01286416
v -0.04345506 -0.02128837 0.00559801
v -0.02324698 -0.03293618 0.00116537
v -0.01338088 -0.04487082 0.00428806
v -0.02515813 -0.00894464 0.00227453
v 0.01184907 -0.04933873 0.00877510
v 0.02672721 -0.02505181 0.00052387
v 0.02440830 -0.04640272 0.01289365
v -0.03211724 -0.04166128 0.01266380
v -0.04656337 -0.02131037 0.00967713
v -0.03745108 -0.02479843 0.00275902
v -0.02515829 -0.00894425 0.00001220
v -0.01832392 -0.04051246 0.00278574
v -0.00386529 -0.04952116 0.00725332
v 0.01339911 -0.04490658 0.00408611
v 0.02662469 -0.02976180 0.00114246
v -0.04645733 -0.02428345 0.01261573
v 0.01024555 -0.05138731 0.01277646
v 0.02116446 -0.04603582 0.00856668
v -0.02747932 -0.04480042 0.01270091
v -0.03954825 -0.03028722 0.00711279
v -0.03780918 -0.01369841 0.00104817
v -0.03301611 -0.02335221 0.00112974
v -0.01680416 -0.03613587 0.00108940
v 0.00728455 -0.03936650 0.00105711
v -0.01052171 -0.01057025 0.00002078
v -0.00864241 -0.04371184 0.00279228
v -0.02260485 -0.04461537 0.00747959
v -0.02460746 -0.03734501 0.00283490
v 0.01833893 -0.04346022 0.00435936
v 0.00555071 -0.04785429 0.00563405
v 0.02629373 -0.03575295 0.00264673
v -0.04603075 -0.02419524 0.01138630
v 0.02133875 -0.04792837 0.01288988
v 0.00561488 -0.05090910 0.00982011
v 0.02420892 -0.04455957 0.00872178
v 0.01484537 -0.04611312 0.00577688
v -0.03582332 -0.02789135 0.00297648
v -0.04114829 -0.03199601 0.01148805
v -0.04442863 -0.02409172 0.00867037
v 0.02013451 -0.03451887 0.00116053
v 0.01510121 -0.04199217 0.00282637
v 0.00884923 -0.04359685 0.00280976
v -0.00709230 -0.04626829 0.00405752
v -0.01801476 -0.04305739 0.00419859
v -0.02129192 -0.04803310 0.01259796
v -0.01336369 -0.04791542 0.00729078
v -0.02719052 -0.04267077 0.00853201
v -0.02742823 -0.04002062 0.00593919
v 0.02461445 -0.04038258 0.00446062
v 0.02406179 -0.04600833 0.01153375
v 0.01473433 -0.04918826 0.00983207
f 1 2 3
f 6 3 2
f 10 4 3
f 10 3 6
f 11 2 1
f 12 6 2
f 17 10 6
f 17 4 10
f 19 6 12
f 19 12 2
f 20 13 8
f 22 3 4
f 22 4 14
f 24 17 6
f 24 4 17
f 28 19 2
f 28 2 11
f 29 20 1
f 29 1 3
f 29 13 20
f 32 8 13
f 32 13 21
f 34 23 14
f 34 14 4
f 35 15 9
f 35 23 34
f 35 34 4
f 35 24 15
f 35 4 24
f 36 24 5
f 36 15 24
f 36 5 25
f 37 5 24
f 38 24 6
f 38 6 19
f 38 37 24
f 38 19 37
f 39 25 5
f 39 16 25
f 39 5 37
f 41 9 15
f 41 36 25
f 41 15 36
f 44 28 11
f 44 11 7
f 45 29 3
f 45 3 22
f 45 13 29
f 46 20 8
f 46 8 30
f 47 18 30
f 47 43 18
f 47 26 43
f 47 30 8
f 47 8 26
f 48 11 1
f 49 42 31
f 49 27 42
f 49 43 27
f 49 18 43
f 50 9 33
f 50 35 9
f 50 23 35
f 50 33 14
f 50 14 23
f 51 33 21
f 51 21 13
f 51 45 33
f 51 13 45
f 52 22 14
f 52 14 33
f 52 45 22
f 52 33 45
f 53 37 19
f 53 19 28
f 53 28 44
f 53 44 7
f 54 42 27
f 54 7 42
f 54 53 7
f 54 37 53
f 55 39 37
f 55 27 43
f 55 54 27
f 55 37 54
f 56 16 39
f 56 43 26
f 56 55 43
f 56 39 55
f 57 25 16
f 57 41 25
f 58 8 32
f 58 32 40
f 59 26 8
f 59 58 40
f 59 8 58
f 59 56 26
f 59 16 56
f 59 57 16
f 59 40 57
f 60 40 32
f 60 32 21
f 60 21 33
f 61 9 41
f 61 40 60
f 61 60 33
f 61 33 9
f 61 57 40
f 61 41 57
f 62 42 7
f 62 7 11
f 62 11 48
f 62 48 31
f 62 31 42
f 63 46 31
f 63 20 46
f 63 31 48
f 63 48 1
f 63 1 20
f 64 46 30
f 64 30 18
f 64 31 46
f 64 49 31
f 64 18 49

