# https://github.com/mikedh/trimesh
v -0.04044130 -0.00906326 0.06297282
v -0.03531069 -0.02221829 0.06287582
v -0.04489987 0.00899493 0.05292769
v -0.05282343 0.00871950 0.02193421
v -0.04961918 -0.01824208 0.03311785
v -0.05044539 0.00907748 0.02197328
v -0.03587876 -0.02093746 0.06321188
v -0.04916569 -0.00540340 0.04896787
v -0.04623345 0.00925434 0.04840130
v -0.04928117 -0.01425288 0.02187152
v -0.04264941 -0.02098975 0.05541487
v -0.04381688 -0.00880346 0.06222208
v -0.05241808 -0.00698615 0.03143294
v -0.05096458 0.00876853 0.03943960
v -0.04974797 -0.01276977 0.02184587
v -0.04511472 -0.02216970 0.03339693
v -0.03973559 -0.02109304 0.06181411
v -0.04912752 -0.01165572 0.04593967
v -0.04764376 0.00866650 0.05226047
v -0.03797923 -0.01604521 0.06353360
v -0.05261781 0.00869811 0.02670085
v -0.05257165 -0.00239339 0.03305456
v -0.05263364 -0.01029029 0.02200949
v -0.04829370 -0.02131357 0.03316506
v -0.04439235 -0.02261467 0.03681663
v -0.04250573 -0.01472739 0.06163519
v -0.05075643 -0.01329562 0.03467707
v -0.04593312 -0.01020452 0.05683146
v -0.04925526 0.00384270 0.04900503
v -0.04916521 0.00866511 0.04738528
v -0.05085115 -0.00703853 0.04107459
v -0.05247850 0.00389088 0.03304674
v -0.05194526 -0.01354282 0.02198348
v -0.04589947 -0.02098866 0.04577074
v -0.03588418 -0.02262039 0.06162319
v -0.04415180 -0.01775856 0.05540067
v -0.04922080 -0.01817434 0.03631120
v -0.04612652 -0.00864849 0.05699519
v -0.04745413 -0.01026033 0.05219868
v -0.04417478 -0.01162056 0.06009445
v -0.04470282 -0.00866485 0.06028765
v -0.05254836 0.00709876 0.02990880
v -0.05090636 0.00552148 0.04105473
v -0.05256595 -0.01028717 0.02341981
v -0.04430826 -0.02100250 0.05054054
v -0.04408074 -0.01639216 0.05684217
v -0.04912274 -0.01649533 0.03940114
v -0.04748176 -0.02087955 0.03936130
v -0.04741265 -0.01944016 0.04247125
v -0.04905048 -0.01318961 0.04423566
f 6 3 2
f 7 2 3
f 7 3 1
f 9 3 6
f 10 6 2
f 12 1 3
f 14 9 6
f 15 4 6
f 15 6 10
f 16 10 2
f 17 2 7
f 19 12 3
f 19 3 9
f 20 7 1
f 20 1 12
f 20 17 7
f 20 12 17
f 21 14 6
f 21 6 4
f 23 4 15
f 23 22 4
f 23 13 22
f 24 10 16
f 25 24 16
f 26 17 12
f 30 19 9
f 30 9 14
f 30 29 19
f 31 18 8
f 31 29 22
f 31 8 29
f 31 22 13
f 31 27 18
f 31 13 27
f 32 4 22
f 33 23 15
f 33 15 10
f 33 10 24
f 33 24 5
f 33 5 27
f 34 24 25
f 35 25 16
f 35 16 2
f 35 2 17
f 35 17 11
f 36 11 17
f 36 18 34
f 37 27 5
f 37 5 24
f 38 29 8
f 39 8 18
f 39 18 28
f 39 38 8
f 39 28 38
f 40 26 12
f 40 12 28
f 41 12 19
f 41 19 29
f 41 29 38
f 41 38 28
f 41 28 12
f 42 32 14
f 42 14 21
f 42 21 4
f 42 4 32
f 43 14 32
f 43 30 14
f 43 29 30
f 43 32 22
f 43 22 29
f 44 33 27
f 44 27 13
f 44 13 23
f 44 23 33
f 45 34 25
f 45 36 34
f 45 11 36
f 45 35 11
f 45 25 35
f 46 36 17
f 46 17 26
f 46 26 40
f 46 40 28
f 46 28 18
f 46 18 36
f 47 18 27
f 47 27 37
f 48 37 24
f 48 24 34
f 49 34 18
f 49 48 34
f 49 47 37
f 49 37 48
f 50 49 18
f 50 18 47
f 50 47 49

