# https://github.com/mikedh/trimesh
v -0.02332563 0.02009761 0.07897378
v -0.02822756 -0.00935699 0.07804617
v -0.02344677 0.04295421 0.05117821
v -0.03049755 0.03838924 0.05069523
v -0.04594381 0.00544625 0.05856697
v -0.02413116 0.03642935 0.06470554
v -0.02812679 -0.00935893 0.07461884
v -0.02975002 0.00835460 0.07895799
v -0.04469443 -0.00922966 0.05344046
v -0.02283902 0.03694215 0.06501703
v -0.02699107 0.03939060 0.05540701
v -0.03621456 0.02241660 0.06593559
v -0.02279248 0.04184883 0.05569702
v -0.04128228 -0.00547021 0.06755236
v -0.02900969 -0.00913111 0.07917570
v -0.04646163 0.01344582 0.05237020
v -0.04749802 -0.00887996 0.05272010
v -0.02426694 0.03943996 0.05161851
v -0.02274128 0.03067389 0.07098791
v -0.02589217 0.04162175 0.05073776
v -0.02676801 0.01601309 0.07870687
v -0.04114740 0.01010592 0.06618608
v -0.03635240 0.03019043 0.05683529
v -0.02691012 0.03636244 0.06154576
v -0.02477384 0.01783586 0.07897580
v -0.02992533 -0.00843830 0.07884965
v -0.04171081 0.02592798 0.05074842
v -0.04801512 0.00550164 0.05237479
v -0.04580354 -0.00695701 0.05843325
v -0.04145726 -0.00865590 0.06653235
v -0.03158538 0.02702438 0.06746668
v -0.02401509 0.04118959 0.05547740
v -0.03797731 0.01323027 0.06903690
v -0.04132815 0.00221985 0.06761223
v -0.04255592 0.01480676 0.06150765
v -0.03013278 0.03638979 0.05676602
v -0.02817101 0.01298933 0.07882820
v -0.02410598 0.01944638 0.07891711
v -0.04810264 -0.00549818 0.05237050
v -0.03693169 0.03221879 0.05075058
v -0.03780234 0.02709595 0.05831589
v -0.04580439 0.01002488 0.05689462
v -0.04235060 0.02479864 0.05097189
v -0.04278494 -0.00687508 0.06480798
v -0.04612652 -0.00864849 0.05699519
v -0.03961882 -0.00702231 0.06912129
v -0.02858697 0.03017172 0.06744048
v -0.03336506 0.02252723 0.06896229
v -0.03964892 0.00546142 0.06913794
v -0.04279925 0.00697415 0.06474046
v -0.03785634 0.01935345 0.06600535
v -0.03173269 0.03627769 0.05377181
v -0.03012977 0.03468530 0.05991999
v -0.04763838 -0.00546714 0.05393401
v -0.03839975 0.03058316 0.05073446
v -0.04133349 0.02567665 0.05220326
v -0.03306302 0.02853171 0.06445707
v -0.04756185 0.00544607 0.05386470
v -0.04409745 0.01639924 0.05684770
v -0.02404518 0.03032085 0.07049023
v -0.03314998 0.02702718 0.06585093
v -0.04262284 0.01166124 0.06314901
v -0.03615693 0.02704936 0.06149678
v -0.03022968 0.03805530 0.05219676
f 7 1 2
f 9 7 2
f 13 7 3
f 13 1 7
f 13 6 10
f 15 2 1
f 18 9 3
f 18 3 7
f 18 7 9
f 19 10 6
f 19 13 10
f 19 1 13
f 20 4 11
f 20 3 9
f 20 9 17
f 24 13 11
f 24 6 13
f 25 15 1
f 25 8 15
f 26 15 8
f 27 4 20
f 30 15 26
f 30 2 15
f 30 17 9
f 30 9 2
f 32 20 11
f 32 11 13
f 32 13 3
f 32 3 20
f 34 26 8
f 34 14 26
f 36 24 11
f 37 8 25
f 37 33 8
f 38 25 1
f 38 37 25
f 38 21 37
f 39 27 20
f 39 20 17
f 39 28 27
f 42 16 28
f 43 28 16
f 43 27 28
f 44 5 29
f 44 14 34
f 44 30 14
f 45 17 30
f 45 44 29
f 45 30 44
f 46 30 26
f 46 26 14
f 46 14 30
f 47 38 1
f 47 31 38
f 48 38 31
f 48 21 38
f 48 37 21
f 48 33 37
f 49 33 22
f 49 34 8
f 49 8 33
f 50 44 34
f 50 5 44
f 50 49 22
f 50 34 49
f 51 41 35
f 51 48 12
f 51 33 48
f 51 22 33
f 52 36 11
f 52 4 40
f 52 40 23
f 52 23 36
f 53 36 23
f 53 24 36
f 54 29 5
f 54 28 39
f 54 45 29
f 54 39 17
f 54 17 45
f 55 27 23
f 55 23 40
f 55 40 4
f 55 4 27
f 56 41 23
f 56 23 27
f 56 27 43
f 57 53 23
f 57 31 47
f 57 47 6
f 57 6 24
f 57 24 53
f 58 42 28
f 58 5 42
f 58 54 5
f 58 28 54
f 59 42 35
f 59 16 42
f 59 43 16
f 59 35 41
f 59 56 43
f 59 41 56
f 60 47 1
f 60 1 19
f 60 19 6
f 60 6 47
f 61 48 31
f 61 12 48
f 61 31 57
f 62 50 22
f 62 35 42
f 62 42 5
f 62 5 50
f 62 51 35
f 62 22 51
f 63 51 12
f 63 41 51
f 63 61 57
f 63 12 61
f 63 57 23
f 63 23 41
f 64 52 11
f 64 11 4
f 64 4 52

