# https://github.com/mikedh/trimesh
v 0.02120459 0.02120607 0.07855619
v 0.04184280 0.02767909 0.04754673
v 0.02106289 0.04097372 0.06004013
v 0.00236325 0.05141647 0.04115967
v 0.00276518 0.03024741 0.07472293
v 0.03053766 0.04147074 0.04108952
v 0.03224749 0.02743101 0.06646024
v 0.02132871 0.02127356 0.07457269
v 0.03851490 0.03004256 0.04193848
v 0.00539775 0.03127817 0.07805337
v 0.01810686 0.04814346 0.04116380
v 0.03564698 0.02759008 0.06194721
v 0.00256207 0.04877954 0.04162847
v 0.04297471 0.02835608 0.04142744
v 0.00271256 0.03021977 0.07802613
v 0.00233662 0.04451050 0.06331410
v 0.01776129 0.03644208 0.06893841
v 0.00396580 0.05127453 0.04112364
v 0.02404840 0.04441579 0.04589148
v 0.04023299 0.02765162 0.05242219
v 0.03180282 0.03633532 0.05378059
v 0.00228690 0.03181264 0.07794830
v 0.04159819 0.03048214 0.04110479
v 0.01162877 0.04742464 0.05222315
v 0.02255023 0.03631331 0.06597733
v 0.00707193 0.03972971 0.06916607
v 0.01434422 0.02813808 0.07796201
v 0.01340486 0.04965323 0.04114618
v 0.02875703 0.03944346 0.05211586
v 0.03642373 0.03012270 0.05679148
v 0.00234271 0.05109560 0.04276445
v 0.03508278 0.03636690 0.04585214
v 0.04118550 0.02886873 0.04728856
v 0.01481611 0.04426068 0.05851891
v 0.01644411 0.04741613 0.04742658
v 0.01634412 0.03951610 0.06596611
v 0.02701200 0.03642680 0.06139906
v 0.01327990 0.03659842 0.07053594
v 0.00241471 0.04147422 0.06783684
v 0.02242588 0.03189354 0.07048803
v 0.01014450 0.04921263 0.04744925
v 0.02260633 0.04270111 0.05378834
v 0.02880905 0.04101674 0.04729913
v 0.03505289 0.03475000 0.05053396
v 0.03013525 0.03958276 0.04889312
v 0.04141028 0.03024694 0.04265464
v 0.00872639 0.04587042 0.05853880
v 0.02104913 0.04582612 0.04588572
v 0.02081593 0.03939352 0.06297756
v 0.01478609 0.04108320 0.06455652
v 0.02717193 0.03791496 0.05847488
v 0.03019962 0.03471358 0.05986814
v 0.03013061 0.03169544 0.06444677
v 0.00712901 0.03827736 0.07061607
v 0.01316169 0.03951637 0.06750236
v 0.00870680 0.04278465 0.06468486
v 0.01898982 0.02516081 0.07805348
v 0.01166156 0.04919225 0.04593199
v 0.00391313 0.05095848 0.04270990
v 0.01939872 0.04420277 0.05381723
v 0.03041621 0.04118473 0.04259464
v 0.02718332 0.04097671 0.05051438
v 0.03968304 0.02859171 0.05215397
v 0.03794696 0.03336618 0.04583625
f 8 2 1
f 8 1 5
f 9 8 5
f 12 7 1
f 13 9 5
f 14 2 8
f 14 8 9
f 14 9 13
f 15 5 1
f 15 1 10
f 19 6 11
f 20 12 1
f 20 1 2
f 22 13 5
f 22 4 13
f 22 5 15
f 22 15 10
f 23 14 13
f 23 13 4
f 23 4 18
f 23 18 6
f 26 22 10
f 27 10 1
f 28 11 6
f 28 6 18
f 30 12 20
f 31 22 16
f 31 4 22
f 31 18 4
f 32 23 6
f 33 2 14
f 33 20 2
f 35 11 28
f 35 24 34
f 36 17 25
f 38 27 17
f 38 10 27
f 39 16 22
f 39 22 26
f 40 25 17
f 40 17 27
f 41 28 18
f 41 24 35
f 44 21 30
f 45 29 21
f 45 44 32
f 45 21 44
f 45 43 29
f 46 33 14
f 46 14 23
f 47 34 24
f 47 24 41
f 47 41 31
f 47 31 16
f 48 19 11
f 48 11 35
f 49 36 25
f 49 37 3
f 49 25 37
f 50 3 34
f 50 49 3
f 50 36 49
f 51 3 37
f 51 42 3
f 51 29 42
f 51 21 29
f 52 30 21
f 52 51 37
f 52 21 51
f 52 12 30
f 53 37 25
f 53 52 37
f 53 7 12
f 53 12 52
f 53 40 7
f 53 25 40
f 54 38 26
f 54 26 10
f 54 10 38
f 55 26 38
f 55 36 50
f 55 38 17
f 55 17 36
f 56 39 26
f 56 16 39
f 56 55 50
f 56 26 55
f 56 47 16
f 56 50 34
f 56 34 47
f 57 40 27
f 57 27 1
f 57 1 7
f 57 7 40
f 58 41 35
f 58 35 28
f 58 28 41
f 59 41 18
f 59 18 31
f 59 31 41
f 60 35 34
f 60 34 3
f 60 3 42
f 60 48 35
f 60 42 19
f 60 19 48
f 61 6 19
f 61 19 43
f 61 43 45
f 61 45 32
f 61 32 6
f 62 42 29
f 62 29 43
f 62 43 19
f 62 19 42
f 63 44 30
f 63 30 20
f 63 20 33
f 64 46 23
f 64 23 32
f 64 32 44
f 64 33 46
f 64 63 33
f 64 44 63

