# https://github.com/mikedh/trimesh
v 0.00254541 0.03058324 0.07844053
v 0.00272128 0.03004271 0.07703982
v -0.00233389 0.05347517 0.02191302
v -0.03362080 0.04153560 0.02183302
v -0.02431774 0.01765137 0.07825933
v -0.01306067 0.04423184 0.06002930
v 0.00247858 0.05269905 0.03331576
v -0.00248725 0.05111030 0.02200101
v -0.01494281 0.05081720 0.03144750
v -0.01135231 0.02969655 0.07796788
v -0.03226187 0.03694364 0.05076183
v 0.00242808 0.04603306 0.06011357
v -0.02420573 0.01756462 0.07456657
v 0.00252988 0.05011759 0.03341475
v -0.01629815 0.05093432 0.02193674
v -0.00695541 0.05270926 0.02996593
v -0.01834666 0.02478347 0.07885080
v -0.03021395 0.04292892 0.03471969
v 0.00241471 0.04147422 0.06783684
v 0.00276518 0.03024741 0.07472293
v -0.03540556 0.03711392 0.02198364
v -0.00852885 0.05283991 0.02189742
v -0.00231151 0.05279885 0.03149215
v -0.00684610 0.04927502 0.04907194
v -0.02403918 0.01906885 0.07899880
v -0.00525798 0.03147201 0.07789528
v -0.02247404 0.03640865 0.06591422
v -0.03351434 0.03973920 0.03776623
v -0.02411387 0.04775345 0.02188711
v -0.02235549 0.04435036 0.04893590
v -0.00395202 0.04437563 0.06327683
v -0.03581000 0.03414139 0.03843109
v -0.01630517 0.05090757 0.02352064
v -0.00850615 0.05258799 0.02672955
v -0.00693842 0.05100535 0.04110320
v 0.00234271 0.05109560 0.04276445
v -0.03359085 0.03198136 0.05133681
v 0.00228690 0.03181264 0.07794830
v -0.02245557 0.03349454 0.06894400
v -0.03339859 0.04129353 0.02834075
v -0.02873734 0.04104753 0.04725634
v -0.03184202 0.04302151 0.02183131
v -0.02262461 0.04755788 0.03301906
v -0.01609084 0.04744831 0.04740290
v -0.02231533 0.04102032 0.05831574
v 0.00233662 0.04451050 0.06331410
v -0.00527191 0.04132667 0.06773016
v -0.00841385 0.04588524 0.05854302
v -0.03387546 0.03855927 0.04112643
v -0.01172760 0.05083577 0.03632705
v -0.00553414 0.05263777 0.03151119
v -0.00231084 0.05094475 0.04272143
v 0.00234640 0.04779144 0.05545711
v -0.03536052 0.03375498 0.04158791
v -0.01731972 0.02649960 0.07792604
v -0.01297440 0.03953399 0.06759340
v -0.02262460 0.02104742 0.07892423
v -0.03174017 0.04116615 0.03778168
v -0.02250544 0.04590913 0.04263842
v -0.02889118 0.04445198 0.02985944
v -0.01948517 0.04928307 0.02983624
v -0.01323083 0.04744120 0.05067984
v -0.01938097 0.04420637 0.05380842
v -0.01937826 0.04100750 0.06152149
f 5 2 1
f 8 4 3
f 13 2 5
f 14 8 3
f 14 3 7
f 19 1 2
f 19 2 12
f 20 12 2
f 20 7 12
f 20 14 7
f 20 8 14
f 20 13 8
f 20 2 13
f 21 4 8
f 21 8 13
f 22 16 3
f 23 7 3
f 23 3 16
f 25 5 1
f 25 1 17
f 26 17 1
f 26 10 17
f 29 15 22
f 32 21 13
f 32 13 5
f 32 4 21
f 33 22 15
f 33 9 22
f 33 15 29
f 34 22 9
f 34 9 16
f 34 16 22
f 37 25 11
f 37 5 25
f 38 26 1
f 38 1 19
f 39 27 11
f 39 11 25
f 40 28 18
f 40 4 32
f 42 29 22
f 42 4 40
f 42 22 3
f 42 3 4
f 45 30 41
f 45 41 11
f 45 11 27
f 46 31 19
f 46 19 12
f 46 12 31
f 47 19 31
f 47 38 19
f 47 26 38
f 47 31 6
f 48 6 31
f 48 31 12
f 49 40 32
f 49 28 40
f 49 11 41
f 50 35 16
f 50 16 9
f 50 44 35
f 50 9 44
f 51 35 23
f 51 23 16
f 51 16 35
f 52 7 23
f 52 23 35
f 52 36 7
f 52 35 24
f 52 24 36
f 53 36 24
f 53 12 7
f 53 7 36
f 53 48 12
f 53 24 48
f 54 32 5
f 54 5 37
f 54 37 11
f 54 49 32
f 54 11 49
f 55 39 17
f 55 17 10
f 55 10 39
f 56 39 10
f 56 27 39
f 56 10 26
f 56 26 47
f 56 47 6
f 57 39 25
f 57 25 17
f 57 17 39
f 58 41 18
f 58 18 28
f 58 49 41
f 58 28 49
f 59 41 30
f 59 18 41
f 59 43 18
f 59 30 44
f 59 44 9
f 59 9 43
f 60 42 40
f 60 40 18
f 60 29 42
f 60 43 29
f 60 18 43
f 61 33 29
f 61 29 43
f 61 43 9
f 61 9 33
f 62 24 35
f 62 35 44
f 62 48 24
f 62 6 48
f 63 44 30
f 63 62 44
f 63 6 62
f 63 30 45
f 64 45 27
f 64 63 45
f 64 6 63
f 64 56 6
f 64 27 56

