# https://github.com/mikedh/trimesh
v 0.04333145 0.01551437 0.00712253
v 0.04592132 -0.02495546 0.01234201
v 0.03777629 -0.01366419 0.00116047
v 0.01711940 0.02358062 0.00001080
v 0.02645310 -0.04563430 0.01401580
v 0.03781974 0.01367538 0.00112384
v 0.04217316 -0.01512408 0.00285872
v 0.04343891 -0.02535615 0.01369803
v 0.01712576 0.02358284 0.00230465
v 0.01711859 -0.02519121 0.00001247
v 0.02994931 0.02342183 0.00070721
v 0.04215411 0.01512901 0.00281424
v 0.03944520 -0.00719780 0.00104636
v 0.03508715 -0.03362836 0.00576851
v 0.03896576 -0.03584856 0.01414749
v 0.04401581 -0.02402056 0.01346099
v 0.02763571 -0.04495114 0.01419447
v 0.01712501 -0.02520874 0.00233181
v 0.03025823 0.02368635 0.00316844
v 0.04497040 -0.02443878 0.00987671
v 0.03940604 0.00882782 0.00116436
v 0.02633195 -0.03889129 0.00417785
v 0.04467226 -0.02755527 0.01274860
v 0.03070648 -0.04314397 0.01427956
v 0.02623059 -0.04526460 0.01271034
v 0.02206806 0.02365105 0.00242868
v 0.04138705 -0.02744116 0.00696977
v 0.02819811 -0.02815411 0.00110771
v 0.04428041 -0.02749333 0.01150792
v 0.03505671 -0.03645687 0.00856084
v 0.02603768 -0.04327675 0.00845076
v 0.03047642 -0.04286604 0.01303599
v 0.03840585 -0.02722631 0.00426934
v 0.04163750 -0.02121675 0.00417008
v 0.02646850 -0.03440892 0.00212245
v 0.02666511 -0.02821016 0.00091332
v 0.03736272 -0.02472943 0.00279631
v 0.04286051 -0.02879741 0.01030255
v 0.04153967 -0.03204407 0.01275600
v 0.03812881 -0.03181849 0.00715602
v 0.02764802 -0.03873214 0.00452021
v 0.02750973 -0.04464379 0.01299704
v 0.02740872 -0.04276707 0.00877854
v 0.03178565 -0.04114956 0.01158608
v 0.03299876 -0.02328166 0.00122745
v 0.03412209 -0.02939772 0.00292291
v 0.04445830 -0.02574738 0.01018056
v 0.04129127 -0.03178802 0.01154307
v 0.03660096 -0.03502228 0.00860314
v 0.03197494 -0.03826868 0.00748644
v 0.02939535 -0.03400535 0.00287677
v 0.03366036 -0.03498689 0.00581589
f 9 8 1
f 12 1 2
f 12 11 1
f 12 6 11
f 13 7 3
f 13 12 7
f 13 3 10
f 13 10 4
f 13 4 11
f 16 8 2
f 16 2 1
f 16 1 8
f 17 9 5
f 17 8 9
f 18 5 9
f 18 9 4
f 18 4 10
f 19 9 1
f 19 1 11
f 19 11 4
f 20 12 2
f 20 7 12
f 21 6 12
f 21 12 13
f 21 13 11
f 21 11 6
f 23 2 8
f 23 8 15
f 24 15 8
f 24 8 17
f 24 17 5
f 25 18 10
f 25 5 18
f 26 19 4
f 26 4 9
f 26 9 19
f 29 20 2
f 29 2 23
f 31 25 10
f 31 10 22
f 32 24 5
f 32 15 24
f 33 27 14
f 34 7 20
f 34 20 27
f 34 27 33
f 35 22 10
f 36 10 3
f 36 35 10
f 36 28 35
f 37 3 7
f 37 34 33
f 37 7 34
f 39 29 23
f 39 23 15
f 40 14 27
f 40 27 38
f 41 22 35
f 41 31 22
f 42 32 5
f 42 5 25
f 43 31 41
f 43 32 42
f 43 42 25
f 43 25 31
f 44 30 15
f 44 15 32
f 44 32 43
f 45 36 3
f 45 28 36
f 45 3 37
f 46 37 33
f 46 45 37
f 46 35 28
f 46 28 45
f 46 33 14
f 47 20 29
f 47 29 38
f 47 38 27
f 47 27 20
f 48 38 29
f 48 29 39
f 48 39 15
f 49 30 14
f 49 14 40
f 49 40 38
f 49 38 48
f 49 48 15
f 49 15 30
f 50 14 30
f 50 43 41
f 50 44 43
f 50 30 44
f 51 41 35
f 51 35 46
f 51 46 14
f 51 14 41
f 52 50 41
f 52 41 14
f 52 14 50

