# https://github.com/mikedh/trimesh
v 0.01063287 -0.04479487 0.05287328
v 0.01023867 -0.04761866 0.05228287
v 0.01573854 -0.04703063 0.01174025
v -0.01061998 -0.04840081 0.01195015
v -0.01741079 -0.04565609 0.04167260
v 0.01019034 -0.05255908 0.02353599
v 0.01582277 -0.04878733 0.02200364
v -0.00898867 -0.04508918 0.05296538
v 0.00567341 -0.05265692 0.01415323
v 0.01486871 -0.05073865 0.01419140
v 0.01511483 -0.05154247 0.02195165
v -0.00858070 -0.04800012 0.05235825
v -0.01027217 -0.05159304 0.01271043
v 0.01516067 -0.05016781 0.01259450
v 0.01017361 -0.05081571 0.03940104
v 0.01017898 -0.05246997 0.01739918
v 0.01248281 -0.04771477 0.01137578
v -0.00872856 -0.05261365 0.02828924
v -0.01712808 -0.04821530 0.02195653
v 0.01339688 -0.05079245 0.01301604
v 0.01600025 -0.04773993 0.01327355
v 0.00860659 -0.05260990 0.02824004
v 0.00565312 -0.05092015 0.04274308
v -0.01012123 -0.05255486 0.01747844
v -0.01649351 -0.04923746 0.03941486
v -0.01645941 -0.05104902 0.02189820
v 0.00860038 -0.05253321 0.01580917
v 0.00078548 -0.05269618 0.03311933
v 0.00697450 -0.04918440 0.04901479
v 0.00564826 -0.05266492 0.03151740
v -0.00544046 -0.05253903 0.01418371
v -0.01009132 -0.05262878 0.02506508
v -0.00865852 -0.05085690 0.04106500
v -0.01671232 -0.04874207 0.04126290
v 0.00854669 -0.05082018 0.04102117
v -0.00546162 -0.04930242 0.04905593
v -0.00868616 -0.05249854 0.01580575
v -0.01489989 -0.05085422 0.03145967
v -0.00225665 -0.05268455 0.03314014
v -0.01649328 -0.05084704 0.02667314
v -0.00866379 -0.04940437 0.04748577
v -0.01160105 -0.05081825 0.03779710
v -0.00546930 -0.05260491 0.03149208
v -0.00384273 -0.05098739 0.04272907
v -0.01761091 -0.04778323 0.02694669
v -0.01765107 -0.04624069 0.03854625
f 5 1 3
f 5 3 4
f 7 1 2
f 7 3 1
f 8 1 5
f 11 7 2
f 12 2 1
f 12 1 8
f 12 8 5
f 14 11 10
f 14 9 13
f 15 11 2
f 16 11 6
f 16 10 11
f 17 13 4
f 17 4 3
f 17 14 13
f 17 3 14
f 19 5 4
f 20 14 10
f 20 9 14
f 21 14 3
f 21 3 7
f 21 7 11
f 21 11 14
f 22 6 11
f 22 11 15
f 22 9 6
f 26 19 4
f 26 4 13
f 26 13 24
f 27 9 20
f 27 16 6
f 27 6 9
f 27 20 10
f 27 10 16
f 29 2 12
f 30 22 15
f 30 23 28
f 30 28 9
f 30 9 22
f 31 13 9
f 31 9 24
f 32 24 9
f 32 26 24
f 34 12 5
f 35 29 23
f 35 15 2
f 35 2 29
f 35 30 15
f 35 23 30
f 36 29 12
f 36 23 29
f 37 31 24
f 37 24 13
f 37 13 31
f 38 32 18
f 39 18 32
f 39 32 9
f 39 9 28
f 40 25 34
f 40 38 25
f 40 26 32
f 40 32 38
f 41 12 34
f 41 36 12
f 41 34 25
f 41 25 33
f 42 33 25
f 42 25 38
f 42 38 18
f 42 18 33
f 43 39 33
f 43 33 18
f 43 18 39
f 44 39 28
f 44 28 23
f 44 23 36
f 44 33 39
f 44 41 33
f 44 36 41
f 45 19 26
f 45 26 40
f 45 5 19
f 45 40 34
f 46 45 34
f 46 34 5
f 46 5 45

