# https://github.com/mikedh/trimesh
v -0.01741079 -0.04565609 0.04167260
v -0.01046160 -0.05261772 0.02195033
v -0.01061998 -0.04840081 0.01195015
v -0.04783059 -0.01092860 0.01134177
v -0.04279270 -0.03196901 0.01608383
v -0.04850966 -0.00907746 0.01189571
v -0.01065518 -0.05010695 0.02195908
v -0.03178318 -0.04293551 0.02830241
v -0.02560541 -0.04597934 0.01289896
v -0.05071664 -0.01477744 0.01437701
v -0.01671232 -0.04874207 0.04126290
v -0.01027217 -0.05159304 0.01271043
v -0.03172452 -0.04281525 0.01590914
v -0.02105192 -0.04924098 0.02026769
v -0.04273271 -0.03036985 0.01295135
v -0.03666665 -0.03798894 0.01279945
v -0.05141512 -0.00870750 0.01268965
v -0.04678812 -0.02138445 0.04119549
v -0.02257774 -0.04755587 0.01281835
v -0.02727979 -0.04601257 0.01744732
v -0.02410821 -0.04767517 0.02825649
v -0.01652228 -0.05096899 0.01743572
v -0.04757998 -0.02431890 0.01712876
v -0.03042699 -0.04302367 0.01281700
v -0.04119595 -0.03342256 0.01450146
v -0.04918665 -0.01800844 0.01279305
v -0.04126340 -0.03353747 0.02988217
v -0.05285189 -0.00874890 0.02193102
v -0.03635462 -0.03656880 0.04095862
v -0.01326605 -0.05087993 0.01278982
v -0.02414245 -0.04747450 0.01584250
v -0.02882126 -0.04274470 0.04099779
v -0.02722816 -0.04600813 0.02666562
v -0.01660560 -0.04972974 0.03638526
v -0.04579146 -0.02562442 0.01300575
v -0.05091646 -0.01191207 0.01267211
v -0.04913167 -0.01951597 0.01443103
v -0.04604465 -0.02732299 0.02672132
v -0.05077960 -0.01640621 0.01882651
v -0.05279900 -0.00863217 0.01884298
v -0.04813082 -0.01437511 0.03360880
v -0.04308875 -0.02280116 0.04187558
v -0.04266722 -0.02872748 0.04098702
v -0.03654644 -0.03797004 0.03461195
v -0.01943814 -0.04917805 0.01426250
v -0.01488248 -0.05077231 0.01422476
v -0.02100070 -0.04915289 0.01738855
v -0.02411825 -0.04595447 0.03936645
v -0.01936771 -0.04480377 0.04184067
v -0.01645941 -0.05104902 0.02189820
v -0.04598452 -0.02738401 0.01724931
v -0.04274968 -0.03195176 0.02666478
v -0.04922124 -0.02101177 0.02507982
v -0.04921292 -0.02104483 0.02044435
v -0.05049933 -0.00909394 0.02194986
v -0.05263364 -0.01029029 0.02200949
v -0.05248654 -0.01018554 0.01885703
v -0.05083867 -0.01373527 0.03328887
v -0.03965438 -0.03342884 0.03929922
v -0.04431680 -0.02870132 0.03303667
v -0.03337732 -0.04125413 0.03141576
v -0.03336375 -0.03967119 0.03934716
v -0.01945392 -0.04764823 0.04103157
v -0.02264030 -0.04749703 0.03464645
f 6 1 3
f 6 3 4
f 7 3 1
f 11 7 1
f 11 2 7
f 12 7 2
f 12 3 7
f 16 4 3
f 16 15 4
f 16 13 8
f 16 8 5
f 17 6 4
f 20 8 13
f 21 20 14
f 22 12 2
f 24 13 16
f 24 20 13
f 24 9 20
f 24 19 9
f 24 16 3
f 24 3 19
f 25 16 5
f 25 5 15
f 25 15 16
f 27 5 8
f 30 19 3
f 30 3 12
f 31 20 9
f 31 9 19
f 33 8 20
f 33 20 21
f 34 2 11
f 35 15 5
f 35 26 4
f 35 4 15
f 36 26 10
f 36 17 4
f 36 4 26
f 37 10 26
f 37 35 23
f 37 26 35
f 39 10 37
f 40 6 17
f 40 17 36
f 40 36 10
f 42 41 18
f 42 1 41
f 43 42 18
f 43 29 42
f 45 19 30
f 46 30 12
f 46 12 22
f 46 45 30
f 46 22 45
f 47 22 14
f 47 14 20
f 47 20 31
f 47 45 22
f 47 31 19
f 47 19 45
f 48 33 21
f 48 32 8
f 48 8 33
f 49 32 11
f 49 11 1
f 49 1 42
f 49 42 29
f 49 29 32
f 50 22 2
f 50 2 34
f 50 14 22
f 50 34 21
f 50 21 14
f 51 35 5
f 51 23 35
f 51 38 23
f 51 5 38
f 52 38 5
f 52 5 27
f 52 27 38
f 53 23 38
f 53 38 18
f 54 39 37
f 54 37 23
f 54 53 39
f 54 23 53
f 55 40 28
f 55 6 40
f 55 41 1
f 55 1 6
f 56 28 40
f 56 39 53
f 57 40 10
f 57 10 39
f 57 56 40
f 57 39 56
f 58 18 41
f 58 28 56
f 58 56 53
f 58 53 18
f 58 55 28
f 58 41 55
f 59 29 43
f 59 44 29
f 59 27 44
f 60 38 27
f 60 59 43
f 60 27 59
f 60 43 18
f 60 18 38
f 61 44 27
f 61 27 8
f 61 8 32
f 62 32 29
f 62 29 44
f 62 61 32
f 62 44 61
f 63 11 32
f 63 32 48
f 63 34 11
f 64 48 21
f 64 21 34
f 64 63 48
f 64 34 63

