# https://github.com/mikedh/trimesh
v -0.03437743 -0.00727868 0.05091828
v -0.01471953 -0.03326018 0.05091359
v -0.01570895 -0.01223013 0.00733343
v -0.01764014 -0.01130322 0.00065674
v -0.02915373 -0.02171209 0.04616899
v -0.01431599 -0.02169219 0.00655838
v -0.02576267 -0.00748195 0.02575236
v -0.01539638 -0.03138881 0.05068038
v -0.02938331 -0.02173531 0.05069034
v -0.02500124 -0.01109012 0.00968339
v -0.01490034 -0.01157053 0.00008254
v -0.01962326 -0.03018614 0.04516729
v -0.02960281 -0.00749182 0.03877075
v -0.03553273 -0.00712334 0.05094316
v -0.02038528 -0.01713503 0.00779439
v -0.02993964 -0.00705234 0.02607588
v -0.01446693 -0.03265374 0.04406962
v -0.01452815 -0.01662474 0.00128378
v -0.02176189 -0.02909646 0.04716823
v -0.02749891 -0.00759142 0.03221321
v -0.01576891 -0.02518753 0.03757061
v -0.03384142 -0.00741688 0.04988214
v -0.03349457 -0.01430825 0.04617065
v -0.03039283 -0.00688248 0.02839592
v -0.02359918 -0.01404172 0.01080959
v -0.01608613 -0.02138775 0.00868437
v -0.02154516 -0.01197080 0.00386806
v -0.02174346 -0.01115213 0.00360576
v -0.01648946 -0.03240867 0.04718279
v -0.01467882 -0.01466532 0.00046887
v -0.01717427 -0.01830468 0.00491852
v -0.02386815 -0.02699812 0.04515618
v -0.02183654 -0.02911903 0.05071174
v -0.03148709 -0.01865637 0.05066420
v -0.03488982 -0.00690801 0.04301987
v -0.02811204 -0.02275552 0.04524844
v -0.02352810 -0.01199513 0.00680340
v -0.03232824 -0.01634743 0.04515970
v -0.01437525 -0.02280916 0.00967329
v -0.01835313 -0.01308129 0.00174852
v -0.02067941 -0.01115773 0.00256658
v -0.02385109 -0.01112155 0.00662675
v -0.01531726 -0.03231705 0.04419110
v -0.01851485 -0.03124948 0.04721391
v -0.01616621 -0.01821999 0.00395047
v -0.01935106 -0.01605188 0.00490925
v -0.01824514 -0.01920942 0.00778326
v -0.03365924 -0.01433768 0.05071933
v -0.03468044 -0.01114796 0.04618603
v -0.03012863 -0.01956309 0.04425598
v -0.02456414 -0.01193973 0.00974418
v -0.03127631 -0.01858531 0.04612647
v -0.01518882 -0.02235301 0.00975523
v -0.01550353 -0.01447478 0.00069356
v -0.01748905 -0.01227767 0.00086628
v -0.02055438 -0.01194481 0.00287607
v -0.02242544 -0.01292477 0.00583592
v -0.01743973 -0.03115974 0.04423195
v -0.01856665 -0.03131268 0.05071892
v -0.01716288 -0.01607862 0.00282017
v -0.01509328 -0.02131424 0.00683556
v -0.03450476 -0.01003774 0.04427196
v -0.03469091 -0.01122246 0.05076471
v -0.01538667 -0.01632346 0.00157529
f 8 1 2
f 8 2 3
f 11 3 2
f 11 7 3
f 13 7 1
f 14 9 2
f 14 2 1
f 16 11 4
f 16 7 11
f 17 11 2
f 18 17 6
f 18 11 17
f 20 13 3
f 20 3 7
f 20 7 13
f 21 13 8
f 21 8 3
f 21 3 13
f 22 13 1
f 22 1 8
f 22 8 13
f 24 14 1
f 24 1 7
f 24 7 16
f 29 17 2
f 30 4 11
f 30 11 18
f 32 26 12
f 32 12 19
f 33 2 9
f 33 32 19
f 33 9 32
f 34 5 9
f 35 16 10
f 35 24 16
f 35 14 24
f 36 25 15
f 36 15 32
f 36 32 9
f 36 9 5
f 37 15 25
f 38 23 10
f 39 6 17
f 41 28 16
f 41 16 4
f 42 10 16
f 42 16 28
f 42 37 10
f 42 28 27
f 43 17 29
f 43 39 17
f 44 19 12
f 44 12 29
f 45 18 6
f 45 6 31
f 46 31 15
f 47 15 31
f 47 32 15
f 47 26 32
f 48 34 9
f 48 9 14
f 48 23 34
f 49 10 23
f 49 14 35
f 49 23 48
f 50 36 5
f 50 25 36
f 51 37 25
f 51 10 37
f 51 38 10
f 51 25 50
f 52 34 23
f 52 23 38
f 52 5 34
f 52 50 5
f 52 51 50
f 52 38 51
f 53 39 12
f 53 12 26
f 53 6 39
f 54 30 18
f 54 4 30
f 55 41 4
f 55 40 41
f 55 54 40
f 55 4 54
f 56 41 40
f 56 27 28
f 56 28 41
f 56 46 27
f 57 42 27
f 57 37 42
f 57 27 46
f 57 46 15
f 57 15 37
f 58 12 39
f 58 39 43
f 58 43 29
f 58 29 12
f 59 33 19
f 59 19 44
f 59 2 33
f 59 44 29
f 59 29 2
f 60 45 31
f 60 31 46
f 60 56 40
f 60 46 56
f 61 47 31
f 61 31 6
f 61 26 47
f 61 53 26
f 61 6 53
f 62 49 35
f 62 35 10
f 62 10 49
f 63 49 48
f 63 48 14
f 63 14 49
f 64 54 18
f 64 40 54
f 64 60 40
f 64 18 45
f 64 45 60

