# https://github.com/mikedh/trimesh
v -0.01145313 0.03433648 0.05091948
v -0.00747949 0.02704715 0.03336783
v -0.00588570 0.02609513 0.00856276
v -0.01416856 0.02242416 0.00779789
v -0.03511362 0.01027960 0.05087248
v -0.01653042 0.03247123 0.04615220
v -0.00589879 0.02960662 0.02615396
v -0.03350865 0.01077700 0.05071200
v -0.01125363 0.03389932 0.04405935
v -0.00987882 0.02457503 0.00776297
v -0.02825280 0.02390743 0.05072235
v -0.00702917 0.03094074 0.03389918
v -0.00614754 0.01847395 0.00693869
v -0.01205646 0.03284585 0.05069671
v -0.01441403 0.03350601 0.04712315
v -0.00583680 0.02708132 0.01295171
v -0.00778388 0.02571704 0.00871438
v -0.02078016 0.03034907 0.05071864
v -0.02566277 0.01194206 0.01413662
v -0.00642123 0.02512177 0.02566301
v -0.00600599 0.02568118 0.00730625
v -0.01333392 0.03352969 0.04522849
v -0.00584726 0.02816687 0.01847390
v -0.01545093 0.03239829 0.04410722
v -0.02383482 0.02812406 0.05071546
v -0.01442304 0.03344981 0.05071311
v -0.02375733 0.01532151 0.01407926
v -0.03337586 0.01430808 0.04516587
v -0.01418996 0.01308364 0.00660743
v -0.00585367 0.02940529 0.02508789
v -0.02495612 0.02692466 0.04719334
v -0.03478553 0.01017125 0.04512663
v -0.03240224 0.01759113 0.05068810
v -0.03124128 0.01851916 0.04516913
v -0.02668442 0.00926933 0.01391529
v -0.02480219 0.00981225 0.02575770
v -0.00735900 0.01762153 0.00653980
v -0.02387167 0.02808254 0.04925450
v -0.01829495 0.02148280 0.01523877
v -0.01962373 0.03008624 0.04425737
v -0.03457430 0.01228931 0.04719720
v -0.02808305 0.02383208 0.04731432
v -0.03240136 0.01758779 0.04824158
v -0.01504352 0.01283388 0.00701902
v -0.02835380 0.00907023 0.02173300
v -0.03448900 0.01118684 0.04516606
v -0.02131861 0.00982018 0.01342042
v -0.02064541 0.03024281 0.04719809
v -0.02381522 0.02693759 0.04420960
v -0.02247816 0.01722940 0.01523050
v -0.01858277 0.03133845 0.04619689
v -0.03460624 0.01233158 0.05071800
v -0.03016131 0.02067641 0.04617795
v -0.02705310 0.00900998 0.01518270
v -0.02798645 0.02271339 0.04427656
f 8 1 5
f 10 4 6
f 11 5 1
f 12 1 2
f 12 9 1
f 12 7 9
f 14 8 2
f 14 2 1
f 14 1 8
f 15 1 9
f 16 3 9
f 16 13 3
f 17 9 3
f 18 15 6
f 20 12 2
f 20 7 12
f 20 2 8
f 20 8 13
f 21 3 13
f 21 17 3
f 21 10 17
f 21 4 10
f 22 15 9
f 22 6 15
f 22 9 17
f 23 16 9
f 24 17 10
f 24 10 6
f 24 22 17
f 24 6 22
f 25 11 1
f 25 1 18
f 26 18 1
f 26 1 15
f 26 15 18
f 27 4 19
f 29 4 21
f 30 20 13
f 30 7 20
f 30 13 16
f 30 16 23
f 30 23 9
f 30 9 7
f 33 5 11
f 34 27 19
f 34 19 28
f 35 19 4
f 35 28 19
f 36 29 13
f 36 13 8
f 36 8 5
f 37 29 21
f 37 21 13
f 37 13 29
f 38 31 11
f 38 11 25
f 38 25 18
f 41 32 5
f 42 11 31
f 43 34 28
f 43 33 11
f 43 28 41
f 44 35 4
f 44 4 29
f 45 5 32
f 45 36 5
f 46 35 32
f 46 28 35
f 46 41 28
f 46 32 41
f 47 29 36
f 47 44 29
f 47 35 44
f 47 36 45
f 48 38 18
f 48 31 38
f 49 4 39
f 49 40 4
f 49 48 40
f 49 31 48
f 49 42 31
f 49 39 42
f 50 39 4
f 50 4 27
f 50 42 39
f 50 27 42
f 51 6 4
f 51 4 40
f 51 40 48
f 51 48 18
f 51 18 6
f 52 41 5
f 52 5 33
f 52 43 41
f 52 33 43
f 53 27 34
f 53 34 43
f 53 43 11
f 53 11 42
f 54 45 32
f 54 32 35
f 54 47 45
f 54 35 47
f 55 53 42
f 55 42 27
f 55 27 53

