# https://github.com/mikedh/trimesh
v 0.01960930 0.02273269 0.02627576
v 0.02945476 0.00813052 0.02617206
v 0.02140593 0.01509220 0.00694792
v 0.00934964 0.01703353 0.00018856
v 0.00983595 0.02393287 0.02571142
v 0.01887930 0.00812772 0.00059134
v 0.00897129 0.02486621 0.00767267
v 0.02617049 0.01544691 0.02619489
v 0.01010082 0.02835536 0.02622011
v 0.02493608 0.00781465 0.00666982
v 0.01414855 0.01730678 0.00177868
v 0.01842228 0.00887371 0.00821154
v 0.01609846 0.02143141 0.00871616
v 0.00904588 0.02831179 0.02397499
v 0.02921476 0.00907204 0.02622013
v 0.02031188 0.01829960 0.01080811
v 0.02254110 0.01090625 0.00496649
v 0.02817702 0.00791338 0.01961736
v 0.02569608 0.01201860 0.01527917
v 0.01762748 0.01123623 0.00076670
v 0.01100868 0.01936250 0.00180588
v 0.01001137 0.01823290 0.00844650
v 0.01708868 0.00827846 0.00015930
v 0.02513627 0.00883400 0.02561411
v 0.01619872 0.02037454 0.00679787
v 0.01325329 0.02697837 0.02628663
v 0.00910102 0.01870272 0.00067201
v 0.00998031 0.02674706 0.01747417
v 0.00916894 0.02868550 0.02613097
v 0.02386421 0.01857428 0.02625316
v 0.01938333 0.02040042 0.01521683
v 0.02452793 0.00998556 0.00777022
v 0.01732061 0.01414852 0.00182701
v 0.02927378 0.00803458 0.02508092
v 0.02785682 0.01102513 0.02297758
v 0.02243292 0.01619510 0.01194847
v 0.01933173 0.01096525 0.00176040
v 0.01867305 0.00912615 0.00069074
v 0.01311207 0.01927745 0.00283135
v 0.01408038 0.02240975 0.00785400
v 0.02025438 0.01719945 0.00787819
v 0.01628397 0.02469616 0.02403104
v 0.00895450 0.02383046 0.00571145
v 0.01214604 0.01744631 0.00086994
v 0.00903527 0.02705021 0.01739687
v 0.01101904 0.02675895 0.01962392
v 0.01937011 0.01930255 0.01084283
v 0.01615757 0.02242945 0.01300028
v 0.02082852 0.02174097 0.02622912
v 0.02141072 0.01407627 0.00594494
v 0.02457713 0.00882042 0.00685101
v 0.02601113 0.00787308 0.00964844
v 0.02901948 0.00903133 0.02515644
v 0.02684681 0.01310174 0.02297878
v 0.02261059 0.01944396 0.02406660
v 0.02343877 0.01302781 0.00875294
v 0.01414557 0.02036347 0.00485986
v 0.01202938 0.02464200 0.01188987
v 0.01824094 0.01923746 0.00782784
v 0.01091249 0.02139607 0.00386384
v 0.00987192 0.02457734 0.00779315
v 0.01009554 0.01852128 0.00083490
v 0.01717823 0.02140063 0.01191451
v 0.01412157 0.02348174 0.01187332
f 9 5 2
f 15 9 2
f 17 10 6
f 18 6 10
f 22 12 5
f 22 5 4
f 23 6 18
f 23 4 20
f 23 22 4
f 23 12 22
f 24 2 5
f 24 5 12
f 24 12 23
f 26 15 1
f 26 9 15
f 27 4 5
f 27 5 14
f 29 14 5
f 29 5 9
f 29 9 28
f 30 15 8
f 30 1 15
f 33 11 25
f 34 15 2
f 34 23 18
f 34 24 23
f 34 2 24
f 35 8 15
f 36 30 8
f 37 17 6
f 37 33 17
f 37 20 33
f 38 23 20
f 38 6 23
f 38 37 6
f 38 20 37
f 39 11 21
f 40 13 25
f 41 3 25
f 41 36 3
f 41 16 36
f 42 26 1
f 43 27 14
f 43 14 7
f 43 21 27
f 44 21 11
f 44 20 4
f 44 4 27
f 44 33 20
f 44 11 33
f 45 28 7
f 45 7 14
f 45 29 28
f 45 14 29
f 46 28 9
f 46 9 26
f 47 16 41
f 48 42 1
f 49 31 1
f 49 1 30
f 50 32 17
f 50 3 32
f 50 17 33
f 50 33 25
f 50 25 3
f 51 32 10
f 51 10 17
f 51 17 32
f 52 18 10
f 52 10 32
f 52 19 35
f 53 34 18
f 53 15 34
f 53 35 15
f 53 52 35
f 53 18 52
f 54 35 19
f 54 8 35
f 54 36 8
f 54 19 36
f 55 36 16
f 55 30 36
f 55 16 47
f 55 49 30
f 55 47 31
f 55 31 49
f 56 32 3
f 56 3 36
f 56 36 19
f 56 52 32
f 56 19 52
f 57 25 11
f 57 11 39
f 57 40 25
f 57 43 40
f 58 28 46
f 58 46 26
f 59 41 25
f 59 25 13
f 59 47 41
f 59 13 47
f 60 39 21
f 60 21 43
f 60 57 39
f 60 43 57
f 61 43 7
f 61 40 43
f 61 58 40
f 61 7 28
f 61 28 58
f 62 44 27
f 62 27 21
f 62 21 44
f 63 47 13
f 63 31 47
f 63 13 48
f 63 48 1
f 63 1 31
f 64 26 42
f 64 42 48
f 64 58 26
f 64 48 13
f 64 13 40
f 64 40 58

