# https://github.com/mikedh/trimesh
v 0.00916894 0.02868550 0.02613097
v 0.00976400 0.02371857 0.02466703
v 0.00897129 0.02486621 0.00767267
v -0.00578427 0.02585647 0.00764386
v -0.00617586 0.02524481 0.02590550
v 0.00944527 0.01724232 0.00709922
v 0.00156466 0.02693556 0.00965790
v 0.00949425 0.02409023 0.02592264
v -0.00589879 0.02960662 0.02615396
v 0.00974927 0.01773021 0.00772496
v 0.00736825 0.01761665 0.00659505
v 0.00466736 0.02687469 0.01079954
v 0.00578196 0.02574511 0.00763465
v -0.00636556 0.02488087 0.02463397
v -0.00368023 0.02798043 0.01519414
v 0.00156123 0.02913185 0.02068565
v 0.00696669 0.02936259 0.02620376
v 0.00778021 0.02679333 0.01411747
v 0.00893086 0.02570780 0.01078749
v -0.00614754 0.01847395 0.00693869
v -0.00272031 0.02691921 0.00966780
v -0.00579229 0.02687348 0.01188233
v -0.00160914 0.02913900 0.02067943
v 0.00266970 0.02797581 0.01520688
v 0.00784829 0.02790138 0.01961963
v -0.00630184 0.01905540 0.00758829
v -0.00580657 0.02796745 0.01740671
v -0.00469862 0.02688483 0.01078786
v -0.00360726 0.02919380 0.02177652
v 0.00469580 0.02794043 0.01628168
v 0.00891852 0.02793988 0.02180171
v 0.00367182 0.02909921 0.02178539
f 1 2 3
f 8 2 1
f 8 6 2
f 8 5 6
f 9 5 8
f 10 6 3
f 10 3 2
f 10 2 6
f 11 3 6
f 13 4 7
f 13 11 4
f 13 3 11
f 13 7 12
f 14 9 4
f 14 5 9
f 17 9 8
f 17 8 1
f 17 16 9
f 19 13 12
f 19 3 13
f 19 12 18
f 19 1 3
f 20 4 11
f 20 11 6
f 20 6 5
f 20 5 14
f 21 7 4
f 22 4 9
f 23 9 16
f 23 21 15
f 23 16 7
f 23 7 21
f 24 12 7
f 24 7 16
f 25 17 1
f 25 19 18
f 25 18 12
f 26 20 14
f 26 14 4
f 26 4 20
f 27 22 9
f 27 9 15
f 27 15 22
f 28 21 4
f 28 4 22
f 28 22 15
f 28 15 21
f 29 23 15
f 29 15 9
f 29 9 23
f 30 12 24
f 30 25 12
f 30 17 25
f 31 25 1
f 31 1 19
f 31 19 25
f 32 30 24
f 32 24 16
f 32 16 17
f 32 17 30

