# https://github.com/mikedh/trimesh
v 0.03199268 -0.01681714 0.05090737
v 0.03167437 -0.01767824 0.05071237
v 0.02518565 -0.01658527 0.02615267
v 0.00983109 -0.02379250 0.02567225
v 0.00918429 -0.03512542 0.05081588
v 0.01913982 -0.01813476 0.02567014
v 0.03180289 -0.01666469 0.04503546
v 0.02280137 -0.02808227 0.05076731
v 0.00967469 -0.03341900 0.05081023
v 0.01114094 -0.02796878 0.02621288
v 0.02998593 -0.01754280 0.05082726
v 0.03131439 -0.01853562 0.04821873
v 0.03065104 -0.01663726 0.04185187
v 0.02811151 -0.02287410 0.05077865
v 0.00991298 -0.02636243 0.03432856
v 0.00919369 -0.02871852 0.02609237
v 0.01749176 -0.03134446 0.04521170
v 0.02399852 -0.01821552 0.03867051
v 0.02797098 -0.02270003 0.04520061
v 0.03039808 -0.01969764 0.05073663
v 0.00992313 -0.02528028 0.03109668
v 0.00987424 -0.02852827 0.03972366
v 0.01738257 -0.02462488 0.02627688
v 0.01971520 -0.03028119 0.05069943
v 0.01320774 -0.03348009 0.04511934
v 0.03018176 -0.01961789 0.04521217
v 0.02912188 -0.02172174 0.04717531
v 0.02281302 -0.02800085 0.04612552
v 0.03127483 -0.01851791 0.05018931
v 0.01423227 -0.02675194 0.02737424
v 0.02256478 -0.02046026 0.02738804
v 0.01432365 -0.03232488 0.04315053
v 0.00910989 -0.03490399 0.04510633
v 0.01118993 -0.03462042 0.04716514
v 0.02798547 -0.02165209 0.04314322
v 0.03011048 -0.01854643 0.04310704
v 0.03135776 -0.01753106 0.04518237
v 0.02062345 -0.02904011 0.04421493
v 0.01967919 -0.03023994 0.04613113
v 0.02382575 -0.02691644 0.04520217
v 0.02913446 -0.02172211 0.05015416
v 0.01636164 -0.03123979 0.04313189
v 0.02470214 -0.01730943 0.02627177
v 0.00909342 -0.03375659 0.04194316
v 0.01009174 -0.03460754 0.04505586
v 0.01107422 -0.03453141 0.05069655
v 0.02040289 -0.02256399 0.02741345
f 6 1 3
f 8 1 5
f 9 5 1
f 11 1 6
f 11 9 1
f 12 7 1
f 12 1 2
f 13 7 3
f 13 3 1
f 13 1 7
f 14 1 8
f 15 4 5
f 16 5 4
f 16 4 6
f 18 11 6
f 18 6 4
f 18 4 11
f 20 2 1
f 20 1 14
f 21 15 11
f 21 11 4
f 21 4 15
f 22 9 11
f 22 11 15
f 22 15 5
f 22 5 9
f 23 16 6
f 23 6 3
f 23 10 16
f 24 8 5
f 25 16 10
f 27 26 12
f 27 19 26
f 28 27 14
f 28 14 8
f 29 12 2
f 29 2 20
f 30 10 23
f 32 25 10
f 32 17 25
f 32 10 30
f 34 5 33
f 34 25 17
f 35 26 19
f 35 3 26
f 36 26 3
f 36 3 7
f 36 7 26
f 37 26 7
f 37 7 12
f 37 12 26
f 38 17 23
f 39 38 28
f 39 17 38
f 39 34 17
f 39 24 34
f 39 28 8
f 39 8 24
f 40 19 27
f 40 27 28
f 40 31 19
f 40 38 23
f 40 28 38
f 41 27 12
f 41 12 29
f 41 14 27
f 41 29 20
f 41 20 14
f 42 30 23
f 42 23 17
f 42 32 30
f 42 17 32
f 43 31 23
f 43 23 3
f 43 3 35
f 43 35 19
f 43 19 31
f 44 33 5
f 44 5 16
f 44 16 33
f 45 33 16
f 45 16 25
f 45 34 33
f 45 25 34
f 46 34 24
f 46 24 5
f 46 5 34
f 47 40 23
f 47 23 31
f 47 31 40

