# https://github.com/mikedh/trimesh
v 0.03539976 0.00710910 0.05089000
v 0.03577231 -0.00696325 0.05070910
v 0.03024080 0.00471548 0.02621452
v 0.02438631 0.01078699 0.02581595
v 0.02348481 -0.01785768 0.03671904
v 0.02817406 0.01492689 0.03374175
v 0.03575019 0.00270519 0.04403453
v 0.02998593 -0.01754280 0.05082726
v 0.02681990 -0.01404349 0.02630367
v 0.02779462 0.01253715 0.02606486
v 0.02918840 0.01089144 0.04088491
v 0.03576278 0.00589282 0.05071991
v 0.03199268 -0.01681714 0.05090737
v 0.03015945 -0.00466224 0.02629407
v 0.01978350 -0.01755737 0.02583927
v 0.02771919 0.01466060 0.03166171
v 0.03462173 0.01013659 0.04517811
v 0.02487893 0.01102502 0.02789523
v 0.03136540 0.01085111 0.04560576
v 0.03581294 0.00476919 0.04512952
v 0.03436608 0.00733880 0.05091982
v 0.03456280 -0.01106456 0.04616888
v 0.02518565 -0.01658527 0.02615267
v 0.02036781 -0.01683297 0.02566795
v 0.01998478 -0.01772405 0.02688443
v 0.02765864 0.01354744 0.02828363
v 0.02921476 0.00907204 0.02622013
v 0.03571507 0.00695262 0.05016267
v 0.03483507 0.01017095 0.04614297
v 0.03572805 -0.00266292 0.04415495
v 0.03461566 -0.01113158 0.05071485
v 0.02901583 -0.00899835 0.02625887
v 0.03234008 -0.01650082 0.04711001
v 0.02912906 -0.01769389 0.04886808
v 0.02801638 0.01212544 0.02622313
v 0.03574262 0.00694765 0.04713846
v 0.03568379 -0.00689277 0.04617030
v 0.03233076 -0.01429184 0.04305621
v 0.02784809 -0.01205610 0.02630797
v 0.03238277 -0.01649033 0.05020112
v 0.03131715 -0.01638695 0.04309210
v 0.03455064 -0.00797143 0.04308828
v 0.03347146 -0.01318342 0.04512402
v 0.03267886 -0.01551002 0.05082734
f 10 3 4
f 11 5 8
f 12 1 2
f 13 2 1
f 16 4 6
f 17 10 6
f 18 11 6
f 18 6 4
f 18 4 15
f 19 11 8
f 19 6 11
f 20 12 2
f 20 7 3
f 20 3 17
f 21 13 1
f 21 8 13
f 21 19 8
f 24 4 3
f 24 3 14
f 24 15 4
f 24 23 15
f 25 5 11
f 25 18 15
f 25 11 18
f 25 23 5
f 25 15 23
f 26 10 4
f 26 4 16
f 26 16 6
f 26 6 10
f 27 17 3
f 27 3 10
f 28 1 12
f 29 17 6
f 29 6 19
f 29 1 28
f 29 20 17
f 29 21 1
f 29 19 21
f 30 20 2
f 30 7 20
f 30 14 3
f 30 3 7
f 31 22 2
f 31 2 13
f 32 24 14
f 32 23 24
f 33 13 8
f 33 22 31
f 34 8 5
f 34 5 23
f 34 33 8
f 34 23 33
f 35 27 10
f 35 10 17
f 35 17 27
f 36 28 12
f 36 12 20
f 36 29 28
f 36 20 29
f 37 30 2
f 37 2 22
f 37 14 30
f 39 9 23
f 39 23 32
f 40 33 31
f 40 13 33
f 41 33 23
f 41 23 9
f 41 39 38
f 41 9 39
f 42 32 14
f 42 14 37
f 42 37 22
f 42 22 32
f 43 32 22
f 43 22 33
f 43 41 38
f 43 33 41
f 43 39 32
f 43 38 39
f 44 40 31
f 44 31 13
f 44 13 40

