# https://github.com/mikedh/trimesh
v 0.00897129 0.02486621 0.00767267
v 0.00949586 0.00169181 0.00389171
v 0.00910102 0.01870272 0.00067201
v -0.01435853 0.01646967 0.00082438
v -0.01520200 -0.00840306 0.00555416
v 0.00608261 -0.00828223 0.00002076
v -0.00372782 0.02468602 0.00482017
v 0.00983457 0.01558173 0.00607210
v 0.00940077 0.00167263 0.00002044
v -0.01493061 -0.00828100 0.00001585
v 0.00608544 -0.00828456 0.00381235
v 0.00470150 0.02367980 0.00376308
v -0.00480142 0.02073715 0.00077952
v -0.01455010 0.02205732 0.00748880
v -0.01421961 -0.00846042 0.00510162
v 0.00375908 0.02578176 0.00667268
v 0.00888187 0.02148540 0.00281919
v -0.00887166 0.02253092 0.00379586
v 0.00368909 0.02079464 0.00080824
v -0.01329020 0.02283269 0.00761609
v -0.01547986 0.01089034 0.00632740
v 0.00268437 0.02476747 0.00480036
v 0.00683799 0.02466592 0.00582015
v -0.01123785 0.01858671 0.00087807
v -0.00684492 0.02143835 0.00170569
v 0.00576012 0.02153861 0.00174006
v -0.00479516 0.02599198 0.00756513
v -0.01095657 0.02243037 0.00491626
v 0.00780856 0.02364561 0.00483750
v -0.00680304 0.02469926 0.00577017
v -0.01207968 0.01928143 0.00177438
v 0.00886203 0.02049584 0.00183468
v 0.00695112 0.01975049 0.00075539
v -0.00894730 0.02493894 0.00765504
v 0.00378559 0.02610842 0.00753449
v -0.00473950 0.02568195 0.00672464
v -0.01312553 0.02252232 0.00677400
v 0.00572697 0.02254907 0.00278300
v 0.00882009 0.02452871 0.00682002
v -0.00887234 0.02457959 0.00678186
v -0.01408424 0.02139422 0.00589827
f 8 3 1
f 9 2 6
f 9 8 2
f 9 3 8
f 10 9 6
f 11 6 2
f 11 2 8
f 11 8 1
f 11 1 5
f 13 3 9
f 13 10 4
f 13 9 10
f 15 10 6
f 15 5 10
f 15 11 5
f 15 6 11
f 17 1 3
f 19 3 13
f 20 14 5
f 20 5 1
f 21 10 5
f 21 5 14
f 21 14 4
f 21 4 10
f 22 7 16
f 22 12 19
f 22 19 13
f 22 13 7
f 23 16 1
f 23 22 16
f 23 12 22
f 24 13 4
f 25 7 13
f 25 13 24
f 26 19 12
f 29 12 23
f 30 25 18
f 30 7 25
f 31 25 24
f 31 18 25
f 31 28 18
f 31 24 4
f 32 26 17
f 32 17 3
f 33 3 19
f 33 19 26
f 33 32 3
f 33 26 32
f 34 20 1
f 34 1 27
f 35 27 1
f 35 1 16
f 36 16 7
f 36 7 30
f 36 34 27
f 36 35 16
f 36 27 35
f 37 14 20
f 38 26 12
f 38 12 29
f 38 29 17
f 38 17 26
f 39 29 23
f 39 23 1
f 39 1 17
f 39 17 29
f 40 30 18
f 40 18 28
f 40 28 37
f 40 37 20
f 40 20 34
f 40 36 30
f 40 34 36
f 41 31 4
f 41 4 14
f 41 14 37
f 41 37 28
f 41 28 31

