# https://github.com/mikedh/trimesh
v 0.00851727 -0.02127099 0.01362111
v 0.00817706 -0.02666047 0.01391984
v 0.00829033 -0.01380970 0.00002495
v -0.01493061 -0.00828100 0.00001585
v -0.01542058 -0.01767285 0.01353920
v -0.00471051 -0.02158516 0.00162603
v 0.00613145 -0.00834127 0.00381719
v 0.00811387 -0.01895555 0.00056166
v -0.01435884 -0.02392667 0.01405536
v 0.00852359 -0.01421492 0.00506897
v 0.00608261 -0.00828223 0.00002076
v -0.01520200 -0.00840306 0.00555416
v 0.00264445 -0.02574565 0.00666997
v -0.00697547 -0.01972321 0.00076745
v 0.00696566 -0.02697728 0.01408514
v -0.01443803 -0.01547889 0.00066144
v 0.00792537 -0.02474331 0.00677831
v 0.00574156 -0.02144924 0.00170440
v -0.00576751 -0.02568351 0.00761644
v 0.00266251 -0.02087124 0.00081814
v -0.00266174 -0.02083074 0.00079753
v -0.01406572 -0.02135823 0.00581246
v 0.00579319 -0.02567605 0.00772697
v 0.00368340 -0.02359446 0.00372424
v 0.00791553 -0.02065524 0.00160089
v -0.00374025 -0.02572911 0.00673526
v -0.00587872 -0.02711251 0.01406077
v 0.00698551 -0.01981120 0.00076117
v -0.01407634 -0.02237762 0.00774902
v -0.01307356 -0.01821302 0.00173734
v -0.00997223 -0.02345662 0.00581047
v 0.00267266 -0.02690712 0.01074707
v 0.00577771 -0.02471536 0.00583376
v 0.00798709 -0.02578800 0.00974480
v -0.00365987 -0.02363262 0.00373723
v -0.01009096 -0.02597129 0.01408506
v -0.00270678 -0.02688929 0.01075276
v -0.01423231 -0.01728581 0.00163575
v -0.01236660 -0.01750081 0.00090259
v -0.00893181 -0.02040049 0.00176980
v -0.01206851 -0.02346847 0.00777045
v -0.00787176 -0.02349670 0.00486506
v 0.00784609 -0.02353372 0.00491975
v 0.00691366 -0.02675623 0.01300337
v -0.00888272 -0.02566111 0.01084843
v -0.00473211 -0.02688541 0.01188101
v -0.01307424 -0.02032816 0.00391199
v -0.01010345 -0.01857912 0.00084137
v -0.01205906 -0.02465845 0.01191356
v -0.00465934 -0.02256348 0.00271022
v -0.00893945 -0.02138542 0.00282172
v -0.00580738 -0.02689657 0.01299511
v -0.01102838 -0.02457932 0.00976123
v -0.01102430 -0.02149782 0.00392880
v -0.01418534 -0.02351290 0.01194513
v -0.01001727 -0.02575367 0.01302502
f 7 5 1
f 8 1 2
f 9 1 5
f 10 7 1
f 10 8 3
f 10 1 8
f 11 3 4
f 11 4 7
f 11 10 3
f 11 7 10
f 12 7 4
f 12 4 5
f 12 5 7
f 14 4 3
f 15 2 1
f 15 1 9
f 16 5 4
f 16 4 14
f 17 8 2
f 21 14 3
f 21 3 8
f 21 8 20
f 21 6 14
f 22 5 16
f 24 20 18
f 25 8 17
f 28 20 8
f 28 18 20
f 28 25 18
f 28 8 25
f 29 9 5
f 29 5 22
f 32 13 23
f 32 15 27
f 33 23 13
f 33 17 23
f 33 13 24
f 34 23 17
f 34 17 2
f 35 21 20
f 35 20 24
f 35 6 21
f 35 24 13
f 35 13 26
f 36 27 15
f 36 15 9
f 37 19 26
f 37 32 27
f 37 26 13
f 37 13 32
f 38 22 16
f 39 38 16
f 39 30 38
f 40 14 6
f 40 30 39
f 41 29 22
f 41 22 31
f 41 31 19
f 42 26 19
f 42 19 31
f 42 35 26
f 43 33 24
f 43 24 18
f 43 18 25
f 43 25 17
f 43 17 33
f 44 34 2
f 44 2 15
f 44 15 32
f 44 32 23
f 44 23 34
f 45 27 36
f 46 37 27
f 46 19 37
f 47 38 30
f 47 22 38
f 48 39 16
f 48 16 14
f 48 40 39
f 48 14 40
f 49 36 9
f 49 29 41
f 50 6 35
f 50 35 42
f 51 40 6
f 51 50 42
f 51 6 50
f 52 45 19
f 52 27 45
f 52 46 27
f 52 19 46
f 53 41 19
f 53 19 45
f 53 49 41
f 53 36 49
f 54 47 30
f 54 30 40
f 54 40 51
f 54 31 22
f 54 22 47
f 54 51 42
f 54 42 31
f 55 49 9
f 55 9 29
f 55 29 49
f 56 53 45
f 56 45 36
f 56 36 53

