# https://github.com/mikedh/trimesh
v -0.01481078 0.02359748 0.01386937
v -0.01570895 -0.01223013 0.00733343
v -0.01490034 -0.01157053 0.00008254
v -0.01456221 0.01569486 0.00054125
v -0.02819394 0.00264085 0.01412017
v -0.01439600 0.02284303 0.00963821
v -0.02012071 -0.01202556 0.01348948
v -0.02155810 0.00692600 0.00166947
v -0.01430048 0.01751324 0.00146602
v -0.02375733 0.01532151 0.01407926
v -0.02606238 -0.01107445 0.01406459
v -0.02068548 0.00592239 0.00077601
v -0.01937514 0.01194941 0.00175962
v -0.01832802 0.02035780 0.01082360
v -0.02358170 0.01200844 0.00678995
v -0.01640395 0.02262075 0.01407008
v -0.02349295 -0.01093516 0.00581085
v -0.01605651 0.01620036 0.00177382
v -0.01970360 0.00904105 0.00080494
v -0.01721822 0.02031132 0.00783344
v -0.02567016 0.00574943 0.00676058
v -0.02718353 0.00793844 0.01404986
v -0.02049993 0.00997365 0.00173234
v -0.02698539 -0.00902048 0.01410440
v -0.01520223 0.02240813 0.00973317
v -0.01764014 -0.01130322 0.00065674
v -0.02463054 -0.00581419 0.00482097
v -0.01528901 0.01541217 0.00074791
v -0.02031707 0.01511014 0.00491139
v -0.01434549 0.02173297 0.00663544
v -0.02139950 0.01608818 0.00781937
v -0.02354460 0.00898888 0.00490673
v -0.02603558 0.01113488 0.01405194
v -0.02684621 0.00476040 0.00974970
v -0.02676528 0.00780253 0.01192778
v -0.01857124 0.01114469 0.00082623
v -0.02567010 -0.00894727 0.00871811
v -0.01627676 0.02247746 0.01300452
v -0.02082979 -0.00476838 0.00074491
v -0.02471872 0.00476953 0.00486686
v -0.01514163 0.01718561 0.00178565
v -0.01627845 0.01427578 0.00078247
v -0.01825006 0.01514175 0.00289589
v -0.02242708 0.01313903 0.00593833
v -0.01511307 0.02139606 0.00692885
v -0.02140523 0.01723679 0.01078932
v -0.01929974 0.01706329 0.00586020
v -0.02345369 0.01415870 0.00976577
v -0.02461811 0.00781564 0.00584046
v -0.02247602 0.00689830 0.00272395
v -0.02688918 -0.00366504 0.00868196
v -0.02465978 0.01199074 0.00972479
v -0.02583762 0.01107501 0.01300158
v -0.02565019 -0.01092220 0.01195529
v -0.02469381 -0.00788809 0.00576079
v -0.02051384 -0.00993588 0.00190952
v -0.01432826 0.01849331 0.00241124
v -0.01515192 0.01820286 0.00276186
v -0.02239140 0.01413306 0.00680771
v -0.02135308 0.00990921 0.00272717
v -0.02036330 0.01200358 0.00277219
v -0.02358891 0.01520741 0.01301559
v -0.02688414 0.00154618 0.00867193
v -0.02684988 -0.00578517 0.00975583
f 1 2 3
f 6 1 3
f 7 2 1
f 9 6 3
f 9 3 4
f 12 4 3
f 16 11 7
f 16 7 1
f 16 10 5
f 16 14 10
f 17 2 7
f 17 7 11
f 19 12 8
f 19 4 12
f 23 19 8
f 24 16 5
f 24 11 16
f 25 1 6
f 25 20 14
f 26 3 2
f 26 2 17
f 28 9 4
f 30 6 9
f 31 14 20
f 33 22 5
f 33 5 10
f 35 21 34
f 35 34 5
f 35 5 22
f 36 23 13
f 36 19 23
f 36 4 19
f 38 16 1
f 38 1 25
f 38 25 14
f 38 14 16
f 39 12 3
f 39 3 26
f 39 8 12
f 40 39 27
f 40 8 39
f 41 28 18
f 41 9 28
f 42 13 18
f 42 18 28
f 42 36 13
f 42 28 4
f 42 4 36
f 43 18 13
f 43 13 29
f 43 41 18
f 44 32 15
f 45 20 25
f 45 25 6
f 45 6 30
f 46 10 14
f 46 14 31
f 47 31 20
f 48 46 31
f 49 21 15
f 49 15 32
f 49 40 21
f 50 32 23
f 50 23 8
f 50 8 40
f 50 49 32
f 50 40 49
f 51 40 27
f 52 15 21
f 52 21 35
f 52 48 15
f 52 33 10
f 53 35 22
f 53 22 33
f 53 52 35
f 53 33 52
f 54 37 17
f 54 17 11
f 54 11 24
f 54 24 37
f 55 17 37
f 55 51 27
f 56 39 26
f 56 26 17
f 56 27 39
f 56 55 27
f 56 17 55
f 57 30 9
f 57 9 41
f 58 43 29
f 58 41 43
f 58 29 47
f 58 57 41
f 58 45 30
f 58 30 57
f 58 47 20
f 58 20 45
f 59 29 44
f 59 47 29
f 59 31 47
f 59 44 15
f 59 48 31
f 59 15 48
f 60 44 23
f 60 23 32
f 60 32 44
f 61 44 29
f 61 29 13
f 61 13 23
f 61 23 44
f 62 10 46
f 62 46 48
f 62 52 10
f 62 48 52
f 63 51 5
f 63 5 34
f 63 34 21
f 63 21 40
f 63 40 51
f 64 37 24
f 64 24 5
f 64 5 51
f 64 55 37
f 64 51 55

