# https://github.com/mikedh/trimesh
v 0.02170401 0.02923062 0.05082965
v 0.03539976 0.00710910 0.05089000
v 0.02690737 0.01424816 0.02623896
v 0.01010082 0.02835536 0.02622011
v 0.01070241 0.03332506 0.05088347
v 0.02438631 0.01078699 0.02581595
v 0.01841775 0.02369907 0.02623178
v 0.03131751 0.01861231 0.04718018
v 0.03436608 0.00733880 0.05091982
v 0.01328690 0.03348617 0.04526436
v 0.02858280 0.01067951 0.02591679
v 0.01087773 0.02352969 0.02578965
v 0.03129828 0.01857855 0.05071673
v 0.02384727 0.02698631 0.04521380
v 0.03234591 0.01653140 0.05081113
v 0.03244653 0.00744697 0.04560867
v 0.01120509 0.03454906 0.05077409
v 0.01734745 0.03123049 0.04419211
v 0.03452660 0.01116617 0.04616533
v 0.03232126 0.01539712 0.04418271
v 0.02481593 0.01729286 0.02624015
v 0.01018903 0.03483270 0.05079653
v 0.01112690 0.02639314 0.03536641
v 0.02919197 0.02183512 0.05077811
v 0.03553091 0.00711495 0.04596287
v 0.01432985 0.03348751 0.05020931
v 0.01520155 0.02586532 0.02628303
v 0.01544461 0.03226195 0.04423620
v 0.02060550 0.02905768 0.04419856
v 0.03454658 0.01115852 0.05069757
v 0.03347967 0.01434211 0.04718398
v 0.03123474 0.01750679 0.04417497
v 0.02166081 0.02149586 0.02844316
v 0.01117176 0.03466546 0.04718981
v 0.03382942 0.00744701 0.04990709
v 0.01109680 0.02523310 0.03215354
v 0.02911137 0.02173850 0.04624450
v 0.01645445 0.03238987 0.05071840
v 0.01638908 0.03238853 0.04618952
v 0.01104854 0.02797848 0.02630941
v 0.03347232 0.01435111 0.05019681
v 0.03235678 0.01644556 0.04613181
v 0.01025280 0.03378129 0.04298473
v 0.01102794 0.02398087 0.02788688
v 0.02803714 0.02273094 0.04521053
v 0.02912560 0.01951136 0.04210804
v 0.01436389 0.03345790 0.04717569
v 0.01956230 0.03013056 0.04523486
v 0.01114475 0.03354758 0.04305608
v 0.01023443 0.03491837 0.04713475
v 0.02174993 0.02910685 0.04722566
f 9 1 5
f 12 11 6
f 12 4 7
f 12 7 11
f 15 9 2
f 15 1 9
f 16 2 9
f 16 12 6
f 20 11 3
f 20 19 11
f 21 11 7
f 21 3 11
f 22 12 5
f 22 4 12
f 22 5 1
f 22 1 17
f 24 13 8
f 24 15 13
f 24 1 15
f 25 2 16
f 25 11 19
f 25 16 6
f 25 6 11
f 27 18 7
f 27 7 4
f 28 4 10
f 28 18 27
f 29 14 7
f 29 7 18
f 30 15 2
f 30 25 19
f 30 2 25
f 31 30 19
f 31 19 20
f 32 20 3
f 33 21 7
f 33 7 14
f 33 14 21
f 34 22 17
f 34 17 26
f 35 9 5
f 35 5 23
f 35 16 9
f 36 23 5
f 36 5 12
f 36 35 23
f 36 16 35
f 37 24 8
f 37 14 24
f 37 8 32
f 38 26 17
f 38 17 1
f 39 18 28
f 39 38 1
f 39 28 10
f 40 28 27
f 40 27 4
f 40 4 28
f 41 31 8
f 41 15 30
f 41 30 31
f 41 8 13
f 41 13 15
f 42 31 20
f 42 8 31
f 42 32 8
f 42 20 32
f 44 36 12
f 44 12 16
f 44 16 36
f 45 37 21
f 45 21 14
f 45 14 37
f 46 37 32
f 46 32 3
f 46 3 21
f 46 21 37
f 47 26 38
f 47 38 39
f 47 34 26
f 47 39 10
f 47 10 34
f 48 29 18
f 48 18 39
f 48 14 29
f 49 34 10
f 49 10 4
f 49 4 43
f 50 43 4
f 50 4 22
f 50 22 34
f 50 49 43
f 50 34 49
f 51 48 39
f 51 39 1
f 51 14 48
f 51 24 14
f 51 1 24

