# https://github.com/mikedh/trimesh
v 0.02945476 0.00813052 0.02617206
v 0.02936332 -0.00791886 0.02622962
v 0.02797042 -0.00155384 0.01408442
v 0.02186271 0.00841318 0.01369457
v 0.01453786 -0.02633938 0.02613340
v 0.02698711 0.00788143 0.01409056
v 0.03039651 -0.00266995 0.02622912
v 0.02534076 0.00846845 0.02586842
v 0.02264114 -0.01624450 0.01406313
v 0.03019294 0.00374655 0.02515384
v 0.02799310 0.00163599 0.01409481
v 0.02246357 0.00864798 0.01576009
v 0.02793445 -0.00472732 0.01521199
v 0.01532341 -0.02591851 0.02621423
v 0.01440109 -0.02394790 0.01404616
v 0.01574299 -0.01699117 0.01340643
v 0.02909902 0.00794716 0.02403487
v 0.03040248 0.00373094 0.02619194
v 0.02794215 0.00471737 0.01521685
v 0.02485616 0.00876232 0.02456679
v 0.01544553 -0.02116706 0.02577093
v 0.02904706 -0.00674642 0.02295341
v 0.03017950 -0.00271369 0.02514003
v 0.02692991 -0.00782469 0.01407138
v 0.02380985 -0.01851270 0.02625963
v 0.01523146 -0.02576839 0.02513700
v 0.02795893 0.00783727 0.01856191
v 0.01445285 -0.02617848 0.02505820
v 0.02900503 -0.00470891 0.02073485
v 0.02687997 -0.01301316 0.02410433
v 0.01832135 -0.02140162 0.01526914
v 0.02825984 -0.01110742 0.02621669
v 0.02569879 -0.01089642 0.01412263
v 0.02581952 -0.01524370 0.02515303
v 0.01524452 -0.02349025 0.01415576
v 0.02141226 -0.01824210 0.01522896
v 0.01860677 -0.02381559 0.02621253
v 0.02458789 -0.01306769 0.01415018
v 0.02678188 -0.00884935 0.01521386
v 0.02468304 -0.01624349 0.02303187
v 0.02598334 -0.01534370 0.02622465
v 0.01928678 -0.02255025 0.02301118
v 0.01616059 -0.02358096 0.01736189
v 0.02352570 -0.01523660 0.01518528
v 0.02038190 -0.02033791 0.01856206
v 0.02152165 -0.02035615 0.02300006
v 0.01848790 -0.02367409 0.02515256
f 11 3 4
f 11 4 6
f 12 6 4
f 14 8 5
f 14 1 8
f 16 4 3
f 16 9 15
f 17 6 1
f 18 1 7
f 18 11 10
f 18 7 11
f 18 17 1
f 18 10 17
f 19 11 6
f 19 10 11
f 19 17 10
f 20 1 6
f 20 6 12
f 20 8 1
f 21 12 4
f 21 20 12
f 21 5 8
f 21 8 20
f 21 4 16
f 21 16 15
f 22 7 2
f 23 13 3
f 23 11 7
f 23 3 11
f 24 3 13
f 24 16 3
f 24 9 16
f 24 13 22
f 24 22 2
f 25 2 7
f 25 7 1
f 25 1 14
f 26 14 5
f 27 19 6
f 27 6 17
f 27 17 19
f 28 21 15
f 28 5 21
f 28 26 5
f 28 15 26
f 29 22 13
f 29 7 22
f 29 23 7
f 29 13 23
f 32 24 2
f 32 2 25
f 33 9 24
f 33 32 30
f 35 15 9
f 35 9 31
f 35 26 15
f 36 31 9
f 36 9 25
f 37 25 14
f 37 14 26
f 38 33 30
f 38 9 33
f 38 30 34
f 39 33 24
f 39 24 32
f 39 32 33
f 40 25 9
f 40 9 34
f 41 32 25
f 41 40 34
f 41 25 40
f 41 34 30
f 41 30 32
f 43 37 26
f 43 26 35
f 43 35 31
f 43 31 42
f 44 38 34
f 44 34 9
f 44 9 38
f 45 42 31
f 45 31 36
f 46 25 37
f 46 37 42
f 46 42 45
f 46 45 36
f 46 36 25
f 47 43 42
f 47 42 37
f 47 37 43

