# https://github.com/mikedh/trimesh
v 0.02698711 0.00788143 0.01409056
v 0.02692991 -0.00782469 0.01407138
v 0.02159812 0.00373234 0.00171166
v 0.00934964 0.01703353 0.00018856
v 0.00817706 -0.02666047 0.01391984
v 0.01634251 0.01634321 0.00262362
v 0.02578148 -0.00467854 0.00668235
v 0.01630948 -0.02273475 0.01411086
v 0.01097771 0.01795849 0.00877981
v 0.00811387 -0.01895555 0.00056166
v 0.02364459 0.00790377 0.00480028
v 0.01651228 0.01333765 0.00091180
v 0.02682217 -0.00467270 0.00976467
v 0.01011061 -0.02599470 0.01405798
v 0.02136434 -0.01511318 0.00688388
v 0.02156961 0.00873607 0.01329627
v 0.00609696 0.00167430 0.00364081
v 0.01557442 0.01563910 0.01052740
v 0.02577833 0.00776266 0.00869762
v 0.02475696 0.00266449 0.00489155
v 0.01323689 0.01647046 0.00079932
v 0.01981672 -0.00694368 0.00081738
v 0.02051181 0.00799530 0.00164396
v 0.02460923 -0.00990583 0.00778277
v 0.01411078 -0.02135337 0.00598887
v 0.02264114 -0.01624450 0.01406313
v 0.00851727 -0.02127099 0.01362111
v 0.00974927 0.01773021 0.00772496
v 0.00608271 -0.01381062 0.00002192
v 0.02681028 0.00470173 0.00974721
v 0.02365534 0.00361599 0.00381477
v 0.02575361 0.00472687 0.00682112
v 0.01520811 0.01627136 0.00169994
v 0.01971608 0.00697332 0.00082659
v 0.01724329 -0.01414821 0.00171839
v 0.02160357 -0.00577871 0.00179790
v 0.01626603 0.01522087 0.00173021
v 0.02572901 -0.00687699 0.00771595
v 0.01299796 -0.02344656 0.00879294
v 0.01823170 -0.01924900 0.00785797
v 0.02568308 -0.00993879 0.01192677
v 0.02243428 -0.01512235 0.00976809
v 0.00802341 -0.02511407 0.00758411
v 0.00615642 -0.01396504 0.00451697
v 0.00608275 0.00167266 0.00001912
v 0.01647576 -0.01330042 0.00086035
v 0.02679760 0.00779138 0.01299911
v 0.02469421 0.00691265 0.00587428
v 0.02569686 0.00688174 0.00772890
v 0.01416770 -0.01730407 0.00176548
v 0.02473180 -0.00374669 0.00487637
v 0.02046440 -0.00888658 0.00175262
v 0.02674721 -0.00775698 0.01299667
v 0.01204480 -0.02450640 0.01086062
v 0.01503732 -0.02132319 0.00687591
v 0.02035262 -0.01825149 0.01081757
v 0.02562447 -0.00882064 0.00973169
v 0.02241843 -0.01406620 0.00774075
v 0.02349794 -0.01419046 0.01189606
v 0.00789291 -0.02158250 0.00260469
v 0.00799736 -0.02601443 0.01073061
v 0.00995066 -0.02346507 0.00587313
v 0.01329742 -0.01648582 0.00085766
v 0.01944083 -0.01103662 0.00182558
f 8 2 1
f 9 6 4
f 13 1 2
f 14 8 1
f 14 1 5
f 18 1 6
f 18 6 9
f 18 16 1
f 19 11 6
f 19 6 1
f 21 12 4
f 21 4 6
f 23 11 3
f 26 2 8
f 27 5 1
f 27 1 16
f 27 16 18
f 27 18 9
f 27 17 5
f 28 9 4
f 28 4 17
f 28 27 9
f 28 17 27
f 29 4 22
f 30 13 7
f 30 1 13
f 31 20 3
f 31 3 11
f 31 11 20
f 32 30 7
f 32 7 20
f 33 21 6
f 33 12 21
f 34 22 4
f 34 4 12
f 34 3 22
f 34 23 3
f 34 12 23
f 36 22 3
f 37 23 12
f 37 6 11
f 37 11 23
f 37 33 6
f 37 12 33
f 38 7 13
f 40 35 15
f 41 2 26
f 44 5 17
f 44 17 29
f 45 29 17
f 45 17 4
f 45 4 29
f 46 29 22
f 46 10 29
f 47 30 19
f 47 19 1
f 47 1 30
f 48 32 20
f 48 20 11
f 49 19 30
f 49 30 32
f 49 32 48
f 49 48 11
f 49 11 19
f 50 35 40
f 51 20 7
f 51 36 3
f 51 3 20
f 52 22 36
f 52 24 15
f 52 38 24
f 52 7 38
f 52 51 7
f 52 36 51
f 53 38 13
f 53 13 2
f 53 2 41
f 54 39 8
f 54 8 14
f 54 43 39
f 55 39 25
f 55 50 40
f 55 25 50
f 55 40 8
f 55 8 39
f 56 26 8
f 56 8 40
f 56 42 26
f 56 40 15
f 56 15 42
f 57 41 24
f 57 24 38
f 57 53 41
f 57 38 53
f 58 42 15
f 58 15 24
f 58 24 42
f 59 41 26
f 59 26 42
f 59 42 24
f 59 24 41
f 60 43 29
f 60 29 10
f 60 50 25
f 60 10 50
f 61 29 43
f 61 44 29
f 61 5 44
f 61 43 54
f 61 54 14
f 61 14 5
f 62 25 39
f 62 39 43
f 62 60 25
f 62 43 60
f 63 46 35
f 63 35 50
f 63 50 10
f 63 10 46
f 64 35 46
f 64 46 22
f 64 22 52
f 64 52 15
f 64 15 35

