# https://github.com/mikedh/trimesh
v 0.01018903 0.03483270 0.05079653
v 0.01070241 0.03332506 0.05088347
v 0.01010082 0.02835536 0.02622011
v -0.00692576 0.02937046 0.02619225
v -0.01175907 0.03310831 0.05092586
v 0.00374052 0.03574025 0.04516511
v 0.01015075 0.03453949 0.04515769
v 0.00588069 0.03582125 0.05078518
v 0.01087773 0.02352969 0.02578965
v 0.00260602 0.03022328 0.02730042
v -0.01112320 0.03455222 0.04622418
v 0.01079965 0.03248334 0.04886781
v 0.00584270 0.03570431 0.04618185
v -0.01185699 0.02554438 0.03350536
v 0.00983595 0.02393287 0.02571142
v 0.00793105 0.02911301 0.02625049
v -0.00374692 0.03575107 0.04512743
v -0.00585175 0.03581622 0.05072348
v 0.01093896 0.02375979 0.02683486
v -0.01134419 0.02957193 0.03397910
v 0.01090935 0.02700280 0.03665324
v -0.00721188 0.02497883 0.02597042
v 0.00906112 0.03449761 0.04418832
v -0.00368744 0.03022709 0.02728358
v -0.00911472 0.03451523 0.04416478
v -0.01122186 0.03457727 0.05072099
v -0.00583827 0.03575455 0.04621922
v -0.01115938 0.03354251 0.04306538
v -0.01214075 0.02820927 0.03986071
v -0.01198092 0.03261902 0.04995418
v 0.01100097 0.02492597 0.03113698
v -0.01199748 0.02584876 0.03446842
f 7 1 2
f 8 5 2
f 8 2 1
f 12 7 2
f 12 3 7
f 13 6 8
f 13 8 1
f 13 1 7
f 15 3 9
f 16 4 10
f 16 15 4
f 16 3 15
f 16 7 3
f 16 10 6
f 16 6 13
f 17 6 10
f 17 8 6
f 18 5 8
f 18 8 17
f 19 9 3
f 19 3 12
f 19 14 9
f 20 4 14
f 21 12 2
f 22 14 4
f 22 4 15
f 22 15 9
f 22 9 14
f 23 16 13
f 23 13 7
f 23 7 16
f 24 17 10
f 24 10 4
f 24 4 17
f 26 18 11
f 26 5 18
f 27 18 17
f 27 11 18
f 27 25 11
f 27 17 4
f 27 4 25
f 28 4 20
f 28 25 4
f 28 11 25
f 30 21 2
f 30 2 5
f 30 28 20
f 30 20 29
f 30 11 28
f 30 26 11
f 30 5 26
f 31 19 12
f 31 12 21
f 31 14 19
f 32 29 20
f 32 20 14
f 32 30 29
f 32 21 30
f 32 31 21
f 32 14 31

