# https://github.com/mikedh/trimesh
v 0.00967469 -0.03341900 0.05081023
v 0.00918429 -0.03512542 0.05081588
v 0.00919369 -0.02871852 0.02609237
v -0.01500652 -0.02170198 0.02594278
v -0.01539638 -0.03138881 0.05068038
v 0.00949292 -0.02399296 0.02592843
v 0.00905279 -0.03462138 0.04411299
v -0.00695706 -0.03568730 0.05091123
v -0.01551350 -0.02587512 0.03883169
v 0.00978234 -0.02472764 0.02903547
v -0.01317419 -0.02252096 0.02569350
v 0.00483551 -0.03571346 0.04508471
v -0.01463035 -0.02653495 0.02612331
v 0.00980592 -0.02810475 0.03876526
v -0.01536475 -0.02240724 0.02908902
v 0.00696329 -0.03577686 0.04712377
v 0.00786820 -0.02921361 0.02619974
v -0.01429170 -0.03343717 0.04714916
v -0.00796099 -0.02909484 0.02626512
v 0.00980771 -0.02605589 0.03332751
v 0.00590681 -0.03586852 0.05072410
v 0.00801264 -0.03452153 0.04311641
v -0.01436066 -0.03356248 0.05072201
v -0.01432472 -0.03235004 0.04314586
v 0.00372021 -0.03025536 0.02730847
v -0.00481553 -0.03569135 0.04506520
v 0.00699691 -0.03579450 0.05019334
v -0.01125742 -0.03470494 0.05073152
v -0.01114073 -0.02803612 0.02622803
v -0.01120077 -0.03451409 0.04615506
v -0.00695166 -0.03575918 0.04712245
v -0.00368911 -0.03017855 0.02739128
v -0.01328212 -0.03350656 0.04512803
v -0.00799187 -0.03450417 0.04312774
v -0.01336435 -0.02710854 0.02618511
f 7 1 2
f 7 3 1
f 8 2 1
f 8 1 5
f 9 5 1
f 10 3 6
f 10 6 4
f 11 6 3
f 11 4 6
f 13 5 9
f 13 4 11
f 14 1 3
f 14 3 10
f 14 9 1
f 15 10 4
f 15 13 9
f 15 4 13
f 16 12 7
f 16 7 2
f 17 3 7
f 19 13 11
f 19 11 3
f 19 3 17
f 20 14 10
f 20 10 15
f 20 15 9
f 20 9 14
f 21 2 8
f 22 17 7
f 22 7 12
f 22 12 17
f 23 8 5
f 23 5 18
f 24 18 5
f 24 5 13
f 25 19 17
f 25 17 12
f 26 25 12
f 27 21 16
f 27 16 2
f 27 2 21
f 28 23 18
f 28 8 23
f 29 13 19
f 30 28 18
f 31 21 8
f 31 8 28
f 31 28 30
f 31 16 21
f 31 26 12
f 31 12 16
f 32 26 19
f 32 19 25
f 32 25 26
f 33 24 13
f 33 29 19
f 33 19 30
f 33 30 18
f 33 18 24
f 34 30 19
f 34 19 26
f 34 31 30
f 34 26 31
f 35 33 13
f 35 13 29
f 35 29 33

