# https://github.com/mikedh/trimesh
v 0.01544553 -0.02116706 0.02577093
v 0.01453786 -0.02633938 0.02613340
v 0.01440109 -0.02394790 0.01404616
v -0.01542058 -0.01767285 0.01353920
v -0.01547522 -0.02135976 0.02569644
v 0.01524231 -0.01751376 0.01365209
v 0.01561328 -0.01797840 0.01573605
v -0.01336435 -0.02710854 0.02618511
v 0.00790374 -0.02678596 0.01413971
v -0.01435884 -0.02392667 0.01405536
v 0.01207173 -0.02568462 0.01632310
v 0.00786820 -0.02921361 0.02619974
v -0.01463035 -0.02653495 0.02612331
v -0.00366708 -0.02797204 0.01630580
v -0.00694587 -0.02691773 0.01409874
v 0.01105152 -0.02566259 0.01413004
v 0.01412013 -0.02576464 0.02183621
v 0.01321321 -0.02703416 0.02618540
v -0.01309057 -0.02572676 0.01853262
v -0.01560431 -0.01799153 0.01457937
v -0.00694468 -0.02932177 0.02624595
v 0.00378984 -0.02799865 0.01632688
v 0.01311330 -0.02470622 0.01410508
v 0.00999124 -0.02786249 0.02294426
v 0.01313884 -0.02689169 0.02509971
v -0.01414236 -0.02462328 0.01637024
v -0.01318433 -0.02678978 0.02405432
v -0.01107594 -0.02562515 0.01416059
v -0.01114073 -0.02803612 0.02622803
v 0.00476926 -0.02903265 0.02184650
v 0.01415102 -0.02459690 0.01632841
v 0.00781047 -0.02904434 0.02512618
v 0.01000691 -0.02675306 0.01744434
v 0.01204433 -0.02680658 0.02184594
v -0.01423381 -0.02581218 0.02184532
v -0.01307712 -0.02467194 0.01417954
v -0.00896219 -0.02684678 0.01628771
v 0.00582295 -0.02788517 0.01742620
v -0.00362269 -0.02904074 0.02182266
f 7 1 2
f 7 2 3
f 7 3 6
f 7 6 4
f 7 5 1
f 7 4 5
f 8 1 5
f 9 6 3
f 9 4 6
f 13 8 5
f 15 10 4
f 15 4 9
f 16 9 3
f 17 3 2
f 18 2 1
f 18 1 8
f 20 13 5
f 20 5 4
f 20 4 10
f 20 10 13
f 21 15 14
f 21 12 18
f 22 15 9
f 22 14 15
f 23 16 3
f 23 11 16
f 23 17 11
f 24 18 12
f 25 17 2
f 25 2 18
f 25 18 24
f 26 13 10
f 27 8 13
f 27 13 19
f 28 10 15
f 29 21 18
f 29 18 8
f 29 8 27
f 29 27 19
f 29 19 28
f 30 12 21
f 31 23 3
f 31 3 17
f 31 17 23
f 32 24 12
f 32 30 9
f 32 12 30
f 33 9 16
f 33 32 9
f 33 24 32
f 34 16 11
f 34 25 24
f 34 11 17
f 34 17 25
f 34 33 16
f 34 24 33
f 35 26 19
f 35 19 13
f 35 13 26
f 36 26 10
f 36 19 26
f 36 28 19
f 36 10 28
f 37 29 28
f 37 28 15
f 37 15 21
f 37 21 29
f 38 30 22
f 38 22 9
f 38 9 30
f 39 30 21
f 39 21 14
f 39 14 22
f 39 22 30

