# https://github.com/mikedh/trimesh
v -0.03350865 0.01077700 0.05071200
v -0.02049012 -0.01161575 0.01381221
v -0.02165930 0.00945331 0.01378152
v -0.02684645 0.00893729 0.01412194
v -0.03577099 -0.00691405 0.04610768
v -0.02130591 -0.00979814 0.01347684
v -0.02482474 0.01100255 0.02792948
v -0.03384142 -0.00741688 0.04988214
v -0.03572599 0.00592042 0.04503207
v -0.02698539 -0.00902048 0.01410440
v -0.02251130 0.00981345 0.01685541
v -0.02899208 0.00996151 0.02629923
v -0.02845545 -0.01123118 0.02613033
v -0.03582644 0.00699587 0.05073111
v -0.02350675 -0.01205845 0.02466631
v -0.02804583 -0.00473100 0.01412477
v -0.02606238 -0.01107445 0.01406459
v -0.02441378 0.01078453 0.02583861
v -0.03271403 0.01086036 0.04881001
v -0.03450388 0.01011809 0.04418055
v -0.03573650 -0.00702173 0.05072875
v -0.03575941 -0.00588827 0.04500126
v -0.02399646 -0.01170431 0.02593732
v -0.02128050 -0.01206232 0.01688535
v -0.03437743 -0.00727868 0.05091828
v -0.02795012 0.00477455 0.01415031
v -0.02254600 -0.01212921 0.02128934
v -0.02687412 -0.01095990 0.01742535
v -0.02689556 -0.00993650 0.01520196
v -0.02819324 0.01092918 0.03776101
v -0.03511362 0.01027960 0.05087248
v -0.03569632 0.00376330 0.04415663
v -0.02787067 -0.00683876 0.01523772
v -0.03571405 0.00805089 0.04717071
v -0.03571653 -0.00374181 0.04414156
v -0.03578837 0.00807615 0.05018049
f 6 3 2
f 6 4 3
f 7 2 3
f 11 3 4
f 12 7 4
f 16 6 10
f 17 10 6
f 17 6 2
f 18 11 4
f 18 4 7
f 18 7 3
f 18 3 11
f 20 1 19
f 20 19 7
f 20 7 12
f 20 12 4
f 21 5 13
f 21 14 5
f 22 14 9
f 22 5 14
f 23 1 8
f 23 8 15
f 23 19 1
f 24 2 7
f 24 7 15
f 24 17 2
f 25 15 8
f 25 13 15
f 25 21 13
f 25 8 1
f 26 4 6
f 26 6 16
f 26 20 4
f 26 9 20
f 27 15 13
f 27 13 17
f 27 24 15
f 27 17 24
f 28 17 13
f 28 13 5
f 28 5 17
f 29 17 5
f 29 5 10
f 29 10 17
f 30 15 7
f 30 7 19
f 30 23 15
f 30 19 23
f 31 1 20
f 31 25 1
f 31 14 21
f 31 21 25
f 32 22 9
f 32 26 16
f 32 9 26
f 33 22 16
f 33 16 10
f 33 10 5
f 33 5 22
f 34 31 20
f 34 20 9
f 35 32 16
f 35 16 22
f 35 22 32
f 36 34 9
f 36 9 14
f 36 14 31
f 36 31 34

