# https://github.com/mikedh/trimesh
v 0.00142751 -0.02762650 0.06400983
v 0.00072380 -0.03579945 0.06245495
v 0.00120304 -0.03076518 0.05277308
v -0.04477257 -0.01396717 0.05253500
v -0.03617356 -0.01601350 0.06367994
v -0.01760431 -0.03753638 0.05229601
v -0.03034840 -0.00706411 0.05798615
v 0.00086210 -0.03877885 0.05248112
v -0.01781064 -0.03264089 0.06369584
v 0.00147870 -0.02183778 0.05987866
v -0.03521907 -0.00712376 0.05331154
v -0.03227884 -0.00704462 0.06424904
v 0.00068880 -0.03752118 0.05965228
v -0.03736766 -0.02282230 0.05223941
v 0.00085401 -0.03315088 0.06397862
v -0.02978313 -0.00698229 0.06197313
v 0.00145421 -0.02175320 0.06112271
v -0.02316898 -0.03061496 0.06359262
v -0.04587852 -0.00674977 0.06106061
v -0.01384352 -0.03718298 0.05949722
v -0.02294132 -0.03549793 0.05222774
v -0.03313218 -0.02614297 0.05946745
v -0.04620904 -0.01364850 0.05303578
v -0.03824600 -0.00681301 0.06388892
v -0.01018420 -0.03716025 0.06091659
v -0.02111315 -0.03355609 0.06229757
v -0.02110978 -0.03514923 0.05945741
v -0.03538387 -0.02086517 0.06222428
v -0.02637683 -0.03356230 0.05223156
v -0.03797809 -0.01047727 0.06370456
v -0.00114271 -0.03712108 0.06102388
v -0.01563521 -0.03526768 0.06217344
v -0.02618954 -0.03155004 0.06090001
v -0.01744792 -0.03702344 0.05605852
v -0.03434403 -0.01968575 0.06353276
v -0.04557066 -0.01146174 0.05874280
v -0.02802054 -0.03143672 0.05781178
v -0.02269350 -0.03504139 0.05604100
v -0.04607333 -0.00838668 0.06078116
v -0.01927239 -0.03519033 0.06088466
v -0.02450821 -0.03178227 0.06211864
v -0.02447445 -0.03332672 0.05954522
v -0.03519901 -0.02263743 0.06084032
v -0.02962477 -0.02960567 0.05933298
v -0.02622870 -0.03333751 0.05410502
f 8 3 1
f 10 1 3
f 11 3 4
f 11 10 3
f 11 7 10
f 13 8 1
f 13 1 2
f 14 4 3
f 14 3 8
f 15 9 2
f 15 2 1
f 15 12 9
f 15 1 12
f 16 10 7
f 17 12 1
f 17 1 10
f 17 16 12
f 17 10 16
f 18 12 5
f 18 9 12
f 19 16 7
f 19 7 11
f 20 6 8
f 21 14 8
f 21 8 6
f 23 19 11
f 23 11 4
f 23 4 14
f 23 14 22
f 24 5 12
f 24 12 16
f 24 16 19
f 25 20 8
f 25 8 13
f 26 9 18
f 29 14 21
f 30 24 19
f 30 5 24
f 31 25 13
f 31 13 2
f 31 2 25
f 32 25 2
f 32 2 9
f 32 9 26
f 32 20 25
f 34 27 6
f 34 6 20
f 34 20 27
f 35 18 5
f 36 23 22
f 37 22 14
f 37 14 29
f 38 29 21
f 38 21 6
f 38 6 27
f 39 30 19
f 39 5 30
f 39 35 5
f 39 28 35
f 39 36 28
f 39 19 23
f 39 23 36
f 40 27 20
f 40 20 32
f 40 32 26
f 40 26 27
f 41 26 18
f 41 28 33
f 41 35 28
f 41 18 35
f 42 27 26
f 42 41 33
f 42 26 41
f 42 33 37
f 42 38 27
f 43 33 28
f 43 22 33
f 43 36 22
f 43 28 36
f 44 37 33
f 44 33 22
f 44 22 37
f 45 42 37
f 45 37 29
f 45 29 38
f 45 38 42

