# https://github.com/mikedh/trimesh
v 0.02704973 0.00070799 0.06394883
v 0.03367982 -0.00804182 0.06041877
v 0.03721522 0.00114726 0.01934073
v 0.01599957 0.00046101 0.01725942
v 0.00068880 -0.03752118 0.05965228
v 0.01712359 0.00072492 0.06145372
v 0.03365410 -0.00021141 0.06018170
v 0.01357061 -0.02881523 0.06364052
v 0.00090144 -0.04300979 0.01814061
v 0.02285851 0.00077169 0.06431974
v 0.00145421 -0.02175320 0.06112271
v 0.02998972 0.00071795 0.06240518
v 0.02483275 -0.01414794 0.06365787
v 0.02752358 -0.02640521 0.01789775
v 0.00142751 -0.02762650 0.06400983
v 0.00153837 -0.02147862 0.01731547
v 0.02206158 -0.02274834 0.06231808
v 0.02696029 -0.00679158 0.06369587
v 0.02093299 -0.02145479 0.06363524
v 0.03193318 -0.01955273 0.01798107
v 0.01296183 -0.03512609 0.04652878
v 0.00085401 -0.03315088 0.06397862
v 0.00058291 -0.04130087 0.03323644
v 0.00779316 -0.04108887 0.01788889
v 0.03358773 -0.01071684 0.05746578
v 0.01297547 -0.03337480 0.05788027
v 0.00426971 -0.03547019 0.06206506
v 0.00072380 -0.03579945 0.06245495
v 0.02038997 -0.03359370 0.01793190
v 0.00592597 -0.04079979 0.02551112
v 0.02173612 -0.02620915 0.05602987
v 0.02185256 -0.02439381 0.06095342
v 0.00586004 -0.03696108 0.05600696
v 0.01015591 -0.03094760 0.06366235
v 0.00060781 -0.03936440 0.04849923
v 0.00451289 -0.03293361 0.06372272
v 0.01504066 -0.03752798 0.01793745
v 0.01823171 -0.03168847 0.04462063
v 0.00224938 -0.04092824 0.03315827
v 0.02550580 -0.02427991 0.04269031
v 0.01820638 -0.02978521 0.05597800
v 0.01298310 -0.03158446 0.06199168
v 0.00947267 -0.03519111 0.05789233
v 0.00952593 -0.03714908 0.04467617
v 0.00235861 -0.03721082 0.05960539
v 0.01456327 -0.03330995 0.05223275
v 0.01656477 -0.03535630 0.02739581
v 0.02191213 -0.02977222 0.03503563
v 0.00232204 -0.03903283 0.04847653
v 0.02737877 -0.02625693 0.01976603
v 0.02361709 -0.02429717 0.05413515
v 0.01451923 -0.03133076 0.06087075
v 0.00951605 -0.03337818 0.06214212
v 0.01304367 -0.03705292 0.03125581
v 0.00757603 -0.03506678 0.06094568
v 0.01843723 -0.03339047 0.03121190
v 0.02196578 -0.03172099 0.02168260
v 0.02000167 -0.02975495 0.04650027
v 0.02561351 -0.02808577 0.02164579
v 0.01484928 -0.03717650 0.02170178
v 0.01127689 -0.03890294 0.02362316
v 0.02025261 -0.03348725 0.01983464
v 0.02193548 -0.02786087 0.04651094
f 6 3 4
f 7 2 3
f 10 3 6
f 11 6 4
f 12 1 2
f 12 2 7
f 12 7 3
f 12 10 1
f 12 3 10
f 13 1 10
f 15 10 6
f 15 6 11
f 16 11 4
f 16 4 14
f 18 13 2
f 18 2 1
f 18 1 13
f 19 13 10
f 19 8 17
f 19 17 2
f 19 2 13
f 20 14 4
f 20 4 3
f 22 10 15
f 22 19 10
f 22 8 19
f 22 15 11
f 22 11 16
f 23 16 9
f 24 9 16
f 25 14 20
f 25 20 3
f 25 3 2
f 28 22 16
f 28 5 27
f 29 24 16
f 29 16 14
f 30 9 24
f 32 25 2
f 32 2 17
f 32 31 25
f 34 8 22
f 35 5 28
f 35 28 16
f 35 16 23
f 36 28 27
f 36 22 28
f 36 34 22
f 36 27 34
f 37 24 29
f 39 23 9
f 39 9 30
f 41 31 32
f 42 32 17
f 42 17 8
f 42 8 34
f 43 21 26
f 44 33 30
f 44 30 24
f 44 43 33
f 44 21 43
f 45 5 35
f 45 27 5
f 46 26 21
f 46 41 26
f 46 38 41
f 47 38 46
f 47 46 21
f 49 35 23
f 49 23 39
f 49 45 35
f 49 33 45
f 49 39 30
f 49 30 33
f 50 14 25
f 50 25 40
f 51 40 25
f 51 25 31
f 51 31 40
f 52 41 32
f 52 32 42
f 52 26 41
f 53 42 34
f 53 34 27
f 54 21 44
f 55 45 33
f 55 33 43
f 55 27 45
f 55 53 27
f 55 52 42
f 55 42 53
f 55 43 26
f 55 26 52
f 56 38 47
f 57 48 38
f 58 41 38
f 58 38 48
f 59 14 50
f 59 48 57
f 59 57 29
f 59 29 14
f 59 50 40
f 60 47 21
f 60 21 54
f 60 54 37
f 60 37 47
f 61 54 44
f 61 44 24
f 61 24 37
f 61 37 54
f 62 56 47
f 62 38 56
f 62 57 38
f 62 29 57
f 62 47 37
f 62 37 29
f 63 58 48
f 63 31 41
f 63 41 58
f 63 48 59
f 63 59 40
f 63 40 31

