# https://github.com/mikedh/trimesh
v -0.03324230 0.00085723 0.03492015
v -0.01670971 -0.02124195 0.01753533
v -0.02693436 0.00086835 0.01733088
v -0.04850824 0.00070668 0.01813799
v -0.04289063 -0.01745712 0.03506227
v -0.02065308 -0.01108416 0.01328198
v -0.02786808 0.00098227 0.01893950
v -0.01648251 -0.01680331 0.01368475
v -0.02820419 -0.01874902 0.03518522
v -0.04974339 0.00039585 0.03564645
v -0.04534474 -0.01781332 0.01796876
v -0.02238096 -0.00898223 0.01378586
v -0.01593015 -0.01961660 0.01513337
v -0.02296123 -0.02131369 0.02732853
v -0.04876907 -0.00944992 0.03596834
v -0.04680943 -0.01390203 0.01795472
f 7 1 3
f 7 3 4
f 7 4 1
f 8 3 1
f 8 6 3
f 9 2 1
f 10 1 4
f 11 6 8
f 12 6 4
f 12 4 3
f 12 3 6
f 13 8 1
f 13 1 2
f 13 11 8
f 13 2 11
f 14 9 5
f 14 2 9
f 14 11 2
f 14 5 11
f 15 9 1
f 15 1 10
f 15 5 9
f 15 11 5
f 15 10 4
f 16 4 6
f 16 6 11
f 16 15 4
f 16 11 15

