# https://github.com/mikedh/trimesh
v 0.02660900 0.02296430 0.05047431
v 0.03452172 0.00173355 0.04965823
v 0.03473554 0.01508494 0.00763053
v 0.01802788 0.02353632 0.00036736
v 0.00098813 0.02379135 0.01809654
v 0.03140870 0.02242556 0.00750415
v 0.03292799 0.01699818 0.02932592
v 0.02421101 0.00070505 0.05066534
v 0.01505940 0.02447380 0.05078682
v 0.02872582 0.01749239 0.00141663
v 0.03136624 0.01339548 0.05034469
v 0.03547593 0.01173987 0.02179261
v 0.03107210 0.02240888 0.02364009
v 0.03091313 0.00079504 0.00097191
v 0.00117288 0.02453507 0.01970802
v 0.02499334 0.02300982 0.00134896
v 0.01608881 0.02345521 0.05090212
v 0.03304244 0.01531120 0.00448216
v 0.02922417 0.01855265 0.05025579
v 0.03501059 0.01344168 0.02171536
v 0.03308916 0.02064205 0.01079170
v 0.03281992 0.00074991 0.00195558
v 0.01817811 0.00072542 0.00008561
v 0.03056819 0.01192271 0.00129216
v 0.02814496 0.02265454 0.00293231
v 0.02411625 0.00473607 0.05075082
v 0.03106335 0.01514136 0.04833957
v 0.02919039 0.02043940 0.04454015
v 0.03502448 0.01535327 0.01604200
v 0.02403526 0.00055571 0.04853019
v 0.03561032 0.01175401 0.00735988
v 0.00129257 0.02302163 0.01712873
v 0.03167115 0.01535456 0.00281703
v 0.02673090 0.02111391 0.00146017
v 0.02953782 0.02246892 0.00430190
v 0.02923052 0.02226731 0.03698986
v 0.02743487 0.02225575 0.04835129
v 0.03121288 0.02038460 0.03122769
v 0.03305807 0.02054407 0.01410484
v 0.01829119 0.00040241 0.02326436
v 0.03380509 0.01171512 0.00400943
v 0.01646871 0.00069095 0.01805512
v 0.02946607 0.02055211 0.00292098
v 0.03296340 0.01864743 0.02362549
f 9 1 6
f 11 8 2
f 12 11 2
f 13 6 1
f 15 9 4
f 15 4 5
f 15 5 8
f 15 8 9
f 16 9 6
f 16 4 9
f 16 10 4
f 17 9 8
f 17 1 9
f 18 6 3
f 19 1 11
f 20 7 11
f 20 11 12
f 21 3 6
f 21 6 13
f 23 4 14
f 23 14 22
f 24 14 4
f 24 4 10
f 24 22 14
f 25 16 6
f 26 11 1
f 26 1 17
f 26 17 8
f 26 8 11
f 27 19 11
f 27 11 7
f 29 20 12
f 29 3 21
f 29 7 20
f 30 22 2
f 30 2 8
f 31 12 2
f 31 2 22
f 31 29 12
f 31 3 29
f 31 18 3
f 32 5 4
f 32 4 23
f 33 24 10
f 34 10 16
f 34 16 25
f 35 25 6
f 35 6 18
f 36 13 1
f 37 1 19
f 37 19 28
f 37 36 1
f 37 28 36
f 38 36 28
f 38 13 36
f 38 27 7
f 38 28 19
f 38 19 27
f 39 29 21
f 39 21 13
f 40 23 22
f 40 22 30
f 40 30 8
f 41 31 22
f 41 18 31
f 41 33 18
f 41 22 24
f 41 24 33
f 42 8 5
f 42 5 32
f 42 40 8
f 42 32 23
f 42 23 40
f 43 33 10
f 43 25 35
f 43 35 18
f 43 18 33
f 43 34 25
f 43 10 34
f 44 39 13
f 44 13 38
f 44 38 7
f 44 7 29
f 44 29 39

