# https://github.com/mikedh/trimesh
v 0.03721522 0.00114726 0.01934073
v 0.03123875 -0.02091623 0.01789583
v 0.03091313 0.00079504 0.00097191
v -0.02385350 0.02361699 0.00017982
v -0.01962960 0.01896196 0.02057914
v -0.02122919 -0.03758185 0.00304975
v 0.01802788 0.02353632 0.00036736
v 0.03111344 -0.01727196 0.00469166
v 0.00050435 -0.04311496 0.01796075
v -0.01224424 -0.03696515 0.00122295
v -0.02331955 -0.03997136 0.01804784
v 0.03281992 0.00074991 0.00195558
v 0.01816535 0.02366660 0.01816535
v 0.03102436 -0.02082847 0.00769344
v 0.01504066 -0.03752798 0.01793745
v -0.02377811 -0.03144601 0.00112301
v 0.01367927 -0.03274478 0.00143017
v -0.00840374 -0.04286465 0.00593295
v 0.02889752 -0.01232530 0.00132508
v 0.03171753 -0.01210805 0.00295640
v 0.02038997 -0.03359370 0.01793190
v -0.01794119 -0.03509148 0.00122707
v -0.02307896 -0.03926949 0.00587843
v 0.02210277 -0.02822322 0.00294545
v 0.00641139 -0.03652055 0.00139334
v -0.01569425 -0.03954546 0.00300015
v -0.01379797 -0.04289562 0.01793025
v 0.03074947 -0.00676942 0.00130991
v 0.02304766 -0.02352151 0.00133342
v 0.02752358 -0.02640521 0.01789775
v -0.02333798 -0.03633852 0.00282970
v 0.02920367 -0.02264568 0.00626906
v 0.01858177 -0.03543272 0.00912307
v 0.00420825 -0.03926332 0.00288207
v -0.02114931 -0.03909931 0.00458201
v -0.01397720 -0.04286887 0.00749431
v 0.02961513 -0.01751680 0.00317860
v 0.02935534 -0.02458364 0.01063446
v -0.02171855 -0.03323482 0.00126534
v 0.01841938 -0.03541921 0.01601976
v 0.01677231 -0.03545899 0.00596360
v 0.00959856 -0.04094283 0.01077721
v 0.02739573 -0.02622155 0.00759826
v 0.00235806 -0.04100827 0.00434815
v 0.00954072 -0.03741025 0.00298541
v 0.00237116 -0.04302359 0.00904647
v -0.01922719 -0.04070188 0.00598338
v -0.01561689 -0.04084822 0.00438324
v -0.01565188 -0.04283906 0.01406966
v 0.02761553 -0.02098886 0.00311139
v 0.02926571 -0.02457419 0.01413031
v 0.01296504 -0.03902282 0.01600524
v 0.01857106 -0.03195508 0.00322803
v 0.01302570 -0.03906569 0.00914713
v 0.02383050 -0.02810202 0.00454990
v 0.02032819 -0.03355727 0.00759155
v -0.00477383 -0.04286491 0.00591751
v 0.00594855 -0.04093557 0.00596157
v 0.00235821 -0.04290172 0.01602297
v -0.02114019 -0.04076079 0.00765658
v -0.02108817 -0.04088055 0.01795682
v 0.00779316 -0.04108887 0.01788889
v 0.01310774 -0.03553216 0.00298179
v 0.02025779 -0.03171760 0.00448057
f 9 1 5
f 10 4 7
f 11 5 4
f 11 9 5
f 12 7 1
f 12 3 7
f 13 5 1
f 13 1 7
f 13 7 4
f 13 4 5
f 14 8 1
f 14 1 2
f 15 1 9
f 16 4 10
f 16 11 4
f 20 12 1
f 20 1 8
f 21 1 15
f 22 16 10
f 25 10 7
f 26 22 10
f 26 6 22
f 27 9 11
f 28 19 3
f 28 3 12
f 28 20 19
f 28 12 20
f 29 3 19
f 29 17 25
f 29 25 7
f 29 7 3
f 29 24 17
f 30 2 1
f 30 1 21
f 31 22 6
f 31 23 11
f 31 11 16
f 32 8 14
f 34 26 10
f 34 10 25
f 35 6 26
f 35 31 6
f 35 23 31
f 36 9 27
f 37 29 19
f 37 19 20
f 37 20 8
f 38 14 2
f 38 30 21
f 38 21 33
f 39 31 16
f 39 16 22
f 39 22 31
f 40 33 21
f 40 21 15
f 43 32 14
f 43 14 38
f 44 26 34
f 45 34 25
f 46 36 18
f 46 9 36
f 47 23 35
f 48 26 18
f 48 18 36
f 48 36 47
f 48 47 35
f 48 35 26
f 49 36 27
f 50 24 29
f 50 29 37
f 50 37 8
f 50 8 32
f 51 38 2
f 51 2 30
f 51 30 38
f 52 40 15
f 52 33 40
f 53 17 24
f 54 41 33
f 54 52 42
f 54 33 52
f 55 32 43
f 55 50 32
f 55 24 50
f 56 43 38
f 56 38 33
f 56 55 43
f 56 33 41
f 57 18 26
f 57 26 44
f 57 46 18
f 57 44 46
f 58 44 34
f 58 34 45
f 58 45 41
f 58 41 54
f 58 46 44
f 58 54 42
f 58 42 46
f 59 46 42
f 59 9 46
f 60 47 36
f 60 23 47
f 60 36 49
f 60 11 23
f 61 49 27
f 61 27 11
f 61 60 49
f 61 11 60
f 62 52 15
f 62 15 9
f 62 9 59
f 62 59 42
f 62 42 52
f 63 17 53
f 63 45 25
f 63 25 17
f 63 53 41
f 63 41 45
f 64 53 24
f 64 24 55
f 64 55 56
f 64 56 41
f 64 41 53

