# https://github.com/mikedh/trimesh
v 0.00120304 -0.03076518 0.05277308
v 0.00086210 -0.03877885 0.05248112
v 0.00050435 -0.04311496 0.01796075
v -0.01491677 -0.02174794 0.01711852
v -0.02041387 -0.02865719 0.05276717
v 0.00099895 -0.02231327 0.01810576
v 0.00159106 -0.02377762 0.02136715
v -0.01704388 -0.03002030 0.05313021
v -0.02329186 -0.03805667 0.03519996
v -0.02507092 -0.02148839 0.03296310
v -0.01023791 -0.04107423 0.03890331
v -0.01932149 -0.03702545 0.05220492
v -0.02331955 -0.03997136 0.01804784
v -0.02204896 -0.01853296 0.01948756
v -0.02452688 -0.02289312 0.03510826
v -0.00308920 -0.04114945 0.03895160
v -0.01023123 -0.03908139 0.05224689
v -0.01399004 -0.04101176 0.03510442
v -0.01209337 -0.04318211 0.01796601
v 0.00043789 -0.04293837 0.01983297
v -0.00115749 -0.03908860 0.05222607
v -0.02100871 -0.03904852 0.03510644
v -0.01582592 -0.03894665 0.04643849
v -0.01952465 -0.04134198 0.01797826
v -0.00849420 -0.04306356 0.02363885
v 0.00057334 -0.03912342 0.05037841
v -0.02289318 -0.03893142 0.02935113
v -0.01948822 -0.04100507 0.02173843
v -0.01206223 -0.04299753 0.01985965
v -0.00294601 -0.04304429 0.02365026
f 6 3 4
f 7 1 2
f 7 2 3
f 7 6 1
f 7 3 6
f 8 2 1
f 8 1 5
f 10 5 1
f 12 8 5
f 12 5 9
f 13 9 10
f 14 10 1
f 14 1 6
f 14 6 4
f 14 13 10
f 14 4 13
f 15 10 9
f 15 9 5
f 15 5 10
f 17 2 8
f 17 8 12
f 17 11 16
f 18 11 17
f 19 4 3
f 20 3 2
f 21 17 16
f 21 2 17
f 22 12 9
f 23 18 17
f 23 17 12
f 23 22 18
f 23 12 22
f 24 13 4
f 24 4 19
f 25 11 18
f 25 16 11
f 26 20 2
f 26 21 16
f 26 2 21
f 27 22 9
f 27 9 13
f 27 13 22
f 28 22 13
f 28 13 24
f 28 18 22
f 28 24 19
f 28 19 18
f 29 25 18
f 29 18 19
f 29 19 25
f 30 16 25
f 30 26 16
f 30 20 26
f 30 3 20
f 30 25 19
f 30 19 3

