# https://github.com/mikedh/trimesh
v -0.01204130 0.03899382 0.05034059
v -0.01297025 0.03079672 0.05081964
v -0.01309543 0.02730575 0.03297247
v -0.03005542 0.03306149 0.03302472
v -0.04171126 0.01166639 0.05039956
v -0.01216226 0.04129048 0.03326908
v -0.02599940 0.03288645 0.05022729
v -0.03282084 0.01268178 0.05093978
v -0.04485345 0.01025808 0.03345004
v -0.01204742 0.04086247 0.03706591
v -0.01394755 0.04097335 0.03320932
v -0.01906909 0.03659418 0.05027386
v -0.03518547 0.02415224 0.05025035
v -0.02919685 0.01288468 0.03298532
v -0.04391180 0.00982127 0.04286307
v -0.01383270 0.04047666 0.03698642
v -0.01933367 0.03919831 0.03320221
v -0.03154090 0.02917797 0.04636908
v -0.03728175 0.02594906 0.03307427
v -0.02263262 0.03658806 0.04075762
v -0.01722086 0.03845327 0.04453858
v -0.04332985 0.01530611 0.03312961
v -0.03163019 0.03099403 0.03682846
v -0.03322126 0.02741756 0.04638698
v -0.02628119 0.03473202 0.03883690
v -0.02086975 0.03655094 0.04640687
v -0.01549216 0.03841272 0.04828680
v -0.04053279 0.01492086 0.05015671
v -0.03515287 0.02748015 0.03681480
v -0.03705233 0.02576456 0.03493996
v -0.02438878 0.03464484 0.04644663
v -0.01913743 0.03851806 0.03890502
v -0.01368875 0.03858744 0.05025636
v -0.04258544 0.01318745 0.04263546
v -0.03873158 0.01854287 0.05022153
v -0.03874038 0.02213224 0.03874574
v -0.03690643 0.02215344 0.04832282
v -0.03682084 0.02395584 0.04255135
f 1 2 3
f 8 3 2
f 8 2 7
f 10 1 3
f 10 3 6
f 11 6 3
f 11 3 4
f 11 10 6
f 12 7 2
f 12 2 1
f 13 8 7
f 13 5 8
f 14 4 3
f 14 3 8
f 15 8 5
f 15 14 8
f 15 9 14
f 16 1 10
f 16 10 11
f 17 11 4
f 18 13 7
f 18 7 4
f 19 4 14
f 21 16 11
f 21 11 17
f 22 9 15
f 22 19 14
f 22 14 9
f 23 18 4
f 23 4 19
f 24 13 18
f 25 20 17
f 25 17 4
f 25 4 7
f 26 7 12
f 26 12 21
f 27 16 21
f 27 21 12
f 28 15 5
f 29 23 19
f 29 18 23
f 29 24 18
f 29 19 24
f 30 24 19
f 30 13 24
f 31 25 7
f 31 20 25
f 31 26 20
f 31 7 26
f 32 26 21
f 32 21 17
f 32 17 20
f 32 20 26
f 33 27 12
f 33 12 1
f 33 1 16
f 33 16 27
f 34 28 22
f 34 22 15
f 34 15 28
f 35 28 5
f 35 5 13
f 35 22 28
f 36 19 22
f 36 22 35
f 37 36 35
f 37 35 13
f 38 37 13
f 38 13 30
f 38 36 37
f 38 30 19
f 38 19 36

