# https://github.com/mikedh/trimesh
v -0.02737828 -0.01965150 0.03478825
v -0.02329186 -0.03805667 0.03519996
v -0.02391033 -0.01840658 0.00003276
v -0.03866402 -0.01808871 0.00106455
v -0.04252526 -0.01817078 0.03529856
v -0.02323568 -0.03984654 0.00726596
v -0.02544323 -0.02186279 0.03471622
v -0.04341244 -0.01765132 0.03129916
v -0.02323194 -0.03798094 0.00421824
v -0.02608107 -0.02024268 0.03262064
v -0.04324566 -0.01765822 0.00415742
v -0.03524498 -0.03174756 0.02171076
v -0.02320117 -0.03966606 0.02179833
v -0.02377811 -0.03144601 0.00112301
v -0.04166437 -0.01773937 0.00257867
v -0.03717594 -0.02998820 0.00760318
v -0.03888609 -0.02462377 0.03503827
v -0.02670643 -0.03903317 0.01223920
v -0.03081824 -0.02900510 0.00148365
v -0.02333798 -0.03633852 0.00282970
v -0.03158170 -0.03527629 0.00772634
v -0.04451755 -0.01912641 0.00754422
v -0.03929730 -0.02300171 0.00301950
v -0.02815846 -0.03538652 0.03501369
v -0.04451707 -0.01908192 0.01979491
v -0.02640452 -0.03708260 0.03126419
v -0.02734004 -0.03103450 0.00139653
v -0.02859860 -0.03395433 0.00322105
v -0.02843421 -0.03553275 0.00463812
v -0.02666447 -0.03904595 0.01073114
v -0.03166489 -0.03549642 0.01597102
v -0.04516075 -0.01763805 0.00739397
v -0.04121235 -0.01943679 0.00289806
v -0.03839653 -0.01985131 0.00131061
v -0.04083483 -0.02271679 0.00454543
v -0.03355900 -0.03171980 0.03115191
v -0.04105649 -0.02105600 0.03508180
v -0.04274418 -0.01906171 0.03117910
v -0.03883799 -0.02820192 0.01789961
v -0.02478682 -0.03898338 0.02171735
v -0.02489471 -0.03735817 0.03511138
v -0.02500326 -0.03587827 0.00310476
v -0.03526881 -0.02995577 0.00465606
v -0.02477859 -0.03747470 0.00445644
v -0.02486705 -0.03921439 0.00750769
v -0.02996070 -0.03520901 0.02741463
v -0.02819997 -0.03713506 0.02172402
v -0.04275943 -0.01915587 0.00440350
v -0.04514041 -0.01770257 0.01985108
v -0.03636235 -0.02336828 0.00142141
v -0.04261821 -0.02258536 0.00758380
v -0.03706031 -0.02801685 0.03119034
v -0.04063916 -0.02279197 0.03115136
v -0.03909202 -0.02823042 0.00900534
v -0.04070410 -0.02440809 0.00605682
v -0.03365220 -0.03167106 0.00478211
v -0.03361966 -0.03344305 0.01980108
v -0.04262884 -0.02271521 0.01785830
v -0.04067482 -0.02443925 0.02354021
f 5 2 1
f 7 1 2
f 7 2 3
f 8 5 1
f 8 1 3
f 10 7 3
f 10 3 1
f 10 1 7
f 11 8 3
f 13 9 3
f 13 3 2
f 13 6 9
f 14 4 3
f 15 11 3
f 15 3 4
f 18 6 13
f 19 4 14
f 20 14 3
f 20 3 9
f 24 2 5
f 24 5 17
f 27 19 14
f 27 14 20
f 28 27 20
f 28 19 27
f 30 6 18
f 31 30 18
f 31 21 30
f 32 8 11
f 33 11 15
f 34 15 4
f 34 33 15
f 34 23 33
f 36 24 17
f 37 17 5
f 38 5 8
f 38 8 25
f 38 37 5
f 38 25 37
f 40 26 18
f 40 18 13
f 40 13 2
f 41 2 24
f 41 24 26
f 41 40 2
f 41 26 40
f 42 28 20
f 42 20 9
f 43 19 28
f 43 35 23
f 44 9 6
f 44 42 9
f 44 29 28
f 44 28 42
f 45 21 29
f 45 30 21
f 45 6 30
f 45 44 6
f 45 29 44
f 46 26 24
f 46 24 36
f 47 31 18
f 47 18 26
f 47 46 31
f 47 26 46
f 48 32 11
f 48 22 32
f 48 11 33
f 48 33 23
f 48 23 35
f 49 25 8
f 49 8 32
f 49 32 22
f 49 22 25
f 50 34 4
f 50 4 19
f 50 23 34
f 50 43 23
f 50 19 43
f 51 48 35
f 51 22 48
f 52 36 17
f 52 12 36
f 52 39 12
f 53 37 25
f 53 17 37
f 54 12 39
f 54 16 21
f 54 21 31
f 55 43 16
f 55 35 43
f 55 51 35
f 55 54 51
f 55 16 54
f 56 43 28
f 56 28 29
f 56 29 21
f 56 21 16
f 56 16 43
f 57 46 36
f 57 36 12
f 57 31 46
f 57 54 31
f 57 12 54
f 58 25 22
f 58 22 51
f 58 51 54
f 58 54 39
f 58 53 25
f 58 17 53
f 59 52 17
f 59 39 52
f 59 58 39
f 59 17 58

