# https://github.com/mikedh/trimesh
v -0.02032398 0.01808957 0.02023463
v -0.02264964 -0.01745171 0.01895818
v -0.02391033 -0.01840658 0.00003276
v -0.03492665 0.02148151 0.00115137
v -0.04850945 0.00439737 0.01602354
v -0.02387205 0.02172110 0.00011630
v -0.04680943 -0.01390203 0.01795472
v -0.04284085 0.02071722 0.01789961
v -0.04234667 0.00447354 0.00129261
v -0.04534474 -0.01781332 0.01796876
v -0.04670995 0.01151626 0.01792784
v -0.04048029 0.01196802 0.00129157
v -0.04846169 -0.00665939 0.00916059
v -0.04476258 0.01687685 0.01793759
v -0.04293812 0.02062033 0.00762608
v -0.04845058 -0.00659800 0.01603362
v -0.04647104 -0.01569999 0.00897950
v -0.03947539 0.02071866 0.00291087
v -0.04452548 0.01873480 0.01225773
v -0.04854992 0.00430538 0.00913344
v -0.04640213 -0.01566719 0.01600467
v -0.03866402 -0.01808871 0.00106455
v -0.04114685 0.02058455 0.00448768
v -0.03678454 0.01953926 0.00130380
v -0.04633599 0.01321074 0.01599297
v -0.04649902 0.01331170 0.00909894
v -0.04654056 -0.00476637 0.00436195
v -0.04463249 -0.01740348 0.00604946
v -0.04224407 -0.00682299 0.00129372
v -0.04310864 0.01339128 0.00297456
v -0.04450696 0.01873959 0.01065945
v -0.04854472 0.00603452 0.01064588
v -0.04638934 -0.01215785 0.00605678
v -0.04166437 -0.01773937 0.00257867
v -0.04484115 -0.00848043 0.00297437
v -0.04484463 0.00787312 0.00302653
v -0.04443916 0.01323882 0.00444585
v -0.04466715 0.01702654 0.00758440
v -0.04847689 0.00604025 0.01417230
v -0.04289098 -0.01575714 0.00294723
v -0.04016316 -0.01618851 0.00128459
v -0.04641131 0.00601071 0.00437296
v -0.04644044 0.00971315 0.00594201
f 1 2 3
f 6 1 3
f 8 6 4
f 8 1 6
f 9 6 3
f 10 2 1
f 10 1 7
f 10 3 2
f 11 7 1
f 11 5 7
f 12 4 6
f 12 6 9
f 14 11 1
f 14 1 8
f 15 8 4
f 16 7 5
f 17 16 13
f 17 7 16
f 19 14 8
f 19 8 15
f 20 16 5
f 20 13 16
f 21 17 10
f 21 10 7
f 21 7 17
f 22 3 10
f 23 15 4
f 23 4 18
f 24 18 4
f 24 4 12
f 24 12 18
f 25 11 14
f 25 14 19
f 26 25 19
f 27 13 20
f 28 10 17
f 29 9 3
f 29 3 22
f 30 23 18
f 30 18 12
f 31 26 19
f 31 19 15
f 32 26 20
f 32 20 5
f 33 17 13
f 33 13 27
f 33 28 17
f 34 22 10
f 34 10 28
f 35 9 29
f 35 33 27
f 36 30 12
f 36 12 9
f 36 35 27
f 36 9 35
f 37 23 30
f 37 30 36
f 38 31 15
f 38 26 31
f 38 15 23
f 38 23 37
f 39 32 5
f 39 5 11
f 39 11 25
f 39 25 26
f 39 26 32
f 40 34 28
f 40 28 33
f 40 33 35
f 41 29 22
f 41 22 34
f 41 34 40
f 41 40 35
f 41 35 29
f 42 36 27
f 42 27 20
f 42 37 36
f 43 38 37
f 43 26 38
f 43 37 42
f 43 42 20
f 43 20 26

