# https://github.com/mikedh/trimesh
v -0.03521907 -0.00712376 0.05331154
v -0.01986521 -0.03681658 0.05246340
v -0.02097710 -0.02551829 0.03492671
v -0.04834923 -0.00945636 0.03446145
v -0.04620904 -0.01364850 0.05303578
v -0.02489471 -0.03735817 0.03511138
v -0.03303231 -0.00712323 0.03495442
v -0.02119647 -0.02799199 0.05345412
v -0.02006276 -0.03938552 0.03536894
v -0.02815846 -0.03538652 0.03501369
v -0.01941674 -0.03763562 0.04842710
v -0.03743818 -0.02665411 0.03509203
v -0.02637683 -0.03356230 0.05223156
v -0.02101068 -0.03703282 0.04834140
v -0.04105649 -0.02105600 0.03508180
v -0.02476568 -0.03714409 0.03693806
v -0.03139675 -0.02978077 0.05209413
v -0.02294132 -0.03549793 0.05222774
v -0.03149537 -0.03158102 0.04261852
v -0.02441508 -0.03508582 0.05020857
v -0.02984375 -0.03151683 0.05027023
v -0.03513981 -0.02793592 0.04261707
v -0.03331457 -0.02786831 0.05214384
f 5 1 4
f 7 3 4
f 7 4 1
f 8 7 1
f 8 3 7
f 8 5 2
f 8 1 5
f 9 6 3
f 10 4 3
f 10 3 6
f 11 8 2
f 11 3 8
f 11 9 3
f 12 4 10
f 13 2 5
f 14 11 2
f 14 9 11
f 15 12 5
f 15 5 4
f 15 4 12
f 16 13 10
f 16 10 6
f 16 6 9
f 16 9 14
f 17 13 5
f 18 14 2
f 18 2 13
f 18 16 14
f 19 12 10
f 20 18 13
f 20 13 16
f 20 16 18
f 21 19 10
f 21 10 13
f 21 13 17
f 21 17 19
f 22 5 12
f 22 12 19
f 23 22 19
f 23 19 17
f 23 17 5
f 23 5 22

