# https://github.com/mikedh/trimesh
v 0.01543153 0.02838802 0.06361541
v 0.03365410 -0.00021141 0.06018170
v 0.02576434 0.02424383 0.05032655
v 0.00075062 0.03932291 0.05049798
v 0.00157949 0.02227211 0.06146637
v 0.02421101 0.00070505 0.05066534
v 0.01669171 0.03316555 0.05029440
v 0.02571333 0.01864015 0.06213309
v 0.02285851 0.00077169 0.06431974
v 0.00079441 0.03583219 0.06251502
v 0.03452172 0.00173355 0.04965823
v 0.00144935 0.03168932 0.05091157
v 0.01646116 0.03088362 0.06084306
v 0.02910136 0.01680307 0.05596535
v 0.02479868 0.01558669 0.06375287
v 0.01712359 0.00072492 0.06145372
v 0.00063270 0.03885445 0.05416326
v 0.00135466 0.02744384 0.06425978
v 0.00985984 0.03698432 0.05033303
v 0.00162333 0.02215527 0.06028462
v 0.02009317 0.02926086 0.05593719
v 0.02197498 0.02413393 0.06226742
v 0.01141331 0.03302114 0.06206825
v 0.02908289 0.01498698 0.05948810
v 0.03136624 0.01339548 0.05034469
v 0.02704973 0.00070799 0.06394883
v 0.02748377 0.01510800 0.06214164
v 0.01735860 0.00071239 0.05952534
v 0.00088403 0.03267920 0.06411390
v 0.00251665 0.03854849 0.05411388
v 0.01120812 0.03468833 0.05951208
v 0.01654674 0.03290725 0.05222598
v 0.01485113 0.03117228 0.06202254
v 0.02352194 0.02380763 0.06067734
v 0.02299758 0.01927094 0.06367086
v 0.03101596 0.01151843 0.05594323
v 0.02687595 0.00999748 0.06372511
v 0.02904444 0.01336154 0.06088760
v 0.00072893 0.03715372 0.06095700
v 0.00826719 0.03221361 0.06358712
v 0.00252649 0.03902091 0.05047712
v 0.01304983 0.03474038 0.05412467
v 0.00785209 0.03655047 0.05786619
v 0.00959454 0.03494887 0.06067629
v 0.02358065 0.02560323 0.05592353
v 0.02539570 0.02207468 0.05931648
v 0.01915698 0.02475591 0.06359590
v 0.03108064 0.01337476 0.05220375
v 0.02998972 0.00071795 0.06240518
v 0.02948703 0.00793094 0.06221358
v 0.00425268 0.03671071 0.06084258
v 0.00605445 0.03506876 0.06217672
v 0.00959236 0.03656720 0.05415300
v 0.02727756 0.02031509 0.05596139
v 0.02558154 0.02402606 0.05217972
f 11 2 6
f 11 7 3
f 11 6 4
f 12 4 6
f 16 2 9
f 18 16 9
f 18 5 16
f 19 11 4
f 19 7 11
f 20 4 12
f 20 17 4
f 20 5 17
f 20 16 5
f 21 3 7
f 25 11 3
f 25 3 14
f 25 2 11
f 26 9 2
f 27 8 15
f 27 24 8
f 28 6 2
f 28 2 16
f 28 16 20
f 28 20 12
f 28 12 6
f 29 17 5
f 29 5 18
f 29 18 9
f 29 9 15
f 30 4 17
f 32 21 7
f 32 13 21
f 32 31 13
f 33 22 13
f 33 1 22
f 33 23 1
f 33 13 31
f 34 21 13
f 34 13 22
f 34 22 8
f 35 15 8
f 35 8 22
f 35 29 15
f 35 1 29
f 36 24 2
f 37 15 9
f 37 9 26
f 37 27 15
f 38 27 2
f 38 2 24
f 38 24 27
f 39 29 10
f 39 17 29
f 40 10 29
f 40 29 1
f 40 1 23
f 41 19 4
f 41 4 30
f 42 7 19
f 42 32 7
f 42 31 32
f 44 33 31
f 44 23 33
f 44 31 43
f 45 3 21
f 45 21 34
f 46 45 34
f 46 34 8
f 46 8 24
f 47 35 22
f 47 22 1
f 47 1 35
f 48 25 14
f 48 14 24
f 48 24 36
f 48 36 2
f 48 2 25
f 49 37 26
f 49 26 2
f 49 2 37
f 50 37 2
f 50 2 27
f 50 27 37
f 51 30 17
f 51 17 39
f 51 43 30
f 51 44 43
f 51 39 10
f 52 40 23
f 52 10 40
f 52 51 10
f 52 23 44
f 52 44 51
f 53 41 30
f 53 19 41
f 53 30 43
f 53 43 31
f 53 42 19
f 53 31 42
f 54 46 24
f 54 24 14
f 54 14 3
f 55 3 45
f 55 45 46
f 55 54 3
f 55 46 54

