# https://github.com/mikedh/trimesh
v -0.01874344 0.02454093 0.03317137
v -0.00879660 0.02459464 0.01967848
v -0.01698164 0.02490817 0.03113275
v -0.04284085 0.02071722 0.01789961
v -0.03274420 0.00086154 0.03313933
v -0.04071333 0.02055887 0.03307441
v -0.02693436 0.00086835 0.01733088
v -0.02250765 0.02205629 0.03407990
v -0.04923718 0.00035174 0.03382174
v -0.00890132 0.02315812 0.01709292
v -0.04456201 0.01527728 0.02553446
v -0.04874901 0.00195713 0.03389890
v -0.04881490 0.00033150 0.03199309
v -0.00863534 0.02383222 0.01806775
v -0.04250372 0.02047411 0.02165304
v -0.04262841 0.01681876 0.03303290
v -0.04670995 0.01151626 0.01792784
v -0.04461641 0.01677999 0.01985046
v -0.04850824 0.00070668 0.01813799
v -0.04476258 0.01687685 0.01793759
f 1 3 4
f 3 2 4
f 5 2 3
f 5 3 1
f 6 1 4
f 8 5 1
f 8 1 6
f 9 5 8
f 10 7 4
f 12 9 8
f 12 8 6
f 13 7 5
f 13 5 9
f 14 10 4
f 14 4 2
f 14 2 5
f 14 5 7
f 14 7 10
f 15 6 4
f 16 12 6
f 16 11 12
f 16 15 11
f 16 6 15
f 17 9 12
f 17 4 7
f 18 15 4
f 18 11 15
f 18 12 11
f 19 13 9
f 19 9 17
f 19 17 7
f 19 7 13
f 20 18 4
f 20 4 17
f 20 17 12
f 20 12 18

