# https://github.com/mikedh/trimesh
v -0.03280928 0.00082057 0.06424940
v -0.02978313 -0.00698229 0.06197313
v -0.02966789 0.01220762 0.03345266
v -0.04415566 0.01258796 0.03362866
v -0.06225661 -0.01003190 0.06479725
v -0.03282084 0.01268178 0.05093978
v -0.05382333 -0.00824833 0.06777236
v -0.04454245 -0.01432292 0.03535631
v -0.03139478 0.01294642 0.04063630
v -0.05933600 0.00021894 0.06553518
v -0.02963410 0.00072450 0.06193876
v -0.04523205 -0.01267253 0.05714897
v -0.03227884 -0.00704462 0.06424904
v -0.03303231 -0.00712323 0.03495442
v -0.04923718 0.00035174 0.03382174
v -0.04171126 0.01166639 0.05039956
v -0.06037312 -0.00072706 0.06583592
v -0.05525263 -0.00275691 0.06764827
v -0.02960132 -0.00313536 0.06192958
v -0.05961387 -0.01142469 0.06603007
v -0.05351491 -0.00370407 0.06780819
v -0.03034840 -0.00706411 0.05798615
v -0.05022919 -0.00631811 0.03603686
v -0.03148472 0.00702794 0.03294535
v -0.04171476 0.00967637 0.05412523
v -0.06175001 -0.00390785 0.06166492
v -0.06192252 -0.00213138 0.06488482
v -0.05388669 -0.00062438 0.06630617
v -0.06108849 -0.01119444 0.06526921
v -0.05035198 -0.01246570 0.05805232
v -0.05553067 -0.00884078 0.06770528
v -0.06153547 -0.00284417 0.06546567
v -0.05420686 -0.01055884 0.06619405
v -0.04876907 -0.00944992 0.03596834
v -0.04509645 0.00961914 0.03323134
v -0.03274420 0.00086154 0.03313933
v -0.06193654 -0.00819413 0.06198225
v -0.04813961 0.00322754 0.03376711
v -0.06163402 -0.00223559 0.06295176
v -0.06233373 -0.00952694 0.06339180
v -0.04512054 -0.01344215 0.03529616
v -0.05027346 -0.00152765 0.03608461
v -0.06093715 -0.01078899 0.06311374
f 9 6 3
f 9 3 4
f 9 4 6
f 10 1 6
f 11 6 1
f 11 3 6
f 12 8 2
f 13 11 1
f 13 12 2
f 14 3 2
f 16 6 4
f 16 4 10
f 18 10 17
f 19 2 3
f 19 3 11
f 19 13 2
f 19 11 13
f 21 13 1
f 21 7 13
f 21 1 18
f 22 14 2
f 22 2 8
f 22 8 14
f 25 16 10
f 25 10 6
f 25 6 16
f 27 17 10
f 27 10 4
f 28 18 1
f 28 1 10
f 28 10 18
f 29 20 5
f 29 8 20
f 30 20 8
f 30 8 12
f 30 12 20
f 31 18 17
f 31 21 18
f 31 7 21
f 31 13 7
f 32 5 20
f 32 27 5
f 32 17 27
f 32 31 17
f 32 20 31
f 33 20 12
f 33 12 13
f 33 31 20
f 33 13 31
f 34 23 15
f 35 4 3
f 35 3 24
f 36 24 3
f 36 3 14
f 36 14 8
f 36 8 15
f 36 35 24
f 36 15 35
f 38 35 15
f 38 4 35
f 39 27 4
f 39 26 27
f 39 4 38
f 39 38 15
f 39 15 26
f 40 27 26
f 40 5 27
f 40 26 37
f 40 34 8
f 40 37 23
f 40 23 34
f 41 34 15
f 41 15 8
f 41 8 34
f 42 15 23
f 42 23 37
f 42 37 26
f 42 26 15
f 43 29 5
f 43 5 40
f 43 40 8
f 43 8 29

