# https://github.com/mikedh/trimesh
v 0.02660900 0.02296430 0.05047431
v 0.02813174 0.02272481 0.04277236
v 0.00609513 0.04243513 0.00915337
v -0.03475474 0.02317015 0.00138930
v -0.04146674 0.02086822 0.02749859
v 0.02686165 0.02305098 0.00221830
v 0.01865314 0.03674673 0.01605634
v -0.02335101 0.02115763 0.03368274
v -0.01204130 0.03899382 0.05034059
v -0.00671572 0.03827110 0.00130269
v -0.03828661 0.02120104 0.00230081
v 0.02570909 0.02938991 0.02553129
v 0.02219692 0.03291827 0.00627243
v 0.03016717 0.02282746 0.00555224
v -0.02813676 0.03653266 0.00758608
v 0.00985984 0.03698432 0.05033303
v -0.01297025 0.03079672 0.05081964
v -0.02387205 0.02172110 0.00011630
v -0.04167849 0.02092849 0.00558382
v 0.02550833 0.02751312 0.03685485
v 0.01864689 0.03679580 0.00914967
v 0.01148494 0.03715879 0.00303722
v 0.03004516 0.02277454 0.02943666
v 0.02925205 0.02593704 0.00772261
v 0.02744259 0.02580884 0.00460961
v -0.03005542 0.03306149 0.03302472
v -0.02824103 0.03342799 0.00316450
v -0.01576192 0.04236507 0.01794278
v 0.01145198 0.04047169 0.01798132
v -0.00122772 0.04243326 0.02940246
v -0.04030860 0.02124860 0.03332227
v 0.00437654 0.03868381 0.05044175
v 0.02348799 0.02322612 0.00100548
v -0.01785001 0.03629640 0.00135842
v -0.03492665 0.02148151 0.00115137
v -0.03724872 0.02946268 0.01069564
v 0.02725933 0.02408445 0.04263827
v 0.01669171 0.03316555 0.05029440
v 0.00064595 0.04244069 0.00596996
v 0.01673969 0.03679964 0.00620740
v 0.02051241 0.03146412 0.00320862
v 0.02938197 0.02597476 0.01794363
v 0.02574784 0.02944288 0.00626073
v 0.02953298 0.02419405 0.00599771
v -0.03739873 0.02429981 0.00318139
v -0.02084573 0.03850511 0.03314448
v 0.01678011 0.03666657 0.02746778
v 0.01134978 0.04032945 0.00769596
v -0.01015825 0.04248157 0.02740933
v 0.00600772 0.04236629 0.01606899
v 0.01393335 0.02543363 0.05099768
v -0.03728175 0.02594906 0.03307427
v -0.00305979 0.04061625 0.04460124
v 0.00973514 0.03849353 0.04084162
v 0.00849628 0.03464767 0.00129047
v -0.01037545 0.03801597 0.00126138
v -0.02531072 0.03262222 0.00144377
v -0.02098797 0.03874917 0.00429271
v -0.04081476 0.02406219 0.01788449
v -0.03364651 0.03294860 0.01404852
v 0.02576434 0.02424383 0.05032655
v 0.02923886 0.02409496 0.02931845
v 0.02196674 0.03120719 0.03694370
v 0.00613036 0.03902186 0.00301421
f 8 2 1
f 18 14 11
f 18 6 14
f 19 8 5
f 19 14 8
f 19 11 14
f 23 2 8
f 23 8 14
f 25 14 6
f 29 7 21
f 31 8 1
f 31 5 8
f 31 17 9
f 32 9 17
f 33 6 18
f 35 18 11
f 35 11 4
f 37 1 2
f 40 21 13
f 41 6 33
f 41 25 6
f 41 40 13
f 41 22 40
f 42 23 14
f 42 14 24
f 42 7 12
f 42 24 21
f 42 21 7
f 43 13 21
f 43 21 24
f 43 41 13
f 43 25 41
f 44 24 14
f 44 14 25
f 44 43 24
f 44 25 43
f 45 27 4
f 45 4 11
f 45 11 19
f 45 19 36
f 45 36 15
f 45 15 27
f 46 26 9
f 46 9 28
f 46 28 15
f 47 7 29
f 47 16 38
f 48 29 21
f 48 3 29
f 48 21 40
f 48 40 22
f 48 39 3
f 49 28 9
f 49 39 28
f 49 30 3
f 49 3 39
f 50 29 3
f 50 3 30
f 50 30 32
f 51 31 1
f 51 17 31
f 51 32 17
f 51 1 38
f 51 38 16
f 51 16 32
f 52 31 9
f 52 9 26
f 52 5 31
f 53 32 30
f 53 9 32
f 53 49 9
f 53 30 49
f 54 32 16
f 54 50 32
f 54 29 50
f 54 47 29
f 54 16 47
f 55 33 18
f 55 18 10
f 55 41 33
f 55 22 41
f 56 10 18
f 56 18 34
f 56 39 10
f 57 4 27
f 57 35 4
f 57 34 18
f 57 18 35
f 58 27 15
f 58 56 34
f 58 39 56
f 58 15 28
f 58 28 39
f 58 57 27
f 58 34 57
f 59 36 19
f 59 19 5
f 59 52 36
f 59 5 52
f 60 15 36
f 60 46 15
f 60 26 46
f 60 52 26
f 60 36 52
f 61 37 20
f 61 1 37
f 61 38 1
f 62 37 2
f 62 2 23
f 62 23 42
f 62 20 37
f 62 42 12
f 62 12 20
f 63 20 12
f 63 47 38
f 63 12 7
f 63 7 47
f 63 61 20
f 63 38 61
f 64 10 39
f 64 55 10
f 64 22 55
f 64 48 22
f 64 39 48

