# https://github.com/mikedh/trimesh
v 0.04777020 -0.00070488 0.06001294
v 0.06179692 -0.00670089 0.03871376
v 0.06044938 0.00054353 0.03502210
v 0.03243762 0.01003448 0.00209899
v 0.03237566 -0.01785179 0.00719480
v 0.03296719 0.01395523 0.03722398
v 0.05623380 -0.00207398 0.05306913
v 0.04986084 -0.01026264 0.05704521
v 0.05818114 -0.00652813 0.01413424
v 0.03499753 0.01163386 0.00593419
v 0.03216771 0.00417320 0.05790799
v 0.05977899 -0.00346934 0.04607545
v 0.05284827 0.00042498 0.05505978
v 0.06098416 -0.01037717 0.02954628
v 0.04931640 -0.00778341 0.05967476
v 0.05144177 -0.00804300 0.00913629
v 0.03340495 0.01408887 0.03345521
v 0.05649197 -0.00182435 0.01239657
v 0.03230702 -0.01598490 0.00550515
v 0.03358773 -0.01071684 0.05746578
v 0.04798228 0.00049954 0.05870254
v 0.06173270 -0.00194410 0.03684345
v 0.05805629 -0.00081682 0.04791637
v 0.05805819 -0.00809697 0.04970353
v 0.05097693 -0.00077044 0.05820934
v 0.05674320 0.00050327 0.04808360
v 0.03267187 -0.01804503 0.01806141
v 0.05855233 -0.01036315 0.01732032
v 0.06040806 0.00045498 0.02240074
v 0.03304443 0.01207637 0.00322201
v 0.05140931 -0.00163329 0.00898024
v 0.05626474 -0.00809306 0.01247687
v 0.05318046 -0.00926245 0.01067892
v 0.03256342 -0.00490852 0.00210181
v 0.04615481 -0.00918131 0.06003601
v 0.05137056 0.00022795 0.05694137
v 0.06175512 -0.00349650 0.03876129
v 0.06175991 -0.00664790 0.02080628
v 0.05795345 -0.00204533 0.04969813
v 0.05437804 -0.00089537 0.05482777
v 0.05986690 -0.00075111 0.04240743
v 0.05979677 -0.00667299 0.04606865
v 0.06000462 -0.00928704 0.04245724
v 0.05447853 -0.00906273 0.05463398
v 0.04945673 -0.00182054 0.05978905
v 0.05856129 0.00060375 0.04252269
v 0.05720504 -0.01049024 0.04644807
v 0.06070852 -0.01046043 0.02404017
v 0.06174459 -0.00059744 0.02422699
v 0.05852334 0.00044152 0.01711162
v 0.05330239 -0.00049290 0.01047068
v 0.05986107 -0.00911599 0.01766764
v 0.04968763 -0.00936185 0.00898615
v 0.05334325 -0.01046282 0.01206430
v 0.03367982 -0.00804182 0.06041877
v 0.06187601 -0.00927760 0.03312226
v 0.05817129 -0.00174872 0.01419424
v 0.05631256 -0.00780430 0.05316602
v 0.06175058 -0.00058012 0.03317545
v 0.05826156 -0.00916623 0.04794052
v 0.05281744 -0.00893111 0.05644480
v 0.05906223 -0.01041322 0.04079433
v 0.05377087 -0.01021831 0.05359613
v 0.05971981 -0.00066778 0.01749645
f 11 6 4
f 17 6 3
f 19 11 4
f 19 5 11
f 21 11 1
f 21 6 11
f 25 21 1
f 26 6 13
f 27 8 20
f 27 20 11
f 27 11 5
f 29 17 3
f 29 10 17
f 30 17 10
f 30 4 6
f 30 6 17
f 31 18 16
f 32 18 9
f 32 16 18
f 33 5 19
f 33 16 32
f 34 19 4
f 34 31 16
f 34 4 31
f 35 20 8
f 35 8 15
f 36 13 6
f 36 6 21
f 36 21 25
f 37 12 2
f 39 23 7
f 39 12 23
f 39 24 12
f 40 7 23
f 40 25 7
f 40 36 25
f 40 13 36
f 40 26 13
f 40 23 26
f 41 23 12
f 41 37 22
f 41 12 37
f 42 2 12
f 42 12 24
f 43 2 42
f 45 25 1
f 45 7 25
f 45 35 15
f 45 1 35
f 46 3 6
f 46 6 26
f 46 41 3
f 46 26 23
f 46 23 41
f 48 27 5
f 48 14 27
f 48 5 28
f 49 29 3
f 50 30 10
f 50 10 29
f 51 18 31
f 51 31 4
f 51 4 30
f 52 32 9
f 52 28 32
f 52 9 38
f 52 48 28
f 52 38 48
f 53 33 19
f 53 16 33
f 53 34 16
f 53 19 34
f 54 33 32
f 54 32 28
f 54 28 5
f 54 5 33
f 55 35 1
f 55 1 11
f 55 11 20
f 55 20 35
f 56 48 38
f 56 14 48
f 56 2 43
f 56 38 49
f 56 37 2
f 57 38 9
f 57 9 18
f 57 18 51
f 57 51 30
f 57 30 50
f 58 39 7
f 58 24 39
f 58 7 45
f 59 41 22
f 59 3 41
f 59 49 3
f 59 56 49
f 59 22 37
f 59 37 56
f 60 43 42
f 60 42 24
f 60 47 43
f 60 58 44
f 60 24 58
f 61 15 8
f 61 44 58
f 61 58 45
f 61 45 15
f 62 47 27
f 62 27 14
f 62 43 47
f 62 56 43
f 62 14 56
f 63 8 27
f 63 27 47
f 63 61 8
f 63 44 61
f 63 60 44
f 63 47 60
f 64 50 29
f 64 29 49
f 64 57 50
f 64 49 38
f 64 38 57

