# https://github.com/mikedh/trimesh
v 0.00088403 0.03267920 0.06411390
v 0.00112707 0.02238665 0.06145915
v 0.00075062 0.03932291 0.05049798
v -0.02804275 0.03125153 0.05024110
v -0.03818396 0.00065773 0.06399764
v -0.01183416 0.03668711 0.06090143
v 0.00135466 0.02744384 0.06425978
v -0.03027511 -0.00902274 0.05781774
v 0.00072893 0.03715372 0.06095700
v -0.01204130 0.03899382 0.05034059
v -0.02328786 0.02847870 0.06365395
v 0.00105925 0.03179338 0.05072193
v -0.02639407 -0.00904594 0.06172620
v -0.04530995 0.00680116 0.05220977
v -0.01023785 0.03415525 0.06362653
v 0.00079441 0.03583219 0.06251502
v -0.04108581 0.01340478 0.05024233
v -0.01907533 0.03482441 0.05956670
v -0.00826403 0.03867673 0.05602814
v -0.03280928 0.00082057 0.06424940
v 0.00117778 0.02270042 0.05952230
v -0.02964534 -0.00884160 0.06201105
v -0.02669767 -0.00906060 0.05927191
v -0.04122256 0.00060012 0.06110659
v -0.03319548 0.02380075 0.05941422
v -0.01590647 0.03240968 0.06366795
v -0.00104243 0.03421039 0.06368683
v -0.03583287 0.00104490 0.05092760
v -0.02266554 0.03490551 0.05026314
v -0.01557188 0.03663542 0.05787945
v 0.00058486 0.03855540 0.05602617
v -0.03411468 0.01714312 0.06360753
v -0.02847629 -0.00907255 0.05855659
v -0.03518547 0.02415224 0.05025035
v -0.02796505 0.02927952 0.05949302
v -0.01378202 0.03510361 0.06230485
v -0.01734809 0.03496331 0.06090791
v -0.01722441 0.03674361 0.05410892
v -0.01197674 0.03868035 0.05219757
v -0.03888138 0.00971548 0.06243594
v -0.03685902 0.01846806 0.05956812
v -0.03318953 0.02552427 0.05398104
v -0.02449046 0.03279632 0.05596555
v -0.02977697 0.02574183 0.06197493
v -0.02273684 0.03130907 0.06216285
v -0.02251224 0.03463939 0.05212461
v -0.03800566 0.00623391 0.06373545
v -0.04066928 0.00611399 0.06098532
v -0.03692538 0.02035462 0.05404018
v -0.03876060 0.01325465 0.06088152
v -0.03502736 0.02208159 0.05775735
v -0.02960149 0.02918968 0.05407718
v -0.02258720 0.03304053 0.05951814
v -0.03520590 0.01852720 0.06220739
v -0.01912529 0.03321816 0.06216495
v -0.02790253 0.02757864 0.06198718
v -0.03598522 0.01353222 0.06360232
v -0.03868935 0.01492294 0.05944003
v -0.03497062 0.02392299 0.05208674
v -0.02786465 0.03101578 0.05215534
v -0.02442756 0.03123056 0.06085425
v -0.03709290 0.01506460 0.06217727
v -0.03511969 0.02022093 0.06085257
f 9 7 3
f 12 3 7
f 13 2 7
f 16 1 7
f 16 7 9
f 16 9 6
f 16 6 15
f 17 10 3
f 17 3 12
f 19 3 10
f 19 6 9
f 20 7 1
f 20 1 11
f 20 13 7
f 21 12 7
f 21 7 2
f 21 2 13
f 22 8 13
f 22 20 5
f 22 13 20
f 23 21 13
f 23 12 21
f 24 14 8
f 24 22 5
f 24 8 22
f 26 11 1
f 26 1 15
f 27 16 15
f 27 15 1
f 27 1 16
f 28 17 12
f 28 12 8
f 28 8 14
f 28 14 17
f 29 17 4
f 29 10 17
f 30 6 19
f 31 19 9
f 31 9 3
f 31 3 19
f 32 20 11
f 32 5 20
f 33 23 13
f 33 13 8
f 33 8 12
f 33 12 23
f 34 17 14
f 34 4 17
f 36 26 15
f 36 15 6
f 37 30 18
f 37 6 30
f 37 36 6
f 38 18 30
f 38 30 10
f 38 10 29
f 39 30 19
f 39 19 10
f 39 10 30
f 42 25 35
f 43 29 4
f 44 32 11
f 44 35 25
f 45 11 26
f 46 38 29
f 46 18 38
f 46 29 43
f 47 40 24
f 47 24 5
f 48 40 14
f 48 14 24
f 48 24 40
f 49 34 14
f 49 14 41
f 50 14 40
f 51 25 42
f 51 49 41
f 51 41 25
f 52 42 35
f 52 4 34
f 52 34 42
f 53 43 35
f 53 46 43
f 53 18 46
f 53 37 18
f 54 32 44
f 55 45 26
f 55 26 36
f 55 36 37
f 55 37 45
f 56 44 11
f 56 11 45
f 56 35 44
f 57 47 5
f 57 5 32
f 57 40 47
f 58 50 41
f 58 41 14
f 58 14 50
f 59 51 42
f 59 42 34
f 59 34 49
f 59 49 51
f 60 43 4
f 60 4 52
f 60 52 35
f 60 35 43
f 61 53 35
f 61 45 37
f 61 37 53
f 61 56 45
f 61 35 56
f 62 54 41
f 62 41 50
f 62 50 40
f 62 40 57
f 62 57 32
f 62 32 54
f 63 54 44
f 63 44 25
f 63 25 41
f 63 41 54

