# https://github.com/mikedh/trimesh
v 0.00918665 0.02936916 0.05321150
v 0.00935907 0.02894771 0.05279053
v 0.00791864 0.02266195 0.01392595
v -0.01128658 0.02133209 0.01399539
v -0.01022648 0.02883856 0.05301207
v -0.01234723 0.02031651 0.02036039
v 0.00879677 0.02887556 0.04369823
v 0.00849058 0.02233939 0.02225162
v -0.01188079 0.01955433 0.01381162
v -0.01146641 0.02343781 0.02731929
v -0.01228344 0.02120878 0.02510485
v 0.00875534 0.02979736 0.04738956
v 0.00937955 0.02709303 0.04303938
v -0.01038350 0.02036144 0.01368397
v 0.00838379 0.02109503 0.01372190
v -0.00958952 0.02973134 0.04830481
v -0.01203669 0.02173780 0.02709746
v 0.00852771 0.02425965 0.03266339
v 0.00886476 0.03009189 0.05308955
v 0.00886635 0.02822248 0.04173742
v -0.00590468 0.02323496 0.01395511
v 0.00842975 0.02137052 0.01558396
v 0.00918392 0.02647001 0.04132401
v -0.00320917 0.03081204 0.04734128
v -0.00596424 0.03075081 0.05312005
v -0.00949721 0.02213266 0.01401045
v 0.00599534 0.02320345 0.01397383
v 0.00601250 0.03080241 0.05012045
v -0.00501541 0.02975106 0.04368936
v 0.00603353 0.03081036 0.05303398
v -0.00594520 0.03082134 0.05009955
v -0.00967124 0.02992504 0.05303805
v -0.00129318 0.02417595 0.01589081
v 0.00509922 0.03074742 0.04828096
v 0.00327821 0.03080910 0.04736586
v 0.00140588 0.02416521 0.01588093
f 5 2 1
f 9 6 4
f 10 4 6
f 11 10 6
f 11 5 10
f 12 7 3
f 13 12 2
f 13 7 12
f 14 9 4
f 15 8 6
f 15 6 9
f 15 3 13
f 15 9 14
f 16 10 5
f 16 4 10
f 17 11 2
f 17 2 5
f 17 5 11
f 18 2 11
f 18 11 6
f 18 6 8
f 19 1 2
f 19 2 12
f 20 13 3
f 20 3 7
f 20 7 13
f 21 15 14
f 22 15 13
f 22 13 8
f 22 8 15
f 23 13 2
f 23 2 18
f 23 18 8
f 23 8 13
f 25 5 1
f 26 21 14
f 26 14 4
f 26 4 16
f 26 16 21
f 27 3 15
f 27 15 21
f 27 12 3
f 28 19 12
f 29 24 21
f 29 21 16
f 30 25 1
f 30 1 19
f 30 19 28
f 31 29 16
f 31 24 29
f 31 25 30
f 32 16 5
f 32 5 25
f 32 31 16
f 32 25 31
f 33 21 24
f 34 28 12
f 34 12 27
f 35 30 28
f 35 31 30
f 35 24 31
f 35 28 34
f 35 33 24
f 35 34 27
f 36 35 27
f 36 33 35
f 36 27 21
f 36 21 33

