# https://github.com/mikedh/trimesh
v 0.02067745 0.01239080 0.01395699
v 0.02372176 -0.00419632 0.01392895
v 0.02226237 0.00408017 0.00755986
v 0.01340754 0.01245118 0.00033416
v 0.01417162 -0.01123924 0.00294542
v 0.01945599 0.01226895 0.00851417
v 0.02343941 0.00597029 0.01396028
v 0.01876355 0.01295411 0.01378865
v 0.02124722 -0.00679327 0.00683373
v 0.01653561 0.00763331 0.00043951
v 0.02318999 0.00138110 0.00932993
v 0.02222753 0.00860857 0.01212320
v 0.02231456 -0.00447056 0.01366813
v 0.01436969 0.01336656 0.00466359
v 0.01829934 0.01330740 0.01273997
v 0.01996997 -0.01065574 0.00746687
v 0.02119925 0.00676774 0.00679547
v 0.01751488 0.01218598 0.00509353
v 0.01845606 -0.00134373 0.00126563
v 0.01376636 -0.01087400 0.00016055
v 0.02316347 0.00494482 0.01119317
v 0.02319990 -0.00314203 0.01022482
v 0.02124864 0.01038639 0.01123473
v 0.02250505 0.00872619 0.01395954
v 0.01743180 -0.01142499 0.00662850
v 0.02057622 -0.00960216 0.00751834
v 0.01758470 0.00410142 0.00040704
v 0.01564079 0.00937799 0.00042971
v 0.01945964 0.00855410 0.00513563
v 0.02224090 -0.00040646 0.00679725
v 0.01681462 -0.00682781 0.00043364
v 0.02217612 0.00766508 0.01027756
v 0.02322212 -0.00042389 0.00936724
v 0.02027841 0.01220050 0.01123110
v 0.01557525 -0.01147045 0.00449268
v 0.02322212 -0.00409589 0.01117224
v 0.02125500 0.00494045 0.00598655
v 0.01384968 0.01216780 0.00046452
v 0.02121747 -0.00496119 0.00595179
v 0.02225580 0.00049926 0.00677996
v 0.02027249 -0.00949374 0.00690154
v 0.01492679 -0.01041714 0.00052913
v 0.01751645 -0.00413112 0.00040830
v 0.02312212 0.00588719 0.01215809
v 0.02122539 0.00945774 0.00941137
v 0.02220827 0.00590478 0.00853834
v 0.02224529 -0.00410798 0.00764576
v 0.01837403 0.00583024 0.00221822
v 0.02041057 -0.00226692 0.00411807
v 0.02042588 0.00225076 0.00413510
v 0.01931362 -0.01033053 0.00605360
v 0.01846383 0.00136637 0.00123179
v 0.02030558 0.01129183 0.00941178
f 7 1 2
f 8 2 1
f 11 7 2
f 13 2 8
f 14 4 5
f 14 5 8
f 15 8 1
f 15 1 6
f 15 14 8
f 15 6 14
f 16 2 13
f 18 14 6
f 18 4 14
f 20 5 4
f 21 11 3
f 21 7 11
f 24 1 7
f 24 7 12
f 24 23 1
f 24 12 23
f 25 13 8
f 25 8 5
f 25 16 13
f 25 20 16
f 26 2 16
f 27 20 4
f 27 4 10
f 28 10 4
f 29 28 18
f 29 10 28
f 29 18 6
f 29 6 17
f 33 11 2
f 33 2 22
f 34 6 1
f 34 1 23
f 35 25 5
f 35 5 20
f 35 20 25
f 36 22 2
f 36 2 26
f 36 26 9
f 37 17 3
f 38 28 4
f 38 4 18
f 38 18 28
f 39 9 31
f 40 3 11
f 40 33 30
f 40 11 33
f 40 37 3
f 41 31 9
f 41 9 26
f 41 26 16
f 42 16 20
f 42 20 31
f 43 39 31
f 43 31 20
f 43 20 27
f 44 32 12
f 44 12 7
f 44 7 21
f 44 21 32
f 45 23 12
f 45 12 32
f 45 17 6
f 46 32 21
f 46 21 3
f 46 3 17
f 46 45 32
f 46 17 45
f 47 33 22
f 47 30 33
f 47 39 30
f 47 9 39
f 47 36 9
f 47 22 36
f 48 37 27
f 48 27 10
f 48 10 29
f 48 29 17
f 48 17 37
f 49 30 39
f 49 40 30
f 49 43 19
f 49 39 43
f 50 27 37
f 50 37 40
f 51 41 16
f 51 16 42
f 51 42 31
f 51 31 41
f 52 43 27
f 52 19 43
f 52 27 50
f 52 50 40
f 52 49 19
f 52 40 49
f 53 34 23
f 53 23 45
f 53 45 6
f 53 6 34

