# https://github.com/mikedh/trimesh
v -0.01962448 0.01145777 0.00752585
v -0.00710389 -0.00428742 0.00231221
v -0.00710351 0.00714575 0.00233295
v -0.01473122 0.01124425 0.00050136
v -0.01838950 -0.01117177 0.00519033
v -0.01189228 0.01194836 0.00009383
v -0.01174869 -0.01932328 0.00726370
v -0.02126497 0.00230772 0.00507307
v -0.01157878 -0.01347856 0.00017818
v -0.01722266 0.01229594 0.00684680
v -0.02138003 -0.00772621 0.00755102
v -0.01731851 0.00755933 0.00121035
v -0.01474441 -0.01568093 0.00513958
v -0.01137927 -0.01866389 0.00591705
v -0.01757082 -0.00409768 0.00042704
v -0.00710419 0.00714657 0.00146964
v -0.01186727 0.01190831 0.00227983
v -0.01750761 0.01129831 0.00414443
v -0.01316605 -0.01861413 0.00759356
v -0.02242788 0.00414667 0.00754704
v -0.01383258 -0.01206745 0.00061123
v -0.00710362 -0.00428762 0.00148985
v -0.01289730 -0.01376587 0.00143783
v -0.01664892 0.00766124 0.00035874
v -0.02213625 -0.00318128 0.00673505
v -0.01930853 -0.00768206 0.00422279
v -0.01925341 0.00941854 0.00513906
v -0.01864111 -0.01327196 0.00753440
v -0.01215218 -0.01838591 0.00611757
v -0.02126375 0.00583685 0.00597394
v -0.02139681 0.00774742 0.00754879
v -0.01560662 -0.01484785 0.00521690
v -0.01567152 -0.00944263 0.00049798
v -0.01292604 -0.01283158 0.00049371
v -0.01642258 0.00937514 0.00119762
v -0.01769493 0.00503033 0.00053120
v -0.02123943 -0.00227114 0.00507080
v -0.02207393 0.00408957 0.00675696
v -0.02246778 -0.00322072 0.00746930
v -0.01928009 -0.00950979 0.00513611
v -0.02112467 -0.00589081 0.00591059
v -0.01933676 0.01130616 0.00682451
v -0.01297235 -0.01835969 0.00689823
v -0.02109804 0.00763063 0.00683022
v -0.01838728 -0.01308608 0.00687612
v -0.01648733 -0.00765923 0.00045478
v -0.01838880 -0.00319491 0.00126967
v -0.01834720 0.00409859 0.00120389
v -0.02106304 -0.00766468 0.00681555
v -0.02032242 -0.00408626 0.00417697
f 7 2 3
f 10 7 3
f 10 1 7
f 10 6 4
f 14 2 7
f 15 6 9
f 16 9 6
f 16 6 3
f 17 10 3
f 17 3 6
f 17 6 10
f 18 10 4
f 18 1 10
f 19 7 1
f 20 11 19
f 22 14 9
f 22 2 14
f 22 9 16
f 22 16 3
f 22 3 2
f 24 4 6
f 24 6 15
f 28 19 11
f 28 13 19
f 29 14 7
f 29 13 23
f 29 23 9
f 29 9 14
f 30 27 12
f 31 20 19
f 31 19 1
f 31 30 20
f 32 21 13
f 32 13 28
f 33 21 5
f 34 9 23
f 34 33 9
f 34 21 33
f 34 23 13
f 34 13 21
f 35 18 4
f 35 4 24
f 35 27 18
f 35 24 12
f 35 12 27
f 36 24 15
f 36 12 24
f 36 30 12
f 37 25 8
f 38 8 25
f 38 30 8
f 38 20 30
f 39 11 20
f 39 38 25
f 39 20 38
f 40 33 5
f 41 25 37
f 41 15 26
f 41 39 25
f 41 11 39
f 41 26 40
f 42 1 18
f 42 18 27
f 43 29 7
f 43 7 19
f 43 19 13
f 43 13 29
f 44 27 30
f 44 30 31
f 44 42 27
f 44 31 1
f 44 1 42
f 45 5 21
f 45 21 32
f 45 32 28
f 45 40 5
f 45 28 40
f 46 15 9
f 46 9 33
f 46 26 15
f 46 40 26
f 46 33 40
f 47 37 8
f 48 8 30
f 48 30 36
f 48 47 8
f 48 36 15
f 48 15 47
f 49 40 28
f 49 28 11
f 49 41 40
f 49 11 41
f 50 41 37
f 50 37 47
f 50 47 15
f 50 15 41

