# https://github.com/mikedh/trimesh
v 0.01402064 0.01300663 0.00409490
v 0.01417162 -0.01123924 0.00294542
v 0.01340754 0.01245118 0.00033416
v -0.01184204 0.01285066 0.00004454
v -0.01186701 -0.01095662 0.00229390
v 0.01337419 0.01328006 0.00374940
v 0.01428547 0.01225604 0.00376639
v -0.01187267 0.01286801 0.00232184
v 0.01376636 -0.01087400 0.00016055
v -0.01193888 -0.01103391 0.00007764
v 0.01322154 -0.01133729 0.00245399
f 5 2 1
f 6 1 3
f 6 3 4
f 7 1 2
f 7 3 1
f 8 5 1
f 8 6 4
f 8 1 6
f 9 7 2
f 9 3 7
f 9 4 3
f 10 8 4
f 10 5 8
f 10 4 9
f 11 10 9
f 11 9 2
f 11 2 5
f 11 5 10

