# https://github.com/mikedh/trimesh
v 0.02520300 0.01877635 0.05300164
v 0.03071572 0.00519820 0.05316479
v 0.02281668 0.00787134 0.01392050
v 0.00791864 0.02266195 0.01392595
v 0.00886476 0.03009189 0.05308955
v 0.02428869 0.00549530 0.02697451
v 0.01671813 0.01757394 0.01497369
v 0.02880372 0.01142465 0.04749780
v 0.02571084 0.00509784 0.02725891
v 0.02119283 0.00835538 0.01370302
v 0.00848758 0.02447387 0.03361156
v 0.01954157 0.01407958 0.01397480
v 0.01694178 0.02603560 0.04741316
v 0.02892423 0.01231724 0.05299969
v 0.02995411 0.00505986 0.04459837
v 0.02627601 0.00501724 0.03017901
v 0.00838379 0.02109503 0.01372190
v 0.00789691 0.02816109 0.04080603
v 0.02994061 0.00538733 0.05307035
v 0.01409071 0.01952561 0.01399172
v 0.02129596 0.01129023 0.01400140
v 0.02327427 0.02046582 0.04739759
v 0.01881205 0.02516654 0.05299954
v 0.02698000 0.01594998 0.05013912
v 0.02701902 0.01599780 0.05301293
v 0.02987937 0.00969047 0.05106058
v 0.02977292 0.00864356 0.04742656
v 0.00852474 0.02265465 0.02406875
v 0.00855571 0.02650432 0.04092670
v 0.01055486 0.02885182 0.04558802
v 0.02551898 0.00553522 0.03360313
v 0.02055290 0.02317532 0.04746610
v 0.01133689 0.02123372 0.01404513
v 0.02219310 0.00948248 0.01401249
v 0.01761053 0.01668286 0.01499033
v 0.01248540 0.02891434 0.05294854
v 0.02418571 0.01961471 0.04830009
v 0.02890847 0.01226151 0.05013462
v 0.02596938 0.01689860 0.04745077
v 0.02986304 0.00964591 0.05300740
v 0.02980367 0.00596864 0.04462844
v 0.00937374 0.02903137 0.05299656
v 0.00884369 0.03004992 0.04919334
v 0.01873984 0.02508718 0.04926197
v 0.00873967 0.02238140 0.01396271
v 0.01414755 0.02787173 0.04832300
v 0.01605261 0.02704152 0.05297721
v 0.02513282 0.01872502 0.05013120
v 0.02042686 0.01306306 0.01495136
v 0.00884251 0.02909605 0.04454212
v 0.00795678 0.02844566 0.04166422
v 0.00968611 0.02994180 0.05300234
v 0.01239592 0.02881378 0.04924407
v 0.01603272 0.02695929 0.04925659
v 0.00971969 0.02981646 0.04923505
f 9 6 3
f 10 3 6
f 12 3 10
f 15 9 3
f 16 6 9
f 16 15 2
f 16 9 15
f 17 10 6
f 17 12 10
f 17 11 4
f 18 4 11
f 19 2 5
f 19 16 2
f 20 7 12
f 20 17 4
f 20 12 17
f 21 3 12
f 23 5 2
f 23 2 1
f 25 1 2
f 25 2 14
f 25 24 1
f 27 3 8
f 27 26 2
f 27 2 15
f 28 17 6
f 28 6 11
f 28 11 17
f 29 18 11
f 29 5 18
f 31 19 11
f 31 11 6
f 31 6 16
f 31 16 19
f 32 20 13
f 32 7 20
f 32 22 7
f 33 13 20
f 34 21 8
f 34 8 3
f 34 3 21
f 35 22 12
f 35 12 7
f 35 7 22
f 37 23 1
f 37 12 22
f 38 14 26
f 38 27 8
f 38 26 27
f 38 25 14
f 38 24 25
f 39 8 21
f 39 12 37
f 39 38 8
f 39 24 38
f 40 26 14
f 40 14 2
f 40 2 26
f 41 27 15
f 41 15 3
f 41 3 27
f 42 19 5
f 42 5 29
f 42 29 11
f 42 11 19
f 44 32 13
f 44 23 37
f 44 37 22
f 44 22 32
f 45 33 20
f 45 20 4
f 45 4 30
f 46 13 33
f 46 45 30
f 46 33 45
f 47 36 5
f 47 5 23
f 48 37 1
f 48 1 24
f 48 39 37
f 48 24 39
f 49 39 21
f 49 21 12
f 49 12 39
f 50 43 30
f 50 30 4
f 51 4 18
f 51 18 5
f 51 5 43
f 51 50 4
f 51 43 50
f 52 43 5
f 52 5 36
f 53 46 30
f 54 44 13
f 54 13 46
f 54 36 47
f 54 53 36
f 54 46 53
f 54 47 23
f 54 23 44
f 55 52 36
f 55 36 53
f 55 43 52
f 55 53 30
f 55 30 43

