# https://github.com/mikedh/trimesh
v 0.03086701 0.00510089 0.05301122
v 0.03087271 -0.00507737 0.05298487
v 0.02420062 0.00229381 0.01495801
v 0.02119283 0.00835538 0.01370302
v 0.02421787 -0.01037563 0.03460610
v 0.02281668 0.00787134 0.01392050
v 0.03082573 0.00325755 0.04736927
v 0.02880606 -0.01024319 0.05316901
v 0.02278248 -0.00786908 0.01391985
v 0.02493470 0.00798182 0.02722185
v 0.03084756 0.00503500 0.04919662
v 0.02960639 -0.00988365 0.05318370
v 0.02325383 0.00839635 0.02605050
v 0.03078869 -0.00322161 0.04739870
v 0.02120418 -0.00835763 0.01368947
v 0.02319971 0.00679751 0.01398421
v 0.02132658 0.00842801 0.01461951
v 0.03084001 -0.00502759 0.04918260
v 0.02994061 0.00538733 0.05307035
v 0.02890874 -0.00963389 0.04556938
v 0.02419929 -0.00133621 0.01494777
v 0.02447053 -0.00971964 0.02731016
v 0.02280381 -0.01019440 0.02707087
v 0.02995411 0.00505986 0.04459837
v 0.02989846 -0.00967031 0.05273912
v 0.02984879 -0.00963369 0.05104769
v 0.02328183 -0.01041620 0.02983356
v 0.02976306 -0.00772983 0.04652853
v 0.02313300 -0.00678929 0.01402858
v 0.02244032 0.00840827 0.02128952
v 0.02410900 0.00411978 0.01592827
v 0.03005099 -0.00877169 0.05304483
v 0.02984129 -0.00870693 0.04830680
v 0.02407305 -0.00502286 0.01686474
f 11 1 2
f 11 10 1
f 11 6 10
f 12 2 1
f 13 5 8
f 15 4 6
f 15 6 9
f 16 9 6
f 17 10 6
f 17 6 4
f 17 13 10
f 18 11 2
f 18 7 11
f 18 14 7
f 19 12 1
f 19 8 12
f 19 13 8
f 19 1 10
f 19 10 13
f 21 3 7
f 21 7 14
f 21 16 3
f 22 15 9
f 22 9 20
f 23 4 15
f 23 17 4
f 23 15 22
f 24 16 6
f 24 6 11
f 24 11 7
f 25 18 2
f 26 12 8
f 26 8 20
f 26 25 12
f 26 18 25
f 27 20 8
f 27 8 5
f 27 22 20
f 27 23 22
f 27 5 13
f 27 13 23
f 29 9 16
f 29 16 21
f 29 28 9
f 30 23 13
f 30 13 17
f 30 17 23
f 31 3 16
f 31 16 24
f 31 24 7
f 31 7 3
f 32 25 2
f 32 2 12
f 32 12 25
f 33 20 9
f 33 9 28
f 33 26 20
f 33 28 18
f 33 18 26
f 34 18 28
f 34 28 29
f 34 14 18
f 34 29 21
f 34 21 14

