# https://github.com/mikedh/trimesh
v -0.02674645 0.01511637 0.05318243
v -0.02017293 0.01532104 0.02987261
v -0.02023107 0.01113918 0.00856417
v -0.01828503 0.01036993 0.00674587
v -0.02318314 -0.00442555 0.01845544
v -0.01761119 0.01192760 0.00713171
v -0.02690705 0.01417424 0.04465853
v -0.03055505 -0.00143841 0.05315803
v -0.02234694 -0.00409750 0.00753337
v -0.01842120 0.01242910 0.00974500
v -0.01962448 0.01145777 0.00752585
v -0.02065217 -0.00432935 0.00701911
v -0.02218354 0.01531157 0.03738851
v -0.03078777 0.00601174 0.05304389
v -0.03114014 -0.00138969 0.04822815
v -0.01983781 0.01503538 0.02708608
v -0.02203623 0.00586613 0.00761643
v -0.02137619 -0.00447524 0.00875112
v -0.03114134 -0.00140424 0.05317222
v -0.02892221 0.01241964 0.05303388
v -0.02454141 -0.00420108 0.01867279
v -0.02214468 0.01402833 0.02735602
v -0.02112646 0.00858631 0.00765071
v -0.02302250 0.00403989 0.00932271
v -0.02802238 0.01426076 0.05308651
v -0.02969893 0.00961563 0.04831017
v -0.02315057 -0.00410876 0.01022685
v -0.02026263 0.01037754 0.00764644
v -0.02988474 0.00966395 0.05303148
v -0.02781645 0.01418154 0.04834180
v -0.02202851 0.00766858 0.00937733
v -0.03071849 0.00322267 0.04642427
v -0.02309651 -0.00319121 0.00935052
v -0.02109779 0.00941655 0.00854292
v -0.03074689 0.00597560 0.04920072
v -0.02882458 0.01236786 0.04924191
v -0.02302556 0.00496923 0.01024644
v -0.03090251 0.00045068 0.04643030
v -0.02111885 0.01037642 0.01027669
v -0.02968659 0.00778802 0.04559875
f 8 5 2
f 11 6 4
f 11 10 6
f 11 3 7
f 12 6 2
f 12 2 5
f 12 4 6
f 13 7 1
f 13 2 7
f 13 8 2
f 13 1 8
f 16 2 6
f 16 6 10
f 17 12 9
f 17 4 12
f 18 12 5
f 18 9 12
f 19 8 1
f 19 1 14
f 19 14 15
f 19 5 8
f 21 19 15
f 21 5 19
f 21 18 5
f 22 11 7
f 22 7 2
f 22 2 16
f 22 16 10
f 22 10 11
f 23 11 4
f 23 4 17
f 24 17 9
f 25 14 1
f 27 21 15
f 27 9 18
f 27 18 21
f 28 3 11
f 28 11 23
f 29 25 20
f 29 14 25
f 30 25 1
f 30 1 7
f 30 7 3
f 31 23 17
f 33 24 9
f 33 9 27
f 33 27 15
f 34 28 23
f 34 3 28
f 34 23 31
f 35 29 26
f 35 14 29
f 35 15 14
f 36 29 20
f 36 26 29
f 36 20 25
f 36 25 30
f 36 31 26
f 37 31 17
f 37 17 24
f 38 32 24
f 38 35 32
f 38 15 35
f 38 33 15
f 38 24 33
f 39 30 3
f 39 3 34
f 39 36 30
f 39 34 31
f 39 31 36
f 40 24 32
f 40 32 35
f 40 37 24
f 40 35 26
f 40 26 31
f 40 31 37

