# https://github.com/mikedh/trimesh
v -0.00703573 -0.02502492 0.02719020
v -0.00745011 -0.02355227 0.02696478
v -0.02396098 -0.01081212 0.02720814
v -0.01825348 -0.01038803 0.00671777
v -0.00719827 -0.01978268 0.00697965
v -0.02219218 -0.01137301 0.02701172
v -0.00684727 -0.02435729 0.02254013
v -0.02148489 -0.00958331 0.01019691
v -0.01582305 -0.02025075 0.02356964
v -0.01477123 -0.01744834 0.00765201
v -0.01040394 -0.02211207 0.01591399
v -0.01505408 -0.02146547 0.02731410
v -0.01842444 -0.01483949 0.01026781
v -0.00830608 -0.01920956 0.00675840
v -0.00765908 -0.02312282 0.01589659
v -0.01305180 -0.02023120 0.01307600
v -0.02323692 -0.01232018 0.02735163
v -0.00960363 -0.02420796 0.02733280
v -0.01476398 -0.01840719 0.01028033
v -0.01826483 -0.01398256 0.00770621
v -0.00686907 -0.02161106 0.00749965
v -0.00685749 -0.02334403 0.01586655
v -0.01313044 -0.02211633 0.02449898
v -0.02145408 -0.01504891 0.02730649
v -0.02207420 -0.00987585 0.01386691
v -0.00771640 -0.02412041 0.02256319
v -0.00950277 -0.02307208 0.01972600
v -0.01653886 -0.01659245 0.00939532
v -0.02016660 -0.01214591 0.01027432
v -0.02061984 -0.00960838 0.00750090
v -0.01215741 -0.01929546 0.00767198
v -0.00767249 -0.02216261 0.01022964
v -0.00684369 -0.02240985 0.01019730
v -0.01129507 -0.02308582 0.02449975
v -0.01849093 -0.01754932 0.02263281
v -0.02019533 -0.01304253 0.01307752
v -0.01664244 -0.01938298 0.02263786
v -0.02111402 -0.01039661 0.01028552
v -0.02207434 -0.01123825 0.01783215
v -0.02017772 -0.01123107 0.00853625
v -0.01209706 -0.02020981 0.01030733
v -0.02027466 -0.01036195 0.00760933
v -0.00847386 -0.02109865 0.00769353
v -0.01120748 -0.02017072 0.00859021
f 1 2 3
f 5 4 2
f 6 3 2
f 6 2 4
f 7 5 2
f 7 2 1
f 8 6 4
f 8 3 6
f 14 10 4
f 14 4 5
f 16 12 9
f 17 1 3
f 18 17 12
f 18 1 17
f 19 16 9
f 20 4 10
f 21 14 5
f 21 5 7
f 22 7 1
f 22 1 15
f 23 16 11
f 23 12 16
f 24 12 17
f 25 17 3
f 25 3 8
f 26 18 15
f 26 15 1
f 26 1 18
f 27 11 15
f 27 15 18
f 28 10 19
f 28 20 10
f 28 13 20
f 29 20 13
f 30 8 4
f 30 4 20
f 31 10 14
f 31 14 21
f 31 19 10
f 32 15 11
f 33 21 7
f 33 7 22
f 33 32 21
f 33 22 15
f 33 15 32
f 34 18 12
f 34 12 23
f 34 23 11
f 34 27 18
f 34 11 27
f 35 12 24
f 35 24 13
f 35 13 28
f 36 24 17
f 36 13 24
f 36 29 13
f 37 28 19
f 37 19 9
f 37 35 28
f 37 9 12
f 37 12 35
f 38 29 25
f 38 25 8
f 39 17 25
f 39 25 29
f 39 36 17
f 39 29 36
f 40 20 29
f 40 29 38
f 40 38 8
f 40 8 30
f 41 16 19
f 41 19 31
f 41 32 11
f 41 11 16
f 42 40 30
f 42 30 20
f 42 20 40
f 43 31 21
f 43 21 32
f 44 41 31
f 44 31 43
f 44 43 32
f 44 32 41

