# https://github.com/mikedh/trimesh
v 0.02960639 -0.00988365 0.05318370
v 0.02911777 -0.01151137 0.05312483
v 0.02447053 -0.00971964 0.02731016
v 0.02280381 -0.01019440 0.02707087
v 0.01272177 -0.02867408 0.05318544
v 0.02912474 -0.00969806 0.04645603
v 0.02519368 -0.01876911 0.05300051
v 0.02880606 -0.01024319 0.05316901
v 0.01549751 -0.02107041 0.02722762
v 0.02893530 -0.01145606 0.04832508
v 0.01318750 -0.02778384 0.05315747
v 0.02153857 -0.01252000 0.02692973
v 0.01962800 -0.02412094 0.04837118
v 0.02894779 -0.01238033 0.05268692
v 0.02510028 -0.01781064 0.04651597
v 0.02885864 -0.01056324 0.04652655
v 0.02455239 -0.01051045 0.03639811
v 0.01657597 -0.01851635 0.02693817
v 0.02221302 -0.01398415 0.02740324
v 0.01883742 -0.02518455 0.05302163
v 0.01268465 -0.02853748 0.04821679
v 0.02886389 -0.01238614 0.05107854
v 0.02800326 -0.01422236 0.05300123
v 0.02701235 -0.01509770 0.04741475
v 0.02423695 -0.01958013 0.04830565
v 0.02793586 -0.01234312 0.04556823
v 0.01323782 -0.02685792 0.04796875
v 0.01689610 -0.02600288 0.04747359
v 0.01608179 -0.02706440 0.05299345
v 0.02702771 -0.01600038 0.05298585
v 0.02796209 -0.01418703 0.05012320
v 0.02416908 -0.01048075 0.02737610
v 0.02603760 -0.01595280 0.04556637
v 0.02147708 -0.02230060 0.04744957
v 0.02323309 -0.01952253 0.04465729
v 0.02608166 -0.01695079 0.04830120
v 0.02794293 -0.01326525 0.04740698
v 0.01603467 -0.02603647 0.04556060
v 0.01869987 -0.02408242 0.04562550
v 0.01874961 -0.02513193 0.05016228
v 0.01428005 -0.02807647 0.05300370
v 0.01601438 -0.02694422 0.04928310
v 0.02700794 -0.01600491 0.05107556
v 0.02326106 -0.02046569 0.04744459
v 0.01683560 -0.02029658 0.02832861
v 0.01414345 -0.02784825 0.04835286
v 0.01610802 -0.02064515 0.02731638
v 0.02054107 -0.02227084 0.04464707
v 0.02510051 -0.01874387 0.05013767
v 0.02037141 -0.01668657 0.02834364
f 1 3 4
f 6 3 1
f 7 2 1
f 7 1 5
f 8 5 1
f 8 1 4
f 10 6 1
f 11 5 8
f 12 4 3
f 14 1 2
f 16 3 6
f 16 6 10
f 17 11 8
f 17 8 4
f 17 4 11
f 18 11 4
f 18 4 12
f 19 12 3
f 19 18 12
f 19 9 18
f 20 7 5
f 22 10 1
f 22 1 14
f 23 14 2
f 25 7 20
f 26 16 10
f 26 3 16
f 27 5 11
f 27 11 18
f 27 21 5
f 27 18 9
f 27 9 21
f 29 20 5
f 30 23 2
f 30 2 7
f 31 22 14
f 31 14 23
f 31 10 22
f 32 19 3
f 32 26 24
f 32 3 26
f 33 15 19
f 33 32 24
f 33 19 32
f 34 25 20
f 35 19 15
f 35 15 25
f 36 25 15
f 36 24 31
f 36 33 24
f 36 15 33
f 37 26 10
f 37 24 26
f 37 31 24
f 37 10 31
f 38 9 28
f 39 13 28
f 40 28 13
f 40 20 29
f 40 34 20
f 40 13 34
f 41 29 5
f 41 5 21
f 42 40 29
f 42 28 40
f 42 29 41
f 43 31 23
f 43 23 30
f 43 36 31
f 43 30 7
f 44 35 25
f 44 25 34
f 44 34 35
f 46 21 9
f 46 9 38
f 46 38 28
f 46 28 42
f 46 42 41
f 46 41 21
f 47 39 28
f 47 28 9
f 47 9 19
f 48 34 13
f 48 13 39
f 48 39 47
f 48 47 45
f 48 45 35
f 48 35 34
f 49 43 7
f 49 7 25
f 49 25 36
f 49 36 43
f 50 19 35
f 50 35 45
f 50 47 19
f 50 45 47

