# https://github.com/mikedh/trimesh
v 0.01409071 0.01952561 0.01399172
v 0.02040756 0.01278644 0.01383616
v 0.01340754 0.01245118 0.00033416
v -0.01184204 0.01285066 0.00004454
v -0.01229350 0.01928839 0.01369983
v 0.01969236 0.01235151 0.00931847
v 0.00414095 0.02222381 0.00761189
v -0.01128658 0.02133209 0.01399539
v -0.01217937 0.01317148 0.00249404
v 0.01410983 0.01232347 0.00095047
v 0.01851149 0.01478142 0.01120518
v 0.01125634 0.01925402 0.00685137
v 0.00597729 0.01667302 0.00045119
v 0.01954157 0.01407958 0.01397480
v 0.00508324 0.02340029 0.01394835
v -0.00670460 0.02120775 0.00675468
v -0.01124865 0.02021099 0.00849375
v 0.01931552 0.01303302 0.00945841
v 0.01393734 0.01745925 0.00686223
v 0.00874759 0.01571507 0.00034927
v 0.01581035 0.01752839 0.01121362
v 0.01943969 0.01400839 0.01303852
v 0.00873967 0.02238140 0.01396271
v -0.00676761 0.01655596 0.00047179
v -0.00313989 0.02315210 0.01023105
v -0.01122598 0.01839718 0.00512452
v 0.01754828 0.01308297 0.00600014
v 0.01220629 0.01390131 0.00047317
v 0.01844147 0.01384474 0.00855173
v 0.00678587 0.01938080 0.00421033
v 0.01219495 0.02022499 0.01119194
v 0.00769469 0.02208738 0.01025571
v -0.00039960 0.02035361 0.00412980
v 0.00323809 0.02315325 0.01022761
v -0.00590468 0.02323496 0.01395511
v -0.01122695 0.01471500 0.00054330
v -0.00949063 0.02022702 0.00680639
v -0.00767183 0.01843818 0.00330839
v 0.01787880 0.01235575 0.00576608
v 0.01305519 0.01305072 0.00047817
v 0.01125933 0.01742965 0.00422867
v 0.01750307 0.01396185 0.00690042
v 0.01488698 0.01753799 0.00849844
v 0.00681141 0.02118286 0.00686001
v 0.00502906 0.02314036 0.01207784
v 0.00953677 0.02118364 0.00933253
v -0.00406594 0.01936807 0.00324181
v 0.00324222 0.01941675 0.00320583
v -0.00407551 0.02222932 0.00762526
v 0.00593511 0.02214733 0.00847678
v -0.00763712 0.02214584 0.01026454
v -0.00948485 0.01553262 0.00045998
v -0.00585292 0.02217894 0.00845055
v 0.01033068 0.01648882 0.00232597
v 0.00858370 0.01934978 0.00510308
v 0.01032564 0.02021391 0.00768421
v 0.01402458 0.01940166 0.01310484
v 0.00864701 0.02209498 0.01216040
v 0.01042489 0.02116729 0.01121636
v -0.00497477 0.02121743 0.00597520
v 0.00502644 0.01841371 0.00232658
v 0.00499081 0.02120159 0.00603810
v -0.00854736 0.02218596 0.01211030
v -0.00587769 0.02311766 0.01301770
f 6 2 4
f 8 5 2
f 9 4 2
f 9 2 5
f 10 6 4
f 10 4 3
f 14 8 2
f 14 1 8
f 17 5 8
f 18 2 6
f 20 3 4
f 20 4 13
f 21 14 11
f 21 1 14
f 22 14 2
f 22 11 14
f 22 18 11
f 22 2 18
f 23 15 8
f 23 8 1
f 24 13 4
f 26 9 5
f 26 5 17
f 26 4 9
f 28 3 20
f 29 11 18
f 29 18 6
f 30 20 13
f 31 23 1
f 33 13 24
f 34 25 15
f 35 8 15
f 35 15 25
f 36 4 26
f 37 26 17
f 38 37 16
f 38 26 37
f 39 6 10
f 39 10 27
f 39 29 6
f 40 10 3
f 40 3 28
f 41 12 19
f 41 19 28
f 42 27 10
f 42 10 40
f 42 40 28
f 42 28 19
f 42 39 27
f 42 29 39
f 43 21 11
f 43 11 29
f 43 19 12
f 43 42 19
f 43 29 42
f 45 15 23
f 45 23 32
f 45 34 15
f 47 33 24
f 48 13 33
f 49 7 33
f 49 34 7
f 49 25 34
f 50 7 34
f 50 44 7
f 50 46 44
f 50 32 46
f 50 45 32
f 50 34 45
f 52 36 26
f 52 24 4
f 52 4 36
f 52 38 24
f 52 26 38
f 53 37 17
f 53 16 37
f 53 17 51
f 53 49 16
f 53 25 49
f 54 41 28
f 54 28 20
f 55 12 41
f 55 30 44
f 55 41 54
f 55 54 20
f 55 20 30
f 56 43 12
f 56 31 43
f 56 46 31
f 56 44 46
f 56 55 44
f 56 12 55
f 57 43 31
f 57 31 1
f 57 1 21
f 57 21 43
f 58 46 32
f 58 32 23
f 59 23 31
f 59 31 46
f 59 58 23
f 59 46 58
f 60 38 16
f 60 16 49
f 60 49 33
f 60 33 47
f 60 47 24
f 60 24 38
f 61 30 13
f 61 13 48
f 62 48 33
f 62 33 7
f 62 7 44
f 62 44 30
f 62 61 48
f 62 30 61
f 63 51 17
f 63 17 8
f 63 8 35
f 64 35 25
f 64 53 51
f 64 25 53
f 64 63 35
f 64 51 63

