# https://github.com/mikedh/trimesh
v -0.00985409 -0.02971378 0.05321420
v -0.01026977 -0.02888647 0.05301587
v -0.02804042 -0.01428592 0.05305901
v -0.02503514 -0.00803689 0.02717980
v -0.01043405 -0.02244815 0.02698813
v -0.02678620 -0.00828547 0.04125054
v -0.02775058 -0.01314419 0.05315696
v -0.01044804 -0.02353858 0.03263227
v -0.01955129 -0.02413510 0.04747211
v -0.02844112 -0.00794573 0.04162427
v -0.02342977 -0.00854346 0.02694330
v -0.01781146 -0.02607720 0.05300287
v -0.00966444 -0.02435219 0.02827422
v -0.02552565 -0.00853189 0.03730825
v -0.02498926 -0.01777561 0.04561359
v -0.02526047 -0.00785129 0.02824162
v -0.02870791 -0.01271680 0.05316074
v -0.01943077 -0.01764935 0.02737469
v -0.01229036 -0.02879802 0.04832440
v -0.02235901 -0.02240115 0.05270394
v -0.02785864 -0.01326914 0.04652859
v -0.02818415 -0.00788934 0.04076315
v -0.02594508 -0.01784410 0.05300543
v -0.02215322 -0.01405461 0.02737127
v -0.01218987 -0.02309490 0.02735166
v -0.02224645 -0.02141242 0.04654901
v -0.01589896 -0.02691074 0.04835143
v -0.01239044 -0.02901730 0.05299558
v -0.00970060 -0.02909972 0.04551084
v -0.02143990 -0.02327671 0.05199295
v -0.02777569 -0.00955473 0.04087959
v -0.02781320 -0.01416457 0.04836526
v -0.02410807 -0.01960689 0.04742688
v -0.02406849 -0.01863770 0.04465741
v -0.02414308 -0.01048110 0.02735525
v -0.02592539 -0.01592359 0.04469946
v -0.01667414 -0.02031445 0.02739131
v -0.00989158 -0.02408429 0.02718660
v -0.01774808 -0.02605693 0.05111836
v -0.01314336 -0.02687592 0.04281620
v -0.02144457 -0.02328904 0.05269361
v -0.02136555 -0.02230347 0.04655038
v -0.02599602 -0.01778866 0.05108538
v -0.02219412 -0.02048204 0.04378562
v -0.02234125 -0.02238876 0.05200184
v -0.02688539 -0.01414694 0.04465128
v -0.02692325 -0.01598635 0.04923353
v -0.01682345 -0.02593285 0.04657958
v -0.01137565 -0.02882120 0.04652594
v -0.01862450 -0.02506726 0.04833975
v -0.01765069 -0.02504286 0.04566435
v -0.01050664 -0.02886997 0.04559957
f 7 1 2
f 7 2 6
f 8 2 1
f 11 8 5
f 13 8 1
f 13 5 8
f 14 6 2
f 14 2 8
f 14 11 6
f 14 8 11
f 16 4 10
f 16 11 4
f 16 6 11
f 17 7 6
f 17 6 10
f 17 12 1
f 17 1 7
f 18 11 5
f 21 17 10
f 22 16 10
f 22 10 6
f 22 6 16
f 23 17 3
f 23 12 17
f 23 20 12
f 24 4 11
f 24 11 18
f 28 19 1
f 28 1 12
f 28 27 19
f 29 13 1
f 29 1 19
f 31 21 10
f 31 10 4
f 31 4 21
f 32 3 17
f 32 17 21
f 34 24 18
f 34 15 24
f 34 33 15
f 35 21 4
f 35 4 24
f 36 24 15
f 36 35 24
f 36 32 21
f 37 18 5
f 38 5 13
f 38 13 29
f 38 37 5
f 38 25 37
f 39 12 30
f 39 28 12
f 39 27 28
f 41 30 12
f 41 12 20
f 41 20 30
f 42 9 30
f 42 37 9
f 42 26 18
f 42 18 37
f 43 23 3
f 43 20 23
f 44 18 26
f 44 26 33
f 44 34 18
f 44 33 34
f 45 30 20
f 45 43 33
f 45 20 43
f 45 33 26
f 45 42 30
f 45 26 42
f 46 36 21
f 46 21 35
f 46 35 36
f 47 36 15
f 47 32 36
f 47 15 33
f 47 33 43
f 47 43 3
f 47 3 32
f 48 37 25
f 48 40 27
f 48 25 40
f 49 29 19
f 49 25 38
f 49 40 25
f 49 19 27
f 49 27 40
f 50 27 39
f 50 48 27
f 50 9 48
f 50 39 30
f 50 30 9
f 51 48 9
f 51 9 37
f 51 37 48
f 52 49 38
f 52 38 29
f 52 29 49

