# https://github.com/mikedh/trimesh
v 0.01318750 -0.02778384 0.05315747
v 0.01624987 -0.02499741 0.04793597
v -0.01026977 -0.02888647 0.05301587
v -0.00719827 -0.01978268 0.00697965
v 0.00769512 -0.02211441 0.01024366
v 0.01627989 -0.01920236 0.02892329
v 0.01524425 -0.02721653 0.04832319
v -0.00318767 -0.03080840 0.04737723
v 0.01621829 -0.02107201 0.03650089
v -0.01034745 -0.02321967 0.03079050
v 0.01323708 -0.01613915 0.00681822
v 0.01509572 -0.02137479 0.02735292
v -0.00679526 -0.02223266 0.00930478
v 0.00510778 -0.03076673 0.04831100
v -0.01038487 -0.02427659 0.03547572
v 0.00506803 -0.02212709 0.00772079
v -0.01007954 -0.02263651 0.02711221
v 0.01351205 -0.01646139 0.00758565
v 0.01227631 -0.01945255 0.00845885
v -0.00961512 -0.02976819 0.04833220
v 0.01057063 -0.02880630 0.04557247
v 0.00972797 -0.02994809 0.05299117
v 0.01255229 -0.01647643 0.00655411
v -0.00496967 -0.02213404 0.00764056
v 0.00236098 -0.02319430 0.01022463
v 0.00416178 -0.02316077 0.01114674
v -0.00686907 -0.02161106 0.00749965
v 0.01608039 -0.01896207 0.02707016
v 0.01311973 -0.02024267 0.01402671
v 0.01038975 -0.02119862 0.01118032
v 0.01248086 -0.01889149 0.00749457
v 0.01033909 -0.02021634 0.00765244
v -0.00501918 -0.03077697 0.04832755
v -0.00960363 -0.02420796 0.02733280
v -0.00962692 -0.02887095 0.04464749
v 0.00878214 -0.02979491 0.04737084
v 0.01243187 -0.02896389 0.05299633
v -0.00964965 -0.02994051 0.05308003
v 0.00329558 -0.03080606 0.04738867
v -0.00226524 -0.02319139 0.01020299
v -0.00747223 -0.02048204 0.00866517
v 0.01219638 -0.02025996 0.01120840
v 0.00953902 -0.02118054 0.00939694
v 0.01323521 -0.02790496 0.04652614
v -0.00599780 -0.03086376 0.05302112
v 0.00604274 -0.03081982 0.05009758
v 0.01242203 -0.02880887 0.04923991
v -0.00407625 -0.02316460 0.01114259
v 0.00606650 -0.03084630 0.05301780
v -0.00595127 -0.03084966 0.05009049
v 0.00966338 -0.02980708 0.04921899
f 1 2 3
f 7 2 1
f 9 3 2
f 9 2 6
f 11 10 6
f 12 6 2
f 12 2 7
f 15 9 6
f 15 6 10
f 15 3 9
f 17 11 4
f 17 10 11
f 23 16 4
f 23 4 11
f 24 4 16
f 25 24 16
f 26 16 5
f 26 25 16
f 27 24 13
f 27 4 24
f 28 18 11
f 28 11 6
f 28 6 12
f 29 12 7
f 29 28 12
f 31 11 18
f 31 29 19
f 31 18 28
f 31 28 29
f 31 23 11
f 32 31 19
f 32 16 23
f 32 23 31
f 33 20 13
f 34 10 17
f 34 27 13
f 35 15 10
f 35 10 34
f 35 34 13
f 35 13 20
f 35 20 3
f 35 3 15
f 36 5 21
f 36 26 5
f 36 14 26
f 37 7 1
f 37 1 22
f 38 1 3
f 38 3 20
f 39 8 25
f 39 26 14
f 39 25 26
f 40 25 8
f 40 24 25
f 41 17 4
f 41 4 27
f 41 34 17
f 41 27 34
f 42 29 7
f 42 19 29
f 43 21 5
f 43 5 16
f 43 16 32
f 43 32 19
f 43 42 30
f 43 19 42
f 44 43 30
f 44 21 43
f 44 42 7
f 44 30 42
f 46 14 36
f 46 39 14
f 47 37 22
f 47 36 21
f 47 21 44
f 47 44 7
f 47 7 37
f 48 33 13
f 48 13 24
f 48 24 40
f 48 40 8
f 48 8 33
f 49 22 1
f 49 1 38
f 49 38 45
f 49 46 22
f 49 39 46
f 50 45 38
f 50 38 20
f 50 20 33
f 50 33 8
f 50 8 39
f 50 49 45
f 50 39 49
f 51 46 36
f 51 22 46
f 51 47 22
f 51 36 47

