# https://github.com/mikedh/trimesh
v 0.02500700 -0.00801085 0.02720356
v 0.02447053 -0.00971964 0.02731016
v 0.02216371 -0.00770161 0.01023362
v 0.02031377 -0.00441576 0.00673033
v 0.01375230 -0.02219220 0.02719209
v 0.02372176 -0.00419632 0.01392895
v 0.02403537 -0.00861842 0.02259523
v 0.01509572 -0.02137479 0.02735292
v 0.02404321 -0.00537094 0.02512712
v 0.01248086 -0.01889149 0.00749457
v 0.02321788 -0.00588925 0.01306450
v 0.02207531 -0.00423125 0.00730244
v 0.01436931 -0.02024061 0.02701743
v 0.01845762 -0.01478432 0.01121403
v 0.02231456 -0.00447056 0.01366813
v 0.02546258 -0.00508265 0.02537744
v 0.01248397 -0.01983936 0.01015854
v 0.02252117 -0.00413815 0.00839237
v 0.01854174 -0.01309858 0.00764487
v 0.02346609 -0.00847165 0.02696069
v 0.01323708 -0.01613915 0.00681822
v 0.02120094 -0.01122837 0.01307808
v 0.02148929 -0.01501208 0.02735386
v 0.02339000 -0.00412472 0.01208675
v 0.02528318 -0.00595042 0.02542068
v 0.01408887 -0.02033736 0.01783794
v 0.01393422 -0.01836664 0.00856730
v 0.02218055 -0.00591691 0.00849645
v 0.02029630 -0.01030015 0.00767709
v 0.01344476 -0.02169594 0.02346240
v 0.02215524 -0.01035020 0.01593265
v 0.01930437 -0.01300523 0.00942090
v 0.02329077 -0.01229563 0.02737481
v 0.01767921 -0.01852960 0.02357185
v 0.02324002 -0.00501389 0.01212539
v 0.01319305 -0.01852797 0.00769254
v 0.01479087 -0.01847411 0.01126936
v 0.01842781 -0.01385071 0.00856591
v 0.02131047 -0.00769582 0.00761575
v 0.02123890 -0.00948374 0.00938719
v 0.01283932 -0.02037161 0.01383479
v 0.02032256 -0.01300539 0.01403419
v 0.01856213 -0.01762600 0.02355375
v 0.01578933 -0.01939272 0.01973777
v 0.01313720 -0.01942950 0.01025239
v 0.01757839 -0.01757080 0.01879899
v 0.02137601 -0.01392908 0.02260422
v 0.01492926 -0.01934911 0.01595313
v 0.01575767 -0.01847767 0.01500640
f 7 1 2
f 7 2 3
f 8 2 1
f 11 7 3
f 11 1 7
f 13 8 1
f 13 5 8
f 13 9 4
f 15 4 9
f 16 9 1
f 16 15 9
f 16 6 15
f 16 11 6
f 18 12 4
f 20 13 1
f 20 1 9
f 20 9 13
f 21 13 4
f 21 10 17
f 21 19 10
f 21 4 19
f 24 15 6
f 24 4 15
f 24 18 4
f 25 16 1
f 25 1 11
f 25 11 16
f 26 8 5
f 28 12 18
f 29 19 4
f 29 4 12
f 30 21 17
f 30 5 13
f 30 13 21
f 31 3 2
f 32 19 29
f 33 2 8
f 33 8 23
f 33 31 2
f 33 22 31
f 34 23 8
f 35 24 6
f 35 6 11
f 35 11 3
f 35 3 28
f 35 28 18
f 35 18 24
f 36 27 17
f 36 17 10
f 36 10 19
f 37 27 14
f 38 14 27
f 38 32 14
f 38 19 32
f 38 36 19
f 38 27 36
f 39 29 12
f 39 12 28
f 39 28 3
f 40 32 29
f 40 22 32
f 40 31 22
f 40 3 31
f 40 39 3
f 40 29 39
f 41 26 5
f 41 5 30
f 41 30 17
f 42 14 32
f 42 32 22
f 42 22 33
f 43 14 23
f 43 23 34
f 44 34 8
f 45 17 27
f 45 27 37
f 45 41 17
f 45 37 26
f 45 26 41
f 46 43 34
f 46 14 43
f 47 23 14
f 47 14 42
f 47 42 33
f 47 33 23
f 48 44 8
f 48 8 26
f 48 26 37
f 49 34 44
f 49 46 34
f 49 37 14
f 49 14 46
f 49 48 37
f 49 44 48

