# https://github.com/mikedh/trimesh
v -0.03055505 -0.00143841 0.05315803
v -0.02475949 -0.01312633 0.04124360
v -0.02522810 0.00049154 0.02890496
v -0.02022341 -0.00541854 0.00670334
v -0.02968760 -0.00956706 0.04832225
v -0.01865208 -0.01006823 0.00707776
v -0.02718885 0.00048716 0.03836478
v -0.02775058 -0.01314419 0.05315696
v -0.02492934 0.00047122 0.01861331
v -0.02219218 -0.01137301 0.02701172
v -0.02362496 0.00047574 0.01853065
v -0.02205242 -0.00764394 0.00941996
v -0.03082568 -0.00599965 0.05302996
v -0.03119556 0.00046744 0.04822239
v -0.02029135 -0.01143710 0.01652906
v -0.02427282 0.00048810 0.02320117
v -0.02234694 -0.00409750 0.00753337
v -0.02885371 -0.01234405 0.04928660
v -0.03114134 -0.00140424 0.05317222
v -0.02986405 0.00046854 0.04794205
v -0.03073942 -0.00599889 0.04921921
v -0.02171550 -0.01065386 0.01393461
v -0.02065217 -0.00432935 0.00701911
v -0.02061984 -0.00960838 0.00750090
v -0.02331168 -0.00415030 0.01111910
v -0.02878421 -0.01055019 0.04556659
v -0.02991885 -0.00970409 0.05299988
v -0.02503355 -0.01326775 0.04212423
v -0.01990219 -0.01119241 0.01373318
v -0.02106085 -0.00943402 0.00849142
v -0.01925741 -0.00836872 0.00671643
v -0.02207985 -0.00674653 0.00849937
v -0.03090251 0.00045068 0.04643030
v -0.02316826 -0.00501887 0.01114017
v -0.02901542 -0.01239606 0.05300532
v -0.02777492 -0.01229714 0.04466470
v -0.01930709 -0.01039653 0.00878982
v -0.02218863 -0.00501464 0.00759416
v -0.02110303 -0.00857243 0.00766697
v -0.03075543 -0.00413688 0.04737286
v -0.03077181 -0.00228803 0.04644752
f 8 7 1
f 8 2 7
f 10 6 3
f 10 7 2
f 10 3 7
f 11 6 4
f 14 7 3
f 14 3 9
f 15 10 2
f 15 6 10
f 16 3 6
f 16 6 11
f 16 11 9
f 16 9 3
f 17 9 11
f 19 13 8
f 19 8 1
f 19 14 13
f 19 1 14
f 20 14 1
f 20 1 7
f 20 7 14
f 21 13 14
f 23 17 11
f 23 11 4
f 23 4 17
f 24 17 4
f 25 9 17
f 26 18 5
f 26 5 12
f 26 12 18
f 27 5 18
f 27 21 5
f 27 13 21
f 27 8 13
f 28 2 8
f 28 8 18
f 28 22 15
f 28 15 2
f 29 6 15
f 29 15 22
f 30 22 18
f 30 18 12
f 30 24 22
f 31 24 4
f 31 4 6
f 31 6 24
f 32 30 12
f 33 14 9
f 33 9 25
f 34 12 5
f 34 5 21
f 34 32 12
f 34 25 17
f 35 27 18
f 35 18 8
f 35 8 27
f 36 28 18
f 36 18 22
f 36 22 28
f 37 24 6
f 37 6 29
f 37 29 22
f 37 22 24
f 38 17 24
f 38 34 17
f 38 32 34
f 39 24 30
f 39 30 32
f 39 38 24
f 39 32 38
f 40 21 14
f 40 34 21
f 40 25 34
f 41 33 25
f 41 25 40
f 41 40 14
f 41 14 33

