# https://github.com/mikedh/trimesh
v 0.01996997 -0.01065574 0.00746687
v 0.01962660 -0.01135519 0.00756738
v 0.01036179 -0.01478209 0.00040140
v -0.01193888 -0.01103391 0.00007764
v -0.01220337 -0.01719089 0.00683296
v 0.01450445 -0.01072789 0.00035944
v -0.01141763 -0.01962301 0.00750134
v -0.01186701 -0.01095662 0.00229390
v 0.01754138 -0.01221426 0.00511032
v 0.00688784 -0.02157685 0.00755452
v -0.01133710 -0.01400635 0.00036784
v 0.01685739 -0.01047457 0.00307750
v 0.01932446 -0.01120158 0.00686874
v 0.01413782 -0.01138768 0.00045870
v -0.00955286 -0.02057755 0.00755608
v 0.01416331 -0.01773318 0.00757513
v 0.00602246 -0.01665994 0.00043969
v 0.01963192 -0.01047292 0.00670897
v 0.01750962 -0.01391102 0.00682059
v -0.01031262 -0.01933492 0.00601515
v 0.01142396 -0.01956831 0.00758857
v 0.01395412 -0.01746882 0.00689257
v -0.00589517 -0.01665369 0.00047859
v 0.01034440 -0.01932292 0.00611235
v 0.01776731 -0.01409773 0.00755753
v -0.00940339 -0.02026444 0.00674353
v -0.01126582 -0.01934253 0.00681453
v 0.01123790 -0.01930252 0.00686995
v -0.01030018 -0.01473323 0.00038619
v 0.00138800 -0.01943603 0.00321087
v 0.00867603 -0.01572132 0.00042207
v 0.00678628 -0.01940090 0.00424582
v 0.01218046 -0.01749227 0.00516372
v -0.00850255 -0.01649160 0.00139339
v -0.00495820 -0.02121476 0.00596546
v 0.00964314 -0.02049692 0.00757039
v -0.01120817 -0.01656464 0.00329550
v 0.01025435 -0.01554924 0.00127697
v 0.00682897 -0.02121171 0.00682426
v 0.00502111 -0.02119570 0.00594139
v -0.00858655 -0.01570232 0.00045692
v -0.00686907 -0.02161106 0.00749965
v -0.00223165 -0.01939385 0.00322555
v -0.00674844 -0.01939923 0.00428568
v 0.00947210 -0.02020408 0.00682395
v -0.01032111 -0.01552662 0.00135448
v 0.00419295 -0.01841680 0.00222774
v -0.00677353 -0.02128083 0.00682607
v -0.00409515 -0.01841680 0.00222480
f 6 3 4
f 7 2 1
f 7 1 5
f 8 5 1
f 8 4 5
f 11 7 5
f 11 5 4
f 12 6 4
f 12 4 8
f 12 9 6
f 13 1 2
f 14 3 6
f 14 6 9
f 15 2 7
f 18 12 8
f 18 8 1
f 18 1 13
f 18 13 9
f 18 9 12
f 19 13 2
f 19 9 13
f 19 14 9
f 21 15 10
f 21 16 2
f 21 2 15
f 22 3 14
f 22 19 16
f 22 14 19
f 23 4 17
f 25 19 2
f 25 2 16
f 25 16 19
f 26 15 7
f 27 7 11
f 27 26 7
f 27 20 26
f 28 22 16
f 28 16 21
f 29 11 4
f 29 4 23
f 30 23 17
f 31 17 4
f 31 4 3
f 32 31 24
f 32 17 31
f 33 3 22
f 33 28 24
f 33 22 28
f 34 26 20
f 36 28 21
f 36 21 10
f 37 27 11
f 37 11 29
f 37 20 27
f 38 31 3
f 38 24 31
f 38 33 24
f 38 3 33
f 40 17 32
f 40 32 39
f 40 35 30
f 40 39 10
f 41 29 23
f 41 23 34
f 41 34 20
f 42 10 15
f 42 15 26
f 42 40 10
f 42 35 40
f 43 30 35
f 44 34 23
f 44 23 35
f 44 26 34
f 45 24 28
f 45 28 36
f 45 36 10
f 45 10 39
f 45 39 32
f 45 32 24
f 46 37 29
f 46 20 37
f 46 41 20
f 46 29 41
f 47 40 30
f 47 30 17
f 47 17 40
f 48 42 26
f 48 35 42
f 48 44 35
f 48 26 44
f 49 43 35
f 49 35 23
f 49 23 30
f 49 30 43

