# https://github.com/mikedh/trimesh
v -0.00986915 0.02974681 0.05317785
v -0.01022648 0.02883856 0.05301207
v -0.01186539 0.01189546 0.00228001
v -0.01145635 0.01423824 0.00026542
v -0.02694576 0.01603549 0.04926650
v -0.00963215 0.02440178 0.02826603
v -0.02773697 0.01458928 0.05317310
v -0.01962448 0.01145777 0.00752585
v -0.01955672 0.02411578 0.04743216
v -0.02635463 0.01542151 0.05299484
v -0.01496604 0.01136703 0.00090827
v -0.02731044 0.01439366 0.04642748
v -0.01209498 0.02021810 0.01025776
v -0.01883296 0.02527272 0.05299980
v -0.01751755 0.01577808 0.01025821
v -0.01189228 0.01194836 0.00009383
v -0.02067748 0.01150704 0.01109528
v -0.01142609 0.01970397 0.00751369
v -0.01409568 0.02790061 0.04832201
v -0.00968964 0.02910026 0.04549052
v -0.02600619 0.01784778 0.05109625
v -0.01572197 0.01755826 0.01026264
v -0.01653697 0.01484142 0.00607736
v -0.01429508 0.01157943 0.00035202
v -0.01932435 0.01315059 0.00931824
v -0.01134924 0.01584426 0.00211899
v -0.01767699 0.02503083 0.04560099
v -0.01602319 0.02713189 0.05300072
v -0.01594960 0.02697257 0.04925322
v -0.01143862 0.02056573 0.01019842
v -0.01232188 0.02888068 0.04924138
v -0.02138840 0.02230679 0.04652792
v -0.02709027 0.01607689 0.05299485
v -0.01477010 0.01753993 0.00768218
v -0.01833679 0.01219306 0.00601848
v -0.01222207 0.01399084 0.00052960
v -0.01394621 0.01218454 0.00044904
v -0.01829331 0.01302024 0.00677150
v -0.01739932 0.01483981 0.00762345
v -0.02319784 0.02045823 0.04651316
v -0.02694561 0.01507334 0.04652224
v -0.01872460 0.02509280 0.04924418
v -0.01778654 0.02606545 0.05201163
v -0.01590301 0.02594039 0.04465372
v -0.01235255 0.02896379 0.05299958
v -0.01142249 0.02877200 0.04651787
v -0.02597335 0.01788069 0.05300922
v -0.01211695 0.01935505 0.00766773
v -0.01654150 0.01392254 0.00513930
v -0.01862038 0.01143643 0.00580306
v -0.01299963 0.01655990 0.00425575
v -0.01926177 0.01216917 0.00763721
v -0.02498930 0.01778763 0.04556072
v -0.01779558 0.02608818 0.05273508
v -0.01052208 0.02885959 0.04555024
v -0.01212326 0.01846914 0.00595821
v -0.01471591 0.01662088 0.00601558
v -0.02500279 0.01869339 0.04834556
v -0.01300309 0.01838107 0.00677888
v -0.01146712 0.01873188 0.00577597
f 1 2 3
f 6 1 3
f 6 3 4
f 7 2 1
f 10 7 3
f 10 3 2
f 10 2 7
f 12 7 5
f 14 7 1
f 16 4 3
f 16 3 11
f 17 11 3
f 17 3 7
f 17 8 11
f 17 7 12
f 20 1 6
f 22 9 13
f 24 16 11
f 24 4 16
f 25 8 17
f 26 18 6
f 26 6 4
f 27 13 9
f 28 14 1
f 29 28 19
f 30 18 13
f 30 13 19
f 30 20 6
f 30 6 18
f 31 1 20
f 31 19 28
f 32 21 14
f 32 22 15
f 32 9 22
f 33 21 5
f 33 5 7
f 34 22 13
f 34 15 22
f 36 26 4
f 37 24 11
f 37 36 4
f 37 4 24
f 38 35 8
f 39 25 15
f 39 38 25
f 39 23 38
f 39 34 23
f 39 15 34
f 40 15 25
f 40 32 15
f 40 21 32
f 41 12 5
f 41 25 17
f 41 17 12
f 42 32 14
f 42 9 32
f 42 29 27
f 42 27 9
f 43 28 29
f 43 42 14
f 43 29 42
f 44 29 19
f 44 19 13
f 44 13 27
f 44 27 29
f 45 31 28
f 45 28 1
f 45 1 31
f 46 30 19
f 46 19 31
f 46 31 20
f 47 33 7
f 47 7 14
f 47 14 21
f 47 21 33
f 48 34 13
f 48 13 18
f 49 11 35
f 49 37 11
f 49 23 37
f 49 38 23
f 49 35 38
f 50 35 11
f 50 11 8
f 50 8 35
f 51 26 36
f 52 38 8
f 52 8 25
f 52 25 38
f 53 40 25
f 53 41 5
f 53 25 41
f 54 43 14
f 54 14 28
f 54 28 43
f 55 46 20
f 55 20 30
f 55 30 46
f 57 51 36
f 57 23 34
f 57 56 51
f 57 37 23
f 57 36 37
f 58 53 5
f 58 5 21
f 58 21 40
f 58 40 53
f 59 34 48
f 59 48 18
f 59 18 56
f 59 57 34
f 59 56 57
f 60 56 18
f 60 18 26
f 60 26 51
f 60 51 56

