# https://github.com/mikedh/trimesh
v 0.01234956 0.03430481 0.01175061
v 0.01248882 0.02287900 0.00568873
v 0.01183840 0.02766737 0.00139897
v -0.00776954 0.02983890 0.00132817
v -0.00844068 0.02272947 0.00482002
v 0.00258574 0.03109733 0.00133306
v 0.01256555 0.03358292 0.01109025
v -0.00837917 0.03426710 0.01042329
v 0.01210179 0.02227521 0.00057652
v 0.01192394 0.03318636 0.00810139
v -0.00826530 0.02353158 0.00074893
v -0.00396815 0.03123970 0.00132350
v -0.00823600 0.02222881 0.00061872
v 0.01207774 0.02481409 0.00083903
v 0.01117194 0.03455876 0.01151804
v -0.00850490 0.03342530 0.00978729
v -0.00803826 0.03299180 0.00727015
v 0.00199452 0.02861209 0.00071114
v 0.00568026 0.02844883 0.00083580
f 5 2 1
f 7 1 2
f 8 5 1
f 10 3 6
f 10 7 3
f 10 1 7
f 13 9 2
f 13 2 5
f 13 5 11
f 13 11 4
f 14 7 2
f 14 2 9
f 14 3 7
f 15 8 1
f 15 1 10
f 15 12 8
f 15 10 6
f 15 6 12
f 16 8 4
f 16 4 11
f 16 11 5
f 16 5 8
f 17 12 4
f 17 4 8
f 17 8 12
f 18 12 6
f 18 9 13
f 18 13 4
f 18 4 12
f 19 14 9
f 19 9 18
f 19 3 14
f 19 18 6
f 19 6 3

