# https://github.com/mikedh/trimesh
v 0.01345885 0.02237209 0.00574803
v 0.01361766 -0.02013229 0.00458401
v 0.01983280 0.01214665 0.00082180
v -0.01975494 0.01854407 0.00038399
v -0.02005200 0.01877162 0.00618084
v 0.01222810 -0.02353293 0.00069869
v 0.01337497 0.02226890 0.00065714
v 0.01960359 0.01208122 0.00523233
v 0.01221617 -0.02371618 0.00557524
v 0.01344259 -0.01979581 0.00050836
v 0.02065105 0.01928415 0.00399050
v -0.01341071 0.02241501 0.00563362
v -0.01339904 -0.01981565 0.00080322
v 0.01845517 0.01217000 0.00069987
v 0.01978536 0.01851820 0.00101692
v -0.01339258 0.02231712 0.00059554
v -0.00832117 -0.02390472 0.00521236
v -0.01978336 -0.00831181 0.00073926
v 0.01846402 0.01593945 0.00073114
v -0.00826678 -0.02338152 0.00126082
v -0.02013720 0.01754168 0.00588554
v -0.01340779 -0.01986119 0.00427403
v 0.01719113 0.01846440 0.00074421
v -0.01989364 -0.00833415 0.00404848
f 8 2 3
f 9 1 5
f 9 8 1
f 9 2 8
f 9 6 2
f 10 3 2
f 10 2 6
f 10 4 7
f 11 7 1
f 11 8 3
f 11 1 8
f 12 5 1
f 13 10 6
f 13 4 10
f 14 10 7
f 14 3 10
f 15 11 3
f 15 7 11
f 16 7 4
f 16 4 5
f 16 5 12
f 16 12 1
f 16 1 7
f 17 9 5
f 17 6 9
f 18 4 13
f 19 14 7
f 19 15 3
f 19 3 14
f 20 17 13
f 20 13 6
f 20 6 17
f 21 5 4
f 21 4 18
f 22 13 17
f 23 19 7
f 23 7 15
f 23 15 19
f 24 18 13
f 24 13 22
f 24 21 18
f 24 5 21
f 24 22 17
f 24 17 5

