# https://github.com/mikedh/trimesh
v -0.00798785 0.04035539 0.03546681
v -0.00861300 0.03799108 0.03530442
v -0.00852109 0.03864868 0.01831891
v -0.03007163 0.02883542 0.01873257
v -0.03569426 0.01943819 0.03565668
v -0.01527990 0.03874942 0.01871886
v -0.02498302 0.03244239 0.03538394
v -0.03364302 0.02045023 0.01824944
v -0.00814165 0.04098526 0.01861776
v -0.02270304 0.03492245 0.01880351
v -0.03115008 0.02752852 0.03109323
v -0.01777607 0.03739649 0.03238953
v -0.00872375 0.03797644 0.03166481
v -0.03268769 0.02075155 0.03543213
v -0.03692490 0.01942821 0.01865320
v -0.01161839 0.04000971 0.02990473
v -0.03126405 0.02640010 0.03535020
v -0.02627786 0.03247576 0.02740837
v -0.01663565 0.03751622 0.03528487
v -0.01525783 0.03873185 0.02986979
v -0.03273290 0.02078946 0.03168159
v -0.03246303 0.02626500 0.01877331
v -0.03615606 0.02142145 0.02612672
v -0.01162829 0.04004114 0.01871065
v -0.01041042 0.04005797 0.03470525
v -0.02874406 0.02993595 0.03108304
v -0.02624053 0.03244652 0.01993631
v -0.02258441 0.03486030 0.03110967
v -0.00912532 0.04009175 0.03545206
v -0.02020773 0.03615504 0.03240438
v -0.01408346 0.03880395 0.03465963
v -0.03368237 0.02508166 0.02612755
v -0.03668916 0.01922806 0.03243402
v -0.03612278 0.02144016 0.02120289
v -0.02749557 0.03120699 0.02985892
v -0.02751536 0.03119218 0.01878118
v -0.02141654 0.03507667 0.03527963
v -0.03368563 0.02511018 0.02114040
v -0.03362435 0.02392707 0.03370863
v -0.03501474 0.02279659 0.01877508
v -0.03484478 0.02266445 0.03109005
v -0.03487748 0.02141703 0.03526807
v -0.03643161 0.02037215 0.01872404
v -0.03616597 0.02019549 0.03237119
f 1 2 3
f 5 2 1
f 9 1 3
f 9 3 6
f 10 6 3
f 10 8 4
f 10 3 8
f 13 8 3
f 13 3 2
f 14 2 5
f 14 5 8
f 14 13 2
f 15 8 5
f 17 5 7
f 18 4 11
f 20 6 10
f 21 14 8
f 21 8 13
f 21 13 14
f 22 4 8
f 22 8 15
f 24 16 9
f 24 9 6
f 24 20 16
f 24 6 20
f 25 1 9
f 25 9 16
f 26 17 7
f 26 11 17
f 26 18 11
f 27 18 10
f 27 4 18
f 28 10 18
f 28 18 7
f 29 19 7
f 29 1 25
f 29 7 5
f 29 5 1
f 30 20 10
f 30 12 20
f 30 10 28
f 30 19 12
f 31 20 12
f 31 12 19
f 31 29 25
f 31 19 29
f 31 25 16
f 31 16 20
f 32 11 4
f 33 23 15
f 33 15 5
f 34 15 23
f 35 26 7
f 35 7 18
f 35 18 26
f 36 27 10
f 36 10 4
f 36 4 27
f 37 30 28
f 37 28 7
f 37 7 19
f 37 19 30
f 38 32 4
f 38 4 22
f 38 34 23
f 38 23 32
f 39 17 11
f 39 11 32
f 40 22 15
f 40 38 22
f 40 34 38
f 41 39 32
f 41 32 23
f 42 33 5
f 42 5 17
f 42 17 39
f 43 40 15
f 43 15 34
f 43 34 40
f 44 41 23
f 44 23 33
f 44 33 42
f 44 42 39
f 44 39 41

