# https://github.com/mikedh/trimesh
v 0.03498989 0.02152015 0.03541534
v 0.04017644 -0.00805957 0.03535687
v 0.04137438 0.00678233 0.01995597
v 0.03328116 0.00813751 0.00808096
v 0.03194315 0.02280191 0.03571247
v 0.03875511 -0.00799242 0.01308341
v 0.03572823 0.02192843 0.01987326
v 0.03997177 0.01043569 0.03466567
v 0.04016650 0.00802763 0.03541372
v 0.03330850 -0.00817710 0.00800749
v 0.04140722 -0.00675837 0.02119546
v 0.04002805 0.00428251 0.01424259
v 0.03231416 0.02308618 0.02899789
v 0.03745109 0.01904261 0.02741928
v 0.03818766 -0.00840748 0.03569970
v 0.03887409 0.01300598 0.03538561
v 0.04137152 0.00554020 0.03115771
v 0.03993758 -0.00794280 0.01537780
v 0.04135186 -0.00306083 0.01762171
v 0.03894605 0.01174930 0.01530555
v 0.03769760 0.00309880 0.01081573
v 0.03280505 0.02248272 0.01978084
v 0.03618885 0.02020549 0.03380958
v 0.04002750 0.01291594 0.02740473
v 0.03461628 -0.00848652 0.01151492
v 0.04143136 0.00312892 0.03238491
v 0.03998764 -0.00434834 0.01422018
v 0.04133726 0.00432472 0.01769382
v 0.04130738 -0.00551453 0.01879080
v 0.03345692 0.01199829 0.00893734
v 0.03411155 0.00807403 0.00858451
v 0.03764210 0.00919458 0.01201018
v 0.03768952 -0.00429498 0.01088277
v 0.03755158 0.01659520 0.03532577
v 0.03890757 0.01546472 0.01995177
v 0.04141619 0.00679924 0.02864074
v 0.03418820 -0.00811915 0.00856695
v 0.04140577 -0.00676392 0.02865696
v 0.04003291 0.01168187 0.01875956
v 0.03998526 0.00797134 0.01540140
v 0.03765843 0.01171305 0.01301540
v 0.03876146 0.00799787 0.01316556
v 0.03525024 0.00923897 0.00971322
v 0.03884323 0.01415174 0.03465417
v 0.03748200 0.01905952 0.02241896
v 0.03660191 0.02041821 0.01995884
v 0.04002786 0.01292046 0.02244404
v 0.04139788 -0.00306935 0.03240077
v 0.03419887 0.01184302 0.00948267
v 0.03880059 0.01040637 0.01425495
v 0.03866032 0.01526686 0.03233627
v 0.03742828 0.01778843 0.03375317
f 10 5 4
f 13 5 1
f 13 1 7
f 15 9 5
f 15 2 9
f 15 5 10
f 16 1 5
f 16 5 9
f 16 9 8
f 17 8 9
f 18 11 2
f 18 2 15
f 19 3 11
f 22 13 7
f 22 4 5
f 22 5 13
f 23 14 7
f 23 7 1
f 25 15 10
f 25 18 15
f 25 6 18
f 26 17 9
f 26 9 2
f 27 18 6
f 27 19 18
f 27 12 19
f 27 21 12
f 28 19 12
f 28 3 19
f 29 19 11
f 29 11 18
f 29 18 19
f 30 22 7
f 30 4 22
f 31 21 10
f 31 10 4
f 31 4 30
f 33 27 6
f 33 21 27
f 34 23 1
f 34 1 16
f 36 17 26
f 36 26 11
f 36 11 3
f 36 24 8
f 36 8 17
f 37 25 10
f 37 6 25
f 37 33 6
f 37 10 21
f 37 21 33
f 38 2 11
f 38 11 26
f 39 3 28
f 39 20 35
f 40 28 12
f 40 39 28
f 40 20 39
f 41 7 20
f 42 12 21
f 42 21 32
f 42 40 12
f 42 32 41
f 43 31 30
f 43 32 21
f 43 21 31
f 44 34 16
f 44 16 8
f 44 8 24
f 45 7 14
f 45 14 24
f 46 35 20
f 46 20 7
f 46 45 35
f 46 7 45
f 47 36 3
f 47 24 36
f 47 3 39
f 47 39 35
f 47 45 24
f 47 35 45
f 48 38 26
f 48 26 2
f 48 2 38
f 49 30 7
f 49 7 41
f 49 41 32
f 49 43 30
f 49 32 43
f 50 42 41
f 50 41 20
f 50 20 40
f 50 40 42
f 51 44 24
f 51 24 14
f 52 23 34
f 52 34 44
f 52 44 51
f 52 51 14
f 52 14 23

