# https://github.com/mikedh/trimesh
v -0.00814165 0.04098526 0.01861776
v -0.00844068 0.02272947 0.00482002
v -0.00812424 0.02961437 0.00110039
v -0.01684325 0.02580052 0.00071679
v -0.04016922 0.01084896 0.01854640
v -0.01335061 0.01847024 0.00035354
v -0.01401257 0.03738849 0.01304863
v -0.00794691 0.04021610 0.01508593
v -0.03757093 0.01121721 0.01820385
v -0.00823600 0.02222881 0.00061872
v -0.03307560 0.01060350 0.00820168
v -0.01550482 0.02746584 0.00108350
v -0.02880853 0.03001222 0.01875423
v -0.01406475 0.03877867 0.01638757
v -0.00801751 0.03915350 0.01274901
v -0.00852109 0.03864868 0.01831891
v -0.02627496 0.01089952 0.00677874
v -0.01363997 0.01886332 0.00457713
v -0.01465420 0.02616607 0.00065493
v -0.01975494 0.01854407 0.00038399
v -0.03878329 0.01537991 0.01881639
v -0.02622496 0.02996381 0.01322017
v -0.01034779 0.03869476 0.01307378
v -0.01040297 0.03994917 0.01638989
v -0.02029867 0.03633285 0.01877391
v -0.03883316 0.01048697 0.01407857
v -0.01919401 0.02313836 0.00070960
v -0.02969800 0.01074988 0.00630307
v -0.02507006 0.03001635 0.01213947
v -0.03354725 0.02265140 0.01431458
v -0.01282219 0.03624523 0.01092707
v -0.01050487 0.04037739 0.01869835
v -0.00914137 0.03993907 0.01516032
v -0.03129835 0.02756539 0.01877676
v -0.02381497 0.03368334 0.01647637
v -0.03069679 0.01064207 0.00683457
v -0.03857058 0.01532817 0.01772983
v -0.03117744 0.02379176 0.01210386
v -0.02014916 0.03369550 0.01205709
v -0.01526589 0.03617202 0.01206345
v -0.01785599 0.03758452 0.01872679
v -0.03501474 0.02279659 0.01877508
v -0.02868415 0.02989575 0.01761663
v -0.02405167 0.03397910 0.01872697
v -0.01650344 0.03740320 0.01522720
v -0.03859244 0.01162402 0.01430206
v -0.02886061 0.02513475 0.01103628
v -0.03241282 0.02500579 0.01540427
v -0.03373773 0.01789552 0.01103553
v -0.02261052 0.03360293 0.01428822
v -0.03596837 0.02023684 0.01655686
v -0.02503676 0.03236322 0.01538329
v -0.02019128 0.03617347 0.01759915
v -0.01774358 0.03745990 0.01758742
v -0.03114535 0.02492964 0.01320229
v -0.02509700 0.02882127 0.01103879
v -0.03113492 0.02744254 0.01766595
v -0.03246298 0.02031594 0.01101249
v -0.03390926 0.01421486 0.00971639
v -0.03622507 0.01412708 0.01197305
v -0.03728772 0.01656233 0.01544068
v -0.03485082 0.02270835 0.01764550
v -0.02139178 0.03480093 0.01530795
v -0.03361064 0.02144619 0.01317330
f 8 1 2
f 10 8 2
f 10 3 8
f 12 3 4
f 15 8 3
f 15 3 12
f 16 9 2
f 16 2 1
f 16 1 5
f 16 5 9
f 17 2 9
f 17 9 5
f 18 10 2
f 18 6 10
f 18 17 6
f 18 2 17
f 19 10 6
f 19 4 3
f 19 3 10
f 20 19 6
f 20 4 19
f 21 5 1
f 23 7 14
f 23 8 15
f 24 1 8
f 26 17 5
f 27 20 11
f 27 4 20
f 28 20 6
f 28 6 17
f 29 12 4
f 31 23 15
f 31 15 12
f 31 7 23
f 32 24 14
f 32 1 24
f 32 25 21
f 32 21 1
f 33 23 14
f 33 14 24
f 33 24 8
f 33 8 23
f 34 25 13
f 34 21 25
f 36 26 11
f 36 17 26
f 36 28 17
f 36 11 20
f 36 20 28
f 37 5 21
f 39 12 29
f 40 31 12
f 40 7 31
f 40 39 7
f 40 12 39
f 41 32 14
f 41 25 32
f 42 21 34
f 43 34 13
f 44 13 25
f 44 43 13
f 44 35 43
f 45 14 7
f 45 7 39
f 46 26 5
f 46 5 37
f 47 22 29
f 47 4 27
f 47 27 38
f 50 39 29
f 50 29 22
f 50 45 39
f 51 37 21
f 51 21 42
f 52 43 35
f 52 48 43
f 52 22 48
f 52 50 22
f 52 35 50
f 53 44 25
f 53 35 44
f 54 41 14
f 54 14 45
f 54 45 53
f 54 53 25
f 54 25 41
f 55 47 38
f 55 22 47
f 55 48 22
f 55 30 48
f 56 47 29
f 56 29 4
f 56 4 47
f 57 34 43
f 57 43 48
f 58 38 27
f 58 27 49
f 59 49 27
f 59 27 11
f 60 26 46
f 60 49 59
f 60 59 11
f 60 11 26
f 61 46 37
f 61 37 51
f 61 60 46
f 62 48 30
f 62 30 51
f 62 51 42
f 62 57 48
f 62 42 34
f 62 34 57
f 63 50 35
f 63 35 53
f 63 53 45
f 63 45 50
f 64 55 38
f 64 30 55
f 64 38 58
f 64 58 49
f 64 49 60
f 64 60 61
f 64 61 51
f 64 51 30

