# https://github.com/mikedh/trimesh
v 0.02778443 0.03016707 0.03549004
v 0.03553068 0.02179545 0.03119261
v 0.02882963 0.02998945 0.01761714
v 0.02878162 0.02235943 0.00961195
v 0.01245385 0.03720903 0.03554981
v 0.03539448 0.02174614 0.01756314
v 0.03372476 0.02510945 0.02735863
v 0.03450189 0.02194255 0.03562499
v 0.01551488 0.03896430 0.02864275
v 0.03070165 0.02180649 0.01067346
v 0.02516056 0.03369171 0.02612511
v 0.03372345 0.02515341 0.02119755
v 0.01189047 0.03932232 0.03564744
v 0.03373584 0.02400033 0.03482333
v 0.03131093 0.02322117 0.03538443
v 0.01951384 0.03713893 0.01859757
v 0.03301133 0.02174596 0.01289997
v 0.02800957 0.02677051 0.01174816
v 0.02879693 0.02990272 0.03234523
v 0.02141609 0.03504055 0.03539002
v 0.03242275 0.02623688 0.01764131
v 0.02516209 0.03367549 0.02122271
v 0.03265962 0.02516458 0.03532720
v 0.03410599 0.02295481 0.03539591
v 0.03496808 0.02272831 0.03111689
v 0.01214351 0.04015087 0.02874802
v 0.02145042 0.03620319 0.02613272
v 0.02828063 0.02449768 0.01036742
v 0.03000105 0.02512173 0.01218968
v 0.02883406 0.02757117 0.01328840
v 0.02520959 0.03241067 0.03530477
v 0.03118903 0.02752524 0.03236066
v 0.01782142 0.03745082 0.03398898
v 0.03486235 0.02269894 0.01764471
v 0.02276068 0.03507351 0.01875683
v 0.01259548 0.03772577 0.02905330
v 0.02147468 0.03619317 0.02119549
v 0.02269312 0.03488220 0.03113631
v 0.02911169 0.02417754 0.01077842
v 0.03031934 0.02291349 0.01097516
v 0.02888152 0.02639410 0.01221989
v 0.03243008 0.02507708 0.01551262
v 0.02635979 0.03237913 0.02984588
v 0.01409392 0.03872533 0.03541784
v 0.02633891 0.03243897 0.01880664
v 0.02043030 0.03659291 0.01870748
v 0.03000203 0.02628624 0.01327959
v 0.03254037 0.02279236 0.01318970
f 10 8 4
f 10 2 8
f 12 11 7
f 12 7 2
f 12 2 6
f 13 8 1
f 13 5 8
f 15 8 5
f 15 5 4
f 15 4 8
f 17 6 2
f 17 2 10
f 20 13 1
f 21 3 12
f 22 12 3
f 22 11 12
f 23 1 8
f 24 8 2
f 24 2 14
f 24 23 8
f 24 14 23
f 25 14 2
f 25 2 7
f 25 7 14
f 26 9 16
f 26 16 4
f 27 16 9
f 28 4 16
f 28 16 18
f 30 18 16
f 31 1 19
f 31 20 1
f 32 7 11
f 32 11 19
f 32 19 1
f 32 1 23
f 32 23 14
f 32 14 7
f 33 27 9
f 34 21 12
f 34 12 6
f 35 30 16
f 35 3 30
f 36 5 13
f 36 13 26
f 36 26 4
f 36 4 5
f 37 16 27
f 37 22 35
f 37 27 11
f 37 11 22
f 38 11 27
f 38 20 31
f 38 33 20
f 38 27 33
f 39 10 4
f 39 4 28
f 39 28 18
f 39 18 29
f 40 29 17
f 40 17 10
f 40 39 29
f 40 10 39
f 41 29 18
f 41 18 30
f 42 30 3
f 42 3 21
f 42 21 34
f 42 34 6
f 42 6 17
f 43 31 19
f 43 19 11
f 43 38 31
f 43 11 38
f 44 13 20
f 44 20 33
f 44 26 13
f 44 33 9
f 44 9 26
f 45 35 22
f 45 22 3
f 45 3 35
f 46 37 35
f 46 35 16
f 46 16 37
f 47 41 30
f 47 29 41
f 47 30 42
f 48 47 42
f 48 42 17
f 48 17 29
f 48 29 47

