# https://github.com/mikedh/trimesh
v 0.00854743 -0.03860407 0.03566747
v 0.00811528 -0.04047398 0.03547064
v 0.00855111 -0.03850791 0.01839001
v -0.01988059 -0.03405043 0.01848732
v -0.02036178 -0.03355190 0.03557691
v -0.00668966 -0.04126938 0.01871697
v 0.00823838 -0.04100966 0.01859644
v -0.01404618 -0.03865981 0.03543129
v -0.02031937 -0.03357239 0.03025508
v -0.01780106 -0.03508619 0.01822984
v 0.00316494 -0.04145779 0.03486214
v -0.01936780 -0.03689166 0.01868995
v 0.00682533 -0.04136304 0.02868478
v -0.00549709 -0.04132238 0.03118859
v -0.01037884 -0.03997723 0.03532452
v -0.01909440 -0.03648856 0.03533834
v -0.01163725 -0.04007307 0.01873370
v 0.00434835 -0.04140545 0.03390586
v 0.00679682 -0.04128463 0.01871401
v -0.00180869 -0.04150402 0.03484156
v -0.01526879 -0.03864474 0.03241312
v -0.00673233 -0.04131577 0.02867009
v -0.01775661 -0.03742162 0.03386938
v -0.01531641 -0.03876238 0.01876656
v -0.01170039 -0.03997144 0.03122172
v -0.01784442 -0.03764877 0.01875844
f 5 1 3
f 7 1 2
f 7 3 1
f 8 2 1
f 8 1 5
f 9 5 3
f 9 3 4
f 10 4 3
f 10 7 6
f 10 3 7
f 12 4 10
f 12 9 4
f 12 5 9
f 13 7 2
f 15 2 8
f 16 8 5
f 16 5 12
f 17 12 10
f 17 10 6
f 18 13 2
f 18 2 11
f 18 11 13
f 19 13 11
f 19 6 7
f 19 7 13
f 20 15 14
f 20 11 2
f 20 2 15
f 20 19 11
f 20 6 19
f 21 15 8
f 22 17 6
f 22 14 15
f 22 20 14
f 22 6 20
f 23 16 12
f 23 21 8
f 23 8 16
f 24 12 17
f 25 17 22
f 25 24 17
f 25 21 24
f 25 22 15
f 25 15 21
f 26 23 12
f 26 21 23
f 26 24 21
f 26 12 24

