# https://github.com/mikedh/trimesh
v -0.03318949 0.02019918 0.03565596
v -0.02972823 -0.01709080 0.00746878
v -0.02935289 -0.01568080 0.00675001
v -0.02944173 0.00686982 0.00543840
v -0.04128198 0.00427664 0.01764559
v -0.03082098 -0.01769669 0.01123370
v -0.03692490 0.01942821 0.01865320
v -0.03879573 -0.00426176 0.01206259
v -0.04029933 -0.00683792 0.03537903
v -0.03993704 0.01043542 0.03475588
v -0.03400945 0.01990743 0.01849319
v -0.03749296 0.01050289 0.01202487
v -0.03511174 -0.01172902 0.00978002
v -0.03842458 -0.00714935 0.03565619
v -0.04009651 -0.01175366 0.01875207
v -0.03993078 0.01293136 0.02125789
v -0.03625628 0.01903878 0.03526538
v -0.04134874 0.00314455 0.03240034
v -0.03343344 0.02033760 0.03032667
v -0.02969800 0.01074988 0.00630307
v -0.03876224 0.00426901 0.01203537
v -0.03276248 -0.01428470 0.00859998
v -0.03525796 -0.00185789 0.00845773
v -0.03818293 -0.01692838 0.01864816
v -0.04123816 -0.00555112 0.01766569
v -0.03728706 -0.01410319 0.01318431
v -0.03993546 0.00801275 0.01527137
v -0.03870266 0.01657216 0.02487774
v -0.03992309 0.00922557 0.03538980
v -0.04132214 0.00678300 0.02866339
v -0.03741917 0.01904120 0.02737023
v -0.03522037 0.01050106 0.00970050
v -0.04002765 -0.00555629 0.01424143
v -0.03150060 -0.01671345 0.00849888
v -0.03641568 -0.00557032 0.00972225
v -0.02943441 -0.00944272 0.00545339
v -0.03660016 0.00431745 0.00975515
v -0.03541724 -0.01740017 0.01845755
v -0.04136263 -0.00681534 0.02863489
v -0.03630572 -0.01172301 0.01090497
v -0.03747825 -0.01654338 0.01533937
v -0.03997709 0.01173364 0.01880280
v -0.03988902 0.00551137 0.01419454
v -0.03878329 0.01537991 0.01881639
v -0.03741405 0.01654020 0.03534655
v -0.04129591 0.00677853 0.02002500
v -0.04127620 0.00557975 0.03116232
v -0.03996107 0.01296060 0.02739079
v -0.03734528 0.01901297 0.02003734
v -0.03166505 0.01055468 0.00735381
v -0.03983660 -0.00917435 0.01538839
v -0.03029717 -0.01554258 0.00731131
v -0.03757448 -0.00557007 0.01087084
v -0.03530868 0.00059788 0.00845554
v -0.03281711 -0.00809067 0.00732585
v -0.03755297 0.00552040 0.01083023
v -0.03383053 -0.01785811 0.01531199
v -0.03884914 -0.01539193 0.01873097
v -0.04124656 -0.00678904 0.01874816
v -0.04136946 -0.00062187 0.03250824
v -0.03379652 -0.01540236 0.00977306
v -0.03865149 -0.00921009 0.01310213
v -0.03619683 -0.01654094 0.01306278
v -0.03862456 0.00916714 0.01317740
f 1 3 4
f 6 2 3
f 6 3 1
f 14 6 1
f 19 11 7
f 20 7 11
f 20 11 19
f 20 19 1
f 20 1 4
f 24 14 9
f 29 9 14
f 29 14 1
f 29 18 9
f 29 10 18
f 31 17 1
f 31 1 19
f 31 19 7
f 32 12 7
f 33 21 8
f 33 25 5
f 36 4 3
f 37 8 21
f 38 6 14
f 38 14 24
f 39 24 9
f 40 35 13
f 42 27 5
f 43 5 27
f 43 33 5
f 43 21 33
f 44 7 12
f 44 27 42
f 44 42 16
f 44 16 28
f 45 10 29
f 45 17 31
f 45 29 1
f 45 1 17
f 46 5 39
f 46 42 5
f 46 16 42
f 47 30 18
f 47 18 10
f 47 10 30
f 48 28 16
f 48 46 30
f 48 16 46
f 48 30 10
f 48 31 28
f 48 45 31
f 48 10 45
f 49 31 7
f 49 28 31
f 49 44 28
f 49 7 44
f 50 32 7
f 50 7 20
f 50 20 4
f 50 37 32
f 50 4 37
f 51 25 33
f 51 41 15
f 51 26 41
f 52 34 22
f 52 3 2
f 52 2 34
f 52 36 3
f 52 22 36
f 53 8 23
f 53 23 35
f 53 35 40
f 54 36 23
f 54 4 36
f 54 37 4
f 54 23 8
f 54 8 37
f 55 35 23
f 55 23 36
f 55 13 35
f 55 36 22
f 55 22 13
f 56 37 21
f 56 21 12
f 56 12 32
f 56 32 37
f 57 38 24
f 57 6 38
f 57 24 41
f 57 2 6
f 58 39 15
f 58 24 39
f 58 41 24
f 58 15 41
f 59 15 39
f 59 51 15
f 59 25 51
f 59 39 5
f 59 5 25
f 60 39 9
f 60 9 18
f 60 46 39
f 60 18 30
f 60 30 46
f 61 40 13
f 61 13 22
f 61 22 34
f 62 33 8
f 62 53 40
f 62 8 53
f 62 40 26
f 62 51 33
f 62 26 51
f 63 34 2
f 63 57 41
f 63 2 57
f 63 61 34
f 63 41 26
f 63 26 40
f 63 40 61
f 64 43 27
f 64 12 21
f 64 21 43
f 64 44 12
f 64 27 44

