# https://github.com/mikedh/trimesh
v 0.03391324 0.01214501 0.01214165
v 0.03181328 -0.02009662 0.01026876
v 0.02882960 -0.01163633 0.00132335
v 0.01337489 0.00700902 0.00028510
v 0.01241171 -0.02416575 0.00579378
v 0.02368248 0.01168578 0.00176551
v 0.03330850 -0.00817710 0.00800749
v 0.02808010 -0.02016401 0.01003671
v 0.01358665 0.00708867 0.00334224
v 0.02091065 -0.02600545 0.00094494
v 0.03289920 0.01179340 0.00849354
v 0.01845517 0.01217000 0.00069987
v 0.03399364 -0.00833246 0.01078156
v 0.02207723 -0.02705980 0.00784113
v 0.01236131 -0.02017597 0.00442376
v 0.02376034 -0.02280133 0.00127562
v 0.01984534 -0.02361255 0.00064698
v 0.02860285 -0.00224269 0.00177559
v 0.03299485 0.00310246 0.00728066
v 0.01720998 0.01214526 0.00060974
v 0.03245334 0.01260577 0.01088977
v 0.02093828 -0.02725125 0.00745872
v 0.02730368 -0.01530377 0.00132276
v 0.02156670 -0.02550484 0.00109959
v 0.01222810 -0.02353293 0.00069869
v 0.03303203 -0.00058663 0.00724524
v 0.03455398 0.00851087 0.01153091
v 0.01769366 0.01223723 0.00459834
v 0.01216572 -0.01978676 0.00049208
f 7 2 3
f 8 2 1
f 8 1 5
f 9 5 1
f 12 3 4
f 13 1 2
f 13 2 7
f 14 8 5
f 14 2 8
f 14 10 2
f 15 9 4
f 15 5 9
f 17 4 3
f 17 3 10
f 18 6 11
f 18 12 6
f 18 3 12
f 19 18 11
f 19 3 18
f 20 12 4
f 20 4 9
f 21 11 6
f 21 6 12
f 21 1 11
f 22 14 5
f 22 10 14
f 23 16 10
f 23 10 3
f 23 3 2
f 23 2 16
f 24 16 2
f 24 2 10
f 24 10 16
f 25 17 10
f 25 22 5
f 25 10 22
f 26 7 3
f 26 3 19
f 27 19 11
f 27 11 1
f 27 1 13
f 27 26 19
f 27 13 7
f 27 7 26
f 28 21 12
f 28 12 20
f 28 20 9
f 28 9 1
f 28 1 21
f 29 15 4
f 29 4 17
f 29 17 25
f 29 25 5
f 29 5 15

