# https://github.com/mikedh/trimesh
v 0.03979316 -0.00821882 0.03567250
v 0.04050988 -0.00807604 0.03469610
v 0.03087470 -0.00821581 0.00656561
v 0.03182675 -0.00813233 0.00711459
v 0.00823838 -0.04100966 0.01859644
v 0.02514248 -0.03250551 0.03523520
v 0.00854743 -0.03860407 0.03566747
v 0.02271957 -0.03126321 0.01099711
v 0.03505440 -0.02152937 0.03537520
v 0.03787667 -0.00866911 0.03536582
v 0.02121016 -0.01987976 0.00679854
v 0.01411832 -0.03879143 0.03546117
v 0.02786626 -0.02288498 0.00861852
v 0.02142487 -0.03621264 0.02117286
v 0.03754604 -0.01665296 0.03538688
v 0.02150847 -0.03494630 0.03543323
v 0.00855111 -0.03850791 0.01839001
v 0.02073239 -0.02827652 0.00792460
v 0.00811528 -0.04047398 0.03547064
v 0.03141461 -0.01676351 0.00860197
v 0.03492646 -0.02269363 0.01882279
v 0.02145686 -0.03499912 0.01524373
v 0.01660786 -0.03870087 0.02614102
v 0.03892691 -0.01297962 0.03527563
v 0.03264324 -0.02516492 0.03532539
v 0.02146256 -0.03621957 0.02486871
v 0.02062932 -0.03058520 0.00935226
v 0.02522744 -0.02766405 0.00983743
v 0.03078237 -0.00943065 0.00669859
v 0.03488290 -0.01892809 0.01315988
v 0.03747681 -0.01780123 0.03379542
v 0.01904503 -0.03740177 0.01876397
v 0.02757446 -0.03118843 0.01767701
v 0.01297518 -0.03999823 0.02736628
v 0.01898253 -0.03735982 0.02855936
v 0.03371988 -0.02517536 0.02614492
v 0.02391672 -0.03362770 0.03477491
v 0.01661642 -0.03868731 0.02121458
v 0.02145162 -0.03373950 0.01305796
v 0.02297063 -0.02783506 0.00863654
v 0.03274193 -0.01309608 0.00854975
v 0.03364875 -0.01779162 0.01085282
v 0.04031449 -0.00806729 0.01643096
v 0.03011395 -0.02393145 0.01104776
v 0.03877489 -0.01413317 0.03476318
v 0.01177998 -0.04015883 0.01867662
v 0.02272619 -0.03492836 0.01760722
v 0.02512670 -0.03373301 0.02488725
v 0.01526387 -0.03866192 0.03240816
v 0.01173581 -0.03997779 0.03244869
v 0.03378439 -0.02393863 0.03479865
v 0.03878090 -0.01529281 0.03111874
v 0.03240294 -0.02631543 0.01881288
v 0.01300811 -0.04001294 0.02121321
v 0.02506734 -0.03122002 0.01314759
v 0.02173842 -0.03033605 0.00970665
v 0.03176204 -0.00933762 0.00725785
v 0.03024303 -0.02157166 0.00977388
v 0.03404332 -0.01427662 0.00982870
v 0.03553114 -0.00806357 0.00950618
v 0.03739118 -0.01779890 0.01768747
v 0.02772115 -0.02502561 0.00980652
v 0.04023651 -0.00927631 0.03468349
v 0.02495457 -0.03254954 0.01534181
f 1 2 3
f 3 2 4
f 10 7 1
f 10 1 3
f 10 3 7
f 11 7 3
f 15 1 9
f 16 9 1
f 16 1 7
f 16 7 12
f 17 11 5
f 17 7 11
f 18 5 11
f 19 12 7
f 19 17 5
f 19 7 17
f 24 1 15
f 25 16 6
f 25 9 16
f 27 5 18
f 29 18 11
f 29 11 3
f 29 13 18
f 29 20 13
f 31 15 9
f 34 19 5
f 35 16 12
f 35 23 26
f 37 6 16
f 37 35 26
f 37 16 35
f 38 26 23
f 38 14 26
f 38 32 14
f 39 5 27
f 39 27 8
f 40 18 13
f 40 13 28
f 40 27 18
f 41 20 29
f 44 42 30
f 45 24 15
f 45 15 31
f 46 22 32
f 46 39 22
f 46 5 39
f 46 32 38
f 47 32 22
f 47 14 32
f 48 26 14
f 48 47 33
f 48 14 47
f 48 37 26
f 48 6 37
f 48 33 36
f 48 36 25
f 48 25 6
f 49 34 23
f 49 35 12
f 49 23 35
f 50 12 19
f 50 19 34
f 50 49 12
f 50 34 49
f 51 9 25
f 51 25 36
f 51 36 31
f 51 31 9
f 52 36 21
f 52 31 36
f 52 45 31
f 53 36 33
f 53 21 36
f 53 44 30
f 53 30 21
f 54 38 23
f 54 23 34
f 54 46 38
f 54 34 5
f 54 5 46
f 55 22 39
f 55 39 8
f 55 8 28
f 55 28 44
f 55 53 33
f 55 44 53
f 56 40 28
f 56 28 8
f 56 8 27
f 56 27 40
f 57 41 29
f 57 29 3
f 57 3 4
f 58 13 20
f 58 20 42
f 58 44 13
f 58 42 44
f 59 42 20
f 59 20 41
f 59 43 30
f 59 30 42
f 60 4 2
f 60 2 43
f 60 43 59
f 60 59 41
f 60 57 4
f 60 41 57
f 61 21 30
f 61 30 43
f 61 52 21
f 61 43 52
f 62 44 28
f 62 28 13
f 62 13 44
f 63 24 45
f 63 2 1
f 63 1 24
f 63 45 52
f 63 52 43
f 63 43 2
f 64 47 22
f 64 33 47
f 64 55 33
f 64 22 55

