# https://github.com/mikedh/trimesh
v 0.01189047 0.03932232 0.03564744
v 0.02003336 0.03418264 0.02883755
v 0.01043671 0.03989329 0.01526289
v -0.00818379 0.03353777 0.00761053
v -0.00841697 0.03830952 0.03568726
v 0.01816312 0.03319246 0.01033498
v 0.01899886 0.03743208 0.01870575
v 0.01245385 0.03720903 0.03554981
v -0.00305119 0.04142032 0.03477581
v 0.00684476 0.03543748 0.00853683
v 0.01906339 0.03738238 0.02860642
v 0.01893171 0.03604526 0.01431248
v -0.00798785 0.04035539 0.03546681
v 0.00804125 0.04134200 0.02738736
v -0.00550291 0.04131268 0.01751871
v 0.01192394 0.03318636 0.00810139
v 0.00917053 0.03762052 0.01088473
v 0.01534509 0.03867803 0.01650321
v 0.01957068 0.03341584 0.01135195
v 0.00440057 0.04140505 0.03487735
v -0.00785401 0.03986927 0.01410648
v 0.01296750 0.04001457 0.02736159
v -0.00666182 0.04128263 0.02987873
v 0.00433750 0.04135900 0.01631755
v 0.00920123 0.03642446 0.00973910
v 0.01288267 0.03870785 0.01422115
v 0.00807168 0.04136929 0.01997125
v 0.01536243 0.03630553 0.01207217
v 0.00930688 0.04021470 0.03539571
v -0.00857241 0.03493525 0.01106669
v -0.00430048 0.03996917 0.01295819
v 0.01049441 0.04014731 0.03480035
v 0.01658262 0.03873486 0.01996024
v -0.00546359 0.04132579 0.03256339
v -0.00672249 0.04129349 0.01873082
v 0.00431207 0.03998497 0.01299962
v -0.00301735 0.04133189 0.01632610
v 0.01176524 0.03408357 0.00864698
v 0.00804047 0.03872241 0.01191406
v 0.01169677 0.03990127 0.01642898
v 0.01784815 0.03506799 0.01206545
v 0.01293352 0.03508094 0.00974909
v -0.00791476 0.03875427 0.01204371
v 0.01659993 0.03870920 0.02611464
v 0.01294784 0.03997072 0.01874057
v 0.00805033 0.04002384 0.01418835
v 0.01565522 0.03319726 0.00923629
v 0.00681604 0.04126024 0.01753578
v 0.01789249 0.03386951 0.01082899
v 0.01924655 0.03409393 0.01184900
v 0.01290594 0.03635344 0.01097888
v -0.00796097 0.03660509 0.00966800
v 0.01541106 0.03396053 0.00972941
v -0.00674999 0.03544149 0.00854130
v -0.00806241 0.03447002 0.00814894
f 5 4 2
f 6 2 4
f 8 5 2
f 8 2 1
f 8 1 5
f 11 1 2
f 11 2 7
f 13 5 1
f 16 6 4
f 16 4 10
f 18 7 12
f 19 12 7
f 19 7 2
f 19 2 6
f 20 9 13
f 21 5 13
f 25 10 17
f 26 18 12
f 27 14 22
f 27 20 14
f 27 24 9
f 27 9 20
f 28 17 26
f 28 26 12
f 29 20 13
f 29 13 1
f 30 4 5
f 30 5 21
f 32 1 11
f 32 29 1
f 32 22 14
f 32 14 20
f 32 20 29
f 33 11 7
f 33 7 18
f 34 23 13
f 34 13 9
f 34 9 23
f 35 23 9
f 35 9 15
f 35 15 21
f 35 21 13
f 35 13 23
f 36 31 24
f 36 10 31
f 37 15 9
f 37 9 24
f 37 24 31
f 37 31 21
f 37 21 15
f 38 16 10
f 38 10 25
f 39 26 17
f 39 17 10
f 39 10 36
f 40 26 3
f 40 18 26
f 41 28 12
f 42 25 17
f 42 38 25
f 43 30 21
f 43 21 31
f 44 32 11
f 44 22 32
f 44 33 22
f 44 11 33
f 45 27 22
f 45 22 33
f 45 40 27
f 45 33 18
f 45 18 40
f 46 36 24
f 46 39 36
f 46 3 26
f 46 26 39
f 47 6 16
f 47 16 38
f 47 38 42
f 48 40 3
f 48 24 27
f 48 27 40
f 48 46 24
f 48 3 46
f 49 19 6
f 49 28 41
f 50 41 12
f 50 12 19
f 50 49 41
f 50 19 49
f 51 42 17
f 51 17 28
f 52 4 30
f 52 30 43
f 52 43 31
f 52 31 10
f 53 47 42
f 53 42 51
f 53 51 28
f 53 28 49
f 53 49 6
f 53 6 47
f 54 52 10
f 54 10 4
f 55 54 4
f 55 4 52
f 55 52 54

