# https://github.com/mikedh/trimesh
v -0.03842458 -0.00714935 0.03565619
v -0.01949865 -0.03596869 0.03566570
v -0.02043791 -0.03363535 0.01817732
v -0.04119476 -0.00696945 0.01858094
v -0.03360161 -0.02388824 0.03465483
v -0.03865372 -0.00724417 0.01823044
v -0.02075320 -0.03288803 0.03485404
v -0.03491337 -0.02145100 0.03527932
v -0.02625019 -0.03246811 0.02002027
v -0.03493869 -0.02265398 0.01878493
v -0.04029933 -0.00683792 0.03537903
v -0.02036178 -0.03355190 0.03557691
v -0.02077444 -0.03284654 0.03276755
v -0.02514318 -0.03249717 0.03529872
v -0.03742541 -0.01656934 0.03533971
v -0.01936780 -0.03689166 0.01868995
v -0.03884914 -0.01539193 0.01873097
v -0.03240035 -0.02633341 0.02860291
v -0.03740273 -0.01901112 0.02612301
v -0.04150464 -0.00683022 0.02120012
v -0.01923067 -0.03673312 0.03249535
v -0.03242860 -0.02518650 0.03520290
v -0.02750631 -0.03120280 0.01876742
v -0.02753168 -0.03119111 0.03117689
v -0.03613320 -0.02025275 0.03249719
v -0.03742427 -0.01900610 0.02117295
v -0.03490311 -0.02271504 0.02988347
v -0.03990614 -0.01291988 0.01994720
v -0.02386422 -0.03371567 0.03475947
v -0.02263807 -0.03492294 0.03117293
v -0.03114784 -0.02754323 0.03120326
v -0.03117554 -0.02758189 0.01876431
v -0.02268397 -0.03495146 0.01886533
v -0.03742808 -0.01778816 0.03242861
v -0.03240737 -0.02634314 0.02000301
v -0.04128957 -0.00803832 0.02121173
v -0.04009651 -0.01175366 0.01875207
v -0.03995376 -0.01289455 0.02738271
v -0.02149320 -0.03506245 0.03534551
v -0.02873226 -0.02995962 0.03247248
v -0.02025236 -0.03619015 0.03245633
v -0.02628608 -0.03244769 0.02864456
v -0.02992268 -0.02877409 0.03248029
v -0.02029277 -0.03638719 0.01878399
v -0.03869085 -0.01529222 0.03114612
v -0.04152747 -0.00682636 0.02615713
v -0.03879522 -0.01409204 0.03471796
v -0.04131065 -0.00802595 0.02615706
v -0.03998212 -0.00924683 0.03524722
v -0.03994744 -0.01045262 0.03472804
f 6 1 3
f 10 6 3
f 11 1 6
f 12 7 1
f 12 1 2
f 13 3 1
f 13 1 7
f 13 12 3
f 13 7 12
f 15 8 2
f 15 2 1
f 15 1 11
f 17 4 6
f 17 6 10
f 20 11 6
f 20 6 4
f 21 12 2
f 21 3 12
f 21 16 3
f 22 8 5
f 22 14 2
f 22 2 8
f 23 3 16
f 25 5 8
f 26 17 10
f 27 18 5
f 27 25 19
f 27 5 25
f 27 19 26
f 27 26 10
f 28 17 26
f 31 5 18
f 32 10 3
f 32 3 23
f 32 23 9
f 33 23 16
f 33 9 23
f 34 25 8
f 34 8 15
f 34 19 25
f 35 27 10
f 35 18 27
f 35 32 18
f 35 10 32
f 36 20 4
f 37 4 17
f 37 17 28
f 37 36 4
f 37 28 36
f 38 28 26
f 38 26 19
f 38 36 28
f 39 21 2
f 39 2 14
f 39 14 29
f 40 29 14
f 40 24 29
f 41 30 16
f 41 16 21
f 41 21 39
f 41 39 29
f 41 29 30
f 42 30 29
f 42 29 24
f 42 33 30
f 42 9 33
f 42 32 9
f 42 24 18
f 42 18 32
f 43 22 5
f 43 5 31
f 43 31 18
f 43 18 24
f 43 24 40
f 43 40 14
f 43 14 22
f 44 33 16
f 44 16 30
f 44 30 33
f 45 38 19
f 45 19 34
f 46 11 20
f 46 20 36
f 47 45 34
f 47 34 15
f 47 38 45
f 48 46 36
f 48 36 38
f 49 47 15
f 49 15 11
f 50 49 11
f 50 11 46
f 50 46 48
f 50 48 38
f 50 38 47
f 50 47 49

