# https://github.com/mikedh/trimesh
v 0.02160708 -0.03332513 0.01836682
v 0.02045081 -0.03659275 0.01870166
v 0.02051076 -0.02656602 0.00108735
v -0.00826678 -0.02338152 0.00126082
v -0.00848558 -0.03849603 0.01835208
v 0.02162220 -0.02413471 0.00836702
v 0.02023926 -0.03370854 0.01190977
v -0.00785994 -0.03882443 0.01202665
v 0.02112499 -0.02364677 0.00068243
v -0.00832117 -0.02390472 0.00521236
v 0.02021827 -0.03619541 0.01646044
v -0.00792206 -0.03652109 0.00980057
v 0.00798986 -0.03885428 0.01196267
v 0.01343848 -0.02743097 0.00132296
v -0.00836269 -0.02539984 0.00589347
v 0.01287827 -0.03746151 0.01202059
v 0.00560880 -0.04147115 0.01867665
v -0.00424815 -0.04005431 0.01296061
v 0.00243347 -0.02729183 0.00165668
v 0.00928090 -0.03764637 0.01083035
v 0.01765658 -0.03610138 0.01314572
v -0.00814618 -0.04095767 0.01861221
v 0.01175814 -0.04000607 0.01750306
v -0.00550557 -0.03542036 0.00857192
v 0.00432443 -0.04130263 0.01632233
v 0.00810269 -0.03532793 0.00855982
v 0.01892784 -0.03604712 0.01428369
v -0.00551090 -0.04147451 0.01866748
v -0.00788883 -0.03988540 0.01400721
v 0.01292587 -0.03869414 0.01415967
v 0.01527618 -0.03859060 0.01641698
v 0.01552122 -0.03894457 0.01872208
v 0.00557109 -0.03993940 0.01304788
v 0.00554991 -0.04134975 0.01749849
v 0.00931992 -0.03650369 0.00973386
v -0.00423881 -0.04128977 0.01633314
v 0.01646670 -0.03729169 0.01415573
v 0.00805025 -0.04000560 0.01409950
v 0.01177998 -0.04015883 0.01867662
v -0.00545368 -0.04135017 0.01744917
f 5 2 1
f 7 3 1
f 9 6 1
f 9 1 3
f 9 4 6
f 10 5 1
f 10 1 6
f 10 6 4
f 11 7 1
f 11 1 2
f 12 8 5
f 12 5 4
f 14 9 3
f 14 4 9
f 15 10 4
f 15 4 5
f 15 5 10
f 18 8 12
f 19 4 14
f 20 14 3
f 20 16 13
f 20 3 16
f 21 16 3
f 21 3 7
f 22 2 5
f 24 18 12
f 24 19 14
f 24 12 4
f 24 4 19
f 26 20 13
f 26 13 18
f 26 18 24
f 26 24 14
f 27 21 7
f 27 7 11
f 28 2 22
f 28 25 17
f 29 22 5
f 29 5 8
f 29 8 18
f 30 13 16
f 31 11 2
f 31 23 30
f 32 28 17
f 32 2 28
f 32 31 2
f 32 23 31
f 33 25 18
f 33 18 13
f 34 17 25
f 35 26 14
f 35 14 20
f 35 20 26
f 36 18 25
f 36 25 28
f 36 29 18
f 37 30 16
f 37 16 21
f 37 21 27
f 37 31 30
f 37 27 11
f 37 11 31
f 38 30 23
f 38 25 33
f 38 33 13
f 38 13 30
f 38 34 25
f 38 23 34
f 39 32 17
f 39 23 32
f 39 34 23
f 39 17 34
f 40 36 28
f 40 28 22
f 40 22 29
f 40 29 36

