# https://github.com/mikedh/trimesh
v -0.02079075 0.02461778 0.00644166
v -0.02029544 -0.01768383 0.00568412
v -0.01926768 0.02429775 0.00571796
v -0.01955857 0.02216658 0.00058992
v -0.03065650 -0.01503688 0.00994629
v -0.01976666 -0.01724987 0.00060204
v -0.01938419 0.02333880 0.00092924
v -0.01995719 0.01998115 0.00650288
v -0.02971899 0.01582843 0.00757156
v -0.02938003 -0.01760985 0.01001085
v -0.01966092 0.02477672 0.00608889
v -0.03045676 0.01102190 0.00883850
v -0.02735963 0.00593853 0.00063624
v -0.02721034 0.01964990 0.00751415
v -0.02920402 -0.01678729 0.00702218
v -0.03024053 -0.01739140 0.01058546
v -0.02749317 0.01160299 0.00064157
v -0.02840318 0.01832609 0.00766230
v -0.02142558 -0.01560198 0.00087421
v -0.02911222 -0.00434950 0.00470878
v -0.02354669 0.01750918 0.00063586
v -0.02663046 0.00086197 0.00078783
v -0.02050097 -0.01702592 0.00070301
v -0.02898291 -0.01431202 0.00611053
v -0.02909209 0.00305591 0.00473881
v -0.02029946 0.02175267 0.00066432
v -0.02617397 0.01383257 0.00063651
f 6 3 2
f 7 6 4
f 7 3 6
f 8 2 3
f 10 6 2
f 11 7 1
f 11 3 7
f 11 8 3
f 11 1 8
f 13 4 6
f 14 1 7
f 14 12 1
f 15 6 10
f 16 10 2
f 16 2 8
f 16 8 1
f 16 1 12
f 16 12 5
f 16 15 10
f 16 5 15
f 17 12 9
f 17 4 13
f 18 9 12
f 18 12 14
f 18 17 9
f 18 14 7
f 20 17 13
f 20 5 12
f 21 18 7
f 23 6 15
f 23 15 19
f 23 19 22
f 23 22 13
f 23 13 6
f 24 20 13
f 24 15 5
f 24 5 20
f 24 13 22
f 24 22 19
f 24 19 15
f 25 20 12
f 25 12 17
f 25 17 20
f 26 21 7
f 26 7 4
f 26 4 21
f 27 21 4
f 27 4 17
f 27 17 18
f 27 18 21

