# https://github.com/mikedh/trimesh
v -0.00848558 -0.03849603 0.01835208
v -0.00814618 -0.04095767 0.01861221
v -0.00826717 -0.01980788 0.00091714
v -0.01978336 -0.00831181 0.00073926
v -0.03818293 -0.01692838 0.01864816
v -0.01343483 -0.00836551 0.00337896
v -0.00828625 -0.01987630 0.00403534
v -0.02388870 -0.03003787 0.01104624
v -0.01325844 -0.00825415 0.00059478
v -0.03512472 -0.01787158 0.01820039
v -0.01989364 -0.00833415 0.00404848
v -0.00795949 -0.04024582 0.01512196
v -0.02404196 -0.03398476 0.01875679
v -0.03285440 -0.01676827 0.00954208
v -0.01794103 -0.02153135 0.00085335
v -0.03775970 -0.01674128 0.01632740
v -0.00818152 -0.02398064 0.00175271
v -0.01163725 -0.04007307 0.01873370
v -0.01647083 -0.03740841 0.01525108
v -0.01470037 -0.02223964 0.00071639
v -0.02050097 -0.01702592 0.00070301
v -0.02879531 -0.02512372 0.01087930
v -0.03520718 -0.01672341 0.01181420
v -0.02988509 -0.02867802 0.01763042
v -0.03773785 -0.01793769 0.01871149
v -0.01158195 -0.03990619 0.01754671
v -0.02251397 -0.03355783 0.01423818
v -0.01784442 -0.03764877 0.01875844
v -0.01160148 -0.03763346 0.01204185
v -0.01883443 -0.02035863 0.00074774
v -0.01984751 -0.01090661 0.00065602
v -0.03349332 -0.02256456 0.01423155
v -0.03244130 -0.02024867 0.01094847
v -0.02619367 -0.02993270 0.01309834
v -0.03002209 -0.02883331 0.01873012
v -0.00917354 -0.03998013 0.01520812
v -0.02626440 -0.03116200 0.01533285
v -0.02139582 -0.03487426 0.01539773
v -0.02029277 -0.03638719 0.01878399
v -0.01774071 -0.03749413 0.01757522
v -0.00807968 -0.03438719 0.00831011
v -0.02024830 -0.03254473 0.01105093
v -0.02024174 -0.01815574 0.00082491
v -0.03359785 -0.02137235 0.01311321
v -0.03600218 -0.02010995 0.01651884
v -0.03263057 -0.01788049 0.00983422
v -0.02765420 -0.02281970 0.00864691
v -0.02379311 -0.03118386 0.01211832
v -0.02993116 -0.02626803 0.01325779
v -0.00800656 -0.03928315 0.01274900
v -0.02376765 -0.03363018 0.01652282
v -0.02015959 -0.03362554 0.01205749
v -0.03642661 -0.02031083 0.01872243
v -0.02021034 -0.03620619 0.01763155
v -0.01160647 -0.03524459 0.00980949
v -0.01440823 -0.02339205 0.00137233
v -0.03488593 -0.01776436 0.01205754
v -0.02996092 -0.02508969 0.01204744
v -0.03735539 -0.01767565 0.01646754
v -0.03354371 -0.02384544 0.01645455
v -0.03023564 -0.01914043 0.00860748
v -0.01032077 -0.03879922 0.01307428
v -0.01532667 -0.03511775 0.01106991
v -0.01403724 -0.03742421 0.01309122
f 5 2 1
f 7 1 2
f 7 6 1
f 9 7 3
f 9 6 7
f 10 6 5
f 10 5 1
f 10 1 6
f 11 5 6
f 11 9 4
f 11 6 9
f 12 7 2
f 16 11 4
f 16 5 11
f 17 3 7
f 17 7 12
f 20 9 3
f 20 3 17
f 21 14 4
f 21 9 20
f 22 15 8
f 23 16 4
f 23 4 14
f 25 18 2
f 25 2 5
f 25 5 16
f 26 2 18
f 28 26 18
f 30 15 22
f 30 21 20
f 30 20 15
f 31 21 4
f 31 4 9
f 31 9 21
f 34 22 8
f 35 24 13
f 36 12 2
f 36 2 26
f 36 26 19
f 37 34 27
f 39 35 13
f 39 28 18
f 39 18 25
f 40 19 26
f 40 26 28
f 40 28 39
f 40 38 19
f 41 17 12
f 42 8 15
f 43 14 21
f 43 21 30
f 46 23 14
f 46 14 43
f 47 30 22
f 47 22 33
f 48 34 8
f 48 27 34
f 49 37 24
f 49 34 37
f 50 12 36
f 50 41 12
f 51 13 24
f 51 24 37
f 51 37 27
f 51 27 38
f 52 38 27
f 52 19 38
f 52 27 48
f 52 48 8
f 52 8 42
f 53 39 25
f 53 35 39
f 54 40 39
f 54 38 40
f 54 51 38
f 54 39 13
f 54 13 51
f 55 50 29
f 55 41 50
f 56 15 20
f 56 20 17
f 56 17 41
f 56 55 15
f 56 41 55
f 57 16 23
f 57 33 44
f 57 46 33
f 57 23 46
f 58 44 33
f 58 33 22
f 58 22 34
f 58 34 49
f 58 49 32
f 58 32 44
f 59 25 16
f 59 44 32
f 59 32 45
f 59 57 44
f 59 16 57
f 59 53 25
f 59 45 53
f 60 45 32
f 60 53 45
f 60 24 35
f 60 35 53
f 60 49 24
f 60 32 49
f 61 46 43
f 61 43 30
f 61 30 47
f 61 47 33
f 61 33 46
f 62 50 36
f 62 36 19
f 62 29 50
f 63 52 42
f 63 55 29
f 63 42 15
f 63 15 55
f 64 19 52
f 64 62 19
f 64 29 62
f 64 63 29
f 64 52 63

