# https://github.com/mikedh/trimesh
v 0.03572823 0.02192843 0.01987326
v 0.04007280 0.01207549 0.01984704
v 0.03274963 0.01659673 0.00983979
v 0.01183840 0.02766737 0.00139897
v 0.01234956 0.03430481 0.01175061
v 0.01611087 0.01216965 0.00409444
v 0.02506527 0.03115367 0.01324879
v 0.03730629 0.01657784 0.01531820
v 0.01951384 0.03713893 0.01859757
v 0.02325992 0.01200832 0.00154110
v 0.01248882 0.02287900 0.00568873
v 0.02107959 0.01999046 0.00172216
v 0.03879404 0.01533462 0.01878078
v 0.03765843 0.01171305 0.01301540
v 0.03482973 0.02144363 0.01538541
v 0.03236359 0.02307858 0.01961351
v 0.02767233 0.03129103 0.01874210
v 0.02026865 0.03369877 0.01207819
v 0.03759772 0.01250524 0.01959536
v 0.02055499 0.03379387 0.01825437
v 0.01341708 0.01851550 0.00049334
v 0.01354797 0.01734108 0.00412668
v 0.01192394 0.03318636 0.00810139
v 0.03138841 0.02155480 0.01108331
v 0.01520198 0.02636863 0.00143085
v 0.03419887 0.01184302 0.00948267
v 0.03626762 0.02026527 0.01766533
v 0.03890757 0.01546472 0.01995177
v 0.03894605 0.01174930 0.01530555
v 0.03510002 0.01664634 0.01209681
v 0.02043030 0.03659291 0.01870748
v 0.02760689 0.02884198 0.01328884
v 0.02756075 0.03116465 0.01763032
v 0.02267822 0.03364087 0.01415090
v 0.01983280 0.01214665 0.00082180
v 0.01210179 0.02227521 0.00057652
v 0.01429748 0.03289663 0.00856057
v 0.01928511 0.03672004 0.01629602
v 0.03142469 0.01907580 0.00988935
v 0.02637675 0.02760932 0.01102746
v 0.02382773 0.03119947 0.01213406
v 0.01785125 0.03275798 0.00983134
v 0.02230180 0.01811073 0.00196259
v 0.03746892 0.01784859 0.01763281
v 0.03660191 0.02041821 0.01995884
v 0.03864862 0.01410930 0.01650062
v 0.03742649 0.01289854 0.01324243
v 0.03255387 0.02147405 0.01213055
v 0.03493410 0.01901024 0.01329207
v 0.03401785 0.01301685 0.00966904
v 0.02276068 0.03507351 0.01875683
v 0.02507764 0.03244238 0.01538184
v 0.01208779 0.02349169 0.00069884
v 0.01592029 0.01847305 0.00065223
v 0.02023908 0.03623166 0.01651394
v 0.02031212 0.03261843 0.01102612
v 0.02760862 0.02762998 0.01210961
v 0.01303460 0.02740353 0.00155545
v 0.03866406 0.01288314 0.01546335
v 0.02265394 0.03493614 0.01751767
v 0.01587511 0.02100001 0.00081134
v 0.01333756 0.02346052 0.00079051
f 14 6 10
f 19 6 2
f 19 16 9
f 20 9 5
f 20 5 6
f 20 19 9
f 20 6 19
f 22 6 5
f 22 5 11
f 22 21 6
f 23 11 5
f 26 14 10
f 27 15 1
f 27 8 15
f 28 2 13
f 28 19 2
f 28 16 19
f 29 2 6
f 29 6 14
f 31 9 16
f 33 17 1
f 33 1 15
f 33 15 32
f 35 10 6
f 35 6 21
f 35 12 10
f 36 23 4
f 36 11 23
f 36 22 11
f 36 21 22
f 37 4 23
f 38 23 5
f 38 5 9
f 38 37 23
f 38 18 37
f 38 34 18
f 39 24 3
f 39 3 12
f 39 12 24
f 40 24 12
f 40 12 25
f 41 40 25
f 41 7 32
f 41 34 7
f 41 18 34
f 42 18 25
f 42 37 18
f 43 12 3
f 43 26 10
f 43 10 12
f 44 8 27
f 44 28 13
f 45 16 28
f 45 31 16
f 45 1 31
f 45 28 44
f 45 44 27
f 45 27 1
f 46 13 2
f 46 2 29
f 46 44 13
f 46 8 44
f 47 29 14
f 47 14 30
f 48 30 3
f 48 3 24
f 48 32 15
f 49 15 8
f 49 47 30
f 49 8 47
f 49 48 15
f 49 30 48
f 50 3 30
f 50 43 3
f 50 26 43
f 50 30 14
f 50 14 26
f 51 31 1
f 51 1 17
f 52 33 32
f 52 32 7
f 52 7 34
f 53 36 4
f 53 4 25
f 54 35 21
f 54 21 36
f 55 38 9
f 55 9 31
f 55 52 34
f 55 34 38
f 56 41 25
f 56 25 18
f 56 18 41
f 57 41 32
f 57 40 41
f 57 32 48
f 57 48 24
f 57 24 40
f 58 42 25
f 58 25 4
f 58 4 37
f 58 37 42
f 59 46 29
f 59 8 46
f 59 47 8
f 59 29 47
f 60 51 17
f 60 17 33
f 60 33 52
f 60 52 55
f 60 55 31
f 60 31 51
f 61 12 35
f 61 35 54
f 61 25 12
f 61 54 36
f 62 53 25
f 62 25 61
f 62 61 36
f 62 36 53

