# https://github.com/mikedh/trimesh
v -0.02223705 0.02045134 0.07600323
v -0.02912718 0.00025856 0.06121281
v -0.02211375 0.01859973 0.02851429
v -0.02506363 0.01967897 0.04371132
v -0.02152659 0.01954009 0.02870391
v -0.02562577 0.01545302 0.07595816
v -0.02479854 0.01931538 0.07620841
v -0.03057276 0.00023434 0.03442787
v -0.02277191 0.02080966 0.04372156
v -0.02455311 0.01808962 0.03079519
v -0.02744690 0.01542217 0.07631650
v -0.02933792 0.00023489 0.03425343
v -0.02181522 0.01971052 0.02995469
v -0.02385818 0.01842278 0.02924265
v -0.02859155 0.01170538 0.03583436
v -0.03343842 0.00005738 0.06136554
v -0.02810485 0.01443924 0.07628234
v -0.02567404 0.01129137 0.02865227
v -0.02592391 0.01688118 0.03323487
v -0.03301233 -0.00006766 0.05868894
v -0.03013738 0.00535069 0.03453876
v -0.02729689 0.01548333 0.03974712
v -0.02500984 0.01288608 0.02841891
v -0.02712445 0.01296491 0.03085500
v -0.03003699 0.00658796 0.03580102
v -0.03310210 0.00109367 0.06139912
v -0.02719764 0.01431532 0.03328778
v -0.02473143 0.01696061 0.02940338
v -0.02753620 0.01050048 0.02939951
v -0.02714612 0.01170430 0.02953387
f 5 1 2
f 6 2 1
f 9 1 5
f 9 7 1
f 9 4 7
f 11 6 1
f 11 1 7
f 11 7 4
f 12 5 2
f 13 9 5
f 13 4 9
f 14 5 3
f 14 13 5
f 14 10 4
f 14 4 13
f 17 2 6
f 17 6 11
f 17 16 2
f 17 11 4
f 18 12 8
f 18 5 12
f 19 4 10
f 20 12 2
f 20 2 16
f 20 16 8
f 20 8 12
f 21 8 16
f 22 17 4
f 22 4 19
f 23 3 5
f 23 5 18
f 23 14 3
f 25 21 16
f 25 16 15
f 25 15 21
f 26 22 15
f 26 15 16
f 26 16 17
f 26 17 22
f 27 22 19
f 27 15 22
f 27 24 15
f 28 19 10
f 28 10 14
f 28 27 19
f 28 24 27
f 29 18 8
f 29 8 21
f 29 21 15
f 29 15 24
f 29 23 18
f 29 28 14
f 29 14 23
f 30 29 24
f 30 24 28
f 30 28 29

