# https://github.com/mikedh/trimesh
v -0.01508201 -0.02915571 0.08392110
v -0.00860597 -0.03435162 0.08348119
v -0.03084473 0.00015782 0.07424913
v -0.03057276 0.00023434 0.03442787
v -0.01576185 -0.02923714 0.03449518
v -0.02933792 0.00023489 0.03425343
v -0.00953150 -0.03225453 0.08321603
v -0.01580771 -0.03058299 0.08356236
v -0.03040848 0.00025102 0.07286605
v -0.02870963 -0.01131310 0.03454795
v -0.03393139 -0.00019811 0.07661452
v -0.00836587 -0.03384563 0.04372957
v -0.01417484 -0.03065318 0.08403623
v -0.01356121 -0.02920549 0.03412102
v -0.03005093 -0.00617381 0.03452196
v -0.03544969 -0.01139558 0.07903266
v -0.02436286 -0.02072302 0.08390704
v -0.00934736 -0.03208962 0.04372123
v -0.01448124 -0.03040078 0.03715909
v -0.01195778 -0.03308287 0.08332964
v -0.02334740 -0.02162319 0.03455032
v -0.01239874 -0.03136948 0.03440200
v -0.02537862 -0.02183394 0.08385155
v -0.03286257 -0.00016472 0.05739126
v -0.03392223 -0.01206881 0.08151266
v -0.02599999 -0.01984963 0.08405659
v -0.00950506 -0.03336120 0.04373505
v -0.01631246 -0.02997648 0.08384870
v -0.02598038 -0.01767512 0.03582947
v -0.01335204 -0.03079573 0.03444667
v -0.01992298 -0.02697485 0.08392210
v -0.03468109 -0.01245916 0.08078029
v -0.03040036 -0.01647202 0.08282287
v -0.03123190 -0.01470854 0.08266151
v -0.03519280 -0.01161294 0.08088133
v -0.02837898 -0.01572513 0.08271397
v -0.03308224 -0.01375810 0.08177092
f 7 1 2
f 9 6 4
f 9 7 6
f 9 3 7
f 11 7 3
f 11 9 4
f 11 3 9
f 12 7 2
f 13 2 1
f 14 10 6
f 14 6 12
f 15 4 6
f 15 6 10
f 16 15 10
f 16 4 15
f 17 1 7
f 17 7 11
f 18 12 6
f 18 6 7
f 18 7 12
f 19 8 5
f 20 12 2
f 20 8 19
f 20 2 13
f 21 14 5
f 21 10 14
f 22 14 12
f 22 5 14
f 24 16 11
f 24 11 4
f 24 4 16
f 26 13 1
f 26 1 17
f 26 17 11
f 27 20 19
f 27 12 20
f 27 22 12
f 27 19 22
f 28 20 13
f 28 8 20
f 29 21 16
f 29 16 10
f 29 10 21
f 30 22 19
f 30 19 5
f 30 5 22
f 31 23 5
f 31 5 8
f 31 8 28
f 31 28 13
f 31 26 23
f 31 13 26
f 32 21 5
f 32 5 23
f 32 16 21
f 33 23 26
f 33 32 23
f 34 11 25
f 34 33 26
f 35 25 11
f 35 11 16
f 35 16 32
f 35 34 25
f 36 34 26
f 36 26 11
f 36 11 34
f 37 35 32
f 37 32 33
f 37 33 34
f 37 34 35

