# https://github.com/mikedh/trimesh
v 0.00073430 -0.03571668 0.03435822
v 0.02146749 -0.02631881 0.02181595
v -0.02605664 -0.01716107 0.03432638
v -0.01267706 -0.01046697 0.00009696
v 0.00730773 -0.02274715 0.00079140
v 0.02142638 -0.01507999 0.00286585
v -0.00913581 -0.02631734 0.01493280
v 0.00749191 -0.03459926 0.03274921
v -0.00470810 -0.01052160 0.00110323
v 0.02066038 -0.01438158 0.00016968
v -0.01576185 -0.02923714 0.03449518
v -0.01657203 -0.01861651 0.01230040
v 0.00224330 -0.03043000 0.01611875
v -0.00537173 -0.02017139 0.00081785
v -0.02433054 -0.01769328 0.03418235
v 0.00217525 -0.02253931 0.00069746
v -0.00470838 -0.01052023 0.00003810
v 0.01953188 -0.02104454 0.00564972
v -0.00793416 -0.03296472 0.03208719
v -0.02233958 -0.02289932 0.03456258
v -0.02235510 -0.01531762 0.01992647
v -0.01541866 -0.02645767 0.02556458
v 0.00719713 -0.03451055 0.02809233
v -0.01154841 -0.01499485 0.00084711
v -0.00885392 -0.01982553 0.00317401
v 0.00050364 -0.03444842 0.03414239
v 0.00343194 -0.02507121 0.00427098
v 0.01996223 -0.01638396 0.00068097
v -0.00818101 -0.03335214 0.03447509
v -0.00159800 -0.03163197 0.02137383
v -0.02494615 -0.01907629 0.03448337
v -0.02499822 -0.01655907 0.02937517
v -0.01926144 -0.01869785 0.01761233
v -0.01279842 -0.02505083 0.01766175
v -0.01687940 -0.02783024 0.03205231
v -0.01190944 -0.03040396 0.02951830
v 0.00738256 -0.03578284 0.03300550
v 0.01618882 -0.03039169 0.02141988
v -0.01577261 -0.01524753 0.00667012
v -0.00521409 -0.02358736 0.00559205
v -0.00923723 -0.01758861 0.00100522
v 0.01234734 -0.02157990 0.00077433
v -0.00427743 -0.03446540 0.03327937
v -0.00433545 -0.03466631 0.03451753
v 0.00223621 -0.03436744 0.02812827
v -0.00668357 -0.02758535 0.01488239
v -0.02457006 -0.01889359 0.03210310
v -0.01143067 -0.02109131 0.00833663
v -0.01411174 -0.02116491 0.01233589
v -0.01937268 -0.02387174 0.02823883
v -0.01303360 -0.02767017 0.02419720
v -0.01315950 -0.03045416 0.03197417
v 0.01973235 -0.02767931 0.01890864
v 0.01227551 -0.03165166 0.02144606
v 0.02043342 -0.02858972 0.02246180
v -0.02187706 -0.01633256 0.02008560
v -0.01134985 -0.01854208 0.00449614
v -0.00640999 -0.02230059 0.00442622
v -0.00272881 -0.02234993 0.00183851
v -0.00147231 -0.02626651 0.00827841
v -0.00762014 -0.01973364 0.00186621
v 0.01731800 -0.01894417 0.00085745
v -0.00029700 -0.03440775 0.02944600
v 0.00090856 -0.03170542 0.02004745
f 6 3 2
f 9 4 3
f 9 3 6
f 10 9 6
f 15 8 2
f 15 2 3
f 16 10 5
f 16 14 4
f 17 4 9
f 17 9 10
f 17 16 4
f 17 10 16
f 18 6 2
f 24 4 14
f 26 15 3
f 26 3 1
f 26 1 8
f 26 8 15
f 27 16 5
f 28 10 6
f 28 6 18
f 31 1 3
f 32 3 4
f 32 4 21
f 35 11 20
f 37 8 1
f 37 2 8
f 39 21 4
f 39 4 24
f 39 12 33
f 41 24 14
f 42 5 10
f 43 29 19
f 43 19 30
f 44 20 11
f 44 11 29
f 44 31 20
f 44 1 31
f 44 43 1
f 44 29 43
f 45 37 1
f 45 23 37
f 46 30 19
f 46 7 40
f 46 36 7
f 46 19 36
f 47 31 3
f 47 3 32
f 47 20 31
f 48 7 34
f 49 33 12
f 49 48 34
f 49 34 22
f 49 22 33
f 50 33 22
f 50 22 35
f 50 35 20
f 50 47 33
f 50 20 47
f 51 35 22
f 51 22 34
f 51 34 7
f 51 7 36
f 52 11 35
f 52 51 36
f 52 35 51
f 52 29 11
f 52 36 19
f 52 19 29
f 53 42 18
f 53 38 42
f 54 38 37
f 54 37 23
f 54 23 13
f 54 13 27
f 54 27 5
f 54 42 38
f 54 5 42
f 55 2 37
f 55 37 38
f 55 38 53
f 55 53 18
f 55 18 2
f 56 39 33
f 56 21 39
f 56 33 47
f 56 47 32
f 56 32 21
f 57 39 24
f 57 25 48
f 57 12 39
f 57 49 12
f 57 48 49
f 57 41 25
f 57 24 41
f 58 48 25
f 58 40 7
f 58 7 48
f 59 14 16
f 59 16 27
f 59 58 14
f 59 40 58
f 60 27 13
f 60 46 40
f 60 13 30
f 60 30 46
f 60 59 27
f 60 40 59
f 61 41 14
f 61 25 41
f 61 58 25
f 61 14 58
f 62 28 18
f 62 18 42
f 62 42 10
f 62 10 28
f 63 43 30
f 63 45 1
f 63 1 43
f 64 30 13
f 64 13 23
f 64 23 45
f 64 63 30
f 64 45 63

