# https://github.com/mikedh/trimesh
v 0.04280261 0.00162122 0.08313130
v 0.04360567 -0.00753100 0.08238465
v 0.04229020 0.00152119 0.04517233
v 0.03936904 0.00166332 0.03267128
v 0.02903856 -0.02679833 0.07465280
v 0.03971475 0.00169024 0.03404049
v 0.04392674 0.00145034 0.08289105
v 0.03070871 -0.02705721 0.08286522
v 0.04224478 0.00165657 0.08236932
v 0.03322046 -0.02170971 0.03325881
v 0.04237969 -0.01151033 0.08280818
v 0.04225092 -0.00232023 0.04651541
v 0.04366997 0.00152723 0.08059900
v 0.02957716 -0.02743357 0.08119399
v 0.03052192 -0.02285991 0.03288961
v 0.04360240 -0.00627818 0.08274091
v 0.03137799 -0.02636999 0.08288554
v 0.04227888 0.00029406 0.04516063
v 0.04070669 -0.01010557 0.04522209
v 0.04074144 -0.00221646 0.03336328
v 0.02960668 -0.02727290 0.04243657
v 0.03115723 -0.02208137 0.03263888
v 0.04221314 -0.00360689 0.04785840
v 0.04232183 -0.01274517 0.08238597
v 0.04083464 0.00148381 0.03333512
v 0.03802164 -0.01392903 0.03459216
v 0.02999595 -0.02769478 0.07467041
v 0.03951323 -0.00874708 0.03335154
v 0.04358499 -0.00753985 0.08188560
v 0.04076921 -0.00738326 0.03854774
v 0.03687218 -0.02292233 0.08228056
v 0.03801369 -0.01640577 0.04251034
v 0.03665434 -0.01631698 0.03343322
v 0.04070959 -0.00868760 0.04120685
v 0.03941762 -0.01006253 0.03456749
v 0.03406734 -0.02278883 0.04522988
v 0.03447706 -0.02560505 0.08262207
v 0.04124194 -0.01531967 0.08264791
v 0.03939209 -0.01260584 0.03989684
v 0.03422640 -0.02032174 0.03333157
v 0.03802300 -0.01510806 0.03726808
v 0.03161784 -0.02531120 0.04248553
v 0.03671303 -0.01896507 0.04386895
v 0.03835515 -0.02045153 0.08266029
v 0.03939316 -0.01389115 0.04519924
v 0.03544613 -0.01906019 0.03470015
v 0.03415744 -0.02145959 0.03721923
v 0.03028548 -0.02662660 0.04249887
v 0.03948486 -0.01897701 0.08200980
v 0.03564165 -0.02430617 0.08262453
v 0.04081777 -0.01648303 0.08196665
v 0.04072758 -0.01138178 0.05186050
v 0.03667458 -0.01765159 0.03728347
v 0.03542088 -0.02012470 0.03857601
v 0.03943422 -0.01898402 0.08237859
v 0.04081775 -0.01649581 0.08237855
f 6 1 3
f 9 4 5
f 9 6 4
f 9 1 6
f 9 8 1
f 13 7 3
f 13 3 1
f 13 1 7
f 14 9 5
f 14 8 9
f 15 5 4
f 16 7 1
f 16 1 11
f 16 11 2
f 16 2 7
f 17 11 1
f 17 1 8
f 18 3 7
f 18 7 12
f 20 18 12
f 21 15 10
f 21 14 5
f 21 5 15
f 22 15 4
f 22 10 15
f 24 2 11
f 25 20 4
f 25 4 6
f 25 6 3
f 25 3 18
f 25 18 20
f 27 8 14
f 27 14 21
f 28 22 4
f 28 4 20
f 29 19 23
f 29 24 19
f 29 2 24
f 29 23 12
f 29 12 7
f 29 7 2
f 30 20 12
f 30 12 23
f 30 28 20
f 33 22 28
f 33 28 26
f 34 30 23
f 34 23 19
f 35 26 28
f 35 28 30
f 37 27 21
f 37 8 27
f 37 17 8
f 38 24 11
f 39 26 35
f 39 34 19
f 39 35 30
f 39 30 34
f 40 10 22
f 40 22 33
f 41 33 26
f 41 39 32
f 41 26 39
f 42 36 31
f 42 31 37
f 43 31 36
f 44 11 17
f 44 38 11
f 45 32 39
f 45 39 19
f 46 40 33
f 46 33 41
f 46 10 40
f 47 42 10
f 47 36 42
f 48 42 37
f 48 37 21
f 48 21 10
f 48 10 42
f 49 43 32
f 49 31 43
f 50 44 17
f 50 17 37
f 50 37 31
f 50 31 44
f 51 45 24
f 51 49 32
f 51 32 45
f 52 45 19
f 52 19 24
f 52 24 45
f 53 46 41
f 53 41 32
f 54 47 10
f 54 10 46
f 54 43 36
f 54 36 47
f 54 46 53
f 54 53 32
f 54 32 43
f 55 38 44
f 55 44 31
f 55 31 49
f 56 51 24
f 56 24 38
f 56 38 55
f 56 55 49
f 56 49 51

