# https://github.com/mikedh/trimesh
v 0.01296330 -0.03587817 0.08286329
v 0.01256900 -0.03743500 0.08268756
v 0.01284309 -0.03365792 0.03290130
v -0.01294416 -0.02962626 0.03425568
v -0.00907079 -0.03263290 0.08344739
v -0.00042102 -0.03584278 0.03712131
v 0.01300848 -0.03469266 0.07459078
v 0.01246859 -0.03586489 0.04110844
v -0.00549910 -0.03581333 0.08315992
v 0.00073544 -0.03549877 0.03306674
v -0.00931887 -0.03195930 0.08118816
v 0.00853597 -0.03588723 0.03455330
v -0.00032456 -0.03723546 0.08184379
v -0.01199011 -0.03209767 0.04373023
v 0.00051885 -0.03422944 0.03276164
v -0.01314469 -0.02993818 0.04372370
v 0.01117000 -0.03582658 0.03715116
v 0.00217492 -0.03589761 0.03454630
v 0.01255115 -0.03497159 0.03317586
v -0.00675034 -0.03448937 0.04239747
v -0.00034620 -0.03721856 0.08291442
v -0.00825045 -0.03478936 0.08323564
v -0.01089371 -0.03076595 0.03407094
v -0.00172103 -0.03590371 0.04641888
v -0.00556665 -0.03448253 0.03584109
v -0.00433545 -0.03466631 0.03451753
v -0.00940541 -0.03303694 0.03587523
v -0.01183212 -0.03171097 0.03454930
f 7 1 3
f 7 3 4
f 8 1 2
f 8 3 1
f 9 2 1
f 9 1 5
f 11 5 1
f 11 1 7
f 15 4 3
f 16 11 7
f 16 7 4
f 16 4 14
f 16 5 11
f 17 8 2
f 17 2 12
f 18 6 10
f 18 10 12
f 18 13 6
f 18 12 2
f 18 2 13
f 19 12 10
f 19 17 12
f 19 3 8
f 19 8 17
f 19 15 3
f 19 10 15
f 20 13 9
f 21 13 2
f 21 2 9
f 21 9 13
f 22 9 5
f 22 16 14
f 22 5 16
f 22 20 9
f 22 14 20
f 23 15 10
f 23 4 15
f 24 20 6
f 24 6 13
f 24 13 20
f 25 6 20
f 26 10 6
f 26 6 25
f 27 25 20
f 27 20 14
f 27 26 25
f 28 23 10
f 28 10 26
f 28 26 27
f 28 4 23
f 28 27 14
f 28 14 4

