# https://github.com/mikedh/trimesh
v 0.02774532 0.02731678 0.03340949
v 0.03892834 0.01073216 0.03314680
v 0.03000236 0.01928838 0.02022763
v 0.02029676 0.01585077 0.00044024
v 0.02085114 0.00965675 0.00108995
v 0.02771238 0.00905666 0.00417305
v 0.02108956 0.02679816 0.01889591
v 0.03552023 0.01814372 0.03333012
v 0.02211897 0.03104224 0.03299565
v 0.03256574 0.01283241 0.01753269
v 0.02595340 0.01392249 0.00563992
v 0.02442531 0.00942615 0.00033437
v 0.03441259 0.00927245 0.01866535
v 0.02741403 0.02166080 0.01897684
v 0.02013621 0.02728220 0.01865447
v 0.03852451 0.01193069 0.03325042
v 0.03143389 0.02321938 0.03211436
v 0.03712290 0.01158154 0.03255608
v 0.02498266 0.02820150 0.02951561
v 0.03389036 0.01799253 0.02822312
v 0.03123490 0.01027321 0.01224310
v 0.02997048 0.01660775 0.01627780
v 0.02085538 0.00965898 0.00002398
v 0.02479479 0.01146678 0.00172719
v 0.02085827 0.01898721 0.00436874
v 0.02006575 0.01944309 0.00403104
v 0.03686948 0.01565774 0.03330945
v 0.03791225 0.01164922 0.03092048
v 0.02414781 0.02994368 0.03328125
v 0.03166859 0.02340838 0.03335055
v 0.02752489 0.02561872 0.02818590
v 0.03014094 0.02171154 0.02553115
v 0.02334866 0.02884592 0.03248104
v 0.02267907 0.02966387 0.02944165
v 0.03265230 0.02054075 0.02953011
v 0.02728949 0.01015332 0.00439218
v 0.03158652 0.00919865 0.01206656
v 0.03124704 0.01546736 0.01757841
v 0.02596775 0.01910963 0.01232955
v 0.02374844 0.01161049 0.00062424
v 0.02336592 0.01395676 0.00191149
v 0.02350901 0.02163817 0.01235061
v 0.02003511 0.02199721 0.00804559
v 0.02111777 0.01549011 0.00070003
v 0.03527266 0.01802183 0.03217744
v 0.03522545 0.01552397 0.02820752
v 0.03406452 0.01044299 0.01881298
v 0.03657985 0.01556416 0.03208421
v 0.03829171 0.01052326 0.03078778
v 0.02760205 0.02698539 0.03212437
v 0.02364216 0.02557710 0.02017050
v 0.02876880 0.02434717 0.02820082
v 0.02074404 0.02830850 0.02225899
v 0.02379551 0.02943460 0.03080858
v 0.03257496 0.01927261 0.02686422
v 0.02593127 0.01279640 0.00443022
v 0.03254271 0.01160807 0.01627396
v 0.02865167 0.01658948 0.01366671
v 0.02209180 0.01776316 0.00438821
v 0.02090825 0.02149545 0.00836403
v 0.02223372 0.01414384 0.00076380
v 0.03559785 0.00963932 0.02221311
v 0.02164440 0.03015933 0.02928257
v 0.02333668 0.01517269 0.00309507
f 13 2 5
f 13 5 6
f 15 5 9
f 18 5 2
f 18 2 9
f 23 12 6
f 23 6 5
f 23 5 4
f 23 4 12
f 24 6 12
f 26 4 5
f 27 8 1
f 27 1 16
f 29 9 2
f 29 2 16
f 29 16 1
f 29 1 19
f 30 17 1
f 30 1 8
f 31 1 17
f 32 3 14
f 33 18 9
f 33 9 5
f 33 5 18
f 35 17 30
f 35 32 17
f 35 3 32
f 36 21 6
f 36 6 24
f 37 13 6
f 37 6 21
f 38 10 21
f 38 22 3
f 38 3 20
f 39 14 3
f 40 24 12
f 40 12 4
f 41 24 40
f 42 14 39
f 43 26 5
f 43 5 15
f 43 15 7
f 44 26 25
f 44 4 26
f 45 8 27
f 45 35 30
f 45 30 8
f 46 38 20
f 46 10 38
f 46 28 10
f 47 10 28
f 47 13 37
f 48 27 16
f 48 16 28
f 48 28 46
f 48 45 27
f 48 46 20
f 48 20 45
f 49 28 16
f 49 16 2
f 50 31 19
f 50 19 1
f 50 1 31
f 51 31 14
f 51 19 31
f 51 14 42
f 51 43 7
f 51 42 43
f 52 31 17
f 52 17 32
f 52 32 14
f 52 14 31
f 53 7 15
f 53 34 19
f 53 51 7
f 53 19 51
f 54 29 19
f 54 19 34
f 54 34 9
f 54 9 29
f 55 20 3
f 55 3 35
f 55 45 20
f 55 35 45
f 56 36 24
f 56 38 21
f 56 21 36
f 56 24 41
f 57 37 21
f 57 21 10
f 57 47 37
f 57 10 47
f 58 22 38
f 58 11 39
f 58 39 3
f 58 3 22
f 58 56 11
f 58 38 56
f 59 39 11
f 59 42 39
f 59 25 42
f 59 44 25
f 60 43 42
f 60 42 25
f 60 25 26
f 60 26 43
f 61 44 41
f 61 41 40
f 61 40 4
f 61 4 44
f 62 49 2
f 62 2 13
f 62 13 47
f 62 47 28
f 62 28 49
f 63 53 15
f 63 15 9
f 63 9 34
f 63 34 53
f 64 56 41
f 64 11 56
f 64 59 11
f 64 41 44
f 64 44 59

