# https://github.com/mikedh/trimesh
v 0.03892834 0.01073216 0.03314680
v 0.03984455 -0.00749433 0.03326265
v 0.02857689 0.00397743 0.00305569
v 0.02085538 0.00965898 0.00002398
v 0.02043342 -0.02858972 0.02246180
v 0.02854701 0.00890058 0.00556947
v 0.03535138 0.00275896 0.01748218
v 0.03052192 -0.02285991 0.03288961
v 0.03737257 0.01114515 0.03286268
v 0.02032226 -0.01539009 0.00037227
v 0.02522089 0.00916345 0.00077126
v 0.03940574 0.00410571 0.02949584
v 0.03126058 -0.00859362 0.01093045
v 0.03397775 0.00913690 0.01749783
v 0.03422640 -0.02032174 0.03333157
v 0.02085114 0.00965675 0.00108995
v 0.02608966 0.00894585 0.00166729
v 0.03432579 0.01151762 0.02441822
v 0.02639261 -0.00607315 0.00071885
v 0.03979347 0.00798487 0.03331166
v 0.03936884 -0.00352913 0.02947095
v 0.02992309 -0.00355101 0.00548421
v 0.03523117 0.00656247 0.01881537
v 0.03322046 -0.02170971 0.03325881
v 0.03519649 -0.01380687 0.02554968
v 0.02007684 -0.02280991 0.00941982
v 0.02625828 0.00659623 0.00072002
v 0.03676645 0.01144443 0.03123397
v 0.03354452 0.01123490 0.02199254
v 0.03547174 0.01044964 0.02271099
v 0.02454530 -0.01224328 0.00181569
v 0.03825023 -0.01264760 0.03336465
v 0.03519414 -0.00862401 0.02015681
v 0.03264448 0.00143996 0.01086542
v 0.02857548 -0.00349306 0.00301157
v 0.03666907 0.00407970 0.02143163
v 0.03121100 0.00652060 0.00955710
v 0.03936749 0.00655671 0.03080677
v 0.02994081 -0.01873962 0.01892948
v 0.02025330 -0.02826009 0.02123124
v 0.02009866 -0.02036410 0.00531101
v 0.03573243 0.01152834 0.02840972
v 0.02982957 0.00898239 0.00827518
v 0.02723018 -0.00844847 0.00308299
v 0.02362143 -0.01250384 0.00080634
v 0.03653323 -0.01504401 0.03091794
v 0.03938212 -0.00622267 0.03081273
v 0.03257704 -0.00618246 0.01223804
v 0.03120557 -0.01365805 0.01489966
v 0.03792977 -0.01255344 0.03208474
v 0.02989057 0.00400194 0.00557141
v 0.03385132 0.00776795 0.01624524
v 0.03388169 0.00530824 0.01486681
v 0.03788365 0.01037959 0.02955685
v 0.03269025 -0.02141896 0.03090188
v 0.02016227 -0.02676857 0.01730324
v 0.02372481 -0.02253656 0.01364037
v 0.02487510 -0.00994006 0.00072582
v 0.02728214 -0.00598284 0.00179801
v 0.02135089 -0.01509869 0.00077872
v 0.02465070 -0.01601598 0.00576646
v 0.03259104 -0.01625127 0.02136560
v 0.03527145 -0.00348503 0.01748751
v 0.03954824 -0.00739968 0.03209941
f 9 8 1
f 9 5 8
f 16 5 9
f 17 11 6
f 17 6 3
f 18 11 4
f 18 4 16
f 19 10 4
f 20 2 12
f 21 12 2
f 21 7 12
f 24 1 8
f 24 8 5
f 24 20 1
f 24 15 20
f 27 17 3
f 27 11 17
f 27 3 19
f 27 19 4
f 27 4 11
f 28 9 1
f 28 16 9
f 29 6 11
f 29 11 18
f 30 18 1
f 30 29 18
f 30 6 29
f 30 23 14
f 32 20 15
f 32 2 20
f 35 19 3
f 35 3 22
f 36 12 7
f 36 7 23
f 38 20 12
f 38 36 23
f 38 12 36
f 40 5 16
f 41 26 16
f 41 16 4
f 41 4 10
f 42 28 1
f 42 1 18
f 42 18 16
f 42 16 28
f 43 30 14
f 43 6 30
f 43 37 6
f 44 22 13
f 46 32 15
f 47 21 2
f 48 33 13
f 48 13 22
f 49 33 25
f 49 13 33
f 49 44 13
f 49 31 44
f 50 25 33
f 50 46 25
f 50 32 46
f 50 2 32
f 51 34 22
f 51 22 3
f 51 3 6
f 51 6 37
f 52 14 23
f 52 43 14
f 52 37 43
f 53 23 7
f 53 51 37
f 53 7 34
f 53 34 51
f 53 52 23
f 53 37 52
f 54 38 23
f 54 23 30
f 54 30 1
f 54 1 20
f 54 20 38
f 55 15 24
f 55 24 5
f 56 40 16
f 56 16 26
f 57 26 41
f 57 56 26
f 57 39 55
f 57 40 56
f 57 55 5
f 57 5 40
f 58 44 31
f 58 31 45
f 58 45 10
f 58 10 19
f 59 19 35
f 59 35 22
f 59 22 44
f 59 58 19
f 59 44 58
f 60 41 10
f 60 10 45
f 61 45 31
f 61 60 45
f 61 41 60
f 61 57 41
f 61 39 57
f 61 49 39
f 61 31 49
f 62 25 46
f 62 49 25
f 62 39 49
f 62 55 39
f 62 46 15
f 62 15 55
f 63 47 33
f 63 21 47
f 63 33 48
f 63 7 21
f 63 34 7
f 63 48 22
f 63 22 34
f 64 47 2
f 64 33 47
f 64 50 33
f 64 2 50

