# https://github.com/mikedh/trimesh
v -0.02743537 -0.01228613 0.03968341
v -0.01188962 -0.01519836 0.00136562
v -0.02502683 -0.01732780 0.03968113
v -0.01276970 0.00965483 0.00004261
v -0.02317839 -0.00362197 0.01228508
v -0.01375304 -0.01677285 0.00811128
v -0.02721493 0.01136769 0.03416076
v -0.01685119 -0.00232711 0.00070850
v -0.02724800 -0.01375204 0.03202007
v -0.01284525 0.00971629 0.00115867
v -0.02183929 0.00911146 0.01229979
v -0.01233876 -0.01292339 0.00041895
v -0.02756677 -0.01513239 0.03969383
v -0.02996146 0.00277231 0.03210122
v -0.02253092 -0.01668801 0.02254518
v -0.02471789 0.01143999 0.02585301
v -0.01920568 0.00267902 0.00433718
v -0.01904887 -0.01111006 0.00832140
v -0.03003434 -0.00497625 0.03322642
v -0.02449960 0.00528358 0.01614991
v -0.03030908 0.00411950 0.03450783
v -0.02048812 -0.01793993 0.02319525
v -0.02595560 -0.01643340 0.03204606
v -0.01785871 -0.01477348 0.00969993
v -0.02870520 0.01043912 0.03331724
v -0.01476437 0.00934853 0.00058460
v -0.01928343 -0.00227696 0.00429699
v -0.01655160 -0.00976976 0.00315745
v -0.02322762 -0.00865870 0.01483267
v -0.03001357 -0.00233771 0.03205890
v -0.02870963 -0.01131310 0.03454795
v -0.02323720 0.00272962 0.01221965
v -0.02889620 0.01050717 0.03453085
v -0.02888999 -0.01185530 0.03968494
v -0.02019250 -0.01771764 0.02194682
v -0.02454623 -0.01787320 0.03690579
v -0.02722833 -0.01495233 0.03456685
v -0.02582264 -0.01508657 0.02956216
v -0.02523188 0.01066962 0.02250002
v -0.02861221 0.00657371 0.02943141
v -0.01917890 0.00653916 0.00559577
v -0.01688045 0.00272278 0.00081385
v -0.01408630 -0.01112980 0.00084924
v -0.01780584 -0.01227348 0.00707135
v -0.01794482 -0.00597601 0.00308327
v -0.02461557 -0.00490030 0.01605526
v -0.02855043 -0.00871368 0.03079400
v -0.02179633 -0.01356784 0.01623792
v -0.03025456 -0.00499907 0.03453416
v -0.02585813 0.00533254 0.01999718
v -0.02312672 0.00655109 0.01352066
v -0.02672996 -0.01683450 0.03968770
v -0.01912828 0.00901998 0.00702206
v -0.03008153 0.00408218 0.03326290
v -0.02711604 0.00911324 0.02682677
v -0.02045500 0.00399743 0.00697021
v -0.01650355 0.00779326 0.00188394
v -0.01312052 -0.01257871 0.00074287
v -0.01542906 -0.00862545 0.00090085
v -0.01913054 -0.00721363 0.00561722
v -0.01524910 -0.01229711 0.00315780
v -0.02177646 -0.00731338 0.01094827
v -0.02594261 -0.00492281 0.02002099
v -0.02458865 -0.00746525 0.01743236
f 7 1 3
f 10 6 2
f 10 2 4
f 10 3 6
f 10 7 3
f 12 8 4
f 12 4 2
f 13 3 1
f 16 10 4
f 16 7 10
f 23 15 22
f 24 2 6
f 24 6 15
f 26 16 4
f 30 21 14
f 32 27 5
f 32 17 27
f 33 1 7
f 33 25 21
f 33 7 25
f 34 13 1
f 34 33 21
f 34 1 33
f 34 31 13
f 35 22 15
f 35 15 6
f 35 6 22
f 36 22 6
f 36 6 3
f 36 23 22
f 37 9 23
f 37 31 9
f 37 13 31
f 38 23 9
f 38 15 23
f 39 16 26
f 39 25 7
f 39 7 16
f 42 26 4
f 42 4 8
f 42 27 17
f 42 8 27
f 44 24 18
f 45 27 8
f 46 32 5
f 47 31 19
f 47 9 31
f 48 24 15
f 48 15 38
f 48 38 9
f 48 9 29
f 48 29 18
f 48 18 24
f 49 30 19
f 49 21 30
f 49 34 21
f 49 19 31
f 49 31 34
f 50 30 14
f 50 20 32
f 50 14 40
f 50 39 20
f 50 46 30
f 50 32 46
f 51 32 20
f 51 11 41
f 51 39 11
f 51 20 39
f 52 36 3
f 52 3 13
f 52 23 36
f 52 37 23
f 52 13 37
f 53 39 26
f 53 11 39
f 53 41 11
f 54 40 14
f 54 14 21
f 54 21 25
f 54 25 40
f 55 40 25
f 55 25 39
f 55 50 40
f 55 39 50
f 56 41 17
f 56 17 32
f 56 51 41
f 56 32 51
f 57 26 42
f 57 53 26
f 57 41 53
f 57 42 17
f 57 17 41
f 58 43 12
f 58 12 2
f 59 8 12
f 59 12 43
f 59 45 8
f 59 28 45
f 60 44 18
f 60 28 44
f 60 45 28
f 60 5 27
f 60 27 45
f 61 2 24
f 61 24 44
f 61 58 2
f 61 43 58
f 61 44 28
f 61 59 43
f 61 28 59
f 62 46 5
f 62 29 46
f 62 5 60
f 62 60 18
f 62 18 29
f 63 19 30
f 63 30 46
f 63 47 19
f 64 29 9
f 64 9 47
f 64 47 63
f 64 63 46
f 64 46 29

