# https://github.com/mikedh/trimesh
v 0.02020258 0.02875908 0.02259589
v 0.02162646 0.02561976 0.02033791
v 0.01101168 0.02181350 0.00079214
v -0.01178729 0.01433170 0.00068524
v -0.01068604 0.02682169 0.02187535
v 0.02084887 0.01101279 0.00109693
v 0.01970751 0.01906390 0.00307684
v 0.02126653 0.02648860 0.02194483
v 0.00220025 0.03218687 0.02136418
v 0.02084536 0.01099990 0.00002430
v -0.01284525 0.00971629 0.00115867
v 0.01993388 0.02691208 0.01749235
v 0.00215974 0.03254390 0.02258805
v -0.00151490 0.02412669 0.00432528
v -0.01276970 0.00965483 0.00004261
v 0.01984310 0.01669701 0.00062156
v -0.01266554 0.01762680 0.00480023
v 0.00067272 0.00965998 0.00109601
v 0.01972936 0.02158020 0.00694285
v 0.01102336 0.03082386 0.01883508
v -0.00809657 0.02984101 0.02262635
v -0.00155649 0.02172356 0.00087315
v 0.01479587 0.02036523 0.00089017
v -0.01370124 0.01163407 0.00263194
v 0.00067244 0.00966084 0.00003342
v 0.01225838 0.02537530 0.00694557
v 0.01485220 0.03074198 0.02146738
v 0.00731003 0.03259189 0.02256448
v -0.00423720 0.03092733 0.02133432
v -0.00963920 0.02898513 0.02246621
v 0.01487556 0.03109593 0.02263264
v 0.00221795 0.02416109 0.00294307
v -0.00641981 0.02140890 0.00310855
v -0.00671513 0.01937314 0.00086012
v 0.01871793 0.01793973 0.00083765
v 0.01593803 0.02156494 0.00311132
v -0.01328559 0.01407486 0.00431268
v 0.01869127 0.02810879 0.01880792
v 0.01358049 0.02810142 0.01350011
v -0.00433890 0.03127255 0.02257515
v -0.00163487 0.03076149 0.01886471
v -0.00022253 0.02288052 0.00176929
v 0.00725157 0.02422003 0.00300504
v -0.00918081 0.02688523 0.01618586
v -0.01129293 0.01651843 0.00194831
v 0.01853247 0.01896296 0.00185148
v 0.01342210 0.02277567 0.00318060
v 0.02006717 0.02838171 0.02139548
v 0.00730833 0.02817819 0.01084820
v -0.00159256 0.02811508 0.01223297
v -0.00407832 0.02406155 0.00562690
v 0.00977848 0.02291746 0.00179943
v -0.00898064 0.02145912 0.00574656
v -0.00934735 0.02834829 0.02002732
v 0.01217805 0.02408252 0.00446757
v 0.01110522 0.02816286 0.01215872
v 0.00853489 0.02683849 0.00821782
v 0.00729994 0.03086593 0.01742788
v 0.00090330 0.02543399 0.00562182
v -0.00534713 0.02805013 0.01480963
v 0.00220017 0.03084685 0.01744861
v -0.00406733 0.02678234 0.01091488
v 0.00846948 0.02549211 0.00560518
v 0.00973834 0.02952224 0.01475618
f 8 2 1
f 8 1 5
f 8 6 2
f 10 2 6
f 11 8 5
f 12 1 2
f 15 3 10
f 16 10 3
f 16 7 2
f 16 2 10
f 18 6 8
f 18 8 11
f 18 11 15
f 18 10 6
f 19 12 2
f 19 2 7
f 22 3 15
f 23 16 3
f 24 11 5
f 24 15 11
f 24 17 4
f 24 4 15
f 25 18 15
f 25 15 10
f 25 10 18
f 28 9 13
f 30 5 1
f 30 1 21
f 30 17 5
f 31 21 1
f 31 13 21
f 31 28 13
f 31 1 27
f 31 27 20
f 31 20 28
f 34 22 15
f 34 15 4
f 34 33 22
f 35 7 16
f 35 16 23
f 36 19 7
f 36 12 19
f 37 24 5
f 37 5 17
f 37 17 24
f 38 27 1
f 39 20 27
f 39 27 38
f 39 38 12
f 39 36 26
f 39 12 36
f 40 29 21
f 40 21 13
f 41 13 9
f 41 40 13
f 41 29 40
f 42 14 32
f 42 22 33
f 42 3 22
f 45 34 4
f 45 4 17
f 46 35 23
f 46 23 36
f 46 36 7
f 46 7 35
f 47 36 23
f 47 23 3
f 48 38 1
f 48 1 12
f 48 12 38
f 49 43 32
f 51 42 33
f 51 14 42
f 52 32 43
f 52 42 32
f 52 3 42
f 52 47 3
f 53 17 44
f 53 45 17
f 53 33 34
f 53 34 45
f 53 51 33
f 53 44 51
f 54 44 17
f 54 17 30
f 54 30 21
f 55 26 36
f 55 36 47
f 55 47 52
f 55 52 43
f 56 39 26
f 57 43 49
f 57 56 26
f 58 28 20
f 58 9 28
f 59 32 14
f 59 49 32
f 60 29 41
f 60 41 50
f 60 44 54
f 60 54 21
f 60 21 29
f 61 50 41
f 61 41 9
f 61 59 50
f 61 49 59
f 61 58 49
f 61 9 58
f 62 14 51
f 62 59 14
f 62 50 59
f 62 60 50
f 62 51 44
f 62 44 60
f 63 55 43
f 63 43 57
f 63 57 26
f 63 26 55
f 64 57 49
f 64 56 57
f 64 49 58
f 64 58 20
f 64 20 39
f 64 39 56

