# https://github.com/mikedh/trimesh
v 0.02084887 0.01101279 0.00109693
v 0.02094093 -0.01463804 0.00192115
v 0.02066038 -0.01438158 0.00016968
v -0.01276970 0.00965483 0.00004261
v -0.01284525 0.00971629 0.00115867
v 0.00061003 -0.02164764 0.00167613
v 0.02084536 0.01099990 0.00002430
v 0.00066608 0.01908106 0.00112090
v 0.01144861 -0.02132816 0.00197596
v 0.00072304 -0.02105861 0.00009762
v -0.01316785 -0.01078926 0.00151714
v 0.02085135 0.00158613 0.00002690
v 0.01143207 0.01907659 0.00110134
v 0.00067313 0.01906668 0.00004862
v 0.01135548 -0.02095355 0.00022795
v -0.01267706 -0.01046697 0.00009696
v 0.01142911 0.01904180 0.00005729
f 7 1 2
f 9 8 5
f 9 2 8
f 11 5 4
f 11 10 6
f 11 9 5
f 11 6 9
f 12 7 2
f 12 2 3
f 12 3 10
f 12 10 4
f 12 4 7
f 13 8 2
f 13 2 1
f 13 1 7
f 14 7 4
f 14 4 5
f 14 5 8
f 14 8 13
f 15 3 2
f 15 2 9
f 15 10 3
f 15 9 6
f 15 6 10
f 16 11 4
f 16 4 10
f 16 10 11
f 17 14 13
f 17 13 7
f 17 7 14

