# https://github.com/mikedh/trimesh
v -0.01134044 0.03234323 0.04372183
v -0.00451785 0.03454526 0.03438620
v -0.01539251 0.02425135 0.02025038
v -0.01219306 0.01329780 0.00047881
v -0.01276970 0.00965483 0.00004261
v -0.00938137 0.02333449 0.00937956
v -0.01429716 0.02955836 0.03214424
v -0.01187261 0.03063797 0.04371632
v -0.02726714 0.01089056 0.02902885
v -0.01654398 0.01780555 0.01101596
v -0.00932389 0.01813599 0.00157602
v -0.01312932 0.03083432 0.03452720
v -0.01037612 0.02676524 0.01756267
v -0.00490832 0.03313898 0.03422975
v -0.01819333 0.00915277 0.00549188
v -0.02339283 0.01991026 0.04372651
v -0.02200245 0.02319366 0.03449355
v -0.01280784 0.02164956 0.01094760
v -0.00972973 0.01735917 0.00113970
v -0.00433890 0.03127255 0.02257515
v -0.00680375 0.03374495 0.03446236
v -0.01425852 0.02820542 0.02820412
v -0.01568586 0.00919120 0.00147323
v -0.02559058 0.00948182 0.02239563
v -0.02567404 0.01129137 0.02865227
v -0.01325066 0.03127403 0.04374384
v -0.02322199 0.01815904 0.02681813
v -0.02562070 0.01874427 0.04372681
v -0.01820711 0.02707649 0.03458087
v -0.01668117 0.02163559 0.01761840
v -0.01404587 0.01780635 0.00701104
v -0.01152247 0.02029825 0.00698968
v -0.01157892 0.02412526 0.01359417
v -0.00431734 0.03382135 0.03071792
v -0.00509858 0.02956259 0.02186366
v -0.00549523 0.03094203 0.02267672
v -0.01307607 0.02950076 0.02952614
v -0.01476437 0.00934853 0.00058460
v -0.01658194 0.01152789 0.00438827
v -0.02487791 0.00928916 0.01992049
v -0.02472614 0.01935879 0.03457736
v -0.02338585 0.02204504 0.04374066
v -0.01692987 0.02828151 0.03583121
v -0.01814311 0.02564813 0.02953629
v -0.02050745 0.01926311 0.02151171
v -0.01023068 0.01772408 0.00196769
v -0.01033259 0.02285171 0.00965502
v -0.00679857 0.03355839 0.03320030
v -0.00939171 0.03230390 0.03199456
v -0.01450196 0.01042779 0.00076003
v -0.01786359 0.01031390 0.00566766
v -0.01522624 0.01523429 0.00577623
v -0.02343359 0.00920283 0.01604625
v -0.02310743 0.01285978 0.01887705
v -0.02647721 0.01322058 0.02928729
v -0.02327456 0.02065660 0.03211568
v -0.01714180 0.02847786 0.04371949
v -0.02335823 0.02201462 0.04108249
v -0.01563366 0.02814798 0.03082268
v -0.02075628 0.02434840 0.03337416
v -0.01801855 0.02297755 0.02286482
v -0.01795209 0.02172472 0.02025621
v -0.01295999 0.01287199 0.00078952
v -0.00545306 0.03348789 0.03080824
f 8 2 1
f 14 8 5
f 14 2 8
f 16 5 8
f 19 11 5
f 19 5 4
f 20 11 6
f 20 5 11
f 21 12 1
f 21 1 2
f 22 13 3
f 25 5 16
f 25 24 5
f 25 9 24
f 26 16 8
f 26 8 1
f 26 1 12
f 28 25 16
f 28 9 25
f 30 18 10
f 30 3 18
f 31 10 18
f 32 6 11
f 32 31 18
f 33 13 6
f 33 18 3
f 33 3 13
f 34 2 14
f 34 14 20
f 35 20 14
f 35 14 5
f 35 5 20
f 36 20 6
f 36 6 13
f 36 34 20
f 37 22 7
f 37 13 22
f 38 4 5
f 38 5 23
f 40 23 5
f 40 5 24
f 40 24 9
f 42 28 16
f 42 16 26
f 43 12 7
f 43 7 29
f 43 26 12
f 46 11 19
f 46 32 11
f 46 31 32
f 47 32 18
f 47 6 32
f 47 33 6
f 47 18 33
f 48 21 2
f 49 36 13
f 49 13 37
f 49 12 21
f 49 21 48
f 49 37 7
f 49 7 12
f 50 38 23
f 50 4 38
f 50 23 39
f 51 39 23
f 51 23 15
f 52 39 10
f 52 10 31
f 52 31 46
f 53 15 23
f 53 23 40
f 53 51 15
f 54 53 40
f 54 27 45
f 54 45 10
f 54 51 53
f 54 10 39
f 54 39 51
f 55 41 27
f 55 9 28
f 55 28 41
f 55 27 54
f 55 54 40
f 55 40 9
f 56 41 17
f 56 27 41
f 56 45 27
f 57 29 17
f 57 43 29
f 57 42 26
f 57 26 43
f 58 41 28
f 58 28 42
f 58 17 41
f 58 57 17
f 58 42 57
f 59 44 29
f 59 29 7
f 59 7 22
f 59 22 3
f 59 3 44
f 60 17 29
f 60 29 44
f 60 56 17
f 61 44 3
f 61 60 44
f 61 45 56
f 61 56 60
f 62 30 10
f 62 10 45
f 62 45 61
f 62 61 3
f 62 3 30
f 63 46 19
f 63 19 4
f 63 52 46
f 63 4 50
f 63 50 39
f 63 39 52
f 64 48 2
f 64 2 34
f 64 49 48
f 64 34 36
f 64 36 49

