# https://github.com/mikedh/trimesh
v 0.03370888 -0.02614915 0.08283701
v 0.03323641 -0.02698127 0.08261984
v 0.03060692 -0.02180248 0.02663203
v 0.00745543 -0.03126892 0.02200530
v 0.01296330 -0.03587817 0.08286329
v 0.03045194 -0.02552353 0.07464304
v 0.03405059 -0.02243508 0.04239581
v 0.02172553 -0.03483006 0.08265636
v 0.02551458 -0.02329357 0.02189425
v 0.02991389 -0.02781714 0.08285484
v 0.01320397 -0.03512775 0.07970927
v 0.03335193 -0.02189245 0.03448877
v 0.02684011 -0.03213466 0.08262843
v 0.00738256 -0.03578284 0.03300550
v 0.02940197 -0.02194516 0.02385921
v 0.01268516 -0.03687523 0.08303729
v 0.03056922 -0.02943791 0.08262344
v 0.02267711 -0.03180008 0.03851857
v 0.01390631 -0.03740916 0.08238422
v 0.00749191 -0.03459926 0.03274921
v 0.02908755 -0.02782729 0.04382177
v 0.02276525 -0.03452266 0.08238109
v 0.01991373 -0.02898907 0.02279211
v 0.02890369 -0.02646389 0.03337443
v 0.01261726 -0.03760710 0.08233160
v 0.01777756 -0.03628775 0.08262810
v 0.01769490 -0.03448374 0.04247361
v 0.00719713 -0.03451055 0.02809233
v 0.02925644 -0.03065283 0.08197001
v 0.02529974 -0.03317693 0.08237556
v 0.02791740 -0.02308539 0.02263415
v 0.01734280 -0.03035711 0.02275862
v 0.02877078 -0.02521861 0.02955109
v 0.02642694 -0.02912597 0.03722276
v 0.03274393 -0.02267930 0.03464357
v 0.01256091 -0.03610580 0.04776082
v 0.01897401 -0.03602370 0.08238504
v 0.02005720 -0.03311048 0.03847076
v 0.02920808 -0.03066748 0.08238145
v 0.02515483 -0.03046461 0.04116148
v 0.02386040 -0.03183687 0.04781037
v 0.02389964 -0.02655456 0.02272375
v 0.02852044 -0.02227277 0.02237121
v 0.00731287 -0.03269537 0.02242472
v 0.01106266 -0.03434632 0.02941440
v 0.02255774 -0.03033728 0.03085485
v 0.03000435 -0.02265332 0.02687190
v 0.02768255 -0.02776545 0.03460483
v 0.03009736 -0.02527159 0.03340013
v 0.01377393 -0.03586061 0.04777884
v 0.02501174 -0.02633499 0.02420572
v 0.00719880 -0.03319044 0.02400877
v 0.01357808 -0.03165690 0.02273562
v 0.00852261 -0.03435688 0.02814281
v 0.01496441 -0.03434192 0.03329584
v 0.01868832 -0.03299866 0.03336326
v 0.02246217 -0.02896984 0.02681999
v 0.02387876 -0.03030273 0.03338031
v 0.02630847 -0.02778980 0.03080566
v 0.00852368 -0.03303333 0.02405634
v 0.01635356 -0.03447710 0.03714266
v 0.01484999 -0.03291014 0.02814577
v 0.01998814 -0.03166238 0.03077947
v 0.01745177 -0.03158921 0.02679100
f 7 1 2
f 7 6 1
f 9 4 6
f 10 6 5
f 10 1 6
f 11 6 4
f 11 4 5
f 11 5 6
f 12 3 6
f 12 6 7
f 15 9 6
f 15 6 3
f 16 1 10
f 16 13 1
f 16 8 13
f 16 10 5
f 17 2 1
f 17 1 13
f 20 16 5
f 20 5 4
f 20 14 16
f 21 7 2
f 22 13 8
f 25 19 16
f 25 16 14
f 26 8 16
f 26 16 19
f 28 20 4
f 28 14 20
f 29 21 2
f 29 2 17
f 30 13 22
f 32 4 9
f 35 12 7
f 36 25 14
f 36 19 25
f 37 22 8
f 37 8 26
f 37 27 22
f 37 26 19
f 38 22 27
f 39 29 17
f 39 17 13
f 39 30 29
f 39 13 30
f 40 21 29
f 40 34 21
f 40 18 34
f 41 30 22
f 41 18 40
f 41 40 29
f 41 29 30
f 41 38 18
f 41 22 38
f 42 32 9
f 42 23 32
f 43 9 15
f 43 42 9
f 43 31 42
f 46 32 23
f 47 33 31
f 47 15 3
f 47 3 12
f 47 12 35
f 47 43 15
f 47 31 43
f 48 24 21
f 48 21 34
f 49 21 24
f 49 24 33
f 49 47 35
f 49 33 47
f 49 35 7
f 49 7 21
f 50 19 36
f 50 37 19
f 50 27 37
f 51 42 31
f 51 31 33
f 51 46 42
f 52 44 28
f 52 28 4
f 52 4 44
f 53 44 4
f 53 4 32
f 54 45 14
f 54 14 28
f 54 28 44
f 55 14 45
f 56 18 38
f 57 46 23
f 57 23 42
f 57 42 46
f 58 34 18
f 58 18 56
f 58 48 34
f 59 51 33
f 59 33 24
f 59 24 48
f 59 48 58
f 59 58 46
f 59 46 51
f 60 53 45
f 60 44 53
f 60 54 44
f 60 45 54
f 61 27 50
f 61 50 36
f 61 36 14
f 61 14 55
f 61 55 56
f 61 56 38
f 61 38 27
f 62 55 45
f 62 45 53
f 63 32 46
f 63 58 56
f 63 46 58
f 64 56 55
f 64 55 62
f 64 63 56
f 64 32 63
f 64 62 53
f 64 53 32

