# https://github.com/mikedh/trimesh
v 0.03699456 0.02207255 0.08270834
v 0.04392674 0.00145034 0.08289105
v 0.03945748 0.00923003 0.03331336
v 0.02158620 0.03140437 0.03325516
v 0.02331314 0.03344241 0.08290588
v 0.03936904 0.00166332 0.03267128
v 0.03421068 0.02186945 0.03985554
v 0.04230835 0.01195985 0.08238389
v 0.04229020 0.00152119 0.04517233
v 0.02267003 0.02933899 0.03273537
v 0.04248317 0.00169651 0.08286877
v 0.03286559 0.02194579 0.03339229
v 0.02667317 0.03227838 0.08203012
v 0.04242279 0.01065084 0.08275494
v 0.03807635 0.01690713 0.04655835
v 0.04083464 0.00148381 0.03333512
v 0.04363763 0.00673261 0.08238121
v 0.04072413 0.01045360 0.04656061
v 0.02437372 0.03010171 0.07457591
v 0.03661786 0.01679649 0.03471794
v 0.02767390 0.02836647 0.03857641
v 0.02642526 0.02839172 0.03340169
v 0.03552023 0.01814372 0.03333012
v 0.02796836 0.03122007 0.08262834
v 0.02304075 0.03418975 0.08237598
v 0.03955214 0.01819469 0.08265004
v 0.03813827 0.02084054 0.08234638
v 0.04072958 0.00277689 0.03336646
v 0.04364477 0.00545692 0.08268922
v 0.04223549 0.00410278 0.04914449
v 0.03941973 0.01430626 0.04787458
v 0.03676051 0.01806580 0.03988160
v 0.03018974 0.02572625 0.03596909
v 0.02210327 0.03236168 0.04238917
v 0.02393292 0.03096886 0.03854717
v 0.03811021 0.01300768 0.03331207
v 0.03412614 0.02076650 0.03462431
v 0.02644765 0.02962136 0.04116083
v 0.02301588 0.03413756 0.08179730
v 0.02662222 0.03225898 0.08238525
v 0.04092905 0.01578181 0.08238433
v 0.03675796 0.01939880 0.04916825
v 0.03152527 0.02584673 0.04917770
v 0.04071457 0.00790405 0.03857379
v 0.03806826 0.01555375 0.03991873
v 0.02412824 0.03366034 0.08237421
v 0.02520139 0.02957166 0.03459075
v 0.03538668 0.02067704 0.04254300
v 0.03422904 0.02316471 0.05454447
v 0.04214427 0.00274238 0.04518216
v 0.03928142 0.01177426 0.03725435
v 0.02557266 0.03269181 0.08266747
v 0.02263710 0.03086828 0.03340610
v 0.03934746 0.01043677 0.03460719
v 0.03932535 0.01309321 0.04120727
f 5 2 1
f 11 6 2
f 11 2 5
f 14 1 2
f 16 9 2
f 16 2 6
f 17 2 9
f 17 8 14
f 18 8 17
f 19 10 6
f 19 5 4
f 19 4 10
f 19 11 5
f 19 6 11
f 22 12 10
f 22 10 4
f 23 6 10
f 23 10 12
f 24 5 1
f 26 1 14
f 27 1 26
f 28 16 6
f 28 6 3
f 28 9 16
f 29 17 14
f 29 14 2
f 29 2 17
f 30 18 17
f 30 17 9
f 31 8 18
f 33 22 21
f 33 12 22
f 34 4 25
f 35 4 34
f 36 3 6
f 36 6 23
f 36 23 20
f 37 23 12
f 37 7 32
f 37 32 20
f 37 20 23
f 37 33 7
f 37 12 33
f 38 13 24
f 38 35 34
f 38 34 13
f 39 25 4
f 39 4 5
f 39 5 25
f 40 24 13
f 41 26 14
f 41 14 8
f 41 8 31
f 41 31 15
f 41 27 26
f 41 15 27
f 42 27 15
f 43 1 27
f 43 7 33
f 43 24 1
f 43 33 21
f 43 38 24
f 43 21 38
f 44 18 30
f 44 28 3
f 45 32 15
f 45 15 31
f 45 36 20
f 45 20 32
f 46 34 25
f 46 13 34
f 46 40 13
f 47 21 22
f 47 38 21
f 47 35 38
f 48 27 42
f 48 32 7
f 48 42 15
f 48 15 32
f 49 43 27
f 49 7 43
f 49 48 7
f 49 27 48
f 50 44 30
f 50 30 9
f 50 9 28
f 50 28 44
f 51 36 45
f 52 46 25
f 52 25 5
f 52 5 24
f 52 24 40
f 52 40 46
f 53 47 22
f 53 22 4
f 53 4 35
f 53 35 47
f 54 51 44
f 54 44 3
f 54 3 36
f 54 36 51
f 55 18 44
f 55 44 51
f 55 31 18
f 55 51 45
f 55 45 31

