# https://github.com/mikedh/trimesh
v -0.02815745 0.01558445 0.08333570
v -0.02826996 -0.01244340 0.07832648
v -0.02560142 0.01541917 0.06526135
v -0.02977067 0.00815715 0.06120975
v -0.04376588 0.00044840 0.07452882
v -0.02872516 -0.00535253 0.06124224
v -0.02582586 0.01562271 0.07849249
v -0.03392223 -0.01206881 0.08151266
v -0.03162916 0.01433567 0.08288496
v -0.02750451 0.01439250 0.06522213
v -0.02762771 -0.01189254 0.07465174
v -0.02812326 0.00843048 0.06121784
v -0.03305065 -0.00421944 0.06141102
v -0.02717102 0.01579723 0.08214935
v -0.02971573 -0.01277295 0.08062025
v -0.03188402 -0.01258957 0.08177968
v -0.04028462 0.00468799 0.07864013
v -0.04241136 0.00278938 0.07555459
v -0.03270499 0.00206819 0.06149836
v -0.04105667 -0.00623323 0.07556609
v -0.03728193 -0.01034562 0.07905922
v -0.03579747 0.00915353 0.08135148
v -0.03948862 0.00618119 0.07899794
v -0.04355762 0.00103645 0.07555934
v -0.04344044 -0.00271582 0.07426557
v -0.03587657 -0.01106939 0.08053634
v -0.03293862 0.01148187 0.08254285
v -0.04210031 0.00331750 0.07681384
v -0.03629260 0.00843586 0.08109998
v -0.04333716 -0.00313637 0.07523525
v -0.03818405 -0.00945263 0.07905278
v -0.03696308 -0.01057375 0.07952251
v -0.04222373 -0.00475051 0.07610947
v -0.04082348 -0.00683663 0.07700840
f 9 1 3
f 10 3 4
f 10 4 5
f 10 9 3
f 11 6 3
f 11 7 2
f 11 3 7
f 12 6 4
f 12 4 3
f 12 3 6
f 13 4 6
f 13 6 11
f 14 2 7
f 14 7 3
f 14 3 1
f 15 14 1
f 15 2 14
f 15 11 2
f 16 9 8
f 16 1 9
f 16 15 1
f 16 8 11
f 16 11 15
f 18 10 5
f 18 9 10
f 19 13 5
f 19 5 4
f 19 4 13
f 21 13 11
f 21 11 8
f 21 20 13
f 23 22 9
f 24 18 5
f 25 5 13
f 25 13 20
f 27 22 8
f 27 8 9
f 27 9 22
f 28 23 9
f 28 9 18
f 28 18 24
f 28 24 17
f 28 17 23
f 29 23 17
f 29 22 23
f 29 17 26
f 29 26 8
f 29 8 22
f 30 24 5
f 30 5 25
f 30 25 20
f 31 26 17
f 31 17 24
f 32 21 8
f 32 8 26
f 32 31 21
f 32 26 31
f 33 31 24
f 33 24 30
f 34 20 21
f 34 21 31
f 34 31 33
f 34 33 30
f 34 30 20

