# https://github.com/mikedh/trimesh
v 0.02296371 0.03408072 0.08264048
v 0.02389183 0.03187071 0.08288123
v 0.02227504 0.02591666 0.02215128
v -0.00509858 0.02956259 0.02186366
v 0.00056725 0.03605354 0.08322523
v 0.02411775 0.03083439 0.07983947
v 0.01244768 0.03491604 0.03325066
v 0.01644512 0.03659339 0.08263152
v 0.00032529 0.03520279 0.07985592
v 0.02312611 0.03178978 0.04244081
v 0.01101873 0.03211184 0.02271392
v -0.00430577 0.03495973 0.03844934
v 0.02282247 0.03239954 0.08287271
v 0.02368014 0.03007123 0.04235685
v 0.02129689 0.03084686 0.03079963
v 0.01622633 0.03493396 0.04380016
v 0.02020607 0.02704630 0.02176390
v 0.00600002 0.03649968 0.04108140
v -0.00511319 0.03365042 0.04370353
v -0.00043841 0.03225437 0.02269963
v 0.00731782 0.03781424 0.08281671
v 0.02039213 0.03524775 0.08264133
v 0.02296228 0.02685083 0.02581153
v 0.01618957 0.03349295 0.03208474
v 0.02123406 0.02819523 0.02276283
v 0.00863190 0.03647136 0.04375777
v 0.00078606 0.03715083 0.08305313
v -0.00519302 0.02991963 0.02313609
v 0.00091039 0.03492718 0.03069823
v 0.01771178 0.03635472 0.08238678
v 0.02142385 0.03497688 0.08237862
v 0.01235217 0.03350706 0.02812420
v 0.01494602 0.03495940 0.03849282
v 0.02142116 0.03220904 0.03720183
v 0.01879010 0.02950175 0.02276121
v 0.01117990 0.03777452 0.08238306
v -0.00437177 0.03513078 0.04373218
v 0.00219170 0.03781997 0.08240423
v -0.00433890 0.03127255 0.02257515
v 0.00354240 0.03647440 0.04110228
v 0.00975668 0.03488759 0.03071347
v 0.02267434 0.03224175 0.04515486
v 0.01752758 0.03353082 0.03459641
v 0.01888553 0.03352693 0.03851330
v 0.01879343 0.03212168 0.03081519
v 0.01995362 0.02939388 0.02409897
v 0.00473125 0.03783514 0.08279514
v -0.00421445 0.03345411 0.02949128
v -0.00298513 0.03495105 0.03451565
v 0.02015202 0.03356736 0.04650303
v 0.02000537 0.03219065 0.03334040
v -0.00164355 0.03482897 0.03202685
v -0.00288717 0.03209905 0.02404070
v -0.00036873 0.03352620 0.02676561
f 6 4 3
f 6 2 5
f 9 6 5
f 9 4 6
f 10 1 2
f 13 5 2
f 14 10 2
f 14 2 6
f 17 3 4
f 17 4 11
f 19 9 5
f 19 4 9
f 20 11 4
f 21 13 8
f 21 5 13
f 22 13 2
f 22 2 1
f 22 8 13
f 23 14 6
f 23 6 3
f 23 10 14
f 23 15 10
f 25 3 17
f 25 23 3
f 25 15 23
f 26 7 18
f 27 19 5
f 27 5 21
f 28 19 12
f 28 4 19
f 30 8 22
f 31 22 1
f 31 30 22
f 31 16 30
f 32 7 24
f 33 7 26
f 34 10 15
f 35 25 17
f 35 17 11
f 35 32 24
f 35 11 32
f 36 21 8
f 36 8 30
f 36 33 26
f 36 30 16
f 36 16 33
f 36 26 18
f 37 12 19
f 37 19 27
f 38 37 27
f 38 12 37
f 39 20 4
f 39 4 28
f 40 18 29
f 40 38 18
f 40 12 38
f 41 29 18
f 41 18 7
f 41 11 20
f 41 20 29
f 41 32 11
f 41 7 32
f 42 31 1
f 42 1 10
f 42 10 34
f 43 24 7
f 43 7 33
f 44 33 16
f 44 43 33
f 44 34 43
f 45 35 24
f 45 24 43
f 46 15 25
f 46 25 35
f 46 45 15
f 46 35 45
f 47 38 27
f 47 27 21
f 47 18 38
f 47 36 18
f 47 21 36
f 48 39 28
f 48 28 12
f 49 12 40
f 49 48 12
f 50 42 34
f 50 34 44
f 50 31 42
f 50 44 16
f 50 16 31
f 51 45 43
f 51 43 34
f 51 34 15
f 51 15 45
f 52 48 49
f 52 49 40
f 52 40 29
f 53 20 39
f 53 39 48
f 54 52 29
f 54 29 20
f 54 20 53
f 54 53 48
f 54 48 52

