# https://github.com/mikedh/trimesh
v 0.00078606 0.03715083 0.08305313
v 0.00056725 0.03605354 0.08322523
v 0.00052865 0.03497569 0.04370858
v -0.01165010 0.03025247 0.03423651
v -0.03102030 0.01476116 0.08322577
v -0.00809599 0.03353856 0.03713564
v 0.00093889 0.03658118 0.07898328
v -0.01885533 0.02763780 0.08401513
v -0.02562577 0.01545302 0.07595816
v 0.00072101 0.03617901 0.04372519
v 0.00036699 0.03553607 0.08245439
v -0.02744689 0.01774656 0.08404523
v -0.01689611 0.02841529 0.08402999
v -0.01068829 0.03370537 0.08311480
v -0.01714180 0.02847786 0.04371949
v -0.02466116 0.02025754 0.04372363
v -0.00420440 0.03626951 0.08285701
v -0.00490832 0.03313898 0.03422975
v -0.02752722 0.01612266 0.08308109
v -0.02679329 0.01977649 0.08388281
v -0.01322938 0.03228568 0.08329806
v -0.01057308 0.03218610 0.03457914
v -0.02810485 0.01443924 0.07628234
v -0.02227677 0.02149945 0.04373434
v -0.00437177 0.03513078 0.04373218
v -0.00451785 0.03454526 0.03438620
v -0.02627855 0.01599675 0.08077550
v -0.02360628 0.02328357 0.08396713
v -0.02755648 0.01927992 0.08345719
v -0.01698973 0.02973645 0.08298595
v -0.02338585 0.02204504 0.04374066
v -0.01325066 0.03127403 0.04374384
v -0.03090649 0.01424385 0.08067232
v -0.00680375 0.03374495 0.03446236
v -0.00951751 0.03132954 0.03406460
v -0.03054360 0.01568102 0.08319059
v -0.02246327 0.02468346 0.08381772
v -0.01703620 0.02969238 0.08340713
v -0.00654925 0.03256103 0.03415451
f 7 1 2
f 10 7 3
f 10 1 7
f 11 7 2
f 11 3 7
f 11 9 3
f 13 2 1
f 13 12 2
f 13 8 12
f 17 1 10
f 17 14 1
f 17 6 14
f 18 16 4
f 19 11 2
f 19 12 5
f 19 2 12
f 20 5 12
f 21 8 13
f 21 13 1
f 21 1 14
f 22 4 16
f 23 16 9
f 24 3 9
f 24 9 16
f 24 18 3
f 24 16 18
f 25 17 10
f 25 6 17
f 26 10 3
f 26 3 18
f 26 25 10
f 26 6 25
f 27 9 11
f 27 11 19
f 27 23 9
f 27 19 5
f 28 20 12
f 28 12 8
f 29 20 28
f 31 22 16
f 31 15 22
f 32 22 15
f 32 21 14
f 32 14 6
f 32 6 22
f 32 30 21
f 32 15 30
f 33 5 16
f 33 16 23
f 33 27 5
f 33 23 27
f 34 22 6
f 34 6 26
f 35 18 4
f 35 34 26
f 35 4 22
f 35 22 34
f 36 5 20
f 36 20 29
f 36 29 31
f 36 31 16
f 36 16 5
f 37 29 28
f 37 31 29
f 37 15 31
f 37 30 15
f 37 28 8
f 38 8 21
f 38 21 30
f 38 37 8
f 38 30 37
f 39 35 26
f 39 26 18
f 39 18 35

