# https://github.com/mikedh/trimesh
v 0.02463421 0.02997757 0.05103435
v 0.02795847 0.02661514 0.05075960
v 0.01910680 0.02964423 0.02354609
v 0.00788192 0.03075886 0.01943452
v 0.00781718 0.03636077 0.05046238
v 0.02024006 0.02440660 0.01998507
v 0.02353608 0.02899122 0.03407684
v 0.02729414 0.02739868 0.05093746
v 0.00729848 0.03536964 0.02604087
v 0.01513571 0.03090355 0.02121145
v 0.02402188 0.02836158 0.05029059
v 0.01909416 0.02845848 0.02125208
v 0.02761074 0.02629647 0.04801706
v 0.01277213 0.03674012 0.05102822
v 0.00733377 0.03404074 0.02205586
v 0.01922535 0.02486521 0.01955385
v 0.01637148 0.03229906 0.02621141
v 0.02067941 0.02489388 0.02092997
v 0.01766102 0.02952987 0.02131132
v 0.01922712 0.03382203 0.05111052
v 0.00759394 0.03795587 0.05066588
v 0.00749123 0.03327271 0.02054841
v 0.01248678 0.03493379 0.03148699
v 0.01909837 0.03097238 0.02743286
v 0.01116790 0.03360231 0.02347712
v 0.01629112 0.03083991 0.02225064
v 0.01904674 0.03228155 0.03421546
v 0.00735820 0.03682369 0.03548065
v 0.01115471 0.03259655 0.02104953
v 0.00863665 0.03374785 0.02208389
v 0.01110056 0.03500677 0.02884259
v 0.02310844 0.02966662 0.03687098
v 0.01770773 0.03223390 0.02887069
v 0.01646275 0.03359423 0.03284006
v 0.00868981 0.03655261 0.03550276
v 0.01237874 0.03355193 0.02488194
v 0.00861614 0.03507763 0.02612032
v 0.01390134 0.03503880 0.03687243
f 6 5 4
f 8 5 2
f 8 7 1
f 8 2 7
f 11 6 2
f 11 2 5
f 11 5 6
f 12 3 7
f 13 7 2
f 13 2 6
f 14 5 8
f 15 4 5
f 16 6 4
f 16 4 10
f 16 12 6
f 18 12 7
f 18 6 12
f 18 13 6
f 18 7 13
f 19 3 12
f 19 16 10
f 19 12 16
f 20 14 8
f 20 8 1
f 21 5 14
f 21 15 5
f 22 4 15
f 24 7 3
f 24 3 17
f 26 17 3
f 26 3 19
f 26 19 10
f 26 25 17
f 27 7 24
f 28 9 15
f 28 15 21
f 29 10 4
f 29 4 22
f 29 26 10
f 29 25 26
f 30 15 9
f 30 9 25
f 30 25 29
f 30 29 22
f 30 22 15
f 32 27 20
f 32 20 1
f 32 1 7
f 32 7 27
f 33 27 24
f 33 24 17
f 34 14 20
f 34 20 27
f 34 27 33
f 34 33 17
f 34 31 23
f 34 17 31
f 35 28 21
f 35 21 14
f 35 23 31
f 35 31 9
f 35 9 28
f 36 31 17
f 36 17 25
f 36 25 31
f 37 31 25
f 37 25 9
f 37 9 31
f 38 34 23
f 38 14 34
f 38 35 14
f 38 23 35

