# https://github.com/mikedh/trimesh
v 0.03251229 0.03252092 0.06494862
v 0.04487675 -0.00874724 0.06512419
v 0.03508640 0.01133015 0.03424186
v 0.02353608 0.02899122 0.03407684
v 0.02401051 0.03908676 0.06529365
v 0.03423421 -0.00908343 0.03395554
v 0.03248528 0.01782118 0.03416933
v 0.04347653 0.01408501 0.06383626
v 0.04477934 0.00875164 0.06520108
v 0.02604173 0.03808545 0.06395688
v 0.03651287 -0.00463733 0.03419626
v 0.03537862 -0.00939016 0.04904202
v 0.02694115 0.02566419 0.03415705
v 0.02540863 0.02528718 0.03384671
v 0.03788517 0.02596864 0.06396067
v 0.04211017 0.01803608 0.06388714
v 0.04292351 -0.00913784 0.06517954
v 0.03789689 0.02600674 0.06498878
v 0.04485452 0.00871719 0.06388672
v 0.02600738 0.03805544 0.06494568
v 0.03257285 0.03256036 0.06401207
v 0.02363470 0.03856730 0.06273649
v 0.03659454 0.00330638 0.03414296
v 0.03584618 -0.00886034 0.03413355
v 0.03368397 0.01522375 0.03416876
v 0.04221595 0.01803908 0.06500542
v 0.03687964 -0.00937590 0.05419133
v 0.04099391 -0.00935800 0.06222874
v 0.04350694 0.01407375 0.06512109
v 0.04493743 -0.00197154 0.06295731
v 0.02431606 0.02830713 0.03415182
v 0.04494215 -0.00870313 0.06386603
v 0.04490185 0.00468475 0.06300312
f 12 4 6
f 14 6 4
f 14 13 7
f 14 4 13
f 15 7 13
f 16 8 3
f 16 7 15
f 17 9 5
f 17 2 9
f 18 1 5
f 19 3 8
f 19 9 2
f 20 10 5
f 20 5 1
f 21 4 10
f 21 15 13
f 21 18 15
f 21 1 18
f 21 20 1
f 21 10 20
f 22 10 4
f 22 5 10
f 22 12 5
f 22 4 12
f 23 3 19
f 23 6 14
f 24 23 11
f 24 6 23
f 25 16 3
f 25 7 16
f 25 3 23
f 25 23 14
f 25 14 7
f 26 8 16
f 26 16 15
f 26 15 18
f 27 5 12
f 28 12 6
f 28 6 24
f 28 27 12
f 28 17 5
f 28 5 27
f 29 18 5
f 29 5 9
f 29 26 18
f 29 8 26
f 29 19 8
f 29 9 19
f 30 11 23
f 31 21 13
f 31 13 4
f 31 4 21
f 32 24 11
f 32 2 17
f 32 28 24
f 32 17 28
f 32 11 30
f 32 30 19
f 32 19 2
f 33 30 23
f 33 23 19
f 33 19 30

