# https://github.com/mikedh/trimesh
v -0.03342975 0.01204714 0.03387713
v -0.00789452 -0.01792323 0.00302430
v -0.00763143 -0.00624262 0.00129246
v -0.01170568 0.01309385 0.00012960
v -0.03089947 -0.00735709 0.01845862
v -0.01732973 -0.00717693 0.00083937
v -0.01253542 0.01402770 0.00261827
v -0.02953968 -0.01793343 0.02664272
v -0.03218076 0.01118547 0.02230081
v -0.00746034 -0.01697660 0.00021888
v -0.03674425 0.00208029 0.03398723
v -0.02684840 -0.01627735 0.01734211
v -0.02128650 0.00199233 0.00460510
v -0.01629514 0.01249266 0.00300949
v -0.01674220 0.01369061 0.00702937
v -0.00762936 -0.00624250 0.00001258
v -0.03526579 0.00217270 0.03380945
v -0.03388016 -0.01139932 0.02742144
v -0.03369147 -0.00332167 0.02216262
v -0.03518978 0.01133491 0.03419670
v -0.02947466 -0.01257191 0.01851514
v -0.01473027 -0.01223449 0.00089130
v -0.01089618 -0.01605028 0.00082998
v -0.02952276 -0.01659488 0.02111111
v -0.01983776 -0.00592503 0.00330365
v -0.01755544 0.00585563 0.00089517
v -0.01374652 0.01256293 0.00073469
v -0.03363588 0.01123377 0.02622418
v -0.02965031 0.01128926 0.01843982
v -0.03176767 -0.01698052 0.02726723
v -0.03542461 -0.00196587 0.02742077
v -0.03211338 -0.01125746 0.02220496
v -0.02972846 -0.00198546 0.01584687
v -0.01851634 -0.00969111 0.00334895
v -0.01722398 -0.01213615 0.00328735
v -0.02128311 -0.00199942 0.00465714
v -0.01600706 0.00961384 0.00092930
v -0.03494407 0.00729321 0.02755940
v -0.01994138 0.00454883 0.00325823
v -0.03249847 -0.01533381 0.02740110
v -0.03359107 -0.00727751 0.02348942
v -0.03221693 -0.00858980 0.02104670
v -0.03081284 -0.01124524 0.01986371
v -0.03231570 -0.00328248 0.01978668
v -0.03231394 0.00336210 0.01973425
v -0.01856054 -0.00707825 0.00209028
v -0.01716277 0.00962113 0.00211648
v -0.03497804 0.00991020 0.03013455
v -0.03505129 0.00462442 0.02617167
v -0.03224799 -0.01517850 0.02621629
v -0.03507048 -0.00190640 0.02612464
v -0.03356235 -0.01132069 0.02617817
v -0.03074390 -0.01510937 0.02227991
v -0.02966856 0.00196629 0.01578886
v -0.02959853 0.00851294 0.01716318
v -0.01861713 0.00580027 0.00201005
v -0.03501232 0.01128719 0.03284920
v -0.03359458 0.00993755 0.02481032
v -0.03367053 0.00459080 0.02235568
v -0.03108803 -0.01662537 0.02481774
v -0.02824304 0.00460089 0.01442405
v -0.03229171 0.00858486 0.02116307
f 1 2 3
f 7 1 3
f 7 3 4
f 8 2 1
f 10 3 2
f 15 1 7
f 15 7 14
f 16 10 6
f 16 6 4
f 16 4 3
f 16 3 10
f 17 8 1
f 20 17 1
f 20 11 17
f 22 6 10
f 23 10 2
f 23 2 12
f 23 22 10
f 24 12 2
f 24 2 8
f 24 21 12
f 25 21 5
f 26 4 6
f 26 6 13
f 27 14 7
f 27 7 4
f 28 15 9
f 28 1 15
f 29 15 14
f 29 9 15
f 30 17 11
f 30 8 17
f 30 24 8
f 31 18 11
f 33 25 5
f 34 12 21
f 35 23 12
f 35 22 23
f 35 12 34
f 35 34 6
f 35 6 22
f 36 13 6
f 36 6 25
f 36 33 13
f 36 25 33
f 37 14 27
f 37 27 4
f 37 4 26
f 39 26 13
f 40 30 11
f 40 11 18
f 41 18 31
f 42 41 19
f 42 32 41
f 43 21 24
f 43 32 42
f 43 42 5
f 43 5 21
f 44 33 5
f 44 42 19
f 44 5 42
f 45 33 44
f 45 44 19
f 46 25 6
f 46 6 34
f 46 34 21
f 46 21 25
f 47 29 14
f 47 14 37
f 47 37 26
f 48 38 11
f 48 11 20
f 49 31 11
f 49 11 38
f 50 40 18
f 50 30 40
f 51 41 31
f 51 19 41
f 51 49 19
f 51 31 49
f 52 41 32
f 52 18 41
f 52 50 18
f 52 32 50
f 53 43 24
f 53 32 43
f 53 50 32
f 54 13 33
f 54 33 45
f 54 39 13
f 55 54 45
f 56 29 47
f 56 55 29
f 56 39 55
f 56 47 26
f 56 26 39
f 57 48 20
f 57 28 48
f 57 20 1
f 57 1 28
f 58 48 28
f 58 38 48
f 58 49 38
f 58 28 9
f 59 45 19
f 59 19 49
f 59 49 58
f 60 53 24
f 60 24 30
f 60 30 50
f 60 50 53
f 61 55 39
f 61 39 54
f 61 54 55
f 62 9 29
f 62 29 55
f 62 55 45
f 62 45 59
f 62 59 58
f 62 58 9

