# https://github.com/mikedh/trimesh
v -0.00777126 -0.04324266 0.06514566
v -0.00742921 -0.04506475 0.06513594
v -0.00769692 -0.03567969 0.03396289
v -0.03075352 -0.02122238 0.03405116
v -0.04047122 -0.02128094 0.06540992
v -0.02607002 -0.03818923 0.06393926
v -0.00799151 -0.03705155 0.05294451
v -0.01003834 -0.03650987 0.03409576
v -0.03387212 -0.03125387 0.06388143
v -0.02607632 -0.03811158 0.06491463
v -0.00799446 -0.03853208 0.05673707
v -0.00739810 -0.03708758 0.03407502
v -0.03017361 -0.02272243 0.05289501
v -0.01536775 -0.04336013 0.06392148
v -0.02319080 -0.02981854 0.03414042
v -0.03961917 -0.02346363 0.06383208
v -0.01407821 -0.04362010 0.06508865
v -0.03122084 -0.03389904 0.06488231
v -0.03792545 -0.02218609 0.06503331
v -0.00931485 -0.03530966 0.03388438
v -0.02827647 -0.02238950 0.03380346
v -0.03997499 -0.02102871 0.06263363
v -0.01392555 -0.03513211 0.03414090
v -0.01823224 -0.04228015 0.06500977
v -0.00875523 -0.04497958 0.06378441
v -0.02954587 -0.02312333 0.03418566
v -0.03129436 -0.03388643 0.06400988
v -0.03803499 -0.02594316 0.06497306
v -0.03254549 -0.03254040 0.06495332
v -0.00791778 -0.04127836 0.06216308
v -0.03279894 -0.02262604 0.05786521
v -0.01920481 -0.03256475 0.03412161
v -0.02346569 -0.03931754 0.06317311
v -0.01539219 -0.04343163 0.06434879
v -0.00740270 -0.04517866 0.06369946
v -0.00872557 -0.04494525 0.06499618
v -0.03806950 -0.02601967 0.06400074
v -0.03948355 -0.02342900 0.06517095
v -0.03393394 -0.03129294 0.06436705
f 5 2 1
f 11 1 2
f 11 2 7
f 12 7 2
f 12 3 7
f 13 7 3
f 17 2 5
f 18 6 10
f 19 5 1
f 20 12 8
f 20 3 12
f 21 13 3
f 21 4 13
f 21 3 20
f 21 15 4
f 22 13 4
f 22 5 13
f 22 16 5
f 22 4 16
f 23 8 14
f 23 20 8
f 24 10 6
f 24 17 5
f 24 5 10
f 25 14 8
f 25 8 12
f 26 15 9
f 26 4 15
f 27 15 6
f 27 9 15
f 27 6 18
f 29 18 10
f 29 10 5
f 30 19 1
f 30 1 11
f 30 11 19
f 31 13 5
f 31 5 19
f 31 7 13
f 31 19 11
f 31 11 7
f 32 21 20
f 32 15 21
f 32 20 23
f 32 6 15
f 33 23 14
f 33 32 23
f 33 6 32
f 33 24 6
f 33 14 24
f 34 24 14
f 34 17 24
f 34 14 25
f 35 25 12
f 35 12 2
f 36 2 17
f 36 34 25
f 36 17 34
f 36 35 2
f 36 25 35
f 37 16 4
f 37 4 26
f 37 26 9
f 37 28 16
f 38 5 16
f 38 16 28
f 38 29 5
f 38 28 29
f 39 29 28
f 39 9 27
f 39 27 18
f 39 18 29
f 39 37 9
f 39 28 37

