# https://github.com/mikedh/trimesh
v 0.00754512 0.04180734 0.05927706
v 0.00785134 0.03932068 0.05833931
v 0.00764858 0.03128287 0.02005891
v -0.01663675 0.02665739 0.01923081
v -0.02620812 0.02617515 0.05048795
v -0.00462281 0.03508212 0.02346598
v 0.00792609 0.03254557 0.02233110
v -0.01446401 0.03788705 0.05911706
v 0.00789227 0.03694873 0.05289709
v -0.02456757 0.02456664 0.02694072
v -0.00591523 0.03377793 0.02098390
v 0.00475104 0.03649645 0.02879163
v 0.00728150 0.03361260 0.02103957
v -0.00884882 0.04155673 0.05944526
v -0.01773500 0.02623091 0.01960584
v -0.02640261 0.02488535 0.03949275
v 0.00467215 0.03507856 0.02345305
v 0.00723524 0.03500427 0.02482356
v -0.01773625 0.03230394 0.02888007
v -0.00472344 0.03648405 0.02880177
v 0.00728501 0.03642093 0.03144676
v -0.01116279 0.03356500 0.02350799
v -0.01910060 0.03237159 0.03552030
v -0.01665482 0.02999837 0.02095241
v -0.00724787 0.03496173 0.02482460
v -0.01109399 0.03500380 0.02882028
v -0.01666300 0.03367272 0.03419771
v -0.02464199 0.02996793 0.05107455
v -0.02437422 0.02840776 0.03422052
v -0.02294290 0.02825942 0.02744802
v -0.01650365 0.03228521 0.02614099
v -0.01118256 0.03244638 0.02101913
v -0.01248643 0.03494048 0.03152689
v -0.00588901 0.03653296 0.03004666
v -0.02322916 0.03116803 0.05118416
v -0.02041721 0.03101475 0.03147671
v -0.02608278 0.02463109 0.03392497
v -0.01649922 0.03088105 0.02233938
v -0.01240305 0.03354098 0.02486967
v -0.02170902 0.02960511 0.02878870
v -0.02307464 0.02967456 0.03551856
v -0.01516162 0.03087597 0.02118460
f 7 1 2
f 8 5 2
f 8 2 1
f 9 5 3
f 9 2 5
f 9 7 2
f 9 3 7
f 11 3 4
f 13 7 3
f 13 3 11
f 14 8 1
f 15 4 3
f 15 3 10
f 16 3 5
f 17 6 12
f 17 13 11
f 17 11 6
f 18 7 13
f 18 17 12
f 18 13 17
f 20 12 6
f 20 14 1
f 20 1 12
f 21 18 12
f 21 12 1
f 21 1 7
f 21 7 18
f 22 6 11
f 23 8 14
f 24 4 15
f 25 20 6
f 25 6 22
f 26 25 22
f 27 23 14
f 27 14 19
f 27 19 23
f 28 5 8
f 28 16 5
f 29 16 28
f 30 24 15
f 30 15 10
f 30 10 29
f 31 19 26
f 32 22 11
f 32 11 4
f 32 4 24
f 33 26 19
f 33 19 14
f 33 14 26
f 34 26 14
f 34 14 20
f 34 20 25
f 34 25 26
f 35 28 8
f 35 8 23
f 36 23 19
f 37 29 10
f 37 16 29
f 37 10 3
f 37 3 16
f 38 31 22
f 38 24 30
f 38 30 31
f 38 22 32
f 39 31 26
f 39 26 22
f 39 22 31
f 40 31 30
f 40 19 31
f 40 36 19
f 40 30 29
f 41 29 28
f 41 28 35
f 41 35 23
f 41 23 36
f 41 40 29
f 41 36 40
f 42 38 32
f 42 32 24
f 42 24 38

