# https://github.com/mikedh/trimesh
v -0.02598095 0.02874399 0.05107405
v -0.01711446 0.03223761 0.02713841
v -0.03356739 0.01258526 0.02748697
v -0.01705035 0.01025911 0.00234387
v -0.02523440 0.02937620 0.05073533
v -0.02421782 0.02293358 0.02004687
v -0.03550576 0.00945811 0.05033653
v -0.02556825 0.02706879 0.03282276
v -0.01667725 0.01137856 0.00268603
v -0.03104169 0.01263205 0.02109458
v -0.03530619 0.01539490 0.05102623
v -0.02689597 0.02538846 0.05031608
v -0.02426137 0.02828369 0.03285394
v -0.02804853 0.02180118 0.02492621
v -0.01665482 0.02999837 0.02095241
v -0.02686719 0.01770982 0.01867682
v -0.03589875 0.00877767 0.03407180
v -0.03670635 0.01136969 0.05104928
v -0.02981520 0.02456888 0.05106664
v -0.01811349 0.03165545 0.02729667
v -0.03227462 0.01770118 0.03154178
v -0.02945121 0.01769372 0.02240347
v -0.02434001 0.02702018 0.02751162
v -0.02026860 0.02293618 0.01611167
v -0.01647829 0.01385164 0.00427357
v -0.01740093 0.01099883 0.00323992
v -0.02824382 0.01262694 0.01718410
v -0.03258637 0.01132807 0.02340959
v -0.03734761 0.00880199 0.05080447
v -0.03506342 0.01270646 0.03687652
v -0.03252430 0.02063094 0.05109396
v -0.01684756 0.03162480 0.02463188
v -0.02949557 0.02183880 0.03010491
v -0.03214467 0.01520692 0.02619767
v -0.02950203 0.01645170 0.02128083
v -0.02694362 0.02164065 0.02243728
v -0.02030730 0.02949831 0.02496053
v -0.02025005 0.02552131 0.01868939
v -0.02285067 0.02167099 0.01740335
v -0.02818039 0.01510190 0.01855555
v -0.03393020 0.01135068 0.02741690
v -0.02878165 0.01007641 0.01678739
v -0.01771608 0.00988831 0.00291783
v -0.03358682 0.01522626 0.03285411
v -0.02833593 0.02436629 0.03560880
v -0.02940572 0.02040724 0.02631021
v -0.02684973 0.02429181 0.02745725
v -0.03093832 0.02048025 0.03421441
v -0.03222700 0.01265907 0.02357747
v -0.02416525 0.02161520 0.01870264
v -0.02545703 0.02433107 0.02364095
v -0.01774956 0.03110742 0.02480140
v -0.01768876 0.02958529 0.02128300
v -0.03518978 0.01133491 0.03419670
v -0.03138623 0.01139542 0.02098398
v -0.03675711 0.00873925 0.04657500
v -0.01890019 0.00981398 0.00439671
v -0.02960063 0.02312037 0.03823858
v -0.02287074 0.02685001 0.02358905
v -0.02290596 0.02423309 0.02004195
f 7 5 1
f 9 5 4
f 9 2 5
f 12 7 4
f 12 4 5
f 12 5 7
f 13 8 1
f 13 1 5
f 19 1 8
f 20 13 5
f 20 5 2
f 23 8 13
f 25 2 9
f 25 9 16
f 26 16 9
f 26 9 4
f 26 4 16
f 29 18 17
f 29 7 1
f 29 1 18
f 30 18 11
f 30 17 18
f 31 18 1
f 31 1 19
f 31 11 18
f 31 21 11
f 32 20 2
f 32 25 15
f 32 2 25
f 34 3 21
f 36 22 14
f 36 35 22
f 36 16 35
f 37 23 13
f 37 13 20
f 38 25 24
f 38 15 25
f 39 24 25
f 39 38 24
f 40 16 4
f 40 35 16
f 40 27 10
f 40 10 35
f 41 28 17
f 42 17 28
f 43 4 7
f 43 7 29
f 43 42 27
f 43 40 4
f 43 27 40
f 44 30 11
f 44 11 21
f 44 21 3
f 45 19 8
f 45 8 33
f 46 33 14
f 46 21 33
f 46 34 21
f 46 14 22
f 46 22 34
f 47 14 33
f 47 33 8
f 47 8 23
f 48 33 21
f 48 21 31
f 49 3 34
f 49 41 3
f 49 28 41
f 49 10 28
f 49 35 10
f 49 34 22
f 49 22 35
f 50 36 6
f 50 16 36
f 50 6 39
f 50 39 25
f 50 25 16
f 51 36 14
f 51 6 36
f 51 47 23
f 51 14 47
f 52 37 20
f 52 20 32
f 52 32 37
f 53 37 32
f 53 32 15
f 53 15 38
f 54 41 17
f 54 3 41
f 54 44 3
f 54 17 30
f 54 30 44
f 55 42 28
f 55 28 10
f 55 10 27
f 55 27 42
f 56 43 29
f 56 29 17
f 57 17 42
f 57 42 43
f 57 56 17
f 57 43 56
f 58 45 33
f 58 33 48
f 58 19 45
f 58 48 31
f 58 31 19
f 59 51 23
f 59 23 37
f 59 37 53
f 59 53 38
f 60 59 38
f 60 6 51
f 60 51 59
f 60 39 6
f 60 38 39

