# https://github.com/mikedh/trimesh
v 0.02903278 -0.02362321 0.03409491
v 0.03415750 -0.01002157 0.02733918
v 0.01934402 -0.03074494 0.03388493
v 0.00762934 -0.01040361 0.00001122
v 0.02422107 -0.02172222 0.01869079
v 0.03338384 -0.00640778 0.02683800
v 0.02941532 -0.01786287 0.02221014
v 0.02282956 -0.02825403 0.02630866
v 0.01676798 -0.00608542 0.00040376
v 0.00763726 -0.01040647 0.00130644
v 0.03492800 -0.00615513 0.02715665
v 0.02557781 -0.02539864 0.03387116
v 0.03241326 -0.01522198 0.02746266
v 0.02317651 -0.02970122 0.03412952
v 0.00992167 -0.03389824 0.02220243
v 0.02817038 -0.02165049 0.02501288
v 0.01717467 -0.00968325 0.00196466
v 0.01178520 -0.00624362 0.00002989
v 0.03223392 -0.00866453 0.02103468
v 0.02837959 -0.02437016 0.03417814
v 0.01628888 -0.02968048 0.02004552
v 0.00855783 -0.02990300 0.01583091
v 0.01075804 -0.03370814 0.02671034
v 0.01400892 -0.03407580 0.02737910
v 0.02546391 -0.02566502 0.02635411
v 0.02951684 -0.02035174 0.02620369
v 0.02425250 -0.02414994 0.02120009
v 0.02564539 -0.01634365 0.01598283
v 0.00740408 -0.01695768 0.00017130
v 0.01179849 -0.00624488 0.00133334
v 0.03360329 -0.00728910 0.02354440
v 0.02965679 -0.00863275 0.01709770
v 0.03210727 -0.01121757 0.02221822
v 0.01915648 -0.03251680 0.03417163
v 0.01374011 -0.03097578 0.01995790
v 0.01039804 -0.03535181 0.02705416
v 0.01650038 -0.03217697 0.02492719
v 0.02555365 -0.02711725 0.03146022
v 0.02825028 -0.02429085 0.03285557
v 0.03213803 -0.01508736 0.02626173
v 0.02816770 -0.01906245 0.02127186
v 0.02544377 -0.02426736 0.02354482
v 0.02023161 -0.02301015 0.01601795
v 0.01905381 -0.02949834 0.02233938
v 0.01588073 -0.01205536 0.00212746
v 0.03383037 -0.00594559 0.02346019
v 0.03384045 -0.00998267 0.02612912
v 0.02129019 -0.00718329 0.00610049
v 0.02948646 -0.01260135 0.01854427
v 0.02031587 -0.03092016 0.02885216
v 0.00899042 -0.03112252 0.01740720
v 0.01077715 -0.01847577 0.00342058
v 0.01387174 -0.03380254 0.02615165
v 0.01818098 -0.03314961 0.03408194
v 0.01098447 -0.03350217 0.02226909
v 0.02430521 -0.02831222 0.03144284
v 0.03073787 -0.01506278 0.02228113
v 0.02148052 -0.02825696 0.02361332
v 0.02026854 -0.02695183 0.02010808
v 0.01344697 -0.01357491 0.00092879
v 0.02143563 -0.00598574 0.00593518
v 0.03265168 -0.00605239 0.02090159
v 0.02832873 -0.00987663 0.01587542
v 0.02689858 -0.01383794 0.01596701
f 10 3 6
f 11 6 1
f 11 1 2
f 12 6 3
f 12 1 6
f 13 2 1
f 18 4 10
f 20 12 3
f 20 1 12
f 23 3 10
f 26 13 1
f 26 25 16
f 26 16 7
f 29 18 9
f 29 4 18
f 29 22 10
f 29 10 4
f 30 18 10
f 30 10 6
f 30 6 11
f 30 9 18
f 33 19 31
f 34 20 3
f 34 14 20
f 36 22 15
f 36 23 10
f 36 10 22
f 38 1 20
f 38 20 14
f 38 8 25
f 39 26 1
f 39 25 26
f 39 38 25
f 39 1 38
f 40 26 7
f 40 13 26
f 40 2 13
f 41 27 5
f 41 7 16
f 41 5 28
f 42 16 25
f 42 41 16
f 42 27 41
f 43 5 27
f 44 37 35
f 44 35 21
f 45 28 5
f 45 17 28
f 46 30 11
f 46 11 31
f 46 31 19
f 47 31 11
f 47 11 2
f 47 33 31
f 47 40 33
f 47 2 40
f 48 17 9
f 49 41 28
f 49 7 41
f 49 32 19
f 49 19 33
f 50 14 34
f 50 24 37
f 50 37 44
f 51 35 15
f 51 15 22
f 51 22 29
f 52 21 35
f 52 51 29
f 52 35 51
f 53 36 15
f 53 24 36
f 53 37 24
f 54 36 24
f 54 34 3
f 54 3 23
f 54 23 36
f 54 50 34
f 54 24 50
f 55 15 35
f 55 35 37
f 55 53 15
f 55 37 53
f 56 38 14
f 56 8 38
f 56 50 8
f 56 14 50
f 57 40 7
f 57 33 40
f 57 49 33
f 57 7 49
f 58 42 25
f 58 25 8
f 58 27 42
f 58 50 44
f 58 8 50
f 59 43 27
f 59 58 44
f 59 27 58
f 59 44 21
f 59 52 43
f 59 21 52
f 60 45 5
f 60 5 43
f 60 43 52
f 60 52 29
f 60 29 9
f 60 9 17
f 60 17 45
f 61 9 30
f 61 30 46
f 61 48 9
f 61 32 48
f 62 46 19
f 62 19 32
f 62 61 46
f 62 32 61
f 63 48 32
f 63 17 48
f 63 49 17
f 63 32 49
f 64 49 28
f 64 28 17
f 64 17 49

