# https://github.com/mikedh/trimesh
v 0.00749123 0.03327271 0.02054841
v 0.00788192 0.03075886 0.01943452
v 0.00702380 0.01759799 0.00074981
v -0.01269741 0.01276633 0.00031622
v -0.01773500 0.02623091 0.01960584
v 0.00763409 0.01318522 0.00132049
v -0.00321013 0.01995612 0.00191336
v 0.00803687 0.02566654 0.01337604
v 0.00762895 0.01317724 0.00001082
v -0.01797776 0.01360810 0.00846789
v 0.00320342 0.01991447 0.00193159
v -0.00448150 0.01868672 0.00088290
v -0.00878542 0.03298824 0.02069004
v 0.00704206 0.01986430 0.00330374
v -0.01501668 0.01248253 0.00167367
v 0.00463165 0.03239979 0.01842562
v 0.00445354 0.01870532 0.00083694
v -0.01556103 0.03035800 0.02064658
v -0.01107535 0.02971203 0.01717225
v -0.01629514 0.01249266 0.00300949
v 0.00729706 0.03093203 0.01716686
v -0.00451668 0.03242006 0.01842818
v -0.01703670 0.02939274 0.02046231
v -0.01279333 0.03163058 0.02074354
v -0.00711039 0.01993485 0.00333738
v 0.00736240 0.03268065 0.01964628
v -0.00865866 0.03243033 0.01977260
v -0.01467861 0.01353184 0.00210576
v -0.01819006 0.02102575 0.01492909
v -0.01527966 0.02983968 0.01972188
v -0.00973728 0.01621240 0.00078944
v -0.01253729 0.03108814 0.01980332
v -0.01590792 0.01353290 0.00339151
v -0.01242626 0.01385907 0.00064310
v -0.00971091 0.01990119 0.00469994
v -0.01212859 0.01592231 0.00207069
v -0.01387397 0.02962237 0.01863232
v -0.01630284 0.02833894 0.01859357
v -0.01202119 0.01854585 0.00479055
f 5 2 1
f 8 1 2
f 8 2 6
f 9 8 6
f 9 3 8
f 10 6 2
f 10 2 5
f 12 9 4
f 14 8 3
f 14 1 8
f 15 9 6
f 15 4 9
f 16 11 7
f 17 3 9
f 17 9 12
f 17 14 3
f 17 12 7
f 17 7 11
f 20 15 6
f 20 6 10
f 21 11 16
f 21 17 11
f 21 1 14
f 21 14 17
f 22 13 1
f 22 1 16
f 22 16 7
f 23 5 1
f 23 1 18
f 24 18 1
f 24 1 13
f 25 19 7
f 25 7 12
f 26 21 16
f 26 16 1
f 26 1 21
f 27 13 22
f 27 24 13
f 27 22 7
f 27 7 19
f 28 15 20
f 29 23 20
f 29 20 10
f 29 10 5
f 29 5 23
f 30 18 24
f 30 23 18
f 31 25 12
f 31 12 4
f 32 27 19
f 32 24 27
f 32 30 24
f 33 28 20
f 33 20 23
f 34 4 15
f 34 15 28
f 34 31 4
f 35 19 25
f 35 25 31
f 36 34 28
f 36 31 34
f 37 32 19
f 37 30 32
f 37 35 30
f 37 19 35
f 38 33 23
f 38 28 33
f 38 36 28
f 38 23 30
f 38 30 35
f 39 38 35
f 39 36 38
f 39 35 31
f 39 31 36

