# https://github.com/mikedh/trimesh
v -0.03743503 0.02325971 0.06514258
v -0.03066708 -0.02209885 0.05307426
v -0.02881272 0.02315165 0.05055261
v -0.03404508 0.00208403 0.02703370
v -0.04488007 -0.00875229 0.06513577
v -0.02876699 -0.02173427 0.03393789
v -0.03589875 0.00877767 0.03407180
v -0.03216120 0.02352815 0.05829404
v -0.03792545 -0.02218609 0.06503331
v -0.02943967 -0.02216055 0.04639846
v -0.02993444 -0.01739297 0.02701148
v -0.03955107 0.02223148 0.06308822
v -0.03431436 0.00911151 0.03394701
v -0.03562051 0.00205282 0.02739009
v -0.02932568 0.02355138 0.05303015
v -0.04004154 0.02237054 0.06525678
v -0.03498291 0.02355827 0.06233967
v -0.03238121 -0.02232820 0.05685325
v -0.04099807 -0.02083130 0.06374227
v -0.03156478 0.02214603 0.05097053
v -0.03389361 -0.00075550 0.02667589
v -0.04096168 -0.02082714 0.06506475
v -0.04497878 0.00877826 0.06397229
v -0.03354602 -0.01266214 0.02747084
v -0.03176767 -0.01698052 0.02726723
v -0.04361427 -0.01413263 0.06502754
v -0.04228335 0.01806816 0.06409931
v -0.04493677 -0.00335493 0.06298111
v -0.04487517 0.00876394 0.06511856
v -0.03504077 -0.00590548 0.02746316
v -0.03121651 -0.02051660 0.03418512
v -0.04226409 -0.01807553 0.06373009
v -0.03089517 -0.01504772 0.02667638
v -0.04359072 -0.01411394 0.06366333
v -0.04082776 0.02081955 0.06383566
v -0.04357080 0.01409493 0.06395064
v -0.04494640 0.00339404 0.06302366
v -0.04214427 0.01814321 0.06523657
v -0.04484962 -0.00873921 0.06380409
v -0.03249847 -0.01533381 0.02740110
v -0.04227134 -0.01813342 0.06497356
v -0.04088732 0.02079852 0.06513741
v -0.04355016 0.01411803 0.06508452
f 10 6 3
f 10 3 2
f 11 4 3
f 11 3 6
f 13 7 3
f 13 3 4
f 14 13 4
f 14 7 13
f 15 2 3
f 15 3 12
f 16 9 1
f 16 1 12
f 17 9 8
f 17 1 9
f 17 8 15
f 17 15 12
f 17 12 1
f 18 8 9
f 18 15 8
f 18 2 15
f 18 10 2
f 18 9 6
f 18 6 10
f 19 6 9
f 20 12 3
f 20 3 7
f 20 7 12
f 21 14 4
f 21 4 11
f 22 16 5
f 22 9 16
f 22 19 9
f 23 7 14
f 25 11 6
f 26 22 5
f 28 5 23
f 29 23 5
f 30 14 21
f 31 25 6
f 31 6 19
f 31 19 25
f 32 25 19
f 33 25 24
f 33 21 11
f 33 11 25
f 33 30 21
f 33 24 30
f 34 26 5
f 34 32 26
f 34 24 32
f 35 16 12
f 35 12 7
f 35 7 27
f 36 27 7
f 36 7 23
f 37 28 23
f 37 23 14
f 37 14 28
f 38 29 5
f 38 5 16
f 39 28 14
f 39 14 30
f 39 5 28
f 39 34 5
f 39 30 24
f 39 24 34
f 40 32 24
f 40 24 25
f 40 25 32
f 41 32 19
f 41 19 22
f 41 22 26
f 41 26 32
f 42 35 27
f 42 16 35
f 42 38 16
f 42 27 38
f 43 36 23
f 43 23 29
f 43 29 38
f 43 38 27
f 43 27 36

