# https://github.com/mikedh/trimesh
v 0.02179552 -0.03869811 0.06533961
v 0.02090175 -0.04104977 0.06515029
v 0.01874664 -0.02985211 0.02704160
v -0.01040622 -0.03399564 0.02704718
v -0.00777126 -0.04324266 0.06514566
v 0.00584342 -0.03645662 0.02740356
v 0.02222369 -0.03079993 0.05302688
v 0.02191008 -0.02896136 0.03393261
v -0.00742921 -0.04506475 0.06513594
v 0.01776102 -0.03229752 0.02745542
v 0.01666464 -0.03108847 0.02665315
v 0.02221413 -0.03511213 0.06094688
v -0.00790112 -0.03673872 0.05173508
v 0.02217447 -0.02938473 0.04365976
v 0.00873897 -0.04493200 0.06502708
v -0.01071149 -0.03494647 0.03387938
v -0.00587738 -0.03645418 0.02740089
v 0.01541590 -0.04331026 0.06374626
v 0.02069425 -0.03147620 0.03409658
v 0.01129203 -0.03514045 0.02735036
v -0.00786377 -0.04220109 0.06359520
v 0.01541052 -0.04329420 0.06508584
v 0.00471487 -0.04494633 0.06295688
v -0.01007496 -0.03553994 0.02732232
v 0.01924296 -0.04197422 0.06398556
v 0.00881931 -0.04502406 0.06376220
v 0.02078903 -0.04063638 0.06309821
v 0.01517809 -0.03358224 0.02746389
v -0.00792569 -0.03805542 0.05565155
v -0.00740270 -0.04517866 0.06369946
v 0.01928245 -0.04187316 0.06506095
v -0.01033272 -0.03643857 0.03401606
f 8 1 2
f 8 3 4
f 9 1 5
f 10 3 8
f 11 6 4
f 11 4 3
f 11 3 10
f 12 5 1
f 12 1 8
f 14 8 4
f 14 12 8
f 14 7 12
f 14 13 7
f 16 9 5
f 16 14 4
f 16 13 14
f 17 4 6
f 19 10 8
f 20 6 11
f 21 12 7
f 21 5 12
f 21 16 5
f 22 2 1
f 22 1 9
f 22 9 15
f 24 16 4
f 24 4 17
f 25 22 18
f 25 18 20
f 26 20 18
f 26 6 20
f 26 23 6
f 26 22 15
f 26 18 22
f 27 19 8
f 27 8 2
f 27 10 19
f 27 25 10
f 27 2 25
f 28 20 11
f 28 11 10
f 28 25 20
f 28 10 25
f 29 21 7
f 29 7 13
f 29 13 16
f 29 16 21
f 30 17 6
f 30 6 23
f 30 24 17
f 30 23 26
f 30 26 15
f 30 15 9
f 31 25 2
f 31 2 22
f 31 22 25
f 32 30 9
f 32 9 16
f 32 16 24
f 32 24 30

