# https://github.com/mikedh/trimesh
v 0.02352132 0.03963205 0.06498807
v 0.02504804 0.03492597 0.06362072
v 0.02486200 0.02765382 0.05048779
v 0.00781718 0.03636077 0.05046238
v -0.00918209 0.04301259 0.06520242
v 0.01922712 0.03382203 0.05111052
v 0.02352593 0.03972639 0.06391801
v 0.02494218 0.03628619 0.06503215
v 0.02516238 0.02943991 0.05559844
v -0.00921763 0.03906261 0.05847030
v 0.02402188 0.02836158 0.05029059
v 0.01410242 0.04368666 0.06365049
v 0.01408713 0.04359227 0.06518015
v 0.02502775 0.02782653 0.05175029
v -0.00474674 0.04493181 0.06297929
v -0.00934841 0.04098572 0.06214721
v 0.01380117 0.03636559 0.05104488
v 0.02317192 0.03115259 0.05111680
v 0.01824210 0.04230364 0.06497339
v -0.00877813 0.04497636 0.06390760
v 0.00870898 0.04494022 0.06500686
v -0.00932586 0.03962198 0.05957401
v 0.00735515 0.03806641 0.05100722
v 0.01827634 0.04234896 0.06377003
v -0.00869368 0.04491366 0.06506067
v 0.00869831 0.03783089 0.05106750
v 0.00600183 0.04483862 0.06297462
v -0.00867575 0.04209993 0.06015510
v 0.00872611 0.04490042 0.06371288
f 8 5 2
f 8 7 1
f 8 3 7
f 9 2 5
f 10 4 3
f 11 3 4
f 13 8 1
f 13 5 8
f 14 8 2
f 14 2 9
f 14 3 8
f 14 10 3
f 14 9 10
f 16 9 5
f 17 11 4
f 17 6 11
f 18 7 3
f 18 3 11
f 18 11 6
f 18 6 7
f 19 13 1
f 19 1 7
f 19 12 13
f 20 16 5
f 21 13 12
f 21 15 20
f 22 10 9
f 22 9 16
f 22 20 10
f 22 16 20
f 23 17 4
f 23 20 15
f 23 4 10
f 24 17 12
f 24 7 6
f 24 6 17
f 24 19 7
f 24 12 19
f 25 21 20
f 25 20 5
f 25 5 13
f 25 13 21
f 26 12 17
f 26 17 23
f 27 23 15
f 28 23 10
f 28 10 20
f 28 20 23
f 29 26 23
f 29 12 26
f 29 23 27
f 29 21 12
f 29 27 15
f 29 15 21

