# https://github.com/mikedh/trimesh
v 0.02985461 0.02206260 0.03414485
v 0.03626855 -0.00616699 0.03405868
v 0.03096248 0.00595887 0.01844630
v 0.00732917 0.01671788 0.00026161
v 0.00749123 0.03327271 0.02054841
v 0.01745092 -0.00589125 0.00083171
v 0.02682452 0.02160594 0.02236636
v 0.03507292 0.00987285 0.03146567
v 0.01966266 0.03187793 0.03408276
v 0.03103312 -0.00598678 0.01843223
v 0.01742384 0.00577638 0.00094603
v 0.01179849 -0.00624488 0.00133334
v 0.01625727 0.02833466 0.01863599
v 0.03548081 0.01000337 0.03421747
v 0.03506152 0.00333887 0.02624619
v 0.03082017 0.01775413 0.02618866
v 0.03476341 -0.00637060 0.03387428
v 0.02285828 0.02830524 0.02751192
v 0.01990150 0.00332504 0.00324005
v 0.01178520 -0.00624362 0.00002989
v 0.02821911 0.01243479 0.01728962
v 0.01463375 0.01347804 0.00227732
v 0.00763409 0.01318522 0.00132049
v 0.01108379 0.03091553 0.01854823
v 0.03671048 -0.00198766 0.03417570
v 0.02054045 0.03128963 0.03410985
v 0.03371176 -0.00200977 0.02218291
v 0.03661059 0.00060484 0.03278801
v 0.02680141 0.02430751 0.02751006
v 0.03357439 0.01387050 0.03017649
v 0.03214714 0.01260985 0.02355632
v 0.03383037 -0.00594559 0.02346019
v 0.02037609 0.02824820 0.02238027
v 0.01990989 -0.00331486 0.00319718
v 0.03232091 -0.00196300 0.01968569
v 0.01851883 0.00570475 0.00207496
v 0.00762895 0.01317724 0.00001082
v 0.01490700 0.01097170 0.00081807
v 0.02681287 0.01909446 0.01999042
v 0.01211905 0.01594300 0.00212615
v 0.00736240 0.03268065 0.01964628
v 0.02167702 0.02954176 0.02875254
v 0.03367918 0.00198545 0.02219913
v 0.03506730 0.00595555 0.02747414
v 0.03677867 0.00061456 0.03415443
v 0.02952207 0.02170466 0.03020050
v 0.03248528 0.01782118 0.03416933
v 0.03094759 0.01256962 0.02112276
v 0.03223648 0.01378142 0.02488500
v 0.03504960 -0.00590756 0.02746096
v 0.01006926 0.03279286 0.02083439
v 0.02540692 0.02425368 0.02368842
v 0.01848910 -0.00584426 0.00197419
v 0.03233965 0.00198217 0.01976654
v 0.03090471 0.00991315 0.01980175
v 0.01849070 0.01092001 0.00475133
v 0.01586023 0.01344342 0.00347022
v 0.00955819 0.01988668 0.00468554
v 0.00979464 0.01616762 0.00076994
v 0.00719593 0.02285305 0.00733824
v 0.02039317 0.03096409 0.03147414
v 0.02031220 0.02945477 0.02500418
v 0.03511563 -0.00196435 0.02615179
v 0.03356213 0.00733392 0.02354252
f 17 9 5
f 17 2 9
f 17 5 12
f 19 6 11
f 20 11 6
f 20 6 10
f 20 17 12
f 20 10 17
f 23 20 12
f 25 9 2
f 26 25 14
f 26 9 25
f 26 1 18
f 29 16 7
f 29 18 1
f 30 14 8
f 32 17 10
f 32 2 17
f 32 10 27
f 34 6 19
f 35 34 19
f 35 10 34
f 35 27 10
f 36 19 11
f 36 3 19
f 37 11 20
f 37 23 4
f 37 20 23
f 38 37 4
f 38 11 37
f 38 36 11
f 40 13 33
f 40 33 7
f 40 22 38
f 41 23 12
f 41 12 5
f 42 26 18
f 44 28 15
f 44 8 14
f 44 14 28
f 45 28 14
f 45 14 25
f 45 25 28
f 46 29 1
f 46 16 29
f 47 14 30
f 47 26 14
f 47 1 26
f 47 46 1
f 47 30 16
f 47 16 46
f 48 21 39
f 48 39 7
f 48 7 16
f 49 16 30
f 49 30 8
f 49 8 44
f 49 48 16
f 49 31 48
f 50 25 2
f 50 2 32
f 51 33 13
f 51 13 24
f 51 5 9
f 51 41 5
f 51 24 41
f 52 29 7
f 52 7 33
f 52 33 18
f 52 18 29
f 53 34 10
f 53 10 6
f 53 6 34
f 54 35 19
f 54 19 3
f 54 43 27
f 54 27 35
f 55 36 21
f 55 3 36
f 55 21 48
f 56 21 36
f 56 36 38
f 56 39 21
f 57 7 39
f 57 40 7
f 57 22 40
f 57 39 56
f 57 56 38
f 57 38 22
f 58 24 13
f 58 13 40
f 59 40 38
f 59 38 4
f 59 58 40
f 59 4 58
f 60 4 23
f 60 23 41
f 60 58 4
f 60 41 24
f 60 24 58
f 61 9 26
f 61 26 42
f 61 51 9
f 62 42 18
f 62 18 33
f 62 33 51
f 62 61 42
f 62 51 61
f 63 43 15
f 63 27 43
f 63 15 28
f 63 28 25
f 63 25 50
f 63 50 32
f 63 32 27
f 64 49 44
f 64 31 49
f 64 3 55
f 64 54 3
f 64 43 54
f 64 55 48
f 64 48 31
f 64 44 15
f 64 15 43

