# https://github.com/mikedh/trimesh
v -0.00891271 0.04457878 0.06546537
v -0.00938823 0.04269121 0.06474430
v -0.00898447 0.03798612 0.05205422
v -0.02822011 0.02384644 0.05033822
v -0.04004154 0.02237054 0.06525678
v -0.00932586 0.03962198 0.05957401
v -0.02601176 0.03809620 0.06393375
v -0.00871770 0.03815315 0.05245351
v -0.03149019 0.02401048 0.05779613
v -0.03675748 0.02382454 0.06475003
v -0.01414909 0.04370165 0.06386982
v -0.02176558 0.03220355 0.05125744
v -0.02598109 0.03802827 0.06499505
v -0.03385559 0.03123967 0.06391716
v -0.00884156 0.04403791 0.06260263
v -0.03156478 0.02214603 0.05097053
v -0.02873794 0.02414775 0.05269223
v -0.03550312 0.02391378 0.06328285
v -0.01512716 0.03399413 0.05032725
v -0.01429251 0.03605469 0.05079193
v -0.01816135 0.04233231 0.06382912
v -0.03252634 0.03254054 0.06493032
v -0.03257743 0.03258168 0.06396463
v -0.01274829 0.04353855 0.06300283
v -0.03949130 0.02351196 0.06378331
v -0.01661078 0.03514184 0.05110309
v -0.01685084 0.04224778 0.06291607
v -0.01810628 0.04223498 0.06499497
v -0.03790556 0.02598893 0.06509696
v -0.02871985 0.03540211 0.06330596
v -0.03094229 0.02310049 0.05115993
v -0.03383496 0.03122580 0.06490347
v -0.03999491 0.02247275 0.06368783
v -0.03800106 0.02600817 0.06393734
v -0.02483116 0.03827819 0.06318227
v -0.01406606 0.04358113 0.06512122
v -0.03540778 0.02873950 0.06322583
v -0.02828242 0.02701105 0.05262453
v -0.03952377 0.02343429 0.06508258
f 5 2 1
f 6 1 2
f 8 6 4
f 8 4 3
f 8 1 6
f 10 6 2
f 10 2 5
f 13 5 1
f 15 8 3
f 15 1 8
f 15 11 1
f 16 9 5
f 16 12 4
f 17 4 6
f 17 6 9
f 17 16 4
f 17 9 16
f 18 9 6
f 18 6 10
f 18 10 5
f 18 5 9
f 19 3 4
f 19 4 12
f 20 19 12
f 20 3 19
f 21 7 13
f 22 13 7
f 23 22 7
f 24 15 3
f 24 11 15
f 24 20 11
f 24 3 20
f 26 20 12
f 26 12 7
f 26 21 20
f 27 21 11
f 27 11 20
f 27 20 21
f 28 21 13
f 28 13 1
f 28 11 21
f 29 5 13
f 29 13 22
f 30 23 7
f 30 7 12
f 30 12 23
f 31 14 23
f 31 12 16
f 32 23 14
f 32 22 23
f 32 29 22
f 33 25 16
f 33 16 5
f 33 5 25
f 34 16 25
f 34 32 14
f 34 29 32
f 35 26 7
f 35 7 21
f 35 21 26
f 36 28 1
f 36 1 11
f 36 11 28
f 37 31 16
f 37 14 31
f 37 34 14
f 37 16 34
f 38 31 23
f 38 23 12
f 38 12 31
f 39 34 25
f 39 25 5
f 39 5 29
f 39 29 34

