# https://github.com/mikedh/trimesh
v 0.04463810 -0.00893003 0.06538546
v 0.04352509 -0.01411680 0.06513683
v 0.03492800 -0.00615513 0.02715665
v 0.03338384 -0.00640778 0.02683800
v 0.02090175 -0.04104977 0.06515029
v 0.03476341 -0.00637060 0.03387428
v 0.04353175 -0.01413269 0.06391146
v 0.03789047 -0.02597152 0.06507047
v 0.02469057 -0.02465255 0.02687247
v 0.03626855 -0.00616699 0.03405868
v 0.03537426 -0.00594471 0.02879399
v 0.03687964 -0.00937590 0.05419133
v 0.04398842 -0.00882100 0.06272604
v 0.04219066 -0.01812213 0.06503766
v 0.03112355 -0.03380512 0.06506358
v 0.02265213 -0.03000840 0.05154886
v 0.02534187 -0.02378071 0.02664095
v 0.04261060 -0.00934541 0.06478116
v 0.04223355 -0.01809961 0.06391005
v 0.02756051 -0.02357093 0.02731092
v 0.02085852 -0.03161751 0.03684843
v 0.02272394 -0.03288913 0.05790719
v 0.03561187 -0.00937191 0.05036437
v 0.02229908 -0.03805402 0.06491887
v 0.03378404 -0.01132035 0.02741621
v 0.03804068 -0.02598018 0.06395873
v 0.02135262 -0.03099406 0.03400598
v 0.02277332 -0.03142426 0.05528840
v 0.02265369 -0.03559390 0.06206799
v 0.03096932 -0.01920301 0.02886419
v 0.03241326 -0.01522198 0.02746266
v 0.03252518 -0.03255301 0.06492078
v 0.03115493 -0.03389111 0.06385579
v 0.02093583 -0.04103974 0.06372521
v 0.02975119 -0.02053648 0.02743906
v 0.02317651 -0.02970122 0.03412952
v 0.02606928 -0.03811674 0.06489092
v 0.03257039 -0.03258826 0.06400997
v 0.02203456 -0.04054048 0.06509909
v 0.02600901 -0.03812221 0.06389748
v 0.02211863 -0.04059514 0.06391188
f 7 1 2
f 10 6 1
f 11 3 4
f 11 4 6
f 11 6 10
f 11 10 1
f 13 7 3
f 13 1 7
f 13 11 1
f 13 3 11
f 14 2 1
f 14 1 8
f 15 8 1
f 15 1 5
f 17 9 4
f 17 4 3
f 18 1 6
f 18 6 12
f 19 7 2
f 19 2 14
f 20 9 17
f 21 5 16
f 21 16 4
f 21 4 9
f 23 12 6
f 23 6 4
f 23 4 16
f 24 18 12
f 24 5 1
f 24 1 18
f 24 22 5
f 25 3 7
f 25 7 19
f 26 19 14
f 26 14 8
f 27 21 9
f 27 9 20
f 28 16 5
f 28 5 22
f 28 23 16
f 28 22 12
f 28 12 23
f 29 24 12
f 29 12 22
f 29 22 24
f 30 19 26
f 31 17 3
f 31 3 25
f 31 25 19
f 31 19 30
f 32 26 8
f 32 8 15
f 33 32 15
f 34 5 21
f 34 21 27
f 35 30 26
f 35 26 20
f 35 31 30
f 35 20 17
f 35 17 31
f 36 27 20
f 36 20 33
f 37 33 15
f 38 33 20
f 38 20 26
f 38 26 32
f 38 32 33
f 39 37 15
f 39 15 5
f 40 27 36
f 40 36 33
f 40 33 37
f 41 39 5
f 41 5 34
f 41 34 27
f 41 27 40
f 41 40 37
f 41 37 39

