# https://github.com/mikedh/trimesh
v 0.01199607 0.01339395 0.00180439
v 0.01181319 -0.01041971 0.00138941
v 0.01164312 0.01305870 0.00013267
v -0.01170568 0.01309385 0.00012960
v -0.00789452 -0.01792323 0.00302430
v 0.00740408 -0.01695768 0.00017130
v 0.01178138 -0.01039770 0.00002752
v 0.00791642 -0.01788372 0.00303570
v -0.01201104 0.01340269 0.00176419
v -0.00746034 -0.01697660 0.00021888
v -0.01178969 -0.00624190 0.00002006
v 0.00832086 -0.01722151 0.00247196
v -0.00822990 -0.01730995 0.00241883
v -0.01179767 -0.00625056 0.00132314
f 1 3 4
f 7 1 2
f 7 3 1
f 8 2 1
f 8 1 5
f 8 5 6
f 9 5 1
f 9 1 4
f 10 6 5
f 11 4 3
f 11 3 7
f 11 7 6
f 11 6 10
f 11 9 4
f 12 7 2
f 12 2 8
f 12 8 6
f 12 6 7
f 13 11 10
f 13 10 5
f 14 5 9
f 14 9 11
f 14 13 5
f 14 11 13

