# https://github.com/mikedh/trimesh
v -0.01071149 -0.03494647 0.03387938
v 0.01075804 -0.03370814 0.02671034
v -0.03312001 -0.01696864 0.03408016
v -0.00874329 -0.01676125 0.00042161
v -0.00465181 -0.03377258 0.01979642
v 0.00965896 -0.01865198 0.00522510
v 0.00200530 -0.03678669 0.02732702
v -0.02155666 -0.02818566 0.02368564
v 0.00866086 -0.01670749 0.00042401
v 0.00982287 -0.03253281 0.01977140
v 0.01005886 -0.03550124 0.02731855
v -0.01108968 -0.03498011 0.02624951
v -0.02319080 -0.02981854 0.03414042
v -0.02733106 -0.01665801 0.01821643
v -0.01377830 -0.03087449 0.02001004
v -0.00195732 -0.02130446 0.00322132
v 0.00338160 -0.03506918 0.02211941
v 0.01096572 -0.02972725 0.01911269
v -0.01033272 -0.03643857 0.03401606
v 0.00992167 -0.03389824 0.02220243
v -0.00198679 -0.03650750 0.02614021
v -0.02814972 -0.02310780 0.02755219
v -0.01777182 -0.03234789 0.02752278
v -0.02423901 -0.02174099 0.01869183
v -0.01119079 -0.01653119 0.00144291
v -0.03277117 -0.01684465 0.03146510
v -0.00855776 -0.03367162 0.02115378
v 0.00582110 -0.01873065 0.00083983
v 0.00055454 -0.03109791 0.01581589
v 0.00726988 -0.03500827 0.02350440
v 0.00990770 -0.03137860 0.01823244
v -0.01392555 -0.03513211 0.03414090
v 0.00462907 -0.03375064 0.01978577
v -0.00200014 -0.03679984 0.02731492
v 0.00199600 -0.03651045 0.02613392
v -0.00333943 -0.03505638 0.02213083
v -0.02843160 -0.02449205 0.03416466
v -0.02554709 -0.02708775 0.03026889
v -0.01639578 -0.03222500 0.02492935
v -0.02817257 -0.01903769 0.02115872
v -0.02692760 -0.01773755 0.01856612
v -0.00828883 -0.01978466 0.00336966
v -0.02022918 -0.02698219 0.02008348
v -0.00563699 -0.01870125 0.00079913
v -0.00056408 -0.03112359 0.01584737
v 0.00322499 -0.02122342 0.00326892
v 0.00997407 -0.03522075 0.02609937
v 0.00820831 -0.01978185 0.00336812
v -0.03262290 -0.01814284 0.03413450
v -0.01920481 -0.03256475 0.03412161
v -0.01663984 -0.03358317 0.03012974
v 0.00862965 -0.03364405 0.02104869
v 0.00855792 -0.03104502 0.01713846
v -0.00726853 -0.03499724 0.02355656
v -0.02553723 -0.02566169 0.02626432
v -0.02831309 -0.02439893 0.03285208
v -0.02041151 -0.03096246 0.02881531
v -0.01513751 -0.03365221 0.02754574
v -0.01246476 -0.03228710 0.02116578
v -0.01900022 -0.02949587 0.02244735
v -0.02992812 -0.01679101 0.02208669
v -0.01072809 -0.01856711 0.00335963
v -0.02419173 -0.02429803 0.02126383
v -0.02026097 -0.02292400 0.01605931
f 1 2 3
f 6 3 2
f 9 3 6
f 11 2 1
f 18 9 6
f 18 6 2
f 19 11 1
f 19 7 11
f 19 1 3
f 20 2 11
f 20 18 2
f 25 14 9
f 25 9 4
f 26 3 9
f 26 9 14
f 31 9 18
f 31 20 10
f 31 18 20
f 33 17 5
f 34 19 12
f 34 7 19
f 35 21 17
f 35 34 21
f 35 7 34
f 35 17 30
f 35 11 7
f 36 5 17
f 36 17 21
f 37 13 32
f 38 13 37
f 41 25 24
f 41 14 25
f 41 40 14
f 41 24 40
f 44 28 16
f 44 4 9
f 44 9 28
f 44 16 5
f 44 5 27
f 44 27 42
f 44 25 4
f 45 5 16
f 45 16 29
f 45 33 5
f 45 29 33
f 46 29 16
f 46 16 28
f 46 33 29
f 47 30 20
f 47 20 11
f 47 35 30
f 47 11 35
f 48 31 28
f 48 28 9
f 48 9 31
f 49 32 19
f 49 19 3
f 49 37 32
f 49 3 26
f 49 26 22
f 50 32 13
f 51 12 19
f 51 19 32
f 51 32 50
f 52 33 10
f 52 10 20
f 52 20 30
f 52 30 17
f 52 17 33
f 53 31 10
f 53 10 33
f 53 33 46
f 53 46 28
f 53 28 31
f 54 34 12
f 54 21 34
f 54 36 21
f 54 12 27
f 54 27 5
f 54 5 36
f 55 38 22
f 55 8 38
f 56 38 37
f 56 22 38
f 56 49 22
f 56 37 49
f 57 13 38
f 57 50 13
f 57 51 50
f 57 23 51
f 57 38 8
f 57 8 23
f 58 39 12
f 58 23 39
f 58 51 23
f 58 12 51
f 59 27 12
f 59 12 39
f 59 42 27
f 59 15 42
f 60 39 23
f 60 23 8
f 60 8 43
f 60 43 15
f 60 59 39
f 60 15 59
f 61 26 14
f 61 14 40
f 61 40 22
f 61 22 26
f 62 42 15
f 62 44 42
f 62 25 44
f 62 43 25
f 62 15 43
f 63 43 8
f 63 24 43
f 63 8 55
f 63 40 24
f 63 55 22
f 63 22 40
f 64 43 24
f 64 24 25
f 64 25 43

