# https://github.com/mikedh/trimesh
v 0.03588151 -0.00919987 0.06068983
v 0.03360835 -0.03494890 0.05129907
v 0.03357594 -0.02168113 0.01955107
v 0.00089923 -0.02524270 0.01645171
v 0.00081603 -0.02535717 0.06090996
v 0.01676137 -0.04666842 0.01981773
v 0.03583020 -0.00914532 0.05012065
v 0.02436498 -0.03123931 0.05878248
v 0.03369137 -0.04045552 0.01800684
v 0.00140291 -0.04675670 0.03094804
v 0.02330326 -0.02338503 0.01600297
v -0.00019923 -0.01829018 0.05607722
v 0.03386588 -0.02391133 0.05911464
v 0.02816280 -0.04449978 0.03473309
v 0.03373044 -0.04064562 0.04042920
v 0.00137877 -0.04506502 0.01777526
v 0.00535363 -0.04073339 0.05149748
v 0.03038896 -0.00949650 0.05379285
v 0.00141982 -0.04110086 0.04983669
v 0.03365831 -0.03113498 0.05477918
v 0.02806211 -0.04456310 0.02339461
v 0.02062311 -0.04670703 0.03475939
v 0.02430875 -0.04440634 0.01795683
v 0.00345288 -0.04654662 0.02152984
v 0.00726975 -0.03322837 0.05890521
v 0.01870932 -0.04072485 0.05149214
v 0.02942398 -0.00977686 0.05595324
v -0.00008366 -0.01838918 0.05428000
v 0.00141976 -0.04470004 0.04236950
v 0.02811733 -0.02932199 0.05875517
v 0.02625545 -0.03314848 0.05675412
v 0.03186900 -0.04251819 0.02161366
v 0.00542827 -0.04689225 0.03669595
v 0.02057955 -0.04671169 0.02342215
v 0.02436404 -0.04264234 0.04607414
v 0.00716325 -0.04663102 0.01967135
v 0.00146020 -0.04666674 0.02532526
v 0.01679288 -0.03323202 0.05884584
v 0.00342060 -0.03705620 0.05510151
v 0.00347498 -0.04269167 0.04797621
v 0.02611238 -0.03881683 0.05142080
v 0.03190825 -0.04247553 0.03671276
v 0.02988599 -0.04238952 0.01812130
v 0.00341213 -0.04679895 0.03482734
v 0.02616148 -0.04445695 0.01981922
v 0.02625529 -0.04443792 0.03855109
v 0.03352037 -0.03865587 0.04591650
v 0.01877305 -0.04461037 0.04426744
v 0.02057493 -0.03893364 0.05325828
v 0.00345555 -0.03898986 0.05320671
v 0.00154493 -0.03146473 0.05921205
v 0.02433754 -0.04071144 0.04963951
v 0.03006334 -0.04252309 0.04042097
v 0.02996981 -0.03858260 0.04941660
v 0.01674331 -0.04656908 0.03856806
v 0.02241785 -0.04455025 0.04234938
v 0.02059577 -0.04263156 0.04791302
v 0.00915090 -0.04672952 0.03863546
v 0.02063662 -0.03703301 0.05508279
v 0.03168254 -0.04043821 0.04418076
v 0.02806706 -0.04040973 0.04778841
v 0.00346448 -0.04440499 0.04415730
f 9 3 7
f 9 7 1
f 11 7 3
f 11 4 7
f 11 3 9
f 12 5 1
f 13 1 5
f 13 5 8
f 15 9 1
f 15 1 2
f 16 4 11
f 16 12 4
f 16 10 12
f 18 1 7
f 18 7 4
f 19 5 12
f 20 2 1
f 20 1 13
f 22 21 14
f 23 6 16
f 23 16 11
f 23 11 9
f 26 25 17
f 27 18 12
f 27 12 1
f 27 1 18
f 28 18 4
f 28 4 12
f 28 12 18
f 29 19 12
f 29 12 10
f 30 20 13
f 30 13 8
f 31 2 20
f 31 30 8
f 31 20 30
f 32 14 21
f 32 9 15
f 34 21 22
f 34 6 23
f 34 33 6
f 34 22 33
f 36 24 16
f 36 16 6
f 36 6 33
f 37 10 16
f 37 16 24
f 37 24 36
f 37 36 33
f 37 33 10
f 38 8 5
f 38 5 25
f 40 17 19
f 40 19 29
f 40 26 17
f 41 2 31
f 42 32 15
f 42 14 32
f 43 23 9
f 43 9 32
f 44 33 29
f 44 29 10
f 44 10 33
f 45 34 23
f 45 21 34
f 45 23 43
f 45 43 32
f 45 32 21
f 46 22 14
f 47 15 2
f 48 26 40
f 49 38 25
f 49 25 26
f 50 39 19
f 50 19 17
f 50 17 25
f 50 25 39
f 51 39 25
f 51 25 5
f 51 5 19
f 51 19 39
f 52 49 26
f 52 41 49
f 53 46 14
f 53 14 42
f 53 42 15
f 54 47 2
f 54 2 41
f 54 41 52
f 56 35 48
f 56 53 35
f 56 46 53
f 56 22 46
f 56 55 22
f 56 48 55
f 57 48 35
f 57 26 48
f 57 52 26
f 57 35 52
f 58 55 48
f 58 33 22
f 58 22 55
f 59 31 8
f 59 8 38
f 59 38 49
f 59 49 41
f 59 41 31
f 60 35 53
f 60 53 15
f 60 15 47
f 61 54 52
f 61 52 35
f 61 35 60
f 61 60 47
f 61 47 54
f 62 58 48
f 62 48 40
f 62 40 29
f 62 29 33
f 62 33 58

