# https://github.com/mikedh/trimesh
v 0.03655990 0.01490467 0.06111382
v 0.06539240 -0.00348450 0.05399556
v 0.04488743 0.02943959 0.04413118
v 0.04507670 0.03316826 0.03310947
v 0.04037107 -0.01968753 0.03335185
v 0.06506603 0.00199881 0.05427068
v 0.03421007 0.02243105 0.05978463
v 0.03495894 -0.01882995 0.06080326
v 0.05884610 -0.00624113 0.03372167
v 0.04488392 0.03133907 0.04032907
v 0.03783127 0.02369046 0.03325852
v 0.04130982 0.02207347 0.05501765
v 0.06241726 0.00194600 0.05662165
v 0.05435081 -0.01858560 0.03300188
v 0.03514601 0.01518460 0.06121183
v 0.06478848 0.00205479 0.05002307
v 0.04885827 0.02756369 0.03660624
v 0.04399368 0.03222650 0.04068501
v 0.03633312 0.02410444 0.03767887
v 0.06363870 0.00276657 0.05539406
v 0.04001827 -0.00857953 0.06091567
v 0.06189185 -0.00383764 0.05697749
v 0.03624390 -0.01979896 0.04390008
v 0.04891569 -0.01779194 0.04950328
v 0.06489268 -0.00368839 0.05002351
v 0.05681132 0.01244901 0.03298321
v 0.04927499 0.02786109 0.03288860
v 0.02991242 -0.00917486 0.05638538
v 0.04590747 0.03221016 0.03298874
v 0.03526722 -0.01497488 0.06118784
v 0.04005811 0.00686213 0.06089185
v 0.05285757 -0.01741686 0.04242351
v 0.06328572 -0.00485877 0.05534641
v 0.05534263 -0.01620544 0.03292565
v 0.05870139 0.00650806 0.03366514
v 0.05284855 0.02202441 0.03288482
v 0.03010306 0.00950818 0.05642106
v 0.02996780 -0.00920152 0.05419238
v 0.03661718 -0.01466526 0.06115977
v 0.04146179 -0.01806134 0.05692125
v 0.05677410 -0.01215504 0.03305681
v 0.03003698 0.00948257 0.05406743
f 12 3 7
f 13 7 1
f 13 2 6
f 15 1 7
f 16 6 2
f 17 10 6
f 18 3 6
f 18 6 10
f 18 7 3
f 18 10 4
f 19 4 11
f 19 18 4
f 19 7 18
f 20 6 3
f 20 3 12
f 20 13 6
f 20 12 7
f 20 7 13
f 22 2 13
f 23 14 8
f 23 5 14
f 24 8 14
f 25 2 14
f 25 16 2
f 27 17 6
f 27 5 11
f 29 4 10
f 29 10 17
f 29 17 27
f 29 27 11
f 29 11 4
f 30 28 8
f 30 15 28
f 31 1 15
f 31 21 22
f 31 22 13
f 31 13 1
f 32 24 14
f 32 14 2
f 33 22 8
f 33 2 22
f 33 32 2
f 33 24 32
f 34 25 14
f 34 14 5
f 34 5 27
f 35 25 9
f 35 16 25
f 35 26 16
f 35 9 26
f 36 16 26
f 36 34 27
f 36 26 34
f 36 27 6
f 36 6 16
f 37 28 15
f 37 15 7
f 38 23 8
f 38 8 28
f 38 5 23
f 38 11 5
f 39 15 30
f 39 31 15
f 39 21 31
f 39 22 21
f 39 30 8
f 39 8 22
f 40 33 8
f 40 8 24
f 40 24 33
f 41 9 25
f 41 25 34
f 41 34 26
f 41 26 9
f 42 37 7
f 42 7 19
f 42 19 11
f 42 11 38
f 42 38 28
f 42 28 37

