# https://github.com/mikedh/trimesh
v 0.05284855 0.02202441 0.03288482
v 0.05934772 -0.00282375 0.03361950
v 0.05271237 0.01059772 0.01259192
v 0.03458128 0.01876223 0.00093398
v 0.04037107 -0.01968753 0.03335185
v 0.04702736 0.02201675 0.01089497
v 0.05675399 0.01060779 0.02173147
v 0.03882835 0.02223517 0.03342038
v 0.04349642 -0.01807759 0.00512581
v 0.04371705 0.01068090 0.00329806
v 0.05681132 0.01244901 0.03298321
v 0.05453816 -0.01210713 0.01638936
v 0.05269146 0.02191885 0.02343392
v 0.05922434 0.00285984 0.03364743
v 0.03595694 -0.01948499 0.02015859
v 0.03465638 0.02279158 0.00218751
v 0.04898211 0.01433104 0.00901879
v 0.04009596 -0.01247789 0.00145782
v 0.05095363 -0.00654446 0.00896255
v 0.05662630 -0.00852435 0.01979256
v 0.05466554 -0.01790065 0.03283298
v 0.05478732 0.01817570 0.02533187
v 0.05454473 0.01434728 0.01814449
v 0.05477030 0.01812234 0.03284303
v 0.05689869 0.00676323 0.01976424
v 0.05675284 0.01243932 0.02534631
v 0.03783127 0.02369046 0.03325852
v 0.04915294 -0.01796614 0.01073064
v 0.04159332 0.01634009 0.00343677
v 0.05272862 0.01430694 0.01443576
v 0.04197255 0.00493033 0.00149585
v 0.03475149 -0.01856423 0.00084802
v 0.04723479 -0.00663059 0.00516052
v 0.04910650 0.00683763 0.00698643
v 0.05473836 -0.00650797 0.01448830
v 0.05678363 -0.01225780 0.02527779
v 0.05051697 0.02178577 0.01626279
v 0.05279169 0.01997769 0.01975747
v 0.05485770 0.01053059 0.01627298
v 0.03666629 0.02438983 0.02644762
v 0.05465131 -0.01784607 0.02359699
v 0.03805276 0.01650848 0.00163491
v 0.04330696 0.02199343 0.00705576
v 0.04520771 0.01436343 0.00538682
v 0.04881115 0.01825750 0.01079637
v 0.04203254 -0.00475644 0.00142269
v 0.04170457 -0.01622954 0.00320248
v 0.04533264 -0.01424728 0.00522179
v 0.05098798 0.00485654 0.00883984
v 0.04722064 0.00679213 0.00526186
v 0.05072712 -0.01420747 0.01087316
v 0.05683590 -0.01035325 0.02161373
v 0.05683195 -0.01222132 0.03104501
v 0.05481720 0.00491888 0.01429469
v 0.05248446 -0.01786995 0.01628817
v 0.03623177 0.01849539 0.00142021
v 0.03791367 0.02216626 0.00344036
v 0.03995791 0.01268039 0.00160763
v 0.04331548 0.01825404 0.00531330
v 0.04356234 -0.01232096 0.00334566
v 0.03814891 -0.01635039 0.00148023
v 0.03624929 -0.01820182 0.00122047
v 0.05452095 -0.01598264 0.01974484
v 0.03952277 0.02019538 0.00355339
f 14 8 5
f 14 5 2
f 14 1 8
f 16 4 15
f 21 2 5
f 22 13 1
f 23 22 7
f 24 14 11
f 24 1 14
f 24 22 1
f 24 11 22
f 25 14 2
f 25 7 14
f 25 2 20
f 26 14 7
f 26 11 14
f 26 22 11
f 26 7 22
f 27 15 5
f 27 5 8
f 27 8 1
f 28 5 15
f 30 3 17
f 32 15 4
f 32 28 15
f 32 9 28
f 34 17 3
f 35 20 12
f 35 25 20
f 37 6 13
f 37 23 30
f 38 13 22
f 38 22 23
f 38 37 13
f 38 23 37
f 39 23 7
f 39 7 25
f 39 30 23
f 39 3 30
f 40 16 15
f 40 15 27
f 40 6 16
f 40 13 6
f 40 27 1
f 40 1 13
f 41 21 5
f 43 16 6
f 44 10 29
f 44 17 34
f 45 30 17
f 45 37 30
f 45 6 37
f 45 43 6
f 45 17 43
f 46 18 32
f 46 32 4
f 46 4 31
f 48 28 9
f 48 9 47
f 48 33 19
f 49 19 33
f 49 33 34
f 49 34 3
f 50 34 33
f 50 31 10
f 50 44 34
f 50 10 44
f 50 46 31
f 50 33 46
f 51 19 35
f 51 48 19
f 51 28 48
f 51 35 12
f 52 20 2
f 52 2 36
f 52 36 41
f 52 12 20
f 53 36 2
f 53 2 21
f 53 41 36
f 53 21 41
f 54 39 25
f 54 25 35
f 54 35 19
f 54 19 49
f 54 49 3
f 54 3 39
f 55 41 5
f 55 5 28
f 55 51 12
f 55 28 51
f 56 42 4
f 56 4 16
f 57 16 43
f 57 56 16
f 58 31 4
f 58 4 42
f 58 10 31
f 58 42 29
f 58 29 10
f 59 43 17
f 59 17 44
f 59 44 29
f 60 46 33
f 60 18 46
f 60 33 48
f 60 48 47
f 60 47 18
f 61 32 18
f 61 18 47
f 62 47 9
f 62 9 32
f 62 61 47
f 62 32 61
f 63 52 41
f 63 41 55
f 63 55 12
f 63 12 52
f 64 29 42
f 64 42 56
f 64 56 57
f 64 59 29
f 64 57 43
f 64 43 59

