# https://github.com/mikedh/trimesh
v -0.03178546 0.00216758 0.06279419
v -0.03104630 -0.00866924 0.05856194
v -0.03636973 0.00575114 0.01489858
v -0.04891047 0.00072749 0.01535609
v -0.06474983 -0.00383976 0.04845391
v -0.03609311 -0.00718374 0.01663991
v -0.03062033 0.00650067 0.05331267
v -0.05028202 -0.00402774 0.06298753
v -0.05971725 0.00464790 0.02408901
v -0.03626116 -0.00533261 0.01502187
v -0.06182277 -0.00653052 0.02585726
v -0.03126337 0.00557101 0.06004453
v -0.03088483 -0.00847780 0.05328868
v -0.05966877 -0.00665181 0.05391113
v -0.03365761 -0.00541192 0.06281254
v -0.05235676 0.00479907 0.01861892
v -0.03571817 0.00859944 0.02895493
v -0.04894343 -0.00075040 0.01525884
v -0.06509159 0.00045425 0.02784210
v -0.03079252 -0.00892007 0.05533180
v -0.03161206 -0.00420445 0.06292115
v -0.04677785 0.00326018 0.06300094
v -0.06120698 0.00054837 0.05524245
v -0.04873078 -0.00659668 0.06159685
v -0.06357131 -0.00661419 0.04485789
v -0.05236418 0.00348553 0.01730095
v -0.03630438 0.00749435 0.01647288
v -0.05623353 -0.00515733 0.01907270
v -0.05618445 -0.00670374 0.02071862
v -0.03297659 -0.00860024 0.05859008
v -0.03159974 -0.00700296 0.06117969
v -0.04859790 -0.00511813 0.06296363
v -0.03545838 0.00346058 0.06293384
v -0.06045253 0.00481704 0.04887375
v -0.05911852 -0.00389605 0.05710897
v -0.05378827 0.00202798 0.06100506
v -0.06286035 -0.00509659 0.05191050
v -0.06175288 -0.00676635 0.05045458
v -0.06375823 -0.00657978 0.03134500
v -0.05916907 0.00307640 0.02095714
v -0.05606173 -0.00242548 0.01737634
v -0.05639390 0.00465165 0.02056682
v -0.05087669 -0.00505114 0.01724824
v -0.06143311 -0.00500028 0.02277702
v -0.05408891 -0.00655811 0.05925863
v -0.06490740 0.00203672 0.02959103
v -0.06476979 0.00192923 0.04660132
v -0.05069236 0.00472294 0.05998141
v -0.05017884 0.00193929 0.06280651
v -0.05741098 -0.00258561 0.05906755
v -0.06496638 -0.00513671 0.04476641
v -0.06103330 -0.00392653 0.05516445
v -0.06301699 0.00165877 0.05217823
v -0.05607797 0.00188163 0.01776723
v -0.05447018 -0.00363385 0.01723552
v -0.05944635 -0.00515274 0.02110625
v -0.06118582 0.00058271 0.02117375
v -0.06484233 -0.00407004 0.02781936
v -0.05570660 -0.00540508 0.05920617
v -0.06297160 0.00303481 0.02610308
v -0.06335661 0.00311536 0.04858510
v -0.05612574 0.00459276 0.05619298
v -0.05398147 -0.00393938 0.06121187
v -0.05204825 0.00324112 0.06122466
f 10 3 7
f 12 2 7
f 13 10 7
f 13 6 10
f 18 4 3
f 18 3 10
f 20 6 13
f 20 13 7
f 20 7 2
f 21 12 1
f 21 2 12
f 22 8 21
f 26 3 4
f 27 17 7
f 27 7 3
f 27 9 17
f 27 26 16
f 27 3 26
f 29 6 20
f 30 20 2
f 30 2 24
f 31 21 15
f 31 2 21
f 31 24 2
f 31 15 24
f 32 21 8
f 32 15 21
f 32 24 15
f 33 1 12
f 33 12 22
f 33 22 21
f 33 21 1
f 34 17 9
f 38 14 37
f 38 30 14
f 38 20 30
f 39 38 25
f 39 20 38
f 39 29 20
f 39 11 29
f 41 4 18
f 42 27 16
f 42 9 27
f 42 40 9
f 42 16 26
f 43 10 6
f 43 29 28
f 43 6 29
f 45 30 24
f 45 14 30
f 45 32 8
f 45 24 32
f 47 46 19
f 48 7 17
f 48 12 7
f 48 22 12
f 49 8 22
f 50 36 23
f 51 37 5
f 51 38 37
f 51 25 38
f 51 39 25
f 51 47 19
f 51 5 47
f 52 37 14
f 52 23 37
f 52 50 23
f 52 35 50
f 53 37 23
f 53 5 37
f 53 47 5
f 54 26 4
f 54 4 41
f 54 42 26
f 54 40 42
f 55 43 28
f 55 28 41
f 55 41 18
f 55 18 10
f 55 10 43
f 56 29 11
f 56 11 44
f 56 28 29
f 56 44 41
f 56 41 28
f 57 41 44
f 57 54 41
f 57 40 54
f 58 57 44
f 58 19 57
f 58 51 19
f 58 39 51
f 58 44 11
f 58 11 39
f 59 14 45
f 59 52 14
f 59 35 52
f 59 50 35
f 60 46 34
f 60 34 9
f 60 9 40
f 60 40 57
f 60 57 19
f 60 19 46
f 61 34 46
f 61 46 47
f 61 47 53
f 62 48 17
f 62 17 34
f 62 61 53
f 62 34 61
f 62 53 23
f 62 23 36
f 63 49 36
f 63 8 49
f 63 36 50
f 63 50 59
f 63 59 45
f 63 45 8
f 64 36 49
f 64 62 36
f 64 48 62
f 64 49 22
f 64 22 48

