# https://github.com/mikedh/trimesh
v 0.00115961 0.04461473 0.01733541
v 0.00105780 -0.04478099 0.01717679
v 0.00127920 -0.02829764 0.00105860
v -0.00449084 0.02638893 0.00145698
v -0.02925783 -0.02004486 0.01778688
v 0.00127361 0.02855519 0.00112119
v 0.00146797 -0.04105012 0.01067567
v -0.00436660 -0.04324696 0.01769155
v -0.02916845 0.02021314 0.01789183
v -0.02140633 -0.00855075 0.00339047
v -0.01792338 -0.00857777 0.00149680
v -0.00579368 0.03699177 0.00910485
v 0.00135792 -0.04334289 0.01407551
v 0.00152425 0.03941858 0.00868355
v -0.01156410 -0.03120896 0.00734142
v -0.00246781 0.04374855 0.01774093
v -0.01207157 -0.03945046 0.01784013
v -0.02125832 0.01626340 0.00533622
v -0.02899571 0.00489499 0.00910698
v -0.01800506 0.00880671 0.00153301
v -0.00226629 0.03169754 0.00339277
v -0.00596131 -0.03865776 0.01105352
v -0.00208374 -0.04254618 0.01448306
v 0.00145095 0.04320415 0.01409078
v 0.00149586 -0.03540851 0.00498422
v -0.02118323 -0.01978613 0.00715784
v -0.01415848 -0.01631898 0.00144335
v -0.01933364 0.03349905 0.01790141
v -0.02708763 0.02406218 0.01793318
v -0.01148459 -0.03675612 0.01268399
v -0.02885031 -0.01019770 0.01063699
v -0.02651275 0.01991321 0.01267483
v -0.01414124 0.01659032 0.00153053
v -0.02152764 0.00868741 0.00344444
v -0.00057394 0.02840417 0.00137251
v -0.01154987 0.03139186 0.00729178
v 0.00152485 0.03561595 0.00505927
v -0.00407744 -0.04268653 0.01613651
v -0.00029565 -0.04072495 0.01088188
v -0.00221901 0.04309391 0.01605829
v -0.00034919 0.03910196 0.00896189
v -0.00591820 -0.03504289 0.00731692
v -0.00609843 -0.02967936 0.00353418
v -0.01747530 -0.01787962 0.00353457
v -0.01182320 0.03937841 0.01787359
v -0.02872640 -0.01985980 0.01643136
v -0.02494724 -0.01966617 0.01088896
v -0.02718300 -0.00267408 0.00717174
v -0.02897887 -0.00452045 0.00915147
v -0.02503895 -0.01211601 0.00720413
v -0.02894930 0.01043924 0.01067304
v -0.02655346 0.02368294 0.01636200
v -0.01951151 0.01446096 0.00350940
v -0.02506805 0.01239188 0.00711522
v -0.00602437 0.02975362 0.00344740
v -0.01917800 0.02377996 0.00739382
v -0.00591377 0.03520886 0.00739894
v -0.01169472 -0.03884156 0.01613324
v -0.00030622 -0.03520242 0.00529701
v -0.00586574 0.04081651 0.01441951
v -0.00436148 -0.02611066 0.00141852
v -0.00786029 -0.03132587 0.00536525
v -0.00225639 -0.03157866 0.00334925
v -0.01948233 -0.01416657 0.00352485
f 11 6 3
f 13 1 2
f 16 8 2
f 16 2 1
f 17 8 16
f 19 5 9
f 20 6 11
f 23 13 2
f 24 13 7
f 24 7 14
f 24 1 13
f 25 14 7
f 27 11 3
f 29 9 5
f 29 5 17
f 33 4 6
f 33 6 20
f 34 20 11
f 34 11 10
f 35 21 6
f 35 6 4
f 37 6 21
f 37 14 25
f 37 25 3
f 37 3 6
f 38 8 17
f 38 22 23
f 38 23 2
f 38 2 8
f 39 23 22
f 39 7 13
f 39 13 23
f 40 16 1
f 40 1 24
f 41 24 14
f 41 14 37
f 42 30 15
f 42 22 30
f 42 39 22
f 44 15 26
f 44 27 43
f 45 17 16
f 45 36 28
f 45 12 36
f 45 29 17
f 45 28 29
f 46 17 5
f 46 5 31
f 47 26 15
f 47 15 30
f 47 30 46
f 47 46 31
f 48 34 10
f 48 19 34
f 49 31 5
f 49 5 19
f 49 19 48
f 50 47 31
f 50 26 47
f 50 31 49
f 50 49 48
f 50 48 10
f 51 19 9
f 51 9 32
f 52 32 9
f 52 9 29
f 52 29 28
f 53 33 20
f 53 20 34
f 54 34 19
f 54 53 34
f 54 18 53
f 54 19 51
f 54 51 32
f 54 32 18
f 55 35 4
f 55 21 35
f 55 4 33
f 56 18 32
f 56 32 52
f 56 52 28
f 56 28 36
f 56 53 18
f 56 33 53
f 56 55 33
f 56 36 55
f 57 37 21
f 57 41 37
f 57 12 41
f 57 21 55
f 57 55 36
f 57 36 12
f 58 30 22
f 58 22 38
f 58 38 17
f 58 46 30
f 58 17 46
f 59 25 7
f 59 7 39
f 59 39 42
f 60 40 24
f 60 24 41
f 60 41 12
f 60 12 45
f 60 45 16
f 60 16 40
f 61 43 27
f 61 27 3
f 62 42 15
f 62 44 43
f 62 15 44
f 63 3 25
f 63 25 59
f 63 62 43
f 63 59 42
f 63 42 62
f 63 61 3
f 63 43 61
f 64 10 11
f 64 11 27
f 64 27 44
f 64 50 10
f 64 44 26
f 64 26 50

