# https://github.com/mikedh/trimesh
v 0.03495894 -0.01882995 0.06080326
v 0.05346174 -0.01807380 0.03871281
v 0.03789815 -0.01820222 0.05931970
v 0.03511897 -0.01893843 0.00102907
v 0.03420672 -0.04159134 0.03490653
v 0.04550379 -0.01808471 0.00680535
v 0.03423675 -0.02224922 0.05976521
v 0.04545713 -0.01804330 0.05354135
v 0.04008262 -0.01833026 0.00292257
v 0.04875461 -0.02725656 0.01987163
v 0.03421665 -0.03164355 0.00662239
v 0.03760999 -0.01983736 0.05881873
v 0.05169473 -0.01802100 0.04454621
v 0.03558276 -0.03507520 0.04944099
v 0.05358057 -0.01823178 0.01953544
v 0.04688053 -0.03121346 0.03086047
v 0.03452404 -0.02437765 0.00252762
v 0.03408362 -0.03924328 0.01590376
v 0.04128382 -0.02549227 0.00726529
v 0.04305501 -0.01975192 0.05490588
v 0.04733572 -0.01807611 0.00869165
v 0.03419936 -0.03556991 0.05010440
v 0.04286771 -0.02919668 0.04777109
v 0.04881986 -0.02730957 0.03650838
v 0.05272607 -0.02179164 0.02344294
v 0.04117525 -0.03685464 0.02340986
v 0.04145114 -0.02187848 0.00528581
v 0.03927499 -0.03474894 0.01439408
v 0.03613995 -0.02400013 0.00310425
v 0.04357521 -0.01810362 0.05522656
v 0.03940980 -0.02167979 0.05679926
v 0.04876175 -0.02170034 0.01279115
v 0.04508409 -0.02546633 0.01092306
v 0.03423885 -0.03956419 0.04261637
v 0.03417109 -0.02979096 0.05547096
v 0.04682083 -0.02163263 0.04955515
v 0.05064461 -0.02157594 0.04215454
v 0.04693378 -0.03125335 0.02532655
v 0.05289141 -0.01987174 0.01976413
v 0.05076122 -0.02543710 0.03280276
v 0.05282658 -0.02178015 0.03277407
v 0.04123760 -0.03692793 0.03284656
v 0.03424585 -0.04157251 0.02332766
v 0.04508728 -0.01981485 0.00727079
v 0.03414494 -0.03547822 0.01036815
v 0.03557313 -0.03120545 0.00717759
v 0.03930132 -0.03677982 0.01819609
v 0.03974964 -0.02007080 0.00336213
v 0.03577882 -0.02187733 0.05900422
v 0.05131589 -0.01818840 0.01416827
v 0.04688286 -0.01976638 0.00909873
v 0.04863495 -0.02533083 0.01632514
v 0.03748376 -0.03679338 0.04412689
v 0.03557014 -0.02929298 0.05492647
v 0.04961314 -0.01813722 0.04817766
v 0.04301774 -0.02545192 0.05136878
v 0.05062887 -0.02353918 0.03852075
v 0.05270721 -0.01973863 0.03850812
v 0.04489337 -0.02928275 0.04409444
v 0.05074490 -0.02538569 0.02351014
v 0.04512963 -0.03302232 0.02345514
v 0.04308758 -0.03491292 0.03469812
v 0.03572827 -0.04070240 0.02347262
v 0.03562877 -0.03494829 0.01091198
f 1 3 4
f 7 1 4
f 8 6 3
f 9 4 3
f 9 3 6
f 12 3 1
f 12 1 7
f 13 6 8
f 17 11 7
f 17 7 4
f 17 4 9
f 21 13 2
f 21 6 13
f 21 2 15
f 22 18 5
f 27 9 6
f 29 11 17
f 29 27 19
f 29 17 9
f 30 20 8
f 30 8 3
f 31 3 12
f 31 30 3
f 31 20 30
f 34 22 5
f 35 7 18
f 35 18 22
f 39 15 25
f 40 24 16
f 40 16 38
f 41 25 15
f 41 15 2
f 42 38 16
f 43 5 18
f 44 27 6
f 44 19 27
f 44 33 19
f 45 18 7
f 45 7 11
f 46 19 33
f 46 29 19
f 46 11 29
f 47 18 28
f 47 43 18
f 47 28 10
f 48 29 9
f 48 9 27
f 48 27 29
f 49 31 12
f 49 12 7
f 50 32 21
f 50 21 15
f 50 15 39
f 51 21 32
f 51 32 33
f 51 33 44
f 51 44 6
f 51 6 21
f 52 33 32
f 52 10 28
f 52 28 33
f 52 39 10
f 52 50 39
f 52 32 50
f 53 14 22
f 53 22 34
f 53 23 14
f 53 34 5
f 53 5 42
f 54 35 22
f 54 22 14
f 54 31 49
f 54 49 7
f 54 7 35
f 55 36 13
f 55 13 8
f 55 8 36
f 56 36 8
f 56 8 20
f 56 23 36
f 56 20 31
f 56 31 54
f 56 54 14
f 56 14 23
f 57 24 40
f 57 40 41
f 58 2 13
f 58 13 37
f 58 37 57
f 58 57 41
f 58 41 2
f 59 57 37
f 59 24 57
f 59 23 53
f 59 36 23
f 59 37 13
f 59 13 36
f 60 38 10
f 60 40 38
f 60 41 40
f 60 25 41
f 60 39 25
f 60 10 39
f 61 10 38
f 61 47 10
f 61 26 47
f 61 42 26
f 61 38 42
f 62 42 16
f 62 16 24
f 62 24 59
f 62 59 53
f 62 53 42
f 63 42 5
f 63 5 43
f 63 26 42
f 63 47 26
f 63 43 47
f 64 28 18
f 64 18 45
f 64 45 11
f 64 11 46
f 64 46 33
f 64 33 28

