# https://github.com/mikedh/trimesh
v -0.01301365 -0.02092678 0.05915865
v -0.01205075 -0.03740218 0.04635332
v -0.01231710 -0.02427691 0.05789770
v -0.01259424 -0.02054684 0.00208766
v -0.02925783 -0.02004486 0.01778688
v -0.01205745 -0.02979670 0.00656878
v -0.01964245 -0.02001968 0.05523800
v -0.01219387 -0.02801446 0.05575885
v -0.01235453 -0.02233867 0.00266093
v -0.01350934 -0.04070416 0.02540562
v -0.01604796 -0.02021451 0.05761002
v -0.01785049 -0.02009754 0.00473430
v -0.02873482 -0.02362592 0.03857670
v -0.01900988 -0.02913397 0.04933016
v -0.01384743 -0.02398799 0.05718455
v -0.01207157 -0.03945046 0.01784013
v -0.02730556 -0.01995684 0.01417997
v -0.01420218 -0.02030660 0.00270914
v -0.01393229 -0.02206559 0.00326669
v -0.02937178 -0.02007203 0.04248808
v -0.01899585 -0.03471144 0.04039035
v -0.02684039 -0.02738911 0.02350787
v -0.01900564 -0.02714710 0.05120880
v -0.01526660 -0.03110507 0.05113215
v -0.01568961 -0.02196773 0.05703510
v -0.01197956 -0.03747633 0.01414651
v -0.01214833 -0.04154633 0.03295333
v -0.02096951 -0.02361716 0.00921316
v -0.01728637 -0.02553937 0.00724384
v -0.02878074 -0.02538992 0.02726987
v -0.02533840 -0.01997330 0.04980061
v -0.02472514 -0.02527322 0.04571674
v -0.01707353 -0.03479520 0.04400287
v -0.01707126 -0.03672934 0.02010091
v -0.02266230 -0.02910437 0.01639433
v -0.01917975 -0.02157861 0.05479348
v -0.01235695 -0.03020414 0.05411279
v -0.01221114 -0.04143918 0.02528723
v -0.01542820 -0.03876057 0.03668815
v -0.01202519 -0.03924581 0.04246042
v -0.01748866 -0.02180973 0.00533373
v -0.01360978 -0.02936410 0.00725297
v -0.02875325 -0.02540699 0.03297098
v -0.02878496 -0.02367160 0.02173931
v -0.02863517 -0.02163615 0.04224164
v -0.02473406 -0.02148488 0.04945068
v -0.02284619 -0.03089582 0.04037343
v -0.01524746 -0.03284963 0.04927485
v -0.01533873 -0.03871125 0.02177842
v -0.01351915 -0.03864679 0.01808185
v -0.02664518 -0.02345792 0.01644591
v -0.02283471 -0.03097517 0.01997902
v -0.01711869 -0.03478961 0.01632692
v -0.01365179 -0.02758638 0.05516440
v -0.01349122 -0.04071771 0.03284716
v -0.01351828 -0.03847366 0.04222749
v -0.02685063 -0.02740967 0.03653271
v -0.02287012 -0.02892864 0.04395503
v -0.01351590 -0.03670939 0.04589831
v -0.02274359 -0.02351165 0.01101002
v -0.02861815 -0.02150541 0.01812789
v -0.01331872 -0.03677725 0.01454183
v -0.02667261 -0.02151131 0.01457950
f 1 3 4
f 8 6 3
f 8 2 6
f 9 4 3
f 9 3 6
f 11 1 4
f 12 7 11
f 15 8 3
f 15 3 1
f 17 7 12
f 18 4 9
f 18 12 11
f 18 11 4
f 19 9 6
f 19 18 9
f 19 12 18
f 20 17 5
f 24 23 14
f 25 11 7
f 25 15 1
f 25 1 11
f 26 6 2
f 27 16 26
f 28 17 12
f 29 19 6
f 30 20 5
f 31 7 17
f 31 17 20
f 35 28 29
f 36 7 31
f 36 25 7
f 36 15 25
f 37 2 8
f 38 27 10
f 38 16 27
f 40 27 26
f 40 26 2
f 41 12 19
f 41 19 29
f 41 29 28
f 41 28 12
f 42 29 6
f 42 6 26
f 42 35 29
f 43 13 20
f 43 20 30
f 44 30 5
f 44 22 30
f 45 32 20
f 45 20 13
f 45 13 32
f 46 31 20
f 46 20 32
f 46 36 31
f 46 23 36
f 46 32 14
f 46 14 23
f 47 21 33
f 47 39 21
f 48 24 14
f 48 14 33
f 48 37 24
f 48 2 37
f 49 10 22
f 49 38 10
f 49 16 38
f 50 26 16
f 50 49 34
f 50 16 49
f 51 5 17
f 51 35 44
f 52 44 35
f 52 22 44
f 52 49 22
f 52 34 49
f 53 52 35
f 53 34 52
f 53 50 34
f 53 35 42
f 54 36 23
f 54 8 15
f 54 15 36
f 54 37 8
f 54 23 24
f 54 24 37
f 55 10 27
f 55 27 39
f 56 39 27
f 56 27 40
f 56 21 39
f 56 33 21
f 56 40 2
f 57 43 30
f 57 30 22
f 57 39 47
f 57 13 43
f 57 55 39
f 57 22 10
f 57 10 55
f 58 32 13
f 58 57 47
f 58 13 57
f 58 14 32
f 58 47 33
f 58 33 14
f 59 48 33
f 59 2 48
f 59 56 2
f 59 33 56
f 60 17 28
f 60 28 35
f 60 35 51
f 61 51 44
f 61 44 5
f 61 5 51
f 62 26 50
f 62 50 53
f 62 53 42
f 62 42 26
f 63 60 51
f 63 51 17
f 63 17 60

