# https://github.com/mikedh/trimesh
v 0.03080334 0.02291793 0.06109118
v 0.03561507 0.00931912 0.06086232
v 0.03431202 0.03985035 0.01769926
v 0.01874117 0.04558062 0.01774264
v 0.00016911 0.02031331 0.05655197
v 0.02788787 0.04069555 0.04783443
v 0.00073648 0.02570829 0.06080845
v 0.03361587 0.00927396 0.01592387
v 0.02811695 0.04486381 0.03287547
v 0.03353301 0.03495528 0.05123510
v 0.03101525 0.02110637 0.06121124
v 0.01861469 0.03352644 0.05894319
v 0.00160264 0.04491446 0.04230731
v 0.03527788 0.00919102 0.01677649
v 0.02960192 0.01012577 0.05605351
v 0.00077833 0.03605471 0.03323996
v 0.01920908 0.02567856 0.01601285
v 0.02805471 0.04477825 0.02535758
v 0.03380819 0.02405668 0.05915505
v 0.03362541 0.04080204 0.04035209
v 0.02090406 0.02882259 0.06115439
v 0.02234351 0.03723567 0.05490496
v 0.00119619 0.04660685 0.03306756
v 0.01492586 0.04695262 0.03864450
v 0.00171275 0.03714555 0.05512852
v 0.02956775 0.01014552 0.05442634
v 0.00021438 0.02041838 0.05408279
v 0.02828885 0.04296308 0.01785801
v 0.03381519 0.02777869 0.05693965
v 0.02623509 0.04471028 0.03858997
v 0.03169031 0.03879193 0.04763104
v 0.03190944 0.04281332 0.02361447
v 0.02874018 0.02477267 0.06107191
v 0.00540214 0.03356567 0.05899349
v 0.02613410 0.03896359 0.05142185
v 0.00170028 0.04269270 0.04780612
v 0.00915202 0.04699525 0.03866951
v 0.01879310 0.04729503 0.02526977
v 0.02621579 0.04478447 0.02165987
v 0.03357133 0.03319042 0.05306087
v 0.03176141 0.04277655 0.03664393
v 0.02992247 0.04280141 0.04035856
v 0.01873843 0.04493540 0.04426816
v 0.02060040 0.04701530 0.03294775
v 0.03378567 0.04091800 0.01982868
v 0.02803684 0.02955032 0.05873424
v 0.00156210 0.03188441 0.05930161
v 0.00915350 0.04286120 0.04989735
v 0.00169537 0.03897312 0.05327121
v 0.00537981 0.04693332 0.03675047
v 0.00333905 0.04706368 0.03299194
v 0.02250489 0.04484354 0.01795679
v 0.02991835 0.04286825 0.01972002
v 0.02054242 0.04700492 0.02531451
v 0.02610142 0.03340696 0.05678378
v 0.02241428 0.04494948 0.04226497
v 0.02989446 0.04074967 0.04587871
v 0.02240450 0.04265971 0.04788712
v 0.03176478 0.02966779 0.05687238
v 0.02424756 0.03160162 0.05878875
v 0.01487627 0.04285295 0.04976833
v 0.00352531 0.04469445 0.04413185
v 0.00359598 0.04087639 0.05147955
v 0.00336529 0.04687971 0.03484187
f 7 5 2
f 11 7 2
f 11 2 1
f 14 8 3
f 14 3 2
f 14 2 8
f 15 8 2
f 15 2 5
f 17 4 3
f 17 3 8
f 19 1 2
f 20 10 2
f 20 2 3
f 21 7 11
f 23 5 7
f 23 16 5
f 23 17 16
f 23 4 17
f 26 15 5
f 26 5 8
f 26 8 15
f 27 17 8
f 27 8 5
f 27 5 16
f 27 16 17
f 28 3 4
f 29 19 2
f 31 10 20
f 32 18 9
f 33 21 11
f 33 11 1
f 33 1 19
f 34 21 12
f 35 31 6
f 35 10 31
f 36 23 7
f 36 13 23
f 38 37 24
f 40 29 2
f 40 2 10
f 40 10 35
f 41 9 30
f 41 32 9
f 41 20 32
f 42 41 30
f 42 20 41
f 43 24 37
f 44 30 9
f 44 38 24
f 45 32 20
f 45 20 3
f 46 33 19
f 47 7 21
f 47 21 34
f 47 34 25
f 47 25 7
f 48 34 12
f 48 25 34
f 48 43 37
f 49 36 7
f 49 7 25
f 49 25 48
f 50 13 37
f 51 38 4
f 51 4 23
f 51 50 37
f 51 37 38
f 52 39 28
f 52 28 4
f 53 28 39
f 53 32 45
f 53 45 3
f 53 3 28
f 53 39 18
f 53 18 32
f 54 18 39
f 54 38 44
f 54 44 9
f 54 9 18
f 54 39 52
f 54 52 4
f 54 4 38
f 55 40 35
f 55 35 22
f 56 42 30
f 56 24 43
f 56 44 24
f 56 30 44
f 57 31 20
f 57 20 42
f 57 6 31
f 57 56 6
f 57 42 56
f 58 35 6
f 58 56 43
f 58 6 56
f 58 22 35
f 59 46 19
f 59 19 29
f 59 29 40
f 59 55 46
f 59 40 55
f 60 12 21
f 60 21 33
f 60 33 46
f 60 46 55
f 60 55 22
f 60 22 12
f 61 48 12
f 61 12 22
f 61 22 58
f 61 58 43
f 61 43 48
f 62 48 37
f 62 37 13
f 62 13 36
f 62 36 48
f 63 49 48
f 63 48 36
f 63 36 49
f 64 23 13
f 64 13 50
f 64 51 23
f 64 50 51

