# https://github.com/mikedh/trimesh
v 0.01880611 0.04731988 0.03300269
v 0.01937876 0.03656491 0.03330709
v 0.01900057 0.02696864 0.00032455
v 0.00119274 0.02681782 0.00063879
v 0.00077833 0.03605471 0.03323996
v 0.00355702 0.04274678 0.01246054
v 0.01867340 0.04492601 0.01616344
v 0.00119619 0.04660685 0.03306756
v 0.01938685 0.02822459 0.01738511
v 0.00916834 0.03924697 0.00705271
v 0.01872366 0.04706784 0.02347378
v 0.00165654 0.04110970 0.01072274
v 0.00073692 0.02790584 0.01780292
v 0.00336217 0.03025938 0.00147341
v 0.01872331 0.03381276 0.00318607
v 0.01864945 0.04302883 0.01256515
v 0.00342870 0.04702364 0.02536404
v 0.00154164 0.04497554 0.01800484
v 0.00152485 0.03561595 0.00505927
v 0.00341381 0.03377687 0.00334970
v 0.01883235 0.03025153 0.00127924
v 0.00539668 0.04490725 0.01615945
v 0.01480746 0.03923812 0.00710992
v 0.00333905 0.04706368 0.03299194
v 0.00731758 0.04697798 0.02165288
v 0.00127361 0.02855519 0.00112119
v 0.01677802 0.04697511 0.02152871
f 8 5 2
f 8 2 1
f 9 7 2
f 9 3 7
f 11 1 2
f 11 2 7
f 12 6 10
f 13 5 8
f 13 4 3
f 13 3 9
f 13 9 2
f 13 2 5
f 14 3 4
f 16 10 6
f 16 7 3
f 16 3 15
f 18 8 17
f 18 6 12
f 18 13 8
f 18 4 13
f 19 12 10
f 19 18 12
f 20 10 15
f 20 19 10
f 21 15 3
f 21 3 14
f 21 20 15
f 21 14 20
f 22 16 6
f 22 7 16
f 22 6 18
f 23 16 15
f 23 15 10
f 23 10 16
f 24 17 8
f 24 8 1
f 24 1 17
f 25 17 1
f 25 1 11
f 25 22 18
f 25 18 17
f 26 14 4
f 26 4 18
f 26 18 19
f 26 20 14
f 26 19 20
f 27 25 11
f 27 11 7
f 27 7 22
f 27 22 25

