# https://github.com/mikedh/trimesh
v -0.01373917 0.02573280 0.03319130
v -0.00518127 -0.02111735 0.01663674
v -0.00103882 0.02527493 0.01693341
v -0.02708763 0.02406218 0.01793318
v -0.03121108 -0.02100439 0.03313438
v -0.00120678 0.02354192 0.01620101
v -0.00145936 0.02603726 0.01741832
v -0.01606728 -0.02155866 0.03328164
v -0.02935124 0.02412155 0.03298318
v -0.02925783 -0.02004486 0.01778688
v -0.00586812 -0.02174281 0.01714541
v -0.01470466 0.02432701 0.03328587
v -0.02849028 0.02174063 0.01814535
v -0.02859113 0.02374357 0.02176559
f 6 3 2
f 6 4 3
f 7 1 3
f 7 3 4
f 7 4 1
f 8 2 3
f 8 3 1
f 9 1 4
f 10 6 2
f 10 4 6
f 11 8 5
f 11 2 8
f 11 10 2
f 11 5 10
f 12 8 1
f 12 5 8
f 12 9 5
f 12 1 9
f 13 4 10
f 13 10 5
f 13 5 9
f 14 13 9
f 14 9 4
f 14 4 13

