# https://github.com/mikedh/trimesh
v 0.00073648 0.02570829 0.06080845
v -0.01606728 -0.02155866 0.03328164
v -0.02935124 0.02412155 0.03298318
v -0.03142360 0.00403160 0.06174625
v -0.01373917 0.02573280 0.03319130
v -0.01726026 0.02380283 0.05485950
v -0.03121108 -0.02100439 0.03313438
v -0.01226157 -0.02031577 0.05990082
v 0.00050414 0.02620471 0.05075235
v -0.00999520 0.02418953 0.05929380
v -0.02654062 0.02368290 0.04397293
v -0.03142833 -0.00606278 0.06191048
v -0.01471397 -0.02204467 0.03761690
v -0.00763567 -0.00916970 0.05651723
v -0.02464525 0.02361885 0.04744039
v -0.02859080 0.02366180 0.03849216
v -0.02703111 -0.01979094 0.04767513
v -0.00002021 0.02081965 0.05366094
v -0.03126337 0.00557101 0.06004453
v -0.02881654 -0.01981869 0.04416817
v -0.01756013 -0.01986136 0.05681778
v -0.00819796 -0.00946704 0.05323782
v -0.02848668 0.02174567 0.04225765
v -0.03104630 -0.00866924 0.05856194
f 5 2 3
f 5 3 1
f 7 4 3
f 7 3 2
f 9 5 1
f 9 2 5
f 10 6 4
f 10 4 1
f 10 1 6
f 11 1 3
f 12 8 1
f 12 1 4
f 12 4 7
f 13 8 7
f 13 7 2
f 13 2 9
f 14 1 8
f 14 8 13
f 15 6 1
f 15 1 11
f 15 4 6
f 16 11 3
f 17 7 8
f 18 9 1
f 18 1 14
f 18 13 9
f 19 15 11
f 19 4 15
f 19 16 3
f 19 3 4
f 20 7 17
f 21 17 8
f 21 8 12
f 21 12 17
f 22 18 14
f 22 14 13
f 22 13 18
f 23 19 11
f 23 11 16
f 23 16 19
f 24 20 17
f 24 17 12
f 24 12 7
f 24 7 20

