# https://github.com/mikedh/trimesh
v -0.01318293 -0.00895379 0.06087953
v 0.00154493 -0.03146473 0.05921205
v -0.00019923 -0.01829018 0.05607722
v -0.00336094 -0.02133116 0.01605192
v -0.01159202 -0.04058159 0.01990825
v 0.00089923 -0.02524270 0.01645171
v -0.00684137 -0.00994872 0.05433233
v 0.00006886 -0.02473376 0.06055136
v -0.01162082 -0.03683117 0.04766317
v -0.01119999 -0.01983744 0.01952991
v -0.00008366 -0.01838918 0.05428000
v 0.00137877 -0.04506502 0.01777526
v -0.00685092 -0.01000627 0.05619340
v -0.01161427 -0.02361104 0.05863685
v -0.01381408 -0.00913157 0.04995168
v -0.01207157 -0.03945046 0.01784013
v -0.00416567 -0.04456492 0.03665610
v -0.00819796 -0.00946704 0.05323782
v -0.00407250 -0.02935504 0.05885907
v -0.01169534 -0.02945043 0.05507753
v -0.01180035 -0.04070390 0.03850385
v -0.00602326 -0.04273770 0.01800899
v 0.00139112 -0.04519568 0.04066544
v -0.00966055 -0.02553967 0.05862107
v -0.00772248 -0.03494249 0.05294964
v -0.01166240 -0.03876338 0.04415131
v -0.00976529 -0.04261437 0.03467809
v -0.00980645 -0.04084248 0.01793373
v -0.00399580 -0.04452313 0.02163906
v -0.00605328 -0.03126545 0.05674357
v 0.00141982 -0.04110086 0.04983669
v -0.00974586 -0.03670934 0.04949145
v -0.00589730 -0.04246078 0.04224703
v -0.00971263 -0.04248674 0.02346950
v -0.00782853 -0.04257973 0.01987856
v -0.00033515 -0.04476583 0.01795796
v -0.00967079 -0.03124223 0.05496058
v -0.00217210 -0.03320759 0.05678124
v -0.00588873 -0.03871427 0.04954112
v -0.00969120 -0.04065903 0.04223528
v -0.00043436 -0.04484924 0.04053095
v -0.00029826 -0.03127081 0.05883078
v -0.00214201 -0.03878737 0.05144082
v -0.00413284 -0.04057993 0.04782118
v 0.00138405 -0.04312776 0.04625694
v -0.00027257 -0.04075220 0.04966232
v -0.00402642 -0.04246835 0.04413730
v -0.00028815 -0.04279084 0.04606382
f 7 6 4
f 8 2 3
f 11 3 2
f 11 2 6
f 11 7 3
f 11 6 7
f 12 4 6
f 12 6 2
f 13 3 7
f 13 8 3
f 13 1 8
f 14 8 1
f 15 9 1
f 15 4 10
f 16 10 4
f 16 15 10
f 16 4 12
f 18 13 7
f 18 1 13
f 18 15 1
f 18 7 4
f 18 4 15
f 19 2 8
f 20 14 1
f 20 1 9
f 21 16 5
f 21 15 16
f 23 12 2
f 24 19 8
f 24 8 14
f 24 14 20
f 26 9 15
f 26 15 21
f 28 16 12
f 28 12 22
f 28 5 16
f 29 17 27
f 29 23 17
f 29 12 23
f 30 19 24
f 31 23 2
f 32 25 20
f 32 20 9
f 33 27 17
f 33 21 27
f 34 27 21
f 34 21 5
f 34 29 27
f 35 28 22
f 35 5 28
f 35 34 5
f 35 22 29
f 35 29 34
f 36 29 22
f 36 22 12
f 36 12 29
f 37 30 24
f 37 24 20
f 37 20 25
f 37 25 30
f 38 30 25
f 38 19 30
f 39 25 32
f 39 32 9
f 40 26 21
f 40 21 33
f 41 33 17
f 41 17 23
f 42 38 2
f 42 2 19
f 42 19 38
f 43 31 2
f 43 2 38
f 43 38 25
f 43 25 39
f 44 39 9
f 44 9 26
f 45 41 23
f 45 23 31
f 46 43 39
f 46 39 44
f 46 31 43
f 46 45 31
f 47 40 33
f 47 33 41
f 47 44 26
f 47 26 40
f 48 46 44
f 48 45 46
f 48 44 47
f 48 47 41
f 48 41 45

