# https://github.com/mikedh/trimesh
v 0.03206505 0.04119433 0.01795493
v 0.03443994 -0.03985204 0.01762140
v 0.03433348 0.02050231 0.00133557
v 0.00119274 0.02681782 0.00063879
v 0.00137877 -0.04506502 0.01777526
v 0.02061566 0.03368289 0.00341111
v 0.03630064 -0.02178267 0.02215744
v 0.00073692 0.02790584 0.01780292
v 0.02268922 -0.02985746 0.00150471
v 0.03191555 0.03335944 0.00713909
v 0.01883235 0.03025153 0.00127924
v 0.01906311 0.04525390 0.01707523
v 0.03440648 -0.02229958 0.00167481
v 0.03431202 0.03985035 0.01769926
v 0.03559961 -0.02330895 0.02272979
v 0.00127920 -0.02829764 0.00105860
v 0.01671385 -0.04081314 0.00898433
v 0.03201325 0.02789595 0.00341803
v 0.01872331 0.03381276 0.00318607
v 0.02247547 0.04098084 0.01081193
v 0.02648250 0.04353110 0.01766211
v 0.02995377 -0.03502651 0.00723722
v 0.03383518 0.02958807 0.00531396
v 0.02077032 -0.04531117 0.01768314
v 0.00043254 0.02624581 0.01700017
v 0.02654827 -0.02787788 0.00145730
v 0.00923459 -0.03714383 0.00514740
v 0.02630376 0.03158908 0.00341493
v 0.02073025 0.03018204 0.00147180
v 0.01874523 0.04148687 0.01037332
v 0.03187454 0.03705196 0.01090017
v 0.02425760 0.04274550 0.01435308
v 0.03397649 -0.02959337 0.00501254
v 0.02446128 -0.03528825 0.00534536
v 0.03404582 0.02601363 0.00333410
v 0.02824606 -0.04299387 0.01785643
v 0.00920083 -0.04460912 0.01422365
v 0.00327128 -0.03006040 0.00141890
v 0.02811442 0.03344018 0.00539760
v 0.02844890 0.02633281 0.00150683
v 0.01882356 0.04375660 0.01388510
v 0.02433425 0.03718304 0.00722211
v 0.03374713 0.03719769 0.01254326
v 0.02631144 0.04293247 0.01607636
v 0.02806323 0.03897253 0.01083530
v 0.03375123 -0.03864409 0.01441487
v 0.03026766 -0.02968882 0.00331406
v 0.02433295 -0.04057455 0.01084684
v 0.01674880 -0.03708987 0.00518384
v 0.03218143 -0.04117188 0.01784240
v 0.01482105 -0.04463842 0.01429746
v 0.00919186 -0.04085744 0.00888042
v 0.00165798 -0.04253168 0.01263132
v 0.02428022 0.03901604 0.00909388
v 0.02982076 0.04064672 0.01441758
v 0.03170794 0.04063952 0.01624271
v 0.02999546 -0.03680886 0.00907894
v 0.03237805 -0.02414858 0.00162804
v 0.03195490 -0.03137237 0.00519616
v 0.02642164 -0.03166020 0.00328591
v 0.02808064 -0.04044658 0.01265506
v 0.02057532 -0.03379169 0.00338289
v 0.03187366 -0.04063300 0.01620345
v 0.02060028 -0.04276547 0.01253667
f 11 3 4
f 12 4 8
f 13 7 2
f 13 3 7
f 14 7 3
f 15 2 7
f 15 8 5
f 15 14 1
f 15 7 14
f 19 11 4
f 21 12 8
f 21 15 1
f 21 8 15
f 24 15 5
f 25 8 4
f 25 4 16
f 25 16 5
f 25 5 8
f 26 16 4
f 26 4 3
f 26 3 13
f 26 9 16
f 29 19 6
f 29 11 19
f 29 6 28
f 30 19 4
f 33 13 2
f 35 23 14
f 35 14 3
f 35 18 23
f 36 15 24
f 37 24 5
f 38 16 9
f 39 23 18
f 39 18 28
f 39 10 23
f 40 3 11
f 40 11 29
f 40 35 3
f 40 18 35
f 40 29 28
f 40 28 18
f 41 30 4
f 41 4 12
f 41 12 32
f 41 32 20
f 41 20 30
f 42 6 19
f 42 19 30
f 42 10 39
f 42 39 28
f 42 28 6
f 43 23 10
f 43 10 31
f 43 14 23
f 44 32 12
f 44 12 21
f 45 20 32
f 45 31 10
f 45 10 42
f 46 33 2
f 47 13 33
f 48 17 34
f 49 34 17
f 50 2 15
f 50 15 36
f 51 24 37
f 52 51 37
f 52 17 51
f 52 49 17
f 52 27 49
f 53 5 16
f 53 16 38
f 53 38 27
f 53 27 52
f 53 52 37
f 53 37 5
f 54 42 30
f 54 30 20
f 54 45 42
f 54 20 45
f 55 43 31
f 55 31 45
f 55 45 32
f 55 32 44
f 56 44 21
f 56 21 1
f 56 55 44
f 56 1 14
f 56 14 43
f 56 43 55
f 57 22 33
f 57 33 46
f 57 48 34
f 57 34 22
f 58 47 26
f 58 26 13
f 58 13 47
f 59 47 33
f 59 33 22
f 60 9 26
f 60 26 47
f 60 47 59
f 60 59 22
f 60 22 34
f 61 36 24
f 61 57 46
f 61 48 57
f 62 38 9
f 62 9 60
f 62 60 34
f 62 34 49
f 62 49 27
f 62 27 38
f 63 46 2
f 63 2 50
f 63 61 46
f 63 50 36
f 63 36 61
f 64 24 51
f 64 61 24
f 64 48 61
f 64 51 17
f 64 17 48

