# https://github.com/mikedh/trimesh
v 0.03496450 0.02306845 0.05895955
v 0.05243113 0.02282332 0.03304417
v 0.03427584 0.04178194 0.02531288
v 0.03465638 0.02279158 0.00218751
v 0.03793926 0.02228185 0.05739470
v 0.04689228 0.02746949 0.01621111
v 0.03416632 0.02630761 0.05764191
v 0.05152117 0.02234482 0.01955402
v 0.04497466 0.03322171 0.02535247
v 0.03424856 0.03787891 0.01396270
v 0.03563911 0.02593602 0.05693015
v 0.03995786 0.02228953 0.00472291
v 0.04765086 0.02224237 0.04808651
v 0.04889046 0.02758036 0.02157636
v 0.03918431 0.03712393 0.01995516
v 0.03403861 0.03568287 0.04993457
v 0.03425059 0.02819438 0.00463178
v 0.03751792 0.02389422 0.05681366
v 0.03628501 0.02252893 0.00280086
v 0.04776090 0.02246588 0.01212908
v 0.05079182 0.02385539 0.01973927
v 0.05090676 0.02568025 0.02529377
v 0.03917716 0.03307988 0.01274722
v 0.04703984 0.02935753 0.01984485
v 0.03431202 0.03985035 0.01769926
v 0.03757781 0.03898624 0.02159514
v 0.03421704 0.04170962 0.03490490
v 0.03414169 0.03201448 0.05374087
v 0.03436351 0.02444496 0.00274631
v 0.04116532 0.02567456 0.05303744
v 0.03600315 0.02413145 0.00333872
v 0.04710220 0.02396383 0.01251441
v 0.04495020 0.03335691 0.03283901
v 0.03738531 0.03700458 0.01637073
v 0.03748090 0.03129030 0.00913942
v 0.04322024 0.03516398 0.02724170
v 0.03561220 0.03912447 0.01800277
v 0.04286654 0.02939360 0.04768684
v 0.03559560 0.03145389 0.05317966
v 0.03577401 0.02779898 0.00523890
v 0.04301046 0.02929828 0.01264591
v 0.04305861 0.02550434 0.00913927
v 0.05084247 0.02566864 0.03289994
v 0.03560579 0.03712275 0.01427113
v 0.03570133 0.04094561 0.02543079
v 0.04314003 0.03514516 0.03282904
v 0.04308705 0.02559667 0.05121560
v 0.03909673 0.03693978 0.04038436
v 0.03728719 0.03487271 0.04769793
v 0.03954457 0.02390265 0.00530888
v 0.03735131 0.03315624 0.01094280
v 0.04320297 0.03324585 0.04038027
v 0.04692180 0.02376494 0.04770631
v 0.03565875 0.04086197 0.03474969
v 0.03415131 0.03972681 0.04254231
v 0.03548557 0.03502675 0.04946205
v 0.03724876 0.03694677 0.04396877
v 0.03744834 0.03885206 0.03850988
v 0.03560605 0.03892173 0.04221537
f 5 1 4
f 7 4 1
f 11 7 1
f 13 8 2
f 13 12 8
f 13 5 12
f 17 16 10
f 17 7 16
f 18 11 1
f 18 1 5
f 19 12 5
f 19 5 4
f 20 8 12
f 21 8 20
f 22 14 9
f 22 21 14
f 22 2 8
f 22 8 21
f 24 21 6
f 24 14 21
f 24 15 9
f 24 9 14
f 25 10 3
f 26 9 15
f 26 25 3
f 27 3 10
f 27 10 16
f 28 16 7
f 29 4 7
f 29 7 17
f 30 18 5
f 30 5 13
f 30 11 18
f 31 12 19
f 31 29 17
f 31 19 4
f 31 4 29
f 32 21 20
f 32 6 21
f 33 22 9
f 34 24 6
f 34 15 24
f 35 17 10
f 36 9 26
f 36 33 9
f 37 26 15
f 37 25 26
f 37 15 34
f 39 11 30
f 39 28 7
f 39 7 11
f 39 16 28
f 40 31 17
f 40 17 35
f 41 6 32
f 41 34 6
f 41 23 34
f 42 32 20
f 42 20 12
f 42 41 32
f 42 35 41
f 42 40 35
f 43 2 22
f 43 22 33
f 44 34 23
f 44 37 34
f 44 10 25
f 44 25 37
f 45 36 26
f 45 26 3
f 45 3 27
f 46 33 36
f 47 30 13
f 47 39 30
f 47 38 39
f 50 12 31
f 50 31 40
f 50 42 12
f 50 40 42
f 51 41 35
f 51 23 41
f 51 44 23
f 51 35 10
f 51 10 44
f 52 43 33
f 52 33 46
f 52 46 48
f 52 49 38
f 53 13 2
f 53 2 43
f 53 43 52
f 53 52 38
f 53 47 13
f 53 38 47
f 54 45 27
f 54 46 36
f 54 36 45
f 55 27 16
f 55 16 49
f 56 39 38
f 56 38 49
f 56 49 16
f 56 16 39
f 57 52 48
f 57 49 52
f 57 55 49
f 58 48 46
f 58 46 54
f 58 54 27
f 58 27 55
f 59 57 48
f 59 48 58
f 59 58 55
f 59 55 57

