# https://github.com/mikedh/trimesh
v -0.03223726 0.00569580 0.05402663
v -0.03004497 -0.01846114 0.04272124
v -0.02990275 0.01668284 0.04466608
v -0.02998597 0.00489855 0.01013146
v -0.03626116 -0.00533261 0.01502187
v -0.02983053 0.01068095 0.01194863
v -0.03062033 0.00650067 0.05331267
v -0.03678972 -0.00467578 0.05399477
v -0.03031850 -0.02061590 0.02134784
v -0.03590349 0.00873443 0.01802140
v -0.03673058 0.00269371 0.05412993
v -0.03088483 -0.00847780 0.05328868
v -0.02993214 -0.00458817 0.01017385
v -0.03065512 -0.02168640 0.02543379
v -0.03022512 0.02272734 0.02715697
v -0.03614012 0.00410434 0.01380164
v -0.03422713 -0.00738533 0.05458424
v -0.03011276 -0.01255846 0.01368904
v -0.03571148 -0.00849808 0.01828283
v -0.03018215 -0.02245744 0.03493877
v -0.02985126 0.01667077 0.01571609
v -0.03006891 0.02070771 0.03889753
v -0.03069984 0.02201225 0.03092284
v -0.03621541 -0.00229088 0.01347511
v -0.03063324 -0.02169171 0.03473711
v -0.03074063 -0.01998429 0.02180717
v -0.03020772 -0.02249322 0.02521713
v -0.03020648 0.02072232 0.02133100
v -0.03068283 0.02189132 0.02725870
v -0.03265419 0.01613518 0.03657979
v -0.03029355 0.02272972 0.03106550
v -0.03273095 -0.01606542 0.03664634
f 6 3 2
f 7 2 3
f 7 3 1
f 11 1 3
f 12 7 1
f 12 2 7
f 13 4 6
f 13 6 2
f 16 6 4
f 16 11 10
f 17 11 8
f 17 1 11
f 17 12 1
f 17 2 12
f 18 9 5
f 19 8 5
f 19 5 9
f 20 17 8
f 20 2 17
f 21 3 6
f 21 16 10
f 21 6 16
f 22 11 3
f 22 21 15
f 22 3 21
f 23 11 22
f 24 11 16
f 24 5 8
f 24 8 11
f 24 18 5
f 24 13 18
f 24 16 4
f 24 4 13
f 25 19 14
f 25 20 8
f 26 19 9
f 26 14 19
f 27 9 18
f 27 18 13
f 27 13 2
f 27 2 20
f 27 26 9
f 27 14 26
f 27 25 14
f 27 20 25
f 28 21 10
f 28 10 15
f 28 15 21
f 29 23 15
f 29 15 10
f 29 10 23
f 30 23 10
f 30 10 11
f 30 11 23
f 31 23 22
f 31 22 15
f 31 15 23
f 32 25 8
f 32 8 19
f 32 19 25

