# https://github.com/mikedh/trimesh
v 0.00073648 0.02570829 0.06080845
v 0.00156210 0.03188441 0.05930161
v -0.02371393 0.02425427 0.04814785
v -0.02641752 0.02480529 0.01741095
v 0.00087702 0.02544764 0.01651198
v -0.00402917 0.04487861 0.03470694
v -0.00999520 0.02418953 0.05929380
v -0.00974040 0.03693793 0.04948455
v -0.01906790 0.03497035 0.03855076
v 0.00115961 0.04461473 0.01733541
v -0.02761852 0.02431864 0.01963139
v 0.00154797 0.04139144 0.04999031
v -0.00600573 0.03158305 0.05680014
v -0.00956415 0.04064110 0.04231032
v -0.02087103 0.03107593 0.04399644
v -0.01552944 0.03899281 0.02542937
v 0.00139302 0.04549632 0.01960362
v -0.02758429 0.02426780 0.04063579
v -0.00412513 0.02969269 0.05883769
v -0.00403130 0.03697250 0.05307513
v -0.01541835 0.02580637 0.05500464
v -0.00036479 0.04488396 0.04054487
v -0.00407170 0.04080716 0.04779085
v -0.02307354 0.02564870 0.04760935
v -0.01325962 0.03682939 0.04589454
v -0.01160003 0.04093075 0.03679469
v -0.01530429 0.03701804 0.01805222
v -0.02683809 0.02764903 0.03472708
v -0.00401084 0.04481699 0.02358032
v -0.00963511 0.02577614 0.05863352
v -0.00221406 0.03350695 0.05693501
v -0.00772394 0.03506313 0.05298574
v -0.01592197 0.02426215 0.05557112
v -0.00217089 0.04482285 0.03857861
v 0.00150412 0.04534276 0.04066919
v -0.00033392 0.04290999 0.04617395
v -0.00034765 0.04100043 0.04974527
v -0.00590345 0.03890371 0.04952996
v -0.02290315 0.02750304 0.04576607
v -0.01523408 0.03695395 0.04221938
v -0.00802406 0.04286207 0.03664507
v -0.01540754 0.03882619 0.03476141
v -0.02473961 0.02940431 0.02180922
v -0.02467400 0.02927894 0.03843931
v -0.01157961 0.04079308 0.02170027
v -0.00419349 0.04317518 0.01789823
v -0.00962066 0.03149211 0.05493589
v -0.00033117 0.03166243 0.05890656
v 0.00149137 0.04332717 0.04633974
v -0.01352083 0.03887927 0.04031631
v -0.02483432 0.02749162 0.01808671
v -0.01707432 0.03701630 0.02178808
v -0.02668129 0.02739934 0.02353161
v -0.02676714 0.02567908 0.04040617
v -0.00784497 0.04273216 0.02163556
v -0.00033935 0.04507591 0.01967674
v -0.00962626 0.04075428 0.01814034
v -0.02677101 0.02574766 0.01979826
v -0.02483714 0.02738697 0.04216146
f 5 2 1
f 7 1 2
f 7 5 1
f 10 5 4
f 11 4 5
f 11 5 7
f 17 2 5
f 17 5 10
f 17 12 2
f 18 11 7
f 18 7 3
f 19 7 2
f 23 14 8
f 24 21 8
f 24 3 21
f 25 8 14
f 25 24 8
f 27 10 4
f 28 11 18
f 29 16 6
f 29 6 17
f 30 19 13
f 30 7 19
f 31 13 19
f 31 2 12
f 31 12 20
f 32 20 8
f 32 31 20
f 32 13 31
f 33 21 3
f 33 3 7
f 33 30 21
f 33 7 30
f 34 14 22
f 35 17 6
f 35 34 22
f 35 6 34
f 35 12 17
f 36 22 14
f 36 14 23
f 36 35 22
f 37 20 12
f 37 36 23
f 38 23 8
f 38 8 20
f 38 37 23
f 38 20 37
f 39 18 3
f 39 3 24
f 39 25 15
f 39 24 25
f 40 9 15
f 40 15 25
f 41 26 14
f 41 6 16
f 41 16 26
f 41 34 6
f 41 14 34
f 42 26 16
f 42 28 9
f 42 16 28
f 43 28 16
f 44 15 9
f 44 9 28
f 47 30 13
f 47 21 30
f 47 13 32
f 47 32 8
f 47 8 21
f 48 31 19
f 48 19 2
f 48 2 31
f 49 12 35
f 49 35 36
f 49 37 12
f 49 36 37
f 50 40 25
f 50 25 14
f 50 14 26
f 50 26 42
f 50 42 9
f 50 9 40
f 51 43 27
f 51 27 4
f 52 43 16
f 52 27 43
f 52 45 27
f 52 16 45
f 53 11 28
f 53 28 43
f 54 44 28
f 54 28 18
f 55 45 16
f 55 16 29
f 55 29 46
f 56 46 29
f 56 29 17
f 56 17 10
f 56 10 46
f 57 46 10
f 57 10 27
f 57 27 45
f 57 55 46
f 57 45 55
f 58 51 4
f 58 4 11
f 58 43 51
f 58 53 43
f 58 11 53
f 59 54 18
f 59 18 39
f 59 39 15
f 59 15 44
f 59 44 54

