# https://github.com/mikedh/trimesh
v 0.01954147 0.01883859 0.00997374
v 0.01967290 -0.01368682 0.00522712
v 0.01846274 0.01326268 0.00085040
v -0.01236561 0.01799034 0.00054410
v -0.01459597 -0.01374228 0.00175767
v 0.01403417 0.01760286 0.00087139
v 0.02015146 0.01790285 0.00953415
v -0.01320309 0.01934177 0.00495664
v 0.01843381 -0.01271872 0.00081423
v 0.01810346 0.01722315 0.00385186
v -0.01438645 0.00185220 0.00001912
v 0.01854061 0.01947987 0.00955195
v 0.01877291 -0.01418054 0.00465016
v 0.01793055 0.01583082 0.00236521
v -0.01434466 -0.01350731 0.00004389
v -0.01372922 0.01847410 0.00436558
v -0.01438781 0.00185136 0.00134764
f 5 2 1
f 7 1 2
f 7 2 3
f 8 5 1
f 8 6 4
f 9 3 2
f 10 7 3
f 10 1 7
f 11 6 3
f 11 4 6
f 11 3 9
f 12 8 1
f 12 6 8
f 12 10 6
f 12 1 10
f 13 9 2
f 13 2 5
f 14 10 3
f 14 3 6
f 14 6 10
f 15 11 9
f 15 5 11
f 15 13 5
f 15 9 13
f 16 8 4
f 16 4 11
f 16 5 8
f 17 16 11
f 17 11 5
f 17 5 16

