# https://github.com/mikedh/trimesh
v -0.03889342 0.00021623 0.10083369
v -0.00798052 -0.03422918 0.08564649
v -0.03315090 0.00184372 0.08511036
v -0.03353316 -0.00416407 0.07790320
v -0.02953060 -0.01852941 0.08592950
v -0.00852269 -0.03006253 0.07804696
v -0.03554846 0.00183074 0.08555330
v -0.03613243 0.00235314 0.09693567
v -0.02079736 -0.02716269 0.10100691
v -0.03104404 -0.01431209 0.07755598
v -0.03113606 -0.00462640 0.07812418
v -0.03903844 0.00172879 0.09728756
v -0.03432417 0.00214495 0.09280580
v -0.01778690 -0.02877342 0.07780773
v -0.02952753 -0.01851414 0.10095197
v -0.01864414 -0.02830124 0.10117741
v -0.03876391 -0.00214779 0.10039435
v -0.01212179 -0.03192801 0.07751184
v -0.00813608 -0.03316134 0.07776118
v -0.03782010 0.00218316 0.09984597
v -0.03866907 -0.00197379 0.09841523
v -0.00890065 -0.03080569 0.08398289
v -0.01923284 -0.02872555 0.08469469
v -0.02820681 -0.01843053 0.07767600
v -0.01932821 -0.02866091 0.09765901
v -0.03777944 -0.00367653 0.10084976
v -0.03097120 -0.01553190 0.08473202
v -0.03960693 0.00177631 0.10031400
v -0.03408578 -0.01095657 0.10056433
v -0.00790722 -0.03386431 0.08457117
v -0.01073641 -0.03343081 0.08571962
v -0.03843163 -0.00008843 0.10080054
v -0.03870399 -0.00059530 0.09716426
v -0.03264031 -0.00851804 0.07788930
v -0.02808165 -0.01999039 0.08464215
v -0.03405248 -0.01098209 0.09788042
v -0.02219426 -0.02574582 0.08388793
v -0.02509209 -0.02286397 0.08385449
f 7 3 4
f 8 3 7
f 11 4 3
f 11 3 6
f 12 7 4
f 13 6 3
f 13 3 8
f 16 15 9
f 18 10 4
f 19 11 6
f 19 4 11
f 19 18 4
f 20 8 7
f 20 7 12
f 20 16 8
f 21 10 17
f 22 13 8
f 22 6 13
f 22 16 2
f 22 8 16
f 23 14 18
f 24 5 10
f 24 18 14
f 24 10 18
f 25 9 15
f 25 16 9
f 26 16 1
f 26 15 16
f 26 1 17
f 27 17 10
f 27 10 5
f 27 5 17
f 28 17 1
f 28 21 17
f 28 20 12
f 28 1 20
f 29 5 15
f 29 26 17
f 29 15 26
f 30 19 6
f 30 2 19
f 30 22 2
f 30 6 22
f 31 19 2
f 31 18 19
f 31 23 18
f 31 25 23
f 31 2 16
f 31 16 25
f 32 20 1
f 32 1 16
f 32 16 20
f 33 12 4
f 33 28 12
f 33 21 28
f 34 4 10
f 34 10 21
f 34 33 4
f 34 21 33
f 35 5 24
f 35 23 25
f 35 25 15
f 35 15 5
f 36 29 17
f 36 17 5
f 36 5 29
f 37 24 14
f 37 14 23
f 37 23 35
f 38 37 35
f 38 35 24
f 38 24 37

