# https://github.com/mikedh/trimesh
v -0.02134813 0.02566927 0.07310366
v -0.02221589 0.02490044 0.07305616
v -0.03246499 0.00189634 0.07320491
v -0.01987420 0.01958595 0.01422081
v -0.01898702 0.02492740 0.02695119
v -0.03137148 0.01362255 0.07301499
v -0.02063418 0.02482723 0.03793547
v -0.01814484 0.02386082 0.01646037
v -0.02818002 0.01897281 0.07302076
v -0.03119709 0.00321070 0.02708834
v -0.02220279 0.02475230 0.06098520
v -0.02007663 0.02594309 0.05159711
v -0.02637778 0.01601328 0.02250635
v -0.02348018 0.02160655 0.07317442
v -0.03007378 0.00186815 0.02692293
v -0.03433156 0.00324267 0.06397727
v -0.02965583 0.01744816 0.06159377
v -0.01979959 0.02554016 0.03784987
v -0.02201083 0.02180854 0.02405974
v -0.02493085 0.01609661 0.01508589
v -0.03391446 0.00183276 0.07310329
v -0.03131178 0.00179679 0.02704450
v -0.02953674 0.01754719 0.06995342
v -0.03265692 0.01061272 0.06207114
v -0.02061043 0.02332969 0.02559783
v -0.02353196 0.02190920 0.03795984
v -0.01861653 0.02297139 0.01479569
v -0.02826658 0.01048515 0.01650701
v -0.02494517 0.01747280 0.01959571
v -0.03277036 0.00913283 0.07299030
v -0.03439861 0.00182458 0.06397614
v -0.03437842 0.00176892 0.06692435
v -0.03105171 0.01488165 0.06153579
v -0.03095903 0.01489470 0.07147994
v -0.03112217 0.00464288 0.02861081
v -0.01901725 0.02318363 0.01664304
v -0.02203566 0.02329797 0.03639905
v -0.02349962 0.01522498 0.01411238
v -0.02631777 0.01450469 0.01663225
v -0.02767980 0.01085897 0.01478557
v -0.02487828 0.01896466 0.02870388
v -0.03250427 0.01054321 0.07145064
v -0.03427771 0.00319447 0.06687844
v -0.02952085 0.01042592 0.02708278
v -0.02788966 0.01338540 0.02244232
v -0.02195637 0.02032540 0.01667223
v -0.02573595 0.01136423 0.01443415
v -0.02663291 0.01327000 0.01514738
v -0.03102490 0.00757414 0.03481679
v -0.02775982 0.01178934 0.01661386
v -0.01952886 0.02226421 0.01506484
f 1 3 4
f 8 1 4
f 9 1 2
f 11 2 1
f 12 8 5
f 12 1 8
f 12 11 1
f 14 9 6
f 14 6 3
f 14 3 1
f 14 1 9
f 15 4 3
f 17 9 2
f 17 2 11
f 17 11 7
f 18 12 5
f 18 5 7
f 18 7 11
f 18 11 12
f 21 3 6
f 22 16 10
f 22 15 3
f 23 9 17
f 25 19 7
f 25 7 5
f 26 17 7
f 27 8 4
f 28 22 10
f 30 21 6
f 31 16 22
f 32 22 3
f 32 3 21
f 32 31 22
f 32 16 31
f 33 23 17
f 34 6 9
f 34 9 23
f 34 23 33
f 34 33 24
f 35 10 16
f 35 16 24
f 35 28 10
f 36 25 5
f 36 5 8
f 36 19 25
f 36 8 27
f 37 26 7
f 37 7 19
f 37 19 26
f 38 27 4
f 38 20 27
f 39 29 20
f 39 13 29
f 40 15 22
f 40 22 28
f 40 20 38
f 41 26 19
f 41 19 29
f 41 17 26
f 41 29 13
f 41 13 17
f 42 24 16
f 42 30 6
f 42 34 24
f 42 6 34
f 43 16 32
f 43 42 16
f 43 30 42
f 43 32 21
f 43 21 30
f 44 24 33
f 44 28 35
f 45 33 17
f 45 17 13
f 45 44 33
f 45 28 44
f 45 13 39
f 46 29 19
f 46 19 36
f 46 20 29
f 47 38 4
f 47 4 15
f 47 40 38
f 47 15 40
f 48 39 20
f 48 20 40
f 49 44 35
f 49 35 24
f 49 24 44
f 50 45 39
f 50 28 45
f 50 39 48
f 50 48 40
f 50 40 28
f 51 46 36
f 51 36 27
f 51 27 20
f 51 20 46

