# https://github.com/mikedh/trimesh
v -0.01856220 0.02880287 0.10134583
v -0.01968264 0.02823984 0.10122849
v -0.03131854 -0.00466395 0.08336097
v -0.02818002 0.01897281 0.07302076
v -0.01827276 0.03001035 0.08563128
v -0.03960693 0.00177631 0.10031400
v -0.01827929 0.02992364 0.09306946
v -0.01872155 0.02771436 0.07780134
v -0.02955835 0.01908169 0.10108094
v -0.03391446 0.00183276 0.07310329
v -0.03782010 0.00218316 0.09984597
v -0.03113606 -0.00462640 0.07812418
v -0.02134813 0.02566927 0.07310366
v -0.03562661 0.00992979 0.09803938
v -0.02236968 0.02638250 0.10109884
v -0.02664101 0.02203059 0.08392484
v -0.03259451 0.01452549 0.10111465
v -0.03137148 0.01362255 0.07301499
v -0.03222971 -0.00443563 0.08469639
v -0.02009320 0.02637182 0.10097633
v -0.03353316 -0.00416407 0.07790320
v -0.03277036 0.00913283 0.07299030
v -0.03246499 0.00189634 0.07320491
v -0.02942517 0.01900346 0.08466084
v -0.02081404 0.02778279 0.09922471
v -0.02228330 0.02638316 0.08391447
v -0.03143658 0.01380833 0.10100053
v -0.03897901 0.00415200 0.10015558
v -0.03566128 0.01003791 0.10016428
v -0.03903844 0.00172879 0.09728756
v -0.03509256 -0.00415269 0.08568984
v -0.02221589 0.02490044 0.07305616
v -0.03895787 0.00417308 0.09832743
v -0.01933775 0.02926199 0.09303609
v -0.01934119 0.02931137 0.08572985
v -0.03581129 0.00800985 0.10073416
v -0.03427801 0.01181413 0.10086795
v -0.03258204 0.01336612 0.08457323
f 7 2 1
f 8 7 1
f 8 5 7
f 11 1 6
f 12 8 1
f 12 1 3
f 13 5 8
f 13 8 12
f 15 9 1
f 15 1 2
f 16 9 15
f 17 1 9
f 19 11 6
f 19 3 11
f 20 11 3
f 20 3 1
f 20 1 11
f 21 10 12
f 22 18 4
f 23 13 12
f 23 12 10
f 24 4 18
f 24 16 4
f 24 9 16
f 25 15 2
f 25 2 7
f 26 4 16
f 26 16 15
f 27 6 1
f 27 1 17
f 29 17 9
f 29 24 14
f 29 9 24
f 30 10 21
f 31 19 6
f 31 30 21
f 31 6 30
f 31 3 19
f 31 21 12
f 31 12 3
f 32 10 22
f 32 23 10
f 32 13 23
f 32 22 4
f 32 4 26
f 33 14 24
f 33 18 22
f 33 6 28
f 33 30 6
f 33 22 10
f 33 10 30
f 33 29 14
f 33 28 29
f 34 25 7
f 34 7 5
f 34 15 25
f 35 5 13
f 35 32 26
f 35 13 32
f 35 34 5
f 35 26 15
f 35 15 34
f 36 27 17
f 36 17 6
f 36 6 27
f 37 28 6
f 37 6 17
f 37 29 28
f 37 17 29
f 38 33 24
f 38 24 18
f 38 18 33

