# https://github.com/mikedh/trimesh
v 0.02415240 0.02191884 0.02718009
v 0.03174851 -0.00988733 0.02716979
v 0.03147735 0.00461662 0.01654522
v 0.01872646 0.01214093 0.00050218
v 0.02025261 -0.01412854 0.00624941
v 0.02538812 0.01605389 0.01236447
v 0.03154060 0.01049913 0.02715497
v 0.02830943 -0.01416057 0.02680556
v 0.01915935 0.02597887 0.02701493
v 0.02825684 -0.00675376 0.00956341
v 0.02682771 0.00601734 0.00668109
v 0.02694382 0.01743219 0.02113431
v 0.02991788 0.01034559 0.01663753
v 0.01885405 -0.01305486 0.00132868
v 0.01862061 0.02226303 0.01072428
v 0.03048814 -0.01299692 0.02709007
v 0.03148722 -0.00405921 0.01657570
v 0.02384914 0.01309291 0.00669086
v 0.02988515 0.00601835 0.01233870
v 0.02866195 0.01625708 0.02714994
v 0.03148107 0.00755452 0.01960743
v 0.02827975 0.01318908 0.01528054
v 0.02703955 -0.01262101 0.01225519
v 0.02254138 -0.00402255 0.00084157
v 0.01869071 0.02531150 0.01942678
v 0.01847601 0.01633107 0.00334481
v 0.02016465 0.02527789 0.02711800
v 0.02122842 0.00895107 0.00092151
v 0.02251062 0.01878853 0.01097090
v 0.02689351 -0.00549440 0.00670374
v 0.02992163 -0.00547061 0.01231293
v 0.02839195 0.00889821 0.01091273
v 0.02997271 0.01177674 0.01954512
v 0.02693290 0.01606644 0.01661244
v 0.02391245 -0.01248452 0.00668639
v 0.02853720 -0.01263246 0.01670044
v 0.01885632 -0.01156896 0.00057174
v 0.02396039 0.02040425 0.01809716
v 0.01853884 0.02377352 0.01357177
v 0.01963486 0.01177922 0.00092828
v 0.01965727 0.02465736 0.01956763
v 0.02537933 0.01019140 0.00669078
v 0.02248576 0.00457662 0.00086489
v 0.02391134 0.01594762 0.00953302
v 0.01953483 0.01868043 0.00681883
v 0.02392236 -0.00104414 0.00204094
v 0.02842177 -0.01112726 0.01376811
v 0.03138888 0.01042131 0.02564085
v 0.02998354 0.01321573 0.02414211
v 0.02240072 -0.00817690 0.00219983
v 0.02535908 -0.00967280 0.00657809
v 0.02996756 -0.01269311 0.02266831
v 0.02403401 0.02180114 0.02565851
v 0.02390621 0.01885119 0.01379663
v 0.01848692 0.01922337 0.00634620
v 0.01961633 0.02169493 0.01110548
v 0.01942766 0.01581970 0.00382894
v 0.02234588 0.01165192 0.00382135
v 0.02106749 0.02321703 0.01818495
v 0.02536568 0.00742842 0.00529691
v 0.02688281 0.00878925 0.00808846
v 0.02390646 0.00325450 0.00214249
v 0.02998123 -0.00968984 0.01662869
v 0.02839159 0.01599658 0.02416214
f 7 1 2
f 7 2 3
f 9 5 8
f 14 5 9
f 17 3 2
f 19 13 3
f 20 12 1
f 20 1 7
f 21 7 3
f 21 3 13
f 23 8 5
f 25 14 9
f 27 9 8
f 27 8 16
f 27 16 2
f 27 2 1
f 30 11 19
f 31 30 19
f 31 10 30
f 31 19 3
f 31 3 17
f 32 19 11
f 32 6 22
f 32 22 13
f 32 13 19
f 33 21 13
f 33 13 22
f 34 22 6
f 34 33 22
f 35 23 5
f 35 5 14
f 36 8 23
f 37 4 24
f 37 26 4
f 37 14 26
f 38 12 34
f 39 26 14
f 39 14 25
f 40 4 26
f 40 28 4
f 41 25 9
f 41 9 27
f 41 27 1
f 41 39 25
f 42 18 32
f 43 24 4
f 43 4 28
f 44 29 6
f 44 32 18
f 44 6 32
f 45 29 44
f 46 30 24
f 46 11 30
f 46 24 43
f 47 23 10
f 47 10 31
f 47 36 23
f 48 7 21
f 48 21 33
f 49 20 7
f 49 48 33
f 49 7 48
f 50 24 30
f 50 37 24
f 50 35 14
f 50 14 37
f 51 30 10
f 51 10 23
f 51 23 35
f 51 50 30
f 51 35 50
f 52 16 8
f 52 8 36
f 52 2 16
f 53 1 12
f 53 12 38
f 53 41 1
f 54 38 34
f 54 34 6
f 54 6 29
f 55 39 15
f 55 26 39
f 55 45 26
f 55 15 45
f 56 15 39
f 56 45 15
f 56 29 45
f 56 54 29
f 56 39 54
f 57 40 26
f 57 26 45
f 57 45 44
f 57 44 18
f 58 28 40
f 58 42 28
f 58 18 42
f 58 57 18
f 58 40 57
f 59 39 41
f 59 54 39
f 59 38 54
f 59 53 38
f 59 41 53
f 60 28 42
f 60 43 28
f 61 42 32
f 61 32 11
f 61 60 42
f 61 11 60
f 62 46 43
f 62 11 46
f 62 60 11
f 62 43 60
f 63 47 31
f 63 31 17
f 63 17 2
f 63 2 52
f 63 52 36
f 63 36 47
f 64 12 20
f 64 20 49
f 64 34 12
f 64 49 33
f 64 33 34

