# https://github.com/mikedh/trimesh
v -0.03203194 0.00185813 0.07792824
v -0.01571196 -0.03010328 0.07775947
v -0.01438090 -0.01200313 0.00001792
v -0.01802065 -0.01144149 0.00068188
v -0.03111368 -0.01453270 0.06276894
v -0.01367861 -0.02618745 0.01794425
v -0.02951221 0.00190990 0.02216354
v -0.01702116 -0.02574644 0.07805872
v -0.03104404 -0.01431209 0.07755598
v -0.01227507 -0.03229795 0.05156553
v -0.01358023 -0.02146341 0.00641702
v -0.02639802 -0.01243002 0.01518775
v -0.03426045 -0.00110574 0.06251175
v -0.02493659 -0.02314890 0.05508691
v -0.03264031 -0.00851804 0.07788930
v -0.02820681 -0.01843053 0.07767600
v -0.01382236 -0.01594260 0.00058276
v -0.01245195 -0.02815974 0.02703052
v -0.01761069 -0.02251540 0.01370593
v -0.02901868 -0.00415896 0.01487017
v -0.03426900 0.00177538 0.06260571
v -0.02202162 -0.02592101 0.05207658
v -0.02643039 -0.01394779 0.01956818
v -0.03430508 -0.00260560 0.06686368
v -0.03251043 -0.00995700 0.07138762
v -0.01778690 -0.02877342 0.07780773
v -0.02946953 -0.01702474 0.06995547
v -0.02033584 -0.01663743 0.00798052
v -0.01234865 -0.03215962 0.05049666
v -0.01365295 -0.02458903 0.01203627
v -0.03086673 0.00182971 0.02237333
v -0.02373853 -0.01126445 0.00777950
v -0.03103380 -0.00545069 0.03168935
v -0.02987834 0.00197248 0.02521215
v -0.01904263 -0.02254164 0.01806119
v -0.02927973 -0.01750349 0.06032044
v -0.03382045 0.00179147 0.07790733
v -0.03250699 -0.00986714 0.06304917
v -0.02516702 -0.02276947 0.06073199
v -0.01356144 -0.03172101 0.05155868
v -0.01493553 -0.01560211 0.00087678
v -0.01606020 -0.02098160 0.00815114
v -0.02179527 -0.01833108 0.01375137
v -0.01620348 -0.02399180 0.01513140
v -0.03118309 0.00177311 0.02557309
v -0.01929871 -0.01128604 0.00175175
v -0.02811094 -0.00827906 0.01511589
v -0.02320489 -0.01384137 0.00937998
v -0.03111674 -0.00261502 0.02557067
v -0.02336799 -0.01840799 0.01959504
v -0.02495176 -0.01692066 0.02256641
v -0.02793977 -0.01110644 0.01955487
v -0.03428110 0.00176684 0.06841461
v -0.02942516 -0.00826191 0.02248579
v -0.03426821 -0.00264096 0.06402022
v -0.02222204 -0.02572865 0.05613449
v -0.01342954 -0.03166650 0.05047863
v -0.01600600 -0.02253954 0.01089899
v -0.01465403 -0.02096524 0.00675275
v -0.02181756 -0.01680986 0.01094828
v -0.02196490 -0.01969939 0.01810031
v -0.01477558 -0.02400628 0.01225866
v -0.01781908 -0.02877552 0.04949495
v -0.02039577 -0.01391384 0.00525315
f 7 1 3
f 7 3 4
f 8 3 1
f 10 8 2
f 10 3 8
f 16 15 9
f 16 8 15
f 17 4 3
f 18 11 17
f 18 17 3
f 18 3 10
f 24 21 13
f 25 5 9
f 25 9 15
f 25 15 24
f 26 2 8
f 26 8 16
f 27 16 9
f 27 9 5
f 29 18 10
f 29 6 18
f 30 18 6
f 30 11 18
f 31 7 4
f 31 4 20
f 34 1 7
f 34 31 21
f 34 7 31
f 36 27 5
f 37 24 15
f 37 34 21
f 37 1 34
f 37 15 8
f 37 8 1
f 38 25 24
f 38 5 25
f 39 26 16
f 39 16 27
f 39 36 14
f 39 27 36
f 40 26 22
f 40 10 2
f 40 2 26
f 40 29 10
f 41 17 11
f 41 4 17
f 42 11 30
f 42 28 41
f 44 30 6
f 44 35 19
f 45 13 21
f 45 21 31
f 46 32 20
f 46 20 4
f 46 4 41
f 47 32 12
f 47 20 32
f 48 12 32
f 49 31 20
f 49 45 31
f 49 13 45
f 50 22 14
f 50 23 12
f 50 12 43
f 51 36 23
f 51 14 36
f 51 50 14
f 51 23 50
f 52 36 5
f 52 23 36
f 52 47 12
f 52 12 23
f 53 37 21
f 53 21 24
f 53 24 37
f 54 38 33
f 54 5 38
f 54 52 5
f 54 33 49
f 54 47 52
f 54 49 20
f 54 20 47
f 55 38 24
f 55 33 38
f 55 49 33
f 55 24 13
f 55 13 49
f 56 39 14
f 56 14 22
f 56 22 26
f 56 26 39
f 57 6 29
f 57 29 40
f 58 42 30
f 58 19 42
f 59 42 41
f 59 41 11
f 59 11 42
f 60 19 43
f 60 42 19
f 60 28 42
f 60 48 28
f 60 43 12
f 60 12 48
f 61 43 19
f 61 19 35
f 61 50 43
f 61 35 22
f 61 22 50
f 62 44 19
f 62 30 44
f 62 58 30
f 62 19 58
f 63 44 6
f 63 35 44
f 63 6 57
f 63 22 35
f 63 57 40
f 63 40 22
f 64 32 46
f 64 48 32
f 64 28 48
f 64 46 41
f 64 41 28

