# https://github.com/mikedh/trimesh
v 0.01843153 0.02649605 0.02717965
v 0.01985926 0.02393287 0.02687808
v 0.01857549 0.01777173 0.00484227
v -0.00359507 0.01874751 0.00005204
v -0.00382020 0.02953722 0.02207935
v -0.00361533 0.01882889 0.00140194
v 0.01813420 0.02466712 0.01519948
v 0.00259133 0.03037375 0.02685039
v 0.02036852 0.01971602 0.01255461
v 0.01828092 0.02617168 0.02411145
v 0.00676544 0.02608260 0.00798475
v 0.00248312 0.03155058 0.02706093
v 0.01831318 0.02176904 0.00956083
v 0.00823671 0.02049288 0.00084814
v -0.00336929 0.02793703 0.01078198
v 0.01114560 0.02920837 0.02106810
v 0.01389097 0.02455780 0.00967532
v 0.01277691 0.01804489 0.00054891
v -0.00352282 0.02116806 0.00054775
v -0.00357043 0.03078231 0.02237666
v 0.01263760 0.02945624 0.02717608
v 0.01404161 0.02768148 0.01818002
v 0.00245464 0.02921307 0.01366999
v 0.01664466 0.02455185 0.01247179
v 0.00814373 0.02163712 0.00208442
v 0.01389959 0.02153867 0.00530601
v -0.00337562 0.02467619 0.00508621
v -0.00340247 0.02947730 0.01509331
v 0.00688810 0.03104475 0.02712046
v 0.01690240 0.02621991 0.01814791
v 0.00969067 0.02751780 0.01232860
v 0.00252565 0.03105652 0.02256214
v 0.01255482 0.02750568 0.01521722
v 0.00963506 0.02618112 0.00949174
v 0.01242683 0.01887461 0.00102955
v 0.01806838 0.01870494 0.00533377
v 0.00389759 0.02469226 0.00523584
v -0.00190080 0.02920787 0.01374279
v 0.01544921 0.02764684 0.02251579
v 0.00682771 0.02760870 0.01095445
v 0.00682745 0.02915142 0.01512235
v 0.00392778 0.03095944 0.02255918
v 0.00972747 0.02916097 0.01808432
v 0.00672636 0.02316198 0.00367852
v 0.00685993 0.03088615 0.02559761
f 6 4 3
f 6 5 4
f 6 2 5
f 8 5 2
f 9 6 3
f 9 2 6
f 9 7 2
f 10 1 2
f 10 2 7
f 12 8 2
f 12 2 1
f 12 5 8
f 13 9 3
f 13 7 9
f 18 3 4
f 18 4 14
f 19 4 5
f 19 5 15
f 19 14 4
f 20 5 12
f 21 12 1
f 22 16 21
f 23 11 15
f 24 7 13
f 24 13 17
f 25 14 19
f 26 17 13
f 27 19 15
f 28 15 5
f 28 5 20
f 29 21 16
f 29 12 21
f 30 10 7
f 30 1 10
f 32 20 12
f 32 28 20
f 33 7 24
f 33 30 7
f 33 22 30
f 33 24 17
f 33 17 31
f 34 25 11
f 34 26 25
f 34 17 26
f 34 31 17
f 35 18 14
f 35 14 25
f 35 25 26
f 35 3 18
f 36 26 13
f 36 13 3
f 36 35 26
f 36 3 35
f 37 27 15
f 37 15 11
f 37 19 27
f 38 23 15
f 38 15 28
f 38 32 23
f 38 28 32
f 39 30 22
f 39 22 21
f 39 21 1
f 39 1 30
f 40 11 23
f 40 34 11
f 40 31 34
f 41 40 23
f 41 31 40
f 42 32 12
f 42 12 29
f 42 41 23
f 42 23 32
f 43 16 22
f 43 22 33
f 43 33 31
f 43 31 41
f 43 41 42
f 44 37 11
f 44 11 25
f 44 25 19
f 44 19 37
f 45 43 42
f 45 42 29
f 45 29 16
f 45 16 43

