# https://github.com/mikedh/trimesh
v 0.03707126 0.01078535 0.10128496
v 0.03766358 -0.00995643 0.10104954
v 0.03776756 0.00473344 0.05965736
v 0.03141640 0.00188919 0.02215799
v 0.03272804 -0.01404181 0.08315521
v 0.03625880 -0.01122625 0.05909290
v 0.02972669 0.01155288 0.02681329
v 0.03937970 0.00328591 0.09456490
v 0.03460956 -0.01421153 0.10132851
v 0.03253850 -0.00420293 0.02243578
v 0.03632202 0.00984294 0.05891714
v 0.03344436 0.01173338 0.08296940
v 0.03054977 -0.00901898 0.02690917
v 0.03790380 0.00905119 0.10099754
v 0.03934514 -0.00564255 0.08716037
v 0.03652330 -0.01303787 0.10128924
v 0.03645301 -0.01307424 0.07782634
v 0.03278092 0.00181639 0.02240448
v 0.03782134 -0.00415049 0.05982603
v 0.03770758 0.01062473 0.08456178
v 0.03559371 0.01131105 0.10126041
v 0.03105463 -0.00444946 0.02221079
v 0.03216889 -0.00857200 0.02711074
v 0.03938075 -0.00264491 0.09459376
v 0.03925956 0.00468817 0.08575274
v 0.03764547 -0.01144062 0.09765327
v 0.03279689 -0.01400267 0.07817031
v 0.03750728 -0.01136444 0.08472629
v 0.03299650 0.00610266 0.02873584
v 0.03779256 -0.00566350 0.06096856
v 0.03312065 -0.00264112 0.02560592
v 0.03782526 0.00629058 0.06239928
v 0.03763115 0.01043011 0.10062703
v 0.03006455 0.01170841 0.02984793
v 0.03215961 -0.01215177 0.05155809
v 0.03935680 -0.00413230 0.08583133
v 0.03931632 -0.00566456 0.09152350
v 0.03307674 0.00465947 0.02718614
v 0.03154060 0.01049913 0.02715497
v 0.03933808 0.00471129 0.09303215
v 0.03378879 -0.01158258 0.05168311
f 12 7 5
f 12 5 9
f 13 5 7
f 14 1 2
f 16 2 1
f 16 1 9
f 17 16 9
f 18 10 4
f 18 4 7
f 19 18 3
f 21 12 9
f 21 9 1
f 21 20 12
f 21 1 20
f 22 13 7
f 22 7 4
f 22 4 10
f 22 10 13
f 23 13 10
f 23 10 6
f 24 14 2
f 24 8 14
f 26 2 16
f 26 16 17
f 27 17 9
f 27 9 5
f 27 5 13
f 28 17 6
f 28 6 15
f 28 26 17
f 28 15 26
f 30 6 10
f 30 10 19
f 30 19 15
f 30 15 6
f 31 19 10
f 31 10 18
f 31 18 19
f 32 11 20
f 32 3 29
f 32 25 3
f 32 20 25
f 33 20 1
f 33 1 14
f 34 20 11
f 34 7 12
f 34 12 20
f 35 13 23
f 35 27 13
f 35 17 27
f 36 24 15
f 36 8 24
f 36 25 8
f 36 15 19
f 36 19 3
f 36 3 25
f 37 24 2
f 37 2 26
f 37 26 15
f 37 15 24
f 38 29 3
f 38 3 18
f 39 18 7
f 39 32 29
f 39 11 32
f 39 34 11
f 39 7 34
f 39 38 18
f 39 29 38
f 40 25 20
f 40 20 33
f 40 8 25
f 40 33 14
f 40 14 8
f 41 35 23
f 41 23 6
f 41 6 17
f 41 17 35

