# https://github.com/mikedh/trimesh
v -0.02759556 0.01147844 0.02684717
v -0.00377871 0.02775718 0.01413152
v -0.01796067 0.02362235 0.01511475
v -0.01778119 0.01327932 0.00083709
v -0.01446551 -0.01208201 0.00138063
v -0.00763665 0.02158215 0.00212340
v -0.02625484 0.01311005 0.01376217
v -0.00926312 0.02812263 0.01506708
v -0.02442319 -0.01241732 0.01434196
v -0.01327450 0.02152602 0.00525658
v -0.00359507 0.01874751 0.00005204
v -0.02380647 0.01764902 0.01512638
v -0.00357789 0.02934165 0.01469368
v -0.01358202 0.02637563 0.01508794
v -0.03052689 -0.00417914 0.02242648
v -0.02336797 -0.00397837 0.00348400
v -0.01207044 0.01874627 0.00090747
v -0.00904709 0.02608081 0.00954755
v -0.01438090 -0.01200313 0.00001792
v -0.00361533 0.01882889 0.00140194
v -0.02952085 0.01042592 0.02708278
v -0.02178041 0.01582853 0.00810365
v -0.00337773 0.02346823 0.00335965
v -0.03005679 0.00195905 0.02679020
v -0.01619344 0.02317744 0.01101032
v -0.02768357 -0.00824155 0.01384690
v -0.02625268 0.00602507 0.00801510
v -0.01192160 0.01997095 0.00219567
v -0.01886409 0.02020046 0.00952464
v -0.00352282 0.02116806 0.00054775
v -0.00767567 0.02768439 0.01230130
v -0.01346761 0.02601635 0.01373551
v -0.02068881 0.00746565 0.00085616
v -0.02344079 -0.01288097 0.01254101
v -0.02943974 0.01031682 0.02556767
v -0.02337322 0.01587274 0.01083804
v -0.00627503 0.02605923 0.00809104
v -0.00336929 0.02793703 0.01078198
v -0.02911575 -0.00448739 0.02221618
v -0.03130196 0.00184937 0.02694962
v -0.02687644 -0.01136622 0.01503380
v -0.02789167 -0.00255959 0.01066970
v -0.00772660 0.02050639 0.00085180
v -0.01604675 0.02161969 0.00816666
v -0.02038157 0.02023765 0.01235137
v -0.01893170 0.02167970 0.01233715
v -0.00914759 0.02773254 0.01368857
v -0.01770763 0.02330090 0.01369253
v -0.02074570 -0.00683824 0.00094574
v -0.02494005 0.00182066 0.00509628
v -0.02338461 0.01174644 0.00662527
v -0.02938666 0.00462852 0.01514477
v -0.02350214 0.01743311 0.01377368
v -0.00618291 0.02311075 0.00363300
v -0.00481830 0.02771715 0.01078163
v -0.00340516 0.02643562 0.00780655
v -0.02953490 0.00890723 0.02100280
v -0.02811094 -0.00827906 0.01511589
v -0.02637650 -0.00685392 0.00932107
v -0.02199577 -0.01121742 0.00510736
v -0.02327831 0.00607193 0.00363901
v -0.02787702 0.00472469 0.01078630
v -0.02631765 -0.00394865 0.00795657
v -0.02034166 0.01319068 0.00369437
f 9 5 2
f 13 8 1
f 14 1 8
f 17 11 4
f 20 2 5
f 20 19 11
f 20 5 19
f 20 13 2
f 21 3 12
f 21 14 3
f 21 1 14
f 23 20 11
f 24 9 2
f 24 2 13
f 24 13 1
f 24 1 21
f 25 18 10
f 28 17 10
f 28 18 6
f 28 10 18
f 29 17 4
f 29 4 22
f 30 11 17
f 30 23 11
f 31 8 13
f 32 14 8
f 32 18 25
f 32 3 14
f 33 4 11
f 33 11 19
f 34 19 5
f 34 5 9
f 35 21 12
f 35 12 7
f 36 29 22
f 38 13 20
f 38 20 23
f 39 15 9
f 39 9 24
f 40 24 21
f 40 39 24
f 40 15 39
f 41 9 15
f 41 34 9
f 43 28 6
f 43 17 28
f 43 30 17
f 43 6 30
f 44 10 17
f 44 17 29
f 44 29 25
f 44 25 10
f 45 12 3
f 45 29 36
f 46 25 29
f 46 45 3
f 46 29 45
f 47 31 18
f 47 18 32
f 47 32 8
f 47 8 31
f 48 32 25
f 48 3 32
f 48 46 3
f 48 25 46
f 49 33 19
f 49 16 33
f 50 33 16
f 51 36 22
f 51 27 7
f 51 7 36
f 52 42 15
f 52 15 40
f 53 36 7
f 53 7 12
f 53 45 36
f 53 12 45
f 54 6 18
f 54 18 37
f 54 30 6
f 54 23 30
f 55 37 18
f 55 18 31
f 55 31 13
f 55 13 38
f 56 38 23
f 56 55 38
f 56 37 55
f 56 54 37
f 56 23 54
f 57 40 21
f 57 21 35
f 57 52 40
f 57 35 7
f 57 7 52
f 58 41 15
f 58 26 41
f 58 42 26
f 58 15 42
f 59 26 42
f 59 16 49
f 59 41 26
f 60 49 19
f 60 19 34
f 60 34 41
f 60 59 49
f 60 41 59
f 61 50 27
f 61 33 50
f 61 51 33
f 61 27 51
f 62 50 42
f 62 27 50
f 62 42 52
f 62 52 7
f 62 7 27
f 63 50 16
f 63 42 50
f 63 59 42
f 63 16 59
f 64 51 22
f 64 22 4
f 64 4 33
f 64 33 51

