# https://github.com/mikedh/trimesh
v 0.00844339 0.03433822 0.10134060
v 0.00881201 0.03318603 0.10139164
v 0.00908889 0.02925782 0.02678384
v -0.01821476 0.02122326 0.01426818
v -0.01950430 0.02718346 0.10134130
v 0.00893420 0.03097531 0.08317721
v 0.00843611 0.03387133 0.04910633
v 0.00910256 0.02945096 0.02830889
v -0.01914824 0.02048054 0.01455997
v -0.02255620 0.02228473 0.07784144
v -0.00922904 0.03383734 0.09608887
v -0.00482366 0.02930087 0.01517996
v -0.00377871 0.02775718 0.01413152
v -0.01918459 0.02621957 0.03948964
v -0.00628816 0.03392269 0.10102765
v -0.00187831 0.03549137 0.08584109
v 0.00252565 0.03105652 0.02256214
v -0.01632428 0.02481403 0.01506291
v -0.01648999 0.03081481 0.08479489
v -0.02080385 0.02626786 0.06411434
v -0.01512499 0.03087945 0.10108258
v 0.00549375 0.03563884 0.09153298
v -0.00186366 0.03553876 0.09305617
v 0.00827366 0.03077407 0.02715773
v -0.00340247 0.02947730 0.01509331
v -0.00487650 0.03376970 0.04910543
v -0.01061126 0.02767768 0.01518833
v -0.01796067 0.02362235 0.01511475
v -0.02122998 0.02554106 0.07771532
v -0.01805512 0.02933575 0.10106619
v -0.02143067 0.02112491 0.02839246
v -0.01214364 0.03238460 0.10063201
v 0.00543995 0.03546087 0.08586502
v -0.00776907 0.03379380 0.10053191
v 0.00401128 0.03565824 0.09308284
v -0.00195256 0.03247649 0.03488270
v -0.01022670 0.03240714 0.05050309
v -0.00914595 0.03374981 0.08473294
v -0.00914368 0.02914676 0.01956161
v -0.01759886 0.02468298 0.01805155
v -0.01353815 0.03235512 0.09452405
v -0.02081974 0.02629126 0.06845959
v -0.02096382 0.02518227 0.05161197
v -0.02133926 0.02104282 0.02686243
v 0.00393123 0.03244379 0.03490546
v -0.00341773 0.03083009 0.02259390
v -0.01345407 0.03079147 0.05179772
v -0.00768473 0.03071818 0.02871856
v -0.01343663 0.02761616 0.02103552
v -0.01640618 0.03077977 0.09606330
v -0.01352119 0.03221386 0.08471517
v -0.01915599 0.02481896 0.02718117
v -0.02235013 0.02211528 0.05157482
v -0.01627369 0.02932195 0.05624893
v -0.01055836 0.02923018 0.02403812
v -0.00616167 0.03077659 0.02563176
v -0.01196773 0.02751294 0.01667083
v -0.01490923 0.02611683 0.01660967
v -0.01486353 0.02922114 0.04097496
v -0.01635123 0.02620027 0.02254625
v -0.01781292 0.02615093 0.03022407
f 5 2 1
f 7 1 2
f 8 6 3
f 8 2 6
f 8 7 2
f 8 3 7
f 9 3 6
f 10 6 2
f 10 2 5
f 10 9 6
f 13 9 4
f 13 3 9
f 15 5 1
f 18 13 4
f 20 19 14
f 21 5 15
f 22 1 7
f 23 16 11
f 23 15 1
f 24 17 7
f 24 7 3
f 25 13 12
f 25 17 24
f 25 24 3
f 25 3 13
f 26 16 7
f 27 12 13
f 27 13 18
f 28 18 4
f 28 4 9
f 29 20 10
f 29 10 5
f 30 5 21
f 30 29 5
f 32 21 15
f 33 22 7
f 33 7 16
f 33 16 22
f 34 23 11
f 34 15 23
f 34 32 15
f 34 11 32
f 35 22 16
f 35 16 23
f 35 23 1
f 35 1 22
f 36 26 7
f 38 11 16
f 38 16 26
f 38 26 37
f 39 12 27
f 40 18 28
f 41 21 32
f 41 32 11
f 41 11 38
f 42 20 29
f 42 29 30
f 42 30 19
f 42 19 20
f 43 20 14
f 44 9 10
f 44 10 31
f 44 28 9
f 45 36 7
f 45 7 17
f 45 17 36
f 46 36 17
f 46 17 25
f 46 25 12
f 46 26 36
f 47 19 37
f 48 37 26
f 50 30 21
f 50 21 41
f 50 41 19
f 50 19 30
f 51 41 38
f 51 38 37
f 51 37 19
f 51 19 41
f 52 43 14
f 52 31 43
f 52 44 31
f 52 40 28
f 52 28 44
f 53 43 31
f 53 31 10
f 53 10 20
f 53 20 43
f 54 14 19
f 54 19 47
f 55 48 39
f 55 37 48
f 55 49 37
f 55 39 49
f 56 39 48
f 56 46 12
f 56 12 39
f 56 48 26
f 56 26 46
f 57 49 39
f 57 39 27
f 58 18 40
f 58 49 57
f 58 57 27
f 58 27 18
f 59 47 37
f 59 37 49
f 59 54 47
f 59 14 54
f 60 58 40
f 60 49 58
f 60 59 49
f 60 40 52
f 61 60 52
f 61 52 14
f 61 14 59
f 61 59 60

