# https://github.com/mikedh/trimesh
v 0.03474160 -0.00889049 0.05159758
v 0.03326250 -0.01286436 0.05171821
v 0.02742217 -0.01282926 0.01356459
v 0.01179183 -0.01354837 0.00002614
v 0.01217101 -0.03003259 0.05154129
v 0.03216889 -0.00857200 0.02711074
v 0.01163401 -0.03151655 0.05161467
v 0.03319023 -0.00933692 0.05150261
v 0.01747589 -0.01308562 0.00049361
v 0.03300896 -0.01123869 0.03954152
v 0.02424097 -0.02416133 0.04253013
v 0.01179860 -0.01354923 0.00135023
v 0.03345100 -0.00852669 0.03637901
v 0.02447060 -0.01278971 0.00768828
v 0.01124965 -0.02743921 0.01505230
v 0.03303479 -0.01276470 0.04705229
v 0.02847155 -0.01537570 0.02269345
v 0.02301059 -0.02580308 0.05169450
v 0.03307482 -0.00981756 0.03644839
v 0.01104106 -0.01987807 0.00191472
v 0.01694502 -0.02857023 0.03948292
v 0.02106159 -0.02116525 0.01379940
v 0.03017370 -0.01861446 0.05171266
v 0.02826847 -0.01393878 0.01829031
v 0.02993990 -0.01408420 0.02707278
v 0.01850545 -0.02866140 0.05172075
v 0.03174851 -0.00988733 0.02716979
v 0.01115462 -0.01864305 0.00072868
v 0.01131318 -0.03053050 0.03786358
v 0.01991055 -0.02711246 0.04101638
v 0.02377067 -0.01671329 0.01099857
v 0.02403151 -0.02118070 0.02422222
v 0.01520786 -0.02243123 0.00822360
v 0.03152740 -0.01551485 0.04409417
v 0.02568161 -0.02268821 0.04104901
v 0.02537177 -0.01822052 0.01819358
v 0.01408214 -0.03019650 0.04260589
v 0.03147001 -0.01119790 0.02873574
v 0.01114966 -0.02585888 0.01077513
v 0.02284470 -0.02561651 0.04708418
v 0.01543298 -0.02696776 0.02111112
v 0.02680526 -0.01402241 0.01366975
v 0.01945719 -0.01675459 0.00536924
v 0.02119147 -0.02405778 0.02573994
v 0.03003025 -0.01697562 0.03956473
v 0.03147381 -0.01410972 0.03802997
v 0.02850621 -0.01983899 0.04257934
v 0.02686896 -0.01675615 0.01968009
v 0.02397589 -0.01824222 0.01391372
v 0.02107127 -0.02256776 0.01814687
v 0.01430974 -0.03058063 0.05165890
v 0.01129907 -0.02901543 0.02404497
v 0.01115923 -0.02423355 0.00786516
v 0.01387880 -0.02540416 0.01240305
v 0.02130479 -0.02566601 0.03642404
v 0.01843799 -0.02706539 0.03332643
v 0.01556009 -0.02852822 0.03330910
v 0.01789208 -0.01519789 0.00225794
v 0.02394180 -0.01393835 0.00803108
v 0.01958741 -0.02094302 0.01091902
v 0.02275953 -0.02410119 0.03338137
v 0.02543356 -0.02129434 0.03187038
v 0.02706927 -0.02128506 0.04109311
v 0.03001000 -0.01850585 0.04864969
f 7 2 1
f 7 1 5
f 8 5 1
f 9 4 6
f 12 7 5
f 12 5 8
f 12 6 4
f 13 8 1
f 13 12 8
f 13 6 12
f 13 1 10
f 14 9 6
f 14 6 3
f 16 10 1
f 16 1 2
f 19 13 10
f 19 6 13
f 20 7 12
f 24 3 6
f 25 17 24
f 26 2 7
f 26 23 2
f 26 18 23
f 27 19 10
f 27 6 19
f 27 25 24
f 27 24 6
f 28 4 9
f 28 20 12
f 28 12 4
f 29 7 20
f 30 26 21
f 30 18 26
f 34 16 2
f 34 2 23
f 34 10 16
f 35 23 18
f 35 18 11
f 37 21 26
f 37 7 29
f 38 27 10
f 38 10 25
f 38 25 27
f 39 29 20
f 40 11 18
f 40 18 30
f 42 31 14
f 42 14 3
f 42 3 24
f 45 17 25
f 45 25 34
f 46 34 25
f 46 25 10
f 46 10 34
f 47 17 45
f 47 45 34
f 48 24 17
f 48 17 47
f 48 42 24
f 49 36 22
f 49 22 31
f 49 31 42
f 49 48 36
f 49 42 48
f 50 36 32
f 50 22 36
f 50 32 44
f 50 44 41
f 51 37 26
f 51 26 7
f 51 7 37
f 52 39 15
f 52 29 39
f 52 15 41
f 52 37 29
f 53 39 20
f 53 20 33
f 53 33 39
f 54 39 33
f 54 15 39
f 54 41 15
f 54 50 41
f 54 22 50
f 55 40 30
f 55 11 40
f 56 30 21
f 56 55 30
f 56 41 44
f 56 44 55
f 57 21 37
f 57 52 41
f 57 37 52
f 57 56 21
f 57 41 56
f 58 9 14
f 58 28 9
f 58 20 28
f 58 43 33
f 58 33 20
f 59 14 31
f 59 31 43
f 59 58 14
f 59 43 58
f 60 43 31
f 60 31 22
f 60 33 43
f 60 54 33
f 60 22 54
f 61 35 11
f 61 55 44
f 61 11 55
f 61 44 32
f 62 48 47
f 62 32 36
f 62 36 48
f 62 61 32
f 62 35 61
f 63 47 23
f 63 23 35
f 63 62 47
f 63 35 62
f 64 47 34
f 64 34 23
f 64 23 47

