# https://github.com/mikedh/trimesh
v 0.03652330 -0.01303787 0.10128924
v 0.03622060 -0.01425835 0.10108212
v 0.03378879 -0.01158258 0.05168311
v 0.00732562 -0.03128932 0.05155459
v 0.00724058 -0.03101885 0.07788568
v 0.02447981 -0.02877696 0.08599630
v 0.03657340 -0.01143263 0.05976699
v 0.02205189 -0.02955322 0.10131096
v 0.03331806 -0.01258149 0.07830680
v 0.03192850 -0.01269134 0.05145159
v 0.02301059 -0.02580308 0.05169450
v 0.03610813 -0.01572174 0.09457900
v 0.03183329 -0.02172134 0.10108632
v 0.03460956 -0.01421153 0.10132851
v 0.01300877 -0.03412689 0.08568577
v 0.03688048 -0.01169142 0.07780515
v 0.03474527 -0.01699906 0.06213950
v 0.03017370 -0.01861446 0.05171266
v 0.03472242 -0.01722638 0.10110270
v 0.03364463 -0.01605272 0.10133532
v 0.02603049 -0.02723520 0.10108047
v 0.02361716 -0.02724067 0.10120112
v 0.00717278 -0.03356572 0.07776475
v 0.01875703 -0.03195957 0.08583205
v 0.00983458 -0.03205727 0.05167010
v 0.03602743 -0.01568929 0.08584107
v 0.02907565 -0.02244127 0.06179690
v 0.03460721 -0.01865580 0.08721180
v 0.03326250 -0.01286436 0.05171821
v 0.03317553 -0.02002659 0.10060524
v 0.02443916 -0.02866297 0.09766405
v 0.00701357 -0.03265027 0.05164157
v 0.01440373 -0.03368833 0.08578500
v 0.01850545 -0.02866140 0.05172075
v 0.03622837 -0.01262024 0.06024428
v 0.02595605 -0.02730496 0.08480027
v 0.03459042 -0.01856612 0.09306489
v 0.02326375 -0.02905594 0.10109415
v 0.01561529 -0.03012089 0.05322148
v 0.01121800 -0.03172370 0.05319902
f 10 4 5
f 10 9 3
f 10 5 9
f 11 4 10
f 12 1 2
f 14 9 5
f 14 1 9
f 16 7 3
f 16 3 9
f 16 9 1
f 16 1 12
f 18 11 10
f 18 10 3
f 18 17 11
f 19 2 1
f 19 1 13
f 19 12 2
f 20 13 1
f 20 8 13
f 20 14 8
f 20 1 14
f 21 13 8
f 21 6 13
f 22 14 5
f 22 5 8
f 22 8 14
f 23 15 8
f 23 8 5
f 26 16 12
f 26 7 16
f 27 6 11
f 27 11 17
f 28 17 26
f 28 26 12
f 29 3 7
f 29 18 3
f 29 17 18
f 30 19 13
f 30 12 19
f 31 6 21
f 31 24 6
f 32 23 5
f 32 5 4
f 32 4 25
f 32 25 15
f 32 15 23
f 33 24 8
f 33 8 15
f 33 15 25
f 34 11 6
f 34 6 24
f 34 25 4
f 34 4 11
f 35 26 17
f 35 7 26
f 35 29 7
f 35 17 29
f 36 27 17
f 36 6 27
f 36 17 28
f 36 28 13
f 36 13 6
f 37 28 12
f 37 12 30
f 37 30 13
f 37 13 28
f 38 31 21
f 38 21 8
f 38 8 24
f 38 24 31
f 39 25 34
f 39 34 24
f 39 24 33
f 40 39 33
f 40 33 25
f 40 25 39

