# https://github.com/mikedh/trimesh
v 0.02462096 0.02800960 0.10113363
v 0.03707126 0.01078535 0.10128496
v 0.02866195 0.01625708 0.02714994
v 0.00861165 0.03067686 0.02699644
v 0.00909606 0.03303352 0.10133846
v 0.02972669 0.01155288 0.02681329
v 0.02236178 0.02833647 0.05286847
v 0.01133299 0.03379493 0.10129786
v 0.03651374 0.01040583 0.05982031
v 0.02264951 0.02335823 0.02718530
v 0.00744316 0.03094606 0.07813518
v 0.00844339 0.03433822 0.10134060
v 0.01422848 0.03386189 0.08715567
v 0.03137677 0.01092207 0.02700122
v 0.03311413 0.01766486 0.06012613
v 0.00908889 0.02925782 0.02678384
v 0.02554147 0.02042697 0.02719006
v 0.01685875 0.02766112 0.02875110
v 0.03344436 0.01173338 0.08296940
v 0.03559371 0.01131105 0.10126041
v 0.00696761 0.03429479 0.05151944
v 0.01714301 0.03229308 0.09917996
v 0.02590235 0.02782473 0.08717232
v 0.01281879 0.03383582 0.09921914
v 0.03190882 0.01060111 0.03023013
v 0.03761256 0.01184589 0.08582681
v 0.03030807 0.01342259 0.02714289
v 0.01843153 0.02649605 0.02717965
v 0.00722282 0.03146112 0.05158367
v 0.02697990 0.01894122 0.02873412
v 0.03153677 0.01946406 0.05899446
v 0.00708386 0.03355345 0.07787420
v 0.01410735 0.03246606 0.04885037
v 0.02015805 0.03082282 0.10074297
v 0.01425106 0.03387902 0.09154868
v 0.03809180 0.01068141 0.09306840
v 0.03600406 0.01175050 0.06043469
v 0.03316039 0.02059759 0.08728355
v 0.01263760 0.02945624 0.02717608
v 0.01693938 0.03111397 0.04931491
v 0.02121527 0.02477718 0.02876396
v 0.00837271 0.03110727 0.03020428
v 0.00841367 0.03406935 0.05150893
v 0.01578813 0.03253149 0.10112376
v 0.02591963 0.02784109 0.09150740
v 0.03798463 0.01064782 0.08576474
v 0.03607796 0.01477966 0.08465467
v 0.03766511 0.01196157 0.09302413
v 0.03343671 0.01930339 0.10108453
v 0.02304176 0.02928818 0.09922146
v 0.03458785 0.01764856 0.08470906
v 0.03606318 0.01479575 0.09923014
v 0.03029189 0.02341777 0.10075163
v 0.03625939 0.01349101 0.10116160
v 0.03456014 0.01777013 0.09923129
v 0.02882187 0.02482052 0.10075106
v 0.03313552 0.02052846 0.09304749
v 0.03158787 0.02216683 0.09770934
v 0.02729358 0.02632804 0.09768476
f 8 2 1
f 12 5 2
f 12 2 8
f 12 11 5
f 14 6 3
f 16 10 6
f 16 6 11
f 17 3 6
f 17 6 10
f 17 10 7
f 19 11 6
f 20 2 5
f 20 5 11
f 20 11 19
f 20 19 6
f 24 12 8
f 25 14 9
f 25 9 2
f 25 2 20
f 25 20 6
f 25 6 14
f 27 14 3
f 27 3 15
f 27 9 14
f 28 16 4
f 28 10 16
f 29 16 11
f 29 4 16
f 30 15 3
f 30 3 17
f 31 17 7
f 31 30 17
f 31 15 30
f 32 11 12
f 32 12 21
f 32 29 11
f 32 21 29
f 35 12 24
f 35 21 12
f 35 13 21
f 35 24 22
f 35 22 34
f 35 23 13
f 36 2 9
f 37 26 9
f 37 15 26
f 37 27 15
f 37 9 27
f 38 15 31
f 38 31 7
f 38 7 23
f 39 28 4
f 39 18 28
f 39 33 18
f 39 4 33
f 40 28 18
f 40 7 28
f 40 18 33
f 40 23 7
f 40 33 13
f 40 13 23
f 41 28 7
f 41 7 10
f 41 10 28
f 42 29 21
f 42 21 4
f 42 4 29
f 43 21 13
f 43 13 33
f 43 33 4
f 43 4 21
f 44 8 1
f 44 1 34
f 44 24 8
f 44 34 22
f 44 22 24
f 45 35 34
f 45 23 35
f 45 38 23
f 46 36 9
f 46 9 26
f 46 26 36
f 47 38 26
f 47 26 15
f 48 36 26
f 48 26 38
f 49 1 2
f 50 45 34
f 50 34 1
f 50 1 45
f 51 47 15
f 51 15 38
f 51 38 47
f 52 36 48
f 53 1 49
f 54 2 36
f 54 36 52
f 54 52 49
f 54 49 2
f 55 52 48
f 55 48 38
f 55 49 52
f 56 53 45
f 56 1 53
f 57 55 38
f 57 49 55
f 58 38 45
f 58 45 53
f 58 57 38
f 58 53 49
f 58 49 57
f 59 56 45
f 59 45 1
f 59 1 56

