# https://github.com/mikedh/trimesh
v 0.00724058 -0.03101885 0.07788568
v 0.00690822 -0.03362461 0.07782236
v 0.01220635 -0.02537234 0.01427323
v -0.01460525 -0.02312937 0.01450644
v -0.01630287 -0.02634597 0.07785675
v -0.00342905 -0.03022658 0.02252854
v 0.01217101 -0.03003259 0.05154129
v -0.01511500 -0.02706351 0.07801179
v -0.00488784 -0.02870019 0.01514813
v 0.01109654 -0.02848589 0.01958045
v -0.00793200 -0.03340926 0.05071991
v -0.01217533 -0.02443052 0.01397743
v 0.01238596 -0.02575354 0.01580321
v 0.00684191 -0.02867723 0.01516152
v 0.01163401 -0.03151655 0.05161467
v -0.01212179 -0.03192801 0.07751184
v -0.00914707 -0.02847553 0.01957830
v 0.01124965 -0.02743921 0.01505230
v 0.00533558 -0.03022389 0.02254104
v 0.00398017 -0.03341572 0.05933525
v 0.01121596 -0.03012071 0.03330315
v -0.00644925 -0.03341399 0.07774318
v -0.01507448 -0.03045574 0.07765590
v -0.00627060 -0.03013404 0.02559641
v -0.01337999 -0.02574535 0.01505501
v 0.00393747 -0.03186711 0.03641890
v 0.00983458 -0.03205727 0.05167010
v -0.00423090 -0.03350702 0.05114760
v -0.00784001 -0.03332039 0.06695522
v -0.01659514 -0.02678919 0.05154610
v -0.01356144 -0.03172101 0.05155868
v -0.01059227 -0.02711994 0.01506311
v 0.00833399 -0.03170274 0.04100292
v 0.00249943 -0.03336947 0.05628235
v -0.01512701 -0.02399811 0.01900102
v -0.01524542 -0.03079844 0.05160776
v -0.01198558 -0.02711673 0.01806167
v 0.00976542 -0.03171113 0.04553855
v -0.01338619 -0.02713514 0.02255884
f 5 1 3
f 5 3 4
f 7 1 2
f 7 3 1
f 8 2 1
f 8 1 5
f 12 4 3
f 12 3 9
f 13 3 7
f 14 9 3
f 15 7 2
f 15 13 7
f 18 13 10
f 18 3 13
f 18 14 3
f 18 10 14
f 19 6 9
f 19 9 14
f 19 14 10
f 21 10 13
f 21 13 15
f 21 19 10
f 22 2 8
f 23 8 5
f 23 22 8
f 23 16 22
f 24 17 9
f 24 9 6
f 24 6 11
f 24 11 17
f 25 4 12
f 26 6 19
f 27 15 2
f 27 2 20
f 28 20 2
f 28 11 6
f 28 6 26
f 28 22 11
f 28 2 22
f 29 22 16
f 29 11 22
f 30 23 5
f 31 16 23
f 31 29 16
f 31 11 29
f 31 17 11
f 32 25 12
f 32 12 9
f 32 9 17
f 33 26 19
f 33 19 21
f 33 27 20
f 34 28 26
f 34 20 28
f 34 33 20
f 34 26 33
f 35 30 5
f 35 5 4
f 35 4 25
f 36 31 23
f 36 23 30
f 36 30 35
f 36 35 25
f 37 25 32
f 37 32 17
f 37 17 31
f 38 33 21
f 38 21 15
f 38 15 27
f 38 27 33
f 39 36 25
f 39 25 37
f 39 37 31
f 39 31 36

