# https://github.com/mikedh/trimesh
v 0.02287650 -0.02788796 0.10136392
v 0.02205189 -0.02955322 0.10131096
v 0.01269110 -0.03191249 0.07802840
v -0.00852269 -0.03006253 0.07804696
v -0.01967169 -0.02687603 0.10116427
v 0.02268658 -0.02758327 0.08532029
v 0.00400823 -0.03498453 0.10119199
v 0.01351473 -0.02951779 0.07792416
v -0.01936794 -0.02638816 0.08486024
v 0.02171271 -0.03050185 0.08593405
v -0.01073641 -0.03343081 0.08571962
v -0.00501873 -0.03358335 0.07766263
v 0.00997800 -0.03487959 0.08584777
v -0.00923853 -0.03324244 0.10046499
v -0.01841784 -0.02959353 0.08567211
v 0.00836986 -0.03335702 0.07797791
v -0.00632829 -0.03487535 0.08718604
v 0.01570344 -0.03326312 0.08586256
v -0.01212755 -0.03186941 0.10107990
v -0.00813608 -0.03316134 0.07776118
v 0.00843701 -0.03477783 0.08466418
v -0.01064781 -0.03326031 0.09456709
v -0.00336670 -0.03485426 0.09919854
v -0.00337984 -0.03489633 0.08483464
v 0.01863818 -0.03173330 0.10050457
v -0.00772917 -0.03345734 0.10106254
v 0.00114442 -0.03493363 0.10116135
v -0.01646528 -0.03020744 0.09903326
v -0.01490286 -0.03168035 0.08560913
v -0.00624033 -0.03482402 0.09149096
v 0.01579556 -0.03327070 0.09459161
v 0.02151616 -0.03028119 0.10069073
v 0.01437851 -0.03328311 0.10113048
v -0.00181064 -0.03486774 0.10055785
v -0.01808480 -0.02887607 0.10099935
v -0.01354499 -0.03172842 0.09905188
v -0.01497569 -0.03164825 0.09148237
v 0.00996348 -0.03485023 0.09458198
v 0.02035711 -0.03058900 0.10123242
v 0.00698364 -0.03495111 0.10070101
f 7 2 1
f 7 1 5
f 8 6 3
f 9 5 1
f 9 1 6
f 9 8 4
f 9 6 8
f 10 6 1
f 10 1 2
f 10 3 6
f 12 4 8
f 15 5 9
f 16 12 8
f 16 8 3
f 18 3 10
f 18 16 3
f 18 13 16
f 20 17 11
f 20 12 17
f 20 4 12
f 20 15 9
f 20 9 4
f 21 16 13
f 21 12 16
f 24 13 7
f 24 7 17
f 24 21 13
f 24 17 12
f 24 12 21
f 26 19 14
f 26 14 23
f 27 7 5
f 27 5 19
f 27 19 26
f 27 23 17
f 27 17 7
f 29 20 11
f 29 15 20
f 30 14 22
f 30 23 14
f 30 17 23
f 30 22 11
f 30 11 17
f 31 18 10
f 31 10 25
f 31 13 18
f 32 25 10
f 32 10 2
f 33 2 7
f 33 31 25
f 34 27 26
f 34 26 23
f 34 23 27
f 35 19 5
f 35 5 15
f 35 15 28
f 36 22 14
f 36 14 19
f 36 35 28
f 36 19 35
f 37 29 11
f 37 11 22
f 37 22 36
f 37 36 28
f 37 28 15
f 37 15 29
f 38 13 31
f 38 31 33
f 39 32 2
f 39 2 33
f 39 33 25
f 39 25 32
f 40 38 33
f 40 33 7
f 40 7 13
f 40 13 38

