# https://github.com/mikedh/trimesh
v 0.01124965 -0.02743921 0.01505230
v 0.01220635 -0.02537234 0.01427323
v -0.01528989 -0.02253537 0.01416721
v -0.01434466 -0.01350731 0.00004389
v 0.01115462 -0.01864305 0.00072868
v 0.01179860 -0.01354923 0.00135023
v 0.01098744 -0.02251110 0.00528038
v -0.01530810 -0.01446833 0.00267820
v 0.01179183 -0.01354837 0.00002614
v 0.01107699 -0.02709843 0.01366264
v -0.00339588 -0.02408158 0.00498229
v -0.01314071 -0.01383252 0.00141150
v -0.01335696 -0.02269292 0.00802883
v -0.00192237 -0.02142553 0.00090717
v 0.00680518 -0.02561615 0.00798159
v -0.01341210 -0.01687124 0.00092195
v -0.00192685 -0.02903638 0.01500428
v 0.00383239 -0.02127117 0.00091680
v -0.00755091 -0.02099204 0.00211244
v 0.00957001 -0.02403648 0.00659206
v -0.00775004 -0.01986734 0.00080924
v -0.00618212 -0.02695571 0.01097935
v -0.01337999 -0.02574535 0.01505501
v -0.00187814 -0.02868685 0.01369873
v 0.00399276 -0.02902601 0.01503032
v 0.00957232 -0.01977243 0.00101929
v 0.00534115 -0.02405542 0.00507466
v -0.00614262 -0.02254993 0.00358370
v 0.00969711 -0.02702926 0.01226502
v -0.01047894 -0.02099229 0.00368784
v -0.00932516 -0.02756367 0.01505302
v -0.01325881 -0.02543254 0.01367569
v 0.00679982 -0.02711731 0.01079037
v 0.00817718 -0.02240105 0.00367113
v -0.00627143 -0.02539755 0.00803593
v -0.01318440 -0.01952894 0.00372099
v -0.00911349 -0.02541877 0.00949399
v 0.00391099 -0.02862028 0.01365792
v -0.01188854 -0.02251432 0.00663789
v -0.00922655 -0.02717310 0.01371281
f 1 2 3
f 6 3 2
f 7 5 2
f 8 3 6
f 9 4 6
f 9 6 2
f 9 2 5
f 10 7 2
f 10 2 1
f 12 8 6
f 12 6 4
f 12 4 8
f 13 3 8
f 14 4 9
f 16 13 8
f 16 8 4
f 18 14 9
f 18 9 5
f 20 7 10
f 21 16 4
f 21 4 14
f 21 14 19
f 23 1 3
f 24 22 11
f 25 17 24
f 26 18 5
f 26 5 7
f 27 15 11
f 27 11 14
f 27 14 18
f 27 20 15
f 28 19 14
f 28 14 11
f 29 20 10
f 29 15 20
f 29 10 1
f 29 1 25
f 30 21 19
f 30 16 21
f 30 19 28
f 31 17 25
f 31 25 1
f 31 1 23
f 31 24 17
f 32 23 3
f 32 3 13
f 32 31 23
f 33 24 11
f 33 11 15
f 33 15 29
f 34 26 7
f 34 7 20
f 34 20 27
f 34 27 18
f 34 18 26
f 35 28 11
f 35 11 22
f 36 13 16
f 36 16 30
f 37 32 13
f 37 35 22
f 37 28 35
f 38 25 24
f 38 24 33
f 38 33 29
f 38 29 25
f 39 36 30
f 39 13 36
f 39 37 13
f 39 30 28
f 39 28 37
f 40 37 22
f 40 31 32
f 40 32 37
f 40 22 24
f 40 24 31

