# https://github.com/mikedh/trimesh
v 0.02780327 0.02257850 0.05263183
v 0.03124887 0.01705707 0.05279674
v 0.03048804 0.02144229 0.04138334
v -0.00649427 0.03670918 0.04147951
v -0.01866633 0.02951718 0.05259732
v 0.01214568 0.03540094 0.04148690
v 0.03027485 0.01907596 0.05269614
v 0.01295941 0.03369223 0.05259292
v 0.02774418 0.01787965 0.04227358
v 0.02177490 0.03005850 0.04138938
v 0.03276263 0.01717322 0.04160259
v -0.01253294 0.03388641 0.05261831
v 0.00456955 0.03638850 0.04652573
v 0.02524205 0.01803731 0.04557823
v -0.01869094 0.02953081 0.04773544
v 0.02667435 0.02398733 0.05255417
v 0.00831876 0.03635582 0.04141474
v 0.01814763 0.03116789 0.05253654
v 0.03173863 0.01921174 0.04140738
v -0.00705532 0.03283654 0.04215215
v -0.01770249 0.03146307 0.05261600
v 0.00825265 0.03504873 0.05245280
v -0.00767651 0.03512806 0.05249363
v 0.03200873 0.01677591 0.04657135
v 0.02521073 0.01806178 0.04392071
v 0.02415703 0.02729180 0.04645045
v 0.01919659 0.03119840 0.04518610
v 0.02165432 0.02871798 0.05248588
v -0.01780147 0.03174091 0.04785879
v -0.00400585 0.03637270 0.04654362
v 0.02640627 0.02504286 0.04644511
v -0.01626528 0.03251371 0.04774990
f 7 1 2
f 7 3 1
f 11 7 2
f 12 2 8
f 14 2 5
f 15 14 5
f 16 1 3
f 17 10 3
f 17 3 4
f 17 6 10
f 17 4 13
f 18 6 8
f 18 8 2
f 18 2 1
f 19 3 7
f 19 7 11
f 19 11 4
f 19 4 3
f 20 11 9
f 20 4 11
f 20 15 4
f 20 9 15
f 21 5 2
f 21 2 12
f 22 17 13
f 22 8 6
f 22 6 17
f 23 4 12
f 23 22 13
f 23 12 8
f 23 8 22
f 24 11 2
f 24 2 14
f 25 15 9
f 25 14 15
f 25 24 14
f 25 9 11
f 25 11 24
f 26 3 10
f 27 18 10
f 27 10 6
f 27 6 18
f 28 18 1
f 28 1 16
f 28 16 26
f 28 26 10
f 28 10 18
f 29 15 5
f 29 5 21
f 29 4 15
f 30 23 13
f 30 13 4
f 30 4 23
f 31 26 16
f 31 16 3
f 31 3 26
f 32 29 21
f 32 21 12
f 32 12 4
f 32 4 29

