# https://github.com/mikedh/trimesh
v 0.02540409 0.02735837 0.04134573
v 0.03633416 0.00692920 0.04155721
v 0.03927160 0.01541133 0.00710230
v 0.02269375 0.02236600 0.00064886
v 0.01945759 0.02694748 0.04205005
v 0.02270296 0.01215719 0.00038504
v 0.01972864 0.03691596 0.00839510
v 0.03143646 0.02028180 0.04006422
v 0.03048804 0.02144229 0.04138334
v 0.04079603 0.00696392 0.01453926
v 0.03504812 0.01202737 0.00181707
v 0.03213461 0.00715471 0.04174826
v 0.03162790 0.02760975 0.01077457
v 0.01863743 0.03215885 0.04156256
v 0.03430571 0.01431841 0.04142625
v 0.02642152 0.02632357 0.04134421
v 0.02906612 0.01341787 0.00072746
v 0.02907775 0.01214176 0.00069582
v 0.03985987 0.01193409 0.00641470
v 0.02832028 0.02689040 0.00275759
v 0.03160493 0.00864052 0.04215273
v 0.02275164 0.01217390 0.00295609
v 0.04058592 0.00695614 0.01578391
v 0.03629419 0.00720584 0.01485975
v 0.02290954 0.03497136 0.01186230
v 0.03526075 0.02286828 0.01187797
v 0.01834012 0.03412009 0.03119827
v 0.03908245 0.01555444 0.01183094
v 0.02903426 0.03006107 0.01320188
v 0.03409398 0.02388250 0.01447510
v 0.02521744 0.02108585 0.00074027
v 0.03662324 0.01430564 0.00316423
v 0.04063482 0.00802768 0.01452484
v 0.03702742 0.01188002 0.00282498
v 0.03425528 0.02396204 0.00650408
v 0.02929739 0.03002841 0.00670782
v 0.02034119 0.03111558 0.04134799
v 0.03777419 0.01770245 0.01314333
v 0.01840087 0.03295528 0.03763031
v 0.01958735 0.03664625 0.01325234
v 0.03540871 0.01049279 0.04141017
v 0.02650249 0.02742973 0.03620535
v 0.02544353 0.02985337 0.02854126
v 0.03148810 0.02251995 0.03239296
v 0.03152533 0.02628001 0.01700068
v 0.03277087 0.02255647 0.02592765
v 0.03222882 0.02072472 0.00227138
v 0.02394848 0.02236755 0.00071681
v 0.03939577 0.01437459 0.00672364
v 0.03815536 0.01181051 0.00419438
v 0.03787420 0.01772467 0.00666295
v 0.03530783 0.02288667 0.00841658
v 0.02294914 0.03505188 0.00846289
v 0.03041919 0.02777536 0.00570826
v 0.02798899 0.03113901 0.01188565
v 0.01930005 0.03251582 0.03752813
v 0.02060587 0.03613479 0.01316089
v 0.03654506 0.00793278 0.03880661
v 0.02416816 0.02856262 0.04006839
v 0.03285757 0.02165880 0.00310740
v 0.03476969 0.01568373 0.00227496
v 0.02991097 0.02328808 0.00212120
v 0.03794319 0.01304050 0.00436881
v 0.03666806 0.01653164 0.00443675
f 7 4 6
f 14 5 1
f 15 8 9
f 16 1 5
f 16 5 9
f 17 6 4
f 18 11 10
f 18 10 6
f 18 17 11
f 18 6 17
f 20 4 7
f 21 12 2
f 21 5 12
f 21 2 15
f 21 15 9
f 21 9 5
f 22 12 5
f 22 5 6
f 22 6 12
f 23 10 2
f 23 2 12
f 24 12 6
f 24 6 10
f 24 23 12
f 24 10 23
f 27 7 6
f 28 3 26
f 30 13 29
f 30 26 13
f 31 17 4
f 31 11 17
f 33 19 3
f 33 10 19
f 33 3 28
f 33 2 10
f 34 10 11
f 36 20 7
f 37 14 1
f 38 26 8
f 38 8 15
f 38 28 26
f 38 15 28
f 39 27 6
f 39 6 5
f 39 5 14
f 39 14 27
f 40 7 27
f 40 27 14
f 41 28 15
f 41 15 2
f 42 29 1
f 42 1 16
f 42 16 29
f 43 1 29
f 44 30 16
f 44 16 9
f 44 9 30
f 45 30 29
f 45 29 16
f 45 16 30
f 46 30 9
f 46 26 30
f 46 9 8
f 46 8 26
f 47 11 31
f 48 31 4
f 48 4 20
f 49 32 3
f 49 3 19
f 50 19 10
f 50 10 34
f 50 34 32
f 52 26 3
f 52 51 35
f 52 3 51
f 52 13 26
f 52 36 13
f 52 35 36
f 53 36 7
f 53 7 25
f 54 36 35
f 54 35 20
f 54 20 36
f 55 29 13
f 55 13 36
f 55 36 53
f 55 53 25
f 55 43 29
f 55 25 43
f 56 37 25
f 56 14 37
f 57 25 7
f 57 7 40
f 57 56 25
f 57 40 14
f 57 14 56
f 58 33 28
f 58 28 41
f 58 41 2
f 58 2 33
f 59 37 1
f 59 1 43
f 59 43 25
f 59 25 37
f 60 35 51
f 60 47 20
f 60 20 35
f 61 34 11
f 61 11 47
f 61 32 34
f 61 60 32
f 61 47 60
f 62 47 31
f 62 31 48
f 62 48 20
f 62 20 47
f 63 50 32
f 63 32 49
f 63 49 19
f 63 19 50
f 64 51 3
f 64 3 32
f 64 60 51
f 64 32 60

