# https://github.com/mikedh/trimesh
v 0.02862250 0.03071120 0.00837923
v 0.02977837 0.02296338 0.00825215
v 0.02887524 0.02220027 0.00144702
v -0.00799952 0.03394030 0.00081995
v -0.00813890 0.03452368 0.00498629
v 0.01975485 0.03318844 0.00232842
v 0.02851963 0.02568475 0.00231524
v 0.01424522 0.03486489 0.00828013
v -0.00800386 0.02242569 0.00295279
v 0.01117250 0.03254337 0.00077913
v 0.02814181 0.03009184 0.00565521
v 0.02475740 0.02942512 0.00232952
v 0.02074100 0.03639497 0.00843532
v -0.00823782 0.03365840 0.00438705
v -0.00799379 0.02239675 0.00015614
v 0.00605681 0.03382284 0.00076015
v 0.02791691 0.02783650 0.00310069
v 0.01627501 0.02999135 0.00079185
v 0.02434268 0.03399418 0.00842933
v 0.01960910 0.03672699 0.00643618
v 0.01972864 0.03691596 0.00839510
v -0.00797302 0.03254689 0.00067869
v 0.02185922 0.03273672 0.00312481
v 0.02269375 0.02236600 0.00064886
v 0.02578592 0.03289473 0.00841776
v 0.02420611 0.03384902 0.00656986
v 0.02067345 0.03621535 0.00658094
v -0.00668697 0.03381707 0.00077425
v 0.02684373 0.02883169 0.00314814
v 0.02178564 0.03389063 0.00439517
v 0.02268924 0.02364725 0.00070785
v 0.02676475 0.03124931 0.00574797
f 7 1 2
f 7 2 3
f 9 3 2
f 9 8 5
f 9 2 8
f 11 1 7
f 12 7 3
f 13 8 2
f 14 9 5
f 14 5 4
f 15 3 9
f 15 14 4
f 15 9 14
f 16 6 10
f 16 10 15
f 17 11 7
f 17 7 12
f 18 10 6
f 18 6 12
f 18 12 3
f 19 13 2
f 20 4 5
f 20 16 4
f 20 6 16
f 21 5 8
f 21 8 13
f 21 20 5
f 22 16 15
f 22 15 4
f 23 12 6
f 24 15 10
f 24 10 18
f 24 3 15
f 25 19 2
f 25 2 1
f 26 19 25
f 26 25 1
f 26 1 11
f 27 21 13
f 27 20 21
f 27 13 19
f 27 19 26
f 28 22 4
f 28 4 16
f 28 16 22
f 29 17 12
f 29 12 23
f 29 23 11
f 29 11 17
f 30 23 6
f 30 6 20
f 30 20 27
f 30 27 26
f 31 24 18
f 31 18 3
f 31 3 24
f 32 30 26
f 32 26 11
f 32 11 23
f 32 23 30

