# https://github.com/mikedh/trimesh
v 0.03633416 0.00692920 0.04155721
v 0.03653457 -0.00674776 0.03880110
v 0.04063944 0.01050485 0.00833680
v 0.03561394 0.01218706 0.00832834
v 0.02936449 -0.02002035 0.02758772
v 0.03959807 0.01187351 0.01453784
v 0.04044438 -0.00181592 0.01831489
v 0.03066813 -0.01224625 0.04171780
v 0.03204171 -0.02004966 0.00819195
v 0.04045862 0.00567536 0.01704527
v 0.04020506 0.01203859 0.00832990
v 0.03495679 0.01235010 0.01483879
v 0.03662094 -0.00179790 0.04140565
v 0.03415546 -0.01918082 0.02728335
v 0.03014925 -0.02056999 0.02132764
v 0.04059631 -0.01044443 0.00829569
v 0.04036101 0.00916637 0.01445253
v 0.04047041 0.00183492 0.01832911
v 0.04045256 0.01048226 0.01191584
v 0.03285711 -0.01790101 0.00763656
v 0.03213461 0.00715471 0.04174826
v 0.03548415 0.01248155 0.01106561
v 0.04046876 -0.00569182 0.01702041
v 0.03460946 -0.01189329 0.04148477
v 0.03716486 -0.01938703 0.00834157
v 0.03667148 0.00184077 0.04141664
v 0.03164074 -0.00869961 0.04211410
v 0.04036367 -0.01038850 0.01188665
v 0.03540093 -0.00919469 0.04140773
v 0.03157292 -0.02045118 0.01364319
v 0.03793234 -0.01785527 0.00829987
v 0.03665896 0.00566120 0.04011762
v 0.04038378 -0.00790818 0.01574819
v 0.03784582 -0.01658226 0.01443679
v 0.03917428 -0.01424589 0.01195996
v 0.03651497 -0.01527961 0.02467243
v 0.03661252 -0.01912838 0.01444964
v 0.03786575 -0.01783033 0.01083083
v 0.03521872 -0.01906973 0.02209732
v 0.03644192 -0.01649929 0.02209843
f 12 1 6
f 12 4 5
f 15 5 4
f 15 4 9
f 15 14 5
f 17 1 10
f 18 3 10
f 18 16 3
f 19 11 6
f 19 3 11
f 19 6 1
f 19 1 17
f 19 17 10
f 19 10 3
f 20 9 4
f 20 4 11
f 20 11 3
f 20 3 16
f 21 1 12
f 21 12 5
f 21 5 8
f 22 11 4
f 22 4 12
f 22 12 6
f 22 6 11
f 23 13 2
f 23 7 13
f 23 18 7
f 23 16 18
f 24 8 5
f 24 5 14
f 25 14 15
f 25 9 20
f 26 13 7
f 26 7 18
f 26 1 13
f 26 18 10
f 27 21 8
f 27 1 21
f 27 8 24
f 27 24 13
f 27 13 1
f 29 2 13
f 29 13 24
f 29 24 28
f 30 25 15
f 30 15 9
f 30 9 25
f 31 25 20
f 31 20 16
f 32 26 10
f 32 10 1
f 32 1 26
f 33 23 2
f 33 29 28
f 33 2 29
f 33 28 16
f 33 16 23
f 35 31 16
f 35 16 28
f 35 28 24
f 36 24 14
f 36 35 24
f 36 34 35
f 37 14 25
f 38 35 34
f 38 31 35
f 38 34 37
f 38 37 25
f 38 25 31
f 39 37 34
f 39 14 37
f 40 39 34
f 40 34 36
f 40 36 14
f 40 14 39

