# https://github.com/mikedh/trimesh
v -0.00705610 -0.03273729 0.05260338
v -0.00660740 -0.03476177 0.05290366
v -0.00667422 -0.03887327 0.02751195
v -0.03853563 -0.00701522 0.02751801
v -0.03473144 -0.00698861 0.05293794
v -0.00689271 -0.03076164 0.04393498
v -0.02708059 -0.02755031 0.03107880
v -0.03446232 -0.00728106 0.02768090
v -0.03090481 -0.00739001 0.04573081
v -0.00687210 -0.03084823 0.04588374
v -0.00641133 -0.03641346 0.04140410
v -0.01499927 -0.03641537 0.02727490
v -0.02362953 -0.02621797 0.05269057
v -0.03353104 -0.02043308 0.02728762
v -0.00692047 -0.03482824 0.02768467
v -0.03759571 -0.01055908 0.02734957
v -0.03492284 -0.00673083 0.04904056
v -0.03301001 -0.00730589 0.05248162
v -0.03079643 -0.00740016 0.04383774
v -0.00643392 -0.03779222 0.03372895
v -0.00645058 -0.03528659 0.04783025
v -0.01124791 -0.03378962 0.05268961
v -0.02712204 -0.02252822 0.05272702
v -0.01998019 -0.03379288 0.02726423
v -0.01153154 -0.03776595 0.02731948
v -0.03610431 -0.01536796 0.02729252
v -0.03737358 -0.00674434 0.03501882
v -0.01857775 -0.03003009 0.05273286
v -0.03109207 -0.02389965 0.02726956
v -0.02496722 -0.03012007 0.02728095
v -0.03334685 -0.01166833 0.05272815
v -0.02974626 -0.01917477 0.05269894
v -0.03203998 -0.02143748 0.03235696
f 5 2 1
f 10 1 2
f 15 8 6
f 16 4 8
f 16 5 4
f 16 8 15
f 18 5 1
f 18 10 9
f 18 1 10
f 18 17 5
f 18 9 17
f 19 6 8
f 19 17 9
f 19 8 17
f 19 10 6
f 19 9 10
f 20 11 2
f 20 2 3
f 20 3 15
f 20 15 6
f 20 6 11
f 21 10 2
f 21 2 11
f 21 11 6
f 21 6 10
f 22 3 2
f 23 2 5
f 23 7 13
f 25 12 16
f 25 22 12
f 25 3 22
f 25 16 15
f 25 15 3
f 26 16 12
f 26 12 24
f 27 17 8
f 27 8 4
f 27 4 5
f 27 5 17
f 28 22 2
f 28 24 12
f 28 12 22
f 28 23 13
f 28 2 23
f 29 7 23
f 29 26 24
f 29 14 26
f 30 13 7
f 30 29 24
f 30 7 29
f 30 28 13
f 30 24 28
f 31 5 16
f 31 16 26
f 32 23 5
f 32 5 31
f 32 31 26
f 32 26 14
f 33 29 23
f 33 23 32
f 33 32 14
f 33 14 29

