# https://github.com/mikedh/trimesh
v -0.02998897 0.01996729 0.00544356
v -0.01956825 -0.01738677 0.00333389
v -0.01953755 0.01986315 0.00295465
v -0.02968624 0.01979748 0.00106627
v -0.04118065 -0.00795539 0.00683759
v -0.01947793 -0.01723563 0.00063533
v -0.02788972 0.02040508 0.00448355
v -0.03310610 -0.01769920 0.00795497
v -0.04047947 0.01064660 0.00833765
v -0.01949153 0.01982642 0.00039572
v -0.03679284 -0.00812074 0.00221193
v -0.03586093 0.01115397 0.00826608
v -0.03864819 -0.01657555 0.00834456
v -0.03097770 -0.00188936 0.00074212
v -0.02585487 0.01980550 0.00071169
v -0.03860738 0.00685448 0.00300307
v -0.04121217 -0.00805430 0.00830034
v -0.03608621 -0.01530951 0.00314246
v -0.03307484 -0.01699151 0.00208000
v -0.03097415 0.00702557 0.00071924
v -0.03757354 0.01051712 0.00290694
v -0.03858822 -0.00562857 0.00307875
v -0.04111307 0.00793892 0.00672003
v -0.03982568 -0.01303196 0.00831446
v -0.03847442 -0.01655838 0.00680618
v -0.02715559 -0.00956579 0.00072669
v -0.03428934 -0.01567762 0.00226630
v -0.02204100 -0.01721625 0.00075393
v -0.02968866 0.01341492 0.00074274
v -0.03678878 0.00939772 0.00216979
v -0.04023941 0.01058170 0.00649572
v -0.03987653 -0.00178772 0.00428507
v -0.03723607 -0.01176895 0.00320263
v -0.03862652 0.01046873 0.00425949
v -0.04121188 0.00803796 0.00830334
v -0.03975606 -0.01295060 0.00689074
v -0.03518336 -0.01677752 0.00299146
v -0.02713472 0.01851854 0.00074290
v -0.03982567 0.00308681 0.00429332
v -0.03848086 -0.01428185 0.00570135
f 6 3 2
f 7 1 3
f 7 4 1
f 8 2 3
f 8 6 2
f 9 1 4
f 10 3 6
f 10 7 3
f 12 8 3
f 12 3 1
f 12 1 9
f 13 12 9
f 13 8 12
f 14 10 6
f 15 4 7
f 15 7 10
f 17 13 9
f 19 11 14
f 20 14 11
f 20 10 14
f 22 16 11
f 24 17 5
f 24 13 17
f 25 8 13
f 26 19 14
f 26 14 6
f 27 18 11
f 27 11 19
f 28 6 8
f 28 8 19
f 28 26 6
f 28 19 26
f 29 10 20
f 30 29 20
f 30 4 29
f 30 21 4
f 30 16 21
f 30 20 11
f 30 11 16
f 31 9 4
f 31 4 21
f 31 23 9
f 32 22 5
f 32 16 22
f 32 5 23
f 33 5 22
f 33 22 11
f 33 11 18
f 34 21 16
f 34 16 23
f 34 31 21
f 34 23 31
f 35 17 9
f 35 9 23
f 35 23 5
f 35 5 17
f 36 24 5
f 36 25 13
f 36 13 24
f 37 25 18
f 37 19 8
f 37 8 25
f 37 27 19
f 37 18 27
f 38 29 4
f 38 4 15
f 38 15 10
f 38 10 29
f 39 32 23
f 39 23 16
f 39 16 32
f 40 36 5
f 40 5 33
f 40 33 18
f 40 18 25
f 40 25 36

