# https://github.com/mikedh/trimesh
v -0.03446232 -0.00728106 0.02768090
v -0.01902454 -0.03429032 0.02737046
v -0.01953712 -0.01729975 0.00064130
v -0.03307484 -0.01699151 0.00208000
v -0.03587114 -0.02155910 0.01194250
v -0.01908196 -0.03690717 0.00647210
v -0.04135431 -0.00689476 0.00831039
v -0.02047020 -0.02878760 0.02779079
v -0.03222093 -0.02258353 0.02726545
v -0.01909857 -0.03421842 0.00319281
v -0.03348634 -0.02506984 0.00673358
v -0.03689088 -0.00722431 0.00805257
v -0.01956825 -0.01738677 0.00333389
v -0.03726664 -0.01175120 0.02728550
v -0.03853563 -0.00701522 0.02751801
v -0.01900450 -0.03682483 0.01453955
v -0.01928361 -0.03096377 0.00189679
v -0.02611807 -0.03263497 0.00688392
v -0.03109554 -0.02388357 0.00320826
v -0.03713925 -0.01904825 0.00675029
v -0.02964825 -0.02890240 0.01442152
v -0.03878679 -0.00686307 0.02605927
v -0.03851720 -0.01652173 0.01183397
v -0.03610431 -0.01536796 0.02729252
v -0.02262707 -0.03525363 0.00675260
v -0.02494934 -0.03011446 0.00316494
v -0.03170509 -0.02080000 0.00234268
v -0.03518336 -0.01677752 0.00299146
v -0.03346437 -0.02040486 0.00320108
v -0.03480387 -0.02381174 0.00725337
v -0.03350206 -0.02506549 0.01186370
v -0.02725709 -0.02863603 0.02593602
v -0.02244148 -0.03495191 0.01441216
v -0.03864819 -0.01657555 0.00834456
v -0.03977932 -0.01303644 0.01084227
v -0.03846401 -0.01555919 0.01445606
v -0.03452044 -0.01900473 0.02595069
v -0.02013996 -0.03386198 0.00330550
v -0.02130575 -0.03632458 0.00736761
v -0.02486347 -0.03260520 0.00573719
v -0.02293919 -0.02950852 0.00233077
v -0.04121217 -0.00805430 0.00830034
v -0.03298581 -0.01822548 0.00230961
v -0.03361579 -0.02384428 0.00573718
v -0.03585601 -0.02161606 0.00680420
v -0.02961045 -0.02630823 0.02466797
v -0.03349582 -0.02375716 0.01698141
v -0.03475162 -0.02386218 0.00836865
v -0.02860101 -0.02999689 0.01442888
v -0.02354079 -0.03122519 0.02723600
v -0.01998019 -0.03379288 0.02726423
v -0.03714426 -0.01300280 0.02598371
v -0.03858426 -0.00791092 0.02602121
v -0.03582482 -0.01645752 0.02595102
v -0.02133518 -0.03507614 0.00560812
v -0.02016246 -0.03654386 0.00671990
v -0.02125998 -0.03626906 0.01078100
v -0.02480675 -0.03383591 0.00722047
v -0.02042364 -0.03084618 0.00215018
v -0.03982568 -0.01303196 0.00831446
v -0.04120407 -0.00795967 0.00957463
v -0.02000067 -0.03630317 0.01443482
v -0.02111911 -0.03365559 0.02466881
v -0.02478623 -0.03384753 0.00958505
f 7 3 4
f 9 2 8
f 10 3 2
f 12 1 3
f 12 3 7
f 13 8 2
f 13 2 3
f 13 3 1
f 13 1 8
f 15 9 8
f 15 8 1
f 16 10 2
f 16 6 10
f 17 4 3
f 17 3 10
f 22 12 7
f 22 1 12
f 22 15 1
f 24 15 14
f 24 9 15
f 26 18 11
f 26 11 19
f 27 4 17
f 27 26 19
f 28 7 4
f 29 28 27
f 29 27 19
f 30 11 18
f 34 5 23
f 35 34 23
f 36 23 24
f 36 35 23
f 37 23 5
f 37 5 9
f 37 9 24
f 38 10 6
f 38 25 26
f 38 17 10
f 39 6 16
f 40 26 25
f 40 25 18
f 40 18 26
f 41 27 17
f 41 26 27
f 41 38 26
f 42 28 20
f 42 7 28
f 43 28 4
f 43 4 27
f 43 27 28
f 44 29 19
f 44 19 11
f 44 11 30
f 45 20 28
f 45 28 29
f 45 29 44
f 45 44 30
f 45 34 20
f 45 30 34
f 46 32 9
f 46 21 32
f 47 9 5
f 47 5 31
f 47 46 9
f 47 31 21
f 47 21 46
f 48 31 5
f 48 30 18
f 48 34 30
f 48 5 34
f 49 21 31
f 49 33 32
f 49 32 21
f 49 48 18
f 49 31 48
f 50 2 9
f 50 9 32
f 50 32 33
f 51 16 2
f 51 2 50
f 52 36 24
f 52 24 14
f 53 14 15
f 53 35 36
f 53 52 14
f 53 36 52
f 54 37 24
f 54 24 23
f 54 23 37
f 55 38 6
f 55 25 38
f 56 39 25
f 56 6 39
f 56 55 6
f 56 25 55
f 57 39 16
f 58 18 25
f 58 25 39
f 59 41 17
f 59 17 38
f 59 38 41
f 60 42 20
f 60 20 34
f 60 34 35
f 60 35 42
f 61 22 7
f 61 7 42
f 61 42 35
f 61 35 53
f 61 53 15
f 61 15 22
f 62 51 33
f 62 16 51
f 62 57 16
f 62 33 57
f 63 51 50
f 63 50 33
f 63 33 51
f 64 58 39
f 64 39 57
f 64 57 33
f 64 33 49
f 64 49 18
f 64 18 58

