# https://github.com/mikedh/trimesh
v 0.02834738 -0.01887948 0.05288769
v 0.03460946 -0.01189329 0.04148477
v 0.00893215 -0.02969801 0.04572738
v 0.01310628 -0.03391764 0.02263757
v 0.02816592 -0.02889738 0.02216081
v 0.03283147 -0.01251872 0.02773700
v 0.03046653 -0.01256514 0.04205132
v 0.03320430 -0.02283415 0.02218632
v 0.01087370 -0.03391728 0.05269642
v 0.00896590 -0.02985114 0.04397823
v 0.03551446 -0.01178126 0.03629512
v 0.03024077 -0.01914901 0.04773466
v 0.01436377 -0.03772414 0.02214588
v 0.02995681 -0.02049093 0.02260187
v 0.00895020 -0.03275148 0.05268129
v 0.03707805 -0.01186540 0.02735765
v 0.03520464 -0.01651392 0.02851523
v 0.03072647 -0.01809760 0.04784170
v 0.02694527 -0.02289044 0.05270649
v 0.02914336 -0.02777527 0.02212640
v 0.02048435 -0.02875382 0.05272700
v 0.00851037 -0.03591552 0.04154404
v 0.03445065 -0.02059423 0.02220603
v 0.00845632 -0.03439999 0.05281497
v 0.03686692 -0.01180320 0.02860144
v 0.03395615 -0.01400421 0.04136739
v 0.03287875 -0.02255457 0.02469212
v 0.02171293 -0.03386353 0.02211067
v 0.02803631 -0.02873705 0.02341559
v 0.00880510 -0.03214656 0.04200391
v 0.01233242 -0.03840623 0.02230505
v 0.03494019 -0.01955807 0.02229951
v 0.00836892 -0.03529827 0.04527043
v 0.03674402 -0.01305391 0.02729924
v 0.03132175 -0.01903648 0.04261837
v 0.03262120 -0.02034719 0.03235787
f 7 1 2
f 10 6 4
f 10 7 6
f 10 3 7
f 11 7 2
f 11 6 7
f 14 4 6
f 15 7 3
f 15 1 7
f 16 14 6
f 18 2 1
f 19 18 1
f 19 12 18
f 20 19 5
f 20 8 19
f 21 19 1
f 23 13 4
f 23 4 14
f 23 20 13
f 23 8 20
f 24 1 15
f 24 21 1
f 24 9 21
f 24 15 3
f 25 16 6
f 25 6 11
f 25 11 2
f 25 2 16
f 26 2 18
f 27 19 8
f 27 12 19
f 27 8 23
f 28 20 5
f 28 13 20
f 28 5 21
f 28 21 9
f 28 9 13
f 29 21 5
f 29 5 19
f 29 19 21
f 30 10 4
f 31 4 13
f 31 24 22
f 31 13 9
f 31 9 24
f 31 30 4
f 31 22 30
f 32 23 14
f 32 14 16
f 32 17 26
f 33 24 3
f 33 22 24
f 33 30 22
f 33 3 10
f 33 10 30
f 34 26 17
f 34 16 2
f 34 2 26
f 34 32 16
f 34 17 32
f 35 26 18
f 35 18 12
f 35 32 26
f 35 23 32
f 36 27 23
f 36 23 35
f 36 35 12
f 36 12 27

