# https://github.com/mikedh/trimesh
v 0.03158665 0.01658935 0.05267444
v 0.03434920 -0.00795050 0.05273751
v 0.03540871 0.01049279 0.04141017
v 0.02774418 0.01787965 0.04227358
v 0.02451535 -0.01895053 0.04608045
v 0.03306835 0.01665763 0.04142206
v 0.03404455 0.01043533 0.05268822
v 0.02755514 -0.02212671 0.05289182
v 0.02597051 0.01760133 0.04601302
v 0.03199851 -0.01809058 0.04146217
v 0.02956936 0.01751349 0.05264819
v 0.03532784 0.00310300 0.04906975
v 0.03430571 0.01431841 0.04142625
v 0.02924315 -0.02010946 0.05287466
v 0.02578371 0.01756536 0.04373336
v 0.02781247 -0.02236971 0.04803963
v 0.02729818 -0.01915193 0.04183637
v 0.03540093 -0.00919469 0.04140773
v 0.03532659 0.00678369 0.04776518
v 0.03282980 0.01407869 0.05266506
v 0.03279715 -0.01293215 0.05268875
v 0.02445509 -0.01891812 0.04387610
v 0.02838578 -0.02175506 0.04787032
v 0.03536474 -0.00183513 0.04913686
v 0.03427171 -0.01305539 0.04143122
v 0.02802637 -0.02160811 0.05282456
v 0.03527498 -0.00658781 0.04649091
f 9 5 8
f 11 6 4
f 11 1 6
f 11 4 9
f 11 9 8
f 11 8 1
f 12 7 2
f 13 6 1
f 13 7 3
f 13 3 6
f 14 2 7
f 14 7 1
f 14 1 8
f 15 9 4
f 15 5 9
f 17 4 6
f 17 6 10
f 17 10 16
f 18 10 6
f 18 6 3
f 19 3 7
f 19 7 12
f 20 13 1
f 20 1 7
f 20 7 13
f 21 14 10
f 21 2 14
f 22 16 8
f 22 8 5
f 22 17 16
f 22 5 15
f 22 15 4
f 22 4 17
f 23 8 16
f 23 16 10
f 24 18 3
f 24 12 2
f 24 19 12
f 24 3 19
f 25 18 2
f 25 2 21
f 25 21 10
f 25 10 18
f 26 14 8
f 26 8 23
f 26 23 10
f 26 10 14
f 27 24 2
f 27 2 18
f 27 18 24

