# https://github.com/mikedh/trimesh
v 0.04020506 0.01203859 0.00832990
v 0.04059631 -0.01044443 0.00829569
v 0.03741045 0.00689066 0.00225402
v 0.02270296 0.01215719 0.00038504
v 0.02279783 -0.01996576 0.00370495
v 0.03611528 0.01196004 0.00227959
v 0.04054729 0.00690388 0.00556271
v 0.03150865 -0.02044118 0.00762723
v 0.02275164 0.01217390 0.00295609
v 0.03124214 -0.01959430 0.00196615
v 0.03033763 0.00958872 0.00073116
v 0.03552359 0.01251406 0.00829904
v 0.04063944 0.01050485 0.00833680
v 0.03929762 -0.00792050 0.00430539
v 0.03926700 0.01176908 0.00559044
v 0.03801058 0.00919374 0.00305778
v 0.02269179 -0.01341292 0.00065619
v 0.02272924 -0.01983733 0.00097925
v 0.03716486 -0.01938703 0.00834157
v 0.02907775 0.01214176 0.00069582
v 0.03739324 -0.00441320 0.00221233
v 0.04053889 -0.00565402 0.00555159
v 0.04050728 0.01047056 0.00672427
v 0.03034477 -0.00188969 0.00074052
v 0.03697092 -0.01926131 0.00671598
v 0.03490986 -0.01447571 0.00230200
v 0.04043695 -0.01040996 0.00677384
v 0.02525321 -0.01212953 0.00072901
v 0.03796391 -0.00916311 0.00309447
v 0.03616085 -0.01066494 0.00228624
v 0.03409305 -0.01909769 0.00315379
v 0.03793234 -0.01785527 0.00829987
v 0.02397126 -0.01341074 0.00071442
v 0.03794092 -0.01545565 0.00562603
v 0.03917329 -0.01170088 0.00566090
v 0.03365653 -0.01695807 0.00231757
v 0.03547622 -0.01658463 0.00325130
v 0.03776647 -0.01771058 0.00671473
f 9 5 8
f 11 6 3
f 12 1 6
f 12 4 9
f 12 9 8
f 13 1 12
f 15 6 1
f 16 7 3
f 16 3 6
f 16 6 15
f 17 9 4
f 17 5 9
f 18 10 8
f 18 8 5
f 18 5 17
f 19 12 8
f 19 13 12
f 19 2 13
f 20 11 4
f 20 6 11
f 20 12 6
f 20 4 12
f 21 11 3
f 21 3 7
f 22 13 2
f 22 7 13
f 22 21 7
f 22 14 21
f 23 13 7
f 23 16 15
f 23 7 16
f 23 15 1
f 23 1 13
f 24 11 21
f 24 17 4
f 24 4 11
f 25 19 8
f 25 8 10
f 27 22 2
f 27 14 22
f 28 17 24
f 28 24 10
f 28 10 18
f 29 21 14
f 30 24 21
f 30 29 26
f 30 21 29
f 30 26 10
f 30 10 24
f 31 25 10
f 32 27 2
f 32 2 19
f 33 28 18
f 33 18 17
f 33 17 28
f 35 29 14
f 35 14 27
f 35 34 29
f 35 27 34
f 36 31 10
f 36 10 26
f 36 26 31
f 37 31 26
f 37 26 29
f 37 29 34
f 37 25 31
f 38 32 19
f 38 19 25
f 38 27 32
f 38 34 27
f 38 37 34
f 38 25 37

