# https://github.com/mikedh/trimesh
v 0.00870866 -0.03292920 0.05289370
v 0.02095503 -0.03428288 0.02224375
v 0.02161184 -0.02901992 0.02246230
v -0.01999717 -0.03203051 0.00792025
v -0.00769081 -0.04157340 0.00831862
v -0.01986751 -0.02927182 0.02763701
v 0.00698851 -0.04140634 0.01317150
v 0.02190861 -0.03070224 0.00794293
v 0.00893215 -0.02969801 0.04572738
v -0.00650969 -0.03446558 0.05311636
v -0.01868517 -0.03752710 0.01192605
v 0.00845632 -0.03439999 0.05281497
v 0.02100117 -0.03117988 0.00762927
v 0.02208796 -0.02964230 0.01745728
v 0.02087727 -0.03666043 0.00830153
v -0.02021407 -0.02973554 0.02387765
v 0.01281064 -0.03072584 0.04187167
v -0.00687210 -0.03084823 0.04588374
v -0.00030611 -0.04146585 0.01576325
v -0.01879145 -0.03767956 0.00832941
v -0.01902454 -0.03429032 0.02737046
v -0.01274157 -0.04002071 0.01316009
v -0.00287182 -0.03501282 0.05316303
v 0.00831717 -0.04147062 0.00832398
v 0.01336985 -0.04005833 0.01188121
v -0.00679592 -0.03297731 0.05271773
v 0.00575578 -0.03508484 0.05273269
v -0.01283085 -0.04039422 0.00830835
v -0.00666598 -0.03393385 0.05314744
v -0.01379854 -0.03883406 0.01828070
v -0.00633770 -0.04130791 0.01444992
v 0.01343048 -0.04022950 0.00836761
v 0.00471324 -0.04144122 0.01578218
v 0.00829403 -0.04141863 0.01083083
v 0.02068324 -0.03629213 0.01314155
v -0.00514604 -0.03521214 0.05269958
v -0.01626434 -0.03903344 0.00831330
v -0.00765042 -0.04143422 0.01196454
v -0.01607472 -0.03870701 0.01311871
v 0.01189540 -0.03511632 0.04135463
v -0.01267982 -0.03748864 0.02728657
v -0.01610751 -0.03611915 0.02593278
v 0.01428736 -0.03879635 0.01698966
v 0.01550011 -0.03871013 0.01439538
f 1 2 3
f 8 6 3
f 9 3 6
f 12 2 1
f 13 5 4
f 13 4 8
f 14 8 3
f 14 3 2
f 15 13 8
f 15 14 2
f 15 8 14
f 16 8 4
f 16 6 8
f 17 9 1
f 17 1 3
f 17 3 9
f 18 9 6
f 20 16 4
f 21 6 16
f 21 20 11
f 21 16 20
f 23 12 1
f 24 5 13
f 26 18 6
f 26 1 9
f 26 9 18
f 27 12 23
f 27 25 12
f 27 7 25
f 28 4 5
f 29 21 10
f 29 6 21
f 29 26 6
f 29 1 26
f 29 23 1
f 29 10 23
f 32 24 13
f 32 13 15
f 32 15 25
f 33 19 5
f 33 5 24
f 33 7 27
f 34 25 7
f 34 32 25
f 34 24 32
f 34 33 24
f 34 7 33
f 35 25 15
f 35 15 2
f 36 27 23
f 36 33 27
f 36 19 33
f 36 31 19
f 36 23 10
f 36 30 22
f 37 20 4
f 37 4 28
f 37 11 20
f 38 28 5
f 38 22 28
f 38 5 19
f 38 19 31
f 38 36 22
f 38 31 36
f 39 21 11
f 39 22 30
f 39 11 37
f 39 37 28
f 39 28 22
f 40 35 2
f 40 2 12
f 41 36 10
f 41 30 36
f 42 39 30
f 42 21 39
f 42 30 41
f 42 41 10
f 42 10 21
f 43 40 12
f 43 12 25
f 44 43 25
f 44 25 35
f 44 35 40
f 44 40 43

