# https://github.com/mikedh/trimesh
v 0.02299867 0.02263864 0.00348506
v 0.02087727 -0.03666043 0.00830153
v 0.02272924 -0.01983733 0.00097925
v -0.01948622 0.02238018 0.00049086
v -0.01999717 -0.03203051 0.00792025
v 0.02269375 0.02236600 0.00064886
v 0.02190861 -0.03070224 0.00794293
v -0.01953823 0.02242706 0.00296452
v -0.00789895 -0.03590536 0.00214633
v 0.01249403 -0.02237732 0.00068702
v 0.02174060 0.02273095 0.00321086
v 0.02095559 -0.03316231 0.00314360
v 0.02279783 -0.01996576 0.00370495
v -0.01879145 -0.03767956 0.00832941
v -0.01918782 -0.03199111 0.00227239
v 0.02268927 -0.01469276 0.00069771
v 0.00699142 -0.04131752 0.00686766
v 0.01227938 -0.03460944 0.00207887
v -0.01946909 -0.01850290 0.00070373
v -0.01909857 -0.03421842 0.00319281
v 0.01628487 -0.02105557 0.00072048
v 0.01559521 -0.03888336 0.00681204
v -0.00637541 -0.04139683 0.00680116
v 0.00831717 -0.04147062 0.00832398
v 0.02104033 -0.03080412 0.00230991
v 0.00480251 -0.02365883 0.00069363
v 0.00974139 -0.03824025 0.00346320
v -0.01436020 -0.02234081 0.00072631
v -0.01881677 -0.03766254 0.00743215
v -0.01283335 -0.03467986 0.00215659
v 0.02140992 -0.01722939 0.00074059
v 0.02075317 -0.03631292 0.00679832
v 0.01343048 -0.04022950 0.00836761
v 0.00830129 -0.04146665 0.00766433
v -0.00769081 -0.04157340 0.00831862
v 0.01603339 -0.03337934 0.00225003
v 0.00725858 -0.03592377 0.00212297
v -0.00543316 -0.02365814 0.00069327
v -0.01034588 -0.03810545 0.00344639
v 0.01213133 -0.04007820 0.00683179
v 0.01457165 -0.03676550 0.00345554
v -0.01691370 -0.02104479 0.00074375
v -0.01664379 -0.03326092 0.00228591
v 0.01883423 -0.01977977 0.00076051
v 0.01345853 -0.04020583 0.00760370
v -0.00766032 -0.04153477 0.00754234
v -0.01283085 -0.04039422 0.00830835
v -0.01400432 -0.03697810 0.00342090
v 0.00958899 -0.03888316 0.00424974
v 0.01434458 -0.03761146 0.00434938
v 0.01945942 -0.03506891 0.00432097
v -0.01281826 -0.04032497 0.00742337
v -0.01626434 -0.03903344 0.00831330
v -0.01881118 -0.03636612 0.00560446
v 0.01969206 -0.03410810 0.00334050
v -0.01020033 -0.03880372 0.00431598
v -0.01625240 -0.03897828 0.00735523
v -0.01152478 -0.04020647 0.00676065
v -0.01376225 -0.03890367 0.00568694
f 6 1 3
f 7 1 5
f 8 5 1
f 8 4 5
f 11 6 4
f 11 1 6
f 11 8 1
f 11 4 8
f 12 7 2
f 12 3 7
f 13 7 3
f 13 3 1
f 13 1 7
f 14 7 5
f 14 2 7
f 16 6 3
f 16 10 4
f 16 4 6
f 19 15 5
f 19 5 4
f 20 5 15
f 21 10 16
f 21 18 10
f 21 3 18
f 25 18 3
f 25 3 12
f 27 17 23
f 29 14 5
f 29 5 20
f 30 28 9
f 31 21 16
f 31 16 3
f 32 12 2
f 33 2 14
f 34 23 17
f 34 33 24
f 35 34 24
f 35 33 14
f 35 24 33
f 36 25 12
f 36 18 25
f 37 27 9
f 37 18 27
f 37 26 10
f 37 10 18
f 38 19 4
f 38 4 10
f 38 10 26
f 38 28 19
f 38 9 28
f 38 37 9
f 38 26 37
f 39 27 23
f 39 9 27
f 39 30 9
f 40 34 17
f 41 27 18
f 41 36 12
f 41 18 36
f 42 15 19
f 42 19 28
f 42 30 15
f 42 28 30
f 43 30 20
f 43 20 15
f 43 15 30
f 44 31 3
f 44 3 21
f 44 21 31
f 45 32 2
f 45 22 32
f 45 2 33
f 45 33 34
f 45 34 40
f 46 23 34
f 46 34 35
f 47 35 14
f 47 46 35
f 48 20 30
f 48 30 39
f 49 40 17
f 49 17 27
f 50 27 41
f 50 49 27
f 50 40 49
f 50 45 40
f 50 22 45
f 51 12 32
f 51 50 41
f 51 32 22
f 51 22 50
f 52 23 46
f 52 46 47
f 53 47 14
f 53 14 29
f 54 29 20
f 54 20 48
f 55 51 41
f 55 41 12
f 55 12 51
f 56 39 23
f 57 29 54
f 57 53 29
f 57 52 47
f 57 47 53
f 58 56 23
f 58 23 52
f 59 48 39
f 59 39 56
f 59 52 57
f 59 57 54
f 59 54 48
f 59 58 52
f 59 56 58

