# https://github.com/mikedh/trimesh
v -0.01811125 0.03110197 0.05272141
v -0.01768240 0.03153451 0.04912384
v -0.02741941 0.03125768 0.01317954
v -0.02683619 0.02595632 0.00175391
v -0.03390118 -0.01678637 0.01456443
v -0.01949770 0.03644472 0.01472393
v -0.03090481 -0.00739001 0.04573081
v -0.04121188 0.00803796 0.00830334
v -0.02660857 0.03191204 0.00631733
v -0.02721396 0.01985382 0.00080728
v -0.01910869 0.02992119 0.02772936
v -0.01771693 0.03416131 0.03377803
v -0.02152028 0.03542773 0.01453558
v -0.01899203 0.02592263 0.04367096
v -0.03493856 -0.00668601 0.05275625
v -0.02960980 0.02040598 0.05246546
v -0.02675910 0.02831154 0.00251556
v -0.03593541 0.02156377 0.00840418
v -0.02030098 0.03112124 0.01490502
v -0.03757354 0.01051712 0.00290694
v -0.01813151 0.03499144 0.02750949
v -0.01995789 0.03012408 0.05263347
v -0.03079643 -0.00740016 0.04383774
v -0.01909043 0.02605587 0.04556332
v -0.04135431 -0.00689476 0.00831039
v -0.03524315 -0.01746924 0.02248783
v -0.03301001 -0.00730589 0.05248162
v -0.03218231 0.01529851 0.05270923
v -0.03350495 0.02507867 0.00716282
v -0.03547066 0.01448741 0.00228308
v -0.03860766 0.01650186 0.00671105
v -0.02364509 0.03389261 0.01447793
v -0.02468862 0.02641960 0.05269725
v -0.04115145 -0.00181389 0.01449949
v -0.04023941 0.01058170 0.00649572
v -0.02978535 0.01089161 0.00069518
v -0.03783562 -0.01682454 0.01455906
v -0.03479176 0.00792043 0.05273428
v -0.03851956 0.01665477 0.01195082
v -0.02751926 0.03125674 0.00645730
v -0.03345013 0.02506818 0.01186514
v -0.03167258 0.02195180 0.00232419
v -0.03615142 0.01534900 0.00301817
v -0.03716845 0.01900743 0.00652150
v -0.02581413 0.02511804 0.05271078
v -0.04109962 -0.00690170 0.01191677
v -0.04118998 0.00805099 0.00961712
v -0.03852482 0.01430836 0.00563340
v -0.03997326 0.01176066 0.00663936
v -0.03565628 0.01072287 0.00184830
v -0.03689088 -0.00722431 0.00805257
v -0.03639694 -0.01673558 0.02221615
v -0.03592055 0.02162141 0.01069276
v -0.03979085 0.01298099 0.01069922
v -0.03230599 0.02634168 0.00655735
v -0.02855689 0.03011883 0.01446652
v -0.02798789 0.02585018 0.00212709
v -0.03231977 0.02265198 0.00324816
v -0.02966992 0.02889314 0.01444420
v -0.03878507 -0.01440269 0.01451361
v -0.04105678 0.00304422 0.01448471
v -0.03731903 0.01174447 0.00304101
v -0.03721601 0.01550323 0.00441381
v -0.03979109 0.01301035 0.00835489
f 10 4 6
f 12 1 2
f 13 1 6
f 13 9 3
f 13 6 9
f 14 5 11
f 14 12 2
f 14 11 12
f 17 9 6
f 17 6 4
f 19 10 6
f 19 5 10
f 19 11 5
f 21 6 1
f 21 1 12
f 21 19 6
f 21 12 11
f 21 11 19
f 22 1 13
f 23 14 7
f 23 7 5
f 23 5 14
f 24 14 2
f 24 2 1
f 24 1 7
f 24 7 14
f 26 5 7
f 27 7 1
f 27 1 15
f 27 26 7
f 27 15 26
f 32 22 13
f 32 13 3
f 32 3 22
f 33 22 3
f 33 1 22
f 35 25 8
f 35 20 25
f 36 10 5
f 37 5 26
f 38 15 1
f 38 34 15
f 39 28 16
f 39 38 28
f 40 3 9
f 40 9 17
f 42 4 10
f 42 10 30
f 43 30 20
f 43 42 30
f 44 31 18
f 44 18 29
f 44 43 31
f 45 16 28
f 45 1 33
f 45 38 1
f 45 28 38
f 45 41 16
f 46 34 25
f 46 15 34
f 47 8 25
f 47 25 34
f 48 35 31
f 48 20 35
f 49 35 8
f 49 31 35
f 50 36 25
f 50 25 20
f 50 20 30
f 50 30 10
f 50 10 36
f 51 36 5
f 51 25 36
f 51 37 25
f 51 5 37
f 52 37 26
f 52 26 15
f 52 15 37
f 53 18 31
f 53 31 39
f 53 39 16
f 53 16 41
f 53 41 29
f 53 29 18
f 54 39 31
f 54 8 47
f 54 47 38
f 54 38 39
f 55 40 17
f 55 29 41
f 55 44 29
f 56 33 3
f 56 55 41
f 56 3 40
f 56 40 55
f 57 42 17
f 57 17 4
f 57 4 42
f 58 42 43
f 58 43 44
f 58 44 55
f 58 55 17
f 58 17 42
f 59 45 33
f 59 41 45
f 59 56 41
f 59 33 56
f 60 37 15
f 60 15 46
f 60 46 25
f 60 25 37
f 61 47 34
f 61 34 38
f 61 38 47
f 62 43 20
f 62 20 48
f 63 48 31
f 63 31 43
f 63 62 48
f 63 43 62
f 64 49 8
f 64 31 49
f 64 54 31
f 64 8 54

