# https://github.com/mikedh/trimesh
v 0.03494019 -0.01955807 0.02229951
v 0.03577777 -0.01934168 0.01838949
v 0.02150676 -0.01994117 0.00360789
v 0.02145411 -0.01984527 0.00090449
v 0.02109575 -0.03578581 0.00632978
v 0.03028613 -0.02890788 0.01313618
v 0.02095503 -0.03428288 0.02224375
v 0.03524261 -0.02287002 0.01187729
v 0.02221577 -0.02853243 0.02261239
v 0.02089450 -0.03413953 0.00407743
v 0.03029308 -0.02637698 0.02209932
v 0.02302288 -0.03498580 0.01307771
v 0.03516670 -0.02160284 0.01570129
v 0.03581016 -0.01932248 0.00534655
v 0.02995681 -0.02049093 0.02260187
v 0.02085293 -0.03538742 0.01709871
v 0.02680810 -0.02997483 0.02211074
v 0.03397211 -0.02157959 0.02212478
v 0.03409488 -0.02383262 0.01441352
v 0.02811656 -0.03119715 0.00693267
v 0.03698630 -0.01930684 0.01197193
v 0.03115983 -0.02081602 0.00218910
v 0.02186700 -0.03488077 0.01689287
v 0.02801440 -0.02992345 0.01825235
v 0.02171293 -0.03386353 0.02211067
v 0.03019664 -0.02760137 0.01822534
v 0.03158458 -0.02766693 0.01185874
v 0.02303214 -0.03515771 0.00694617
v 0.02796066 -0.03112762 0.01310864
v 0.03535451 -0.02298563 0.00735242
v 0.03649336 -0.02034934 0.01187873
v 0.02113695 -0.02966043 0.00193169
v 0.03124214 -0.01959430 0.00196615
v 0.02682600 -0.02882508 0.00329266
v 0.03042147 -0.02900830 0.00694220
v 0.03716107 -0.01936607 0.00720186
v 0.02095559 -0.03316231 0.00314360
v 0.03357117 -0.01948386 0.00282408
v 0.02608414 -0.02700909 0.00233309
v 0.02186473 -0.03281761 0.00338956
v 0.03162733 -0.02775782 0.00719075
v 0.03420187 -0.02287257 0.00560988
v 0.03284964 -0.02162658 0.00322724
v 0.02793712 -0.02770101 0.00330337
v 0.02234239 -0.02956420 0.00221100
v 0.02172352 -0.03381684 0.00436769
v 0.02680704 -0.03003517 0.00451792
v 0.03546659 -0.02043168 0.00562351
v 0.03436689 -0.02414827 0.00684372
v 0.02732436 -0.02576968 0.00236551
v 0.03041206 -0.02771705 0.00577633
f 1 2 3
f 3 2 4
f 7 3 4
f 9 7 1
f 9 3 7
f 13 2 1
f 14 4 2
f 15 9 1
f 15 1 3
f 15 3 9
f 16 7 4
f 16 4 10
f 16 10 5
f 16 5 12
f 17 11 1
f 17 1 7
f 18 1 11
f 18 13 1
f 18 8 13
f 19 18 11
f 19 8 18
f 21 14 2
f 23 16 12
f 23 7 16
f 24 11 17
f 24 17 12
f 25 17 7
f 25 12 17
f 25 23 12
f 25 7 23
f 26 19 11
f 26 24 6
f 26 11 24
f 27 8 19
f 27 26 6
f 27 19 26
f 28 20 12
f 28 12 5
f 28 5 10
f 29 12 20
f 29 24 12
f 29 6 24
f 30 8 27
f 31 13 8
f 31 21 2
f 31 2 13
f 33 32 4
f 35 27 6
f 35 20 34
f 35 29 20
f 35 6 29
f 36 14 21
f 36 21 31
f 36 31 8
f 36 8 30
f 37 10 4
f 37 4 32
f 38 33 4
f 38 4 14
f 38 22 33
f 39 33 22
f 39 32 33
f 39 34 37
f 40 37 34
f 40 10 37
f 41 30 27
f 41 27 35
f 42 36 30
f 43 22 38
f 43 38 14
f 43 14 42
f 44 34 39
f 44 22 43
f 44 35 34
f 45 39 37
f 45 37 32
f 45 32 39
f 46 40 28
f 46 28 10
f 46 10 40
f 47 40 34
f 47 34 20
f 47 20 28
f 47 28 40
f 48 42 14
f 48 14 36
f 48 36 42
f 49 42 30
f 49 30 41
f 49 41 35
f 50 44 39
f 50 39 22
f 50 22 44
f 51 44 43
f 51 43 42
f 51 42 49
f 51 49 35
f 51 35 44

