# https://github.com/mikedh/trimesh
v -0.00654566 0.03568869 0.04790946
v 0.01891597 0.02756345 0.04165306
v 0.01210423 0.04012066 0.00642515
v -0.00799952 0.03394030 0.00081995
v -0.01849525 0.02657885 0.04353300
v 0.01992986 0.03349638 0.00251240
v -0.01274710 0.04015285 0.00843252
v 0.01304063 0.03501837 0.04137642
v -0.01869094 0.02953081 0.04773544
v 0.00590529 0.03835291 0.00221945
v 0.02036278 0.03163853 0.00831095
v 0.00572137 0.04140090 0.01448879
v -0.01987355 0.03201154 0.00828629
v 0.01812407 0.03245216 0.04140044
v -0.01869181 0.02684243 0.04595960
v -0.01780147 0.03174091 0.04785879
v 0.01735183 0.03343844 0.00187524
v 0.01213411 0.03768797 0.00294722
v -0.00627604 0.04148142 0.00639985
v 0.02089846 0.02973598 0.02001893
v 0.01552081 0.03876592 0.01317429
v 0.00458411 0.03759959 0.03883713
v -0.01922278 0.03717907 0.00837882
v -0.02021323 0.02969454 0.02385110
v -0.01246993 0.03497421 0.04394368
v 0.01103206 0.03704661 0.00221524
v 0.00580109 0.04019294 0.00425529
v 0.01554094 0.03884426 0.00641845
v 0.00706595 0.04139557 0.00645309
v -0.00511121 0.04150549 0.01452118
v -0.00652794 0.03831253 0.00227094
v 0.02027195 0.02893916 0.02756955
v 0.02092259 0.03105553 0.01233310
v 0.01208412 0.04004153 0.01318971
v 0.01941294 0.03629425 0.01575479
v 0.00831876 0.03635582 0.04141474
v -0.01914993 0.03449226 0.02741802
v -0.01369371 0.03375046 0.04774703
v 0.01466984 0.03576295 0.00227664
v 0.00702678 0.03898579 0.00298904
v 0.00956372 0.04018520 0.00553121
v 0.01430653 0.03890949 0.00564197
v -0.00762838 0.04141225 0.00844847
v 0.00353966 0.03763474 0.03884976
v -0.01023126 0.03492844 0.04777817
v -0.01274810 0.04004921 0.01192599
v -0.00785628 0.03721006 0.00190836
v -0.00762783 0.03884117 0.00301062
v -0.00634126 0.04008316 0.00431436
v 0.01963264 0.03414453 0.02735854
v 0.00697593 0.04130496 0.01319148
v 0.01806086 0.03745406 0.01316417
v 0.01936543 0.03625605 0.00562362
v 0.01083055 0.03618463 0.03882442
v -0.01366346 0.03876436 0.01835364
v 0.01558289 0.03633484 0.00313053
v 0.01722187 0.03445966 0.00228319
v -0.00515897 0.03760003 0.03753060
v -0.01251066 0.03622863 0.03627375
v -0.01617179 0.03881224 0.01074053
v -0.00759961 0.04131165 0.01191318
v -0.01768293 0.03796546 0.00842119
v 0.01806995 0.03751279 0.00642223
v -0.01749974 0.03237885 0.04522357
f 9 2 1
f 13 4 11
f 14 8 1
f 14 1 2
f 15 5 2
f 15 2 9
f 16 9 1
f 17 11 4
f 17 6 11
f 20 13 11
f 20 5 13
f 21 8 14
f 23 4 13
f 24 13 5
f 24 5 15
f 24 15 9
f 24 23 13
f 26 17 4
f 26 4 10
f 26 10 18
f 28 3 21
f 29 27 19
f 30 29 19
f 30 12 29
f 31 27 10
f 32 2 5
f 32 5 20
f 33 20 11
f 33 11 6
f 34 8 21
f 34 21 3
f 34 3 29
f 36 22 1
f 36 1 8
f 36 12 22
f 37 9 16
f 37 24 9
f 37 23 24
f 39 26 18
f 39 17 26
f 40 18 10
f 40 10 27
f 41 3 18
f 41 40 27
f 41 18 40
f 41 29 3
f 41 27 29
f 42 18 3
f 42 3 28
f 43 30 19
f 43 19 7
f 44 22 12
f 44 12 30
f 44 1 22
f 45 1 30
f 45 25 38
f 45 38 16
f 45 16 1
f 46 43 7
f 47 4 23
f 47 31 10
f 47 10 4
f 48 7 19
f 48 47 23
f 48 31 47
f 49 19 27
f 49 27 31
f 49 48 19
f 49 31 48
f 50 32 20
f 50 14 2
f 50 2 32
f 50 20 33
f 50 33 35
f 50 21 14
f 51 34 29
f 51 29 12
f 52 28 21
f 52 50 35
f 52 21 50
f 53 35 33
f 53 33 6
f 53 42 28
f 54 36 8
f 54 8 34
f 54 34 51
f 54 51 12
f 54 12 36
f 55 38 25
f 56 39 18
f 56 6 39
f 56 18 42
f 56 53 6
f 56 42 53
f 57 39 6
f 57 6 17
f 57 17 39
f 58 44 30
f 58 30 1
f 58 1 44
f 59 45 30
f 59 30 46
f 59 25 45
f 59 55 25
f 59 46 55
f 60 46 7
f 60 55 46
f 60 23 37
f 61 46 30
f 61 30 43
f 61 43 46
f 62 48 23
f 62 7 48
f 62 60 7
f 62 23 60
f 63 52 35
f 63 35 53
f 63 53 28
f 63 28 52
f 64 16 38
f 64 38 55
f 64 55 60
f 64 60 37
f 64 37 16

