# https://github.com/mikedh/trimesh
v -0.01898474 0.03673810 0.01455454
v -0.00800386 0.02242569 0.00295279
v -0.00771630 0.04045101 0.00530838
v -0.02675369 0.02712073 0.00206568
v -0.02736104 0.02510308 0.01476120
v -0.00797302 0.03254689 0.00067869
v -0.02244525 0.03517782 0.00639711
v -0.00834141 0.03671200 0.00815239
v -0.02030098 0.03112124 0.01490502
v -0.02721396 0.01985382 0.00080728
v -0.00799379 0.02239675 0.00015614
v -0.01160312 0.03703206 0.00224834
v -0.01513237 0.03926947 0.00842149
v -0.02648272 0.03171056 0.01454987
v -0.00792540 0.04133132 0.00835425
v -0.02680757 0.02572607 0.01489042
v -0.02737480 0.01999041 0.00406648
v -0.01817449 0.02872732 0.00076560
v -0.00785628 0.03721006 0.00190836
v -0.01949153 0.01982642 0.00039572
v -0.01397184 0.03896970 0.00548192
v -0.02007740 0.03387293 0.00298865
v -0.02221817 0.03497416 0.01444620
v -0.02316062 0.02890276 0.01496901
v -0.02611621 0.03252634 0.00717813
v -0.02629614 0.03150617 0.00554683
v -0.01155652 0.04044263 0.00841999
v -0.01953755 0.01986315 0.00295465
v -0.02584765 0.02107885 0.00076929
v -0.01178064 0.03253162 0.00078439
v -0.02151217 0.03194231 0.00226727
v -0.01275824 0.03757587 0.00298403
v -0.01502992 0.03904560 0.00636557
v -0.02004372 0.03501962 0.00439129
v -0.01999298 0.03622967 0.01448182
v -0.02611109 0.03250893 0.01189621
v -0.02356411 0.03380168 0.00571813
v -0.02585487 0.01980550 0.00071169
v -0.02422775 0.02957131 0.00216989
v -0.01433679 0.03126037 0.00079325
v -0.02638786 0.02905384 0.00297271
v -0.01018002 0.04005910 0.00560490
v -0.01151601 0.04025597 0.00641725
v -0.01493110 0.03761229 0.00434492
v -0.02211653 0.01987114 0.00296666
v -0.02364758 0.03140191 0.00315730
f 9 2 8
f 11 3 2
f 15 8 2
f 15 2 3
f 15 9 8
f 15 1 9
f 16 5 2
f 16 2 9
f 16 14 5
f 17 5 4
f 17 4 10
f 18 6 11
f 19 11 6
f 19 3 11
f 20 11 2
f 20 18 11
f 23 13 7
f 23 14 1
f 24 9 1
f 24 1 14
f 24 16 9
f 24 14 16
f 26 4 5
f 26 5 14
f 26 14 25
f 26 25 7
f 27 13 1
f 27 1 15
f 28 2 5
f 28 5 17
f 28 20 2
f 29 10 4
f 29 4 18
f 29 18 20
f 30 6 18
f 30 19 6
f 30 12 19
f 31 22 12
f 32 12 22
f 32 19 12
f 32 3 19
f 33 7 13
f 34 22 7
f 34 33 21
f 34 7 33
f 35 23 1
f 35 1 13
f 35 13 23
f 36 23 7
f 36 7 25
f 36 25 14
f 36 14 23
f 37 26 7
f 37 7 22
f 38 17 10
f 38 20 28
f 38 29 20
f 38 10 29
f 39 31 18
f 39 18 4
f 40 30 18
f 40 18 31
f 40 31 12
f 40 12 30
f 41 31 39
f 41 39 4
f 41 4 26
f 42 32 21
f 42 3 32
f 43 33 13
f 43 13 27
f 43 27 15
f 43 15 3
f 43 3 42
f 43 42 21
f 43 21 33
f 44 32 22
f 44 22 34
f 44 34 21
f 44 21 32
f 45 38 28
f 45 28 17
f 45 17 38
f 46 22 31
f 46 31 41
f 46 37 22
f 46 41 26
f 46 26 37

