# https://github.com/mikedh/trimesh
v 0.02419060 -0.00764098 0.05822220
v 0.03478176 -0.01280379 0.04575682
v 0.03316191 -0.00811843 0.04863318
v 0.00188552 -0.03677502 0.03857297
v 0.01692837 -0.03099189 0.05061784
v 0.03351914 -0.01887485 0.03842789
v 0.02247656 -0.00826362 0.05555371
v 0.03360478 -0.01236087 0.04988506
v 0.00188789 -0.02312246 0.05861555
v 0.03083588 -0.01952907 0.03862371
v 0.01943591 -0.03357376 0.03819719
v 0.03153126 -0.00772962 0.05308156
v 0.02762098 -0.02047985 0.05164425
v 0.03087662 -0.01918686 0.04878346
v 0.01569786 -0.02009632 0.05794966
v 0.00180438 -0.03603235 0.04990002
v 0.00189989 -0.02358016 0.05545688
v 0.02147616 -0.00845133 0.05821948
v 0.00180065 -0.03875095 0.03830445
v 0.03119717 -0.01468292 0.05162809
v 0.03339007 -0.01582875 0.04667608
v 0.03002958 -0.02415164 0.03819703
v 0.02390407 -0.02730120 0.04862964
v 0.00861306 -0.02374422 0.05812230
v 0.02149010 -0.01425744 0.05789773
v 0.01949509 -0.02651975 0.05271933
v 0.01224607 -0.03561865 0.04416129
v 0.00190386 -0.02270867 0.05696136
v 0.03245148 -0.02065517 0.03822131
v 0.00181047 -0.02518593 0.05796391
v 0.03142708 -0.00887670 0.05293382
v 0.03101097 -0.01695875 0.05065681
v 0.03209941 -0.01925691 0.04419747
v 0.03358723 -0.01593314 0.04551988
v 0.03327657 -0.01456074 0.04881517
v 0.02290694 -0.03115098 0.03814168
v 0.02860656 -0.02157178 0.04987315
v 0.01806654 -0.03197691 0.04760947
v 0.00767520 -0.03356170 0.05172254
v 0.02367426 -0.00991023 0.05794106
v 0.03001039 -0.01699711 0.05159657
v 0.02175739 -0.02646880 0.05158256
v 0.01465024 -0.03111801 0.05166239
v 0.01118833 -0.03716336 0.03823638
v 0.00410697 -0.03693438 0.04660928
v 0.00194210 -0.02266841 0.05772785
v 0.02173029 -0.00853299 0.05638815
v 0.00178894 -0.03713775 0.04669278
v 0.00410941 -0.02491534 0.05799543
v 0.03212469 -0.01461440 0.05070892
v 0.03084280 -0.02038921 0.04660783
v 0.03211909 -0.02045026 0.04059783
v 0.03098936 -0.01807188 0.04983210
v 0.00535049 -0.03842041 0.03823814
v 0.02611279 -0.02615142 0.04649405
v 0.02874702 -0.02047067 0.05065602
v 0.02151511 -0.02856726 0.04977127
v 0.02152745 -0.02968079 0.04765798
v 0.01696104 -0.03447501 0.04050349
v 0.00992949 -0.03456581 0.04975622
v 0.00181368 -0.03276037 0.05296959
v 0.02040872 -0.02867592 0.05064623
v 0.01013110 -0.03138864 0.05277637
v 0.01475396 -0.03590650 0.03820953
f 6 3 2
f 7 1 3
f 7 3 4
f 8 2 3
f 10 6 4
f 10 4 3
f 10 3 6
f 12 8 3
f 12 3 1
f 15 1 9
f 17 7 4
f 18 9 1
f 18 1 7
f 19 17 4
f 24 15 9
f 25 15 13
f 25 1 15
f 26 13 15
f 28 7 17
f 29 19 4
f 29 4 6
f 30 17 19
f 30 28 17
f 30 9 28
f 31 12 1
f 31 1 20
f 31 20 8
f 31 8 12
f 34 6 2
f 34 2 21
f 34 33 6
f 34 21 33
f 35 21 2
f 35 2 8
f 35 14 21
f 36 29 22
f 40 25 20
f 40 20 1
f 40 1 25
f 41 25 13
f 41 20 25
f 41 32 20
f 42 13 26
f 42 37 13
f 43 26 15
f 43 15 24
f 45 44 27
f 46 28 9
f 46 9 18
f 46 18 28
f 47 28 18
f 47 18 7
f 47 7 28
f 48 30 19
f 48 16 30
f 48 45 16
f 48 19 45
f 49 24 9
f 49 9 30
f 49 39 24
f 50 8 20
f 50 20 32
f 50 35 8
f 51 33 21
f 51 21 14
f 51 14 37
f 52 29 6
f 52 6 33
f 52 33 51
f 52 51 22
f 52 22 29
f 53 14 35
f 53 37 14
f 53 50 32
f 53 35 50
f 54 19 29
f 54 29 36
f 54 45 19
f 54 44 45
f 55 36 22
f 55 22 51
f 55 51 37
f 55 37 23
f 56 13 37
f 56 41 13
f 56 32 41
f 56 53 32
f 56 37 53
f 57 5 38
f 57 23 37
f 57 37 42
f 58 57 38
f 58 23 57
f 58 55 23
f 58 36 55
f 58 38 11
f 58 11 36
f 59 38 27
f 59 11 38
f 60 38 5
f 60 27 38
f 60 43 39
f 60 5 43
f 60 45 27
f 60 39 16
f 60 16 45
f 61 30 16
f 61 16 39
f 61 49 30
f 61 39 49
f 62 42 26
f 62 57 42
f 62 5 57
f 62 43 5
f 62 26 43
f 63 43 24
f 63 24 39
f 63 39 43
f 64 36 11
f 64 11 59
f 64 59 27
f 64 27 44
f 64 54 36
f 64 44 54

