# https://github.com/mikedh/trimesh
v 0.03526412 -0.01853864 0.01658593
v 0.03480238 -0.01942663 0.01663708
v 0.02347873 -0.01861942 0.00290222
v -0.01865586 -0.01871290 0.00170566
v -0.01907738 -0.03261758 0.01516229
v 0.02680309 -0.01836900 0.00429598
v -0.01896091 -0.01897390 0.00398990
v 0.00652157 -0.03580987 0.00771752
v 0.00670337 -0.01883516 0.00061718
v 0.03486404 -0.01833392 0.01435308
v -0.01923919 -0.02045588 0.00444110
v -0.01468142 -0.03238574 0.00683104
v 0.01828218 -0.02885968 0.00578485
v 0.01125662 -0.03835843 0.01549074
v 0.01872272 -0.01867487 0.00178395
v 0.03440894 -0.01930896 0.01446944
v -0.01828154 -0.02887502 0.00564283
v -0.00537411 -0.03040068 0.00331115
v 0.02069863 -0.02530317 0.00464773
v 0.02184492 -0.03368249 0.01662618
v -0.00528128 -0.03938399 0.01443855
v 0.01689057 -0.03332419 0.00909270
v -0.00906326 -0.01880600 0.00062637
v 0.03098173 -0.02039314 0.00906540
v -0.01847350 -0.02440721 0.00331303
v -0.01812982 -0.03464037 0.01223708
v -0.00646973 -0.03583428 0.00769112
v 0.01018085 -0.02920444 0.00339296
v -0.01344138 -0.03007946 0.00451593
v 0.02330691 -0.01966466 0.00319321
v -0.01858606 -0.03538264 0.01534680
v 0.02859969 -0.02745918 0.01438693
v 0.00416388 -0.03817421 0.01105903
v 0.01114583 -0.03694907 0.01126278
v 0.01122541 -0.03241633 0.00563448
v -0.01018255 -0.02576815 0.00209441
v 0.03265681 -0.01841165 0.00977778
v 0.02744510 -0.02389319 0.00794421
v -0.01860388 -0.02099984 0.00216678
v -0.01688268 -0.03327262 0.00895265
v -0.00646978 -0.03360465 0.00558722
v -0.00878693 -0.03804781 0.01222192
v 0.01728686 -0.02552158 0.00342651
v 0.00540049 -0.02695753 0.00210087
v -0.01697830 -0.03117887 0.00683495
v -0.01714337 -0.02790311 0.00452140
v 0.02299035 -0.02531524 0.00573210
v -0.00531758 -0.03960068 0.01544339
v -0.01813880 -0.03337065 0.01009529
v 0.03330635 -0.02158798 0.01557584
v 0.02991717 -0.02645890 0.01666599
v 0.03091630 -0.02274035 0.01122545
v 0.02277999 -0.03212559 0.01343968
v 0.00182355 -0.03704178 0.00892747
v 0.01119691 -0.03466463 0.00782699
v 0.00877543 -0.03690090 0.01010009
v 0.01007050 -0.03817343 0.01338590
v 0.01704859 -0.03566222 0.01339447
v 0.01466213 -0.03234840 0.00689366
v 0.00655257 -0.03353422 0.00558040
v -0.00905187 -0.01994159 0.00073368
v -0.01360800 -0.02801889 0.00346080
v 0.02871650 -0.02055155 0.00664123
v 0.03229042 -0.01940004 0.01004750
f 5 2 1
f 7 5 1
f 7 1 4
f 10 6 4
f 10 4 1
f 11 7 4
f 11 5 7
f 15 6 3
f 16 10 1
f 16 1 2
f 17 5 11
f 23 15 9
f 23 4 6
f 23 6 15
f 25 17 11
f 30 3 6
f 31 20 2
f 31 2 5
f 37 6 10
f 39 25 11
f 39 11 4
f 40 12 27
f 41 8 27
f 41 29 18
f 41 27 12
f 41 12 29
f 42 40 27
f 42 26 40
f 42 31 26
f 43 19 13
f 43 35 28
f 43 13 35
f 43 30 19
f 43 28 15
f 43 15 3
f 43 3 30
f 44 28 18
f 44 9 15
f 44 15 28
f 44 18 36
f 45 29 12
f 45 17 29
f 45 12 40
f 46 29 17
f 46 17 25
f 47 30 6
f 47 19 30
f 47 13 19
f 47 38 22
f 47 22 13
f 48 14 20
f 48 20 31
f 48 21 33
f 48 42 21
f 48 31 42
f 49 26 31
f 49 40 26
f 49 45 40
f 49 17 45
f 49 31 5
f 49 5 17
f 50 16 2
f 51 2 20
f 51 20 32
f 51 50 2
f 51 32 50
f 52 50 32
f 52 16 50
f 52 38 24
f 52 32 38
f 53 32 20
f 53 38 32
f 53 22 38
f 54 27 8
f 54 8 33
f 54 42 27
f 54 33 21
f 54 21 42
f 55 22 34
f 55 8 35
f 56 33 8
f 56 55 34
f 56 8 55
f 57 56 34
f 57 33 56
f 57 48 33
f 57 14 48
f 58 20 14
f 58 57 34
f 58 14 57
f 58 53 20
f 58 34 22
f 58 22 53
f 59 35 13
f 59 13 22
f 59 55 35
f 59 22 55
f 60 35 8
f 60 18 28
f 60 28 35
f 60 41 18
f 60 8 41
f 61 4 23
f 61 44 36
f 61 23 9
f 61 9 44
f 61 39 4
f 61 36 39
f 62 39 36
f 62 25 39
f 62 46 25
f 62 29 46
f 62 36 18
f 62 18 29
f 63 37 24
f 63 6 37
f 63 24 38
f 63 47 6
f 63 38 47
f 64 37 10
f 64 10 16
f 64 16 52
f 64 52 24
f 64 24 37

