# https://github.com/mikedh/trimesh
v 0.03384281 -0.01836455 0.03826184
v 0.03756442 -0.01251520 0.02981607
v 0.00188552 -0.03677502 0.03857297
v 0.00188823 -0.03775753 0.01515567
v 0.02518499 -0.03109163 0.01663664
v 0.03539893 -0.01303634 0.01637068
v 0.03538829 -0.01302745 0.02995185
v 0.03342988 -0.02172649 0.01664814
v 0.02162517 -0.03213363 0.03811341
v 0.03083588 -0.01952907 0.03862371
v 0.03458548 -0.01935922 0.02974573
v 0.03780423 -0.01258195 0.01657568
v 0.01965975 -0.03222462 0.01493353
v 0.00774028 -0.03948461 0.02374247
v 0.03102302 -0.02282069 0.03816466
v 0.01475396 -0.03590650 0.03820953
v 0.03581655 -0.01698006 0.02976474
v 0.01953467 -0.03489534 0.01545129
v 0.00180559 -0.03963755 0.03102323
v 0.03328795 -0.02049073 0.03454750
v 0.02626610 -0.02980940 0.02974275
v 0.03720040 -0.01360445 0.02977178
v 0.03705761 -0.01466453 0.01665261
v 0.03100820 -0.02512416 0.01669692
v 0.01590154 -0.03696431 0.02494887
v 0.00652037 -0.03936428 0.01547315
v 0.00180065 -0.03875095 0.03830445
v 0.03333448 -0.01927325 0.03816708
v 0.02744286 -0.02734934 0.03690068
v 0.02976248 -0.02633498 0.02973247
v 0.03693899 -0.01464895 0.02851926
v 0.01117049 -0.03817508 0.03098067
v 0.01931679 -0.03450613 0.03333901
v 0.01125662 -0.03835843 0.01549074
v 0.00181400 -0.03981459 0.01545635
v 0.01118833 -0.03716336 0.03823638
v 0.03212684 -0.02157684 0.03694426
v 0.02860525 -0.02617612 0.03694731
v 0.02387478 -0.03095018 0.03567024
v 0.03334632 -0.02166311 0.02851999
v 0.02509116 -0.03105055 0.02851093
v 0.03095773 -0.02516347 0.02733559
v 0.01465257 -0.03689675 0.03217982
v 0.01237837 -0.03820283 0.02614115
v 0.00652258 -0.03825535 0.03821374
v 0.02041503 -0.03324490 0.03689643
v 0.01585673 -0.03697115 0.01779341
v 0.00772166 -0.03950024 0.01895544
v 0.03091546 -0.02392766 0.03451553
v 0.02160257 -0.03327774 0.03210005
v 0.02050926 -0.03456771 0.02614692
v 0.01233726 -0.03699122 0.03693262
v 0.01702628 -0.03572490 0.03336502
v 0.00418904 -0.03949078 0.03101253
v 0.00885647 -0.03816165 0.03579846
v 0.01811584 -0.03570095 0.01554966
v 0.01236072 -0.03814895 0.01664577
v 0.03212969 -0.02276351 0.03211567
v 0.02404700 -0.03217634 0.01781835
v 0.02399622 -0.03217488 0.02616128
v 0.01584576 -0.03569228 0.03692790
v 0.01815046 -0.03569414 0.02853798
v 0.00656216 -0.03948688 0.02738987
v 0.02051390 -0.03450807 0.01668557
f 6 4 3
f 7 1 2
f 7 6 3
f 7 2 6
f 10 7 3
f 10 1 7
f 12 6 2
f 13 4 6
f 13 12 8
f 13 6 12
f 15 10 9
f 15 1 10
f 16 10 3
f 16 9 10
f 17 1 11
f 17 11 8
f 18 13 8
f 20 11 1
f 22 2 1
f 22 1 17
f 23 17 8
f 23 8 12
f 24 18 8
f 24 5 18
f 26 4 13
f 27 3 4
f 28 20 1
f 28 1 15
f 30 29 21
f 31 12 2
f 31 2 22
f 31 23 12
f 31 22 17
f 31 17 23
f 34 26 13
f 34 13 18
f 35 4 26
f 35 27 4
f 35 19 27
f 35 14 19
f 36 16 3
f 36 3 27
f 37 28 15
f 37 20 28
f 38 15 9
f 38 9 29
f 38 29 30
f 39 29 9
f 39 21 29
f 40 11 20
f 40 8 11
f 41 30 21
f 41 21 39
f 42 5 24
f 42 24 8
f 42 8 40
f 42 41 5
f 42 30 41
f 44 32 14
f 44 43 32
f 44 25 43
f 45 36 27
f 46 9 16
f 47 25 44
f 48 26 34
f 48 35 26
f 48 14 35
f 48 44 14
f 49 20 37
f 49 37 15
f 49 38 30
f 49 15 38
f 50 41 39
f 50 46 33
f 50 39 9
f 50 9 46
f 51 25 47
f 51 50 33
f 52 36 32
f 52 32 43
f 52 43 16
f 52 16 36
f 54 45 27
f 54 27 19
f 55 32 36
f 55 36 45
f 55 45 54
f 56 34 18
f 57 47 44
f 57 56 47
f 57 34 56
f 57 48 34
f 57 44 48
f 58 40 20
f 58 20 49
f 58 42 40
f 58 49 30
f 58 30 42
f 60 41 50
f 60 50 51
f 60 51 59
f 60 59 5
f 60 5 41
f 61 16 43
f 61 43 53
f 61 46 16
f 61 53 33
f 61 33 46
f 62 53 43
f 62 43 25
f 62 25 51
f 62 51 33
f 62 33 53
f 63 54 19
f 63 19 14
f 63 14 32
f 63 55 54
f 63 32 55
f 64 51 47
f 64 47 56
f 64 56 18
f 64 59 51
f 64 18 5
f 64 5 59

