# https://github.com/mikedh/trimesh
v 0.00188789 -0.02312246 0.05861555
v 0.00181764 -0.03044270 0.05423306
v 0.00189989 -0.02358016 0.05545688
v -0.03339235 -0.01640760 0.04573080
v -0.01944878 -0.02660709 0.05272152
v 0.00189765 -0.03147006 0.05137572
v -0.01963131 -0.01333450 0.05597967
v -0.00854652 -0.02364024 0.05817103
v -0.03074400 -0.01697783 0.04600166
v -0.01877043 -0.03213825 0.04571450
v 0.00192251 -0.03047796 0.05185092
v -0.03023438 -0.01600603 0.05189205
v -0.00532501 -0.03037849 0.05404217
v 0.00181047 -0.02518593 0.05796391
v -0.01959241 -0.01320352 0.05851560
v -0.01786738 -0.03023597 0.04588320
v -0.02842870 -0.02261352 0.04875345
v -0.01486118 -0.02915171 0.05289422
v -0.01829134 -0.03130502 0.04898547
v -0.00409509 -0.02492197 0.05798757
v -0.01959036 -0.01601908 0.05855063
v -0.03258713 -0.01601147 0.04897749
v -0.02046918 -0.03114497 0.04543066
v -0.03241753 -0.01825464 0.04551335
v -0.02760935 -0.02050242 0.05172238
v -0.01002810 -0.02912901 0.05396713
v -0.01551814 -0.01995070 0.05824964
v -0.01827225 -0.02894746 0.05176758
v -0.03135565 -0.01594386 0.05094577
v -0.02384252 -0.02731713 0.04875114
v -0.02034502 -0.03090607 0.04654072
v -0.02744502 -0.02514948 0.04538647
v -0.03200615 -0.01805297 0.04772540
v -0.02995388 -0.01705248 0.05165105
v -0.02045626 -0.02758775 0.05159188
v -0.02967402 -0.02028925 0.04977309
v -0.02147551 -0.02973676 0.04767421
v -0.02614051 -0.02612418 0.04653102
v -0.03085402 -0.02035524 0.04661650
v -0.02031454 -0.02960779 0.04969281
v -0.03104156 -0.01695335 0.05068680
v -0.03214624 -0.01701376 0.04885563
v -0.01916987 -0.03086168 0.04874296
v -0.02725347 -0.02496060 0.04651969
v -0.02633745 -0.02631248 0.04539237
v -0.03101965 -0.02047354 0.04549707
v -0.02975061 -0.01930050 0.05057095
f 7 1 3
f 9 7 3
f 9 4 7
f 11 1 2
f 11 2 6
f 11 3 1
f 11 9 3
f 11 6 9
f 13 6 2
f 14 2 1
f 15 1 7
f 16 9 6
f 16 6 10
f 19 10 6
f 19 6 13
f 19 13 18
f 20 14 1
f 20 1 8
f 20 8 13
f 20 13 2
f 20 2 14
f 21 8 1
f 21 1 15
f 21 15 12
f 22 15 7
f 22 7 4
f 23 16 10
f 24 4 9
f 24 9 16
f 24 16 23
f 25 5 21
f 26 18 13
f 26 13 8
f 26 8 18
f 27 18 8
f 27 21 5
f 27 8 21
f 28 19 18
f 28 27 5
f 28 18 27
f 29 12 15
f 29 15 22
f 30 25 17
f 31 23 10
f 32 24 23
f 33 22 4
f 33 4 24
f 34 25 21
f 34 21 12
f 34 12 29
f 35 28 5
f 35 5 25
f 35 25 30
f 36 17 25
f 37 23 31
f 38 30 17
f 38 37 30
f 39 36 33
f 39 17 36
f 39 33 24
f 40 35 30
f 40 19 28
f 40 28 35
f 40 30 37
f 41 29 22
f 41 34 29
f 42 22 33
f 42 33 36
f 42 41 22
f 42 36 41
f 43 37 31
f 43 40 37
f 43 19 40
f 43 31 10
f 43 10 19
f 44 38 17
f 44 39 32
f 44 17 39
f 45 32 23
f 45 23 37
f 45 37 38
f 45 44 32
f 45 38 44
f 46 39 24
f 46 24 32
f 46 32 39
f 47 41 36
f 47 36 25
f 47 25 34
f 47 34 41

