# https://github.com/mikedh/trimesh
v 0.02655857 0.03004687 0.01663252
v 0.03857908 -0.01004950 0.01664372
v 0.03241538 0.01000390 0.00559526
v 0.01153894 0.02118264 0.00120148
v 0.01130376 0.03864771 0.01659898
v 0.02236825 -0.01871581 0.00257435
v 0.01942022 0.02765439 0.00564198
v 0.03834034 0.01117771 0.01667692
v 0.03233471 -0.00996561 0.00543320
v 0.02702484 0.00780607 0.00208917
v 0.01287361 0.01161585 0.00247376
v 0.03259158 -0.01904359 0.01643167
v 0.03213409 0.02050794 0.01013311
v 0.02053343 0.03335146 0.01235765
v 0.01127114 0.03026074 0.00432233
v 0.03824680 -0.00173422 0.01115460
v 0.03597367 -0.01710289 0.01667026
v 0.01241595 0.03830349 0.01664124
v 0.01280252 0.01157148 0.00036909
v 0.02706298 -0.00778109 0.00213236
v 0.03255721 -0.00178504 0.00441601
v 0.02553278 0.01716407 0.00347901
v 0.02296390 -0.01930909 0.00554900
v 0.01171051 0.02154019 0.00338474
v 0.03693655 0.01000329 0.01113261
v 0.03487902 0.01954828 0.01662076
v 0.02281313 0.03109375 0.01128115
v 0.01140650 0.02344216 0.00182574
v 0.01343052 0.03571676 0.01020976
v 0.03973555 -0.00413416 0.01670357
v 0.03572035 -0.01344211 0.01115176
v 0.03221085 -0.01819240 0.00901001
v 0.02053657 0.03467234 0.01662852
v 0.01640159 0.01514743 0.00075481
v 0.02791392 -0.01372768 0.00333160
v 0.02233044 -0.01506230 0.00182876
v 0.03033022 0.00652566 0.00330504
v 0.03587170 -0.00288187 0.00772552
v 0.03109951 0.01700813 0.00688795
v 0.03944615 0.00294838 0.01441154
v 0.03207552 0.02165923 0.01117702
v 0.03686141 0.01339379 0.01341330
v 0.02889255 0.02054564 0.00690784
v 0.02631863 0.02977572 0.01443774
v 0.01984652 0.01965344 0.00219758
v 0.01345974 0.03127684 0.00572530
v 0.02049898 0.03105200 0.00917267
v 0.01129891 0.03621956 0.00979557
v 0.01463581 0.03686179 0.01343247
v 0.03815443 -0.00882115 0.01338090
v 0.03526412 -0.01853864 0.01658593
v 0.03355140 -0.01348869 0.00789417
v 0.02883869 -0.01826811 0.00565611
v 0.01276858 0.01637883 0.00060722
v 0.01764108 0.01153551 0.00062978
v 0.03024172 -0.00653766 0.00332663
v 0.02349312 -0.01502200 0.00208454
v 0.03253573 0.00296872 0.00444310
v 0.03017122 0.01238669 0.00448820
v 0.03359259 -0.00408376 0.00548973
v 0.03585099 0.00414460 0.00778631
v 0.03458442 0.01357815 0.00902642
v 0.03820564 0.00877847 0.01341153
v 0.03946597 -0.00175193 0.01435343
f 17 5 12
f 18 8 1
f 18 5 17
f 19 11 4
f 19 6 11
f 23 11 6
f 23 5 11
f 23 12 5
f 24 11 5
f 24 5 4
f 24 4 11
f 26 1 8
f 28 4 5
f 28 5 15
f 30 17 2
f 30 18 17
f 30 8 18
f 32 12 23
f 33 18 1
f 36 6 19
f 37 20 10
f 40 8 30
f 42 26 8
f 42 41 26
f 42 13 41
f 43 13 39
f 43 39 22
f 43 22 7
f 43 41 13
f 43 27 41
f 44 27 14
f 44 41 27
f 44 1 26
f 44 26 41
f 44 33 1
f 44 14 33
f 45 4 28
f 45 34 4
f 45 22 10
f 45 10 34
f 45 7 22
f 45 28 15
f 45 15 7
f 46 7 15
f 47 46 29
f 47 7 46
f 47 43 7
f 47 27 43
f 47 29 14
f 47 14 27
f 48 15 5
f 48 46 15
f 48 29 46
f 49 14 29
f 49 33 14
f 49 18 33
f 49 5 18
f 49 48 5
f 49 29 48
f 50 30 2
f 50 2 17
f 50 17 31
f 50 38 16
f 50 31 38
f 51 17 12
f 51 12 32
f 51 32 31
f 51 31 17
f 52 31 32
f 52 38 31
f 52 9 38
f 53 32 23
f 53 23 6
f 53 6 35
f 53 52 32
f 53 35 9
f 53 9 52
f 54 19 4
f 54 4 34
f 55 54 34
f 55 19 54
f 55 36 19
f 55 20 36
f 55 34 10
f 55 10 20
f 56 9 35
f 56 35 20
f 56 37 21
f 56 20 37
f 57 35 6
f 57 6 36
f 57 36 20
f 57 20 35
f 58 37 3
f 58 21 37
f 58 38 21
f 59 3 37
f 59 39 3
f 59 22 39
f 59 37 10
f 59 10 22
f 60 38 9
f 60 21 38
f 60 56 21
f 60 9 56
f 61 16 38
f 61 40 16
f 61 25 40
f 61 38 58
f 61 58 3
f 62 3 39
f 62 61 3
f 62 25 61
f 62 39 13
f 62 42 25
f 62 13 42
f 63 40 25
f 63 8 40
f 63 42 8
f 63 25 42
f 64 40 30
f 64 16 40
f 64 50 16
f 64 30 50

