# https://github.com/mikedh/trimesh
v -0.03349095 -0.01074920 0.04607259
v -0.01826385 -0.03248152 0.04550367
v -0.03606546 0.00673058 0.03845605
v -0.03944579 0.00651843 0.01547314
v -0.03340349 -0.02175684 0.01665408
v -0.01976030 -0.03246096 0.01623961
v -0.03813153 -0.00642825 0.03818757
v -0.01930970 -0.02925608 0.04597473
v -0.03083435 -0.02158796 0.04297387
v -0.03729429 0.00673434 0.01523192
v -0.02394092 -0.03219578 0.02373816
v -0.03590216 -0.01004483 0.04544966
v -0.03823687 0.00528676 0.03819946
v -0.03944239 -0.00767428 0.01895818
v -0.02857250 -0.02387931 0.04537987
v -0.01862931 -0.03552236 0.01653580
v -0.03717016 0.00693082 0.03001481
v -0.03457751 -0.01451411 0.01495071
v -0.02972691 -0.02628117 0.02974544
v -0.03797443 0.00662893 0.03837937
v -0.03575856 -0.01691798 0.03095122
v -0.03945987 0.00298013 0.03095623
v -0.02384373 -0.02855249 0.04538063
v -0.03321606 -0.01689099 0.04543026
v -0.01834603 -0.03498665 0.03341353
v -0.02513189 -0.03113548 0.01663247
v -0.03949514 -0.00530757 0.01548228
v -0.02859267 -0.02627475 0.03695084
v -0.03940915 0.00648819 0.02733319
v -0.03324559 -0.02046601 0.03454061
v -0.03329297 -0.02164842 0.02734041
v -0.03813173 -0.01233337 0.01779397
v -0.03688594 -0.01224975 0.03694926
v -0.03944450 -0.00412090 0.02976446
v -0.03951446 -0.00177428 0.03098632
v -0.03435051 -0.01452193 0.04539384
v -0.02045056 -0.03455455 0.02374453
v -0.02038565 -0.03324912 0.03694748
v -0.03634281 -0.01606233 0.01541466
v -0.03091430 -0.02520209 0.01662301
v -0.02624228 -0.02979199 0.02975073
v -0.03084509 -0.02278940 0.03933049
v -0.02504812 -0.02852811 0.04174858
v -0.03823179 0.00644110 0.03699236
v -0.03449782 -0.01688479 0.03940710
v -0.03453867 -0.01927510 0.02977300
v -0.03207515 -0.02276708 0.03217088
v -0.03823310 -0.01119341 0.01543085
v -0.03685434 -0.01108804 0.03938223
v -0.03814760 -0.01115295 0.02857234
v -0.03949538 -0.00649796 0.01665727
v -0.03944907 -0.00645070 0.02612503
v -0.02045981 -0.03451472 0.01668341
v -0.01828948 -0.03372365 0.04061690
v -0.01917061 -0.03198755 0.04537988
v -0.02160227 -0.03332986 0.03095607
v -0.03818303 -0.01232233 0.02012793
v -0.03089098 -0.02517874 0.02614715
v -0.02850749 -0.02509068 0.04174831
v -0.02508958 -0.02974204 0.03694364
v -0.03447195 -0.01805316 0.03578033
v -0.03558090 -0.01341841 0.04180919
v -0.03561975 -0.01577714 0.03578647
v -0.03323083 -0.01915263 0.03935216
f 8 3 1
f 10 8 6
f 10 3 8
f 13 7 12
f 15 8 1
f 16 8 2
f 16 6 8
f 17 10 4
f 17 3 10
f 18 10 6
f 18 6 16
f 20 12 1
f 20 1 3
f 20 13 12
f 20 3 17
f 23 2 8
f 23 8 15
f 24 15 1
f 24 9 15
f 25 16 2
f 27 4 10
f 27 10 18
f 29 20 17
f 29 17 4
f 29 4 22
f 35 7 13
f 35 13 22
f 35 34 7
f 35 22 4
f 35 4 27
f 36 24 1
f 36 1 12
f 37 16 25
f 39 18 16
f 39 16 26
f 39 5 21
f 40 39 26
f 40 5 39
f 41 26 11
f 41 28 19
f 42 15 9
f 43 23 15
f 44 29 22
f 44 22 13
f 44 13 20
f 44 20 29
f 45 24 36
f 46 21 5
f 46 5 31
f 46 30 21
f 47 46 31
f 47 30 46
f 47 42 30
f 47 19 28
f 47 28 42
f 48 32 14
f 48 39 32
f 48 27 18
f 48 18 39
f 49 12 7
f 49 7 33
f 50 21 33
f 50 33 7
f 51 35 27
f 51 48 14
f 51 27 48
f 52 34 35
f 52 14 50
f 52 50 7
f 52 7 34
f 52 51 14
f 52 35 51
f 53 26 16
f 53 16 37
f 53 37 11
f 53 11 26
f 54 38 25
f 54 25 2
f 55 2 23
f 55 23 38
f 55 54 2
f 55 38 54
f 56 37 25
f 56 25 38
f 56 11 37
f 56 41 11
f 57 39 21
f 57 32 39
f 57 21 50
f 57 50 14
f 57 14 32
f 58 40 26
f 58 31 5
f 58 5 40
f 58 47 31
f 58 19 47
f 58 41 19
f 58 26 41
f 59 42 28
f 59 15 42
f 59 43 15
f 59 28 43
f 60 43 28
f 60 28 41
f 60 38 23
f 60 23 43
f 60 56 38
f 60 41 56
f 61 21 30
f 62 45 36
f 62 49 33
f 62 36 12
f 62 12 49
f 63 33 21
f 63 61 45
f 63 21 61
f 63 62 33
f 63 45 62
f 64 30 42
f 64 42 9
f 64 9 24
f 64 24 45
f 64 61 30
f 64 45 61

