# https://github.com/mikedh/trimesh
v 0.01263659 0.02941850 0.05338522
v 0.01865867 0.02943471 0.05130452
v 0.00179626 0.03718274 0.04670738
v -0.01231194 0.03828724 0.01657633
v -0.01279908 0.03604256 0.01646953
v 0.01587221 0.03700277 0.01661973
v 0.01228348 0.03338673 0.05060399
v 0.01686055 0.03432126 0.01633668
v -0.01270295 0.03212293 0.05157909
v 0.00657591 0.03951025 0.02734060
v 0.01477480 0.03122064 0.05165745
v 0.01813059 0.03441453 0.03932042
v 0.01727069 0.02926415 0.05209146
v 0.01585423 0.03477792 0.01625402
v -0.01136819 0.03179569 0.05218991
v -0.01231377 0.03564760 0.04424152
v 0.00774644 0.03951091 0.01664479
v -0.00411134 0.03953023 0.02977127
v 0.01137477 0.03041942 0.05308986
v 0.01700958 0.03119799 0.05063490
v 0.01231147 0.03816577 0.02730868
v 0.01119496 0.03690863 0.04071758
v 0.01863664 0.03543273 0.02983759
v 0.01961143 0.03079277 0.04113545
v 0.01249109 0.03028131 0.05292164
v -0.00767532 0.03951515 0.01659582
v 0.00182079 0.03403735 0.05205168
v -0.00521824 0.03570633 0.04986061
v -0.01319015 0.03589373 0.02512192
v 0.01241595 0.03830349 0.01664124
v 0.00178421 0.03951419 0.03095115
v -0.01108623 0.03812059 0.02971446
v 0.01459583 0.03445193 0.04647890
v 0.01817665 0.03219186 0.04770546
v 0.01701677 0.02997046 0.05169806
v 0.00773214 0.03948022 0.02496133
v 0.01003560 0.03819928 0.03343387
v 0.01588591 0.03694568 0.02612962
v 0.01357857 0.03692503 0.03580675
v 0.01921524 0.03282205 0.02994151
v 0.00178860 0.03603171 0.04987727
v 0.01147586 0.02951664 0.05357086
v -0.01223242 0.03450646 0.04874605
v -0.00635737 0.03693930 0.04546500
v -0.00762943 0.03361295 0.05172630
v -0.01231948 0.03818689 0.02493219
v -0.01318094 0.03343267 0.04353554
v -0.00052070 0.03830278 0.04070671
v 0.00534912 0.03819427 0.03945420
v -0.00177485 0.03952989 0.03097821
v 0.00649043 0.03692261 0.04544114
v 0.01816846 0.03113893 0.04982961
v 0.01696605 0.03331624 0.04646229
v 0.01699437 0.03570942 0.03465658
v 0.01469109 0.03561984 0.04185113
v 0.01462408 0.03693823 0.03223414
v 0.01950710 0.03208636 0.03491438
v -0.00412264 0.03703098 0.04664862
v -0.00991296 0.03563173 0.04774926
v -0.00879787 0.03822948 0.03459991
v -0.01117401 0.03250453 0.05172651
v -0.01100929 0.03438998 0.04971754
v -0.01231752 0.03688528 0.03690030
v -0.00766434 0.03946763 0.02373018
f 13 1 5
f 13 5 8
f 14 8 5
f 14 6 8
f 15 9 5
f 15 5 1
f 19 11 7
f 20 7 11
f 23 8 6
f 24 13 8
f 24 2 13
f 24 23 12
f 25 13 11
f 25 1 13
f 25 19 1
f 25 11 19
f 26 14 5
f 26 5 4
f 26 17 14
f 26 18 17
f 27 19 7
f 29 4 5
f 30 6 14
f 30 14 17
f 34 24 12
f 34 2 24
f 35 13 2
f 35 2 20
f 35 20 11
f 35 11 13
f 36 17 10
f 36 30 17
f 36 21 30
f 37 36 10
f 37 21 36
f 38 23 6
f 38 30 21
f 38 6 30
f 39 37 22
f 39 21 37
f 40 24 8
f 40 8 23
f 41 27 7
f 41 28 27
f 42 27 15
f 42 15 1
f 42 1 19
f 42 19 27
f 45 15 27
f 45 27 28
f 46 4 29
f 47 29 5
f 47 5 9
f 47 43 16
f 47 9 43
f 49 10 31
f 49 37 10
f 49 22 37
f 49 48 3
f 49 31 48
f 50 31 10
f 50 48 31
f 50 18 48
f 50 10 17
f 50 17 18
f 51 33 22
f 51 3 41
f 51 41 7
f 51 7 33
f 51 49 3
f 51 22 49
f 52 20 2
f 52 2 34
f 52 7 20
f 52 34 33
f 52 33 7
f 53 34 12
f 53 33 34
f 54 12 23
f 54 23 38
f 55 54 39
f 55 12 54
f 55 53 12
f 55 33 53
f 55 39 22
f 55 22 33
f 56 38 21
f 56 21 39
f 56 54 38
f 56 39 54
f 57 40 23
f 57 23 24
f 57 24 40
f 58 41 3
f 58 28 41
f 58 3 48
f 58 48 18
f 58 18 44
f 59 58 44
f 59 28 58
f 59 44 16
f 59 16 43
f 60 16 44
f 60 44 18
f 61 9 15
f 61 15 45
f 62 45 28
f 62 61 45
f 62 43 9
f 62 9 61
f 62 59 43
f 62 28 59
f 63 46 29
f 63 32 46
f 63 60 32
f 63 16 60
f 63 47 16
f 63 29 47
f 64 26 4
f 64 4 46
f 64 18 26
f 64 46 32
f 64 60 18
f 64 32 60

