# https://github.com/mikedh/trimesh
v -0.03636948 0.01047440 0.01515913
v -0.01862931 -0.03552236 0.01653580
v -0.01890642 0.01038204 0.00282748
v -0.02583975 0.01019423 0.00192006
v -0.03333009 -0.01461434 0.00794904
v -0.02027622 0.01045482 0.00299259
v -0.03648648 -0.01613259 0.01655451
v -0.03583231 0.00649221 0.00790565
v -0.01858562 -0.02335246 0.00291043
v -0.01888252 0.01037128 0.00066514
v -0.02972887 -0.02516629 0.01228364
v -0.03866978 0.01009098 0.01542307
v -0.03035384 -0.00535761 0.00330944
v -0.03817666 -0.00413992 0.01109677
v -0.01826829 -0.03131663 0.00768018
v -0.03326479 -0.01921311 0.01111332
v -0.02992626 -0.02641970 0.01667898
v -0.03601490 -0.01710982 0.01663747
v -0.01954983 -0.03503361 0.01661478
v -0.03591618 0.01000497 0.00893512
v -0.03243152 0.00533489 0.00446374
v -0.03011081 -0.01360862 0.00462885
v -0.01997658 -0.00423578 0.00072224
v -0.03812374 0.00532521 0.01110157
v -0.03962484 -0.00414600 0.01544203
v -0.03583564 -0.00528021 0.00776717
v -0.01830864 -0.03497877 0.01324261
v -0.01879959 0.00911634 0.00062243
v -0.02882675 -0.02063809 0.00682448
v -0.03685389 -0.01110616 0.01121023
v -0.03328411 -0.02169685 0.01553568
v -0.03447404 -0.01930160 0.01446392
v -0.02617304 -0.02975363 0.01434476
v -0.03816594 0.01002181 0.01327236
v -0.02920506 0.01010248 0.00323473
v -0.03142835 0.01000423 0.00446324
v -0.02340137 -0.01497927 0.00213016
v -0.02700532 -0.00661425 0.00207191
v -0.03698036 0.00887346 0.01008269
v -0.03960152 0.00534773 0.01544383
v -0.03459455 -0.01113952 0.00784821
v -0.03139492 -0.01006767 0.00453743
v -0.03249371 -0.00411700 0.00448559
v -0.03701962 0.00296184 0.00896633
v -0.01926217 -0.03450154 0.01339066
v -0.01861903 -0.01988396 0.00191424
v -0.01997476 0.00910137 0.00071241
v -0.03330582 -0.01812319 0.01008590
v -0.03105352 -0.01700254 0.00677438
v -0.02397509 -0.02752901 0.00807094
v -0.02309892 -0.02078379 0.00343643
v -0.03688715 -0.00877106 0.01013562
v -0.03815631 -0.00764594 0.01216842
v -0.03200824 -0.02275816 0.01335088
v -0.03340349 -0.02175684 0.01665408
v -0.03684213 -0.01456522 0.01439540
v -0.02513189 -0.03113548 0.01663247
v -0.02852403 -0.02745988 0.01438818
v -0.03035458 0.00657492 0.00332024
v -0.03351254 0.00648338 0.00553444
v -0.02580173 -0.01018409 0.00206296
v -0.03807091 0.00884324 0.01222270
v -0.03940175 0.00531622 0.01439683
v -0.03224979 -0.01467616 0.00683727
f 1 2 3
f 6 1 3
f 6 4 1
f 10 6 3
f 10 4 6
f 18 12 7
f 19 2 1
f 19 1 12
f 19 12 18
f 19 18 17
f 27 3 2
f 28 10 3
f 28 27 15
f 28 3 27
f 32 31 18
f 34 12 1
f 34 1 20
f 35 20 1
f 35 1 4
f 36 20 35
f 39 20 8
f 39 34 20
f 40 25 7
f 40 7 12
f 41 5 30
f 42 41 26
f 43 26 21
f 43 42 26
f 43 13 42
f 44 21 26
f 44 39 8
f 44 24 39
f 44 26 14
f 44 14 24
f 45 27 2
f 45 2 19
f 45 15 27
f 46 28 15
f 46 15 9
f 46 23 28
f 46 37 23
f 47 28 23
f 47 4 10
f 47 10 28
f 47 38 4
f 47 23 38
f 48 30 5
f 48 29 11
f 48 11 16
f 49 22 29
f 49 48 5
f 49 29 48
f 50 11 29
f 50 33 11
f 50 45 33
f 50 15 45
f 51 29 22
f 51 50 29
f 51 9 15
f 51 15 50
f 51 22 37
f 51 46 9
f 51 37 46
f 52 14 26
f 52 41 30
f 52 26 41
f 53 25 14
f 53 52 30
f 53 14 52
f 54 17 31
f 54 16 11
f 54 32 16
f 54 31 32
f 55 31 17
f 55 17 18
f 55 18 31
f 56 32 18
f 56 18 7
f 56 16 32
f 56 48 16
f 56 30 48
f 56 53 30
f 56 7 25
f 56 25 53
f 57 19 17
f 57 45 19
f 57 33 45
f 58 11 33
f 58 54 11
f 58 17 54
f 58 57 17
f 58 33 57
f 59 35 4
f 59 36 35
f 59 21 36
f 59 43 21
f 59 13 43
f 59 38 13
f 59 4 38
f 60 36 21
f 60 8 20
f 60 20 36
f 60 44 8
f 60 21 44
f 61 38 23
f 61 23 37
f 61 37 22
f 61 22 42
f 61 42 13
f 61 13 38
f 62 39 24
f 62 34 39
f 63 24 14
f 63 14 25
f 63 25 40
f 63 62 24
f 63 34 62
f 63 40 12
f 63 12 34
f 64 5 41
f 64 49 5
f 64 22 49
f 64 42 22
f 64 41 42

