# https://github.com/mikedh/trimesh
v -0.01256312 0.03654213 0.03831802
v -0.01304852 0.03435038 0.03856257
v -0.01323041 0.03584584 0.01627512
v -0.02918477 0.01808278 0.00862332
v -0.03693190 0.01114170 0.03820556
v -0.03282041 0.01057198 0.00866859
v -0.01241702 0.03734685 0.03345141
v -0.03101357 0.02280443 0.03818588
v -0.03568445 0.01814921 0.01663030
v -0.03597650 0.00700517 0.03863566
v -0.02158503 0.03213354 0.03816657
v -0.03961540 0.00650230 0.01663269
v -0.03452565 0.01580278 0.01006624
v -0.03452343 0.01932009 0.03096916
v -0.03337610 0.01927986 0.03816323
v -0.01811406 0.03449868 0.03695735
v -0.02398970 0.03224255 0.01663474
v -0.03816615 0.01234173 0.02371215
v -0.03841856 0.00647722 0.03580243
v -0.03718840 0.00697800 0.01498977
v -0.03640184 0.01016615 0.00969177
v -0.03797443 0.00662893 0.03837937
v -0.03558901 0.01578797 0.03571233
v -0.03333598 0.02048919 0.03453019
v -0.01469411 0.03580324 0.03816649
v -0.02740753 0.02852963 0.03088510
v -0.03086230 0.02390733 0.01232046
v -0.02167410 0.03327536 0.03219827
v -0.01268558 0.03815271 0.01649592
v -0.03813589 0.01231978 0.01658125
v -0.03570142 0.01812938 0.02491463
v -0.03964685 0.00649942 0.02375169
v -0.03810991 0.00996637 0.03217706
v -0.03336275 0.01816043 0.01007025
v -0.03939590 0.00667569 0.01530161
v -0.03814831 0.00881886 0.03453705
v -0.03448043 0.01813861 0.03571046
v -0.03564860 0.01460408 0.03815122
v -0.03211890 0.02161540 0.03693216
v -0.01345112 0.03699107 0.03339945
v -0.02731718 0.02735542 0.03687016
v -0.03093885 0.02520905 0.02728588
v -0.02380879 0.03093057 0.03567306
v -0.02392271 0.03215953 0.02615633
v -0.02583765 0.02825272 0.01069322
v -0.02050465 0.03462422 0.01669456
v -0.03694951 0.01580933 0.02010595
v -0.03941291 0.00765480 0.01666117
v -0.03696948 0.01461755 0.01436544
v -0.03569275 0.01701803 0.03093989
v -0.03943112 0.00765321 0.02373775
v -0.03688344 0.01345756 0.03337740
v -0.01582975 0.03575506 0.03583431
v -0.01575670 0.03694443 0.02489458
v -0.02970449 0.02510083 0.03570327
v -0.03092527 0.02389596 0.03453509
v -0.03328359 0.02156217 0.02971874
v -0.03093125 0.02518390 0.01556762
v -0.02498272 0.03104036 0.02849643
v -0.02268544 0.03211983 0.03447249
v -0.03106642 0.02284210 0.01121113
v -0.02048455 0.03452801 0.02491990
v -0.02639931 0.02877754 0.01229963
v -0.01579200 0.03700011 0.01661301
f 6 3 2
f 6 4 3
f 7 1 2
f 7 2 3
f 10 6 2
f 10 2 8
f 11 8 2
f 11 2 1
f 15 10 8
f 20 6 10
f 20 19 12
f 20 10 19
f 21 4 6
f 22 10 15
f 22 19 10
f 25 16 11
f 25 11 1
f 28 11 16
f 29 7 3
f 29 3 4
f 32 12 19
f 34 21 13
f 34 4 21
f 35 20 12
f 35 21 6
f 35 6 20
f 36 22 5
f 36 19 22
f 36 32 19
f 37 24 14
f 37 15 24
f 38 37 23
f 38 15 37
f 38 22 15
f 38 5 22
f 39 24 15
f 39 15 8
f 40 25 1
f 40 1 7
f 41 8 11
f 42 9 31
f 43 41 11
f 43 26 41
f 44 17 42
f 45 29 4
f 45 4 34
f 47 30 18
f 47 9 30
f 47 31 9
f 47 18 31
f 48 18 30
f 48 12 32
f 48 35 12
f 48 30 35
f 49 30 9
f 49 13 21
f 49 35 30
f 49 21 35
f 49 34 13
f 49 9 27
f 49 27 34
f 50 14 31
f 50 37 14
f 50 23 37
f 50 31 18
f 51 33 18
f 51 36 33
f 51 32 36
f 51 48 32
f 51 18 48
f 52 23 50
f 52 50 18
f 52 18 33
f 52 38 23
f 52 5 38
f 52 36 5
f 52 33 36
f 53 16 25
f 53 25 40
f 53 28 16
f 54 40 7
f 54 7 29
f 54 53 40
f 54 28 53
f 55 41 26
f 55 8 41
f 55 26 42
f 56 24 39
f 56 55 42
f 56 39 8
f 56 8 55
f 57 14 24
f 57 56 42
f 57 24 56
f 57 42 31
f 57 31 14
f 58 27 9
f 58 9 42
f 58 42 17
f 59 28 44
f 59 44 42
f 59 42 26
f 60 43 11
f 60 11 28
f 60 28 59
f 60 59 26
f 60 26 43
f 61 45 34
f 61 34 27
f 61 27 45
f 62 44 28
f 62 54 46
f 62 28 54
f 62 46 17
f 62 17 44
f 63 46 45
f 63 17 46
f 63 58 17
f 63 45 27
f 63 27 58
f 64 29 45
f 64 45 46
f 64 54 29
f 64 46 54

