# https://github.com/mikedh/trimesh
v 0.03242992 0.00060963 0.05318690
v 0.03693834 -0.00876993 0.04181209
v 0.03906471 0.00660730 0.02983164
v 0.03737542 0.00673608 0.01645022
v 0.02960551 -0.01946640 0.04473498
v 0.03826126 -0.01117244 0.01671198
v 0.03711119 0.00692031 0.03000112
v 0.03615443 0.00059971 0.04900557
v 0.02939603 -0.01933974 0.04593493
v 0.03950705 -0.00527889 0.02733094
v 0.03539893 -0.01303634 0.01637068
v 0.03508843 -0.01841083 0.02980114
v 0.03946383 0.00645837 0.01672319
v 0.03502943 0.00060518 0.05098285
v 0.03830091 -0.00290648 0.03940957
v 0.03614847 -0.01078511 0.01620982
v 0.03780423 -0.01258195 0.01657568
v 0.03209759 -0.01947452 0.03121721
v 0.03241146 -0.01822074 0.04549011
v 0.03820794 -0.01115527 0.02733863
v 0.03722198 0.00694165 0.02879130
v 0.03954842 0.00295549 0.02976592
v 0.03956441 -0.00529472 0.01664583
v 0.03394562 0.00057191 0.05210430
v 0.03697203 -0.00412420 0.04537907
v 0.03816786 -0.00760825 0.03579954
v 0.03251274 -0.01900089 0.02991338
v 0.03565594 -0.01461137 0.03815157
v 0.03173244 -0.01138869 0.05221238
v 0.03581655 -0.01698006 0.02976474
v 0.03954121 0.00647360 0.02492654
v 0.03951184 -0.00292449 0.02976012
v 0.03838901 0.00057463 0.03942962
v 0.03951189 -0.00645070 0.02494843
v 0.03825494 -0.00527968 0.03818944
v 0.03449153 -0.01113140 0.04885866
v 0.03459214 -0.01813791 0.03457649
v 0.03691075 -0.01228388 0.03575050
v 0.03362954 -0.00647121 0.05178700
v 0.03952802 0.00529412 0.02731834
v 0.03717094 0.00060248 0.04548439
v 0.03951097 -0.00644895 0.01782559
v 0.03818712 -0.00995000 0.03094985
v 0.03692169 -0.00645265 0.04414503
v 0.03561759 -0.01223544 0.04294070
v 0.03360478 -0.01236087 0.04988506
v 0.03579253 -0.00530190 0.04895261
v 0.03328443 -0.01809550 0.04178613
v 0.03571814 -0.01693702 0.03091413
v 0.03691014 -0.01111045 0.03816832
v 0.03697155 -0.01348063 0.03214167
v 0.03573601 -0.00764007 0.04777859
v 0.03448790 -0.01227034 0.04778113
v 0.03441724 -0.01458604 0.04422445
v 0.03252761 -0.01122542 0.05167148
v 0.03454426 -0.00644201 0.05078831
v 0.03335494 -0.01697736 0.04426207
v 0.03341445 -0.01117773 0.05073013
v 0.03442061 -0.01575241 0.04175261
f 7 1 3
f 7 4 1
f 9 1 4
f 11 9 4
f 11 5 9
f 14 8 3
f 16 11 4
f 17 12 11
f 17 11 16
f 18 12 5
f 18 5 11
f 19 9 5
f 19 5 12
f 20 17 6
f 21 7 3
f 21 3 13
f 21 13 4
f 21 4 7
f 23 6 17
f 23 17 16
f 23 16 4
f 23 4 13
f 24 14 3
f 24 3 1
f 27 18 11
f 27 11 12
f 27 12 18
f 29 1 9
f 29 9 19
f 30 12 17
f 30 17 20
f 31 13 3
f 31 23 13
f 31 22 23
f 32 23 22
f 33 22 3
f 33 32 22
f 33 15 32
f 34 20 6
f 34 32 10
f 34 23 32
f 35 15 25
f 35 2 26
f 35 32 15
f 35 26 10
f 35 10 32
f 37 19 12
f 39 24 1
f 39 1 29
f 39 14 24
f 40 31 3
f 40 3 22
f 40 22 31
f 41 33 3
f 41 3 8
f 41 8 25
f 41 25 15
f 41 15 33
f 42 34 6
f 42 6 23
f 42 23 34
f 43 20 34
f 43 34 10
f 43 10 26
f 44 35 25
f 44 2 35
f 46 29 19
f 47 25 8
f 47 8 14
f 48 37 28
f 48 19 37
f 49 28 37
f 49 37 12
f 49 12 30
f 50 26 2
f 50 2 45
f 50 45 28
f 50 28 38
f 50 43 26
f 50 38 43
f 51 43 38
f 51 20 43
f 51 38 28
f 51 28 49
f 51 49 30
f 51 30 20
f 52 2 44
f 52 47 36
f 52 44 25
f 52 25 47
f 53 45 2
f 53 46 19
f 53 36 46
f 53 52 36
f 53 2 52
f 54 28 45
f 54 45 53
f 55 39 29
f 55 29 46
f 56 47 14
f 56 14 39
f 56 36 47
f 57 48 28
f 57 19 48
f 57 54 53
f 57 53 19
f 58 55 46
f 58 46 36
f 58 36 56
f 58 56 39
f 58 39 55
f 59 57 28
f 59 28 54
f 59 54 57

