# https://github.com/mikedh/trimesh
v 0.01570772 0.02016583 0.05796220
v 0.03711729 0.00060939 0.04573448
v 0.02855828 0.02386387 0.04660105
v 0.00182902 0.03741788 0.04558960
v 0.02211183 -0.00818432 0.05598431
v 0.02179918 0.03120831 0.04296218
v 0.03361281 0.00761802 0.05169737
v -0.00183375 0.02309222 0.05858159
v 0.03255132 -0.00798045 0.04956141
v 0.03113570 0.02134781 0.04331870
v 0.03519541 0.00060953 0.04585971
v 0.01923980 0.02976240 0.05061558
v 0.02491871 0.00524132 0.05807507
v -0.00191895 0.02356364 0.05543300
v 0.00190622 0.03538730 0.04593840
v 0.03502943 0.00060518 0.05098285
v 0.03003969 0.02298550 0.04303878
v 0.03608890 0.00883569 0.04550029
v 0.01957577 0.03261920 0.04311018
v 0.02272245 0.02855744 0.04875182
v 0.02765862 0.02049270 0.05157144
v 0.00771293 0.03359952 0.05173446
v 0.02187714 -0.00810417 0.05855518
v 0.02120490 0.01432231 0.05801969
v -0.00180516 0.03372506 0.04955514
v 0.02438017 -0.00810750 0.05427944
v 0.03615443 0.00059971 0.04900557
v 0.03264761 0.00415943 0.05288453
v 0.02963073 0.02277392 0.04540623
v 0.03202995 0.01697544 0.04886240
v 0.02384380 0.02853376 0.04653167
v 0.01924051 0.03199573 0.04645385
v 0.02056953 0.02764615 0.05155134
v 0.02850431 0.02274157 0.04868019
v 0.00886159 0.02388569 0.05792305
v 0.02502566 -0.00519170 0.05804548
v 0.03194263 -0.00814178 0.05019743
v 0.03138570 0.01003980 0.05284889
v -0.00175971 0.03275842 0.05294316
v 0.03153126 -0.00772962 0.05308156
v 0.03571298 0.00642014 0.04894972
v 0.03082672 0.01919158 0.04885245
v 0.03356156 0.01589040 0.04544604
v 0.02034601 0.03084119 0.04766991
v 0.01000700 0.03463339 0.04981470
v 0.02035849 0.02968822 0.04973353
v 0.01593651 0.02900706 0.05274962
v 0.02419060 -0.00764098 0.05822220
v 0.03255910 -0.00408752 0.05294944
v 0.02247965 0.01220570 0.05794387
v 0.03099282 0.01695285 0.05058351
v -0.00182171 0.03302754 0.05027180
v 0.00178860 0.03603171 0.04987727
v 0.00179626 0.03718274 0.04670738
v 0.00411389 0.02498608 0.05790335
v 0.03462496 0.00640971 0.05083939
v 0.03443758 0.01218358 0.04779187
v 0.03087772 0.02037425 0.04650780
v 0.02161187 0.03098602 0.04416320
v 0.01122377 0.03353313 0.05084729
v 0.01117101 0.03565066 0.04655015
v 0.01125439 0.03254607 0.05175848
v 0.01220677 0.02251626 0.05783446
v 0.02963453 0.02037611 0.04971772
f 11 2 9
f 14 5 8
f 15 11 9
f 15 4 11
f 17 6 3
f 17 11 6
f 17 10 2
f 17 2 11
f 18 2 10
f 19 11 4
f 19 6 11
f 23 8 5
f 24 1 8
f 24 23 13
f 24 8 23
f 24 21 1
f 25 4 15
f 26 15 9
f 26 25 15
f 26 5 14
f 26 14 25
f 27 9 2
f 28 16 7
f 28 7 13
f 29 17 3
f 29 10 17
f 31 20 3
f 31 3 6
f 32 6 19
f 33 1 21
f 33 21 20
f 34 3 20
f 34 20 21
f 35 8 1
f 36 28 13
f 37 23 5
f 37 26 9
f 37 5 26
f 38 13 7
f 39 14 8
f 40 27 16
f 40 9 27
f 40 37 9
f 40 23 37
f 41 27 2
f 41 2 18
f 41 16 27
f 42 3 34
f 43 18 10
f 44 20 31
f 46 33 20
f 46 12 33
f 46 44 12
f 46 20 44
f 47 33 12
f 47 1 33
f 48 36 13
f 48 13 23
f 48 40 36
f 48 23 40
f 49 16 28
f 49 28 36
f 49 40 16
f 49 36 40
f 50 24 13
f 50 13 38
f 50 38 21
f 50 21 24
f 51 21 38
f 51 30 42
f 51 38 7
f 52 39 25
f 52 25 14
f 52 14 39
f 53 39 22
f 53 22 45
f 54 4 25
f 54 25 39
f 54 39 53
f 55 35 22
f 55 22 39
f 55 39 8
f 55 8 35
f 56 7 16
f 56 16 41
f 56 51 7
f 57 41 18
f 57 56 41
f 57 30 51
f 57 51 56
f 57 43 30
f 57 18 43
f 58 29 3
f 58 3 42
f 58 10 29
f 58 43 10
f 58 42 30
f 58 30 43
f 59 44 31
f 59 31 6
f 59 6 32
f 59 32 44
f 60 44 32
f 60 32 45
f 60 12 44
f 60 45 22
f 61 45 32
f 61 32 19
f 61 19 4
f 61 4 54
f 61 54 53
f 61 53 45
f 62 22 35
f 62 35 47
f 62 60 22
f 62 47 12
f 62 12 60
f 63 47 35
f 63 35 1
f 63 1 47
f 64 51 42
f 64 42 34
f 64 34 21
f 64 21 51

