# https://github.com/mikedh/trimesh
v 0.01130376 0.03864771 0.01659898
v 0.01171051 0.02154019 0.00338474
v 0.00415818 0.03368083 0.00558705
v -0.01975755 0.01985072 0.00202809
v -0.03596911 0.01037231 0.00915403
v 0.00542669 0.02698649 0.00212846
v -0.02050465 0.03462422 0.01669456
v 0.01107857 0.03242732 0.00573306
v 0.01175308 0.03641793 0.01640175
v -0.01888252 0.01037128 0.00066514
v -0.01013853 0.02925587 0.00330485
v -0.00410802 0.03940557 0.01333912
v -0.02753095 0.02399887 0.00809208
v 0.00643848 0.03811986 0.01111123
v 0.00895928 0.02918970 0.00325275
v -0.02679127 0.02682159 0.01634659
v 0.01115035 0.03710159 0.01111036
v 0.01135170 0.02808210 0.00320339
v -0.02920506 0.01010248 0.00323473
v -0.01890642 0.01038204 0.00282748
v 0.01153894 0.02118264 0.00120148
v -0.00654757 0.02698485 0.00206613
v -0.00767532 0.03951515 0.01659582
v -0.01345876 0.03569126 0.01015112
v -0.02065341 0.02425562 0.00343193
v 0.00651809 0.03583090 0.00784046
v 0.00534961 0.03947471 0.01433843
v 0.00891618 0.03136496 0.00454070
v -0.03239427 0.02063280 0.01096698
v -0.02527544 0.03120435 0.01668305
v 0.01122834 0.03828155 0.01436853
v 0.01114088 0.03578927 0.00911832
v 0.00899917 0.02584898 0.00210984
v -0.02583975 0.01019423 0.00192006
v -0.03103148 0.01467447 0.00564748
v -0.03485511 0.01004109 0.00769179
v -0.01020844 0.02586929 0.00207518
v 0.00301177 0.03048593 0.00332042
v 0.00656321 0.03969460 0.01664501
v -0.01113887 0.03806356 0.01328615
v -0.00411271 0.03707130 0.00901492
v -0.01465271 0.03225090 0.00687646
v 0.00652795 0.03479078 0.00678039
v 0.00296375 0.03945322 0.01326710
v -0.03519331 0.01372265 0.00970676
v -0.02858390 0.02510265 0.01025675
v 0.00887216 0.03819982 0.01225594
v 0.01137893 0.02464082 0.00214120
v -0.02328881 0.01616528 0.00213691
v -0.02653866 0.01954289 0.00456919
v -0.03095971 0.01932578 0.00797340
v -0.03249337 0.01004340 0.00538325
v -0.01741416 0.02224028 0.00215318
v -0.01371857 0.02791760 0.00330558
v -0.00414623 0.03039061 0.00332858
v 0.00653808 0.03952660 0.01544879
v -0.00764691 0.03937171 0.01552931
v -0.01928372 0.03454545 0.01336856
v -0.01231194 0.03828724 0.01657633
v 0.00419802 0.03701801 0.00896397
v -0.00644937 0.03815032 0.01115166
v -0.00645398 0.03476880 0.00684427
v -0.01927348 0.03103571 0.00803172
v -0.03474271 0.01353712 0.00898244
f 9 5 2
f 16 5 9
f 16 9 1
f 18 9 2
f 20 2 5
f 20 19 10
f 21 20 10
f 21 2 20
f 21 18 2
f 22 21 10
f 22 6 21
f 28 18 15
f 28 8 18
f 30 16 1
f 30 29 16
f 31 1 9
f 31 9 17
f 32 17 9
f 32 9 18
f 32 18 8
f 32 26 14
f 32 14 17
f 33 6 15
f 33 15 18
f 33 21 6
f 34 10 19
f 36 20 5
f 37 22 10
f 37 11 22
f 38 15 6
f 38 6 22
f 38 28 15
f 38 3 28
f 39 23 7
f 39 12 23
f 39 30 1
f 39 7 30
f 43 28 3
f 43 8 28
f 43 32 8
f 43 26 32
f 44 39 27
f 44 12 39
f 44 41 12
f 45 5 16
f 45 16 29
f 46 29 30
f 47 31 17
f 47 17 14
f 47 27 31
f 47 44 27
f 47 14 44
f 48 33 18
f 48 18 21
f 48 21 33
f 49 4 10
f 49 10 34
f 49 25 4
f 49 34 19
f 50 13 25
f 50 25 49
f 50 49 19
f 50 19 35
f 51 50 35
f 51 13 50
f 51 46 13
f 51 29 46
f 51 45 29
f 52 19 20
f 52 20 36
f 52 36 35
f 52 35 19
f 53 37 10
f 53 10 4
f 53 4 25
f 54 11 37
f 54 42 11
f 54 25 42
f 54 53 25
f 54 37 53
f 55 38 22
f 55 22 11
f 55 3 38
f 56 31 27
f 56 27 39
f 56 39 1
f 56 1 31
f 57 23 12
f 57 12 40
f 58 40 24
f 58 46 30
f 58 30 7
f 59 7 23
f 59 57 40
f 59 23 57
f 59 58 7
f 59 40 58
f 60 3 41
f 60 43 3
f 60 26 43
f 60 14 26
f 60 44 14
f 60 41 44
f 61 40 12
f 61 12 41
f 61 41 24
f 61 24 40
f 62 11 42
f 62 55 11
f 62 41 3
f 62 3 55
f 62 42 24
f 62 24 41
f 63 42 25
f 63 25 13
f 63 13 46
f 63 46 58
f 63 58 24
f 63 24 42
f 64 36 5
f 64 5 45
f 64 35 36
f 64 51 35
f 64 45 51

