# https://github.com/mikedh/trimesh
v 0.02839139 0.02074119 0.04602923
v 0.03838901 0.00057463 0.03942962
v 0.03711899 0.01473586 0.01660913
v 0.02715324 0.02100039 0.00606759
v 0.01675045 0.03409692 0.02993468
v 0.03939448 0.00666009 0.01652538
v 0.03447268 0.01580967 0.04176182
v 0.03519541 0.00060953 0.04585971
v 0.02395940 0.03223581 0.01669417
v 0.03019979 0.02188237 0.00894749
v 0.03818531 0.01116056 0.02730949
v 0.01983032 0.02992100 0.04367618
v 0.03579189 0.00994073 0.04542665
v 0.01686055 0.03432126 0.01633668
v 0.03785772 0.00061986 0.02995899
v 0.03100124 0.02517372 0.02730820
v 0.02808836 0.02074558 0.00648137
v 0.03241218 0.02185621 0.01213194
v 0.02676265 0.02545298 0.00888055
v 0.03834034 0.01117771 0.01667692
v 0.03964034 0.00060962 0.02989348
v 0.01932798 0.03452002 0.03461151
v 0.03112212 0.02049995 0.04540715
v 0.03717094 0.00060248 0.04548439
v 0.03688557 0.01225040 0.03571208
v 0.03729116 0.00695408 0.01623068
v 0.03575696 0.01702532 0.02975099
v 0.03220679 0.02403886 0.01891514
v 0.02981832 0.02392917 0.01031566
v 0.01631807 0.03679686 0.01651676
v 0.02782280 0.02170386 0.00690635
v 0.03700042 0.01465079 0.02729928
v 0.03817866 0.00759193 0.03578396
v 0.01830370 0.03372439 0.04182644
v 0.02510217 0.03100961 0.02971098
v 0.03454524 0.01344386 0.04539503
v 0.01868868 0.03314428 0.04322699
v 0.03706707 0.00292071 0.04549545
v 0.03571048 0.01108099 0.04419226
v 0.03574285 0.01579741 0.03452954
v 0.03334877 0.02049198 0.03457158
v 0.03327062 0.02169488 0.01442343
v 0.03456247 0.01934764 0.02974062
v 0.02873873 0.02396741 0.00921054
v 0.02760444 0.02618464 0.01031181
v 0.02983862 0.02629023 0.01437905
v 0.02047555 0.03456760 0.02735885
v 0.01620693 0.03648212 0.02982348
v 0.02689923 0.02194976 0.00650660
v 0.03692815 0.01345562 0.03218843
v 0.03816822 0.00997839 0.03097791
v 0.03821071 0.00526148 0.03819575
v 0.02856148 0.02623387 0.03819721
v 0.03213455 0.01931287 0.04417176
v 0.02785919 0.02160536 0.04587251
v 0.02261131 0.03098083 0.04168977
v 0.03692511 0.00872070 0.04182814
v 0.03442280 0.01813828 0.03570901
v 0.03330061 0.02164318 0.02850487
v 0.02053657 0.03467234 0.01662852
v 0.01833206 0.03590805 0.01660122
v 0.02760549 0.02504774 0.00921395
v 0.03102860 0.02388784 0.01225941
v 0.03101066 0.02517307 0.01549982
f 12 8 1
f 12 5 8
f 13 1 8
f 14 8 5
f 14 4 8
f 15 2 8
f 15 8 4
f 17 10 6
f 17 6 4
f 20 11 6
f 20 18 3
f 20 6 10
f 20 10 18
f 21 6 11
f 21 15 6
f 21 2 15
f 24 8 2
f 26 15 4
f 26 4 6
f 26 6 15
f 29 18 10
f 30 4 14
f 31 17 4
f 31 10 17
f 32 20 3
f 32 11 20
f 32 3 27
f 34 5 12
f 35 28 9
f 35 16 28
f 36 23 1
f 36 1 13
f 37 34 12
f 38 13 8
f 38 8 24
f 38 24 2
f 39 25 7
f 39 36 13
f 39 7 36
f 40 7 25
f 40 32 27
f 42 28 3
f 42 3 18
f 43 27 3
f 43 3 28
f 44 29 10
f 44 31 19
f 44 10 31
f 45 29 44
f 46 45 9
f 47 35 9
f 47 22 35
f 48 30 14
f 48 14 5
f 48 5 34
f 48 34 22
f 48 22 47
f 49 30 19
f 49 4 30
f 49 31 4
f 49 19 31
f 50 11 32
f 50 40 25
f 50 32 40
f 51 33 21
f 51 21 11
f 51 25 33
f 51 50 25
f 51 11 50
f 52 2 21
f 52 21 33
f 52 38 2
f 53 16 35
f 53 41 16
f 53 23 41
f 54 36 7
f 54 23 36
f 54 41 23
f 55 37 12
f 55 12 1
f 55 1 23
f 55 23 37
f 56 35 22
f 56 22 34
f 56 34 37
f 56 53 35
f 56 37 23
f 56 23 53
f 57 33 25
f 57 25 39
f 57 39 13
f 57 52 33
f 57 13 38
f 57 38 52
f 58 40 27
f 58 43 41
f 58 27 43
f 58 7 40
f 58 54 7
f 58 41 54
f 59 43 28
f 59 28 16
f 59 16 41
f 59 41 43
f 60 9 45
f 60 47 9
f 61 45 19
f 61 19 30
f 61 60 45
f 61 47 60
f 61 48 47
f 61 30 48
f 62 45 44
f 62 44 19
f 62 19 45
f 63 18 29
f 63 29 45
f 63 45 46
f 63 42 18
f 64 46 9
f 64 9 28
f 64 28 42
f 64 63 46
f 64 42 63

