# https://github.com/mikedh/trimesh
v -0.00183375 0.02309222 0.05858159
v -0.00189385 0.02262856 0.05774188
v -0.00180516 0.03372506 0.04955514
v -0.02280543 0.03119752 0.03819648
v -0.03218337 -0.01581974 0.04986813
v -0.01930408 0.02980131 0.05058079
v -0.00184146 0.02469386 0.05455223
v -0.01876986 -0.01635618 0.05875539
v -0.03512792 -0.01049297 0.03850369
v -0.00410968 0.03267256 0.05282664
v -0.00168948 0.02513364 0.05791230
v -0.02499925 0.00633862 0.05787042
v -0.01936312 -0.01691198 0.05422420
v -0.01256312 0.03654213 0.03831802
v -0.00175971 0.03275842 0.05294316
v -0.00860399 0.02379914 0.05788544
v -0.02485444 -0.00636653 0.05799569
v -0.03568229 0.00880127 0.04773849
v -0.02366368 0.00986664 0.05798546
v -0.00191895 0.02356364 0.05543300
v -0.03074400 -0.01697783 0.04600166
v -0.03732808 -0.01009480 0.03825652
v -0.01304852 0.03435038 0.03856257
v -0.01687180 0.03325513 0.04664922
v -0.01236651 0.03482293 0.04783552
v -0.00293034 0.02512166 0.05783695
v -0.01464993 0.03122980 0.05162462
v -0.03017617 -0.01357629 0.05278234
v -0.03570681 -0.00291436 0.04993566
v -0.02847243 0.02273648 0.04874054
v -0.01549415 0.02014470 0.05800244
v -0.03357874 0.00764615 0.05175162
v -0.00196095 0.02266216 0.05701617
v -0.02890269 -0.01591563 0.05279961
v -0.01469411 0.03580324 0.03816649
v -0.03723712 0.01006147 0.03826894
v -0.03366583 -0.01594832 0.04551170
v -0.01344917 0.03343452 0.04980664
v -0.01241979 0.03603828 0.04193089
v -0.00886302 0.03152561 0.05286103
v -0.02367935 -0.00982574 0.05805125
v -0.03253859 -0.00530946 0.05290920
v -0.02377974 0.02846511 0.04655172
v -0.02121736 0.01438855 0.05796238
v -0.01701058 0.02992280 0.05168410
v -0.03249371 0.00646501 0.05284128
v -0.03564503 0.00410346 0.04995370
v -0.03219255 0.01464243 0.05068022
v -0.03127969 -0.01468819 0.05166007
v -0.03455382 0.01702463 0.03815566
v -0.01939212 0.03357168 0.03823558
v -0.03823260 0.00175339 0.04064846
v -0.03563755 -0.00875902 0.04773984
v -0.01336731 0.03448425 0.04770919
v -0.02044424 0.02975675 0.04971901
v -0.01461558 0.03234303 0.05062709
v -0.01343786 0.03568045 0.04188449
v -0.03137346 -0.01007423 0.05290094
v -0.02122353 -0.01436961 0.05814506
v -0.02848979 0.02501977 0.04183399
v -0.02759474 0.02052870 0.05160256
v -0.03013303 0.01354496 0.05276982
v -0.03456763 0.00992098 0.04983051
v -0.03842578 -0.00414252 0.03825109
f 8 2 1
f 11 1 2
f 11 2 7
f 11 7 3
f 13 2 8
f 13 3 7
f 15 11 3
f 17 8 12
f 19 12 8
f 19 8 1
f 20 13 7
f 20 7 2
f 21 13 8
f 21 9 13
f 22 14 9
f 22 9 21
f 23 13 9
f 23 9 14
f 23 14 3
f 23 3 13
f 25 10 15
f 25 15 3
f 26 10 16
f 26 15 10
f 26 11 15
f 26 16 1
f 26 1 11
f 31 1 16
f 31 16 27
f 33 20 2
f 33 2 13
f 33 13 20
f 34 21 8
f 34 5 21
f 35 14 22
f 37 22 21
f 37 21 5
f 38 10 25
f 39 25 3
f 39 3 14
f 39 14 35
f 40 27 16
f 40 16 10
f 40 10 38
f 41 8 17
f 42 17 12
f 44 19 1
f 44 1 31
f 45 31 27
f 46 12 19
f 46 42 12
f 47 46 32
f 47 29 42
f 47 42 46
f 49 34 28
f 49 5 34
f 50 35 22
f 50 4 35
f 50 48 30
f 50 36 18
f 50 18 48
f 51 35 4
f 51 24 35
f 51 43 24
f 51 4 43
f 52 29 47
f 52 47 18
f 52 18 36
f 53 22 37
f 53 37 5
f 53 49 29
f 53 5 49
f 54 38 25
f 54 24 38
f 55 38 24
f 55 24 43
f 55 43 30
f 56 40 38
f 56 27 40
f 56 45 27
f 56 6 45
f 56 55 6
f 56 38 55
f 57 39 35
f 57 35 24
f 57 24 54
f 57 54 25
f 57 25 39
f 58 41 17
f 58 28 41
f 58 17 42
f 58 49 28
f 58 42 29
f 58 29 49
f 59 34 8
f 59 8 41
f 59 41 28
f 59 28 34
f 60 43 4
f 60 30 43
f 60 50 30
f 60 4 50
f 61 44 31
f 61 30 48
f 61 55 30
f 61 6 55
f 61 45 6
f 61 31 45
f 62 46 19
f 62 32 46
f 62 48 32
f 62 61 48
f 62 19 44
f 62 44 61
f 63 47 32
f 63 18 47
f 63 48 18
f 63 32 48
f 64 50 22
f 64 36 50
f 64 52 36
f 64 22 53
f 64 53 29
f 64 29 52

