# https://github.com/mikedh/trimesh
v 0.02276956 0.01167988 0.00360311
v 0.02265275 -0.01896750 0.00533734
v 0.00914426 -0.01882577 0.00068781
v -0.01864461 0.02103343 0.00209124
v -0.01914101 0.02164052 0.00460054
v 0.01155708 0.01876966 0.00076931
v 0.02231488 -0.01625204 0.00201326
v 0.01296438 0.02153253 0.00356242
v -0.01896091 -0.01897390 0.00398990
v -0.01879457 0.01155492 0.00069373
v 0.02299414 -0.01433044 0.00422022
v 0.02236825 -0.01871581 0.00257435
v 0.02247229 0.01151641 0.00127811
v 0.00184772 0.02121913 0.00070829
v 0.01927359 -0.01923173 0.00441802
v -0.01510466 -0.01515050 0.00075778
v -0.01918103 0.02046630 0.00426791
v 0.01990275 -0.01863111 0.00199761
v 0.01272064 0.02113464 0.00137444
v 0.02005993 -0.00179866 0.00070079
v -0.00179274 0.02122272 0.00070598
v -0.01146112 -0.01875704 0.00074870
v -0.01865586 -0.01871290 0.00170566
v -0.01876433 -0.00788848 0.00071923
v 0.01395162 -0.01515298 0.00073588
v 0.00790643 0.01997266 0.00072863
v 0.01880055 0.01152420 0.00071883
v 0.02006618 0.00789142 0.00069488
v -0.01785650 0.02166895 0.00434217
v -0.01146490 0.01877104 0.00073785
v 0.01151986 -0.01759820 0.00072682
v 0.01761630 -0.00910835 0.00072400
v -0.01754572 0.01393960 0.00071703
v -0.00906181 0.01996913 0.00073398
v -0.01512775 0.01633314 0.00074723
f 8 5 2
f 8 2 1
f 9 2 5
f 11 1 2
f 12 11 2
f 12 7 11
f 13 11 7
f 13 1 11
f 13 8 1
f 15 2 9
f 15 12 2
f 15 3 12
f 17 9 5
f 17 5 4
f 17 4 10
f 18 12 3
f 18 7 12
f 19 13 6
f 19 8 13
f 19 14 8
f 20 13 7
f 22 15 9
f 22 3 15
f 23 22 9
f 23 16 22
f 24 17 10
f 24 9 17
f 24 23 9
f 24 16 23
f 24 22 16
f 24 10 3
f 24 3 22
f 25 7 18
f 26 19 6
f 26 14 19
f 27 6 13
f 27 26 6
f 28 20 3
f 28 3 10
f 28 10 21
f 28 21 14
f 28 14 26
f 28 26 27
f 28 27 13
f 28 13 20
f 29 21 4
f 29 4 5
f 29 5 8
f 29 8 14
f 29 14 21
f 31 25 18
f 31 18 3
f 31 3 25
f 32 20 7
f 32 7 25
f 32 25 3
f 32 3 20
f 33 10 4
f 34 30 4
f 34 4 21
f 34 21 10
f 34 33 30
f 34 10 33
f 35 33 4
f 35 4 30
f 35 30 33

