# https://github.com/mikedh/trimesh
v 0.00184857 -0.03094346 0.05397014
v 0.00180096 -0.03404987 0.05210103
v 0.00188823 -0.03775753 0.01515567
v -0.01907738 -0.03261758 0.01516229
v -0.01859809 -0.02942194 0.05127058
v 0.00189765 -0.03147006 0.05137572
v -0.00998099 -0.03144886 0.05277861
v -0.01930970 -0.02925608 0.04597473
v 0.00180438 -0.03603235 0.04990002
v -0.00531535 -0.03260622 0.05284392
v -0.00786749 -0.02977244 0.05404427
v -0.01811561 -0.03573879 0.02615432
v 0.00182215 -0.03953755 0.03222186
v -0.00751481 -0.03572836 0.04889645
v 0.00181368 -0.03276037 0.05296959
v -0.00754263 -0.03458165 0.05078094
v -0.01258326 -0.02940780 0.05331151
v -0.01949473 -0.02952013 0.04478455
v -0.01116309 -0.03841427 0.01545896
v -0.01690275 -0.03447166 0.04056413
v -0.00406702 -0.03821430 0.04055390
v -0.00521317 -0.03572729 0.04978414
v -0.00763771 -0.03361510 0.05177220
v -0.01462044 -0.03213267 0.05072422
v -0.01466428 -0.03115824 0.05167809
v -0.01725013 -0.02922727 0.05202706
v -0.01858606 -0.03538264 0.01534680
v 0.00181400 -0.03981459 0.01545635
v -0.01812153 -0.03453512 0.03696035
v 0.00180119 -0.03835083 0.04066651
v -0.00766452 -0.03946149 0.02496974
v -0.00990629 -0.03690018 0.04181054
v -0.00402114 -0.03696371 0.04668510
v -0.01218179 -0.03436821 0.04873742
v -0.01798935 -0.03201187 0.04765061
v -0.01244089 -0.03028788 0.05286164
v -0.01692834 -0.03098822 0.05063325
v -0.01696265 -0.02995635 0.05163582
v -0.01582203 -0.03695801 0.01783239
v -0.01711296 -0.03369220 0.01479302
v -0.00174076 -0.03954839 0.03220005
v -0.00764357 -0.03943864 0.01662659
v -0.00876447 -0.03814386 0.03579924
v -0.01344459 -0.03694146 0.03458464
v 0.00178894 -0.03713775 0.04669278
v -0.00758697 -0.03693487 0.04419685
v -0.01223614 -0.03564615 0.04417417
v -0.01565300 -0.03327652 0.04771012
v -0.01802969 -0.03329107 0.04294601
v -0.01807298 -0.03096921 0.04978765
v -0.01469465 -0.03716431 0.01546519
v -0.01818091 -0.03576315 0.01659673
v -0.01230909 -0.03818050 0.02612452
v -0.00648529 -0.03945434 0.01551005
v -0.00408443 -0.03950020 0.03100387
v -0.01576593 -0.03566832 0.03696947
v -0.01459428 -0.03444801 0.04538960
v -0.01823230 -0.03000945 0.05087214
v -0.01227958 -0.03820880 0.01661942
v -0.01577514 -0.03695736 0.02372094
v -0.01713417 -0.03609795 0.01540827
v -0.01106713 -0.03811942 0.03095858
v -0.00530051 -0.03946289 0.02978042
v -0.01693943 -0.03568141 0.03337911
f 1 3 4
f 6 3 1
f 8 1 4
f 9 6 1
f 9 1 2
f 11 1 8
f 11 10 1
f 11 7 10
f 13 3 6
f 13 6 9
f 15 10 2
f 15 2 1
f 15 1 10
f 17 7 11
f 17 11 8
f 18 8 4
f 18 5 8
f 22 9 2
f 22 2 16
f 22 16 14
f 23 16 2
f 23 2 10
f 23 10 7
f 24 16 23
f 25 24 23
f 25 23 7
f 26 17 8
f 26 8 5
f 27 18 4
f 27 12 18
f 28 3 13
f 29 18 12
f 30 13 9
f 33 9 22
f 33 22 14
f 34 14 16
f 34 16 24
f 35 5 18
f 36 25 7
f 36 7 17
f 36 26 25
f 36 17 26
f 37 24 25
f 38 26 5
f 38 25 26
f 38 37 25
f 38 5 37
f 40 27 4
f 40 4 3
f 40 19 27
f 40 3 28
f 41 30 21
f 41 13 30
f 41 28 13
f 42 28 31
f 44 43 32
f 45 30 9
f 45 9 33
f 45 33 21
f 45 21 30
f 46 21 33
f 46 43 21
f 46 32 43
f 46 33 14
f 47 14 34
f 47 46 14
f 47 32 46
f 47 44 32
f 48 34 24
f 49 29 20
f 49 48 35
f 49 35 18
f 49 18 29
f 50 5 35
f 50 35 48
f 50 48 24
f 50 24 37
f 51 27 19
f 52 12 27
f 54 40 28
f 54 19 40
f 54 42 19
f 54 28 42
f 55 41 21
f 55 21 43
f 55 31 28
f 55 28 41
f 56 20 29
f 56 44 47
f 57 47 34
f 57 34 48
f 57 56 47
f 57 20 56
f 57 49 20
f 57 48 49
f 58 50 37
f 58 37 5
f 58 5 50
f 59 51 19
f 59 39 51
f 59 53 39
f 59 19 42
f 59 42 31
f 59 31 53
f 60 52 39
f 60 12 52
f 60 39 53
f 61 51 39
f 61 39 52
f 61 52 27
f 61 27 51
f 62 53 31
f 62 31 43
f 62 43 44
f 62 44 53
f 63 55 43
f 63 43 31
f 63 31 55
f 64 56 29
f 64 29 12
f 64 44 56
f 64 12 60
f 64 60 53
f 64 53 44

