# https://github.com/mikedh/trimesh
v -0.01056585 -0.04796541 0.05723851
v -0.00986796 -0.05243829 0.05704273
v -0.01076777 -0.04003494 0.03041404
v -0.03983349 -0.02212838 0.03057066
v -0.05204288 -0.01365318 0.05724733
v -0.02414372 -0.03867103 0.03081263
v -0.01075363 -0.04539343 0.05428222
v -0.02268048 -0.04862429 0.05698023
v -0.04024805 -0.01408505 0.04043120
v -0.01017464 -0.04440724 0.03066890
v -0.03456587 -0.02306059 0.03029798
v -0.04626684 -0.01429693 0.05714584
v -0.04327805 -0.03249578 0.05460445
v -0.05184329 -0.01373918 0.05472315
v -0.01107935 -0.04237052 0.04808495
v -0.01786284 -0.04191236 0.03076639
v -0.01660530 -0.05194977 0.05453470
v -0.02877319 -0.03542294 0.03082122
v -0.04648550 -0.01357553 0.04784108
v -0.04176370 -0.03394867 0.05689627
v -0.04991154 -0.02165544 0.05589544
v -0.01100216 -0.04077228 0.04023141
v -0.04370424 -0.01469483 0.05404494
v -0.01018318 -0.05241959 0.05328715
v -0.01637355 -0.05169000 0.05629592
v -0.01310976 -0.04369781 0.03082186
v -0.03054367 -0.04532259 0.05470019
v -0.03505517 -0.02911621 0.03078707
v -0.04815871 -0.02441160 0.05706714
v -0.05150703 -0.01686457 0.05645814
v -0.05116642 -0.01662478 0.05488945
v -0.04826578 -0.02462951 0.05480739
v -0.04059029 -0.01455631 0.04605904
v -0.01183972 -0.05223977 0.05674540
v -0.01791780 -0.05073134 0.05675470
v -0.02135673 -0.05015197 0.05601916
v -0.02130733 -0.05014640 0.05452112
v -0.03719857 -0.03924515 0.05400222
v -0.02904596 -0.04550204 0.05675651
v -0.03844171 -0.02462500 0.03072726
v -0.04333629 -0.03279724 0.05627724
v -0.05155344 -0.01520245 0.05721325
v -0.04987715 -0.02149930 0.05616929
v -0.03536981 -0.04046442 0.05684671
v -0.03038432 -0.04521070 0.05582732
v -0.04656396 -0.02766225 0.05622403
f 7 1 2
f 7 2 3
f 8 2 1
f 10 3 2
f 11 9 3
f 11 4 9
f 12 5 1
f 12 1 7
f 16 3 10
f 16 11 3
f 16 6 11
f 18 11 6
f 18 4 11
f 19 12 9
f 19 5 12
f 19 14 5
f 19 9 4
f 19 4 14
f 22 15 7
f 22 7 3
f 22 3 9
f 23 12 7
f 23 7 15
f 24 17 10
f 24 10 2
f 24 2 17
f 26 17 16
f 26 16 10
f 26 10 17
f 27 18 6
f 28 4 18
f 29 20 8
f 29 8 1
f 29 1 5
f 30 5 14
f 31 14 4
f 31 4 21
f 31 30 14
f 31 21 30
f 32 21 4
f 33 22 9
f 33 15 22
f 33 23 15
f 33 9 12
f 33 12 23
f 34 25 17
f 34 17 2
f 34 2 25
f 35 25 2
f 35 2 8
f 36 17 25
f 36 35 8
f 36 25 35
f 37 27 6
f 37 6 16
f 37 16 17
f 37 36 27
f 37 17 36
f 38 13 28
f 38 28 18
f 38 18 27
f 39 36 8
f 40 28 13
f 40 4 28
f 40 32 4
f 40 13 32
f 41 20 29
f 41 13 38
f 41 32 13
f 42 30 29
f 42 29 5
f 42 5 30
f 43 30 21
f 43 21 29
f 43 29 30
f 44 39 8
f 44 8 20
f 44 20 41
f 44 41 38
f 44 38 27
f 45 27 36
f 45 36 39
f 45 44 27
f 45 39 44
f 46 41 29
f 46 29 21
f 46 21 32
f 46 32 41

