# https://github.com/mikedh/trimesh
v 0.05283460 0.00898169 0.05765682
v 0.05197893 -0.01521614 0.05652203
v 0.04216236 -0.00075821 0.02018048
v 0.03126039 0.01422837 0.01684920
v 0.03533174 -0.02641387 0.04981455
v 0.04207865 0.01335540 0.02469065
v 0.05381198 -0.00080306 0.05459196
v 0.04142391 -0.02593991 0.05744026
v 0.04549287 0.00937818 0.05441463
v 0.02595902 -0.02231062 0.01728174
v 0.03903391 0.01332539 0.01852405
v 0.05381067 -0.00245604 0.05716162
v 0.04377315 -0.00539395 0.02457709
v 0.05382993 0.00551064 0.05531455
v 0.04397097 0.00926391 0.05143917
v 0.03872705 0.01440130 0.03034468
v 0.04821103 0.00924197 0.05766813
v 0.03704979 -0.02651756 0.05285381
v 0.03344236 -0.02637337 0.04514064
v 0.03787584 -0.02473993 0.03066533
v 0.04201302 0.00869875 0.02154588
v 0.04034880 -0.00869740 0.01864847
v 0.05382752 -0.00402051 0.05545225
v 0.05056433 -0.00569005 0.05855197
v 0.04369635 0.00550883 0.02462877
v 0.05287292 0.00884977 0.05455273
v 0.05376484 0.00566837 0.05662761
v 0.03206618 0.01458423 0.01772702
v 0.04312060 0.01371586 0.03064134
v 0.04778837 -0.02497823 0.05449944
v 0.03155173 -0.02614731 0.03037312
v 0.04057008 0.01184595 0.02008444
v 0.04377724 0.00880188 0.02617452
v 0.02660171 -0.01944413 0.01636163
v 0.04043285 0.00867306 0.01855886
v 0.04189823 -0.00861174 0.02162540
v 0.03547359 -0.02102991 0.01882593
v 0.05377918 -0.00385765 0.05669668
v 0.05208681 -0.01514575 0.05540532
v 0.04780306 -0.02511672 0.05719223
v 0.05193519 -0.01348080 0.05741680
v 0.05178182 -0.00239522 0.05846930
v 0.05101465 -0.00258758 0.05856900
v 0.04205345 0.00241282 0.01994893
v 0.05379818 0.00073671 0.05712152
v 0.03198947 -0.02645816 0.03363759
v 0.04200365 0.01172953 0.02309719
v 0.03714342 -0.01798255 0.01879137
v 0.02663206 -0.02280707 0.01800556
v 0.03722063 -0.02109659 0.02169267
v 0.04194092 -0.01328366 0.02458655
v 0.05057445 -0.01985697 0.05639604
v 0.04869564 -0.02306281 0.05720375
v 0.05158113 -0.00572535 0.05825308
v 0.03871558 -0.01974796 0.02321247
v 0.04041997 -0.01170983 0.02003454
v 0.04905255 -0.02309509 0.05497443
v 0.03866887 -0.01643707 0.02005730
v 0.05010405 -0.01993035 0.05450112
v 0.04024603 -0.01639332 0.02320985
f 15 9 4
f 15 5 9
f 17 16 9
f 17 1 16
f 18 9 5
f 18 17 9
f 18 8 17
f 19 4 10
f 19 15 4
f 19 5 15
f 19 18 5
f 23 14 12
f 23 7 14
f 23 13 7
f 25 7 13
f 25 14 7
f 26 1 14
f 27 14 1
f 28 4 9
f 28 9 16
f 28 11 4
f 28 6 11
f 29 16 1
f 29 28 16
f 29 6 28
f 29 26 6
f 29 1 26
f 32 11 6
f 33 25 21
f 33 14 25
f 33 26 14
f 34 10 4
f 34 4 22
f 35 22 4
f 35 4 11
f 35 11 32
f 35 32 21
f 36 22 3
f 36 3 13
f 37 10 34
f 37 20 31
f 38 23 12
f 39 13 23
f 39 38 2
f 39 23 38
f 40 24 8
f 40 8 18
f 41 38 12
f 41 2 38
f 42 12 1
f 42 41 12
f 43 17 8
f 43 8 24
f 43 24 42
f 43 42 1
f 43 1 17
f 44 21 25
f 44 35 21
f 44 3 22
f 44 22 35
f 44 25 13
f 44 13 3
f 45 27 1
f 45 1 12
f 45 12 14
f 45 14 27
f 46 19 10
f 46 18 19
f 46 40 18
f 46 30 40
f 46 31 20
f 46 20 30
f 47 32 6
f 47 21 32
f 47 33 21
f 47 6 26
f 47 26 33
f 48 37 34
f 48 34 22
f 49 37 31
f 49 10 37
f 49 46 10
f 49 31 46
f 50 30 20
f 50 20 37
f 50 37 48
f 51 36 13
f 51 13 39
f 52 39 2
f 52 2 41
f 53 41 24
f 53 24 40
f 53 52 41
f 53 40 52
f 54 42 24
f 54 24 41
f 54 41 42
f 55 30 50
f 56 48 22
f 56 22 36
f 56 36 51
f 57 52 40
f 57 40 30
f 57 39 52
f 57 30 55
f 58 55 50
f 58 50 48
f 58 48 56
f 59 57 51
f 59 51 39
f 59 39 57
f 60 57 55
f 60 51 57
f 60 55 58
f 60 58 56
f 60 56 51

