# https://github.com/mikedh/trimesh
v -0.02513628 0.04657644 0.05837906
v -0.02541787 0.04422390 0.05857074
v -0.02609749 0.03499964 0.04662263
v -0.03660447 0.03238564 0.04807189
v -0.05168382 0.01531892 0.05737234
v -0.02444638 0.04217820 0.04781585
v -0.04591825 0.02667484 0.05822267
v -0.04527415 0.01638844 0.05692308
v -0.04061197 0.01585616 0.04685013
v -0.03037122 0.03841919 0.04814074
v -0.02447122 0.04885705 0.05724581
v -0.02586940 0.04161971 0.05741512
v -0.04821772 0.01736623 0.05856323
v -0.03785685 0.03809432 0.05815947
v -0.04481522 0.03105160 0.05524393
v -0.03862172 0.01997728 0.04651737
v -0.02920337 0.04701519 0.05611649
v -0.02661436 0.03737987 0.05250572
v -0.04749120 0.02358530 0.05817384
v -0.04725571 0.01753587 0.05844385
v -0.02636410 0.04620353 0.05836491
v -0.04566783 0.01531439 0.04739100
v -0.04313826 0.03391410 0.05735164
v -0.02435186 0.04913374 0.05587124
v -0.03063849 0.04535630 0.05540964
v -0.02667888 0.03572050 0.04954600
v -0.04198759 0.01643793 0.05134791
v -0.05134076 0.01663917 0.05741328
v -0.02993451 0.04455190 0.05804118
v -0.04294174 0.02276896 0.04813411
v -0.03567626 0.04194891 0.05680379
v -0.04989935 0.02145915 0.05727113
v -0.02610594 0.04841573 0.05690487
v -0.05155140 0.01684426 0.05538348
v -0.03728645 0.04058731 0.05560935
v -0.04315679 0.03416389 0.05609241
v -0.02923080 0.04701827 0.05644992
v -0.05171082 0.01528791 0.05512111
v -0.05136985 0.01825296 0.05650401
v -0.04976871 0.02142887 0.05531283
v -0.03393868 0.04337421 0.05577910
v -0.04009953 0.03741875 0.05539910
v -0.03376280 0.04366872 0.05653358
v -0.05147252 0.01804034 0.05590043
v -0.04484161 0.01835053 0.04791192
f 9 8 5
f 10 6 3
f 10 3 4
f 11 1 2
f 11 2 6
f 12 6 2
f 12 3 6
f 12 2 8
f 13 5 8
f 14 13 2
f 14 7 13
f 16 4 3
f 16 3 9
f 18 3 12
f 19 13 7
f 20 13 8
f 20 8 2
f 20 2 13
f 21 14 2
f 21 2 1
f 21 1 11
f 22 9 5
f 22 16 9
f 22 4 16
f 23 7 14
f 24 11 6
f 24 6 17
f 25 17 6
f 25 6 10
f 26 18 9
f 26 9 3
f 26 3 18
f 27 18 12
f 27 12 8
f 27 8 9
f 27 9 18
f 28 5 13
f 28 13 19
f 29 14 21
f 30 15 4
f 30 4 22
f 31 23 14
f 31 14 29
f 32 19 7
f 32 7 23
f 32 28 19
f 33 24 17
f 33 11 24
f 33 29 21
f 33 21 11
f 35 10 4
f 35 23 31
f 36 32 23
f 36 15 32
f 36 23 35
f 37 29 33
f 37 33 17
f 38 34 22
f 38 22 5
f 39 5 28
f 39 28 32
f 40 22 34
f 40 15 30
f 40 32 15
f 41 17 25
f 41 25 10
f 41 10 35
f 42 36 35
f 42 35 4
f 42 4 15
f 42 15 36
f 43 31 29
f 43 29 37
f 43 37 17
f 43 17 41
f 43 41 35
f 43 35 31
f 44 38 5
f 44 34 38
f 44 5 39
f 44 40 34
f 44 39 32
f 44 32 40
f 45 40 30
f 45 30 22
f 45 22 40

