# https://github.com/mikedh/trimesh
v 0.04780306 -0.02511672 0.05719223
v 0.04742141 -0.02656887 0.05700136
v 0.03735029 -0.02549877 0.03054918
v -0.01076777 -0.04003494 0.03041404
v -0.01056585 -0.04796541 0.05723851
v 0.03266692 -0.02717735 0.04488654
v 0.04778837 -0.02497823 0.05449944
v 0.02678639 -0.04699910 0.05708486
v 0.03796949 -0.02480636 0.03227994
v -0.01096779 -0.04201083 0.04663552
v 0.04237494 -0.03426075 0.05592294
v 0.03915790 -0.03730973 0.05701248
v -0.00056487 -0.05369489 0.05372169
v 0.04064933 -0.02645860 0.05703264
v 0.03080201 -0.02695019 0.03012235
v -0.01084592 -0.04033393 0.03371070
v 0.04721173 -0.02651174 0.05480675
v 0.02624114 -0.03694778 0.03079528
v 0.04566249 -0.02920128 0.05708145
v 0.03602393 -0.04030647 0.05704170
v 0.00596502 -0.05359336 0.05693999
v -0.00999919 -0.05321612 0.05447763
v 0.03749092 -0.02701268 0.05417026
v -0.01075363 -0.04539343 0.05428222
v 0.04543694 -0.02916576 0.05476279
v 0.03589358 -0.02752254 0.03079612
v 0.00590962 -0.04523419 0.03077040
v 0.04228417 -0.03420535 0.05630460
v 0.02935808 -0.04538326 0.05501313
v 0.03603539 -0.04036932 0.05501342
v 0.01519908 -0.05184144 0.05697601
v -0.01003104 -0.05345517 0.05592614
v -0.01083881 -0.04383854 0.05134332
v 0.01368480 -0.04348762 0.03080567
v -0.01017464 -0.04440724 0.03066890
v 0.00909517 -0.05350908 0.05475825
v 0.02974859 -0.04531267 0.05633081
v 0.04057603 -0.03553957 0.05470639
v 0.02017569 -0.05005108 0.05464537
v -0.00986796 -0.05243829 0.05704273
v -0.00369314 -0.05370090 0.05374149
v 0.01839666 -0.04165077 0.03083082
v -0.00357446 -0.05379490 0.05683626
v 0.00899386 -0.05339018 0.05653898
v 0.02048710 -0.05011128 0.05652708
v 0.01539915 -0.05187968 0.05472887
v -0.00674107 -0.04512129 0.03075220
f 7 1 2
f 8 1 5
f 9 4 6
f 9 7 3
f 9 1 7
f 14 9 6
f 14 1 9
f 14 5 1
f 15 9 3
f 15 4 9
f 16 10 6
f 16 6 4
f 17 7 2
f 17 2 11
f 17 3 7
f 18 15 3
f 19 2 1
f 19 11 2
f 20 1 8
f 20 19 1
f 20 12 19
f 23 14 6
f 23 6 10
f 23 10 14
f 24 10 5
f 24 5 14
f 25 17 11
f 25 11 3
f 25 3 17
f 26 18 3
f 26 3 11
f 27 4 15
f 28 19 12
f 28 12 11
f 28 11 19
f 30 11 12
f 30 12 20
f 30 29 18
f 30 18 26
f 31 8 5
f 31 5 21
f 32 16 4
f 32 10 16
f 32 5 10
f 33 24 14
f 33 14 10
f 33 10 24
f 34 27 15
f 35 4 27
f 35 32 4
f 35 22 32
f 36 13 27
f 36 27 34
f 37 20 8
f 37 8 29
f 37 30 20
f 37 29 30
f 38 30 26
f 38 26 11
f 38 11 30
f 39 29 8
f 40 21 5
f 40 5 32
f 41 32 22
f 41 27 13
f 42 34 15
f 42 15 18
f 42 39 34
f 42 18 29
f 42 29 39
f 43 36 21
f 43 13 36
f 43 41 13
f 43 32 41
f 43 40 32
f 43 21 40
f 44 36 31
f 44 31 21
f 44 21 36
f 45 39 8
f 45 8 31
f 46 36 34
f 46 34 39
f 46 31 36
f 46 45 31
f 46 39 45
f 47 41 22
f 47 22 35
f 47 35 27
f 47 27 41

