# https://github.com/mikedh/trimesh
v 0.03666379 0.03811566 0.05840361
v 0.04808285 0.02369694 0.05753828
v 0.03880908 0.02904896 0.04810018
v 0.01556087 0.04591296 0.04755239
v 0.01685977 0.04560969 0.05704049
v 0.03457264 0.04224347 0.05503146
v 0.04461236 0.02412767 0.05859615
v 0.02960441 0.03865302 0.04814451
v 0.01561957 0.05207795 0.05731484
v 0.04385439 0.03247594 0.05720570
v 0.03553685 0.02505019 0.04664200
v 0.03633712 0.03924666 0.05394185
v 0.02476899 0.04192431 0.04809359
v 0.02493978 0.04860259 0.05694652
v 0.01751222 0.04847957 0.05847861
v 0.01538726 0.04701564 0.04964467
v 0.03278295 0.04372173 0.05692972
v 0.04742300 0.02650285 0.05484761
v 0.04521958 0.02696400 0.05830100
v 0.04260345 0.02305365 0.04784493
v 0.01671789 0.04028302 0.04655713
v 0.03925183 0.02490409 0.05415432
v 0.01709898 0.05194803 0.05580925
v 0.04529692 0.02383340 0.05861339
v 0.02246191 0.04798914 0.05832023
v 0.01818679 0.04669312 0.05817490
v 0.01554651 0.05246178 0.05587336
v 0.02808821 0.04702671 0.05588919
v 0.04728057 0.02754723 0.05657347
v 0.04393549 0.03233086 0.05503957
v 0.04750097 0.02676373 0.05711115
v 0.04198278 0.03148674 0.05833670
v 0.04839230 0.02363260 0.05443402
v 0.04204862 0.02460011 0.05704707
v 0.03610711 0.02556071 0.04920833
v 0.01682894 0.04075335 0.04801737
v 0.02185787 0.05004386 0.05698049
v 0.02876754 0.04459155 0.05817360
v 0.03302804 0.04357132 0.05587334
v 0.02843917 0.04678042 0.05634990
v 0.02502022 0.04830758 0.05519112
v 0.04104027 0.03439489 0.05398871
v 0.04714909 0.02785933 0.05557965
v 0.02183073 0.05011298 0.05586004
v 0.01699239 0.05176616 0.05702946
v 0.02034879 0.05032841 0.05514029
f 11 8 3
f 12 8 6
f 12 3 8
f 13 6 8
f 15 9 5
f 16 5 9
f 17 10 6
f 17 1 10
f 20 11 3
f 21 8 11
f 21 13 8
f 21 4 13
f 21 16 4
f 21 5 16
f 22 11 20
f 24 15 7
f 24 1 15
f 24 2 19
f 24 20 2
f 24 22 20
f 25 9 15
f 25 15 1
f 26 15 5
f 26 5 7
f 26 7 15
f 27 16 9
f 27 4 16
f 27 23 4
f 30 6 10
f 30 20 3
f 30 18 20
f 31 19 2
f 31 10 19
f 31 29 10
f 32 19 10
f 32 10 1
f 32 24 19
f 32 1 24
f 33 20 18
f 33 2 20
f 33 31 2
f 33 29 31
f 34 7 5
f 34 5 22
f 34 24 7
f 34 22 24
f 35 22 21
f 35 21 11
f 35 11 22
f 36 22 5
f 36 5 21
f 36 21 22
f 37 25 14
f 37 9 25
f 38 17 14
f 38 14 25
f 38 25 1
f 38 1 17
f 39 17 6
f 39 6 28
f 40 28 14
f 40 14 17
f 40 39 28
f 40 17 39
f 41 28 6
f 41 6 13
f 41 13 4
f 42 30 3
f 42 3 12
f 42 12 6
f 42 6 30
f 43 18 30
f 43 33 18
f 43 29 33
f 43 30 10
f 43 10 29
f 44 37 14
f 44 14 28
f 44 28 41
f 44 23 37
f 45 27 9
f 45 9 37
f 45 37 23
f 45 23 27
f 46 44 41
f 46 41 4
f 46 4 23
f 46 23 44

