# https://github.com/mikedh/trimesh
v 0.03427448 0.02939827 0.03077238
v 0.04312060 0.01371586 0.03064134
v 0.03545965 0.02133531 0.01859667
v 0.01525653 0.01966338 0.00064564
v 0.01361239 0.03917671 0.03003232
v 0.03772373 0.01344943 0.01686713
v 0.03874637 0.02110562 0.02452573
v 0.01271606 0.04374199 0.03053954
v 0.01621744 0.01420052 0.01133372
v 0.02045096 0.01367347 0.00055237
v 0.03892979 0.02297721 0.03072963
v 0.03400445 0.02751192 0.02340803
v 0.04025367 0.01483055 0.02157329
v 0.03872705 0.01440130 0.03034468
v 0.01696684 0.04221059 0.03066999
v 0.04073152 0.01337614 0.02136857
v 0.01212173 0.02548002 0.00511221
v 0.02777594 0.02587428 0.01436188
v 0.03261436 0.01489627 0.01257715
v 0.01606988 0.01407906 0.00010606
v 0.04262389 0.01514295 0.03068027
v 0.03569759 0.02422677 0.02167086
v 0.03730264 0.02429934 0.02624483
v 0.03713301 0.01794149 0.01870389
v 0.02909607 0.03375142 0.02610010
v 0.04243770 0.01350566 0.02596302
v 0.01674060 0.03689133 0.01698990
v 0.01301881 0.02669307 0.01427048
v 0.01984939 0.01629636 0.00131248
v 0.03735728 0.01493148 0.01717277
v 0.01243183 0.02500280 0.00446968
v 0.04062149 0.01969288 0.03071861
v 0.03068452 0.02905403 0.02024454
v 0.04030316 0.01955363 0.02758275
v 0.03399090 0.02893914 0.02615659
v 0.02629763 0.03697285 0.03074746
v 0.04201070 0.01499696 0.02624341
v 0.01224566 0.04057843 0.01983304
v 0.02002491 0.03234625 0.01427867
v 0.01652232 0.01927904 0.00108349
v 0.03083759 0.02430877 0.01584466
v 0.03106414 0.01820568 0.01273714
v 0.01369130 0.03700097 0.01563279
v 0.02779655 0.03368262 0.02320165
v 0.03877894 0.02283982 0.02918863
v 0.03295715 0.03107745 0.03065110
v 0.04026376 0.01814339 0.02472987
v 0.01221294 0.04205326 0.02289527
v 0.01219972 0.03734199 0.01543165
v 0.02469869 0.03054192 0.01577783
v 0.03230425 0.02573321 0.01875487
v 0.01372034 0.03553327 0.01430022
v 0.01374101 0.04024847 0.02009092
v 0.02446738 0.03670407 0.02472702
v 0.01682664 0.04180308 0.02770023
v 0.01222253 0.03576239 0.01400133
v 0.02433188 0.03358480 0.01867955
v 0.03239744 0.02420928 0.01739706
v 0.02617860 0.03680638 0.02928470
v 0.01520318 0.04161814 0.02461264
v 0.02780096 0.03205696 0.02042864
v 0.01984482 0.03830124 0.02173854
v 0.01987540 0.03526526 0.01709136
v 0.01990778 0.03997517 0.02617383
f 14 8 5
f 14 2 8
f 14 9 2
f 14 5 9
f 15 8 2
f 16 10 6
f 16 9 10
f 19 6 10
f 20 10 9
f 20 4 10
f 20 9 17
f 21 15 2
f 21 1 15
f 22 13 3
f 22 7 13
f 23 7 22
f 24 3 13
f 24 13 16
f 26 2 9
f 26 9 16
f 28 17 9
f 28 9 5
f 28 5 8
f 28 8 17
f 29 10 4
f 30 6 19
f 30 3 24
f 30 24 16
f 30 16 6
f 31 20 17
f 31 4 20
f 32 11 1
f 32 1 21
f 33 12 22
f 34 7 23
f 34 11 32
f 34 32 21
f 35 1 11
f 35 11 23
f 35 23 22
f 35 22 12
f 36 15 1
f 37 21 2
f 37 2 26
f 37 34 21
f 37 26 16
f 40 29 4
f 40 18 29
f 40 4 39
f 41 29 18
f 42 19 10
f 42 10 29
f 42 30 19
f 42 3 30
f 42 41 3
f 42 29 41
f 43 27 39
f 44 12 33
f 44 35 12
f 44 25 35
f 45 34 23
f 45 23 11
f 45 11 34
f 46 35 25
f 46 1 35
f 46 36 1
f 46 25 36
f 47 7 34
f 47 34 37
f 47 13 7
f 47 37 16
f 47 16 13
f 48 17 8
f 49 48 38
f 49 17 48
f 49 38 43
f 50 40 39
f 50 18 40
f 50 41 18
f 50 33 41
f 51 41 33
f 51 33 22
f 52 43 39
f 52 39 4
f 52 49 43
f 53 43 38
f 53 27 43
f 53 38 48
f 54 25 44
f 55 8 15
f 56 31 17
f 56 17 49
f 56 49 52
f 56 52 4
f 56 4 31
f 58 51 22
f 58 22 3
f 58 3 41
f 58 41 51
f 59 36 25
f 59 25 54
f 60 48 8
f 60 8 55
f 60 53 48
f 61 57 44
f 61 44 33
f 61 33 50
f 61 50 57
f 62 54 44
f 62 44 57
f 62 53 60
f 62 27 53
f 63 57 50
f 63 50 39
f 63 39 27
f 63 62 57
f 63 27 62
f 64 59 54
f 64 55 15
f 64 15 36
f 64 36 59
f 64 54 62
f 64 62 60
f 64 60 55

