# https://github.com/mikedh/trimesh
v 0.00278899 0.04812331 0.04721938
v 0.00301063 0.04363380 0.04651531
v 0.00279664 0.04571025 0.03072414
v -0.03676645 0.02756790 0.03071361
v -0.03991275 0.02711360 0.04714024
v 0.00287504 0.04164610 0.03027526
v -0.02116385 0.04386021 0.04785850
v -0.03857287 0.02948179 0.04776743
v 0.00293470 0.04214856 0.03538995
v -0.02986479 0.02854338 0.02981835
v -0.01167116 0.04719317 0.04776480
v -0.01947850 0.04176125 0.03078461
v -0.03319024 0.02822878 0.04658477
v -0.02922063 0.03907043 0.04779097
v -0.03747943 0.02656513 0.03068966
v -0.00836255 0.04509536 0.03082932
v -0.02732782 0.03705627 0.03083310
v -0.01468614 0.04360337 0.03075156
v -0.02444638 0.04217820 0.04781585
v -0.03872847 0.02637577 0.04241353
v -0.02245429 0.04017290 0.03086092
f 1 2 3
f 8 2 1
f 9 6 3
f 9 3 2
f 11 8 1
f 11 7 8
f 13 8 5
f 13 2 8
f 13 9 2
f 13 10 6
f 13 6 9
f 14 8 7
f 14 4 8
f 15 8 4
f 15 5 8
f 15 4 10
f 16 11 1
f 16 1 3
f 17 12 10
f 17 10 4
f 17 4 14
f 18 12 7
f 18 7 11
f 18 11 16
f 18 10 12
f 18 6 10
f 18 16 3
f 18 3 6
f 19 14 7
f 19 7 12
f 19 17 14
f 20 13 5
f 20 5 15
f 20 15 10
f 20 10 13
f 21 19 12
f 21 12 17
f 21 17 19

