# https://github.com/mikedh/trimesh
v -0.04600350 0.01597295 0.05754650
v -0.03552340 -0.02252308 0.04040871
v -0.03754601 0.01256201 0.02369405
v -0.04306605 0.01178056 0.02457570
v -0.05204288 -0.01365318 0.05724733
v -0.03503152 -0.01890915 0.02401493
v -0.04566783 0.01531439 0.04739100
v -0.04061197 0.01585616 0.04685013
v -0.04626684 -0.01429693 0.05714584
v -0.03456587 -0.02306059 0.03029798
v -0.03659192 -0.01462101 0.02310852
v -0.05306341 0.01037914 0.05565214
v -0.04335574 0.01633498 0.05424400
v -0.04154261 0.01625738 0.04985166
v -0.04121876 -0.02290111 0.04650032
v -0.04997196 -0.01068866 0.05856528
v -0.04038453 -0.01828431 0.02449742
v -0.05171082 0.01528791 0.05512111
v -0.04471988 -0.00544033 0.02616049
v -0.04496917 -0.01462365 0.05581300
v -0.03487531 -0.02312735 0.03197108
v -0.05327805 0.00869968 0.05700818
v -0.04291218 -0.01169750 0.02472286
v -0.04024697 -0.02142965 0.03070283
v -0.05168382 0.01531892 0.05737234
v -0.04471778 0.00548330 0.02612045
v -0.05295157 -0.00872228 0.05494661
v -0.05319087 -0.00530360 0.05735995
v -0.05184329 -0.01373918 0.05472315
v -0.05311734 0.01029966 0.05670817
v -0.05120952 -0.00581768 0.05840192
v -0.05324759 0.00874077 0.05507858
v -0.05315169 -0.00885761 0.05648806
v -0.04127623 -0.01646487 0.02478563
v -0.04341051 -0.02147066 0.04782035
v -0.05030606 -0.00582116 0.05856684
v -0.05094202 -0.01057969 0.05833672
v -0.04289626 -0.01333151 0.02623679
f 7 3 4
f 8 2 3
f 10 6 3
f 10 3 2
f 11 4 3
f 11 3 6
f 14 8 3
f 14 3 7
f 14 13 2
f 14 2 8
f 15 9 5
f 16 9 1
f 16 5 9
f 17 11 6
f 17 6 10
f 18 7 4
f 18 4 12
f 18 14 7
f 18 13 14
f 20 2 13
f 20 15 2
f 20 9 15
f 20 13 1
f 20 1 9
f 21 15 10
f 21 10 2
f 21 2 15
f 23 4 11
f 23 11 17
f 23 19 4
f 24 17 10
f 24 10 15
f 25 1 13
f 25 13 18
f 26 4 19
f 29 27 19
f 29 19 23
f 29 17 24
f 30 25 18
f 30 18 12
f 30 22 25
f 31 25 22
f 31 22 28
f 32 12 4
f 32 4 26
f 32 26 19
f 32 19 27
f 32 30 12
f 32 22 30
f 32 28 22
f 33 5 28
f 33 29 5
f 33 27 29
f 33 32 27
f 33 28 32
f 34 23 17
f 34 17 29
f 35 29 24
f 35 24 15
f 35 15 5
f 35 5 29
f 36 31 16
f 36 16 1
f 36 1 25
f 36 25 31
f 37 31 28
f 37 28 5
f 37 5 16
f 37 16 31
f 38 34 29
f 38 29 23
f 38 23 34

