# https://github.com/mikedh/trimesh
v 0.03433583 0.03419803 0.04786767
v 0.03873203 0.02856053 0.04727953
v 0.03427448 0.02939827 0.03077238
v 0.00279664 0.04571025 0.03072414
v 0.00301063 0.04363380 0.04651531
v 0.02150657 0.04015168 0.03235157
v 0.03804884 0.02969522 0.04769991
v 0.03066576 0.02994165 0.04637649
v 0.00287504 0.04164610 0.03027526
v 0.02629763 0.03697285 0.03074746
v 0.01705541 0.04543057 0.04780318
v 0.03502977 0.02830630 0.03064845
v 0.00267666 0.04690996 0.04249540
v 0.00294950 0.04224023 0.03705250
v 0.01379478 0.04345567 0.03080001
v 0.02655230 0.04061564 0.04791562
v 0.01076669 0.04726975 0.04775119
v 0.03782703 0.02784771 0.04417779
v 0.02845808 0.02990216 0.03031377
v 0.01838365 0.04170177 0.03235601
v 0.00742410 0.04508933 0.03074850
v 0.00278899 0.04812331 0.04721938
f 7 3 1
f 8 7 5
f 8 2 7
f 10 1 3
f 12 7 2
f 12 3 7
f 12 10 3
f 13 4 9
f 14 9 8
f 14 8 5
f 14 13 9
f 14 5 13
f 15 6 10
f 15 10 9
f 16 10 6
f 16 6 11
f 16 1 10
f 17 7 1
f 17 16 11
f 17 1 16
f 17 11 15
f 18 12 2
f 18 2 8
f 19 8 9
f 19 9 10
f 19 10 12
f 19 18 8
f 19 12 18
f 20 15 11
f 20 11 6
f 20 6 15
f 21 15 9
f 21 9 4
f 21 17 15
f 21 4 17
f 22 5 7
f 22 7 17
f 22 13 5
f 22 17 4
f 22 4 13

