# https://github.com/mikedh/trimesh
v -0.03386013 0.02751002 0.04690880
v -0.02000073 0.04149748 0.03063446
v -0.03960669 0.01959018 0.02318454
v -0.02023665 0.02221274 0.00750618
v -0.02074485 0.02287399 0.01445694
v -0.02548071 0.03353396 0.01875507
v -0.04057622 0.02652099 0.04769569
v -0.02135666 0.03572378 0.02991817
v -0.01960796 0.02471206 0.00885045
v -0.04211051 0.00914521 0.04629291
v -0.03505086 0.02114636 0.01723764
v -0.03330865 0.03058731 0.02609232
v -0.01956473 0.03575553 0.01695557
v -0.02405106 0.02745978 0.01275213
v -0.02873984 0.01253683 0.01494628
v -0.04739709 0.00890147 0.04749218
v -0.03816011 0.02440038 0.02625170
v -0.03321555 0.02748996 0.02043368
v -0.02732782 0.03705627 0.03083310
v -0.01952522 0.03894255 0.02136958
v -0.01954646 0.03261717 0.01391567
v -0.02893929 0.02271761 0.01280905
v -0.03875829 0.01200471 0.01667821
v -0.04143204 0.01968954 0.02925181
v -0.04674502 0.01195281 0.04770310
v -0.03663241 0.02745821 0.02916154
v -0.02706505 0.03525608 0.02327925
v -0.03483535 0.02742507 0.02326598
v -0.03646203 0.02265366 0.02027624
v -0.02124925 0.04085551 0.03073958
v -0.02236307 0.03672802 0.02027628
v -0.01956992 0.04071027 0.02595313
v -0.02086853 0.03234775 0.01436928
v -0.03199889 0.02600554 0.01745472
v -0.03812416 0.01487677 0.01716096
v -0.02291153 0.02156874 0.00876704
v -0.04502549 0.00870381 0.03073438
v -0.04129580 0.01809177 0.02614998
v -0.03970415 0.02271097 0.02921075
v -0.04342750 0.02152460 0.04785412
v -0.02855580 0.03214579 0.02022760
v -0.02865319 0.03512901 0.02617864
v -0.03793592 0.02275556 0.02311462
v -0.02089471 0.03534153 0.01728865
v -0.02083106 0.03841117 0.02172269
v -0.02877205 0.02748675 0.01598692
v -0.03327745 0.02590608 0.01885073
v -0.03812496 0.01801651 0.01896051
v -0.04062323 0.00920468 0.03043977
v -0.04678617 0.00882704 0.04580006
v -0.04293754 0.01497420 0.02762624
v -0.02565876 0.03230834 0.01746003
v -0.02403276 0.03831120 0.02621191
v -0.03951763 0.01651554 0.02002034
v -0.04467859 0.01026351 0.03075808
v -0.04172044 0.01190862 0.02137978
v -0.02718105 0.02906111 0.01600390
v -0.02082317 0.04007600 0.02609786
v -0.02718989 0.03687134 0.02924615
v -0.03983613 0.01333117 0.01871563
v -0.04136886 0.01338044 0.02161245
v -0.04307720 0.01341244 0.02613489
v -0.04012828 0.01188459 0.01851020
f 7 1 2
f 8 5 2
f 8 2 1
f 9 5 4
f 9 2 5
f 10 8 1
f 10 5 8
f 15 4 5
f 15 5 10
f 16 10 1
f 21 9 4
f 21 20 9
f 21 13 20
f 22 14 4
f 23 4 15
f 25 16 1
f 26 17 7
f 26 7 12
f 26 12 17
f 28 17 12
f 28 12 18
f 29 28 18
f 30 19 7
f 30 7 2
f 31 6 27
f 32 2 9
f 32 9 20
f 33 21 4
f 33 4 14
f 33 13 21
f 34 22 11
f 35 11 22
f 35 22 23
f 36 23 22
f 36 22 4
f 36 4 23
f 37 23 15
f 37 16 25
f 38 24 17
f 38 17 3
f 39 24 7
f 39 7 17
f 39 17 24
f 40 25 1
f 40 1 7
f 40 7 24
f 41 18 12
f 41 12 27
f 41 27 6
f 41 34 18
f 42 27 12
f 42 12 7
f 42 7 19
f 43 3 17
f 43 17 28
f 43 28 29
f 44 31 20
f 44 20 13
f 44 6 31
f 44 13 33
f 45 31 27
f 45 20 31
f 45 32 20
f 46 14 22
f 46 22 34
f 47 29 18
f 47 18 34
f 47 34 11
f 47 11 29
f 48 29 11
f 48 11 35
f 49 37 15
f 49 15 10
f 49 10 37
f 50 37 10
f 50 10 16
f 50 16 37
f 51 24 38
f 51 40 24
f 51 25 40
f 52 41 6
f 52 34 41
f 52 46 34
f 52 33 14
f 52 44 33
f 52 6 44
f 53 27 42
f 53 45 27
f 54 43 29
f 54 3 43
f 54 29 48
f 54 48 35
f 55 37 25
f 55 25 51
f 57 52 14
f 57 14 46
f 57 46 52
f 58 32 45
f 58 45 53
f 58 53 30
f 58 30 2
f 58 2 32
f 59 53 42
f 59 42 19
f 59 19 30
f 59 30 53
f 60 54 35
f 60 35 23
f 60 56 54
f 61 3 54
f 61 54 56
f 62 55 51
f 62 37 55
f 62 56 37
f 62 61 56
f 62 51 38
f 62 38 3
f 62 3 61
f 63 23 37
f 63 37 56
f 63 60 23
f 63 56 60

