# https://github.com/mikedh/trimesh
v 0.04529692 0.02383340 0.05861339
v 0.05283460 0.00898169 0.05765682
v 0.03892979 0.02297721 0.03072963
v 0.02941278 0.02908439 0.03049287
v 0.04453027 0.00942071 0.05271704
v 0.03561322 0.02753262 0.03079959
v 0.04893772 0.02313973 0.05471807
v 0.04744871 0.00934088 0.05695476
v 0.03140747 0.02924310 0.04684746
v 0.04449300 0.00881676 0.03070761
v 0.03023469 0.02822054 0.03023054
v 0.05045715 0.01980970 0.05740368
v 0.05287292 0.00884977 0.05455273
v 0.04660964 0.01763015 0.05824786
v 0.04115542 0.00949822 0.04167381
v 0.03944375 0.02796705 0.04779188
v 0.04055803 0.02469934 0.05568541
v 0.04621075 0.00950137 0.05557255
v 0.04207029 0.01659050 0.03067893
v 0.04020922 0.00936810 0.03027578
v 0.04903149 0.02313794 0.05690940
v 0.04835877 0.02038749 0.05832195
v 0.04271491 0.00937770 0.04804496
v 0.05211343 0.01549471 0.05546948
v 0.04857815 0.01751305 0.05840897
v 0.03008989 0.02975058 0.04198105
v 0.04461236 0.02412767 0.05859615
v 0.03440911 0.02154413 0.03018604
v 0.05063217 0.02002939 0.05522797
v 0.05222055 0.01357967 0.05483884
v 0.05213188 0.01510879 0.05698639
v 0.04204862 0.02460011 0.05704707
v 0.04374414 0.01183708 0.03081072
f 7 3 6
f 11 6 3
f 11 4 6
f 13 2 8
f 14 8 2
f 16 7 6
f 16 6 4
f 18 9 5
f 18 5 8
f 18 17 9
f 18 8 17
f 19 3 7
f 20 4 11
f 20 15 4
f 20 19 10
f 21 7 16
f 22 2 12
f 22 21 1
f 22 12 21
f 23 13 8
f 23 8 5
f 23 10 13
f 23 5 9
f 23 9 15
f 23 20 10
f 23 15 20
f 24 2 13
f 25 14 2
f 25 22 1
f 25 2 22
f 26 15 9
f 26 4 15
f 26 16 4
f 26 9 16
f 27 16 9
f 27 21 16
f 27 1 21
f 27 25 1
f 27 14 25
f 27 8 14
f 28 11 3
f 28 3 19
f 28 20 11
f 28 19 20
f 29 21 12
f 29 7 21
f 29 19 7
f 30 24 13
f 30 13 10
f 30 10 24
f 31 12 2
f 31 2 24
f 31 29 12
f 31 24 29
f 32 27 9
f 32 9 17
f 32 17 8
f 32 8 27
f 33 29 24
f 33 24 10
f 33 10 19
f 33 19 29

