# https://github.com/mikedh/trimesh
v -0.03648655 -0.01969308 0.03030872
v -0.01980191 -0.04102392 0.03066714
v -0.02074485 0.02287399 0.01445694
v -0.01993232 0.01540183 0.00068064
v -0.01955189 -0.01803928 0.00160373
v -0.01942501 0.01813437 0.00183521
v -0.03754601 0.01256201 0.02369405
v -0.03334888 -0.02732951 0.02158480
v -0.01972375 0.02159007 0.00648351
v -0.01989459 -0.01523862 0.00056149
v -0.01957418 -0.03908590 0.02296746
v -0.02132550 -0.03556136 0.03021529
v -0.03681839 0.01490130 0.01565467
v -0.03505517 -0.02911621 0.03078707
v -0.01963449 -0.04059527 0.02765660
v -0.03657673 -0.01811389 0.01731077
v -0.02249940 -0.03070571 0.01429218
v -0.03192247 0.02114047 0.01417101
v -0.02574579 -0.00233190 0.00115070
v -0.04024697 -0.02142965 0.03070283
v -0.02692621 -0.03515717 0.02472433
v -0.02214562 -0.01331444 0.00095839
v -0.03038703 -0.02282424 0.01429757
v -0.01960264 -0.03741891 0.01979111
v -0.02087449 0.01519885 0.00100307
v -0.02737434 0.02129723 0.01122313
v -0.04279844 0.01218865 0.02414795
v -0.02539437 0.00391146 0.00090143
v -0.02414372 -0.03867103 0.03081263
v -0.03807631 -0.02278616 0.02457371
v -0.03175964 -0.03204105 0.02770447
v -0.02238015 -0.03827035 0.02459584
v -0.02383718 -0.03509782 0.02012312
v -0.02110662 -0.01489072 0.00098596
v -0.02378883 -0.01002670 0.00108164
v -0.03501616 -0.02271100 0.01876100
v -0.03340142 -0.02116304 0.01583615
v -0.01966133 -0.02957771 0.01221232
v -0.02033832 0.01743016 0.00208080
v -0.02235337 0.01314441 0.00120608
v -0.03416992 0.02161610 0.01663119
v -0.04358783 -0.00877147 0.02437337
v -0.04155662 -0.01889019 0.03056628
v -0.04148849 0.00560363 0.01856194
v -0.02111057 -0.04039455 0.03076293
v -0.03844171 -0.02462500 0.03072726
v -0.02707684 -0.03353285 0.02164347
v -0.03500816 -0.02734752 0.02480122
v -0.02877319 -0.03542294 0.03082122
v -0.02554093 -0.03674441 0.02618478
v -0.02088849 -0.03999898 0.02775397
v -0.02236555 -0.03527449 0.01893057
v -0.02385324 -0.03675875 0.02325729
v -0.03510291 -0.01503057 0.01430608
v -0.03979183 -0.01965209 0.02463823
v -0.03655420 -0.02431643 0.02319259
v -0.03355081 -0.01805938 0.01432990
v -0.03355413 0.02118832 0.01569629
v -0.02366384 0.01021302 0.00107483
v -0.04148020 0.01023942 0.01989319
v -0.04351141 0.01022516 0.02441277
v -0.02657680 -0.00220906 0.00192656
v -0.03838159 0.01027342 0.01561457
v -0.03985321 -0.02121634 0.02770085
f 9 3 2
f 10 6 5
f 10 4 6
f 11 5 6
f 12 7 1
f 12 1 2
f 12 2 3
f 12 3 7
f 15 9 2
f 15 6 9
f 15 11 6
f 23 17 8
f 23 5 17
f 24 5 11
f 25 6 4
f 26 9 6
f 26 6 18
f 28 4 10
f 28 10 19
f 32 11 15
f 34 22 10
f 34 10 5
f 35 19 10
f 35 10 22
f 36 23 8
f 37 22 34
f 37 34 5
f 37 5 23
f 37 36 16
f 37 23 36
f 38 24 17
f 38 17 5
f 38 5 24
f 39 25 18
f 39 18 6
f 39 6 25
f 40 18 25
f 41 26 18
f 41 3 9
f 41 9 26
f 41 27 7
f 41 7 3
f 43 20 1
f 43 1 7
f 43 7 27
f 45 2 1
f 45 1 20
f 45 20 29
f 46 14 20
f 47 31 8
f 47 21 31
f 47 8 17
f 47 17 33
f 48 8 31
f 48 31 14
f 48 46 30
f 48 14 46
f 49 14 31
f 49 29 20
f 49 20 14
f 50 29 49
f 50 49 31
f 50 31 21
f 51 32 15
f 51 50 32
f 51 29 50
f 51 45 29
f 51 15 2
f 51 2 45
f 52 33 17
f 52 17 24
f 52 24 33
f 53 47 33
f 53 21 47
f 53 50 21
f 53 32 50
f 53 11 32
f 53 33 24
f 53 24 11
f 54 35 22
f 54 16 42
f 54 42 44
f 55 16 36
f 55 42 16
f 55 43 42
f 56 36 8
f 56 55 36
f 56 30 55
f 56 48 30
f 56 8 48
f 57 37 16
f 57 22 37
f 57 54 22
f 57 16 54
f 58 40 13
f 58 18 40
f 58 41 18
f 58 13 41
f 59 13 40
f 59 4 28
f 59 40 25
f 59 25 4
f 60 41 13
f 60 27 41
f 61 43 27
f 61 42 43
f 61 44 42
f 61 60 44
f 61 27 60
f 62 44 28
f 62 28 19
f 62 54 44
f 62 19 35
f 62 35 54
f 63 28 44
f 63 59 28
f 63 13 59
f 63 60 13
f 63 44 60
f 64 46 20
f 64 30 46
f 64 55 30
f 64 20 43
f 64 43 55

