# https://github.com/mikedh/trimesh
v 0.01227832 0.04389622 0.03073093
v 0.01301786 0.03951167 0.03035861
v 0.01272350 0.03220179 0.01731847
v -0.01905662 0.02775629 0.01623682
v -0.02067718 0.03623059 0.03037774
v -0.02055446 0.02751358 0.01667053
v -0.01159540 0.04009648 0.01867058
v 0.01214768 0.04158888 0.02169936
v 0.01203426 0.03994215 0.01864698
v -0.01468614 0.04360337 0.03075156
v -0.01945064 0.03714851 0.01854844
v 0.01313878 0.03291965 0.01810078
v 0.00891087 0.04168605 0.02013675
v -0.01809880 0.04231077 0.03074093
v -0.02116305 0.02833823 0.01750161
v -0.01323330 0.04168114 0.02177904
v -0.01630969 0.03870451 0.01862034
v -0.00366733 0.04519936 0.02758055
v 0.00419612 0.04508072 0.02763684
v -0.02000073 0.04149748 0.03063446
v -0.01769663 0.04166261 0.02616173
v -0.00687234 0.04529146 0.03071722
v -0.00843367 0.04333244 0.02307447
v 0.01215637 0.04349445 0.02768510
v 0.00740100 0.04326676 0.02307679
v -0.02117249 0.03528981 0.02836564
v -0.01473079 0.04339617 0.02920208
v -0.01920931 0.03987414 0.02309572
v 0.00582986 0.04536699 0.03073231
v -0.00982257 0.04168091 0.02031096
v -0.00682197 0.04512132 0.02903702
v -0.01146926 0.04322898 0.02453623
v -0.01927032 0.03842086 0.02027408
v -0.01769988 0.03993024 0.02159369
v 0.00582853 0.04514703 0.02916272
v -0.01316706 0.04324131 0.02617473
f 5 2 1
f 6 3 2
f 6 4 3
f 6 2 5
f 8 1 2
f 9 3 4
f 9 4 7
f 11 4 6
f 12 8 2
f 12 2 3
f 12 9 8
f 12 3 9
f 13 9 7
f 13 8 9
f 14 5 1
f 14 1 10
f 15 11 6
f 15 6 5
f 17 7 4
f 17 4 11
f 17 16 7
f 20 5 14
f 21 20 14
f 24 1 8
f 25 8 13
f 25 13 23
f 25 23 18
f 25 18 19
f 25 24 8
f 26 15 5
f 26 5 20
f 26 20 11
f 26 11 15
f 27 21 14
f 27 14 10
f 28 20 21
f 29 22 10
f 29 10 1
f 29 19 18
f 29 18 22
f 30 23 13
f 30 13 7
f 30 7 16
f 30 16 23
f 31 22 18
f 31 18 23
f 31 27 10
f 31 10 22
f 32 23 16
f 32 31 23
f 33 11 20
f 33 20 28
f 33 17 11
f 34 28 21
f 34 21 16
f 34 33 28
f 34 16 17
f 34 17 33
f 35 19 29
f 35 25 19
f 35 24 25
f 35 29 1
f 35 1 24
f 36 32 16
f 36 16 21
f 36 21 27
f 36 27 31
f 36 31 32

