# https://github.com/mikedh/trimesh
v 0.01586354 0.04994560 0.05840448
v 0.01641554 0.04511394 0.05609264
v 0.01556087 0.04591296 0.04755239
v -0.02444638 0.04217820 0.04781585
v -0.02586940 0.04161971 0.05741512
v -0.02536869 0.03565636 0.04698843
v -0.00836947 0.05346515 0.05499448
v 0.01552709 0.05200828 0.05532617
v 0.01602993 0.04859967 0.05858601
v 0.01613747 0.04069479 0.04696672
v -0.02299107 0.03715926 0.04655930
v -0.02621691 0.03688498 0.05120701
v -0.00672391 0.04837004 0.04811310
v -0.01195037 0.05147041 0.05828033
v 0.01561957 0.05207795 0.05731484
v 0.01624604 0.04623995 0.05740510
v 0.01669224 0.04205719 0.05107649
v 0.00427380 0.04819323 0.04773304
v -0.02438062 0.04862572 0.05514407
v -0.02595574 0.04002471 0.05583165
v -0.01475813 0.04645580 0.04796143
v 0.01248466 0.05134951 0.05828101
v -0.02541787 0.04422390 0.05857074
v 0.01071964 0.05363412 0.05674575
v 0.01058682 0.05351454 0.05578483
v -0.02513628 0.04657644 0.05837906
v -0.01782764 0.05169649 0.05704087
v -0.01946782 0.04485917 0.04820426
v -0.01646074 0.05196469 0.05508887
v -0.00997043 0.05354150 0.05724733
v 0.00915967 0.05346696 0.05728105
v 0.01378435 0.04670963 0.04802569
v 0.00768484 0.05350584 0.05518655
v -0.01840194 0.04988011 0.05822785
v -0.02447122 0.04885705 0.05724581
v -0.02128612 0.05026659 0.05528089
v -0.01171457 0.05357041 0.05663268
v -0.02326274 0.04798219 0.05825769
v -0.02282681 0.05004633 0.05588079
v -0.01178226 0.05338668 0.05608243
v -0.02289411 0.04994765 0.05639948
v -0.01832968 0.05162901 0.05555939
f 11 6 4
f 11 10 6
f 12 4 6
f 15 9 2
f 15 1 9
f 16 9 5
f 16 2 9
f 17 2 12
f 17 12 6
f 17 6 10
f 17 15 2
f 17 8 15
f 17 10 3
f 17 3 8
f 18 3 10
f 18 10 11
f 18 13 7
f 19 4 12
f 20 12 2
f 20 5 12
f 20 16 5
f 20 2 16
f 21 11 4
f 21 18 11
f 21 13 18
f 22 14 9
f 22 9 1
f 22 1 15
f 23 5 9
f 23 9 14
f 24 15 8
f 25 24 8
f 26 19 12
f 26 12 5
f 26 5 23
f 26 23 14
f 28 21 4
f 29 7 13
f 29 13 21
f 29 21 28
f 31 22 15
f 31 15 24
f 31 24 30
f 31 30 14
f 31 14 22
f 32 25 8
f 32 8 3
f 32 3 18
f 32 18 25
f 33 25 18
f 33 18 7
f 33 7 24
f 33 24 25
f 34 26 14
f 34 30 27
f 34 14 30
f 35 19 26
f 36 28 4
f 36 29 28
f 37 30 24
f 37 24 7
f 37 27 30
f 38 34 27
f 38 27 35
f 38 35 26
f 38 26 34
f 39 36 4
f 39 4 19
f 39 19 35
f 40 37 7
f 40 7 29
f 40 29 37
f 41 39 35
f 41 35 27
f 41 27 39
f 42 29 36
f 42 36 39
f 42 37 29
f 42 39 27
f 42 27 37

