# https://github.com/mikedh/trimesh
v 0.01236797 0.03949627 0.01813223
v 0.03958210 -0.01043423 0.01812336
v 0.02248029 0.01146471 0.00089089
v -0.01968880 0.01643058 0.00091526
v -0.02076386 -0.02263475 0.01470149
v 0.00712657 0.02423483 0.00116883
v 0.03842696 0.01372584 0.01788524
v -0.01804605 0.03761481 0.01820635
v 0.01349357 -0.02115779 0.00092450
v 0.01503147 0.02191903 0.00230586
v 0.03969143 0.01046307 0.01808248
v 0.03467068 -0.02156735 0.01820146
v -0.02090794 0.02489124 0.01558976
v -0.00804365 0.02455773 0.00120088
v 0.02411916 -0.00714119 0.00095305
v -0.01924897 -0.01785381 0.00114906
v 0.01960279 -0.01637097 0.00086925
v 0.01214286 0.03870814 0.01703038
v 0.01386289 0.02124628 0.00110755
v 0.03772373 0.01344943 0.01686713
v 0.03802171 -0.01523822 0.01823126
v 0.02328331 -0.02293991 0.01605858
v -0.01989415 0.03642059 0.01790697
v 0.03745120 0.00080253 0.01400490
v -0.01464946 -0.02128549 0.00092442
v 0.03106523 -0.02124664 0.01432356
v 0.00580900 0.04022619 0.01706375
v 0.01199286 0.02375693 0.00256269
v 0.02436340 0.00691538 0.00095227
v 0.03725160 -0.01168562 0.01571324
v -0.01778939 0.03392043 0.01414650
v -0.01859765 -0.02052181 0.00382163
v -0.01733861 -0.01908090 0.00093197
v 0.01630534 -0.02070569 0.00207401
v 0.03403476 -0.02117276 0.01702800
v 0.00746015 0.03871751 0.01569021
v -0.00687301 0.04027196 0.01707204
v 0.03729779 0.01188864 0.01572419
v 0.03730281 -0.01500542 0.01719319
v 0.03742209 -0.00234544 0.01406171
v -0.01428006 0.02076986 0.00111051
v -0.01951984 0.03092547 0.01272895
v -0.01773124 0.03696397 0.01720370
v -0.01718999 -0.02054261 0.00235512
v 0.01649126 -0.01934815 0.00111029
v -0.00692114 0.04094579 0.01806628
v 0.03898622 0.01024979 0.01711631
v 0.03890743 -0.01018484 0.01713758
v 0.02265399 -0.01136703 0.00092266
v -0.01956473 0.03575553 0.01695557
v -0.01885670 0.01902460 0.00219573
v -0.01315502 0.03866714 0.01716858
v 0.00594007 0.04096242 0.01810425
v -0.00827803 0.03877585 0.01567458
v -0.01338584 0.03928970 0.01811263
f 11 7 1
f 12 8 5
f 13 4 5
f 14 6 4
f 16 5 4
f 17 4 3
f 18 1 7
f 18 7 10
f 19 10 3
f 19 3 4
f 19 4 6
f 20 10 7
f 20 3 10
f 20 7 11
f 21 1 8
f 21 8 12
f 21 11 1
f 21 2 11
f 22 12 5
f 22 9 12
f 23 4 13
f 23 13 5
f 23 5 8
f 24 11 2
f 25 22 5
f 25 9 22
f 25 17 9
f 25 4 17
f 26 12 9
f 27 6 14
f 27 1 18
f 28 18 10
f 28 10 19
f 28 19 6
f 28 6 18
f 29 24 15
f 29 15 3
f 32 25 5
f 32 5 16
f 33 25 16
f 33 16 4
f 33 4 25
f 34 26 9
f 34 17 26
f 35 21 12
f 35 12 26
f 35 26 17
f 36 27 18
f 36 18 6
f 36 6 27
f 37 27 14
f 38 29 3
f 38 3 20
f 39 2 21
f 39 21 35
f 40 24 2
f 40 15 24
f 41 31 14
f 41 14 4
f 42 4 23
f 43 23 8
f 44 32 16
f 44 16 25
f 44 25 32
f 45 34 9
f 45 9 17
f 45 17 34
f 47 38 20
f 47 20 11
f 47 11 24
f 47 24 29
f 47 29 38
f 48 39 30
f 48 2 39
f 48 40 2
f 48 30 15
f 48 15 40
f 49 39 35
f 49 35 17
f 49 15 30
f 49 30 39
f 49 17 3
f 49 3 15
f 50 42 23
f 50 31 42
f 50 43 31
f 50 23 43
f 51 41 4
f 51 4 42
f 51 42 31
f 51 31 41
f 52 43 8
f 52 14 31
f 52 31 43
f 53 46 8
f 53 8 1
f 53 1 27
f 53 27 37
f 53 37 46
f 54 52 37
f 54 37 14
f 54 14 52
f 55 46 37
f 55 37 52
f 55 52 8
f 55 8 46

