# https://github.com/mikedh/trimesh
v 0.03974878 -0.02171405 0.03068395
v 0.03910868 -0.02285469 0.03075563
v 0.01232425 -0.02152291 0.00058888
v -0.01330931 -0.02174082 0.00078881
v -0.02061743 -0.03602609 0.03043850
v -0.01963276 -0.02150270 0.00641162
v 0.03080700 -0.02583819 0.01717858
v -0.00526854 -0.04340567 0.02302809
v 0.03602654 -0.02133615 0.01991106
v -0.02076386 -0.02263475 0.01470149
v -0.00514804 -0.04024005 0.01705255
v 0.02331928 -0.03891141 0.03071239
v 0.03952562 -0.02160223 0.02915961
v 0.02995120 -0.02161763 0.01368872
v 0.03385943 -0.02732567 0.02336891
v -0.01949905 -0.03251520 0.01416361
v -0.00835184 -0.02439676 0.00105449
v -0.01310976 -0.04369781 0.03082186
v 0.01050558 -0.04175301 0.02148870
v 0.03886429 -0.02282952 0.02929690
v 0.02936722 -0.02581685 0.01583708
v 0.03085327 -0.02743215 0.01877488
v 0.02799932 -0.03561179 0.03079378
v -0.01296869 -0.02249590 0.00097203
v -0.01610147 -0.03844852 0.01863432
v 0.00741224 -0.02426410 0.00107549
v -0.01786284 -0.04191236 0.03076639
v 0.00743435 -0.04173135 0.02000111
v 0.00430294 -0.04540322 0.03073424
v 0.03773213 -0.02141183 0.02298040
v 0.02953010 -0.02290223 0.01406891
v 0.01991878 -0.03374889 0.01572178
v 0.03543487 -0.02261905 0.02028077
v 0.02623486 -0.03207287 0.01889946
v 0.03589358 -0.02752254 0.03079612
v -0.00827010 -0.04165525 0.02006000
v -0.00834030 -0.03850510 0.01555098
v -0.01769638 -0.03524259 0.01569977
v -0.01613566 -0.04170508 0.02614825
v -0.01980191 -0.04102392 0.03066714
v 0.00578825 -0.04022869 0.01727788
v -0.00364246 -0.04521159 0.02914509
v 0.00585222 -0.04335042 0.02303799
v 0.01368480 -0.04348762 0.03080567
v 0.03712231 -0.02434636 0.02610902
v 0.02652454 -0.02458536 0.01290803
v 0.02453998 -0.03050787 0.01585594
v 0.01201166 -0.02250473 0.00116090
v 0.03712398 -0.02265974 0.02333201
v 0.02443222 -0.03526186 0.02170896
v 0.02908454 -0.03045332 0.02022632
v 0.03575417 -0.02736799 0.02919786
v -0.01145881 -0.04011923 0.01871448
v -0.01305690 -0.03853349 0.01724839
v -0.01776804 -0.04172875 0.02917927
v -0.01153510 -0.04327129 0.02619821
v -0.01927353 -0.03694062 0.01871771
v 0.01211351 -0.03860033 0.01718894
v -0.00366646 -0.04542643 0.03074689
v 0.00429657 -0.04518009 0.02924586
v 0.00888320 -0.04336651 0.02453885
v 0.02450501 -0.03205698 0.01737805
v 0.02762985 -0.03529444 0.02780178
v 0.01980886 -0.03519940 0.01727863
f 5 2 1
f 6 3 4
f 9 3 6
f 10 5 1
f 10 1 6
f 13 6 1
f 14 9 7
f 14 3 9
f 16 10 6
f 16 5 10
f 17 4 3
f 20 13 1
f 20 1 2
f 24 16 6
f 24 6 4
f 24 4 17
f 26 17 3
f 26 11 17
f 27 18 2
f 27 2 5
f 30 9 6
f 30 6 13
f 31 14 7
f 31 7 21
f 31 3 14
f 33 22 7
f 33 7 9
f 33 15 22
f 33 9 30
f 34 7 22
f 35 2 18
f 36 11 8
f 37 17 11
f 38 24 17
f 38 16 24
f 40 27 5
f 41 28 11
f 41 11 26
f 43 28 19
f 43 8 11
f 43 11 28
f 43 42 8
f 44 12 23
f 44 35 18
f 44 23 35
f 45 30 13
f 45 13 20
f 46 31 21
f 46 3 31
f 47 21 7
f 47 7 34
f 47 46 21
f 47 3 46
f 48 26 3
f 48 47 32
f 48 3 47
f 49 33 30
f 49 15 33
f 49 45 15
f 49 30 45
f 50 44 19
f 50 12 44
f 51 34 22
f 51 22 15
f 51 50 34
f 52 20 2
f 52 2 35
f 52 45 20
f 52 15 45
f 52 35 23
f 53 39 25
f 53 37 11
f 53 11 36
f 54 25 38
f 54 53 25
f 54 37 53
f 54 38 17
f 54 17 37
f 55 39 18
f 55 18 27
f 55 40 39
f 55 27 40
f 56 36 8
f 56 18 39
f 56 42 18
f 56 8 42
f 56 53 36
f 56 39 53
f 57 40 5
f 57 5 16
f 57 16 38
f 57 38 25
f 57 25 39
f 57 39 40
f 58 41 26
f 58 19 28
f 58 28 41
f 58 48 32
f 58 26 48
f 59 42 29
f 59 18 42
f 59 44 18
f 59 29 44
f 60 29 42
f 60 42 43
f 60 44 29
f 61 43 19
f 61 19 44
f 61 60 43
f 61 44 60
f 62 47 34
f 62 32 47
f 63 23 12
f 63 12 50
f 63 50 51
f 63 51 15
f 63 52 23
f 63 15 52
f 64 34 50
f 64 62 34
f 64 32 62
f 64 58 32
f 64 50 19
f 64 19 58

