# https://github.com/mikedh/trimesh
v 0.01990856 0.02087130 0.06152543
v 0.03462757 0.00200982 0.04993945
v 0.02652199 0.02111703 0.04937517
v -0.02125143 0.02090806 0.05122829
v -0.00545712 -0.02342787 0.06177077
v -0.01489775 -0.02502712 0.04926810
v 0.00084691 0.02235108 0.04996784
v 0.02929701 0.01142744 0.05879865
v -0.02679275 0.00335027 0.06373994
v 0.02859870 -0.01745103 0.04948285
v -0.01492636 0.02092213 0.06160816
v -0.02333066 -0.01736110 0.04951611
v 0.03288561 0.00997266 0.04953811
v 0.02596870 0.01745716 0.05871067
v 0.02808702 -0.00600215 0.06157299
v 0.02791012 0.01940326 0.04933712
v 0.01220509 -0.02872770 0.04960643
v -0.02108268 0.01743517 0.05884890
v -0.02466120 0.01624560 0.05126766
v -0.01620307 -0.02139014 0.05736164
v 0.03254856 0.00661344 0.05439248
v 0.02297114 0.02066821 0.05897586
v 0.02633904 0.01297116 0.06147159
v 0.02783274 -0.01051171 0.06012284
v 0.01045364 -0.02346508 0.06171998
v 0.01704891 -0.02687937 0.04943021
v 0.02606096 0.01914555 0.05589891
v -0.00226720 -0.02802771 0.05601857
v -0.01926573 0.02063318 0.05742168
v -0.02659906 0.00761674 0.06173311
v -0.01780124 -0.02144776 0.05431133
v -0.01988755 -0.01389648 0.06149471
v 0.03096888 0.01297965 0.05284726
v 0.03130600 0.00185581 0.05906299
v 0.02300834 0.01776242 0.06148741
v 0.02761748 0.01287627 0.06024055
v 0.02801333 0.00830658 0.06159758
v 0.02774432 -0.01537465 0.05580772
v -0.02678514 -0.00102181 0.06363196
v 0.01998635 -0.01851808 0.06151778
v -0.00711958 -0.02862170 0.04933618
v 0.01203574 -0.02639735 0.05732441
v 0.02758539 0.01913660 0.05117748
v 0.02456116 0.02073445 0.05592654
v -0.00695015 -0.02637158 0.05733948
v 0.00879165 -0.02637086 0.05890669
v -0.02249669 0.01749765 0.05598426
v -0.01798746 0.01777307 0.06163159
v -0.01316512 -0.02468158 0.05436734
v -0.01332283 -0.02011278 0.06148419
v -0.02276373 -0.01511822 0.05756743
v 0.03253673 0.00987364 0.05115036
v 0.03104530 0.00824829 0.05749902
v 0.02930156 0.01444473 0.05589475
v 0.03278146 0.00174207 0.05607830
v 0.02936107 0.00821014 0.06026596
v 0.02296588 -0.02162107 0.05434151
v -0.02487865 -0.01417381 0.05141860
v 0.02311333 -0.01540085 0.06143516
v 0.01519898 -0.02637484 0.05439402
v 0.01515427 -0.02315415 0.06017599
v -0.00371940 -0.02640039 0.05882903
v -0.00697150 -0.02818506 0.05114275
v 0.00732256 -0.02808470 0.05596690
f 7 1 3
f 11 7 4
f 11 1 7
f 11 9 1
f 12 4 7
f 12 7 3
f 12 3 6
f 13 2 10
f 16 6 3
f 16 13 10
f 19 4 12
f 21 2 13
f 22 3 1
f 26 16 10
f 26 6 16
f 27 22 14
f 29 18 11
f 29 11 4
f 31 12 6
f 33 13 16
f 34 15 24
f 35 22 1
f 35 14 22
f 35 23 14
f 36 8 14
f 36 14 23
f 37 9 15
f 37 15 34
f 37 36 23
f 37 23 35
f 37 35 1
f 37 1 9
f 38 10 2
f 39 25 15
f 39 15 9
f 39 5 25
f 39 9 30
f 40 15 25
f 41 26 17
f 41 6 26
f 41 17 28
f 43 16 3
f 43 3 27
f 44 27 3
f 44 3 22
f 44 22 27
f 46 25 5
f 47 18 29
f 47 30 18
f 47 19 30
f 47 29 4
f 47 4 19
f 48 30 9
f 48 9 11
f 48 11 18
f 48 18 30
f 49 31 6
f 49 20 31
f 49 45 20
f 49 6 41
f 50 39 32
f 50 5 39
f 50 45 5
f 50 20 45
f 51 31 20
f 51 50 32
f 51 20 50
f 51 12 31
f 51 32 39
f 52 21 13
f 52 13 33
f 53 52 33
f 53 21 52
f 54 27 14
f 54 14 8
f 54 53 33
f 54 8 53
f 54 43 27
f 54 33 16
f 54 16 43
f 55 2 21
f 55 53 34
f 55 21 53
f 55 34 24
f 55 38 2
f 55 24 38
f 56 8 36
f 56 36 37
f 56 53 8
f 56 37 34
f 56 34 53
f 57 26 10
f 57 10 38
f 58 39 30
f 58 30 19
f 58 19 12
f 58 51 39
f 58 12 51
f 59 24 15
f 59 15 40
f 59 38 24
f 59 57 38
f 59 40 57
f 60 42 17
f 60 17 26
f 60 26 57
f 61 40 25
f 61 46 42
f 61 25 46
f 61 57 40
f 61 60 57
f 61 42 60
f 62 45 28
f 62 5 45
f 62 46 5
f 63 41 28
f 63 28 45
f 63 49 41
f 63 45 49
f 64 28 17
f 64 17 42
f 64 42 46
f 64 62 28
f 64 46 62

