# https://github.com/mikedh/trimesh
v 0.02852125 0.02943556 0.03273401
v 0.04667456 -0.00754185 0.03358212
v 0.03940568 0.00994308 0.01580951
v 0.02416903 0.00532204 0.00095805
v 0.02598069 -0.03144707 0.03292404
v 0.03803542 -0.01396996 0.01558102
v 0.02409854 0.03010225 0.01565913
v 0.04654477 0.00116045 0.03363740
v 0.04117051 -0.00126600 0.01680692
v 0.02534594 -0.03057733 0.01669698
v 0.03616558 0.02102201 0.02164588
v 0.03281117 0.02247179 0.01584119
v 0.02369390 0.03289936 0.03274178
v 0.03956668 -0.00933577 0.01549225
v 0.04611013 0.00098652 0.03195841
v 0.02451360 0.00202056 0.00085770
v 0.03615264 -0.02197496 0.02325379
v 0.02972411 0.02897198 0.02470174
v 0.03927749 0.01459360 0.02024342
v 0.03608687 0.02103584 0.03256909
v 0.03521538 0.01655783 0.01467447
v 0.02820330 0.02731942 0.01599851
v 0.02456047 0.00202517 0.03302959
v 0.02362331 0.01961270 0.00912157
v 0.04452511 -0.00765595 0.02703651
v 0.04115618 0.00189786 0.01682312
v 0.04105620 0.00664684 0.01839233
v 0.03837743 0.00995551 0.01475458
v 0.03831236 -0.01105297 0.01461322
v 0.02530482 -0.01911895 0.00898513
v 0.03121251 -0.02501107 0.01578873
v 0.03772109 -0.01718584 0.01848597
v 0.03449057 -0.02358464 0.03249573
v 0.02644926 -0.03148396 0.02171405
v 0.02967325 0.02898978 0.02945875
v 0.02372583 0.03277540 0.02148447
v 0.03283415 0.02406026 0.01854392
v 0.03766909 0.01779625 0.02011113
v 0.03293665 0.02580482 0.02472072
v 0.02546275 -0.03228015 0.03105989
v 0.02380750 0.01329201 0.00583603
v 0.02679491 -0.01088979 0.00618822
v 0.02708110 -0.02742249 0.01463225
v 0.04507002 -0.01051067 0.03342780
v 0.04281702 -0.01067460 0.02531084
v 0.03464631 -0.02048847 0.01562793
v 0.03288157 -0.02509118 0.02005509
v 0.02800716 -0.02980708 0.02014974
v 0.02820196 -0.02995160 0.03249835
v 0.02488680 0.03214503 0.03257595
v 0.03290459 0.02577955 0.02942441
v 0.02371757 0.03110496 0.01674641
v 0.02798278 0.02886567 0.01856697
v 0.03129023 0.02730778 0.02313094
v 0.02536262 -0.03219294 0.02152753
v 0.02535881 -0.01596858 0.00728059
v 0.02978055 -0.00930930 0.00773117
v 0.02953310 -0.02669049 0.01574998
v 0.02568076 -0.02764190 0.01418739
v 0.04439319 -0.01026535 0.03018720
v 0.03607147 -0.02197689 0.03091645
v 0.03330267 -0.02068407 0.01449492
v 0.03592598 -0.02031472 0.01847291
v 0.03428637 -0.02194523 0.01685221
f 8 5 2
f 13 8 1
f 15 8 2
f 15 2 9
f 16 9 14
f 19 11 8
f 20 1 8
f 20 8 11
f 21 12 3
f 21 4 12
f 22 12 4
f 23 5 8
f 23 8 13
f 24 22 4
f 24 7 22
f 25 14 9
f 25 9 2
f 25 6 14
f 26 15 9
f 26 9 16
f 27 8 15
f 27 19 8
f 27 3 19
f 27 26 3
f 27 15 26
f 28 16 4
f 28 26 16
f 28 3 26
f 28 21 3
f 28 4 21
f 29 16 14
f 29 14 6
f 30 10 4
f 30 4 16
f 37 11 12
f 37 12 22
f 38 12 11
f 38 11 19
f 38 19 3
f 38 3 12
f 39 20 11
f 39 18 35
f 40 5 23
f 40 23 13
f 40 13 24
f 41 24 4
f 41 4 10
f 44 17 32
f 44 2 5
f 44 5 33
f 45 25 2
f 45 32 6
f 45 6 25
f 46 6 32
f 47 17 34
f 48 34 10
f 48 47 34
f 49 34 17
f 49 17 33
f 49 40 34
f 49 33 5
f 49 5 40
f 50 35 18
f 50 13 1
f 50 1 35
f 50 36 13
f 50 18 36
f 51 35 1
f 51 1 20
f 51 39 35
f 51 20 39
f 52 7 24
f 52 24 13
f 52 13 36
f 52 22 7
f 53 36 18
f 53 52 36
f 53 22 52
f 53 37 22
f 54 39 11
f 54 11 37
f 54 37 53
f 54 53 18
f 54 18 39
f 55 10 34
f 55 34 40
f 55 41 10
f 55 40 24
f 55 24 41
f 56 30 16
f 56 16 42
f 57 42 16
f 57 16 29
f 58 43 31
f 58 10 43
f 58 48 10
f 58 31 47
f 58 47 48
f 59 43 10
f 59 10 30
f 59 30 43
f 60 44 32
f 60 2 44
f 60 45 2
f 60 32 45
f 61 44 33
f 61 33 17
f 61 17 44
f 62 29 6
f 62 6 46
f 62 57 29
f 62 42 57
f 62 56 42
f 62 46 31
f 62 31 43
f 62 43 30
f 62 30 56
f 63 46 32
f 63 32 17
f 64 47 31
f 64 31 46
f 64 46 63
f 64 63 17
f 64 17 47

