# https://github.com/mikedh/trimesh
v 0.02652199 0.02111703 0.04937517
v 0.03233681 0.00213166 0.05060318
v 0.02596993 0.02408924 0.01526199
v 0.00084691 0.02235108 0.01778516
v 0.00093273 -0.03014611 0.04942918
v 0.00084691 0.02235108 0.04996784
v 0.03017032 0.02449090 0.03384392
v 0.02488844 -0.03157283 0.01842355
v 0.00088616 -0.03794869 0.01797055
v 0.02801982 -0.02822866 0.03713655
v 0.02889137 -0.02929102 0.03278352
v 0.01868571 -0.03493952 0.01835444
v 0.02317667 -0.02320435 0.04907589
v 0.02964194 0.00202517 0.03302959
v 0.02791437 -0.01851822 0.04910239
v 0.00904386 -0.03827693 0.03257168
v 0.02625429 0.00202517 0.01778516
v 0.02341832 -0.03318015 0.03256063
v 0.01838782 -0.02631082 0.04922108
v 0.00095493 -0.03828691 0.03417198
v 0.01066416 -0.03820601 0.02160038
v 0.02333524 -0.03308781 0.02012895
v 0.01052190 -0.03491969 0.04027813
v 0.02329268 -0.02987460 0.04004299
v 0.01382917 -0.03664435 0.01829211
v 0.01703854 -0.03653541 0.03094336
v 0.00098844 -0.03846293 0.01994248
v 0.00885713 -0.02969895 0.04918839
v 0.00415193 -0.03836204 0.03411649
v 0.02177963 -0.03313221 0.03556456
v 0.02478869 -0.02985848 0.03854017
v 0.01686799 -0.03312685 0.04008434
v 0.00739018 -0.03833272 0.01999209
v 0.01699188 -0.03645607 0.02156012
v 0.01221188 -0.03831892 0.02783711
v 0.02012457 -0.03480101 0.02008022
v 0.00095220 -0.03553836 0.04061705
v 0.01057727 -0.03648018 0.03719233
v 0.02012862 -0.03490770 0.03247927
v 0.01062516 -0.03830526 0.03098096
v 0.01227453 -0.03828916 0.02472304
v 0.01692897 -0.03471291 0.03704899
v 0.01538575 -0.03635952 0.03410004
v 0.01855071 -0.03463853 0.03565332
f 6 5 2
f 6 2 1
f 7 1 2
f 7 6 1
f 7 3 4
f 7 4 6
f 9 6 4
f 9 5 6
f 9 4 3
f 12 3 8
f 14 7 2
f 14 2 11
f 15 11 2
f 15 10 11
f 15 13 10
f 17 11 8
f 17 8 3
f 17 14 11
f 17 3 7
f 17 7 14
f 18 11 10
f 19 2 5
f 19 15 2
f 19 13 15
f 22 12 8
f 22 8 11
f 22 11 18
f 24 13 19
f 25 9 3
f 25 3 12
f 27 20 9
f 28 19 5
f 29 20 27
f 30 18 10
f 31 10 13
f 31 13 24
f 31 30 10
f 31 24 30
f 32 24 19
f 32 30 24
f 32 28 23
f 32 19 28
f 33 25 21
f 33 9 25
f 33 27 9
f 34 25 12
f 34 21 25
f 35 29 27
f 36 22 18
f 36 18 26
f 36 26 34
f 36 34 12
f 36 12 22
f 37 28 5
f 37 23 28
f 37 20 29
f 37 5 9
f 37 9 20
f 38 29 16
f 38 37 29
f 38 23 37
f 39 26 18
f 39 18 30
f 40 35 26
f 40 16 29
f 40 29 35
f 41 34 26
f 41 26 35
f 41 21 34
f 41 33 21
f 41 35 27
f 41 27 33
f 42 32 23
f 42 23 38
f 42 30 32
f 43 38 16
f 43 42 38
f 43 26 39
f 43 40 26
f 43 16 40
f 44 39 30
f 44 30 42
f 44 43 39
f 44 42 43

