# https://github.com/mikedh/trimesh
v 0.05274086 -0.00185233 0.05480997
v 0.05493701 -0.00710563 0.05221497
v 0.05504773 0.00040694 0.05037892
v 0.04163489 0.00837560 0.03273002
v 0.03723471 -0.01773531 0.03605980
v 0.04625807 -0.00865276 0.03364073
v 0.04062257 0.00858765 0.03612463
v 0.05499896 0.00033118 0.05192375
v 0.05087324 -0.00655520 0.05320095
v 0.05475789 -0.00551143 0.04786940
v 0.04654477 0.00116045 0.03363740
v 0.03870404 -0.01725440 0.03269021
v 0.03571778 0.00190007 0.04725272
v 0.05299846 -0.00437887 0.05490142
v 0.04146624 0.00879272 0.03302376
v 0.05385960 -0.00683652 0.05350132
v 0.05492965 -0.00675579 0.04937154
v 0.05473937 -0.00061152 0.04780399
v 0.04800142 -0.00579645 0.03549397
v 0.03796369 -0.01821108 0.03299092
v 0.03896613 -0.00692474 0.04645087
v 0.05223806 0.00024307 0.05346969
v 0.05086236 -0.00424695 0.05459424
v 0.03715357 -0.01573342 0.03896529
v 0.05311025 -0.00792056 0.05133267
v 0.04471967 0.00392667 0.03331234
v 0.05299252 -0.00166933 0.04440517
v 0.04070605 0.00430645 0.03314022
v 0.05290770 0.00030893 0.05336053
v 0.05086471 -0.00216684 0.05449773
v 0.04265633 -0.00451649 0.04962568
v 0.05298655 -0.00431846 0.04442680
v 0.04793743 -0.00027583 0.03570503
f 8 2 3
f 11 6 4
f 12 4 6
f 14 8 1
f 14 2 8
f 15 8 3
f 15 7 8
f 15 13 7
f 16 14 9
f 16 2 14
f 17 10 3
f 17 3 2
f 17 12 6
f 17 6 10
f 18 3 10
f 18 15 3
f 18 4 15
f 19 10 6
f 19 6 11
f 20 2 5
f 20 5 13
f 20 4 12
f 20 17 2
f 20 12 17
f 22 7 13
f 23 9 14
f 23 21 9
f 23 14 1
f 24 16 9
f 24 5 16
f 24 9 21
f 24 21 13
f 24 13 5
f 25 16 5
f 25 5 2
f 25 2 16
f 26 18 11
f 26 11 4
f 26 4 18
f 27 18 10
f 28 20 13
f 28 13 15
f 28 15 4
f 28 4 20
f 29 8 7
f 29 7 22
f 29 22 1
f 29 1 8
f 30 22 13
f 30 1 22
f 30 23 1
f 30 13 23
f 31 23 13
f 31 13 21
f 31 21 23
f 32 27 10
f 32 10 19
f 32 19 27
f 33 27 19
f 33 19 11
f 33 11 18
f 33 18 27

