# https://github.com/mikedh/trimesh
v 0.02625429 0.00202517 0.01778516
v 0.02662494 -0.02722401 0.01740288
v 0.02440528 -0.00262270 0.00044225
v -0.01196070 0.00027524 0.00234444
v -0.01100986 -0.00644395 0.01778516
v 0.00083846 -0.02072910 0.00039343
v 0.01879174 0.00227348 0.00046638
v 0.02440635 0.00185589 0.00053208
v -0.01100986 0.00202517 0.01778516
v 0.01345481 -0.01811304 0.00043770
v 0.00033406 -0.03077377 0.01323621
v -0.01122526 -0.00655712 0.00109106
v -0.01108263 0.00202974 0.00272071
v 0.02542053 -0.02571046 0.01301851
v 0.00081395 -0.01566886 0.00042294
v 0.01963298 -0.01308101 0.00065609
v 0.02502690 -0.01412119 0.00630913
v 0.01387154 -0.02527781 0.00775809
v 0.02279333 -0.00736836 0.00045178
v 0.00089566 -0.02604216 0.00692926
v 0.00888454 -0.01972106 0.00072269
v 0.01858309 -0.02518671 0.00954239
v 0.02501124 -0.02050788 0.00965937
f 5 2 1
f 7 3 6
f 8 1 2
f 8 2 3
f 8 7 1
f 8 3 7
f 9 5 1
f 9 4 5
f 9 1 7
f 10 6 3
f 11 2 5
f 12 4 7
f 12 6 11
f 12 11 5
f 12 5 4
f 13 9 7
f 13 7 4
f 13 4 9
f 14 2 11
f 15 12 7
f 15 7 6
f 15 6 12
f 16 14 10
f 17 3 2
f 17 2 14
f 18 14 11
f 19 16 10
f 19 10 3
f 19 3 17
f 20 18 11
f 20 11 6
f 20 6 18
f 21 18 6
f 21 6 10
f 21 10 18
f 22 18 10
f 22 10 14
f 22 14 18
f 23 19 17
f 23 17 14
f 23 14 16
f 23 16 19

