# https://github.com/mikedh/trimesh
v 0.00084691 0.02235108 0.05166167
v 0.00093273 -0.03014611 0.04942918
v 0.00084691 0.02235108 0.03472342
v -0.03002864 0.02150631 0.03432811
v -0.02424125 -0.01535421 0.05117599
v 0.00087134 -0.03816675 0.03459871
v 0.00126300 -0.01509880 0.05512612
v -0.02466120 0.01624560 0.05126766
v -0.00711752 -0.03698473 0.03426926
v 0.00095220 -0.03553836 0.04061705
v -0.00865328 -0.02809701 0.04940985
v -0.02125143 0.02090806 0.05122829
v -0.03441485 -0.00443787 0.03889913
v -0.03124412 0.01964160 0.03422860
v 0.00092605 -0.03714565 0.03744963
v -0.00220031 -0.02982573 0.04932220
v -0.01968060 -0.02984942 0.03716150
v -0.00537398 -0.03483517 0.04020247
v -0.02775897 0.02095655 0.04034470
v -0.03263962 -0.00602749 0.04171954
v -0.03426004 0.00986980 0.03731997
v -0.00385717 -0.03666117 0.03722711
v -0.01781692 -0.02300470 0.04908996
v -0.03454310 -0.01091755 0.03420261
v -0.01182143 -0.03487808 0.03567873
v -0.02274314 0.01916468 0.05114234
v -0.02930646 0.02096725 0.03728381
v -0.03273228 0.00674252 0.04177405
v -0.01499915 -0.03002038 0.04174504
v -0.02139365 -0.02671806 0.04017139
v -0.02471106 -0.02691321 0.03410366
v -0.03470088 0.01168704 0.03427415
v -0.03260032 -0.00921595 0.04033323
v -0.00862187 -0.03480495 0.03863863
v -0.03093338 0.01943899 0.03559995
v -0.03259287 0.01312030 0.03890153
v -0.03428684 0.00675767 0.03880610
v -0.01820386 -0.03152912 0.03560004
v -0.03291322 0.01646466 0.03422773
v -0.02441790 -0.02660311 0.03554634
v -0.03411806 -0.01082320 0.03567137
v -0.01190130 -0.03165208 0.04160688
v -0.00710243 -0.03651398 0.03565867
v -0.03258664 0.01626970 0.03564804
v -0.03097895 0.01323712 0.04186917
v -0.03434704 0.01150905 0.03578444
v -0.01837486 -0.03190616 0.03417715
v -0.02603031 -0.02192040 0.04022427
v -0.03094921 -0.01708618 0.03716778
v -0.01200764 -0.03526936 0.03428468
v -0.02438320 -0.02497855 0.03857331
v -0.03091293 -0.01388488 0.04031373
v -0.02923315 -0.01872361 0.03865438
v -0.02982774 -0.02076272 0.03431688
v -0.02930549 -0.01712394 0.04019394
v -0.02950265 -0.02045091 0.03567561
v -0.02777670 -0.02192558 0.03727101
f 1 3 4
f 7 3 1
f 7 6 3
f 8 5 7
f 9 3 6
f 10 7 2
f 11 7 5
f 12 1 4
f 12 8 7
f 12 7 1
f 14 4 3
f 14 3 9
f 15 6 7
f 15 7 10
f 16 2 7
f 16 7 11
f 16 10 2
f 18 16 11
f 18 10 16
f 19 12 4
f 20 5 8
f 22 9 6
f 22 6 15
f 22 15 10
f 22 10 18
f 23 11 5
f 26 19 8
f 26 8 12
f 26 12 19
f 27 19 4
f 28 20 8
f 28 13 20
f 29 11 23
f 30 23 5
f 30 29 23
f 30 17 29
f 31 14 9
f 32 24 13
f 33 20 13
f 33 5 20
f 34 22 18
f 34 18 11
f 35 27 4
f 35 4 14
f 36 8 19
f 36 19 27
f 37 13 28
f 37 32 13
f 37 21 32
f 37 36 21
f 37 28 36
f 38 29 17
f 38 25 29
f 39 31 24
f 39 14 31
f 39 24 32
f 40 31 17
f 40 17 30
f 41 33 13
f 41 13 24
f 42 29 25
f 42 25 34
f 42 34 11
f 42 11 29
f 43 34 25
f 43 25 9
f 43 9 22
f 43 22 34
f 44 36 27
f 44 27 35
f 44 35 14
f 44 14 39
f 45 36 28
f 45 28 8
f 45 8 36
f 46 32 21
f 46 21 36
f 46 36 44
f 46 44 39
f 46 39 32
f 47 38 17
f 47 17 31
f 47 31 9
f 49 41 24
f 50 47 9
f 50 9 25
f 50 25 38
f 50 38 47
f 51 40 30
f 51 30 5
f 51 5 48
f 52 5 33
f 52 33 41
f 52 41 49
f 54 49 24
f 54 24 31
f 55 52 49
f 55 5 52
f 55 53 5
f 55 49 53
f 56 53 49
f 56 49 54
f 57 54 31
f 57 31 40
f 57 56 54
f 57 40 51
f 57 51 48
f 57 53 56
f 57 48 5
f 57 5 53

