# https://github.com/mikedh/trimesh
v 0.00084691 -0.00644395 0.01778516
v 0.00033406 -0.03077377 0.01323621
v 0.00087132 -0.00642427 0.00170880
v -0.01884810 0.00188792 0.00053113
v -0.02564745 -0.01904718 0.01648233
v -0.00378592 -0.01982573 0.00047625
v -0.01100986 0.00202517 0.01778516
v 0.00089566 -0.02604216 0.00692926
v -0.01213049 -0.02887485 0.01495324
v -0.01364220 0.00208617 0.00048096
v -0.01431190 -0.01350435 0.00074621
v -0.02800930 0.00246535 0.01383191
v 0.00083846 -0.02072910 0.00039343
v -0.00707970 -0.02534380 0.00788524
v -0.01232478 0.00225961 0.00189521
v -0.01789237 -0.00747646 0.00071119
v -0.01116588 -0.01677147 0.00050366
v -0.00875697 -0.01823737 0.00045618
v -0.01024256 -0.02541605 0.00907822
v -0.01953996 0.00196251 0.00171208
v -0.02281992 -0.01709465 0.01126017
v -0.02312343 -0.00929022 0.00790936
v -0.02364505 0.00190986 0.00726992
v -0.01906864 -0.00588500 0.00163803
v -0.02282606 -0.01398196 0.00957163
f 7 1 3
f 7 5 1
f 8 1 2
f 8 3 1
f 9 2 1
f 9 1 5
f 12 5 7
f 13 3 8
f 13 10 3
f 14 8 2
f 14 13 8
f 14 6 13
f 15 7 3
f 15 3 10
f 15 12 7
f 15 10 4
f 17 11 16
f 17 16 4
f 18 4 10
f 18 10 13
f 18 17 4
f 18 13 6
f 19 14 2
f 19 2 9
f 19 17 18
f 19 18 6
f 19 6 14
f 20 15 4
f 20 4 12
f 20 12 15
f 21 16 11
f 21 11 17
f 21 17 19
f 21 19 9
f 21 9 5
f 22 5 12
f 23 22 12
f 23 12 4
f 24 4 16
f 24 16 22
f 24 23 4
f 24 22 23
f 25 22 16
f 25 16 21
f 25 21 5
f 25 5 22

