# https://github.com/mikedh/trimesh
v -0.02394314 0.02843414 0.03452455
v -0.02380167 -0.02767274 0.03441364
v -0.02351870 0.02794910 0.01823997
v -0.02372174 0.00851930 0.00857533
v -0.03815989 0.00523494 0.01385757
v -0.02353136 -0.02742628 0.01821108
v -0.03607206 -0.00443682 0.03421665
v -0.03096600 0.02098613 0.02321695
v -0.02531057 0.02483365 0.01651138
v -0.02356403 -0.01436156 0.01041550
v -0.03605669 0.00511331 0.03425456
v -0.03104464 -0.02042516 0.02473772
v -0.02448538 0.02723432 0.01861903
v -0.02382413 0.02508422 0.01593366
v -0.02357863 0.01339270 0.01040238
v -0.02788225 0.02276110 0.01726027
v -0.03792942 -0.00301380 0.01424629
v -0.03263310 0.01787081 0.03253385
v -0.02471106 -0.02691321 0.03410366
v -0.02483839 0.02767001 0.03422251
v -0.03808942 0.00340374 0.01292934
v -0.03107755 0.01807254 0.01745101
v -0.02600422 0.02563271 0.01856926
v -0.02682879 -0.02248169 0.01650939
v -0.03432490 -0.01407112 0.02932134
v -0.03429326 0.01314377 0.03413222
v -0.03437469 0.01481278 0.02483816
v -0.02940172 -0.02200448 0.02167768
v -0.03100623 -0.01888059 0.03413196
v -0.03099903 0.02106759 0.03110421
v -0.02375866 -0.00951988 0.00853757
v -0.03781100 -0.00100180 0.01316421
v -0.02386897 -0.02446727 0.01586012
v -0.03436644 -0.01402412 0.02482992
v -0.03612562 -0.00773948 0.03102177
v -0.02940868 0.02251357 0.03410587
v -0.03611568 0.00834946 0.03104912
v -0.03279154 0.01781678 0.02314582
v -0.03428214 0.01472881 0.03100553
v -0.02442750 -0.02663277 0.01845954
v -0.03099807 -0.01888588 0.02006581
v -0.02776459 -0.02356209 0.03405011
v -0.03454310 -0.01091755 0.03420261
v -0.03100437 -0.02040098 0.02947498
v -0.02940178 0.00187556 0.00950551
v -0.02520659 -0.02418343 0.01639256
v -0.02795058 -0.02209058 0.01712616
v -0.03264191 -0.01728254 0.02323360
v -0.03443548 -0.01241954 0.03255753
v -0.03265849 -0.01721877 0.03093917
v -0.02938374 -0.02196946 0.03257636
v -0.03350678 0.00294825 0.01086598
v -0.02599664 -0.02501484 0.01847430
v -0.03106338 -0.01716678 0.01715902
v -0.03272061 -0.01562576 0.03410483
v -0.02931563 -0.00076201 0.00961498
v -0.03312675 -0.00184923 0.01119757
f 1 2 3
f 6 3 2
f 10 3 6
f 11 7 2
f 11 2 1
f 11 5 7
f 13 1 3
f 14 9 3
f 15 9 14
f 15 14 3
f 15 10 4
f 15 3 10
f 16 9 5
f 16 13 3
f 16 3 9
f 17 7 5
f 19 6 2
f 20 13 8
f 20 1 13
f 21 15 4
f 21 5 9
f 21 9 15
f 21 17 5
f 22 16 5
f 22 5 8
f 22 8 16
f 23 16 8
f 23 8 13
f 23 13 16
f 26 11 1
f 28 19 12
f 30 20 8
f 30 27 18
f 31 4 10
f 32 24 17
f 32 10 24
f 32 31 10
f 32 17 21
f 33 10 6
f 34 25 17
f 34 12 25
f 35 7 17
f 35 17 25
f 36 18 26
f 36 30 18
f 36 20 30
f 36 26 1
f 36 1 20
f 37 5 11
f 37 11 26
f 38 8 5
f 38 5 27
f 38 30 8
f 38 27 30
f 39 26 18
f 39 18 27
f 39 37 26
f 39 27 5
f 39 5 37
f 40 6 19
f 40 19 28
f 41 28 12
f 42 19 2
f 42 2 29
f 43 29 2
f 43 2 7
f 43 7 35
f 44 12 19
f 45 4 31
f 46 24 10
f 46 10 33
f 46 33 6
f 47 24 46
f 47 46 6
f 47 28 41
f 47 17 24
f 48 34 17
f 48 17 41
f 48 41 12
f 48 12 34
f 49 43 35
f 49 35 25
f 50 44 29
f 50 25 12
f 50 12 44
f 50 49 25
f 51 42 29
f 51 29 44
f 51 44 19
f 51 19 42
f 52 21 4
f 52 4 45
f 52 32 21
f 53 40 28
f 53 28 47
f 53 47 6
f 53 6 40
f 54 47 41
f 54 41 17
f 54 17 47
f 55 29 43
f 55 43 49
f 55 50 29
f 55 49 50
f 56 52 45
f 56 45 31
f 57 56 31
f 57 31 32
f 57 32 52
f 57 52 56

