# https://github.com/mikedh/trimesh
v -0.03179317 0.00488997 0.06477896
v -0.02538955 -0.00956762 0.05800555
v -0.02513319 0.01155674 0.05793694
v -0.02851815 0.01506193 0.04396548
v -0.04775758 0.00092835 0.05410528
v -0.02535409 -0.01604130 0.04622774
v -0.02686803 -0.00203658 0.06327870
v -0.04565178 0.00726945 0.06170326
v -0.02605474 0.01545732 0.04476240
v -0.03003863 -0.00939258 0.04387966
v -0.04578053 -0.00265798 0.06219241
v -0.02705968 0.00474663 0.06341688
v -0.04102994 0.00734694 0.06337407
v -0.04753748 0.00625150 0.05405056
v -0.02561341 0.01523222 0.04975984
v -0.02688810 -0.01601310 0.04399226
v -0.02553973 -0.01126179 0.05644208
v -0.04692872 -0.00294528 0.05916901
v -0.03963770 -0.00200417 0.06491569
v -0.02659906 0.00761674 0.06173311
v -0.03006296 0.00051922 0.06495078
v -0.03158707 0.00724535 0.06340725
v -0.04739452 0.00720538 0.05570617
v -0.03019733 0.01019229 0.04414748
v -0.02602866 -0.01646379 0.04468603
v -0.04562206 0.00467443 0.06330492
v -0.03495511 -0.00207180 0.06493992
v -0.04249541 -0.00283733 0.06358905
v -0.02869586 0.00610031 0.06338251
v -0.03014559 0.00327132 0.06476927
v -0.04102087 0.00456872 0.06485258
v -0.02627507 0.00914876 0.06039366
v -0.04560822 -0.00199535 0.06304167
v -0.04415701 0.00594442 0.06329253
v -0.02859963 -0.00340993 0.06307785
v -0.03167997 -0.00072282 0.06506483
v -0.03305658 -0.00446460 0.06278652
v -0.04266436 0.00058738 0.06483360
v -0.04265545 0.00326706 0.06487426
f 6 3 2
f 7 2 3
f 12 7 3
f 15 3 6
f 15 6 9
f 15 13 3
f 15 8 13
f 15 9 4
f 15 4 8
f 16 5 10
f 16 10 4
f 16 4 9
f 17 11 6
f 17 6 2
f 18 5 16
f 20 12 3
f 21 7 12
f 22 13 1
f 22 3 13
f 23 8 4
f 23 4 14
f 23 14 5
f 23 5 18
f 24 10 5
f 24 5 14
f 24 14 4
f 24 4 10
f 25 6 11
f 25 18 16
f 25 11 18
f 25 16 9
f 25 9 6
f 26 23 18
f 26 8 23
f 28 11 17
f 28 17 19
f 29 1 12
f 29 12 20
f 29 22 1
f 29 20 22
f 30 21 12
f 30 12 1
f 30 1 21
f 31 1 13
f 32 22 20
f 32 20 3
f 32 3 22
f 33 26 18
f 33 18 11
f 33 11 28
f 33 28 19
f 34 13 8
f 34 8 26
f 34 31 13
f 35 27 2
f 35 2 7
f 36 19 27
f 36 21 1
f 36 1 31
f 36 7 21
f 36 35 7
f 36 27 35
f 37 27 19
f 37 19 17
f 37 17 2
f 37 2 27
f 38 26 33
f 38 33 19
f 39 34 26
f 39 31 34
f 39 26 38
f 39 38 19
f 39 36 31
f 39 19 36

