# https://github.com/mikedh/trimesh
v 0.00084691 -0.01830073 0.03472342
v 0.00087134 -0.03816675 0.03459871
v 0.00084691 -0.01830073 0.01778516
v -0.01192458 -0.01735443 0.00299416
v -0.02738198 -0.02007363 0.03572664
v 0.00088616 -0.03794869 0.01797055
v -0.02364000 -0.01757999 0.01227103
v -0.01018738 -0.01874134 0.00321066
v -0.01502489 -0.03494352 0.02469239
v 0.00098844 -0.03846293 0.01994248
v -0.02006699 -0.01743222 0.00910917
v -0.01081204 -0.01804157 0.00268906
v -0.01663415 -0.03305857 0.03403379
v -0.02286014 -0.02815711 0.01853294
v 0.00093866 -0.03866330 0.03269368
v -0.00704539 -0.03674157 0.01831896
v -0.00865352 -0.03654032 0.03414370
v -0.02357633 -0.02577068 0.01629368
v -0.02308505 -0.02840567 0.03411919
v -0.00390110 -0.03828219 0.02159127
v -0.01820483 -0.03166023 0.01836244
v -0.01335020 -0.03471559 0.03407092
v -0.00389099 -0.03817149 0.03247955
v -0.02134841 -0.02983871 0.03407967
v -0.01979228 -0.03153414 0.02167655
v -0.00068904 -0.03833336 0.01993987
v -0.00545712 -0.03825132 0.02326880
v -0.01187185 -0.03505029 0.01838188
v -0.01503956 -0.03486603 0.02952074
v -0.01981350 -0.03146004 0.03249085
v -0.01656708 -0.03314768 0.02005424
v -0.00549668 -0.03833517 0.02940190
v -0.01022371 -0.03653243 0.02167731
v -0.01024256 -0.02541605 0.00907822
v -0.01021301 -0.03643601 0.03256174
v -0.01337678 -0.03482870 0.02008182
f 1 3 4
f 5 2 1
f 7 5 1
f 8 3 6
f 10 6 3
f 10 3 1
f 11 7 1
f 11 1 4
f 12 4 3
f 12 3 8
f 12 8 6
f 15 10 1
f 15 1 2
f 16 12 6
f 17 2 5
f 18 14 5
f 18 5 7
f 18 7 11
f 18 11 4
f 18 4 12
f 19 5 14
f 21 14 18
f 21 18 12
f 22 17 5
f 22 5 13
f 23 15 2
f 23 2 17
f 24 13 5
f 24 5 19
f 25 19 14
f 25 14 21
f 26 20 16
f 26 16 6
f 26 6 10
f 26 10 20
f 27 20 10
f 27 10 15
f 27 16 20
f 28 21 12
f 29 22 13
f 30 24 19
f 30 19 25
f 30 25 9
f 30 9 29
f 30 29 13
f 30 13 24
f 31 25 21
f 31 9 25
f 31 21 28
f 32 27 15
f 32 15 23
f 32 29 9
f 32 9 27
f 33 27 9
f 33 28 16
f 33 16 27
f 34 28 12
f 34 12 16
f 34 16 28
f 35 17 22
f 35 22 29
f 35 29 32
f 35 32 23
f 35 23 17
f 36 31 28
f 36 9 31
f 36 33 9
f 36 28 33

