# https://github.com/mikedh/trimesh
v 0.01723794 0.02165855 0.06256527
v 0.02693705 0.02149715 0.04776707
v 0.00574001 0.03919229 0.02476107
v -0.00233754 0.02156386 0.00280061
v -0.01844196 0.02122682 0.05782952
v 0.02389734 0.02147874 0.01056754
v 0.02167433 0.03374224 0.03419096
v 0.02193105 0.02128569 0.05939756
v -0.00064465 0.02883196 0.05908796
v -0.02306827 0.02904625 0.02010474
v 0.01198838 0.03582336 0.01604187
v -0.01056807 0.02150916 0.00717784
v 0.03017032 0.02449090 0.03384392
v -0.01220372 0.02163982 0.06259694
v 0.01507452 0.02690644 0.05742252
v 0.02640534 0.02889729 0.03871395
v 0.00897614 0.03718828 0.03737667
v -0.01354488 0.03561379 0.03264210
v 0.00741206 0.02157488 0.00282245
v 0.02333502 0.03207007 0.01855340
v -0.01039035 0.03549495 0.01720283
v -0.02943835 0.02220690 0.03464964
v -0.00846811 0.02706140 0.05898995
v -0.00541715 0.02582802 0.06187219
v 0.01502987 0.02534979 0.06030217
v 0.02368319 0.02142663 0.05630152
v 0.01814800 0.02526418 0.05743200
v 0.01538903 0.03724137 0.02946663
v 0.01373589 0.03549665 0.03882168
v 0.00887596 0.02882560 0.05769258
v -0.00065152 0.03912272 0.03110975
v 0.02344205 0.03079556 0.01593133
v 0.00746157 0.03720781 0.01695539
v 0.02672726 0.03085070 0.03266969
v -0.01349178 0.03550036 0.02164805
v -0.02029560 0.02954312 0.01649580
v -0.02369835 0.02167872 0.01444311
v -0.01979983 0.03217235 0.03258300
v -0.01491863 0.02239889 0.06026196
v -0.00383997 0.03724123 0.03743595
v -0.01014502 0.02411942 0.06158508
v -0.00542840 0.02721558 0.06032262
v 0.01991068 0.02244773 0.06019509
v 0.01055582 0.02576175 0.06177933
v 0.02128044 0.02219997 0.05888461
v 0.02164732 0.03210394 0.03870666
v 0.00582045 0.03906519 0.03109968
v 0.01852109 0.03547505 0.02157733
v 0.01217292 0.03703828 0.03577686
v 0.00571833 0.02869026 0.05913047
v 0.01068144 0.03216296 0.04902955
v -0.00227370 0.03901045 0.02475551
v 0.01691432 0.03410080 0.01595689
v 0.01730868 0.02154880 0.00735841
v -0.00550861 0.03598724 0.01610715
v 0.02649975 0.03064838 0.03416709
v -0.01817867 0.03214798 0.01854275
v -0.01511958 0.03241448 0.01619634
v -0.02357865 0.02647852 0.01644133
v -0.02865360 0.02164378 0.03768930
v -0.02791913 0.02435394 0.03416648
v -0.01976223 0.03206741 0.02167403
v -0.01495164 0.03366008 0.03721368
v -0.01536954 0.02148104 0.06082527
f 8 6 2
f 8 5 6
f 12 6 5
f 12 4 6
f 13 2 6
f 14 8 1
f 16 2 13
f 19 6 4
f 24 14 1
f 26 8 2
f 26 2 16
f 27 15 25
f 30 25 15
f 32 20 13
f 32 13 6
f 33 19 4
f 33 11 19
f 34 13 20
f 37 12 5
f 40 31 18
f 40 9 17
f 40 17 31
f 41 14 24
f 41 23 39
f 42 24 9
f 42 41 24
f 42 23 41
f 42 40 23
f 42 9 40
f 43 25 1
f 43 1 8
f 43 27 25
f 44 24 1
f 44 1 25
f 44 9 24
f 44 25 30
f 45 26 16
f 45 8 26
f 45 43 8
f 45 16 27
f 45 27 43
f 46 27 16
f 46 15 27
f 46 29 15
f 46 7 29
f 47 28 3
f 47 31 17
f 47 3 31
f 48 3 28
f 48 33 3
f 48 11 33
f 48 34 20
f 48 28 7
f 48 7 34
f 49 17 29
f 49 47 17
f 49 28 47
f 49 29 7
f 49 7 28
f 50 17 9
f 50 44 30
f 50 9 44
f 51 29 17
f 51 50 30
f 51 17 50
f 51 30 15
f 51 15 29
f 52 31 3
f 52 21 35
f 52 35 18
f 52 18 31
f 52 3 33
f 53 32 19
f 53 19 11
f 53 20 32
f 53 48 20
f 53 11 48
f 54 32 6
f 54 6 19
f 54 19 32
f 55 33 4
f 55 4 21
f 55 52 33
f 55 21 52
f 56 16 13
f 56 13 34
f 56 34 7
f 56 46 16
f 56 7 46
f 57 35 21
f 57 36 10
f 58 21 4
f 58 4 36
f 58 57 21
f 58 36 57
f 59 36 4
f 59 4 12
f 59 12 37
f 59 10 36
f 59 37 22
f 59 22 10
f 60 37 5
f 60 22 37
f 61 38 10
f 61 10 22
f 61 22 60
f 61 60 5
f 61 5 38
f 62 10 38
f 62 57 10
f 62 35 57
f 62 38 18
f 62 18 35
f 63 18 38
f 63 40 18
f 63 23 40
f 63 39 23
f 63 38 5
f 63 5 39
f 64 39 5
f 64 41 39
f 64 14 41
f 64 5 8
f 64 8 14

