# https://github.com/mikedh/trimesh
v -0.04591768 0.00622428 0.06228974
v -0.03671700 -0.00280072 0.02128431
v -0.03722900 0.00537979 0.01852437
v -0.04436780 0.00520615 0.01422307
v -0.05478224 -0.00076368 0.04364967
v -0.03792942 -0.00301380 0.01424629
v -0.05295750 0.00748008 0.05280507
v -0.03672540 0.00480266 0.02115992
v -0.04607299 -0.00224641 0.06257586
v -0.03815989 0.00523494 0.01385757
v -0.05124766 -0.00148684 0.02041356
v -0.04603958 0.00769317 0.06102260
v -0.05290630 0.00082954 0.05726827
v -0.03768555 -0.00333196 0.01723789
v -0.03949018 -0.00288014 0.01432108
v -0.04853423 0.00705741 0.03867606
v -0.05139660 0.00570916 0.02184643
v -0.04795862 -0.00286191 0.01953905
v -0.05295351 0.00415657 0.05715412
v -0.05322348 -0.00167146 0.05446328
v -0.04743119 -0.00203758 0.01612821
v -0.05305616 0.00712512 0.04227507
v -0.05487594 0.00088741 0.04206680
v -0.05330895 -0.00171621 0.04056731
v -0.04458295 -0.00283200 0.01564913
v -0.05151712 0.00732696 0.05588151
v -0.04857450 0.00436386 0.06178751
v -0.05467207 0.00070183 0.05276959
v -0.04993163 -0.00178393 0.05999864
v -0.04573570 -0.00086197 0.01482019
v -0.04966859 0.00461261 0.01765847
v -0.04750679 -0.00253139 0.01675281
v -0.05145802 0.00454449 0.02053671
v -0.05448648 0.00461143 0.04214548
v -0.04736964 0.00727938 0.06064013
v -0.05473065 -0.00074419 0.05113662
v -0.05465773 0.00429885 0.05269944
v -0.04847386 -0.00084269 0.06159814
v -0.04420537 -0.00197872 0.01472785
v -0.05013171 0.00543050 0.01895496
v -0.04843994 -0.00085486 0.01632763
v -0.04977129 -0.00080853 0.01771402
v -0.04721629 0.00593427 0.06174422
v -0.04721619 -0.00198369 0.06212725
v -0.04713806 0.00524566 0.01605088
v -0.04552786 0.00464831 0.01454725
v -0.04845839 0.00435042 0.01634115
f 8 1 2
f 8 6 3
f 8 2 6
f 9 2 1
f 10 3 6
f 12 8 3
f 12 1 8
f 14 6 2
f 14 2 9
f 15 10 6
f 15 4 10
f 16 10 4
f 16 7 12
f 16 12 3
f 16 3 10
f 17 16 4
f 18 14 9
f 20 18 9
f 22 7 16
f 22 16 17
f 23 11 5
f 24 5 11
f 24 11 18
f 24 18 20
f 25 15 6
f 25 6 14
f 25 14 18
f 26 12 7
f 26 7 19
f 27 9 1
f 27 19 13
f 28 13 19
f 28 20 13
f 29 20 9
f 29 13 20
f 32 18 11
f 32 25 18
f 32 21 25
f 33 11 23
f 34 22 17
f 34 33 23
f 34 17 33
f 34 7 22
f 35 1 12
f 35 12 26
f 35 26 19
f 35 19 27
f 36 20 28
f 36 24 20
f 36 5 24
f 36 23 5
f 37 28 19
f 37 19 7
f 37 7 34
f 37 34 23
f 37 36 28
f 37 23 36
f 38 27 13
f 38 13 29
f 39 30 4
f 39 4 15
f 39 15 25
f 39 25 21
f 39 21 30
f 40 17 4
f 40 33 17
f 40 31 33
f 41 30 21
f 42 32 11
f 42 21 32
f 42 41 21
f 42 33 31
f 42 11 33
f 43 35 27
f 43 27 1
f 43 1 35
f 44 38 29
f 44 29 9
f 44 9 27
f 44 27 38
f 45 40 4
f 45 31 40
f 46 4 30
f 46 30 41
f 46 45 4
f 47 42 31
f 47 41 42
f 47 46 41
f 47 31 45
f 47 45 46

