# https://github.com/mikedh/trimesh
v 0.02922360 0.00200984 0.06137621
v 0.04193685 0.00269654 0.04571582
v 0.02723948 0.02011736 0.04972133
v 0.02748038 0.03023109 0.03289654
v 0.02889137 -0.02929102 0.03278352
v 0.03273442 0.02250562 0.03872297
v 0.03011728 0.00197197 0.06054544
v 0.04215782 0.00254242 0.03294551
v 0.02847238 -0.01407195 0.05611001
v 0.02700285 0.02965387 0.03595932
v 0.03959093 0.01467512 0.03259486
v 0.03657036 -0.02064560 0.03257499
v 0.02860513 -0.00768964 0.06069735
v 0.02862590 -0.02899341 0.03430753
v 0.03287570 0.02415572 0.03561330
v 0.02813208 0.02745341 0.03871692
v 0.03769968 0.01778604 0.03419076
v 0.02989106 -0.02848969 0.03255594
v 0.03788654 -0.01303736 0.04129177
v 0.02693705 0.02149715 0.04776707
v 0.02967203 -0.00736254 0.05984683
v 0.02794812 0.00202517 0.03302959
v 0.02807484 0.02888172 0.03570565
v 0.02709673 0.02806521 0.03920285
v 0.03597326 0.01780005 0.03864251
v 0.03928031 0.01456940 0.03407394
v 0.03481919 0.02280816 0.03264191
v 0.03305541 -0.02538670 0.03251671
v 0.02965986 -0.02823115 0.03394584
v 0.02854914 -0.01087164 0.05911482
v 0.03248246 -0.00737068 0.05723014
v 0.02852125 0.02943556 0.03273401
v 0.03452298 0.02263419 0.03418353
v 0.03795572 0.01795155 0.03267577
v 0.03279998 -0.02342945 0.03711875
v 0.04160038 0.00185178 0.04639058
v 0.03109788 -0.01005037 0.05694974
v 0.03276878 -0.02514738 0.03399520
v 0.03612373 -0.01875953 0.03710265
v 0.02877866 -0.02744910 0.03735613
v 0.02953676 -0.01023835 0.05850285
v 0.03253901 -0.01024047 0.05415295
v 0.03433710 -0.02034698 0.03857509
v 0.03621997 -0.02045922 0.03410506
v 0.02971532 -0.02669610 0.03716550
v 0.02858327 -0.02393986 0.04194939
f 6 3 2
f 7 2 3
f 7 3 1
f 11 2 8
f 12 8 2
f 12 11 8
f 13 1 3
f 16 3 6
f 16 6 15
f 18 5 4
f 19 12 2
f 20 13 3
f 20 14 9
f 20 10 14
f 21 7 1
f 21 1 13
f 22 14 10
f 22 10 4
f 22 4 5
f 22 5 14
f 23 4 10
f 23 16 15
f 23 10 16
f 24 16 10
f 24 3 16
f 24 20 3
f 24 10 20
f 25 6 2
f 25 2 17
f 26 17 2
f 26 2 11
f 26 11 17
f 28 11 12
f 28 27 11
f 29 14 5
f 29 5 18
f 29 18 28
f 30 20 9
f 30 13 20
f 31 7 21
f 31 21 13
f 31 13 30
f 32 23 15
f 32 4 23
f 32 15 27
f 32 18 4
f 32 28 18
f 32 27 28
f 33 25 17
f 33 15 6
f 33 6 25
f 33 27 15
f 33 17 27
f 34 27 17
f 34 17 11
f 34 11 27
f 36 2 7
f 36 7 31
f 36 31 19
f 36 19 2
f 37 30 9
f 38 28 12
f 38 29 28
f 41 37 31
f 41 31 30
f 41 30 37
f 42 37 19
f 42 19 31
f 42 31 37
f 43 19 37
f 43 39 19
f 43 35 39
f 43 37 9
f 43 9 35
f 44 38 12
f 44 35 38
f 44 39 35
f 44 12 19
f 44 19 39
f 45 35 9
f 45 9 40
f 45 38 35
f 45 29 38
f 45 40 14
f 45 14 29
f 46 40 9
f 46 9 14
f 46 14 40

