# https://github.com/mikedh/trimesh
v 0.02596993 0.02408924 0.01526199
v 0.02456047 0.00202517 0.01778516
v 0.02406175 0.00198498 0.00021787
v -0.01324308 0.01449745 0.00052829
v -0.02464329 0.02241549 0.01769949
v -0.02800930 0.00246535 0.01383191
v 0.00874536 0.02017064 0.00044623
v -0.02364505 0.00190986 0.00726992
v 0.02097291 0.01125841 0.00055924
v 0.01348933 0.01850428 0.00036000
v -0.00216601 0.02043786 0.00047930
v -0.01884810 0.00188792 0.00053113
v -0.02369835 0.02167872 0.01444311
v 0.02290731 0.00783357 0.00052592
v 0.02389734 0.02147874 0.01056754
v -0.02309396 0.00830510 0.00801793
v -0.01607220 0.01110362 0.00073054
v -0.00807097 0.01875773 0.00062014
v -0.02286367 0.01297948 0.00958836
v -0.01790520 0.00653586 0.00094064
v -0.00513399 0.02035661 0.00149679
f 1 2 3
f 5 2 1
f 6 2 5
f 8 2 6
f 10 3 4
f 10 9 3
f 10 7 1
f 11 5 1
f 11 1 7
f 11 10 4
f 11 7 10
f 12 3 2
f 12 2 8
f 12 4 3
f 13 6 5
f 13 5 11
f 14 1 3
f 14 3 9
f 15 10 1
f 15 9 10
f 15 14 9
f 15 1 14
f 16 8 6
f 16 6 13
f 16 12 8
f 17 13 4
f 17 4 12
f 18 11 4
f 18 4 13
f 19 16 13
f 19 13 17
f 20 17 12
f 20 12 16
f 20 19 17
f 20 16 19
f 21 18 13
f 21 13 11
f 21 11 18

