# https://github.com/mikedh/trimesh
v 0.02662494 -0.02722401 0.01740288
v 0.02558937 -0.03094857 0.01810999
v 0.01567254 -0.02576629 0.00878398
v -0.00240571 -0.02597578 0.00719410
v -0.02431193 -0.02651931 0.01788803
v 0.00896130 -0.03687094 0.01596982
v 0.02590532 -0.02630192 0.01353798
v -0.02353136 -0.02742628 0.01821108
v -0.02222963 -0.02609110 0.01579780
v 0.00752001 -0.02598924 0.00705619
v 0.02540175 -0.02887727 0.01479823
v 0.02396368 -0.02587455 0.01247391
v -0.00555417 -0.03707552 0.01823095
v -0.00893532 -0.02576326 0.00882224
v -0.01868069 -0.03040887 0.01658583
v 0.00741505 -0.02689340 0.00773446
v 0.02023177 -0.03321013 0.01568039
v -0.02396278 -0.02616297 0.01669198
v 0.01235843 -0.03701561 0.01818291
v 0.02191268 -0.03340172 0.01839044
v -0.00230396 -0.03674498 0.01597412
v -0.01512158 -0.03343822 0.01839157
v 0.01560693 -0.03385806 0.01483379
v 0.02510674 -0.03029096 0.01575432
v -0.02208206 -0.02749636 0.01642735
v -0.01977608 -0.03001439 0.01709749
v -0.02328203 -0.02703410 0.01697952
v 0.01545855 -0.03522718 0.01587241
v -0.00224727 -0.02678630 0.00783807
v -0.00880104 -0.03534657 0.01628301
v -0.02003821 -0.03033107 0.01837028
v -0.01187185 -0.03505029 0.01838188
v 0.02326819 -0.03146079 0.01569767
v -0.01494217 -0.03308533 0.01708963
v 0.01216217 -0.03665848 0.01681751
v 0.02170961 -0.03305331 0.01699214
v -0.00552782 -0.03663223 0.01678822
v -0.01169847 -0.03471697 0.01712580
f 8 2 1
f 8 1 5
f 11 7 1
f 11 1 2
f 11 3 7
f 12 1 7
f 12 7 3
f 14 10 4
f 14 3 10
f 14 12 3
f 14 9 12
f 16 4 10
f 18 5 1
f 18 1 12
f 18 12 9
f 18 9 14
f 19 13 6
f 20 2 8
f 21 6 13
f 21 16 6
f 23 16 10
f 23 10 3
f 23 3 17
f 24 11 2
f 25 18 14
f 25 14 15
f 26 25 15
f 27 8 5
f 27 5 18
f 27 26 8
f 27 18 25
f 27 25 26
f 28 20 19
f 28 23 17
f 28 6 16
f 28 16 23
f 29 21 4
f 29 4 16
f 29 16 21
f 30 14 4
f 30 4 21
f 31 22 20
f 31 20 8
f 31 8 26
f 32 20 22
f 32 13 19
f 32 19 20
f 33 11 24
f 33 17 3
f 33 3 11
f 34 26 15
f 34 31 26
f 34 22 31
f 34 15 14
f 34 14 30
f 35 28 19
f 35 19 6
f 35 6 28
f 36 28 17
f 36 20 28
f 36 17 33
f 36 2 20
f 36 33 24
f 36 24 2
f 37 30 21
f 37 21 13
f 38 32 22
f 38 22 34
f 38 34 30
f 38 30 37
f 38 37 13
f 38 13 32

