# https://github.com/mikedh/trimesh
v 0.03302597 -0.01785342 0.03895177
v 0.03404544 -0.01781116 0.03601608
v 0.02357964 -0.01773212 0.00529015
v 0.01830670 -0.01823426 0.00313323
v 0.01790157 -0.03399177 0.01859565
v 0.02039407 -0.01790438 0.00387682
v 0.02698082 -0.01766300 0.00757575
v 0.02450143 -0.02999883 0.03590962
v 0.01785576 -0.02923156 0.00988587
v 0.01885867 -0.01918143 0.02319309
v 0.03007073 -0.02425319 0.01868744
v 0.03007652 -0.02435500 0.03600269
v 0.02457674 -0.02313137 0.00908879
v 0.01908914 -0.02767856 0.03827865
v 0.01786367 -0.03385487 0.03818482
v 0.03408208 -0.01776887 0.01855082
v 0.02434663 -0.02878745 0.01548848
v 0.03239812 -0.02002584 0.03814034
v 0.03126817 -0.02323033 0.02208143
v 0.02549275 -0.02214955 0.00906203
v 0.01881491 -0.02097335 0.00452142
v 0.02437293 -0.01944588 0.03432882
v 0.01781318 -0.03258573 0.01426428
v 0.01902719 -0.02339373 0.03212695
v 0.01987506 -0.03348599 0.03489128
v 0.01813928 -0.03317970 0.03912110
v 0.01794370 -0.02105953 0.00423440
v 0.03271532 -0.01771895 0.01417412
v 0.02315858 -0.02769294 0.01222388
v 0.02335633 -0.03115374 0.02096492
v 0.03231390 -0.02104772 0.03600928
v 0.02315504 -0.03005842 0.03898181
v 0.02567850 -0.02885186 0.03686839
v 0.03236458 -0.02109435 0.01976793
v 0.03360365 -0.01978217 0.02898316
v 0.02336659 -0.01865459 0.00561441
v 0.02020964 -0.01889732 0.00423248
v 0.01992454 -0.02553883 0.00795071
v 0.02851449 -0.01877897 0.03842819
v 0.02102408 -0.03229377 0.01873510
v 0.01916247 -0.02415625 0.03418846
v 0.01779357 -0.03030795 0.01098625
v 0.03118409 -0.01858463 0.01229824
v 0.03231693 -0.01966953 0.01559498
v 0.02783035 -0.02205057 0.01132026
v 0.02220019 -0.02992056 0.01441854
v 0.02664130 -0.02763875 0.01757226
v 0.01995822 -0.03349660 0.02210815
v 0.02330341 -0.03117983 0.03370311
v 0.02777335 -0.02656863 0.01769191
v 0.03127920 -0.02205889 0.03770167
v 0.02893697 -0.02436397 0.03863801
v 0.01990040 -0.03232467 0.03905023
v 0.03125760 -0.02324732 0.02546842
v 0.02100087 -0.03229568 0.03691700
v 0.03357935 -0.01870096 0.03595781
v 0.03355956 -0.01980193 0.02324897
v 0.02670682 -0.01863868 0.00792746
v 0.01791967 -0.02473875 0.00645252
v 0.02217522 -0.02659671 0.01023616
v 0.02118835 -0.02109115 0.00573890
v 0.01875688 -0.03220944 0.01448432
v 0.01926919 -0.02669403 0.03736296
v 0.03153559 -0.01774285 0.01210963
f 6 1 3
f 7 1 2
f 7 3 1
f 10 6 4
f 10 1 6
f 18 2 1
f 21 4 6
f 23 5 15
f 24 10 15
f 25 15 5
f 26 14 15
f 27 15 10
f 27 10 4
f 27 4 21
f 28 7 2
f 28 2 16
f 31 2 18
f 32 1 26
f 34 19 11
f 35 16 2
f 35 31 12
f 36 3 7
f 36 21 3
f 37 21 6
f 37 6 3
f 37 3 21
f 39 1 10
f 39 10 22
f 39 26 1
f 39 14 26
f 41 24 15
f 41 15 14
f 41 22 10
f 41 10 24
f 41 39 22
f 42 23 15
f 42 15 27
f 44 28 16
f 44 43 28
f 44 34 11
f 44 16 34
f 45 29 13
f 45 13 20
f 45 20 43
f 45 17 29
f 45 43 44
f 46 29 17
f 46 42 29
f 46 17 40
f 47 40 17
f 47 30 40
f 48 25 5
f 48 40 30
f 48 5 40
f 49 8 25
f 49 48 30
f 49 25 48
f 49 33 8
f 49 30 33
f 50 11 19
f 50 19 30
f 50 30 47
f 50 44 11
f 50 45 44
f 50 47 17
f 50 17 45
f 51 31 18
f 51 12 31
f 52 18 1
f 52 1 32
f 52 51 18
f 52 32 33
f 52 33 12
f 52 12 51
f 53 32 26
f 53 26 15
f 54 12 33
f 54 35 12
f 54 19 35
f 54 33 30
f 54 30 19
f 55 33 32
f 55 8 33
f 55 32 53
f 55 25 8
f 55 53 15
f 55 15 25
f 56 35 2
f 56 2 31
f 56 31 35
f 57 34 16
f 57 16 35
f 57 35 19
f 57 19 34
f 58 36 7
f 58 20 36
f 58 43 20
f 58 7 43
f 59 27 21
f 59 38 9
f 59 42 27
f 59 9 42
f 60 9 38
f 60 42 9
f 60 29 42
f 60 38 13
f 60 13 29
f 61 13 38
f 61 36 20
f 61 20 13
f 61 21 36
f 61 59 21
f 61 38 59
f 62 40 5
f 62 5 23
f 62 46 40
f 62 23 42
f 62 42 46
f 63 41 14
f 63 14 39
f 63 39 41
f 64 43 7
f 64 7 28
f 64 28 43

