# https://github.com/mikedh/trimesh
v -0.03338139 -0.00776255 0.03885303
v -0.01576844 -0.03418394 0.03890875
v -0.01839311 -0.00762528 0.01804584
v -0.01837497 -0.00761600 0.00060683
v -0.03129278 -0.02096162 0.01300993
v -0.01595281 -0.01815627 0.00215637
v -0.03633596 -0.00727337 0.01156176
v -0.01645709 -0.02980081 0.03865116
v -0.03239977 -0.01970056 0.03874657
v -0.01617512 -0.01867819 0.01980595
v -0.01563939 -0.03394928 0.01516145
v -0.03717846 -0.00740752 0.03806664
v -0.02702992 -0.01425488 0.00447060
v -0.02441261 -0.03002091 0.03133799
v -0.03661571 -0.00756891 0.03913798
v -0.01550475 -0.03504458 0.03484314
v -0.03707794 -0.01181611 0.02090230
v -0.03117444 -0.01643426 0.00864105
v -0.01777184 -0.02875974 0.00889838
v -0.03072008 -0.00765889 0.00562760
v -0.02169367 -0.01209516 0.00195643
v -0.03011251 -0.02431678 0.02091509
v -0.02458069 -0.02875632 0.03881905
v -0.01666596 -0.03379128 0.03897366
v -0.03575888 -0.01185869 0.03886659
v -0.01560591 -0.02464051 0.00525609
v -0.02104979 -0.03225515 0.02091453
v -0.03752356 -0.00728649 0.01630993
v -0.03582737 -0.01295057 0.01512737
v -0.02575593 -0.02223660 0.00798903
v -0.02231404 -0.02881409 0.01226836
v -0.02611480 -0.00750092 0.00302821
v -0.03371808 -0.01058939 0.00865980
v -0.01808476 -0.01450927 0.00170509
v -0.02238778 -0.01679070 0.00323929
v -0.03009339 -0.02437948 0.03248542
v -0.03356828 -0.01979970 0.02195454
v -0.02900892 -0.02424572 0.03894050
v -0.02217431 -0.03112412 0.03591054
v -0.03701619 -0.00854814 0.03800990
v -0.03469687 -0.01762412 0.03136874
v -0.01582993 -0.02025056 0.00286364
v -0.01550977 -0.03506981 0.01969654
v -0.01558471 -0.03152716 0.01092451
v -0.02107559 -0.03231721 0.03131327
v -0.02442677 -0.03000640 0.02206438
v -0.03711882 -0.01185606 0.03132138
v -0.03138289 -0.01953594 0.01110835
v -0.03710690 -0.00965625 0.01630944
v -0.02944072 -0.01598779 0.00671944
v -0.02243510 -0.02317444 0.00678423
v -0.02461629 -0.02413870 0.00881482
v -0.02105390 -0.03110785 0.01542260
v -0.03532047 -0.00738469 0.00955180
v -0.02600235 -0.01084494 0.00323435
v -0.03471190 -0.01293396 0.01209082
v -0.01931829 -0.01455714 0.00196539
v -0.02784195 -0.02649733 0.03479879
v -0.03110159 -0.02220873 0.01620134
v -0.03349842 -0.01755172 0.01414555
v -0.03593088 -0.01407627 0.01856087
v -0.03358425 -0.01982887 0.02900294
v -0.03122766 -0.02206072 0.03701430
v -0.02089865 -0.03109275 0.03900083
f 6 4 3
f 7 3 4
f 8 1 2
f 8 3 1
f 10 6 3
f 10 8 2
f 10 3 8
f 12 1 3
f 12 3 7
f 15 1 12
f 16 10 2
f 24 2 1
f 24 1 15
f 24 16 2
f 25 9 15
f 26 10 16
f 28 12 7
f 32 7 4
f 32 4 21
f 34 21 4
f 34 4 6
f 38 15 9
f 39 23 14
f 39 16 24
f 40 25 15
f 40 15 12
f 41 9 25
f 41 17 37
f 42 6 10
f 42 10 26
f 42 35 6
f 43 26 16
f 44 19 26
f 44 31 19
f 44 11 31
f 44 43 11
f 44 26 43
f 45 39 14
f 45 16 39
f 45 43 16
f 45 27 43
f 46 36 22
f 46 14 36
f 46 45 14
f 46 27 45
f 47 28 17
f 47 12 28
f 47 40 12
f 47 17 41
f 47 41 25
f 47 25 40
f 48 31 5
f 48 33 18
f 49 28 7
f 49 7 29
f 49 29 17
f 49 17 28
f 50 35 30
f 50 13 35
f 50 18 33
f 50 33 20
f 50 20 13
f 50 48 18
f 50 30 48
f 51 26 19
f 51 30 35
f 51 42 26
f 51 35 42
f 52 19 31
f 52 51 19
f 52 30 51
f 52 48 30
f 52 31 48
f 53 31 11
f 53 27 46
f 53 5 31
f 53 43 27
f 53 11 43
f 54 32 20
f 54 7 32
f 54 20 33
f 55 32 21
f 55 13 20
f 55 20 32
f 55 35 13
f 55 21 35
f 56 29 7
f 56 54 33
f 56 7 54
f 56 33 48
f 57 34 6
f 57 6 35
f 57 35 21
f 57 21 34
f 58 36 14
f 58 14 23
f 58 38 36
f 58 23 38
f 59 37 5
f 59 22 37
f 59 46 22
f 59 53 46
f 59 5 53
f 60 5 37
f 60 48 5
f 60 56 48
f 60 29 56
f 61 37 17
f 61 17 29
f 61 60 37
f 61 29 60
f 62 37 22
f 62 22 36
f 62 41 37
f 63 38 9
f 63 36 38
f 63 62 36
f 63 9 41
f 63 41 62
f 64 24 15
f 64 15 38
f 64 38 23
f 64 39 24
f 64 23 39

