# https://github.com/mikedh/trimesh
v 0.00637247 0.03665512 0.03898744
v 0.00672441 0.03377643 0.03869369
v 0.00647114 0.03830682 0.02078048
v -0.01775272 0.03390617 0.02084036
v -0.01879620 0.02847257 0.03884053
v -0.00395453 0.03851190 0.03014916
v 0.00632874 0.03843551 0.03130018
v -0.01741419 0.02102321 0.02004909
v -0.00968013 0.03729363 0.02083179
v -0.01082084 0.03602795 0.03772822
v -0.00052713 0.03854044 0.03366640
v 0.00653934 0.02690728 0.02045810
v -0.01894081 0.02630007 0.03670053
v -0.00283728 0.03853070 0.02085942
v -0.00850716 0.03612789 0.03862133
v -0.01776859 0.03288616 0.03786996
v -0.01305557 0.03599939 0.03245711
v 0.00628374 0.03747216 0.03794198
v -0.00602773 0.03725208 0.03786737
v 0.00657586 0.02734171 0.02065794
v -0.01891197 0.02144840 0.02131901
v 0.00671139 0.03267103 0.03749498
v -0.00399474 0.03849541 0.02202543
v 0.00511943 0.03851914 0.02087109
v -0.01788689 0.03185726 0.03874037
v -0.01207590 0.03511698 0.03836096
v -0.01305948 0.03608437 0.02087601
v -0.01412929 0.03480082 0.03774140
v -0.01760500 0.03364647 0.03475007
v -0.00960053 0.03716383 0.03252728
v 0.00400773 0.03846046 0.03362112
v -0.01849436 0.02095016 0.02059588
v 0.00630003 0.03843060 0.02203508
v -0.01640683 0.03367234 0.03789056
v -0.01188506 0.03601935 0.03594437
v -0.01534429 0.03474395 0.03477100
v -0.00732096 0.03713862 0.03697295
v -0.01672883 0.03291347 0.03839622
f 5 2 1
f 7 1 2
f 7 2 3
f 9 8 4
f 9 3 8
f 12 8 3
f 13 2 5
f 13 5 4
f 14 3 9
f 14 6 11
f 16 4 5
f 18 1 7
f 19 11 6
f 19 10 15
f 19 18 11
f 19 15 1
f 19 1 18
f 20 12 3
f 20 3 2
f 21 13 4
f 22 2 13
f 22 20 2
f 22 12 20
f 22 8 12
f 23 14 9
f 23 9 6
f 23 6 14
f 24 14 11
f 24 11 7
f 24 3 14
f 25 5 1
f 25 1 15
f 25 16 5
f 26 15 10
f 26 25 15
f 27 17 9
f 27 9 4
f 27 4 17
f 28 26 10
f 29 17 4
f 29 4 16
f 30 6 9
f 30 9 17
f 31 18 7
f 31 7 11
f 31 11 18
f 32 21 4
f 32 4 8
f 32 13 21
f 32 22 13
f 32 8 22
f 33 24 7
f 33 7 3
f 33 3 24
f 34 16 25
f 34 26 28
f 34 29 16
f 35 28 10
f 35 30 17
f 36 17 29
f 36 35 17
f 36 28 35
f 36 34 28
f 36 29 34
f 37 19 6
f 37 6 30
f 37 10 19
f 37 35 10
f 37 30 35
f 38 34 25
f 38 25 26
f 38 26 34

