# https://github.com/mikedh/trimesh
v 0.03656832 -0.00743886 0.03880587
v 0.03710979 -0.00957165 0.03697809
v 0.03804702 -0.00749107 0.02079550
v 0.02230067 -0.00892542 0.02016268
v 0.02759256 -0.01897797 0.03779798
v 0.02326826 -0.00765504 0.02052507
v 0.03740504 -0.00730987 0.03774254
v 0.03302597 -0.01785342 0.03895177
v 0.03438240 -0.01795319 0.02081960
v 0.03154038 -0.00797506 0.03663609
v 0.03705372 -0.01069310 0.03486546
v 0.02948861 -0.01858699 0.03885013
v 0.03471642 -0.01418104 0.03866421
v 0.02054429 -0.01791978 0.02122230
v 0.02107901 -0.01137093 0.02009865
v 0.03340099 -0.00786237 0.03847041
v 0.03026298 -0.00795539 0.03432033
v 0.03709820 -0.01185745 0.02316426
v 0.03470984 -0.01757491 0.03130031
v 0.03608689 -0.00962809 0.03878398
v 0.03715679 -0.00843566 0.03766480
v 0.03474330 -0.01645381 0.03594611
v 0.02139253 -0.01890552 0.02493734
v 0.03612656 -0.01422045 0.02081368
v 0.03172807 -0.00925897 0.03763923
v 0.02500303 -0.01879917 0.03440266
v 0.03706505 -0.01185245 0.03015664
v 0.03373760 -0.01651380 0.03892948
v 0.03480814 -0.01530982 0.03788071
v 0.03591112 -0.01302575 0.03712814
v 0.03366560 -0.01763270 0.03795999
v 0.03723283 -0.01081516 0.02090977
v 0.03470799 -0.01758518 0.02207046
v 0.03586259 -0.01416201 0.03475545
v 0.03511164 -0.01657487 0.02086378
f 6 3 4
f 7 6 1
f 7 3 6
f 11 7 2
f 11 3 7
f 12 8 1
f 12 9 8
f 12 5 9
f 15 4 3
f 15 9 14
f 16 1 6
f 16 6 10
f 16 12 1
f 16 5 12
f 17 10 6
f 17 6 4
f 19 8 9
f 20 7 1
f 21 2 7
f 21 20 13
f 21 7 20
f 23 14 9
f 23 9 5
f 23 15 14
f 24 15 3
f 24 9 15
f 24 18 19
f 25 16 10
f 25 5 16
f 26 17 4
f 26 4 15
f 26 10 17
f 26 25 10
f 26 5 25
f 26 23 5
f 26 15 23
f 27 18 3
f 27 3 11
f 27 19 18
f 28 20 1
f 28 1 8
f 28 13 20
f 29 21 13
f 29 13 28
f 30 11 2
f 30 29 22
f 30 2 21
f 30 21 29
f 31 8 19
f 31 19 22
f 31 22 29
f 31 29 28
f 31 28 8
f 32 24 3
f 32 3 18
f 32 18 24
f 33 24 19
f 33 19 9
f 34 22 19
f 34 19 27
f 34 27 11
f 34 30 22
f 34 11 30
f 35 33 9
f 35 9 24
f 35 24 33

