# https://github.com/mikedh/trimesh
v 0.03804702 -0.00749107 0.02079550
v 0.03723283 -0.01081516 0.02090977
v 0.03534180 -0.00740875 0.01181435
v -0.01838143 0.00186987 0.01126604
v -0.01859267 -0.01847524 0.02034648
v 0.02075323 0.00186987 0.01126604
v 0.03716170 -0.00843506 0.01641629
v -0.01838186 0.00186933 0.01790763
v 0.03153559 -0.01774285 0.01210963
v 0.03740272 -0.00738046 0.01635542
v 0.03711677 -0.00959996 0.01750769
v 0.02080032 0.00188209 0.01938816
v -0.01866379 -0.01621456 0.01958473
v 0.03438240 -0.01795319 0.02081960
v 0.03461474 -0.01415071 0.01434288
v -0.01838143 -0.01829041 0.01126604
v 0.03612722 -0.00735313 0.01311023
v 0.03710424 -0.01078840 0.01973361
v 0.03511164 -0.01657487 0.02086378
v 0.03460223 -0.01067019 0.01214611
v 0.03579612 -0.01191949 0.01536039
v 0.03346982 -0.01750050 0.01552137
v 0.03592442 -0.01411946 0.01867684
v 0.03227722 -0.01638589 0.01224226
v 0.03590685 -0.00838750 0.01322891
v 0.03233667 -0.01752177 0.01323640
v 0.03612656 -0.01422045 0.02081368
v 0.03578437 -0.01297408 0.01647787
v 0.03466511 -0.01632562 0.01753140
f 5 2 1
f 10 6 1
f 11 10 1
f 11 7 10
f 12 8 5
f 12 5 1
f 12 1 6
f 12 6 4
f 12 4 8
f 13 8 4
f 13 5 8
f 16 4 6
f 16 6 3
f 16 3 9
f 16 13 4
f 16 5 13
f 16 14 5
f 16 9 14
f 17 3 6
f 17 6 10
f 17 10 7
f 18 11 1
f 18 1 2
f 19 2 5
f 19 5 14
f 20 9 3
f 21 7 11
f 22 14 9
f 23 18 2
f 23 11 18
f 24 20 15
f 24 9 20
f 25 15 20
f 25 21 15
f 25 17 7
f 25 7 21
f 25 20 3
f 25 3 17
f 26 22 9
f 26 15 22
f 26 24 15
f 26 9 24
f 27 23 2
f 27 2 19
f 27 19 23
f 28 21 11
f 28 11 23
f 28 15 21
f 29 23 19
f 29 19 14
f 29 14 22
f 29 28 23
f 29 22 15
f 29 15 28

