# https://github.com/mikedh/trimesh
v 0.01852635 -0.02800016 0.03824500
v 0.01887500 -0.02734184 0.03779307
v 0.01753487 -0.02835469 0.03802683
v 0.00062969 -0.02211909 0.02034490
v 0.01990349 -0.03024394 0.01754972
v 0.02082563 -0.01358978 0.02055156
v 0.00065957 -0.02809660 0.02531266
v 0.01968671 -0.01367404 0.02025271
v 0.02135467 -0.01766867 0.02368170
v 0.00191517 -0.02840559 0.02632416
v 0.01536691 -0.02858372 0.03676658
v 0.00047974 -0.02693583 0.02200165
v 0.01901782 -0.02516036 0.03538475
v 0.02138269 -0.01386786 0.02091580
f 1 2 3
f 3 2 4
f 5 2 1
f 5 1 3
f 8 6 5
f 8 5 4
f 9 2 5
f 10 7 5
f 11 3 4
f 11 4 7
f 11 7 10
f 11 10 5
f 11 5 3
f 12 7 4
f 12 4 5
f 12 5 7
f 13 8 4
f 13 4 2
f 13 6 8
f 14 9 5
f 14 5 6
f 14 6 13
f 14 13 2
f 14 2 9

