# https://github.com/mikedh/trimesh
v 0.03284979 0.01797308 0.03860617
v 0.03740504 -0.00730987 0.03774254
v 0.03834718 0.00511088 0.01749163
v 0.02334070 0.02102076 0.00861018
v 0.02146516 -0.00790857 0.01946088
v 0.03366044 0.01775046 0.01529468
v 0.03834858 0.00637502 0.03247876
v 0.03154038 -0.00797506 0.03663609
v 0.02116319 0.01873433 0.02124060
v 0.03534180 -0.00740875 0.01181435
v 0.03474851 0.01779188 0.02088946
v 0.03717087 0.00750802 0.03772623
v 0.03837222 -0.00617948 0.03021510
v 0.03340099 -0.00786237 0.03847041
v 0.02757324 0.01904453 0.03694867
v 0.02075323 -0.00761732 0.01126604
v 0.03594065 0.00638856 0.01210599
v 0.03474470 0.01774333 0.03016584
v 0.03707499 0.01208621 0.02086534
v 0.03656832 -0.00743886 0.03880587
v 0.03838560 0.00292284 0.03600027
v 0.03837086 -0.00507063 0.01861233
v 0.03708600 -0.00731516 0.01525813
v 0.02931393 0.01873431 0.03859321
v 0.02630739 0.01903733 0.03451252
v 0.03575585 0.01199785 0.01431782
v 0.03366812 0.01786343 0.03788826
v 0.03838192 0.00758081 0.02207771
v 0.03587266 0.01427209 0.01751519
v 0.03708855 0.01203992 0.03126819
v 0.03602716 0.00980734 0.03851870
v 0.03763577 0.00173791 0.03837200
v 0.03701179 0.00974775 0.03691712
v 0.03835529 -0.00160139 0.03598080
v 0.03836840 -0.00618242 0.02197093
v 0.03709192 -0.00153906 0.01328401
v 0.03703118 0.00634258 0.01419881
v 0.03178880 0.01803343 0.01183257
v 0.03704665 0.01090285 0.01748005
v 0.03837805 0.00761200 0.02782680
v 0.03462948 0.01661357 0.01643773
v 0.03592398 0.01548592 0.02203104
v 0.03473917 0.01661421 0.03593554
v 0.03511730 0.01324276 0.03851797
v 0.03720561 -0.00390793 0.03864387
v 0.03703585 0.01087888 0.03479911
v 0.03833983 -0.00508487 0.03361655
v 0.03833201 -0.00278940 0.01746686
v 0.03719538 -0.00501371 0.01430088
v 0.03584219 -0.00610716 0.01208976
v 0.03585993 0.00981924 0.01323367
v 0.03711411 0.00184077 0.01320180
v 0.03484916 0.01099522 0.01210197
v 0.03351383 0.01652197 0.01334165
v 0.03702618 0.00862001 0.01532509
v 0.03590292 0.01544757 0.02898141
v 0.03594612 0.01324292 0.03704511
v 0.03604059 0.01221339 0.03773069
v 0.03831981 -0.00389509 0.03477558
v 0.03612722 -0.00735313 0.01311023
v 0.03368268 0.01438160 0.01209137
v 0.03262711 0.01785894 0.01302006
v 0.03583606 0.01432045 0.03479743
v 0.03486452 0.01552160 0.03774446
f 10 8 5
f 11 6 4
f 14 8 10
f 15 8 14
f 15 5 8
f 16 9 4
f 16 5 9
f 16 10 5
f 16 4 10
f 17 10 4
f 18 11 4
f 22 21 13
f 23 2 20
f 23 20 14
f 23 14 10
f 24 4 15
f 24 15 14
f 24 20 1
f 24 14 20
f 25 15 4
f 25 4 9
f 25 9 5
f 25 5 15
f 27 18 4
f 27 24 1
f 27 4 24
f 28 22 3
f 28 21 22
f 31 1 20
f 32 12 31
f 32 21 12
f 33 21 7
f 33 12 21
f 34 13 21
f 34 32 2
f 34 21 32
f 35 13 2
f 35 2 23
f 35 23 22
f 35 22 13
f 39 28 3
f 39 19 28
f 39 29 19
f 39 26 29
f 40 7 21
f 40 21 28
f 40 30 7
f 40 28 19
f 40 19 30
f 41 6 11
f 41 11 29
f 41 29 26
f 42 29 11
f 42 19 29
f 42 30 19
f 42 11 18
f 43 18 27
f 44 27 1
f 44 1 31
f 45 20 2
f 45 2 32
f 45 32 31
f 45 31 20
f 46 33 7
f 46 7 30
f 47 2 13
f 47 13 34
f 48 3 22
f 49 36 48
f 49 48 22
f 49 22 23
f 50 10 17
f 50 36 49
f 51 37 17
f 52 17 37
f 52 50 17
f 52 36 50
f 52 37 3
f 52 48 36
f 52 3 48
f 53 17 4
f 53 51 17
f 53 26 51
f 54 41 26
f 54 6 41
f 55 26 39
f 55 51 26
f 55 37 51
f 55 39 3
f 55 3 37
f 56 42 18
f 56 30 42
f 56 18 43
f 57 33 46
f 57 46 30
f 58 44 31
f 58 31 12
f 58 12 33
f 58 33 57
f 59 47 34
f 59 34 2
f 59 2 47
f 60 50 49
f 60 49 23
f 60 23 10
f 60 10 50
f 61 53 4
f 61 4 38
f 61 38 54
f 61 54 26
f 61 26 53
f 62 54 38
f 62 6 54
f 62 38 4
f 62 4 6
f 63 56 43
f 63 30 56
f 63 57 30
f 63 43 57
f 64 57 43
f 64 43 27
f 64 58 57
f 64 27 44
f 64 44 58

