# https://github.com/mikedh/trimesh
v 0.01135485 0.02217744 0.01922864
v 0.01127890 0.00186102 0.01808932
v 0.01126604 0.02203015 0.01126604
v -0.02044295 0.02288038 0.00867260
v -0.01815583 0.02187172 0.02096086
v 0.01126604 0.00186987 0.01126604
v -0.01386593 0.02248331 0.01958068
v -0.01838186 0.00186933 0.01790763
v 0.01141286 0.01740431 0.01839649
v -0.01871450 0.01746773 0.01952311
v -0.01838143 0.00186987 0.01126604
f 1 3 4
f 5 2 1
f 6 4 3
f 7 5 1
f 7 1 4
f 7 4 5
f 8 2 5
f 9 1 2
f 9 2 6
f 9 6 3
f 9 3 1
f 10 8 5
f 10 5 4
f 10 4 8
f 11 6 2
f 11 2 8
f 11 8 4
f 11 4 6

