# https://github.com/mikedh/trimesh
v 0.01878039 -0.02840202 0.03862917
v 0.01776828 -0.03362019 0.03884811
v 0.01808622 -0.02726687 0.00835336
v -0.00756131 -0.02718103 0.00486947
v -0.01645709 -0.02980081 0.03865116
v 0.00401402 -0.03821517 0.01871009
v -0.01522419 -0.02611017 0.02293063
v 0.01777091 -0.03351461 0.01641945
v -0.00612297 -0.03708798 0.03909248
v 0.00512224 -0.03473990 0.01110903
v 0.01332605 -0.02710978 0.00631987
v -0.01545260 -0.03469635 0.01754895
v 0.01775496 -0.03457771 0.03483167
v -0.01086480 -0.03591217 0.03903119
v 0.00978695 -0.03576957 0.01432958
v 0.00871567 -0.02715016 0.00504343
v 0.01423805 -0.03229369 0.01122071
v -0.01580763 -0.02733625 0.00717654
v -0.00620539 -0.03826525 0.02550406
v -0.00628490 -0.03579876 0.01314810
v 0.01765822 -0.03466064 0.02099339
v 0.00407915 -0.03831141 0.03605824
v -0.01576844 -0.03418394 0.03890875
v 0.00624876 -0.03693894 0.01543647
v 0.00517555 -0.03024566 0.00668560
v 0.01422675 -0.03011075 0.00898513
v 0.00969924 -0.03462666 0.01224261
v 0.01757450 -0.03220303 0.01338481
v -0.01330356 -0.02718146 0.00626874
v -0.01550402 -0.03359683 0.01420453
v -0.00971993 -0.03693152 0.03604468
v -0.00959520 -0.03698308 0.01860382
v 0.01079082 -0.03692957 0.01859573
v 0.00750399 -0.03828328 0.02323819
v -0.00284988 -0.03821588 0.03596026
v 0.01079529 -0.03687790 0.03697239
v 0.00630155 -0.03583987 0.01322926
v -0.00516810 -0.03697887 0.01541741
v -0.00637145 -0.03138317 0.00785823
v 0.01312449 -0.02795236 0.00681851
v 0.01655130 -0.03124848 0.01125808
v 0.00748564 -0.03246846 0.00896417
v 0.01193524 -0.03462817 0.01334934
v -0.01534172 -0.03464207 0.03841148
v -0.00962219 -0.03567388 0.01436330
v -0.01421903 -0.03583529 0.03135185
v 0.01420970 -0.03574012 0.01869228
v 0.00857260 -0.03691674 0.01654893
v -0.00519973 -0.03828806 0.02205104
v 0.00632651 -0.03825952 0.02098049
v 0.01204084 -0.03704181 0.02213423
v -0.00618755 -0.03826974 0.02905905
v 0.01421792 -0.03574130 0.03711940
v 0.00852524 -0.03701617 0.03888075
v 0.00748867 -0.03827782 0.03246553
v -0.00168508 -0.03825146 0.01868607
v -0.00401227 -0.03477706 0.01114599
v -0.00514011 -0.03022070 0.00668367
v -0.00981346 -0.02907863 0.00671599
v -0.01431990 -0.03231379 0.01122357
v 0.01653736 -0.02905436 0.00904853
v 0.01780876 -0.02802400 0.00883178
v 0.01090016 -0.03026384 0.00785485
v 0.01082267 -0.03347915 0.01119612
f 7 1 3
f 7 5 1
f 8 3 1
f 9 2 1
f 11 7 3
f 13 1 2
f 14 9 1
f 14 1 5
f 16 4 7
f 16 7 11
f 18 5 7
f 21 8 1
f 21 1 13
f 23 14 5
f 23 5 12
f 25 4 16
f 28 3 8
f 29 18 7
f 29 7 4
f 30 12 5
f 30 5 18
f 31 9 14
f 35 22 9
f 35 9 31
f 37 15 24
f 37 27 15
f 37 10 27
f 38 37 24
f 40 11 3
f 40 16 11
f 41 17 26
f 41 28 17
f 42 10 25
f 42 27 10
f 43 27 17
f 43 15 27
f 43 17 28
f 43 28 8
f 44 31 14
f 44 14 23
f 44 23 12
f 45 38 32
f 45 20 38
f 45 32 12
f 45 12 30
f 46 12 32
f 46 44 12
f 46 31 44
f 46 32 19
f 47 8 21
f 47 43 8
f 47 33 15
f 47 15 43
f 48 24 15
f 48 15 33
f 48 6 24
f 49 34 22
f 49 19 32
f 50 33 34
f 50 48 33
f 50 6 48
f 51 34 33
f 51 21 13
f 51 47 21
f 51 33 47
f 52 22 35
f 52 49 22
f 52 19 49
f 52 35 31
f 52 46 19
f 52 31 46
f 53 13 2
f 54 2 9
f 54 9 22
f 54 53 2
f 54 36 53
f 55 22 34
f 55 34 51
f 55 53 36
f 55 51 13
f 55 13 53
f 55 54 22
f 55 36 54
f 56 38 24
f 56 24 6
f 56 6 50
f 56 50 34
f 56 34 49
f 56 49 32
f 56 32 38
f 57 38 20
f 57 10 37
f 57 37 38
f 57 25 10
f 58 4 25
f 58 57 39
f 58 25 57
f 59 29 4
f 59 58 39
f 59 4 58
f 59 18 29
f 60 30 18
f 60 59 39
f 60 18 59
f 60 45 30
f 60 20 45
f 60 57 20
f 60 39 57
f 61 40 3
f 61 26 40
f 61 41 26
f 62 3 28
f 62 28 41
f 62 61 3
f 62 41 61
f 63 40 26
f 63 26 17
f 63 16 40
f 63 42 25
f 63 25 16
f 64 17 27
f 64 27 42
f 64 63 17
f 64 42 63

