# https://github.com/mikedh/trimesh
v 0.03026702 0.02236827 0.03854130
v 0.03404690 0.01796921 0.03603634
v 0.02445364 0.03018104 0.01760875
v 0.02042043 0.01818326 0.00369699
v 0.02671893 0.01923267 0.03549158
v 0.03395682 0.01790563 0.01637549
v 0.03128802 0.02336867 0.03011412
v 0.03284979 0.01797308 0.03860617
v 0.02034262 0.03201646 0.03794998
v 0.02437375 0.02560404 0.01011323
v 0.03126476 0.02227513 0.03590983
v 0.03010449 0.02455812 0.01858207
v 0.03356635 0.02010070 0.02897864
v 0.03249186 0.01987271 0.03771675
v 0.02182545 0.01913427 0.02199066
v 0.02133175 0.01798422 0.00408858
v 0.02018747 0.03172891 0.01401358
v 0.02325780 0.03135308 0.03015952
v 0.02046082 0.03122103 0.03859520
v 0.02327117 0.03023555 0.03770681
v 0.02334520 0.03136156 0.01971720
v 0.02892684 0.02432353 0.01426380
v 0.03357213 0.02001023 0.02316027
v 0.03240577 0.02115788 0.03361349
v 0.03250915 0.01877872 0.03848019
v 0.02890482 0.02452083 0.03793344
v 0.03356870 0.01881066 0.03598490
v 0.02362960 0.01795101 0.00534998
v 0.02121008 0.02580293 0.00794600
v 0.02021927 0.01914359 0.00401409
v 0.02865171 0.01903399 0.03844279
v 0.02181548 0.02418945 0.03540962
v 0.02345094 0.02936086 0.03836693
v 0.02150339 0.03087551 0.03836926
v 0.02015347 0.03294393 0.03484169
v 0.02546926 0.02904283 0.03475824
v 0.02900053 0.02565278 0.01756460
v 0.03123541 0.02344625 0.02088539
v 0.02022685 0.03296073 0.01750666
v 0.02545655 0.02786527 0.01424013
v 0.03238766 0.02105852 0.01748322
v 0.03178880 0.01803343 0.01183257
v 0.02701531 0.01901709 0.00784741
v 0.02023728 0.02847600 0.00958388
v 0.02113671 0.02749304 0.03847165
v 0.02114340 0.01903033 0.00443552
v 0.02787860 0.01927822 0.03789957
v 0.02125269 0.03153065 0.03791491
v 0.02093621 0.03244474 0.03474306
v 0.02896349 0.02554898 0.03475497
v 0.02107470 0.03248494 0.01762040
v 0.02326810 0.03024985 0.01546555
v 0.02546686 0.02561774 0.01121378
v 0.03000626 0.02224740 0.01334778
v 0.03350663 0.01878996 0.01652266
v 0.02450043 0.02234192 0.00798951
v 0.02721288 0.01802993 0.00752867
v 0.03010898 0.01991485 0.01119482
v 0.02334867 0.02910258 0.01329911
v 0.02026640 0.02597544 0.00756891
v 0.02348757 0.01901579 0.00572382
v 0.02101850 0.03134101 0.01432823
v 0.03142157 0.01897178 0.01207377
v 0.02785071 0.01994730 0.00904223
f 8 6 2
f 14 8 2
f 15 8 5
f 16 15 4
f 16 8 15
f 19 8 1
f 21 18 7
f 23 13 2
f 23 2 6
f 24 13 7
f 24 7 11
f 25 14 1
f 25 1 8
f 25 8 14
f 26 14 11
f 26 1 14
f 27 14 2
f 27 11 14
f 27 24 11
f 27 2 13
f 27 13 24
f 28 6 8
f 28 8 16
f 30 19 9
f 31 5 8
f 32 15 5
f 33 19 1
f 33 26 20
f 33 1 26
f 34 9 19
f 34 33 20
f 34 19 33
f 35 18 21
f 35 30 9
f 35 17 30
f 36 7 18
f 37 21 12
f 37 3 21
f 38 21 7
f 38 12 21
f 38 7 13
f 38 13 23
f 39 35 21
f 39 17 35
f 40 37 22
f 40 3 37
f 41 12 38
f 41 38 23
f 41 37 12
f 41 22 37
f 42 6 28
f 44 10 29
f 44 30 17
f 45 30 4
f 45 4 15
f 45 15 32
f 45 19 30
f 45 31 8
f 45 8 19
f 46 16 4
f 46 4 30
f 46 30 29
f 47 32 5
f 47 5 31
f 47 45 32
f 47 31 45
f 48 34 20
f 48 9 34
f 48 35 9
f 48 20 35
f 49 35 20
f 49 18 35
f 49 36 18
f 49 20 36
f 50 26 11
f 50 11 7
f 50 7 36
f 50 36 20
f 50 20 26
f 51 39 21
f 51 21 3
f 52 3 40
f 52 51 3
f 53 40 22
f 54 22 41
f 54 53 22
f 55 41 23
f 55 23 6
f 55 54 41
f 56 29 10
f 56 46 29
f 57 42 28
f 58 10 53
f 58 53 54
f 59 44 17
f 59 40 53
f 59 53 10
f 59 10 44
f 59 52 40
f 60 44 29
f 60 29 30
f 60 30 44
f 61 28 16
f 61 16 46
f 61 46 56
f 61 56 43
f 61 57 28
f 61 43 57
f 62 17 39
f 62 39 51
f 62 51 52
f 62 59 17
f 62 52 59
f 63 55 6
f 63 6 42
f 63 54 55
f 63 58 54
f 63 42 58
f 64 56 10
f 64 43 56
f 64 10 58
f 64 57 43
f 64 58 42
f 64 42 57

