# https://github.com/mikedh/trimesh
v 0.02044296 0.03334479 0.02079407
v 0.02080032 0.00188209 0.01938816
v 0.02206631 0.02403678 0.00929062
v 0.01092048 0.03530976 0.01297081
v 0.01122260 0.03730980 0.02076254
v 0.01126604 0.00186987 0.01126604
v 0.01991022 0.03144713 0.01318448
v 0.02119270 0.01278567 0.01971071
v 0.01442686 0.03628917 0.02087892
v 0.02075323 0.00186987 0.01126604
v 0.01126604 0.02203015 0.01126604
v 0.01127890 0.00186102 0.01808932
v 0.01304221 0.03598658 0.01649433
v 0.01097796 0.03632426 0.01526010
v 0.01608937 0.00184321 0.01830894
v 0.01433083 0.03604479 0.01860703
v 0.01540158 0.03472296 0.01528197
v 0.01906747 0.03411703 0.02080519
v 0.01315077 0.03465510 0.01324751
v 0.01191524 0.03602959 0.01529819
v 0.01862314 0.03358936 0.01651478
v 0.01987055 0.03243058 0.01537111
f 7 1 3
f 7 3 4
f 8 1 2
f 8 2 3
f 8 3 1
f 9 5 2
f 9 2 1
f 10 6 3
f 10 3 2
f 11 6 4
f 11 4 3
f 11 3 6
f 12 4 6
f 12 2 5
f 14 12 5
f 14 4 12
f 15 10 2
f 15 2 12
f 15 12 6
f 15 6 10
f 16 5 9
f 16 14 5
f 16 13 14
f 17 13 16
f 18 16 9
f 18 9 1
f 19 17 7
f 19 7 4
f 20 14 13
f 20 13 17
f 20 17 19
f 20 19 4
f 20 4 14
f 21 7 17
f 21 18 1
f 21 17 16
f 21 16 18
f 22 21 1
f 22 1 7
f 22 7 21

