# https://github.com/mikedh/trimesh
v 0.01088437 0.03742195 0.02083506
v 0.02295618 0.02892407 0.01260420
v 0.00281438 0.03380037 0.00882454
v -0.01450353 0.02162323 0.00288234
v -0.01815583 0.02187172 0.02096086
v 0.01451765 0.02153690 0.00293288
v 0.01076732 0.03598774 0.01418517
v 0.01160668 0.02261961 0.01949574
v -0.01775272 0.03390617 0.02084036
v 0.01314471 0.03034592 0.00786507
v -0.00289762 0.02391620 0.00202716
v 0.02023942 0.02149481 0.00521383
v 0.02122134 0.03048499 0.01306070
v 0.02251597 0.02953259 0.01300114
v -0.00169981 0.03862017 0.02086815
v -0.01537637 0.03137690 0.01013167
v -0.01797859 0.02159333 0.00398709
v 0.00856024 0.03485830 0.01117909
v -0.00639734 0.02166664 0.00165050
v 0.00520301 0.02599402 0.00318677
v 0.02206631 0.02403678 0.00929062
v 0.01999402 0.02801929 0.00905591
v 0.01083528 0.03718359 0.01863740
v 0.02097667 0.03012207 0.01220443
v -0.01305948 0.03608437 0.02087601
v -0.00972962 0.02698444 0.00441126
v -0.00280004 0.03721588 0.01418956
v 0.01792685 0.02149706 0.00408738
v -0.01756540 0.03014983 0.01008345
v 0.00967202 0.03148129 0.00777690
v 0.00874916 0.02165885 0.00173650
v -0.00989728 0.02494724 0.00321450
v 0.00965879 0.02691495 0.00438395
v 0.02263922 0.02853931 0.01174756
v 0.00402208 0.03852008 0.01971643
v 0.02224612 0.02917859 0.01215895
v 0.01764927 0.03126149 0.01111678
v -0.01642177 0.03357939 0.01527883
v -0.00399950 0.03263453 0.00772206
v 0.00519923 0.03604550 0.01209534
v -0.00968613 0.03722697 0.01966085
v 0.02013708 0.02481777 0.00686919
v -0.01770199 0.03256222 0.01402998
v -0.01770829 0.02472437 0.00563044
v 0.00962511 0.03369678 0.01006877
v 0.00391428 0.02825185 0.00433586
v 0.00168797 0.02386224 0.00202443
v -0.00507698 0.02815773 0.00431593
v -0.01439366 0.02255934 0.00324387
v 0.00977320 0.02479826 0.00322928
v 0.01434331 0.02469609 0.00446456
v 0.00746763 0.02933110 0.00552422
v 0.01990801 0.03009931 0.01122969
v 0.00405281 0.03863502 0.02085624
v -0.00169200 0.03850801 0.01969321
v 0.00748176 0.03719477 0.01532727
v 0.01767634 0.02809355 0.00789020
v 0.01417038 0.03367662 0.01219631
v -0.01532650 0.03483676 0.01857620
v -0.01184812 0.03474328 0.01322101
v -0.00957754 0.03150729 0.00779651
v -0.00286088 0.03377868 0.00875739
v 0.00965279 0.03588881 0.01330693
v -0.00968013 0.03729363 0.02083179
f 8 1 5
f 12 8 5
f 14 8 2
f 14 1 8
f 14 13 1
f 17 5 9
f 17 12 5
f 17 4 6
f 19 6 4
f 21 2 8
f 21 8 12
f 23 13 7
f 23 1 13
f 24 13 14
f 25 9 5
f 25 5 15
f 28 17 6
f 28 12 17
f 31 6 19
f 32 19 4
f 32 11 19
f 34 21 12
f 34 2 21
f 35 1 23
f 36 24 14
f 36 14 2
f 36 2 34
f 37 13 24
f 40 18 3
f 42 12 28
f 42 34 12
f 42 22 34
f 43 29 17
f 43 17 9
f 43 9 38
f 43 16 29
f 44 17 29
f 44 26 32
f 44 29 16
f 45 10 30
f 45 30 3
f 45 3 18
f 46 39 3
f 46 33 20
f 47 31 19
f 47 19 11
f 47 20 31
f 47 46 20
f 47 11 46
f 48 32 26
f 48 11 32
f 48 46 11
f 48 39 46
f 49 32 4
f 49 4 17
f 49 44 32
f 49 17 44
f 50 31 20
f 50 20 33
f 50 6 31
f 51 28 6
f 51 50 33
f 51 6 50
f 51 42 28
f 51 33 10
f 52 30 10
f 52 10 33
f 52 33 46
f 52 46 3
f 52 3 30
f 53 34 22
f 53 36 34
f 53 24 36
f 53 37 24
f 53 22 37
f 54 1 35
f 54 15 5
f 54 5 1
f 55 35 27
f 55 54 35
f 55 15 54
f 55 41 15
f 55 27 41
f 56 35 23
f 56 23 7
f 56 40 27
f 56 27 35
f 57 37 22
f 57 10 37
f 57 22 42
f 57 51 10
f 57 42 51
f 58 7 13
f 58 13 37
f 58 45 18
f 58 37 10
f 58 10 45
f 59 38 9
f 59 9 25
f 59 41 38
f 59 25 41
f 60 43 38
f 60 16 43
f 60 41 27
f 60 38 41
f 61 16 60
f 61 44 16
f 61 26 44
f 61 48 26
f 61 39 48
f 62 3 39
f 62 40 3
f 62 27 40
f 62 60 27
f 62 61 60
f 62 39 61
f 63 18 40
f 63 58 18
f 63 7 58
f 63 56 7
f 63 40 56
f 64 41 25
f 64 25 15
f 64 15 41

