# https://github.com/mikedh/trimesh
v 0.02009978 0.03159548 0.03853225
v 0.02142219 0.02642366 0.03773325
v 0.01994103 0.03363539 0.02085903
v 0.00647114 0.03830682 0.02078048
v 0.00672441 0.03377643 0.03869369
v 0.01976839 0.01740969 0.02026810
v 0.01089784 0.03721592 0.03365020
v 0.01994253 0.03363326 0.03016025
v 0.02113671 0.02749304 0.03847165
v 0.02119102 0.01755877 0.02089641
v 0.00781448 0.02586451 0.02011907
v 0.00671139 0.03267103 0.03749498
v 0.01541278 0.03599500 0.02203361
v 0.00637247 0.03665512 0.03898744
v 0.01545952 0.03488354 0.03761343
v 0.01994148 0.03243292 0.03772135
v 0.02079091 0.01730998 0.02066348
v 0.01766981 0.03483575 0.02085129
v 0.00653934 0.02690728 0.02045810
v 0.01200626 0.03719330 0.02898406
v 0.00628374 0.03747216 0.03794198
v 0.00985661 0.03618399 0.03867554
v 0.01640375 0.03476642 0.03596074
v 0.01088437 0.03742195 0.02083506
v 0.01539191 0.03603102 0.02900142
v 0.00973994 0.03721947 0.03596748
v 0.01317050 0.03507468 0.03847200
v 0.00748139 0.03723164 0.03794308
v 0.01421851 0.03592011 0.03476654
v 0.01198992 0.03716629 0.02205408
v 0.01763363 0.03483804 0.03014797
v 0.01194062 0.03606077 0.03789312
v 0.01313808 0.03594331 0.03698855
f 8 2 3
f 9 5 2
f 9 2 8
f 10 3 2
f 11 3 6
f 12 6 2
f 12 2 5
f 12 11 6
f 14 9 1
f 14 5 9
f 14 12 5
f 16 9 8
f 16 1 9
f 16 15 1
f 17 6 3
f 17 3 10
f 17 10 2
f 17 2 6
f 18 3 11
f 18 8 3
f 19 4 11
f 19 11 12
f 19 12 14
f 20 4 7
f 21 19 14
f 21 4 19
f 22 14 1
f 23 16 8
f 23 15 16
f 24 13 18
f 24 4 20
f 24 18 11
f 24 11 4
f 25 18 13
f 25 8 18
f 25 13 20
f 25 20 7
f 26 7 4
f 26 4 21
f 27 22 1
f 27 1 15
f 28 21 14
f 28 14 22
f 28 26 21
f 29 15 23
f 29 25 7
f 29 23 25
f 30 24 20
f 30 20 13
f 30 13 24
f 31 25 23
f 31 23 8
f 31 8 25
f 32 27 15
f 32 22 27
f 32 28 22
f 32 26 28
f 33 29 7
f 33 7 26
f 33 26 32
f 33 32 15
f 33 15 29

