# https://github.com/mikedh/trimesh
v 0.03178880 0.01803343 0.01183257
v 0.03534180 -0.00740875 0.01181435
v 0.02005740 0.00651857 0.00085596
v -0.01205686 0.01687275 0.00094386
v -0.01838143 -0.01829041 0.01126604
v 0.01093072 0.02156609 0.00214874
v 0.03265258 0.00524588 0.00786876
v 0.03400433 -0.01200861 0.01188598
v -0.02044295 0.02288038 0.00867260
v -0.00732351 -0.01770814 0.00078219
v 0.02223433 0.01774279 0.00444959
v 0.00755816 0.01925790 0.00085958
v 0.03530954 0.00875791 0.01184112
v 0.03398568 0.01334533 0.01193488
v 0.02485980 -0.00975570 0.00324948
v -0.01788406 -0.01096626 0.00086314
v -0.00988897 0.02158249 0.00201687
v 0.02206631 0.02403678 0.00929062
v 0.03098896 -0.01805915 0.01162077
v 0.01318811 0.01667278 0.00087757
v 0.02600950 0.00647662 0.00325137
v -0.01454299 0.01340015 0.00082706
v 0.01667709 -0.01071956 0.00074594
v 0.03488228 0.00293273 0.00996716
v 0.03365705 0.00977047 0.01003127
v 0.03028527 -0.00847048 0.00668406
v -0.01819928 -0.01803423 0.00254670
v -0.01797859 0.02159333 0.00398709
v -0.00173438 0.02038560 0.00084457
v 0.02023942 0.02149481 0.00521383
v 0.03186404 -0.01671726 0.01185315
v 0.02338543 0.01327779 0.00327629
v 0.01102964 0.01762488 0.00084257
v 0.02611465 -0.00511025 0.00319957
v 0.01456234 -0.01786996 0.00208564
v 0.03491640 -0.00270317 0.01000877
v 0.03354328 0.01323142 0.01123157
v 0.03368166 0.00517614 0.00882363
v 0.03360644 -0.00943450 0.01004295
v 0.02683955 -0.01637835 0.00683214
v -0.01811860 -0.01670092 0.00206160
v -0.01454819 0.01921839 0.00213241
v -0.01805863 0.00757429 0.00089336
v -0.00752927 0.01912835 0.00086524
v 0.00170070 0.02040485 0.00086129
v 0.01557078 0.02145154 0.00318172
v 0.02802644 0.01781020 0.00797141
v 0.01899695 0.00989981 0.00087538
v 0.02005363 0.00551268 0.00083094
v 0.02272647 -0.00633097 0.00202232
v 0.02916529 -0.00736690 0.00549330
v 0.03157327 0.00180156 0.00666721
v 0.00858454 -0.01777032 0.00080808
v 0.02236777 -0.01419353 0.00324048
v 0.03482684 0.00861295 0.01108491
v 0.03147129 0.00982548 0.00785363
v 0.03358538 -0.01176017 0.01111360
v 0.03483505 -0.00730998 0.01104865
v 0.03258604 -0.00389793 0.00777527
v 0.02576942 -0.01762480 0.00670717
v 0.02905315 -0.01511026 0.00791693
v -0.01349817 -0.01545775 0.00087559
v -0.01564977 0.02147478 0.00319811
v -0.01809279 0.01573980 0.00205959
f 9 5 1
f 14 1 5
f 14 8 2
f 14 2 13
f 18 9 1
f 18 17 9
f 18 6 17
f 22 10 16
f 23 10 22
f 27 5 9
f 28 9 17
f 29 23 22
f 31 5 19
f 31 14 5
f 31 8 14
f 33 12 6
f 33 6 20
f 33 29 12
f 33 23 29
f 35 19 5
f 35 5 27
f 36 24 13
f 36 13 2
f 37 14 13
f 37 1 14
f 39 2 8
f 41 27 9
f 41 9 16
f 42 17 4
f 43 22 16
f 43 16 9
f 44 4 17
f 44 17 29
f 44 29 22
f 44 22 4
f 45 29 17
f 45 17 6
f 45 6 12
f 45 12 29
f 46 6 18
f 46 18 30
f 46 20 6
f 46 30 11
f 46 32 20
f 46 11 32
f 47 30 18
f 47 18 1
f 47 11 30
f 47 32 11
f 47 1 37
f 48 20 32
f 48 33 20
f 48 32 21
f 48 21 3
f 49 23 33
f 49 3 21
f 49 21 34
f 49 48 3
f 49 33 48
f 50 34 15
f 50 15 23
f 50 49 34
f 50 23 49
f 51 15 34
f 52 34 21
f 52 21 7
f 52 51 34
f 52 7 38
f 52 38 24
f 52 24 36
f 53 10 23
f 53 23 35
f 53 35 27
f 53 27 10
f 54 35 23
f 54 23 15
f 54 15 40
f 55 37 13
f 55 25 37
f 55 38 25
f 55 13 24
f 55 24 38
f 56 38 7
f 56 25 38
f 56 7 21
f 56 21 32
f 56 32 47
f 56 47 37
f 56 37 25
f 57 39 8
f 57 8 31
f 58 39 36
f 58 36 2
f 58 2 39
f 59 39 26
f 59 36 39
f 59 26 51
f 59 52 36
f 59 51 52
f 60 19 35
f 60 54 40
f 60 35 54
f 61 26 39
f 61 39 57
f 61 60 40
f 61 19 60
f 61 57 31
f 61 31 19
f 61 51 26
f 61 40 15
f 61 15 51
f 62 41 16
f 62 16 10
f 62 10 27
f 62 27 41
f 63 28 17
f 63 17 42
f 64 42 4
f 64 4 22
f 64 63 42
f 64 28 63
f 64 22 43
f 64 43 9
f 64 9 28

