# https://github.com/mikedh/trimesh
v -0.01788689 0.03185726 0.03874037
v -0.01839311 -0.00762528 0.01804584
v -0.01792870 -0.00753523 0.00039480
v -0.01814333 0.01462090 0.00179557
v -0.03837146 0.00638132 0.02779461
v -0.01777448 0.02591063 0.00642686
v -0.03338139 -0.00776255 0.03885303
v -0.03488622 -0.00056106 0.00882513
v -0.01802611 0.01915508 0.00297340
v -0.03007382 0.02328746 0.01750744
v -0.01915193 0.02782090 0.03855614
v -0.03487602 0.01323032 0.03864922
v -0.02744735 -0.01306318 0.02353369
v -0.02702829 0.00181782 0.00316679
v -0.03839075 -0.00742042 0.02433731
v -0.01811355 0.00526306 0.00058641
v -0.03024425 0.01639483 0.00897146
v -0.01781068 0.03280878 0.01510811
v -0.03272166 -0.00795685 0.03791882
v -0.03661571 -0.00756891 0.03913798
v -0.03586167 0.01423650 0.03010762
v -0.02377607 -0.01284444 0.02087341
v -0.03277602 -0.00750694 0.00667475
v -0.02830861 0.00747418 0.00449031
v -0.03841215 0.00059610 0.01729911
v -0.02275476 0.00764038 0.00197498
v -0.02045765 -0.00255175 0.00073016
v -0.02558647 0.01886575 0.00678849
v -0.02224914 0.03130210 0.03019674
v -0.01787448 0.03301097 0.03713076
v -0.02550180 0.02552214 0.01224863
v -0.03730118 0.00515279 0.03870207
v -0.03840426 -0.00743480 0.02785107
v -0.03593016 0.01420041 0.01973199
v -0.02331506 -0.01250462 0.02043824
v -0.03605424 -0.00711774 0.01069254
v -0.02611480 -0.00750092 0.00302821
v -0.03367685 0.00737533 0.00885221
v -0.03260010 0.00173348 0.00654734
v -0.01922742 0.01461617 0.00202709
v -0.02599805 0.00646769 0.00325298
v -0.02043669 0.00052820 0.00086288
v -0.02391992 0.00413462 0.00203689
v -0.02350326 0.01683326 0.00447094
v -0.02331959 0.03012522 0.01866141
v -0.03009588 0.02331956 0.03363675
v -0.01983361 0.03240801 0.01864072
v -0.03111831 0.01985775 0.01331458
v -0.01879967 0.03018005 0.01101669
v -0.02678862 0.02115216 0.00897288
v -0.03704878 0.00972775 0.03471822
v -0.03717846 -0.00740752 0.03806664
v -0.03838200 0.00063185 0.03600248
v -0.03842973 -0.00280666 0.01732031
v -0.03707011 0.01087365 0.03130803
v -0.03827481 0.00519296 0.01852998
v -0.03371999 -0.00753257 0.00764341
v -0.03698854 -0.00704538 0.01400897
v -0.03702171 0.00512332 0.01314699
v -0.02908143 -0.00618336 0.00426448
v -0.02719619 -0.00612047 0.00327552
v -0.03029108 0.01430788 0.00796930
v -0.03146067 0.00739187 0.00676374
v -0.03377168 0.00172256 0.00771504
f 1 2 3
f 6 1 3
f 9 6 3
f 11 2 1
f 11 1 7
f 16 9 3
f 16 4 9
f 19 11 7
f 19 2 11
f 20 7 1
f 20 1 12
f 20 13 7
f 22 2 19
f 22 19 7
f 22 7 13
f 27 16 3
f 30 1 6
f 30 6 18
f 32 20 12
f 33 15 13
f 35 22 3
f 35 3 2
f 35 2 22
f 37 22 13
f 37 13 23
f 37 3 22
f 37 27 3
f 39 24 14
f 40 4 16
f 40 16 26
f 40 9 4
f 41 14 24
f 41 24 26
f 42 26 16
f 42 16 27
f 43 27 14
f 43 42 27
f 43 26 42
f 43 41 26
f 43 14 41
f 44 28 6
f 44 6 9
f 44 9 40
f 44 40 26
f 44 26 24
f 45 10 29
f 45 31 10
f 45 18 31
f 46 29 10
f 46 21 12
f 46 30 29
f 46 12 1
f 46 1 30
f 46 34 21
f 46 10 34
f 47 30 18
f 47 29 30
f 47 45 29
f 47 18 45
f 48 10 31
f 48 34 10
f 49 31 18
f 49 18 6
f 50 28 17
f 50 48 31
f 50 17 48
f 50 6 28
f 50 49 6
f 50 31 49
f 51 32 12
f 51 12 21
f 52 33 13
f 52 13 20
f 52 20 32
f 53 51 5
f 53 32 51
f 53 52 32
f 53 33 52
f 54 15 33
f 54 33 53
f 54 53 5
f 54 5 25
f 55 34 5
f 55 21 34
f 55 51 21
f 55 5 51
f 56 25 5
f 56 5 34
f 57 23 13
f 57 13 36
f 57 36 8
f 57 8 23
f 58 36 13
f 58 13 15
f 58 54 36
f 58 15 54
f 59 8 36
f 59 25 56
f 59 56 34
f 59 34 48
f 59 48 17
f 59 17 38
f 59 54 25
f 59 36 54
f 60 37 23
f 60 39 14
f 60 23 39
f 61 14 27
f 61 27 37
f 61 60 14
f 61 37 60
f 62 38 17
f 62 44 24
f 62 17 28
f 62 28 44
f 63 39 38
f 63 24 39
f 63 62 24
f 63 38 62
f 64 38 39
f 64 59 38
f 64 8 59
f 64 39 23
f 64 23 8

