# https://github.com/mikedh/trimesh
v -0.01610563 -0.02917323 0.03727935
v 0.01990349 -0.03024394 0.01754972
v 0.01841120 -0.01835060 0.02067108
v -0.01461835 -0.01785399 0.00179486
v -0.01553992 -0.02680035 0.00672957
v 0.01790516 -0.01793178 0.00285447
v -0.01617512 -0.01867819 0.01980595
v -0.01509343 -0.02956398 0.03712155
v -0.00621549 -0.01781090 0.00052298
v 0.00633640 -0.02692714 0.00443416
v -0.01650998 -0.02887073 0.03695729
v -0.01595281 -0.01815627 0.00215637
v -0.00748575 -0.02458346 0.00325272
v 0.01782319 -0.02671371 0.00778597
v -0.00627857 -0.02683783 0.00435774
v 0.00392116 -0.02011857 0.00094466
v -0.01225525 -0.02021231 0.00210893
v 0.01086648 -0.02340150 0.00310940
v 0.01779735 -0.02334866 0.00558479
v 0.01546531 -0.02675613 0.00680351
v -0.01195848 -0.02687421 0.00559947
v 0.00639218 -0.01785972 0.00056151
v -0.00150825 -0.02015987 0.00089984
v 0.00752390 -0.02463974 0.00328219
v 0.01777206 -0.01898538 0.00315663
v 0.01312598 -0.02444527 0.00449562
v -0.01086069 -0.02562881 0.00441580
v 0.01108386 -0.02030534 0.00207682
v 0.01663648 -0.02219046 0.00442929
v -0.01102498 -0.02348570 0.00323010
v -0.01557526 -0.02330395 0.00436257
v 0.01312782 -0.02229187 0.00323857
v -0.01559819 -0.02112671 0.00318474
f 6 3 2
f 7 3 4
f 8 2 3
f 8 3 1
f 8 5 2
f 8 1 5
f 9 4 3
f 9 3 6
f 11 1 3
f 11 3 7
f 11 5 1
f 12 7 4
f 12 11 7
f 12 5 11
f 15 10 2
f 17 4 9
f 17 12 4
f 19 6 2
f 19 2 14
f 20 14 2
f 20 2 10
f 20 10 18
f 20 19 14
f 21 15 2
f 21 2 5
f 22 9 6
f 23 22 16
f 23 9 22
f 23 17 9
f 23 13 17
f 23 15 13
f 23 10 15
f 24 18 10
f 24 16 18
f 24 23 16
f 24 10 23
f 25 6 19
f 26 20 18
f 27 13 15
f 27 15 21
f 28 18 16
f 28 16 22
f 28 22 6
f 28 6 25
f 29 25 19
f 29 19 20
f 29 20 26
f 30 17 13
f 30 13 27
f 31 27 21
f 31 21 5
f 31 30 27
f 31 5 12
f 32 29 26
f 32 26 18
f 32 25 29
f 32 28 25
f 32 18 28
f 33 12 17
f 33 17 30
f 33 31 12
f 33 30 31

