# https://github.com/mikedh/trimesh
v -0.00674029 -0.03411856 0.05447829
v -0.00713939 -0.03253635 0.05421804
v -0.03164977 -0.01397947 0.05448866
v -0.02435309 -0.01403455 0.02841232
v -0.00709778 -0.02574941 0.02815906
v -0.02187259 -0.02719504 0.05194407
v -0.00720241 -0.02863248 0.04283050
v -0.02414457 -0.01531154 0.03963377
v -0.01925370 -0.02874390 0.05477892
v -0.02798670 -0.01995696 0.05002562
v -0.00968642 -0.02718592 0.02848298
v -0.00658954 -0.02827002 0.02957942
v -0.02939096 -0.01498535 0.05415877
v -0.02151336 -0.01497984 0.02810553
v -0.00725227 -0.02753587 0.03862824
v -0.01274991 -0.03229656 0.05098604
v -0.01979558 -0.02743873 0.05492534
v -0.02498968 -0.02407083 0.05446310
v -0.03156426 -0.01398547 0.05092680
v -0.02065148 -0.01971081 0.02964343
v -0.00678673 -0.02798046 0.02834043
v -0.00721473 -0.03172287 0.05237963
v -0.01555971 -0.02397289 0.02855965
v -0.00723182 -0.02637442 0.03234398
v -0.02848503 -0.01514744 0.05230007
v -0.01885248 -0.02917032 0.05088861
v -0.01271103 -0.03225547 0.05436458
v -0.01633218 -0.03000777 0.05490666
v -0.02184187 -0.02718591 0.05385908
v -0.02493549 -0.02402907 0.05088716
v -0.02908858 -0.01894023 0.05383652
v -0.02823146 -0.02009889 0.05446819
v -0.03007472 -0.01583699 0.04907949
v -0.02272463 -0.01684793 0.02852265
v -0.00759894 -0.03350654 0.04894567
v -0.01256529 -0.02589665 0.02853016
v -0.01986940 -0.02799256 0.04901526
v -0.00961365 -0.03335719 0.05440309
v -0.01892199 -0.02915608 0.05444484
v -0.01798307 -0.02938579 0.05490024
v -0.02293081 -0.02609400 0.05442404
v -0.02905365 -0.01893807 0.05190194
v -0.03013447 -0.01689603 0.05445340
v -0.03117441 -0.01483876 0.05097903
v -0.02697162 -0.02090811 0.04905243
v -0.01165748 -0.03222093 0.04908185
v -0.00963621 -0.03338993 0.05092700
v -0.00664366 -0.03374993 0.04888812
v -0.01475147 -0.03122828 0.04998706
v -0.01682983 -0.03015466 0.05000180
v -0.02286721 -0.02608085 0.05095698
v -0.03122377 -0.01481572 0.05446550
v -0.03009542 -0.01685884 0.05100185
v -0.02488527 -0.02293234 0.04812071
v -0.02179306 -0.02603529 0.04806754
v -0.01855756 -0.02174599 0.02968526
f 1 2 3
f 7 2 1
f 12 7 1
f 12 5 7
f 13 3 2
f 13 8 3
f 14 4 3
f 14 3 8
f 15 7 5
f 15 14 8
f 18 9 17
f 19 3 4
f 21 5 12
f 21 14 5
f 22 13 2
f 22 2 7
f 22 7 13
f 24 15 5
f 24 5 14
f 24 14 15
f 25 13 7
f 25 7 15
f 25 15 8
f 25 8 13
f 28 1 3
f 28 3 17
f 29 18 6
f 30 6 18
f 32 18 17
f 32 17 3
f 32 30 18
f 33 4 10
f 34 10 4
f 34 23 20
f 34 4 14
f 34 14 23
f 35 11 21
f 36 21 11
f 36 23 14
f 36 14 21
f 37 26 6
f 37 23 36
f 38 27 16
f 38 28 27
f 38 1 28
f 39 26 16
f 39 16 27
f 39 29 6
f 39 6 26
f 40 28 17
f 40 17 9
f 40 27 28
f 40 39 27
f 40 9 39
f 41 9 18
f 41 18 29
f 41 39 9
f 41 29 39
f 42 10 30
f 42 32 31
f 42 30 32
f 43 32 3
f 43 31 32
f 44 19 4
f 44 4 33
f 44 3 19
f 44 42 31
f 45 30 10
f 45 10 34
f 47 16 46
f 47 46 11
f 47 11 35
f 47 38 16
f 47 1 38
f 48 35 21
f 48 21 12
f 48 12 1
f 48 47 35
f 48 1 47
f 49 36 11
f 49 16 26
f 49 46 16
f 49 11 46
f 50 37 36
f 50 26 37
f 50 49 26
f 50 36 49
f 51 37 6
f 51 6 30
f 52 43 3
f 52 31 43
f 52 44 31
f 52 3 44
f 53 44 33
f 53 33 10
f 53 10 42
f 53 42 44
f 54 45 34
f 54 34 20
f 54 20 30
f 54 30 45
f 55 51 30
f 55 30 20
f 55 23 37
f 55 37 51
f 56 55 20
f 56 20 23
f 56 23 55

