# https://github.com/mikedh/trimesh
v 0.02726288 0.00862123 0.02849905
v 0.02833334 -0.00459838 0.02850804
v 0.02382699 0.00458035 0.00956179
v 0.01912449 0.00925003 0.00779362
v 0.02546021 -0.00594879 0.02822278
v 0.02211104 0.00873203 0.00834660
v 0.02814638 0.00156224 0.02643154
v 0.02444181 0.00921692 0.02820137
v 0.02305718 -0.00565359 0.00849878
v 0.02371747 0.00852899 0.01267733
v 0.02827599 0.00455291 0.02852710
v 0.02405629 0.00948886 0.02697978
v 0.02803878 -0.00579137 0.02835279
v 0.02492219 -0.00349389 0.01260683
v 0.02027017 -0.00604466 0.00777451
v 0.02267913 0.00748256 0.00858702
v 0.02596718 0.00864416 0.02217279
v 0.02493744 0.00360611 0.01262606
v 0.01950957 0.00942549 0.00871104
v 0.02813202 -0.00255099 0.02643181
v 0.02385507 -0.00558458 0.01058034
v 0.02599347 -0.00355471 0.01687051
v 0.02374728 -0.00450434 0.00958965
v 0.01976646 0.00730665 0.00749621
v 0.02516894 -0.00615587 0.02700039
v 0.02095583 -0.00620731 0.00974432
v 0.02375383 0.00754055 0.01161244
v 0.02695015 0.00769582 0.02538543
v 0.02706915 0.00863566 0.02742275
v 0.02598294 0.00259211 0.01682219
v 0.02699147 -0.00558117 0.02323381
v 0.02812058 -0.00460162 0.02748499
v 0.02481265 0.00661680 0.01474583
v 0.02270545 0.00851811 0.00963462
v 0.02807100 0.00451025 0.02748332
v 0.02699166 0.00557574 0.02320406
f 5 2 1
f 8 5 1
f 11 1 2
f 11 2 7
f 12 4 5
f 12 5 8
f 12 8 1
f 13 2 5
f 15 5 4
f 16 9 6
f 16 3 9
f 17 10 6
f 17 6 12
f 18 14 3
f 19 12 6
f 19 6 4
f 19 4 12
f 20 7 2
f 21 13 9
f 22 21 14
f 22 7 20
f 22 14 18
f 23 9 3
f 23 3 14
f 23 21 9
f 23 14 21
f 24 15 4
f 24 4 6
f 24 6 9
f 24 9 15
f 25 13 5
f 25 5 15
f 26 15 9
f 26 9 13
f 26 25 15
f 26 13 25
f 27 3 16
f 27 18 3
f 28 1 11
f 29 17 12
f 29 12 1
f 29 28 17
f 29 1 28
f 30 22 18
f 30 7 22
f 31 13 21
f 31 21 22
f 32 22 20
f 32 20 2
f 32 31 22
f 32 2 13
f 32 13 31
f 33 27 10
f 33 10 17
f 33 17 28
f 33 18 27
f 34 27 16
f 34 16 6
f 34 6 10
f 34 10 27
f 35 30 18
f 35 11 7
f 35 7 30
f 36 35 18
f 36 18 33
f 36 33 28
f 36 28 11
f 36 11 35

