# https://github.com/mikedh/trimesh
v -0.03355275 0.00053567 0.05447203
v -0.02253210 -0.01489425 0.03238243
v -0.02725202 0.00053704 0.03335837
v -0.02710286 0.00054949 0.02209659
v -0.03326452 -0.00971509 0.05095355
v -0.02491910 0.00052582 0.02168266
v -0.03449613 0.00057584 0.04894142
v -0.02931028 0.00050638 0.04189372
v -0.02914237 -0.01488563 0.05347975
v -0.02435309 -0.01403455 0.02841232
v -0.03496856 0.00053253 0.05456409
v -0.02660683 -0.00472664 0.02197073
v -0.02595658 -0.01501035 0.04500673
v -0.03110518 -0.01375416 0.04903967
v -0.02189378 -0.01445886 0.02826662
v -0.03448808 -0.00561692 0.05187705
v -0.02982283 -0.01470866 0.05455429
v -0.03441682 -0.00152518 0.04893017
v -0.02378436 -0.01496774 0.03763686
v -0.02507684 -0.01276834 0.02848662
v -0.02440485 -0.00491428 0.02178014
v -0.03434219 -0.00456236 0.04999013
v -0.03332583 -0.00970728 0.05447919
v -0.02694063 -0.00248931 0.02209334
v -0.03329175 -0.00663343 0.04794239
v -0.03437469 -0.00566038 0.05454344
v -0.03226994 -0.01280075 0.05287003
v -0.03164977 -0.01397947 0.05448866
v -0.03225215 -0.01278564 0.05382038
f 6 3 2
f 6 4 3
f 7 1 3
f 7 3 4
f 8 2 3
f 8 3 1
f 10 2 9
f 11 1 7
f 12 4 6
f 13 8 1
f 13 1 9
f 13 9 2
f 14 10 9
f 14 5 12
f 15 6 2
f 15 2 10
f 15 10 12
f 17 9 1
f 17 1 11
f 17 14 9
f 18 7 4
f 18 16 11
f 18 11 7
f 19 13 2
f 19 2 8
f 19 8 13
f 20 14 12
f 20 12 10
f 20 10 14
f 21 15 12
f 21 12 6
f 21 6 15
f 22 5 16
f 22 16 18
f 23 16 5
f 24 18 4
f 24 4 12
f 24 22 18
f 24 12 22
f 25 22 12
f 25 12 5
f 25 5 22
f 26 17 11
f 26 11 16
f 26 16 23
f 27 23 5
f 27 5 14
f 28 26 23
f 28 17 26
f 28 27 14
f 28 14 17
f 29 28 23
f 29 23 27
f 29 27 28

