# https://github.com/mikedh/trimesh
v 0.03496696 0.00050334 0.05453488
v 0.03459271 -0.00571570 0.05446603
v 0.02864610 0.00049408 0.02846701
v 0.02631722 0.00053732 0.02826136
v 0.02265807 -0.01708599 0.03981695
v 0.03353337 0.00052211 0.04573959
v 0.02881820 -0.01685351 0.05455354
v 0.03063264 0.00056092 0.04708656
v 0.02348197 -0.01143818 0.02818533
v 0.03448332 -0.00462337 0.04998609
v 0.03247749 -0.01286940 0.05449592
v 0.02836347 0.00053914 0.03870874
v 0.03346445 0.00052185 0.05443685
v 0.02198694 -0.01657236 0.03574333
v 0.02616722 -0.00167259 0.02806972
v 0.03476047 0.00050542 0.04992384
v 0.03454035 -0.00562612 0.05096835
v 0.02489296 -0.01707183 0.04612989
v 0.02538317 -0.01598152 0.03602969
v 0.02636322 -0.01083242 0.02844793
v 0.03346024 -0.00257824 0.04582397
v 0.03362065 -0.00984632 0.05446913
v 0.03170858 0.00052260 0.05025154
v 0.02714647 -0.01710313 0.05134383
v 0.03027579 -0.01589813 0.04903317
v 0.02814855 -0.00554781 0.02856678
v 0.02389457 -0.01054234 0.02810248
v 0.02921162 -0.00148070 0.03069614
v 0.02813811 -0.01702358 0.05348333
v 0.03083778 -0.01618163 0.05450819
v 0.03225910 -0.01169965 0.04907084
v 0.03332917 -0.00863815 0.04895077
v 0.03237320 -0.01275852 0.05100683
v 0.03339330 -0.00558670 0.04687792
v 0.02690923 -0.00957634 0.02856674
v 0.03118463 -0.01478880 0.05007791
v 0.03152627 -0.01493961 0.05440670
v 0.03350291 -0.00970808 0.05099883
f 6 3 4
f 8 6 4
f 8 1 6
f 11 1 7
f 12 8 4
f 12 5 8
f 13 7 1
f 13 1 8
f 14 4 9
f 14 12 4
f 14 5 12
f 15 9 4
f 15 4 3
f 16 6 1
f 16 3 6
f 17 1 2
f 17 16 1
f 17 10 16
f 19 5 14
f 19 14 9
f 20 19 9
f 21 16 10
f 22 17 2
f 22 2 1
f 22 1 11
f 23 18 13
f 23 13 8
f 23 8 5
f 23 5 18
f 24 18 5
f 24 13 18
f 24 5 19
f 25 24 19
f 25 19 20
f 26 20 15
f 26 15 3
f 27 20 9
f 27 9 15
f 27 15 20
f 28 3 16
f 28 16 21
f 28 26 3
f 28 21 10
f 28 10 26
f 29 7 13
f 29 13 24
f 29 24 25
f 30 11 7
f 30 29 25
f 30 7 29
f 32 10 17
f 33 22 11
f 34 32 26
f 34 26 10
f 34 10 32
f 35 32 31
f 35 31 20
f 35 20 26
f 35 26 32
f 36 30 25
f 36 25 20
f 36 20 31
f 36 31 33
f 37 33 11
f 37 11 30
f 37 36 33
f 37 30 36
f 38 33 31
f 38 31 32
f 38 32 17
f 38 17 22
f 38 22 33

