# https://github.com/mikedh/trimesh
v -0.02570836 -0.00498044 0.02812383
v -0.00457499 -0.02736681 0.02204584
v -0.00473960 -0.01334725 0.00137904
v -0.01503893 -0.00989042 0.00031658
v -0.02194735 -0.01792997 0.02847480
v -0.00549017 -0.02171725 0.00458060
v -0.02269349 -0.00501432 0.01420554
v -0.00495009 -0.02501526 0.02168854
v -0.00779265 -0.02772245 0.02838992
v -0.00449005 -0.02189995 0.00449999
v -0.01552241 -0.01954051 0.01060246
v -0.01327149 -0.01012849 0.00003365
v -0.02471240 -0.00654317 0.01467902
v -0.02724044 -0.00773153 0.02846054
v -0.00839001 -0.02527262 0.02806059
v -0.00546483 -0.02479587 0.01062065
v -0.01345220 -0.01764277 0.00479742
v -0.01555971 -0.02397289 0.02855965
v -0.00475083 -0.01334869 0.00010627
v -0.02511701 -0.00465152 0.01461032
v -0.00857845 -0.01668548 0.00066310
v -0.02155090 -0.01353004 0.01372040
v -0.02787451 -0.00476810 0.02834393
v -0.00453728 -0.02494807 0.01050958
v -0.00844394 -0.02372420 0.01053157
v -0.00733640 -0.02589656 0.01784695
v -0.01751910 -0.02068942 0.02106202
v -0.02392187 -0.01480899 0.02851421
v -0.00968642 -0.02718592 0.02848298
v -0.00457029 -0.01799437 0.00058608
v -0.02082184 -0.00965703 0.00649575
v -0.01055138 -0.01565263 0.00078452
v -0.01040009 -0.01961094 0.00464970
v -0.02372434 -0.00956667 0.01468349
v -0.02604394 -0.00464204 0.01890898
v -0.00459633 -0.02717373 0.02100555
v -0.00644487 -0.02272320 0.00661575
v -0.01248492 -0.02265900 0.01372188
v -0.00739158 -0.02474545 0.01265650
v -0.01757157 -0.02173774 0.02639572
v -0.01853659 -0.01862791 0.01684276
v -0.02609816 -0.01073345 0.02850240
v -0.00650350 -0.01868218 0.00164115
v -0.01772972 -0.00968114 0.00239326
v -0.01643460 -0.01559628 0.00574475
v -0.01442059 -0.01951401 0.00868454
v -0.02689264 -0.00763553 0.02639028
v -0.02151871 -0.01255511 0.01168301
v -0.02708025 -0.00470288 0.02425914
v -0.02585553 -0.00554723 0.01892776
v -0.00553816 -0.02698934 0.02104554
v -0.00640779 -0.02371434 0.00857305
v -0.00842207 -0.02064637 0.00465345
v -0.01551080 -0.02164724 0.01789381
v -0.01157000 -0.02594232 0.02642318
v -0.01045276 -0.02369677 0.01370933
v -0.01950715 -0.01555684 0.01162085
v -0.02255247 -0.01161912 0.01370741
v -0.02472862 -0.01265062 0.02642753
v -0.00645107 -0.02072492 0.00374396
v -0.00559527 -0.01787532 0.00068130
v -0.01675622 -0.00969431 0.00141947
v -0.01938431 -0.01249274 0.00662896
v -0.01439855 -0.01752268 0.00565519
f 7 1 3
f 8 2 3
f 8 3 1
f 9 2 8
f 10 3 2
f 15 9 8
f 15 8 1
f 15 1 9
f 19 12 7
f 19 7 3
f 20 12 4
f 20 7 12
f 20 1 7
f 23 9 1
f 24 10 2
f 28 5 18
f 28 22 5
f 29 14 18
f 29 23 14
f 29 9 23
f 29 26 9
f 30 19 3
f 30 3 10
f 30 21 12
f 30 12 19
f 31 13 20
f 32 4 12
f 32 12 21
f 33 32 21
f 33 17 32
f 34 13 31
f 35 1 20
f 36 24 2
f 36 16 24
f 37 6 10
f 37 10 24
f 37 25 33
f 39 25 16
f 39 16 26
f 40 27 18
f 40 18 5
f 40 5 27
f 41 27 5
f 41 5 22
f 42 28 18
f 42 18 14
f 43 30 10
f 44 31 20
f 46 33 25
f 46 17 33
f 46 11 45
f 46 38 11
f 46 25 38
f 47 13 34
f 47 14 23
f 47 23 35
f 47 42 14
f 47 34 42
f 48 34 31
f 49 35 23
f 49 23 1
f 49 1 35
f 50 35 20
f 50 20 13
f 50 47 35
f 50 13 47
f 51 26 16
f 51 16 36
f 51 9 26
f 51 36 2
f 51 2 9
f 52 37 24
f 52 24 16
f 52 16 25
f 52 25 37
f 53 37 33
f 53 6 37
f 53 33 21
f 53 21 43
f 54 11 38
f 54 41 11
f 54 27 41
f 54 38 18
f 54 18 27
f 55 29 18
f 55 18 38
f 56 38 25
f 56 25 39
f 56 55 38
f 56 39 26
f 56 26 29
f 56 29 55
f 57 41 22
f 57 11 41
f 57 22 48
f 57 45 11
f 58 42 34
f 58 48 22
f 58 34 48
f 59 22 28
f 59 28 42
f 59 58 22
f 59 42 58
f 60 43 10
f 60 10 6
f 60 53 43
f 60 6 53
f 61 43 21
f 61 21 30
f 61 30 43
f 62 44 20
f 62 20 4
f 62 4 32
f 62 45 44
f 62 32 17
f 62 17 45
f 63 31 44
f 63 44 45
f 63 45 57
f 63 57 48
f 63 48 31
f 64 46 45
f 64 45 17
f 64 17 46

