# https://github.com/mikedh/trimesh
v 0.01064602 0.02199877 0.00845734
v 0.01303024 0.01624289 0.00644265
v 0.00655809 0.01771771 0.00058498
v -0.01143858 0.01462983 0.00074804
v -0.01328927 0.00053529 0.00136974
v -0.00456508 0.02412020 0.00835536
v 0.01180573 0.01496479 0.00117037
v 0.01285900 0.01713617 0.00766244
v 0.00913726 0.00053223 0.00011915
v 0.00457821 0.02277425 0.00558285
v -0.00337389 0.01874427 0.00066383
v -0.01294956 0.02032370 0.00825161
v 0.01185233 0.02115835 0.00837712
v 0.01049902 0.01965202 0.00481558
v -0.01326500 0.00053388 0.00016978
v 0.01082027 0.01497065 0.00051528
v 0.00913652 0.00053352 0.00133804
v 0.00464511 0.02411185 0.00835918
v 0.00355992 0.01965404 0.00152565
v -0.00442060 0.02272418 0.00561754
v -0.01358346 0.01688023 0.00781658
v -0.01053077 0.02194413 0.00843214
v 0.01151364 0.01967297 0.00565031
v 0.00861437 0.02075108 0.00481089
v -0.00850439 0.01677487 0.00065426
v 0.01050524 0.01556921 0.00072539
v 0.00459303 0.02376148 0.00755413
v 0.00354504 0.01877789 0.00063801
v -0.00450345 0.02377345 0.00757006
v -0.00142885 0.02070954 0.00264476
v -0.01251520 0.01364240 0.00079236
v -0.00859841 0.02291624 0.00841176
v 0.01053129 0.02165010 0.00776100
v 0.00850225 0.02271345 0.00781192
v 0.00653844 0.02065465 0.00375492
v -0.00543412 0.02178930 0.00466798
v -0.01249091 0.01967498 0.00667526
v 0.01150455 0.01555638 0.00147402
v 0.00156675 0.02070392 0.00259528
v -0.00847931 0.02265260 0.00777920
v 0.00866719 0.02292706 0.00840178
v -0.00652433 0.01778427 0.00071834
v -0.00338911 0.01958133 0.00156071
v -0.01039079 0.01656401 0.00159328
v -0.01037250 0.02165354 0.00769405
v -0.00837716 0.02072821 0.00482590
v -0.00644587 0.01960901 0.00265857
v -0.01040991 0.01960872 0.00487194
v -0.00939280 0.02160216 0.00677736
f 9 7 2
f 13 2 7
f 13 8 2
f 15 11 3
f 15 3 9
f 16 9 3
f 16 7 9
f 17 15 9
f 17 5 15
f 17 9 2
f 17 2 8
f 21 13 12
f 21 8 13
f 21 17 8
f 21 5 17
f 21 15 5
f 22 13 1
f 22 12 13
f 23 13 7
f 24 23 14
f 25 15 4
f 25 11 15
f 26 7 16
f 26 16 3
f 26 24 14
f 26 3 24
f 27 6 18
f 28 19 3
f 28 3 11
f 29 10 20
f 29 27 10
f 29 6 27
f 31 21 12
f 31 4 15
f 31 15 21
f 32 22 1
f 32 6 29
f 32 18 6
f 32 1 18
f 33 1 13
f 33 13 23
f 33 23 24
f 34 24 10
f 34 33 24
f 34 1 33
f 34 10 27
f 34 27 18
f 35 19 10
f 35 10 24
f 35 24 3
f 35 3 19
f 37 31 12
f 38 23 7
f 38 7 26
f 38 26 14
f 38 14 23
f 39 28 11
f 39 19 28
f 39 11 30
f 39 10 19
f 39 30 20
f 39 20 10
f 40 32 29
f 40 29 20
f 40 20 36
f 41 34 18
f 41 18 1
f 41 1 34
f 42 11 25
f 43 30 11
f 43 11 42
f 43 36 20
f 43 20 30
f 44 25 4
f 44 4 31
f 44 31 37
f 45 37 12
f 45 12 22
f 45 22 32
f 45 32 40
f 46 42 25
f 46 40 36
f 47 43 42
f 47 36 43
f 47 46 36
f 47 42 46
f 48 46 25
f 48 25 44
f 48 44 37
f 49 45 40
f 49 40 46
f 49 46 48
f 49 48 37
f 49 37 45

