# https://github.com/mikedh/trimesh
v 0.03083778 -0.01618163 0.05450819
v 0.03044567 -0.01702600 0.05440586
v 0.02636322 -0.01083242 0.02844793
v 0.00167647 -0.02666955 0.02820364
v 0.00691999 -0.03428848 0.05466687
v 0.02487292 -0.01159417 0.03557556
v 0.03074196 -0.01613856 0.05089430
v 0.01898745 -0.02918206 0.05447402
v 0.02794879 -0.01101872 0.03587493
v 0.02348197 -0.01143818 0.02818533
v 0.00723062 -0.03266671 0.05426306
v 0.02716585 -0.02197332 0.05440176
v 0.01504657 -0.02502077 0.02842363
v 0.02748092 -0.01080954 0.03380156
v 0.02841556 -0.01718987 0.05424040
v 0.00168808 -0.02798265 0.03560491
v 0.02927620 -0.01903298 0.05441094
v 0.02310975 -0.02609454 0.05441658
v 0.01078341 -0.03338923 0.05094869
v 0.01966568 -0.02086997 0.02857975
v 0.00169839 -0.02734628 0.03232094
v 0.00165868 -0.03030782 0.03577913
v 0.02715822 -0.02199544 0.05192677
v 0.03033389 -0.01692774 0.05096358
v 0.02314896 -0.02599887 0.05094245
v 0.01083040 -0.03340585 0.05435360
v 0.00155378 -0.02921576 0.03065842
v 0.02915422 -0.01894703 0.05097815
v 0.02490809 -0.01368852 0.02854613
v 0.02412256 -0.02490677 0.05009126
v 0.01686701 -0.03012423 0.05001524
v 0.00162676 -0.02878670 0.02837309
v 0.02717560 -0.02096162 0.04910774
v 0.02599683 -0.01165772 0.02852291
v 0.02917643 -0.01792302 0.04907054
v 0.02289877 -0.01678420 0.02858319
v 0.01876712 -0.02177546 0.02855808
v 0.02503084 -0.02398434 0.05008971
v 0.01281477 -0.03232955 0.05002502
v 0.01898607 -0.02910012 0.05099967
v 0.00671936 -0.02810524 0.02849622
v 0.00675035 -0.03357497 0.04791459
v 0.01287401 -0.02592782 0.02848832
v 0.02098797 -0.02706765 0.04904659
v 0.00769559 -0.03338306 0.04799217
f 7 1 2
f 8 1 5
f 9 6 1
f 9 7 3
f 9 1 7
f 10 4 6
f 11 5 1
f 13 10 3
f 13 4 10
f 14 9 3
f 14 6 9
f 14 10 6
f 14 3 10
f 15 11 1
f 15 1 6
f 16 5 11
f 16 15 6
f 16 11 15
f 17 2 1
f 17 1 12
f 18 12 1
f 18 1 8
f 21 16 6
f 21 6 4
f 21 4 16
f 22 5 16
f 23 17 12
f 23 12 18
f 24 7 2
f 24 2 17
f 25 18 8
f 25 23 18
f 26 8 5
f 26 5 19
f 27 22 16
f 27 16 4
f 28 24 17
f 28 17 23
f 29 7 24
f 30 25 13
f 32 27 4
f 32 4 13
f 32 22 27
f 33 28 23
f 34 29 3
f 34 3 7
f 34 7 29
f 35 29 24
f 35 24 28
f 36 3 29
f 36 13 3
f 36 33 20
f 36 29 35
f 36 35 28
f 36 28 33
f 37 30 13
f 37 36 20
f 37 13 36
f 38 23 25
f 38 25 30
f 38 33 23
f 38 20 33
f 38 37 20
f 38 30 37
f 39 13 31
f 39 26 19
f 39 8 26
f 40 31 13
f 40 25 8
f 40 39 31
f 40 8 39
f 41 32 13
f 42 19 5
f 42 5 22
f 42 22 32
f 42 32 41
f 43 39 19
f 43 13 39
f 43 41 13
f 43 19 41
f 44 40 13
f 44 13 25
f 44 25 40
f 45 42 41
f 45 41 19
f 45 19 42

