# https://github.com/mikedh/trimesh
v 0.01889393 0.01481938 0.00853581
v 0.02323407 -0.00462377 0.00841329
v 0.01774993 0.00344057 0.00069479
v -0.01326500 0.00053388 0.00016978
v -0.00450328 -0.02418382 0.00839971
v 0.00902865 0.01532700 0.00021918
v 0.02312820 0.00564265 0.00838112
v 0.01896546 -0.01472141 0.00850423
v -0.01328927 0.00053529 0.00136974
v 0.00157535 -0.01893932 0.00072439
v 0.01661265 0.00953300 0.00160351
v 0.02206697 -0.00866716 0.00852059
v 0.02080332 0.00136581 0.00363633
v 0.01480864 -0.01889374 0.00849263
v 0.01396880 0.01613860 0.00759040
v -0.01369763 -0.01278656 0.00311239
v 0.00952181 0.01603718 0.00308600
v 0.01491610 -0.00962227 0.00078858
v -0.00457029 -0.01799437 0.00058608
v 0.01147776 0.01467243 0.00066910
v 0.02064578 0.00853492 0.00569777
v 0.02177668 0.00459147 0.00562135
v 0.00652309 -0.02286059 0.00664192
v -0.01341333 -0.01351121 0.00355900
v 0.01131284 -0.01558052 0.00163036
v 0.01776912 -0.00441875 0.00077362
v 0.00852823 -0.01673404 0.00075061
v -0.01285907 -0.01293482 0.00039540
v -0.00138379 -0.02175200 0.00355791
v 0.01452749 0.01256331 0.00164802
v 0.01675352 0.00666751 0.00065573
v 0.01855104 0.01253910 0.00583771
v 0.02211104 0.00873203 0.00834660
v 0.02165641 0.00752388 0.00666696
v 0.01961947 0.00344730 0.00260475
v 0.00469937 -0.02415447 0.00838437
v 0.01657745 -0.01251972 0.00377336
v 0.01965907 -0.00351298 0.00248278
v 0.01164507 -0.01382423 0.00075513
v 0.00660678 -0.02076368 0.00374782
v -0.00442056 -0.02272222 0.00565146
v -0.00141248 -0.01885376 0.00071687
v 0.01857117 0.01457594 0.00772344
v 0.01484424 0.01071203 0.00082166
v 0.01756970 0.00754586 0.00161122
v 0.01860656 0.00949717 0.00379950
v 0.02276464 0.00555515 0.00765790
v 0.02179464 0.00865471 0.00760903
v 0.00775454 -0.02321964 0.00835809
v 0.00460657 -0.02274909 0.00565828
v 0.00463983 -0.02380697 0.00756375
v 0.01868135 -0.01357621 0.00682924
v 0.01561126 -0.01055987 0.00169334
v 0.02076982 -0.00148065 0.00358756
v 0.02168374 -0.00449476 0.00557525
v 0.01970357 -0.00649575 0.00360771
v 0.00359131 -0.01975959 0.00166162
v 0.01154220 -0.02079257 0.00757941
v -0.00336957 -0.02067598 0.00271092
v -0.00448205 -0.02379778 0.00757646
v 0.01254627 0.01369697 0.00079387
v 0.01963405 0.00657978 0.00365573
v 0.01178555 -0.02109216 0.00842469
v 0.01867205 -0.01448748 0.00776442
f 12 7 1
f 12 2 7
f 14 1 5
f 14 12 1
f 14 8 12
f 15 9 5
f 15 5 1
f 16 9 4
f 17 6 4
f 17 4 9
f 17 15 6
f 17 9 15
f 19 4 6
f 20 15 1
f 20 6 15
f 22 7 2
f 22 2 13
f 24 5 9
f 24 9 16
f 26 6 3
f 27 10 19
f 27 19 6
f 28 16 4
f 28 4 19
f 28 24 16
f 28 5 24
f 31 3 6
f 32 11 30
f 33 1 7
f 34 22 21
f 35 22 13
f 35 13 3
f 36 14 5
f 38 26 3
f 38 3 13
f 39 26 18
f 39 6 26
f 39 27 6
f 39 25 27
f 42 19 10
f 42 10 29
f 43 30 20
f 43 20 1
f 43 32 30
f 44 30 11
f 44 11 31
f 44 31 6
f 44 6 20
f 45 31 11
f 45 35 3
f 45 3 31
f 46 32 21
f 46 11 32
f 46 45 11
f 46 21 45
f 47 34 7
f 47 7 22
f 47 22 34
f 48 33 7
f 48 7 34
f 48 34 21
f 48 21 32
f 48 32 43
f 48 43 1
f 48 1 33
f 49 36 23
f 50 40 23
f 51 36 5
f 51 29 50
f 51 50 23
f 51 23 36
f 52 14 25
f 52 25 37
f 52 12 8
f 53 18 26
f 53 39 18
f 53 37 25
f 53 25 39
f 54 38 13
f 54 13 2
f 55 2 12
f 55 54 2
f 55 38 54
f 56 26 38
f 56 53 26
f 56 37 53
f 56 52 37
f 56 38 55
f 56 55 12
f 56 12 52
f 57 10 27
f 57 27 40
f 57 40 50
f 57 50 29
f 57 29 10
f 58 23 40
f 58 49 23
f 58 25 14
f 58 40 27
f 58 27 25
f 59 41 28
f 59 28 19
f 59 29 41
f 59 42 29
f 59 19 42
f 60 5 28
f 60 28 41
f 60 41 29
f 60 51 5
f 60 29 51
f 61 44 20
f 61 20 30
f 61 30 44
f 62 45 21
f 62 21 22
f 62 22 35
f 62 35 45
f 63 14 36
f 63 36 49
f 63 58 14
f 63 49 58
f 64 52 8
f 64 8 14
f 64 14 52

