# https://github.com/mikedh/trimesh
v 0.02803878 -0.00579137 0.02835279
v 0.02727252 -0.00866658 0.02851278
v 0.02287645 -0.00660598 0.00859021
v 0.01966439 -0.00729931 0.00754103
v 0.00886060 -0.02753812 0.02839128
v 0.02027017 -0.00604466 0.00777451
v 0.02483779 -0.00659717 0.01472778
v 0.01763384 -0.01970766 0.01688884
v 0.02305718 -0.00565359 0.00849878
v 0.02536300 -0.00619175 0.02803540
v 0.00964098 -0.02186991 0.01409874
v 0.02597332 -0.00857824 0.02214517
v 0.02203458 -0.01793117 0.02848388
v 0.02061152 -0.01462828 0.01274372
v 0.02721768 -0.00559101 0.02429108
v 0.01963496 -0.01376552 0.00852690
v 0.02371157 -0.00761332 0.01166841
v 0.00951278 -0.02498360 0.02810764
v 0.01234617 -0.01761903 0.00799931
v 0.00901793 -0.02479812 0.01448620
v 0.02698496 -0.00662990 0.02429855
v 0.00972820 -0.02717592 0.02841274
v 0.02072762 -0.01761975 0.02112412
v 0.02504907 -0.00566093 0.01470208
v 0.01878871 -0.01663965 0.01164551
v 0.02372077 -0.00854592 0.01267532
v 0.00874526 -0.02721855 0.02634782
v 0.01277662 -0.01704309 0.00766909
v 0.01694964 -0.01688243 0.00851649
v 0.02482370 -0.00757489 0.01579961
v 0.01504657 -0.02502077 0.02842363
v 0.02419573 -0.01490618 0.02846763
v 0.01962239 -0.01561979 0.01169881
v 0.01964359 -0.01756318 0.01689745
v 0.02376814 -0.01160146 0.01794385
v 0.02271269 -0.01158237 0.01369085
v 0.02270300 -0.00849040 0.00960916
v 0.00875616 -0.02519871 0.01570175
v 0.01775617 -0.01672568 0.00959531
v 0.01266808 -0.02285510 0.01473265
v 0.01762599 -0.02179488 0.02432466
v 0.00969076 -0.02688325 0.02641002
v 0.02170629 -0.01667517 0.02218390
v 0.01953113 -0.01459100 0.00956306
v 0.02587791 -0.01056911 0.02540766
v 0.02169160 -0.01565182 0.01903271
v 0.02175830 -0.00960222 0.00868906
v 0.02169499 -0.01154844 0.01064443
v 0.00959471 -0.02484391 0.01579441
v 0.01568389 -0.02070568 0.01472738
v 0.01070029 -0.02403734 0.01468983
v 0.02076747 -0.01870833 0.02528745
v 0.01860630 -0.02078746 0.02428549
v 0.02174668 -0.01776981 0.02638273
v 0.02486469 -0.01260157 0.02541557
v 0.02269938 -0.01258619 0.01582282
v 0.02267961 -0.00949512 0.01068469
v 0.01500128 -0.02486633 0.02770002
v 0.01666672 -0.02172290 0.02117420
v 0.02391079 -0.01466197 0.02638499
v 0.01162644 -0.02382010 0.01581074
f 5 2 1
f 9 4 6
f 10 5 1
f 15 9 6
f 15 10 1
f 15 6 10
f 16 9 3
f 16 4 9
f 17 3 9
f 18 10 6
f 18 5 10
f 18 6 11
f 19 11 6
f 20 11 19
f 21 1 2
f 21 2 12
f 21 15 1
f 22 13 2
f 22 2 5
f 24 9 15
f 24 17 9
f 24 7 17
f 24 21 7
f 24 15 21
f 26 17 7
f 27 18 11
f 27 5 18
f 28 19 6
f 28 6 4
f 28 4 16
f 29 20 19
f 29 28 16
f 29 19 28
f 30 21 12
f 30 7 21
f 30 26 7
f 30 12 26
f 31 13 22
f 31 22 5
f 32 2 13
f 34 23 8
f 34 8 25
f 34 25 33
f 35 26 12
f 36 26 35
f 37 3 17
f 37 17 26
f 38 27 11
f 38 11 20
f 39 29 16
f 41 13 31
f 42 31 5
f 42 5 27
f 42 38 31
f 42 27 38
f 44 33 25
f 44 14 33
f 44 39 16
f 44 25 39
f 45 35 12
f 45 12 2
f 45 2 32
f 46 33 14
f 46 34 33
f 46 43 23
f 46 23 34
f 47 16 3
f 47 3 37
f 48 47 37
f 48 16 47
f 48 44 16
f 48 36 14
f 48 14 44
f 49 38 20
f 49 31 38
f 50 39 25
f 50 25 8
f 50 40 29
f 50 29 39
f 51 20 29
f 51 29 40
f 51 49 20
f 51 31 49
f 52 23 43
f 53 41 8
f 53 8 23
f 53 23 52
f 53 52 13
f 53 13 41
f 54 43 32
f 54 32 13
f 54 52 43
f 54 13 52
f 55 45 32
f 55 35 45
f 56 36 35
f 56 35 46
f 56 46 14
f 56 14 36
f 57 48 37
f 57 37 26
f 57 26 36
f 57 36 48
f 58 40 50
f 58 41 31
f 59 50 8
f 59 8 41
f 59 58 50
f 59 41 58
f 60 46 35
f 60 35 55
f 60 55 32
f 60 32 43
f 60 43 46
f 61 51 40
f 61 40 58
f 61 58 31
f 61 31 51

