# https://github.com/mikedh/trimesh
v 0.02977205 0.01819782 0.05440853
v 0.02930114 0.01895276 0.05434196
v -0.00159901 0.03349187 0.05447596
v -0.00147258 0.02865915 0.02840416
v 0.02167611 0.01843955 0.02835098
v -0.00154582 0.02632756 0.02824999
v 0.01084315 0.03345413 0.05437592
v 0.02956553 0.01815698 0.04989857
v -0.00158098 0.02942642 0.04183805
v -0.00164687 0.03158578 0.04925347
v 0.01739436 0.01957790 0.02808618
v 0.01908146 0.02930278 0.05428574
v -0.00144544 0.03496426 0.05454116
v 0.00966135 0.02695976 0.02855598
v 0.02231441 0.01806163 0.02954163
v -0.00159870 0.02734624 0.03336890
v -0.00149231 0.03457625 0.04887785
v -0.00161306 0.03267312 0.05238123
v 0.01986072 0.01988015 0.03858098
v 0.02608468 0.02298472 0.05004724
v 0.00679851 0.03442709 0.05445951
v 0.00569500 0.02816802 0.02852244
v 0.01570065 0.02382068 0.02856689
v 0.01591660 0.03017412 0.04794303
v 0.02722943 0.02189540 0.05409333
v 0.02812345 0.01989065 0.04902241
v 0.00679600 0.03446015 0.05089242
v 0.00364777 0.03447171 0.04892782
v 0.02303413 0.02600072 0.05003898
v 0.01391937 0.03234468 0.05286397
v 0.01277446 0.02580793 0.02964287
v 0.02713995 0.02198439 0.05094385
v 0.01073870 0.03330560 0.05103680
v 0.00573625 0.03445437 0.04988263
v 0.02116576 0.01905831 0.02848694
v 0.01904812 0.02912349 0.05000840
v 0.02314625 0.02600821 0.05406212
v 0.01393867 0.03234606 0.05373696
v 0.02913424 0.01885876 0.04997349
v 0.02200622 0.02712696 0.05094694
v 0.01294833 0.03218960 0.05028593
v 0.02087214 0.02700563 0.04810428
v 0.02190366 0.02714945 0.05372522
f 8 2 1
f 10 9 1
f 11 6 4
f 12 7 1
f 12 1 2
f 13 3 1
f 15 8 1
f 15 5 8
f 15 11 5
f 15 1 11
f 16 6 1
f 16 1 9
f 16 9 10
f 16 10 4
f 16 4 6
f 17 10 3
f 17 4 10
f 17 3 13
f 18 10 1
f 18 1 3
f 18 3 10
f 19 11 1
f 19 1 6
f 19 6 11
f 21 13 1
f 21 1 7
f 22 14 11
f 22 11 4
f 23 5 11
f 23 11 14
f 25 12 2
f 26 8 5
f 26 5 20
f 27 13 21
f 27 21 7
f 28 22 4
f 28 4 17
f 28 17 13
f 31 23 14
f 31 14 24
f 32 25 2
f 32 26 20
f 33 14 22
f 33 22 27
f 33 27 7
f 33 7 30
f 34 27 22
f 34 22 28
f 34 28 13
f 34 13 27
f 35 29 20
f 35 20 5
f 35 5 23
f 35 23 29
f 36 30 12
f 36 24 30
f 36 31 24
f 36 23 31
f 37 12 25
f 37 25 32
f 38 30 7
f 38 7 12
f 38 12 30
f 39 32 2
f 39 2 8
f 39 8 26
f 39 26 32
f 40 32 20
f 40 20 29
f 40 37 32
f 40 36 12
f 40 29 36
f 41 33 30
f 41 30 24
f 41 24 14
f 41 14 33
f 42 36 29
f 42 29 23
f 42 23 36
f 43 40 12
f 43 12 37
f 43 37 40

