# https://github.com/mikedh/trimesh
v -0.01617466 0.03084752 0.05451551
v -0.01725145 0.02852390 0.05434137
v -0.02620300 0.00053485 0.02826066
v -0.01604182 0.02333428 0.02842117
v -0.03220138 0.01383284 0.05092072
v -0.01741227 0.02099326 0.03436209
v -0.03458377 0.00564212 0.05441786
v -0.02602023 0.02296359 0.04910924
v -0.02587346 0.01168952 0.02859104
v -0.01726871 0.01958296 0.02806389
v -0.01731645 0.02425665 0.04379380
v -0.03355275 0.00053567 0.05447203
v -0.02906265 0.02000221 0.05441028
v -0.01892952 0.02913718 0.05000762
v -0.03436536 0.00566032 0.04990833
v -0.02286950 0.01684537 0.02853903
v -0.02707343 0.00867427 0.02854886
v -0.02931028 0.00050638 0.04189372
v -0.03225421 0.01391884 0.05446383
v -0.02908724 0.01996909 0.05195514
v -0.01606017 0.03066239 0.04985058
v -0.02289393 0.02596551 0.04916202
v -0.03328846 0.01080091 0.05092900
v -0.03496856 0.00053253 0.05456409
v -0.02079460 0.01962087 0.02965318
v -0.02829985 0.00051060 0.02848108
v -0.03212784 0.01273592 0.04905596
v -0.02725202 0.00053704 0.03335837
v -0.02097380 0.02828376 0.05445573
v -0.02800451 0.02094079 0.05005235
v -0.01592854 0.02843425 0.04356790
v -0.01783422 0.02907639 0.04797525
v -0.02098034 0.02809125 0.05101958
v -0.03439309 0.00667783 0.05094731
v -0.03323040 0.00661389 0.04691420
v -0.03328864 0.01083775 0.05444520
v -0.02166051 0.01875385 0.02965989
v -0.01667570 0.02291103 0.02851880
v -0.02796383 0.00462798 0.02854805
v -0.03449613 0.00057584 0.04894142
v -0.03109706 0.01581760 0.05008021
v -0.03212340 0.01071568 0.04697825
v -0.01691567 0.03025722 0.04997110
v -0.03445476 0.00667530 0.05377197
v -0.03437042 0.00360028 0.04900222
v -0.02902335 0.01883891 0.04914143
v -0.01700248 0.03045176 0.05446150
v -0.02480349 0.01366718 0.02860313
f 6 4 1
f 10 6 3
f 10 4 6
f 11 6 1
f 11 1 2
f 11 2 3
f 11 3 6
f 12 2 1
f 16 4 10
f 17 10 3
f 17 16 10
f 17 9 16
f 18 2 12
f 20 19 13
f 20 5 19
f 23 19 5
f 24 12 1
f 24 1 19
f 24 18 12
f 25 8 22
f 26 17 3
f 26 3 18
f 26 18 24
f 27 9 17
f 27 23 5
f 28 18 3
f 28 3 2
f 28 2 18
f 29 19 1
f 29 13 19
f 29 20 13
f 29 8 20
f 30 20 8
f 30 8 16
f 31 21 1
f 31 1 4
f 31 4 21
f 32 4 14
f 33 14 4
f 33 22 8
f 33 8 29
f 34 23 15
f 34 24 7
f 34 15 24
f 35 15 23
f 36 19 23
f 36 24 19
f 36 7 24
f 37 25 16
f 37 16 8
f 37 8 25
f 38 4 16
f 38 16 25
f 38 25 22
f 38 33 4
f 38 22 33
f 39 17 26
f 39 35 17
f 39 15 35
f 40 26 24
f 40 24 15
f 41 27 5
f 41 9 27
f 41 5 20
f 41 20 30
f 42 27 17
f 42 23 27
f 42 35 23
f 42 17 35
f 43 33 29
f 43 14 33
f 43 32 14
f 43 21 4
f 43 4 32
f 44 34 7
f 44 7 36
f 44 36 23
f 44 23 34
f 45 39 26
f 45 15 39
f 45 40 15
f 45 26 40
f 46 41 30
f 46 30 16
f 47 43 29
f 47 29 1
f 47 1 21
f 47 21 43
f 48 46 16
f 48 16 9
f 48 9 41
f 48 41 46

