# https://github.com/mikedh/trimesh
v 0.02977205 0.01819782 0.05440853
v 0.03496696 0.00050334 0.05453488
v 0.02806213 0.00556639 0.02858085
v 0.01801979 0.01903838 0.02820300
v 0.02157013 0.01934134 0.04186016
v 0.02631722 0.00053732 0.02826136
v 0.02216637 0.01792777 0.02849581
v 0.03350708 0.00974135 0.05090737
v 0.02705738 0.01925764 0.05334895
v 0.02864610 0.00049408 0.02846701
v 0.02836347 0.00053914 0.03870874
v 0.02620651 0.00170363 0.02805762
v 0.03358674 0.00978422 0.05441031
v 0.03028620 0.01691004 0.05003024
v 0.03346445 0.00052185 0.05443685
v 0.02933783 0.01801292 0.04899576
v 0.01825191 0.01928151 0.03028329
v 0.03476047 0.00050542 0.04992384
v 0.02939417 0.00047486 0.03170426
v 0.01855447 0.01846965 0.02807706
v 0.02602660 0.01172596 0.02853240
v 0.03436672 0.00367577 0.05492629
v 0.03456182 0.00566085 0.05096147
v 0.03245743 0.01279957 0.05097838
v 0.02488127 0.01928345 0.04925081
v 0.02789548 0.01904507 0.05434594
v 0.03063264 0.00056092 0.04708656
v 0.03170858 0.00052260 0.05025154
v 0.02379648 0.01568791 0.02856026
v 0.03335969 0.00869669 0.04910317
v 0.03246170 0.01281049 0.05447685
v 0.03462220 0.00562172 0.05446791
v 0.03404813 0.00055780 0.05493051
v 0.03451388 0.00462019 0.05000044
v 0.03127932 0.01489744 0.05003248
v 0.03046365 0.01701048 0.05444742
v 0.03386696 0.00374794 0.05493648
v 0.02047745 0.01932489 0.03873737
v 0.03229553 0.01170987 0.04910505
v 0.03448859 0.00053340 0.05492788
f 12 6 4
f 12 10 6
f 12 3 10
f 16 7 9
f 16 1 14
f 17 9 7
f 17 7 4
f 17 5 9
f 17 4 6
f 17 6 11
f 19 11 6
f 19 6 10
f 19 18 2
f 19 10 18
f 20 12 4
f 20 4 7
f 21 3 12
f 21 16 14
f 21 20 7
f 21 12 20
f 23 8 13
f 23 2 18
f 24 13 8
f 25 15 9
f 25 9 5
f 25 5 15
f 26 9 15
f 26 16 9
f 26 1 16
f 28 11 19
f 28 27 11
f 28 15 5
f 28 19 2
f 28 2 15
f 29 21 7
f 29 7 16
f 29 16 21
f 30 3 21
f 30 8 23
f 30 24 8
f 31 22 13
f 31 13 24
f 32 22 2
f 32 13 22
f 32 23 13
f 32 2 23
f 33 26 15
f 34 23 18
f 34 18 10
f 34 10 3
f 34 30 23
f 34 3 30
f 35 24 21
f 35 21 14
f 35 14 24
f 36 24 14
f 36 14 1
f 36 31 24
f 36 22 31
f 37 1 26
f 37 36 1
f 37 22 36
f 37 26 33
f 38 17 11
f 38 11 27
f 38 5 17
f 38 28 5
f 38 27 28
f 39 30 21
f 39 21 24
f 39 24 30
f 40 33 15
f 40 15 2
f 40 2 22
f 40 37 33
f 40 22 37

