# https://github.com/mikedh/trimesh
v -0.00144544 0.03496426 0.05454116
v -0.00159901 0.03349187 0.05447596
v 0.00169845 0.02222264 0.00783030
v -0.01289804 0.01734022 0.00757026
v -0.01683640 0.02887512 0.05449934
v -0.01706794 0.02159460 0.03555998
v -0.00849126 0.02367737 0.01056749
v 0.00167953 0.02633042 0.02824965
v -0.01358346 0.01688023 0.00781658
v -0.01705352 0.02489400 0.04501818
v 0.00156095 0.02496209 0.00950333
v -0.00643817 0.02372248 0.00851181
v -0.01268989 0.03221638 0.05002283
v -0.00158351 0.03061479 0.04601619
v -0.01706939 0.02048243 0.03133349
v -0.01254543 0.02071943 0.00850314
v -0.00161306 0.03267312 0.05238123
v -0.01696966 0.02823841 0.05341198
v 0.00182131 0.02293777 0.00985208
v 0.00163005 0.02867460 0.02841024
v 0.00162341 0.02446511 0.00827138
v -0.00454070 0.03446506 0.04989536
v -0.01279290 0.03236114 0.05445139
v -0.00942522 0.02260910 0.00851148
v -0.01582803 0.03013344 0.04798394
v -0.01604182 0.02333428 0.02842117
v 0.00173568 0.02611353 0.02703580
v -0.00149231 0.03457625 0.04887785
v -0.00247697 0.02487646 0.00950007
v 0.00159331 0.02605331 0.01359482
v -0.00966624 0.03329782 0.04990869
v -0.01617466 0.03084752 0.05451551
v -0.01244784 0.02158756 0.01055724
v -0.01482371 0.03126731 0.04995506
v -0.01382405 0.01716743 0.00872334
v -0.00340364 0.02590891 0.01362301
v -0.00557012 0.03441574 0.05446621
v -0.01490019 0.03148314 0.05447408
v -0.01674095 0.02006198 0.02820770
v -0.00248041 0.03449106 0.04888834
v -0.00764340 0.03332247 0.04792009
v -0.00447653 0.02484555 0.01051867
v -0.00966607 0.03347331 0.05446024
v -0.00560050 0.03447327 0.05088458
f 5 2 1
f 8 1 2
f 9 4 3
f 9 3 8
f 14 6 8
f 15 9 8
f 15 8 6
f 15 6 10
f 16 4 9
f 17 10 6
f 17 2 10
f 17 6 14
f 17 14 8
f 17 8 2
f 18 10 2
f 18 2 5
f 18 15 10
f 20 1 8
f 21 3 4
f 21 4 12
f 21 19 3
f 24 12 4
f 24 4 16
f 24 7 12
f 26 15 18
f 26 18 25
f 27 8 3
f 27 3 19
f 27 20 8
f 27 19 20
f 28 1 20
f 29 21 12
f 29 11 21
f 30 20 19
f 30 19 21
f 30 21 11
f 30 28 20
f 30 11 29
f 31 7 13
f 31 13 23
f 32 5 1
f 32 25 18
f 32 18 5
f 33 24 16
f 33 26 25
f 33 16 26
f 33 7 24
f 34 13 7
f 34 33 25
f 34 7 33
f 34 25 32
f 35 26 16
f 35 16 9
f 36 30 29
f 36 28 30
f 38 34 32
f 38 32 23
f 38 23 13
f 38 13 34
f 39 35 9
f 39 9 15
f 39 15 26
f 39 26 35
f 40 36 22
f 40 22 28
f 40 28 36
f 41 36 31
f 41 22 36
f 42 36 29
f 42 29 12
f 42 12 7
f 42 7 31
f 42 31 36
f 43 31 23
f 43 23 32
f 43 32 1
f 43 1 37
f 44 37 1
f 44 43 37
f 44 31 43
f 44 41 31
f 44 22 41
f 44 28 22
f 44 1 28

