# https://github.com/mikedh/trimesh
v 0.02019291 0.02004510 0.02846736
v 0.02708690 0.00900578 0.02831493
v 0.01976333 0.01363792 0.00858074
v 0.01217111 0.01528748 0.00178887
v 0.00174785 0.02629384 0.02807157
v 0.02211104 0.00873203 0.00834660
v 0.00958346 0.02257763 0.00852936
v 0.02382163 0.01463005 0.02539594
v 0.00163005 0.02867460 0.02841024
v 0.01293447 0.01494641 0.00212901
v 0.01912449 0.00925003 0.00779362
v 0.01552202 0.02062708 0.01374215
v 0.02498413 0.01375790 0.02852349
v 0.02267933 0.01163854 0.01366413
v 0.00169845 0.02222264 0.00783030
v 0.02179790 0.00968115 0.00846540
v 0.01553643 0.01856234 0.00874325
v 0.02637575 0.00873948 0.02420917
v 0.02425575 0.00956910 0.02800153
v 0.02070357 0.01654052 0.01793088
v 0.01183158 0.02600297 0.02849595
v 0.02302995 0.01685205 0.02853286
v 0.02638269 0.01083669 0.02843633
v 0.02379494 0.01262235 0.02004898
v 0.00156095 0.02496209 0.00950333
v 0.02301136 0.00864930 0.01053358
v 0.02161948 0.01256954 0.01173267
v 0.01770102 0.01561775 0.00767842
v 0.01355504 0.02061232 0.00969566
v 0.01253700 0.01961352 0.00664305
v 0.01754438 0.01757172 0.01067242
v 0.01858789 0.01760473 0.01371739
v 0.01691226 0.02294589 0.02852571
v 0.01265174 0.02378718 0.01894523
v 0.02183158 0.01770833 0.02645101
v 0.02174642 0.01556475 0.01899353
v 0.02588350 0.01064217 0.02536599
v 0.02482059 0.01368342 0.02748865
v 0.00162341 0.02446511 0.00827138
v 0.00857397 0.02478960 0.01465954
v 0.00160972 0.02829054 0.02635698
v 0.02488838 0.00964332 0.01900498
v 0.02269933 0.00958154 0.01068808
v 0.02273240 0.01361341 0.01793666
v 0.01544563 0.01962729 0.01063069
v 0.01258062 0.01568941 0.00253206
v 0.01185477 0.01597989 0.00219878
v 0.01346835 0.01959266 0.00773167
v 0.01760870 0.01650703 0.00870773
v 0.01561265 0.02173935 0.01790524
v 0.01956105 0.01561947 0.01161969
v 0.00569500 0.02816802 0.02852244
v 0.01148984 0.02261842 0.01163446
v 0.01377604 0.02505528 0.02848936
v 0.02605244 0.00965399 0.02427290
v 0.00666804 0.02369307 0.00853594
v 0.00962474 0.02474970 0.01680151
v 0.02517181 0.00872825 0.01890847
v 0.02376534 0.01164855 0.01795904
v 0.02164259 0.01357675 0.01375088
v 0.01767853 0.02184610 0.02640928
v 0.01960635 0.01453968 0.00960512
v 0.00866215 0.02694006 0.02641397
v 0.00265665 0.02598988 0.01360865
f 9 5 2
f 11 10 6
f 11 4 10
f 15 11 5
f 15 4 11
f 16 10 3
f 16 6 10
f 19 2 5
f 19 5 11
f 19 18 2
f 19 11 18
f 22 13 8
f 23 13 9
f 23 9 2
f 25 15 5
f 26 6 16
f 26 18 11
f 26 11 6
f 27 16 3
f 28 3 10
f 30 7 29
f 30 17 28
f 32 1 20
f 33 22 1
f 35 22 20
f 35 20 1
f 35 1 22
f 36 22 8
f 36 20 22
f 37 23 2
f 38 24 8
f 38 8 13
f 38 37 24
f 38 13 23
f 38 23 37
f 39 4 15
f 39 15 25
f 41 25 5
f 41 5 9
f 43 26 16
f 43 16 27
f 43 27 14
f 43 42 26
f 43 14 42
f 44 24 14
f 44 36 8
f 44 8 24
f 45 29 12
f 45 17 29
f 45 32 31
f 45 12 32
f 46 10 4
f 46 30 28
f 46 28 10
f 47 7 30
f 47 4 39
f 47 46 4
f 47 30 46
f 48 30 29
f 48 29 17
f 48 17 30
f 49 28 17
f 49 45 31
f 49 17 45
f 49 3 28
f 50 32 12
f 50 1 32
f 51 32 20
f 51 31 32
f 51 49 31
f 51 20 36
f 52 33 21
f 52 9 13
f 52 13 22
f 52 22 33
f 53 29 7
f 53 40 34
f 53 7 40
f 53 12 29
f 53 50 12
f 53 34 50
f 54 34 21
f 54 21 33
f 54 50 34
f 54 33 50
f 55 37 2
f 55 2 18
f 55 42 37
f 55 18 42
f 56 39 25
f 56 47 39
f 56 7 47
f 56 40 7
f 57 21 34
f 57 34 40
f 58 42 18
f 58 18 26
f 58 26 42
f 59 42 14
f 59 14 24
f 59 24 37
f 59 37 42
f 60 44 14
f 60 14 27
f 60 36 44
f 60 51 36
f 61 50 33
f 61 33 1
f 61 1 50
f 62 27 3
f 62 3 49
f 62 49 51
f 62 60 27
f 62 51 60
f 63 52 21
f 63 40 52
f 63 57 40
f 63 21 57
f 64 41 9
f 64 9 52
f 64 25 41
f 64 52 40
f 64 56 25
f 64 40 56

