# https://github.com/mikedh/trimesh
v 0.00723062 -0.03266671 0.05426306
v 0.01932353 -0.01717092 0.01454831
v -0.00718281 -0.02839169 0.04186839
v -0.00498660 -0.02156042 0.00765132
v 0.00559157 -0.02478856 0.01059030
v -0.00832965 -0.02507461 0.02697457
v -0.00713939 -0.03253635 0.05421804
v 0.00673916 -0.03449839 0.05095108
v 0.01694964 -0.01688243 0.00851649
v -0.00798447 -0.02412943 0.02185709
v -0.00447213 -0.02603527 0.01466223
v 0.01253918 -0.02265446 0.01378441
v 0.00678801 -0.03446690 0.05438883
v 0.00654787 -0.02376560 0.00858982
v 0.01916319 -0.01702047 0.01354921
v -0.00555917 -0.03446678 0.05091356
v 0.00157495 -0.02593473 0.01258660
v -0.00772994 -0.02656285 0.02200636
v 0.00861162 -0.02474924 0.01372369
v 0.01665843 -0.01963958 0.01369537
v -0.00674029 -0.03411856 0.05447829
v 0.01079475 -0.01845516 0.00751120
v 0.01255641 -0.02067034 0.00864959
v -0.00551789 -0.03446626 0.05433171
v 0.00459232 -0.02587618 0.01366455
v -0.00253774 -0.03449839 0.04903492
v 0.00359988 -0.02477643 0.00954712
v -0.00450328 -0.02418382 0.00839971
v -0.00654954 -0.03343372 0.04790242
v 0.00963129 -0.02369252 0.01164465
v 0.01882680 -0.01774415 0.01469673
v 0.01657211 -0.01854519 0.01067768
v -0.00779265 -0.02772245 0.02838992
v 0.00952059 -0.02260866 0.00869760
v 0.00576903 -0.03449393 0.04992379
v 0.00769191 -0.02580832 0.01682871
v -0.00452190 -0.03447866 0.04990950
v -0.00041192 -0.02596824 0.01257404
v -0.00453728 -0.02494807 0.01050958
v 0.01146557 -0.02264457 0.01165303
v 0.01867083 -0.01759900 0.01370393
v 0.01799136 -0.01695300 0.01048279
v 0.01652860 -0.01751772 0.00882452
v 0.00367830 -0.03447157 0.04906601
v -0.00350843 -0.02598898 0.01361608
v -0.00347000 -0.02480882 0.00956001
v 0.01457657 -0.02059491 0.01171460
v 0.01252707 -0.02158339 0.01068783
v 0.01750514 -0.01757354 0.01066520
f 6 3 2
f 7 1 2
f 7 2 3
f 7 3 6
f 13 8 2
f 13 2 1
f 15 9 4
f 15 4 10
f 15 10 6
f 15 6 2
f 18 10 4
f 18 6 10
f 19 12 8
f 20 8 12
f 21 13 1
f 21 1 7
f 22 14 4
f 22 4 9
f 23 22 9
f 24 8 13
f 24 21 16
f 24 13 21
f 25 5 19
f 26 8 24
f 27 14 5
f 27 25 17
f 27 5 25
f 28 18 4
f 28 4 14
f 28 14 27
f 29 18 11
f 29 11 16
f 29 16 21
f 30 19 5
f 30 5 14
f 30 12 19
f 31 2 8
f 31 8 20
f 33 21 7
f 33 7 6
f 33 6 18
f 33 29 21
f 33 18 29
f 34 14 22
f 34 22 23
f 34 30 14
f 35 25 8
f 35 17 25
f 35 8 26
f 36 25 19
f 36 19 8
f 36 8 25
f 37 16 11
f 37 26 24
f 37 24 16
f 38 27 17
f 39 11 18
f 39 18 28
f 40 12 30
f 40 30 34
f 41 31 20
f 41 15 2
f 41 2 31
f 41 20 32
f 42 9 15
f 43 32 23
f 43 23 9
f 43 9 42
f 44 35 26
f 44 17 35
f 44 38 17
f 44 26 38
f 45 37 11
f 45 26 37
f 45 38 26
f 45 11 39
f 46 28 27
f 46 27 38
f 46 39 28
f 46 45 39
f 46 38 45
f 47 23 32
f 47 32 20
f 47 20 12
f 47 12 40
f 48 40 34
f 48 34 23
f 48 47 40
f 48 23 47
f 49 41 32
f 49 15 41
f 49 42 15
f 49 43 42
f 49 32 43

