# https://github.com/mikedh/trimesh
v -0.01324977 0.02503648 0.02829204
v -0.01362648 -0.01042111 0.00180158
v -0.01327149 -0.01012849 0.00003365
v -0.01278759 0.01288976 0.00054040
v -0.02826684 0.00254429 0.02848911
v -0.01283271 0.02421426 0.02313576
v -0.02066067 -0.01069093 0.01411118
v -0.02164557 0.00354335 0.00470048
v -0.01271526 0.01789209 0.00467271
v -0.02286950 0.01684537 0.02853903
v -0.01409077 0.02205021 0.02803246
v -0.01961746 -0.00952932 0.00457501
v -0.01771657 0.00458768 0.00069743
v -0.01951716 0.01252618 0.00678041
v -0.01478730 0.02413618 0.02848823
v -0.02616487 0.00054517 0.02806282
v -0.01576963 -0.00967532 0.00064596
v -0.02351622 -0.00994475 0.01450196
v -0.01644519 0.01461516 0.00482047
v -0.02475318 0.00760569 0.01571893
v -0.01642265 0.01856968 0.01059975
v -0.01738967 0.00851091 0.00164599
v -0.02707343 0.00867427 0.02854886
v -0.01358707 0.02273210 0.01781045
v -0.02829985 0.00051060 0.02848108
v -0.01766511 -0.00552775 0.00059521
v -0.02148934 -0.00950793 0.00764696
v -0.01447715 0.01554472 0.00381773
v -0.02266141 0.00657421 0.00749263
v -0.02160086 0.01353467 0.01369727
v -0.01842419 0.01550673 0.00855062
v -0.01748989 0.02174621 0.02645726
v -0.01959184 0.00447569 0.00261070
v -0.01645224 0.01048919 0.00170835
v -0.01667570 0.02291103 0.02851880
v -0.02689855 0.00352162 0.02211153
v -0.01282098 0.02317695 0.01778571
v -0.02660683 -0.00472664 0.02197073
v -0.02440485 -0.00491428 0.02178014
v -0.02156192 -0.00349093 0.00452194
v -0.01942350 -0.00848828 0.00366129
v -0.01440114 0.01750112 0.00575497
v -0.02053106 0.00751285 0.00480453
v -0.02264009 0.01056300 0.01161544
v -0.01962085 0.01665993 0.01472939
v -0.02365374 0.01365397 0.02319879
v -0.01940988 0.01356563 0.00767080
v -0.01547628 0.02067290 0.01477588
v -0.01843576 0.01156371 0.00465162
v -0.01573678 0.00966829 0.00073886
v -0.01354222 0.01257822 0.00079921
v -0.01542649 0.01454954 0.00378586
v -0.02168126 0.01768800 0.02649603
v -0.02475048 0.00348580 0.01150755
v -0.01273847 0.02101477 0.00945137
v -0.02370804 -0.00349094 0.00848973
v -0.01655993 -0.00856312 0.00074649
v -0.02050300 -0.00555008 0.00358383
v -0.01340497 0.01753598 0.00480988
v -0.01641727 0.01554165 0.00578297
v -0.01547888 0.01856561 0.00861209
v -0.02155174 0.00648011 0.00571874
v -0.02162947 0.00950327 0.00764260
v -0.02360269 0.00957706 0.01364645
f 1 2 3
f 6 1 3
f 9 6 3
f 9 3 4
f 11 7 2
f 11 2 1
f 12 2 7
f 13 4 3
f 16 11 1
f 16 7 11
f 17 3 2
f 17 2 12
f 24 15 1
f 25 23 5
f 25 16 1
f 25 1 15
f 26 13 3
f 26 3 17
f 27 12 7
f 27 7 18
f 28 9 4
f 33 22 13
f 35 10 23
f 35 15 24
f 35 25 15
f 35 23 25
f 36 23 20
f 36 5 23
f 37 24 1
f 37 1 6
f 38 18 7
f 39 7 16
f 39 16 25
f 39 38 7
f 39 25 38
f 40 13 26
f 40 33 13
f 40 8 33
f 41 17 12
f 42 28 19
f 43 33 8
f 43 22 33
f 45 30 10
f 45 31 30
f 45 21 31
f 46 23 10
f 46 10 30
f 47 19 14
f 47 44 30
f 47 30 31
f 48 45 32
f 48 21 45
f 48 35 24
f 48 32 35
f 49 14 19
f 49 19 34
f 49 34 22
f 49 22 43
f 50 4 13
f 50 13 22
f 50 22 34
f 51 28 4
f 51 50 34
f 51 4 50
f 52 34 19
f 52 19 28
f 52 51 34
f 52 28 51
f 53 35 32
f 53 10 35
f 53 45 10
f 53 32 45
f 54 36 20
f 54 29 8
f 54 38 25
f 54 25 5
f 54 5 36
f 55 37 6
f 55 6 9
f 55 21 48
f 55 48 24
f 55 24 37
f 56 27 18
f 56 18 38
f 56 38 54
f 56 54 8
f 56 8 40
f 57 41 26
f 57 26 17
f 57 17 41
f 58 40 26
f 58 26 41
f 58 56 40
f 58 27 56
f 58 41 12
f 58 12 27
f 59 9 28
f 59 28 42
f 59 55 9
f 59 42 55
f 60 42 19
f 60 47 31
f 60 19 47
f 61 31 21
f 61 55 42
f 61 21 55
f 61 60 31
f 61 42 60
f 62 43 8
f 62 8 29
f 63 49 43
f 63 14 49
f 63 29 44
f 63 47 14
f 63 44 47
f 63 62 29
f 63 43 62
f 64 44 29
f 64 20 23
f 64 23 46
f 64 46 30
f 64 30 44
f 64 54 20
f 64 29 54

