# https://github.com/mikedh/trimesh
v 0.03133395 0.00491434 0.04718936
v 0.03126349 -0.00526130 0.04728655
v 0.02636419 -0.00338560 0.01718123
v 0.02374240 0.00421819 0.01304283
v 0.02760360 0.00538968 0.04346139
v 0.02638626 0.00400822 0.01812492
v 0.03133874 -0.00434579 0.04575189
v 0.02987508 0.00525111 0.04735332
v 0.02769308 -0.00568016 0.04353858
v 0.02539595 0.00208971 0.01345315
v 0.03137265 -0.00530688 0.04614780
v 0.02743349 0.00032645 0.02194025
v 0.02728693 0.00513161 0.02470015
v 0.02933197 0.00535319 0.04648888
v 0.02992132 -0.00554533 0.04735454
v 0.02376984 -0.00451011 0.01303272
v 0.02505991 0.00410051 0.01325386
v 0.03135395 0.00406486 0.04579749
v 0.02634704 0.00303584 0.01719672
v 0.02742600 -0.00156413 0.02194242
v 0.02610562 0.00524087 0.02460235
v 0.03135656 0.00495134 0.04615955
v 0.02936929 -0.00561696 0.04646985
v 0.02739976 -0.00527587 0.02481513
v 0.02512789 -0.00440480 0.01324380
v 0.02542664 0.00402274 0.01438579
v 0.02662082 0.00536161 0.02942551
v 0.02642918 -0.00431208 0.01813380
v 0.02606149 -0.00554440 0.02460344
v 0.02538828 -0.00334397 0.01349444
v 0.02550492 -0.00430191 0.01433033
v 0.02661344 -0.00561988 0.03042851
f 8 2 1
f 11 1 2
f 14 5 9
f 15 2 8
f 15 8 14
f 15 11 2
f 16 9 5
f 16 5 4
f 17 4 13
f 18 11 7
f 18 7 12
f 19 12 3
f 19 3 10
f 20 11 3
f 20 3 12
f 20 12 7
f 20 7 11
f 21 13 4
f 21 4 5
f 22 14 8
f 22 8 1
f 22 13 14
f 22 1 11
f 22 11 18
f 22 6 13
f 22 19 6
f 22 18 12
f 22 12 19
f 23 15 14
f 23 14 9
f 23 11 15
f 25 17 10
f 25 16 4
f 25 4 17
f 26 17 13
f 26 13 6
f 26 6 19
f 26 19 10
f 26 10 17
f 27 14 13
f 27 13 21
f 27 21 5
f 27 5 14
f 28 3 11
f 28 11 24
f 29 24 11
f 29 9 16
f 29 25 24
f 29 16 25
f 30 25 10
f 30 10 3
f 31 3 28
f 31 30 3
f 31 25 30
f 31 28 24
f 31 24 25
f 32 29 11
f 32 11 23
f 32 23 9
f 32 9 29

