# https://github.com/mikedh/trimesh
v -0.00613723 0.03041655 0.04722297
v -0.00641677 0.02904160 0.04726140
v -0.00539657 0.02495255 0.01974753
v -0.02064841 0.01762094 0.01986278
v -0.02136854 0.02123606 0.04718672
v -0.01343650 0.02339394 0.02001977
v -0.00655069 0.02663506 0.04333645
v -0.02026579 0.02391857 0.04732636
v -0.00603572 0.02622266 0.02005933
v -0.01775240 0.01868798 0.01958922
v -0.00523206 0.02699894 0.02471296
v -0.02482693 0.01249123 0.03717787
v -0.00707308 0.03025290 0.04722736
v -0.01618057 0.02159154 0.02003217
v -0.01151616 0.02425869 0.02004473
v -0.00516414 0.02636852 0.02001510
v -0.02138838 0.02031118 0.04630563
v -0.02531054 0.01179167 0.02471126
v -0.01351177 0.02825231 0.04616184
v -0.00793133 0.03014129 0.04615256
v -0.02027012 0.02387410 0.04577932
v -0.00611209 0.03025763 0.04565916
v -0.02079721 0.01863790 0.04335111
v -0.02647614 0.01188799 0.03724983
v -0.02369692 0.01244498 0.02450613
v -0.01346752 0.02814635 0.04719360
v -0.00960715 0.02531526 0.02099770
v -0.00792491 0.03015450 0.04677863
v -0.01888728 0.01964801 0.02102276
v -0.01716943 0.02634819 0.04623769
v -0.02348841 0.01510849 0.02482486
v -0.02581315 0.01157230 0.02766982
v -0.02571081 0.01342167 0.03731762
v -0.01072623 0.02921091 0.04722473
v -0.00875553 0.02619439 0.02391081
v -0.02019869 0.01813983 0.01998414
v -0.01530883 0.02726245 0.04581191
v -0.01520091 0.02246566 0.02098531
v -0.01534518 0.02728579 0.04716023
v -0.02076746 0.01778230 0.02101582
v -0.02454512 0.01327943 0.02481362
v -0.02539376 0.01338519 0.03250339
v -0.01071206 0.02915335 0.04567471
v -0.01819645 0.02551279 0.04723110
v -0.02258283 0.01692072 0.02771341
v -0.02544452 0.01236275 0.02771231
v -0.02450876 0.01506213 0.03346715
v -0.01715937 0.02634715 0.04670436
v -0.02449426 0.01412099 0.02773612
f 7 1 2
f 8 5 2
f 10 6 3
f 11 7 3
f 11 1 7
f 12 7 2
f 12 3 7
f 13 8 2
f 13 2 1
f 14 10 4
f 14 6 10
f 15 3 6
f 16 11 3
f 16 15 9
f 16 3 15
f 17 2 5
f 18 4 10
f 20 16 9
f 22 1 11
f 22 11 16
f 22 20 1
f 22 16 20
f 23 17 12
f 23 12 2
f 23 2 17
f 24 17 5
f 24 12 17
f 24 5 8
f 25 18 10
f 25 10 3
f 25 3 12
f 27 15 6
f 27 6 19
f 27 9 15
f 28 13 1
f 28 1 20
f 28 20 19
f 29 21 14
f 30 21 8
f 30 14 21
f 32 12 24
f 32 25 12
f 32 18 25
f 33 24 8
f 33 8 21
f 34 26 8
f 34 8 13
f 34 13 28
f 34 28 19
f 34 19 26
f 35 20 9
f 35 9 27
f 35 27 19
f 36 29 14
f 36 14 4
f 36 21 29
f 37 30 19
f 37 19 6
f 37 6 30
f 38 30 6
f 38 6 14
f 38 14 30
f 39 26 19
f 39 19 30
f 40 4 31
f 40 36 4
f 40 21 36
f 41 31 4
f 41 4 18
f 42 32 24
f 42 24 33
f 43 35 19
f 43 19 20
f 43 20 35
f 44 8 26
f 44 26 39
f 45 40 31
f 45 31 21
f 45 21 40
f 46 41 18
f 46 18 32
f 46 32 42
f 47 42 33
f 47 33 21
f 48 44 39
f 48 39 30
f 48 30 8
f 48 8 44
f 49 46 42
f 49 31 41
f 49 41 46
f 49 42 47
f 49 47 21
f 49 21 31

