# https://github.com/mikedh/trimesh
v -0.02528304 -0.00444338 0.01316331
v -0.00529830 -0.02465121 0.01311027
v -0.00531997 -0.00836777 0.00131287
v -0.01807843 -0.00467776 0.00028984
v -0.01689828 -0.01260323 0.00032675
v -0.00822279 -0.00546474 0.00130544
v -0.02383579 -0.00470392 0.01267646
v -0.02176735 -0.01352161 0.01343122
v -0.01769892 -0.01076501 0.00033508
v -0.00512676 -0.01721150 0.00040511
v -0.00532046 -0.00836609 0.00002167
v -0.01305896 -0.00449685 0.00002292
v -0.00561553 -0.02309783 0.01258886
v -0.01429241 -0.02105903 0.01339481
v -0.00795535 -0.02400930 0.01333828
v -0.02378027 -0.00432452 0.00967654
v -0.02348791 -0.00984598 0.01255684
v -0.00510115 -0.02373394 0.01062647
v -0.01535476 -0.01400445 0.00034581
v -0.00822208 -0.00546423 0.00002020
v -0.01609289 -0.01890200 0.01155512
v -0.02471968 -0.00711053 0.01336063
v -0.02472386 -0.00434275 0.01151870
v -0.02153767 -0.01334994 0.01258304
v -0.00787243 -0.02373426 0.01245979
v -0.01088454 -0.01599441 0.00050439
v -0.01975304 -0.01518080 0.01163692
v -0.01414808 -0.02082152 0.01253284
v -0.02373691 -0.00988104 0.01335210
v -0.02444170 -0.00602862 0.01173531
v -0.00592602 -0.02358743 0.01072383
v -0.00606697 -0.01710018 0.00050275
v -0.01138493 -0.02163423 0.01087985
v -0.02347836 -0.00887988 0.01163693
v -0.01349598 -0.01508776 0.00046868
v -0.01073204 -0.02300742 0.01335611
v -0.01062403 -0.02274503 0.01249174
v -0.02446355 -0.00704610 0.01256609
f 7 1 2
f 7 6 1
f 7 3 6
f 11 3 10
f 12 1 6
f 12 11 5
f 12 9 4
f 12 5 9
f 13 7 2
f 13 2 3
f 13 3 7
f 15 2 1
f 15 8 14
f 16 4 9
f 16 12 4
f 17 9 5
f 18 10 3
f 18 3 2
f 19 11 10
f 19 5 11
f 20 12 6
f 20 11 12
f 20 6 3
f 20 3 11
f 21 14 8
f 21 5 19
f 22 15 1
f 22 8 15
f 23 1 12
f 23 12 16
f 23 16 9
f 24 17 5
f 24 8 17
f 25 2 15
f 27 21 8
f 27 5 21
f 27 24 5
f 27 8 24
f 28 21 19
f 28 14 21
f 29 22 17
f 29 17 8
f 29 8 22
f 30 23 9
f 30 22 1
f 30 1 23
f 31 18 2
f 31 2 25
f 31 26 18
f 32 26 10
f 32 10 18
f 32 18 26
f 33 28 19
f 34 30 9
f 34 9 17
f 35 33 19
f 35 26 31
f 35 31 33
f 35 19 10
f 35 10 26
f 36 25 15
f 36 15 14
f 36 14 28
f 37 33 31
f 37 31 25
f 37 25 36
f 37 36 28
f 37 28 33
f 38 34 17
f 38 17 22
f 38 22 30
f 38 30 34

