# https://github.com/mikedh/trimesh
v 0.03112707 -0.00540869 0.04738664
v 0.03038510 -0.00905111 0.04722927
v 0.02987503 -0.00536255 0.04331203
v 0.02748827 -0.00561611 0.04287125
v 0.00895838 -0.02980241 0.04726281
v 0.03034345 -0.00529070 0.04441220
v 0.02642870 -0.01733290 0.04721185
v 0.00937147 -0.02824597 0.04723902
v 0.01988047 -0.02272207 0.04352670
v 0.03031307 -0.00897768 0.04569427
v 0.02941828 -0.01176622 0.04721161
v 0.01255560 -0.02855016 0.04722963
v 0.02973741 -0.00568926 0.04717568
v 0.02550125 -0.01632088 0.04359479
v 0.00926709 -0.02604467 0.04299532
v 0.02937229 -0.01177565 0.04582416
v 0.01815156 -0.02559365 0.04717982
v 0.02769308 -0.00568016 0.04353858
v 0.02265142 -0.01995795 0.04351524
v 0.00908522 -0.02831692 0.04319263
v 0.02643077 -0.01723224 0.04577911
v 0.02923213 -0.00896262 0.04369862
v 0.00982876 -0.02949631 0.04577008
v 0.00891419 -0.02966421 0.04562865
v 0.01812918 -0.02557576 0.04584055
v 0.00981675 -0.02955723 0.04722033
v 0.01249955 -0.02846612 0.04569000
v 0.01434814 -0.02644342 0.04365799
v 0.01164906 -0.02755164 0.04347320
f 6 3 4
f 6 4 1
f 8 5 1
f 10 6 1
f 10 1 2
f 10 3 6
f 11 2 1
f 11 1 7
f 12 7 1
f 12 1 5
f 13 8 1
f 13 1 4
f 14 4 3
f 15 5 8
f 16 10 2
f 16 2 11
f 16 11 7
f 17 7 12
f 18 13 4
f 18 8 13
f 18 15 8
f 18 4 15
f 19 4 14
f 19 15 4
f 19 9 15
f 20 15 9
f 21 16 7
f 21 14 16
f 21 19 14
f 22 16 14
f 22 14 3
f 22 3 10
f 22 10 16
f 24 5 15
f 24 15 20
f 24 23 5
f 24 20 23
f 25 21 7
f 25 7 17
f 25 9 19
f 25 19 21
f 25 17 12
f 26 23 12
f 26 12 5
f 26 5 23
f 27 25 12
f 27 12 23
f 28 20 9
f 28 9 25
f 28 25 27
f 29 27 23
f 29 23 20
f 29 28 27
f 29 20 28

