# https://github.com/mikedh/trimesh
v -0.00244802 0.02305651 0.01090607
v 0.00823071 -0.00837419 0.00137911
v 0.00813021 0.01832125 0.00038204
v -0.00959236 0.02047653 0.00032558
v -0.01321135 -0.00553866 0.00226350
v -0.00822208 -0.00836603 0.00001975
v -0.00072558 0.02064886 0.00049990
v 0.00808870 0.02031726 0.00775413
v -0.00533048 0.02262816 0.01110085
v 0.00822162 -0.00836595 0.00002446
v -0.01305896 -0.00546411 0.00002299
v -0.00822528 -0.00837121 0.00136598
v 0.00048878 0.02263937 0.01011904
v 0.00858031 0.01545293 0.00624188
v 0.00521895 0.02127225 0.00777130
v -0.01280712 0.01838120 0.00773835
v 0.00795521 0.01858740 0.00067342
v -0.01180695 0.01923249 0.00787958
v -0.01330538 0.01513850 0.00767542
v 0.00702421 0.01871546 0.00047636
v -0.01348620 0.01428406 0.00733830
v -0.01198858 0.01798257 0.00040831
f 7 3 4
f 7 4 1
f 9 5 2
f 9 2 1
f 9 1 4
f 10 2 6
f 10 4 3
f 11 6 5
f 11 10 6
f 11 4 10
f 12 6 2
f 12 2 5
f 12 5 6
f 13 1 2
f 13 2 8
f 13 7 1
f 14 8 2
f 14 3 8
f 14 10 3
f 14 2 10
f 15 13 8
f 15 7 13
f 17 15 8
f 17 8 3
f 17 7 15
f 18 16 9
f 18 9 4
f 18 4 16
f 19 5 9
f 19 9 16
f 20 17 3
f 20 3 7
f 20 7 17
f 21 11 5
f 21 5 19
f 21 19 16
f 22 4 11
f 22 11 21
f 22 21 16
f 22 16 4

