# https://github.com/mikedh/trimesh
v 0.02456758 0.01969903 0.04713851
v 0.03107146 0.00509042 0.04747198
v 0.02435213 0.01041987 0.01722199
v 0.01481962 0.02041676 0.01316344
v 0.01371687 0.02776315 0.04733286
v 0.02359748 0.00440860 0.01274625
v 0.01969803 0.01674202 0.01536559
v 0.02929148 0.01146543 0.04583251
v 0.01811310 0.02534779 0.04625300
v 0.02656324 0.00403824 0.01905764
v 0.01427896 0.02310850 0.03527659
v 0.02256515 0.01484031 0.02013242
v 0.02249201 0.01213014 0.01344627
v 0.02938547 0.01151814 0.04716643
v 0.01809882 0.02528827 0.04721135
v 0.01450997 0.02184975 0.01709238
v 0.02760360 0.00538968 0.04346139
v 0.03026882 0.00864193 0.04578219
v 0.01533801 0.01819263 0.01285022
v 0.02465521 0.01973266 0.04612315
v 0.02438338 0.01228032 0.02199793
v 0.01973758 0.01590668 0.01345061
v 0.02505991 0.00410051 0.01325386
v 0.02344887 0.01225788 0.01721340
v 0.02643478 0.01704232 0.04712445
v 0.01450419 0.02744785 0.04721390
v 0.01370442 0.02481569 0.03534732
v 0.01691904 0.01954262 0.01536510
v 0.02626338 0.00431182 0.02458157
v 0.01468850 0.02380139 0.04423500
v 0.02973519 0.00540485 0.04719680
v 0.03095252 0.00507593 0.04550922
v 0.03030794 0.00871584 0.04721341
v 0.02534646 0.00768112 0.01721576
v 0.01875766 0.01868001 0.01818368
v 0.02185115 0.02251005 0.04705407
v 0.02156444 0.01402790 0.01447102
v 0.02453196 0.00681992 0.01341555
v 0.02637145 0.01702384 0.04576108
v 0.01447822 0.02735385 0.04582029
v 0.01363870 0.02761188 0.04563067
v 0.01456975 0.02103142 0.01422674
v 0.01608270 0.01958980 0.01353950
v 0.02184523 0.02253471 0.04625507
v 0.02743351 0.00418745 0.02468190
v 0.02567081 0.00402907 0.01523503
v 0.01460757 0.02567499 0.04705899
v 0.02640154 0.00493408 0.01909864
v 0.02249684 0.01314131 0.01539855
v 0.01627700 0.02632289 0.04576607
v 0.01512381 0.02144023 0.01715772
v 0.01519123 0.02061093 0.01437871
v 0.02533661 0.00589789 0.01533761
v 0.02632129 0.00678925 0.02103840
f 5 2 1
f 15 5 1
f 18 8 14
f 19 6 11
f 19 13 6
f 21 8 3
f 22 19 4
f 22 13 19
f 24 3 13
f 24 21 3
f 24 12 21
f 25 1 2
f 25 2 14
f 25 20 1
f 26 15 9
f 26 5 15
f 27 19 11
f 28 7 22
f 29 2 17
f 29 17 6
f 30 11 6
f 30 6 17
f 30 27 11
f 30 5 27
f 31 17 2
f 31 2 5
f 32 18 2
f 33 18 14
f 33 14 2
f 33 2 18
f 34 3 8
f 34 8 18
f 35 20 12
f 35 12 7
f 35 7 28
f 36 15 1
f 36 1 20
f 36 9 15
f 37 22 7
f 37 7 12
f 37 13 22
f 38 23 6
f 38 6 13
f 38 13 3
f 38 3 34
f 39 25 14
f 39 14 8
f 39 8 21
f 39 21 12
f 39 12 20
f 39 20 25
f 40 5 26
f 40 26 9
f 41 27 5
f 41 16 27
f 41 40 16
f 41 5 40
f 42 27 16
f 42 4 19
f 42 19 27
f 43 28 22
f 43 22 4
f 43 4 42
f 44 9 36
f 44 36 20
f 44 20 35
f 45 29 10
f 45 2 29
f 45 32 2
f 45 10 32
f 46 10 29
f 46 29 6
f 46 6 23
f 47 30 17
f 47 17 31
f 47 31 5
f 47 5 30
f 48 32 10
f 48 18 32
f 48 10 46
f 49 24 13
f 49 13 37
f 49 37 12
f 49 12 24
f 50 40 9
f 50 9 16
f 50 16 40
f 51 42 16
f 51 16 9
f 51 9 44
f 51 44 35
f 51 35 28
f 52 43 42
f 52 28 43
f 52 51 28
f 52 42 51
f 53 38 34
f 53 48 46
f 53 34 48
f 53 46 23
f 53 23 38
f 54 48 34
f 54 34 18
f 54 18 48

