# https://github.com/mikedh/trimesh
v 0.01371687 0.02776315 0.04733286
v 0.01719735 0.02098451 0.03527406
v 0.01075616 0.02532489 0.02479947
v -0.00988141 0.02586587 0.02475078
v -0.01040151 0.02519892 0.04113545
v 0.01706198 0.01984977 0.02463769
v 0.00697062 0.03012488 0.04579191
v 0.01443967 0.02329972 0.04294781
v -0.01045284 0.02420191 0.02455137
v 0.01739718 0.02028784 0.02942482
v 0.01641646 0.02194630 0.02478215
v 0.01072702 0.02917478 0.04616010
v 0.00226297 0.02731714 0.02476708
v -0.00641677 0.02904160 0.04726140
v 0.01427889 0.02601415 0.04724487
v -0.00982210 0.02746120 0.04140054
v 0.01646034 0.02032178 0.02455783
v 0.01440692 0.02345770 0.02482937
v 0.01656721 0.02305788 0.03534750
v 0.00703017 0.03020920 0.04713021
v 0.00785692 0.02624448 0.02479173
v -0.00413211 0.02722825 0.02479083
v 0.01444899 0.02530419 0.04640255
v -0.01056526 0.02444921 0.02648309
v -0.00613723 0.03041655 0.04722297
v 0.01363870 0.02761188 0.04563067
v 0.01073191 0.02911260 0.04714601
v -0.00963691 0.02625158 0.02675712
v -0.00611209 0.03025763 0.04565916
v 0.01603397 0.02243160 0.02578944
v 0.01260416 0.02824942 0.04579466
v 0.01261686 0.02837316 0.04721923
v -0.00884480 0.02629825 0.02480053
f 8 5 2
f 9 6 5
f 10 2 5
f 10 5 6
f 11 10 6
f 15 1 14
f 16 5 14
f 17 11 6
f 17 6 9
f 17 9 13
f 18 17 3
f 18 11 17
f 19 11 1
f 19 2 10
f 19 10 11
f 19 15 2
f 19 1 15
f 20 12 7
f 21 12 3
f 21 7 12
f 21 13 7
f 21 17 13
f 21 3 17
f 22 13 9
f 22 9 4
f 23 8 2
f 23 2 15
f 23 5 8
f 23 15 14
f 23 14 5
f 24 9 5
f 24 5 16
f 24 16 4
f 24 4 9
f 25 16 14
f 25 20 7
f 25 14 1
f 25 1 20
f 26 1 11
f 27 20 1
f 27 12 20
f 28 4 16
f 28 16 25
f 29 25 7
f 29 7 13
f 29 13 22
f 29 28 25
f 30 26 11
f 30 11 18
f 30 18 26
f 31 1 26
f 31 3 12
f 31 26 18
f 31 18 3
f 32 27 1
f 32 12 27
f 32 31 12
f 32 1 31
f 33 29 22
f 33 22 4
f 33 4 28
f 33 28 29

