# https://github.com/mikedh/trimesh
v -0.03099314 -0.00538065 0.04738978
v -0.01001839 -0.02911858 0.04733738
v -0.02808017 0.00031343 0.04296933
v -0.02434463 0.00033842 0.01282973
v -0.01875766 -0.01805320 0.01534098
v -0.01068893 -0.02508173 0.04291565
v -0.03019123 0.00034141 0.04317985
v -0.01042948 -0.02754189 0.04722937
v -0.02561618 -0.01820414 0.04590353
v -0.02531784 -0.00701944 0.01529903
v -0.01259363 -0.02200604 0.01335477
v -0.02463732 0.00036344 0.01373346
v -0.02958052 -0.00567467 0.04715781
v -0.00983877 -0.02677662 0.03931773
v -0.02555213 -0.01822847 0.04721976
v -0.02753720 0.00034280 0.02188438
v -0.02934185 -0.01180866 0.04616612
v -0.02247939 -0.01430934 0.01726088
v -0.01061768 -0.02488916 0.03719396
v -0.02246094 -0.01249879 0.01349632
v -0.01905922 -0.02464651 0.04586608
v -0.00996475 -0.02902087 0.04549993
v -0.03019305 -0.00892815 0.04735611
v -0.02733715 -0.00331518 0.02193557
v -0.03088168 -0.00537312 0.04553351
v -0.02647794 0.00036416 0.01622012
v -0.02749456 -0.01540203 0.04720968
v -0.01977512 -0.01806812 0.01909082
v -0.02436988 -0.01069827 0.01719478
v -0.01359264 -0.01978353 0.01277104
v -0.02538207 -0.00431047 0.01342469
v -0.01704936 -0.01887991 0.01346262
v -0.02063350 -0.01515155 0.01351017
v -0.01902716 -0.02467549 0.04721109
v -0.01006932 -0.02649220 0.03725907
v -0.01439996 -0.02753584 0.04620445
v -0.03023756 -0.00893789 0.04581892
v -0.02570359 0.00033968 0.01330470
v -0.02644019 -0.00155425 0.01619698
v -0.02925102 -0.01176982 0.04720870
v -0.02743483 -0.01544076 0.04579944
v -0.01697811 -0.02077723 0.02005670
v -0.02634976 -0.00796549 0.02194624
v -0.02342206 -0.01064356 0.01346052
v -0.01262855 -0.02304267 0.01712493
v -0.01169548 -0.02858834 0.04573595
v -0.01631624 -0.02653605 0.04618673
v -0.01437471 -0.02748195 0.04720861
v -0.02637490 -0.00431236 0.01718131
v -0.02840599 -0.01359830 0.04577234
v -0.01889042 -0.01893132 0.01907437
v -0.01699815 -0.01983436 0.01627078
v -0.02532067 -0.00977659 0.02006256
v -0.02445965 -0.00799261 0.01341796
v -0.01513115 -0.02175584 0.01815766
v -0.01629608 -0.02648921 0.04720958
v -0.01174829 -0.02863368 0.04727816
v -0.02634352 -0.00607237 0.01910281
v -0.02443971 -0.01246467 0.02195396
v -0.01509287 -0.02077622 0.01439571
v -0.01516127 -0.02270322 0.02293852
v -0.01336380 -0.02163734 0.01348067
v -0.01338899 -0.02265769 0.01722016
v -0.01423332 -0.02167495 0.01531237
f 6 4 3
f 7 1 3
f 8 1 2
f 8 6 3
f 12 7 3
f 12 3 4
f 13 8 3
f 13 3 1
f 13 1 8
f 14 8 2
f 14 6 8
f 19 4 6
f 19 14 11
f 19 6 14
f 22 14 2
f 23 15 2
f 23 2 1
f 25 1 7
f 25 7 16
f 25 16 24
f 26 16 7
f 26 7 12
f 27 9 15
f 27 15 23
f 28 18 5
f 28 9 18
f 28 21 9
f 29 20 18
f 30 19 11
f 30 4 19
f 32 30 11
f 33 5 18
f 33 18 20
f 33 32 5
f 33 20 30
f 33 30 32
f 34 15 9
f 34 9 21
f 34 2 15
f 35 22 11
f 35 11 14
f 35 14 22
f 37 23 1
f 37 1 25
f 37 17 23
f 38 26 12
f 38 12 4
f 38 4 31
f 39 24 16
f 39 16 26
f 39 38 31
f 39 26 38
f 40 27 23
f 40 23 17
f 40 17 27
f 41 18 9
f 41 9 27
f 43 17 37
f 44 20 29
f 44 30 20
f 44 4 30
f 45 11 22
f 46 22 2
f 46 45 22
f 46 36 45
f 47 34 21
f 47 45 36
f 49 37 25
f 49 25 24
f 49 24 39
f 49 39 31
f 49 31 10
f 50 41 27
f 50 27 17
f 51 28 5
f 51 42 21
f 51 21 28
f 52 5 32
f 52 51 5
f 52 42 51
f 53 29 17
f 53 17 43
f 53 43 10
f 53 10 29
f 54 44 29
f 54 29 10
f 54 10 31
f 54 31 4
f 54 4 44
f 55 21 42
f 55 42 52
f 56 2 34
f 56 34 47
f 56 47 36
f 56 36 48
f 57 46 2
f 57 56 48
f 57 2 56
f 57 48 36
f 57 36 46
f 58 43 37
f 58 37 49
f 58 49 10
f 58 10 43
f 59 50 17
f 59 17 29
f 59 29 18
f 59 18 41
f 59 41 50
f 60 52 32
f 61 47 21
f 61 21 55
f 62 60 32
f 62 32 11
f 62 11 45
f 63 61 55
f 63 45 47
f 63 47 61
f 64 63 55
f 64 60 62
f 64 62 45
f 64 45 63
f 64 55 52
f 64 52 60

