# https://github.com/mikedh/trimesh
v -0.02026579 0.02391857 0.04732636
v -0.02037729 0.02400262 0.04610035
v -0.03133643 -0.00522593 0.04616875
v -0.02036788 0.02024776 0.03727359
v -0.02936880 0.01240580 0.04583822
v -0.02729978 -0.00560188 0.04285478
v -0.02558425 0.01882339 0.04612536
v -0.02899116 0.00033818 0.03727147
v -0.03133166 0.00595596 0.04723795
v -0.02958052 -0.00567467 0.04715781
v -0.02183721 0.02253500 0.04580658
v -0.02466225 0.01520951 0.03730609
v -0.02086758 0.02349704 0.04720848
v -0.02969203 -0.00531480 0.04347941
v -0.02781283 0.00033631 0.03722640
v -0.02740802 0.01608845 0.04720447
v -0.03127510 0.00594845 0.04583796
v -0.02753265 -0.00566275 0.04354795
v -0.03117707 -0.00521572 0.04722004
v -0.02090721 0.02354568 0.04614136
v -0.02457113 0.01971765 0.04575522
v -0.02176843 0.01878725 0.03729717
v -0.02745181 0.01606950 0.04584703
v -0.02149530 0.01738512 0.03720306
v -0.03045022 0.00969536 0.04720147
v -0.02549707 0.01877496 0.04718871
v -0.03134951 -0.00433593 0.04583042
v -0.02744875 0.00965741 0.03733625
v -0.02259120 0.01780572 0.03730454
v -0.02940513 0.01239607 0.04718277
v -0.03131858 0.00688388 0.04614086
v -0.03133736 0.00687167 0.04673201
v -0.03038309 0.00970479 0.04586329
v -0.02845735 0.00597097 0.03732846
f 2 1 4
f 6 4 1
f 13 1 2
f 14 8 6
f 14 3 8
f 14 10 3
f 15 4 6
f 15 6 8
f 16 9 1
f 18 6 1
f 18 1 10
f 18 14 6
f 18 10 14
f 19 9 3
f 19 3 10
f 19 10 1
f 19 1 9
f 20 11 7
f 20 2 4
f 20 4 11
f 20 13 2
f 20 7 13
f 21 11 4
f 21 4 7
f 21 7 11
f 22 7 4
f 22 4 12
f 23 12 5
f 23 7 12
f 23 16 7
f 24 12 4
f 24 4 15
f 24 15 8
f 25 9 16
f 26 13 7
f 26 7 16
f 26 16 1
f 26 1 13
f 27 17 8
f 27 8 3
f 27 3 9
f 28 24 8
f 28 12 24
f 28 5 12
f 29 22 12
f 29 12 7
f 29 7 22
f 30 23 5
f 30 16 23
f 30 25 16
f 30 5 25
f 31 17 27
f 31 8 17
f 32 9 25
f 32 25 31
f 32 31 27
f 32 27 9
f 33 31 25
f 33 25 5
f 33 5 28
f 33 28 31
f 34 31 28
f 34 28 8
f 34 8 31

