# https://github.com/mikedh/trimesh
v 0.02365881 -0.00931422 0.01307157
v 0.02296460 -0.01090072 0.01331123
v 0.00794022 -0.01906921 0.00033199
v -0.00532046 -0.00836609 0.00002167
v -0.00541817 -0.02327037 0.01290219
v 0.01432694 -0.00559244 0.00404056
v 0.01973704 -0.01259412 0.00903885
v -0.00422699 -0.02488127 0.01335834
v -0.00531997 -0.00836777 0.00131287
v 0.00822162 -0.00836595 0.00002446
v 0.02151218 -0.01157089 0.01084614
v 0.01436938 -0.02099079 0.01338344
v 0.02276437 -0.00890215 0.01070664
v -0.00512676 -0.01721150 0.00040511
v 0.01485321 -0.00542482 0.00449493
v 0.01820979 -0.00907422 0.00630671
v 0.02246285 -0.01064632 0.01170952
v 0.01602343 -0.01809076 0.01001840
v 0.00414951 -0.02493999 0.01337168
v 0.02093512 -0.01451016 0.01340174
v 0.02148302 -0.01060327 0.00993300
v -0.00510115 -0.02373394 0.01062647
v 0.01531269 -0.00557855 0.00494616
v 0.01506943 -0.01978454 0.01165285
v 0.01688337 -0.01717270 0.01000109
v 0.00877603 -0.02349966 0.01255781
v 0.02068316 -0.01438855 0.01263896
v 0.01905821 -0.01077960 0.00745925
v 0.02247467 -0.00971036 0.01086374
v -0.00529830 -0.02465121 0.01311027
v 0.00169839 -0.01891839 0.00049858
v 0.00138512 -0.02459230 0.01159510
v 0.01422354 -0.02079012 0.01254999
v 0.01962200 -0.01521402 0.01173432
v 0.00597567 -0.02354993 0.01083442
v 0.00880822 -0.02374324 0.01335879
v 0.01900380 -0.01267529 0.00831290
v -0.00224900 -0.02453834 0.01155782
v -0.00218429 -0.01800929 0.00050067
v 0.00409424 -0.02463594 0.01252458
v -0.00419097 -0.02459509 0.01248046
v -0.00320527 -0.02362876 0.00988497
v -0.00509192 -0.02273700 0.00901855
f 8 2 1
f 8 1 5
f 9 5 1
f 9 4 5
f 10 3 4
f 10 4 6
f 14 5 4
f 14 4 3
f 15 6 4
f 15 4 9
f 16 10 6
f 16 3 10
f 16 15 13
f 16 6 15
f 17 1 2
f 17 13 1
f 20 2 8
f 20 19 12
f 20 8 19
f 20 17 2
f 21 11 7
f 23 15 9
f 23 9 1
f 23 1 13
f 23 13 15
f 24 3 18
f 24 20 12
f 25 18 3
f 25 3 7
f 27 11 17
f 27 17 20
f 28 16 13
f 28 13 21
f 28 3 16
f 28 21 7
f 29 17 11
f 29 11 21
f 29 21 13
f 29 13 17
f 30 8 5
f 30 5 14
f 30 14 22
f 31 14 3
f 32 19 8
f 33 24 12
f 33 3 24
f 33 26 3
f 33 12 26
f 34 24 18
f 34 20 24
f 34 18 25
f 34 27 20
f 34 25 7
f 34 7 11
f 34 11 27
f 35 26 19
f 35 3 26
f 36 26 12
f 36 12 19
f 36 19 26
f 37 28 7
f 37 7 3
f 37 3 28
f 38 32 8
f 38 31 3
f 38 3 32
f 39 14 31
f 40 32 3
f 40 19 32
f 40 35 19
f 40 3 35
f 41 30 22
f 41 22 38
f 41 38 8
f 41 8 30
f 42 38 22
f 42 22 31
f 42 31 38
f 43 39 31
f 43 31 22
f 43 22 14
f 43 14 39

