# https://github.com/mikedh/trimesh
v 0.00937147 -0.02824597 0.04723902
v 0.00895838 -0.02980241 0.04726281
v 0.00539530 -0.02327363 0.01292254
v -0.01314841 -0.02013426 0.01299533
v -0.01042948 -0.02754189 0.04722937
v 0.00920100 -0.02581971 0.04110503
v -0.01001839 -0.02911858 0.04733738
v -0.01532002 -0.02236675 0.03721007
v 0.00888580 -0.02767295 0.04136113
v -0.00135134 -0.02658394 0.01906705
v 0.00948989 -0.02667707 0.04451848
v -0.01467880 -0.02329234 0.02474410
v 0.00891419 -0.02966421 0.04562865
v -0.00605323 -0.02462749 0.01345010
v -0.01042301 -0.02552034 0.04360627
v 0.00947803 -0.02766546 0.04639871
v -0.01528550 -0.02135506 0.02460368
v -0.01470686 -0.02426019 0.03726286
v 0.00512570 -0.02475692 0.01341104
v -0.00511241 -0.03046240 0.04577133
v -0.01162083 -0.02088344 0.01272764
v -0.01259363 -0.02200604 0.01335477
v -0.01068478 -0.02458290 0.02003728
v -0.01546752 -0.02154428 0.02750809
v 0.00324157 -0.02653206 0.02002895
v -0.00323276 -0.02559463 0.01528997
v 0.00606111 -0.03045183 0.04565382
v -0.00510626 -0.03049245 0.04715205
v -0.00884796 -0.02955650 0.04573183
v -0.01064012 -0.02363294 0.01530681
v 0.00511798 -0.02554083 0.01620191
v -0.00688460 -0.02553994 0.01815244
v 0.00137318 -0.02656385 0.01907298
v 0.00610371 -0.03050596 0.04719048
v -0.01242914 -0.02355752 0.01908066
v -0.00889414 -0.02954215 0.04722965
v -0.01144016 -0.02267749 0.01349307
v -0.00510398 -0.02556830 0.01620456
v -0.00879277 -0.02453319 0.01624629
v 0.00325552 -0.02558739 0.01523487
v -0.01243325 -0.02267500 0.01530464
f 6 3 4
f 7 2 1
f 7 1 5
f 8 6 4
f 8 7 5
f 9 3 6
f 11 6 8
f 11 9 6
f 13 1 2
f 15 11 8
f 15 8 5
f 16 5 1
f 16 1 13
f 16 13 9
f 16 9 11
f 16 15 5
f 16 11 15
f 17 4 12
f 18 12 7
f 18 7 8
f 19 3 9
f 19 9 13
f 19 14 3
f 21 4 3
f 21 3 14
f 22 12 4
f 22 21 14
f 22 4 21
f 24 17 12
f 24 8 4
f 24 4 17
f 24 18 8
f 24 12 18
f 26 14 19
f 27 13 2
f 27 20 10
f 29 7 12
f 29 20 28
f 31 19 13
f 31 27 25
f 31 13 27
f 32 20 29
f 32 29 23
f 33 27 10
f 33 25 27
f 34 2 7
f 34 7 28
f 34 27 2
f 34 28 20
f 34 20 27
f 35 29 12
f 35 23 29
f 35 30 23
f 36 29 28
f 36 28 7
f 36 7 29
f 37 22 14
f 37 14 30
f 38 32 14
f 38 14 26
f 38 26 10
f 38 10 20
f 38 20 32
f 39 30 14
f 39 14 32
f 39 32 23
f 39 23 30
f 40 31 25
f 40 25 33
f 40 19 31
f 40 26 19
f 40 33 10
f 40 10 26
f 41 35 12
f 41 12 22
f 41 30 35
f 41 37 30
f 41 22 37

