# https://github.com/mikedh/trimesh
v 0.02175084 0.01319921 0.01345583
v 0.02476391 -0.00618046 0.01334769
v 0.01882248 0.00975868 0.00067369
v 0.00813021 0.01832125 0.00038204
v 0.00814438 -0.01591799 0.00466548
v 0.01605993 0.01574518 0.00067839
v 0.02471013 0.00594839 0.01336516
v 0.01481962 0.02041676 0.01316344
v 0.01301579 -0.01450869 0.00033207
v 0.01765362 0.01348360 0.00039343
v 0.02444830 0.00024931 0.01072345
v 0.02214113 -0.00950764 0.01290734
v 0.01545469 0.01999752 0.01335159
v 0.00834917 0.01506323 0.00592741
v 0.01188034 0.01767068 0.00050577
v 0.00794022 -0.01906921 0.00033199
v 0.01690558 0.01493268 0.00061602
v 0.01781432 0.00445320 0.00048136
v 0.02442911 0.00587517 0.01251830
v 0.02282589 0.01148859 0.01332947
v 0.02248962 -0.00611504 0.00900542
v 0.02363877 -0.00887799 0.01249644
v 0.02389024 -0.00900603 0.01331874
v 0.00815295 0.01840299 0.00099572
v 0.01440737 0.01667148 0.00050122
v 0.00794757 -0.01903758 0.00079660
v 0.01971394 0.01497792 0.01169329
v 0.01880324 0.00831582 0.00063473
v 0.01576051 -0.00423226 0.00036556
v 0.02449473 0.00397914 0.01163666
v 0.02260212 0.01139223 0.01251201
v 0.02437781 -0.00520271 0.01171570
v 0.02165897 -0.00887016 0.00902990
v 0.00882243 -0.01879529 0.00033293
v 0.02355421 -0.00424618 0.00992693
v 0.01397987 -0.01200755 0.00038483
v 0.02444816 -0.00148183 0.01079296
v 0.02448640 -0.00610161 0.01254692
v 0.02341387 -0.00705821 0.01084726
v 0.00879800 -0.01880989 0.00076579
v 0.02163639 -0.00711573 0.00826258
f 7 1 2
f 10 9 4
f 11 7 2
f 12 8 5
f 13 6 8
f 13 8 12
f 14 5 8
f 15 4 8
f 16 4 9
f 17 6 13
f 19 10 7
f 19 3 10
f 20 1 7
f 20 17 1
f 20 10 17
f 23 2 1
f 23 1 13
f 23 13 12
f 23 22 2
f 23 9 22
f 24 14 8
f 24 8 4
f 25 15 8
f 25 8 6
f 25 6 17
f 25 17 10
f 25 10 4
f 25 4 15
f 26 5 14
f 26 14 24
f 26 24 4
f 26 4 16
f 26 12 5
f 26 23 12
f 27 17 13
f 27 13 1
f 27 1 17
f 28 18 10
f 28 10 3
f 28 21 18
f 28 3 11
f 29 9 10
f 29 10 18
f 29 18 21
f 30 11 3
f 30 3 19
f 30 19 7
f 30 7 11
f 31 20 7
f 31 7 10
f 31 10 20
f 33 22 9
f 34 16 9
f 34 9 23
f 35 21 28
f 36 29 21
f 36 9 29
f 36 33 9
f 37 11 2
f 37 2 32
f 37 32 35
f 37 35 28
f 37 28 11
f 38 32 2
f 38 2 22
f 38 22 32
f 39 32 22
f 39 22 33
f 39 33 21
f 39 35 32
f 39 21 35
f 40 26 16
f 40 16 34
f 40 34 23
f 40 23 26
f 41 36 21
f 41 21 33
f 41 33 36

