# https://github.com/mikedh/trimesh
v 0.01703379 -0.02207182 0.04301057
v 0.01647060 -0.02506133 0.04339436
v 0.01537577 -0.01854840 0.01285719
v 0.00652411 -0.02291260 0.01259768
v 0.00551049 -0.02675381 0.04108750
v 0.01247040 -0.02353860 0.01913670
v 0.01715394 -0.02029380 0.02459984
v 0.00908522 -0.02831692 0.04319263
v 0.01739346 -0.02155180 0.04194009
v 0.00539530 -0.02327363 0.01292254
v 0.01335901 -0.02163072 0.01347026
v 0.01081399 -0.02784140 0.04338226
v 0.00952410 -0.02595259 0.04287892
v 0.01739726 -0.02068006 0.02944416
v 0.00509085 -0.02674339 0.02287344
v 0.01472613 -0.01897101 0.01269064
v 0.01644640 -0.02224339 0.02478571
v 0.01152491 -0.02464192 0.02199542
v 0.00528978 -0.02848103 0.04114603
v 0.00512570 -0.02475692 0.01341104
v 0.00977673 -0.02557060 0.02384056
v 0.01436938 -0.02099079 0.01338344
v 0.01554944 -0.01877009 0.01376429
v 0.01437489 -0.02357983 0.02483809
v 0.01147359 -0.02257221 0.01343989
v 0.00516466 -0.02768371 0.03342935
v 0.00596989 -0.02652856 0.02290234
v 0.00868437 -0.02455644 0.01621964
v 0.01419899 -0.02172576 0.01533236
v 0.01615517 -0.02274680 0.02676058
v 0.01242961 -0.02457236 0.02480953
v 0.00603009 -0.02457545 0.01342334
v 0.00789863 -0.02649710 0.02674545
v 0.00791713 -0.02553111 0.02003960
v 0.01056121 -0.02355864 0.01533048
v 0.00514855 -0.02572291 0.01713255
v 0.00596775 -0.02551899 0.01717776
f 9 5 1
f 9 3 5
f 9 1 2
f 10 5 3
f 10 3 4
f 12 2 1
f 13 1 5
f 13 5 8
f 13 12 1
f 13 8 12
f 14 7 3
f 14 3 9
f 14 9 2
f 16 4 3
f 17 14 2
f 17 7 14
f 19 15 8
f 19 8 5
f 20 5 10
f 20 10 4
f 21 18 12
f 22 4 16
f 22 16 3
f 23 3 7
f 23 7 17
f 23 22 3
f 23 17 22
f 24 18 6
f 25 22 11
f 25 4 22
f 26 19 5
f 26 5 20
f 26 20 15
f 26 15 19
f 27 8 15
f 29 22 17
f 29 11 22
f 29 24 6
f 29 17 24
f 30 24 17
f 30 17 2
f 30 2 24
f 31 24 2
f 31 18 24
f 31 2 12
f 31 12 18
f 32 20 4
f 32 4 25
f 33 27 21
f 33 8 27
f 33 21 12
f 33 12 8
f 34 28 18
f 34 18 21
f 34 21 27
f 35 6 18
f 35 18 28
f 35 29 6
f 35 25 11
f 35 11 29
f 35 32 25
f 35 28 32
f 36 15 20
f 36 20 32
f 36 34 27
f 36 27 15
f 37 28 34
f 37 34 36
f 37 36 32
f 37 32 28

