# https://github.com/mikedh/trimesh
v 0.02987503 -0.00536255 0.04331203
v 0.02955396 -0.00719030 0.04345532
v 0.02647251 -0.00528638 0.01909195
v 0.02362354 -0.00464887 0.01271089
v 0.01646875 -0.02415365 0.04129320
v 0.02660657 -0.00435552 0.01905295
v 0.02737230 -0.00613385 0.02578305
v 0.01684516 -0.02468099 0.04310637
v 0.02748827 -0.00561611 0.04287125
v 0.01606789 -0.01981656 0.01351785
v 0.02512789 -0.00440480 0.01324380
v 0.02749306 -0.00448645 0.02467429
v 0.01822892 -0.02392149 0.04344241
v 0.01751526 -0.02167712 0.04286415
v 0.01457641 -0.02313680 0.02285914
v 0.02249987 -0.01349388 0.01622125
v 0.02550492 -0.00430191 0.01433033
v 0.02161529 -0.01353432 0.01349817
v 0.02751067 -0.00532428 0.02575787
v 0.02952036 -0.00530187 0.04250524
v 0.01472701 -0.02337628 0.02473278
v 0.01537577 -0.01854840 0.01285719
v 0.01883154 -0.01987255 0.02199724
v 0.02545412 -0.00977103 0.02101015
v 0.02623325 -0.00459816 0.02457669
v 0.02356470 -0.00976726 0.01343638
v 0.01449155 -0.02119909 0.01423988
v 0.01477675 -0.02063276 0.01316517
v 0.01799969 -0.02077349 0.02294592
v 0.01972466 -0.01701346 0.01541193
v 0.02585790 -0.01562131 0.04335324
v 0.02635239 -0.00702659 0.02100148
v 0.02874227 -0.01005245 0.04339802
v 0.02249249 -0.01255974 0.01443484
v 0.02447991 -0.00969881 0.01625959
v 0.02452998 -0.00708014 0.01342568
v 0.01971163 -0.01614498 0.01350765
v 0.01515494 -0.02076937 0.01436997
v 0.01524087 -0.02274182 0.02296632
v 0.01886251 -0.02089166 0.02770309
v 0.02161012 -0.01521952 0.01723742
v 0.01789869 -0.01893862 0.01536842
v 0.02387775 -0.01838894 0.04340879
v 0.02354686 -0.01438420 0.02386968
v 0.02632485 -0.00891796 0.02481887
v 0.02437351 -0.01162460 0.02006382
v 0.02346939 -0.01066927 0.01443813
v 0.02533577 -0.00799149 0.01724650
v 0.02533663 -0.00523001 0.01436322
v 0.01706862 -0.02069451 0.01911101
v 0.01453081 -0.02218411 0.01802542
v 0.01714720 -0.02173424 0.02485882
v 0.02066401 -0.01713970 0.01915438
v 0.02073019 -0.01806240 0.02291514
v 0.02442268 -0.01359465 0.02676937
v 0.02159748 -0.01622237 0.02010694
v 0.02161039 -0.01721465 0.02388817
v 0.01610398 -0.02067827 0.01627810
v 0.01785201 -0.01984035 0.01816946
v 0.02256581 -0.01631600 0.02579276
v 0.01520657 -0.02174805 0.01810810
f 7 1 2
f 12 7 3
f 12 3 6
f 13 2 1
f 13 1 9
f 14 9 4
f 14 5 8
f 14 13 9
f 14 8 13
f 15 5 14
f 17 6 3
f 17 11 4
f 19 12 1
f 19 1 7
f 19 7 12
f 20 9 1
f 20 1 12
f 21 8 5
f 21 5 15
f 21 13 8
f 22 15 14
f 22 14 4
f 22 4 18
f 25 12 6
f 25 6 17
f 25 20 12
f 25 9 20
f 25 17 4
f 25 4 9
f 26 18 4
f 26 4 11
f 27 15 22
f 28 27 22
f 32 3 7
f 33 7 2
f 34 16 18
f 34 18 26
f 35 16 34
f 36 26 11
f 36 35 26
f 37 28 22
f 37 22 18
f 37 10 28
f 37 18 30
f 38 28 10
f 38 27 28
f 39 21 15
f 40 29 23
f 41 30 18
f 41 18 16
f 42 37 30
f 42 10 37
f 43 2 13
f 43 13 40
f 43 33 2
f 43 31 33
f 45 32 7
f 45 24 32
f 45 33 24
f 45 7 33
f 46 35 24
f 46 16 35
f 46 44 16
f 47 35 34
f 47 34 26
f 47 26 35
f 48 32 24
f 48 24 35
f 48 3 32
f 48 35 36
f 49 36 11
f 49 11 17
f 49 48 36
f 49 17 3
f 49 3 48
f 50 29 39
f 51 39 15
f 51 15 27
f 52 39 29
f 52 13 21
f 52 21 39
f 52 40 13
f 52 29 40
f 53 30 41
f 54 43 40
f 54 40 23
f 54 23 53
f 55 33 31
f 55 31 44
f 55 44 46
f 55 46 24
f 55 24 33
f 56 41 16
f 56 16 44
f 56 53 41
f 56 54 53
f 57 56 44
f 57 43 54
f 57 54 56
f 58 38 10
f 58 10 42
f 58 51 27
f 58 27 38
f 59 23 29
f 59 29 50
f 59 53 23
f 59 42 30
f 59 30 53
f 59 58 42
f 59 50 58
f 60 57 44
f 60 44 31
f 60 31 43
f 60 43 57
f 61 58 50
f 61 51 58
f 61 50 39
f 61 39 51

