# https://github.com/mikedh/trimesh
v 0.01440692 0.02345770 0.02482937
v 0.01537153 0.02115749 0.02457473
v 0.01474040 0.01457443 0.00679921
v -0.01263363 0.01901595 0.00811309
v -0.01329588 0.02202226 0.01974477
v 0.00418363 0.02423403 0.01162016
v 0.01423258 0.02057491 0.01255671
v -0.00536263 0.02570526 0.02463327
v -0.01301023 0.01479291 0.00736231
v 0.00822727 0.01485844 0.00433758
v 0.01435792 0.02149464 0.01530721
v 0.00885390 0.02077504 0.00828065
v 0.00135680 0.02742807 0.02475877
v -0.00882791 0.02421208 0.01441253
v 0.01551802 0.01540675 0.00929491
v -0.01330538 0.01513850 0.00767542
v 0.01084331 0.01444911 0.00506115
v 0.01064275 0.02328428 0.01442771
v 0.01243918 0.01880858 0.00824101
v -0.00696113 0.02163496 0.00819305
v -0.00523206 0.02699894 0.02471296
v -0.01242800 0.02235114 0.01351059
v -0.00415731 0.02532188 0.01432089
v 0.01421753 0.01967411 0.01073514
v 0.01363500 0.01440389 0.00619350
v 0.01136502 0.02227706 0.01260591
v 0.01140336 0.02426449 0.02006105
v 0.01250982 0.01605656 0.00655622
v 0.00975703 0.01605783 0.00557034
v 0.00598871 0.02166832 0.00821734
v -0.00984722 0.02074029 0.00825388
v 0.00050387 0.02742452 0.02476494
v -0.01270142 0.02371359 0.01997596
v 0.00129899 0.02526558 0.01343689
v -0.00504745 0.02334059 0.00982475
v -0.00790514 0.02520066 0.01722624
v 0.01438291 0.01608593 0.00745803
v 0.01238212 0.02047255 0.01010444
v 0.00782254 0.02235886 0.00986697
v 0.01423085 0.02248463 0.01909121
v 0.01337679 0.02235923 0.01627824
v 0.00697338 0.02651491 0.02476271
v 0.01073825 0.01521943 0.00542912
v 0.01346301 0.01517817 0.00651124
v 0.00800699 0.01623834 0.00513043
v -0.01242893 0.02059295 0.00979523
v -0.00324483 0.02630824 0.01812698
v -0.01151728 0.02331265 0.01529754
v -0.00499419 0.02422235 0.01164608
v -0.00878153 0.02237326 0.00987834
v 0.00418494 0.02337476 0.00988352
v -0.00695936 0.02519980 0.01626749
v -0.00883756 0.02547567 0.02000941
v 0.01340865 0.01699676 0.00751277
v 0.01323219 0.02039231 0.01079268
v 0.00589076 0.02425827 0.01255007
v 0.00591021 0.02242869 0.00905438
v 0.01053404 0.02134107 0.00996790
v 0.01434498 0.02334524 0.02387946
v 0.01062101 0.02425296 0.01813374
v 0.01075616 0.02532489 0.02479947
v 0.00418047 0.02623699 0.01907985
v -0.01156060 0.02056992 0.00899309
v 0.00050580 0.02732553 0.02380830
f 8 5 2
f 8 2 1
f 9 2 5
f 10 9 4
f 11 1 2
f 15 9 3
f 15 2 9
f 15 11 2
f 15 7 11
f 16 9 5
f 16 5 4
f 16 4 9
f 17 9 10
f 21 8 1
f 21 5 8
f 24 7 15
f 25 3 9
f 25 9 17
f 26 18 11
f 26 11 7
f 28 25 17
f 29 12 19
f 29 19 28
f 30 10 20
f 31 20 10
f 31 10 4
f 32 21 1
f 33 22 5
f 33 5 21
f 35 30 20
f 37 24 15
f 37 15 3
f 37 19 24
f 38 24 19
f 38 19 12
f 41 11 18
f 41 40 11
f 41 27 40
f 43 28 17
f 43 17 10
f 43 29 28
f 43 10 29
f 44 3 25
f 44 25 28
f 44 37 3
f 44 28 37
f 45 29 10
f 45 12 29
f 45 30 12
f 45 10 30
f 46 4 5
f 46 5 22
f 47 34 23
f 48 14 22
f 48 22 33
f 49 14 23
f 49 23 34
f 49 34 35
f 50 35 20
f 50 20 31
f 50 49 35
f 50 14 49
f 50 46 22
f 50 22 14
f 51 35 34
f 51 34 6
f 51 30 35
f 52 23 14
f 52 14 36
f 52 47 23
f 52 36 47
f 53 33 21
f 53 47 36
f 53 21 47
f 53 48 33
f 53 36 14
f 53 14 48
f 54 37 28
f 54 28 19
f 54 19 37
f 55 38 26
f 55 26 7
f 55 7 24
f 55 24 38
f 56 18 26
f 56 26 39
f 56 6 34
f 56 51 6
f 56 39 51
f 57 39 12
f 57 12 30
f 57 51 39
f 57 30 51
f 58 38 12
f 58 12 39
f 58 39 26
f 58 26 38
f 59 40 27
f 59 1 11
f 59 11 40
f 60 41 18
f 60 27 41
f 60 18 56
f 61 60 42
f 61 27 60
f 61 59 27
f 61 1 59
f 61 32 1
f 61 42 13
f 61 13 32
f 62 13 42
f 62 56 34
f 62 60 56
f 62 42 60
f 63 31 4
f 63 4 46
f 63 50 31
f 63 46 50
f 64 47 21
f 64 21 32
f 64 32 13
f 64 34 47
f 64 62 34
f 64 13 62

