# https://github.com/mikedh/trimesh
v -0.02501144 0.01211363 0.03722077
v -0.01305896 -0.00449685 0.00002292
v -0.01304927 0.02353385 0.01983259
v -0.01265605 0.01652561 0.00015135
v -0.02544086 0.00124799 0.01249023
v -0.01265314 0.02274323 0.01517852
v -0.02781283 0.00033631 0.03722640
v -0.01807843 -0.00467776 0.00028984
v -0.01261086 0.02181174 0.01240337
v -0.02254809 0.01502862 0.01913677
v -0.01390797 -0.00477319 0.00277493
v -0.02741396 0.00675767 0.02674924
v -0.02353562 0.00584567 0.00982474
v -0.01762940 -0.00286088 0.00026903
v -0.02528304 -0.00444338 0.01316331
v -0.02197242 0.01712213 0.02479563
v -0.01704639 0.01955685 0.01439891
v -0.02845735 0.00597097 0.03732846
v -0.02349516 0.00307759 0.00898452
v -0.02149334 0.01218955 0.01080330
v -0.02443995 0.01044974 0.01629583
v -0.01383690 0.01361266 0.00033915
v -0.02352616 -0.00335975 0.00902979
v -0.02848008 0.00034567 0.02958556
v -0.02383579 -0.00470392 0.01267646
v -0.02665799 0.01151554 0.03731390
v -0.01336269 0.02143851 0.01255393
v -0.01803871 0.01955623 0.01716550
v -0.02445732 0.00307382 0.01069599
v -0.02249384 0.00769323 0.00904819
v -0.02055201 0.01498311 0.01260182
v -0.02244187 0.01036028 0.01077811
v -0.02534888 0.00589033 0.01437430
v -0.02439115 -0.00427439 0.01077956
v -0.02745935 0.00212301 0.02190717
v -0.02844166 0.00215146 0.02957737
v -0.02899116 0.00033818 0.03727147
v -0.01447984 0.02278574 0.01996175
v -0.02744875 0.00965741 0.03733625
v -0.02443988 0.01322392 0.02389160
v -0.01334806 0.02234898 0.01530983
v -0.01512882 0.01944751 0.01078008
v -0.02064048 0.01681275 0.01723436
v -0.01305917 0.01632374 0.00035868
v -0.02250173 0.01311082 0.01444417
v -0.02344194 0.00768667 0.01074248
v -0.02638231 0.00673526 0.02005280
v -0.02449798 0.00582425 0.01169434
v -0.02544708 -0.00059330 0.01252109
v -0.02753720 0.00034280 0.02188438
v -0.02642277 0.00217779 0.01624520
v -0.02838859 0.00310907 0.03055924
v -0.01618057 0.02159154 0.02003217
v -0.01422431 0.02235430 0.01727100
v -0.02734862 0.00770609 0.02863931
v -0.02280882 0.01607406 0.02479363
v -0.02344668 0.01322019 0.01813888
v -0.02166459 0.01686159 0.02193293
v -0.02153995 0.01495486 0.01537333
v -0.01974372 0.01685610 0.01438577
v -0.01967517 0.01489937 0.01079496
v -0.02345858 0.01138591 0.01439453
v -0.02533267 0.00954234 0.01909141
v -0.02534471 0.00770992 0.01626232
f 6 3 2
f 7 3 1
f 9 6 2
f 9 2 4
f 11 2 3
f 11 3 7
f 11 8 2
f 14 4 2
f 14 2 8
f 22 4 14
f 22 14 8
f 23 19 8
f 25 11 7
f 25 15 8
f 25 8 11
f 26 1 3
f 26 7 1
f 27 6 9
f 27 9 4
f 29 13 19
f 29 23 5
f 29 19 23
f 30 19 13
f 30 22 8
f 30 8 19
f 34 23 8
f 34 8 15
f 36 12 35
f 37 24 15
f 37 7 18
f 37 36 24
f 37 18 36
f 37 25 7
f 37 15 25
f 38 26 3
f 38 16 26
f 39 18 7
f 39 7 26
f 41 27 17
f 41 6 27
f 42 27 4
f 42 17 27
f 44 4 22
f 44 22 30
f 44 30 32
f 44 32 20
f 44 42 4
f 44 17 42
f 45 31 20
f 46 32 30
f 46 30 13
f 47 35 12
f 48 29 5
f 48 5 33
f 48 13 29
f 48 46 13
f 48 33 21
f 49 34 15
f 49 5 23
f 49 23 34
f 50 15 24
f 50 36 35
f 50 24 36
f 50 49 15
f 51 33 5
f 51 50 35
f 51 5 49
f 51 49 50
f 51 47 33
f 51 35 47
f 52 36 18
f 52 18 12
f 52 12 36
f 53 28 16
f 53 16 38
f 54 38 3
f 54 3 6
f 54 6 41
f 54 41 17
f 54 17 28
f 54 53 38
f 54 28 53
f 55 12 18
f 55 18 39
f 55 39 26
f 55 26 40
f 56 40 26
f 56 26 16
f 56 10 40
f 57 40 10
f 57 21 40
f 57 10 45
f 58 43 10
f 58 16 28
f 58 28 43
f 58 56 16
f 58 10 56
f 59 10 43
f 59 45 10
f 59 31 45
f 60 43 28
f 60 28 17
f 60 59 43
f 60 31 59
f 60 44 31
f 60 17 44
f 61 44 20
f 61 20 31
f 61 31 44
f 62 57 45
f 62 21 57
f 62 32 46
f 62 48 21
f 62 46 48
f 62 45 20
f 62 20 32
f 63 47 12
f 63 12 55
f 63 55 40
f 63 40 21
f 64 21 33
f 64 33 47
f 64 63 21
f 64 47 63

