# https://github.com/mikedh/trimesh
v 0.02764220 -0.02114067 0.06995123
v 0.03173403 -0.02114199 0.06321900
v 0.03604142 -0.02125927 0.00635177
v 0.00103716 -0.02204851 0.00050592
v 0.00284189 -0.04763441 0.02024343
v -0.02260158 -0.02206102 0.05704208
v 0.03598041 -0.02113680 0.03098141
v 0.01062069 -0.03875719 0.06644336
v 0.01953057 -0.03996980 0.00636061
v -0.01399145 -0.02206102 0.02044905
v 0.03371709 -0.02112233 0.04820620
v 0.02072098 -0.03272239 0.06656112
v -0.02129011 -0.03860230 0.06659653
v 0.00104495 -0.03482868 0.00092057
v 0.03305347 -0.02897649 0.01587501
v 0.01888176 -0.04091543 0.02655072
v 0.02862420 -0.02442646 0.06659980
v 0.01105013 -0.03557639 0.06985133
v -0.00945836 -0.04327517 0.06093562
v -0.01358596 -0.04777408 0.02021754
v -0.02391674 -0.02348046 0.07018800
v 0.02262875 -0.02181052 0.00127479
v 0.03097073 -0.03100739 0.00837542
v 0.03521353 -0.02490173 0.00853152
v 0.03289353 -0.02474928 0.03945997
v 0.00880245 -0.04302568 0.04593706
v 0.01089634 -0.04538023 0.02020128
v 0.01874018 -0.03660074 0.05661716
v 0.02949052 -0.02115556 0.06846163
v 0.02459812 -0.03058159 0.06299537
v 0.02128985 -0.02922588 0.06969425
v 0.00272777 -0.04103162 0.06660259
v -0.02212938 -0.04040995 0.05688284
v -0.00132033 -0.04757469 0.02663503
v 0.02041409 -0.02202854 0.07131484
v -0.01763300 -0.03756291 0.06973443
v 0.03237599 -0.02153981 0.00304242
v 0.02285599 -0.03882447 0.00846013
v 0.03506286 -0.02484412 0.02229093
v 0.03313682 -0.02698241 0.00699155
v 0.03303138 -0.02894035 0.01012633
v 0.03283992 -0.02283489 0.04811298
v 0.00880998 -0.04517806 0.02874180
v 0.01492997 -0.04302912 0.02655973
v 0.01063229 -0.04088008 0.05664542
v 0.02883834 -0.02669571 0.05880503
v 0.02471319 -0.03693375 0.02438326
v 0.02727973 -0.02298997 0.06937263
v 0.00677413 -0.03902916 0.06827283
v -0.02185089 -0.03555443 0.06984331
v -0.01351909 -0.04327592 0.05672753
v -0.00955100 -0.04764233 0.02663682
v -0.00134046 -0.04325570 0.06091463
v -0.01539330 -0.04086563 0.06645415
v 0.02154739 -0.03573724 0.00358084
v 0.02289551 -0.03892273 0.02013702
v 0.03299982 -0.02678899 0.02873475
v 0.03546000 -0.02296090 0.00682991
v 0.03316530 -0.02497952 0.00528197
v 0.03090690 -0.02467149 0.05453537
v 0.03507057 -0.02284110 0.03087352
v 0.00273909 -0.04522346 0.04160309
v 0.01083203 -0.04519182 0.02233063
v 0.01473284 -0.04090435 0.04371634
f 7 6 1
f 10 3 4
f 10 7 3
f 10 6 7
f 11 7 1
f 11 1 2
f 11 2 7
f 18 8 12
f 20 6 10
f 20 10 4
f 20 4 14
f 20 14 9
f 20 9 5
f 21 1 6
f 22 14 4
f 24 3 7
f 27 5 9
f 28 12 8
f 29 17 2
f 29 2 1
f 30 17 12
f 30 12 28
f 31 18 12
f 31 12 17
f 33 6 20
f 33 21 6
f 34 20 5
f 35 1 21
f 35 31 1
f 35 18 31
f 36 18 35
f 37 22 4
f 37 4 3
f 38 27 9
f 39 24 7
f 39 15 24
f 40 24 23
f 41 24 15
f 41 15 23
f 41 23 24
f 42 7 2
f 43 5 27
f 44 27 16
f 45 28 8
f 45 8 32
f 46 2 17
f 46 17 30
f 47 30 28
f 47 46 30
f 47 15 46
f 48 29 1
f 48 1 31
f 48 31 17
f 48 17 29
f 49 32 8
f 49 8 18
f 49 36 32
f 49 18 36
f 50 33 13
f 50 21 33
f 50 13 36
f 50 36 35
f 50 35 21
f 51 33 20
f 52 20 34
f 52 51 20
f 52 19 51
f 53 32 19
f 53 52 34
f 53 19 52
f 53 45 32
f 53 26 45
f 54 36 13
f 54 19 32
f 54 32 36
f 54 51 19
f 54 13 33
f 54 33 51
f 55 9 14
f 55 14 22
f 55 22 37
f 55 38 9
f 55 23 38
f 56 16 27
f 56 27 38
f 56 15 47
f 56 38 23
f 56 23 15
f 56 47 28
f 56 28 16
f 57 39 25
f 57 15 39
f 57 46 15
f 58 3 24
f 58 24 40
f 59 37 3
f 59 58 40
f 59 3 58
f 59 55 37
f 59 40 23
f 59 23 55
f 60 42 2
f 60 25 42
f 60 2 46
f 60 57 25
f 60 46 57
f 61 39 7
f 61 7 42
f 61 42 25
f 61 25 39
f 62 43 26
f 62 5 43
f 62 26 53
f 62 53 34
f 62 34 5
f 63 43 27
f 63 27 44
f 63 44 26
f 63 26 43
f 64 44 16
f 64 16 28
f 64 28 45
f 64 45 26
f 64 26 44

