# https://github.com/mikedh/trimesh
v 0.02109586 0.01486616 0.07008931
v 0.03835743 -0.00383194 0.06746040
v 0.03926191 0.00166306 0.05583512
v 0.00107627 0.01453201 0.05704208
v 0.01105013 -0.03557639 0.06985133
v 0.02044905 0.01453201 0.05704208
v 0.03822086 0.00169551 0.06845122
v 0.00108044 0.01454800 0.06595731
v 0.01963677 -0.03595597 0.05684117
v 0.02919032 -0.01900776 0.06973423
v 0.01351678 -0.02417370 0.07061148
v 0.00107627 -0.02206102 0.05704208
v 0.03363923 -0.01910573 0.05682059
v 0.03151510 -0.01291937 0.06971324
v 0.01888317 -0.03280113 0.06837262
v 0.01917241 -0.03114469 0.06958751
v 0.00111780 -0.02219039 0.06626838
v 0.01142594 -0.04050064 0.05691097
v 0.03539589 -0.01469855 0.05676071
v 0.03089826 -0.02082435 0.06663324
v 0.03219568 0.00153409 0.07013097
v 0.01303636 -0.03522088 0.06940153
v 0.01107765 -0.03964228 0.06311125
v 0.01485865 -0.03894189 0.05666198
v 0.03496565 -0.01457758 0.06096770
v 0.03096553 -0.01879482 0.06811917
v 0.01892743 -0.03477764 0.06491205
v 0.02437002 0.00172255 0.07063752
v 0.01092614 -0.03735533 0.06837436
v 0.01469802 -0.03870223 0.05874272
v 0.03296683 -0.01874946 0.06308747
v 0.01473007 -0.03663829 0.06657320
v 0.01670368 -0.03465496 0.06791976
v 0.01278898 -0.03889552 0.06296079
v 0.01672175 -0.03674393 0.06295297
v 0.03286602 -0.01678512 0.06649063
v 0.01274547 -0.03676536 0.06802280
f 6 1 3
f 6 3 4
f 6 4 1
f 7 2 3
f 7 3 1
f 8 1 4
f 11 8 5
f 11 1 8
f 12 8 4
f 12 4 3
f 13 9 3
f 14 10 2
f 14 2 7
f 16 11 5
f 16 10 11
f 17 5 8
f 17 8 12
f 18 17 12
f 19 13 3
f 19 3 2
f 20 16 15
f 20 10 16
f 20 9 13
f 21 14 7
f 21 7 1
f 21 11 10
f 21 10 14
f 22 16 5
f 22 15 16
f 23 17 18
f 24 18 12
f 24 12 3
f 24 3 9
f 25 19 2
f 25 13 19
f 26 20 2
f 26 2 10
f 26 10 20
f 27 20 15
f 27 9 20
f 28 21 1
f 28 1 11
f 28 11 21
f 29 5 17
f 29 17 23
f 29 22 5
f 30 18 24
f 30 24 9
f 31 20 13
f 31 13 25
f 31 25 2
f 32 29 23
f 33 15 22
f 33 32 27
f 33 27 15
f 34 23 18
f 34 18 30
f 34 32 23
f 35 30 9
f 35 9 27
f 35 34 30
f 35 27 32
f 35 32 34
f 36 31 2
f 36 2 20
f 36 20 31
f 37 33 22
f 37 22 29
f 37 29 32
f 37 32 33

