# https://github.com/mikedh/trimesh
v 0.02407286 0.02477891 0.07039270
v 0.02956245 0.02413064 0.06509475
v 0.01083611 0.03982202 0.06296891
v -0.01382358 0.04585023 0.03755051
v -0.01399145 0.02529467 0.03766930
v 0.02090801 0.03805755 0.03733669
v 0.01865993 0.03359540 0.06798488
v -0.02285322 0.02560433 0.07108303
v 0.00693479 0.04474824 0.03740829
v 0.03290886 0.02499191 0.03760761
v 0.02675566 0.02570142 0.06814767
v 0.01869203 0.03556728 0.06295969
v -0.02260158 0.02529467 0.05704208
v 0.02750601 0.02421778 0.06847331
v -0.01549471 0.04005134 0.06803891
v 0.00061692 0.04221737 0.06478384
v 0.01304053 0.04259675 0.03738029
v 0.02685406 0.03179796 0.04377678
v 0.03174372 0.02420463 0.05036501
v 0.03094677 0.02793242 0.03733502
v 0.02327141 0.02808164 0.06939915
v 0.01474400 0.03753139 0.06483741
v 0.02459828 0.02948441 0.06662611
v -0.02182520 0.04078404 0.05678489
v 0.00291254 0.03858688 0.06950980
v -0.00125886 0.04444643 0.05243016
v 0.00465976 0.04186566 0.06295492
v 0.00884675 0.04193005 0.05450988
v 0.01678029 0.03981399 0.04376337
v 0.02263400 0.03366708 0.05662398
v 0.03073851 0.02573239 0.05025906
v 0.00677496 0.04001299 0.06668119
v 0.02860894 0.02550679 0.06494641
v 0.02263243 0.03142632 0.06654156
v -0.01545089 0.04195634 0.06303029
v -0.02165905 0.03629497 0.06946660
v 0.00276339 0.04014225 0.06809168
v 0.01516163 0.03425573 0.06943437
v 0.00477907 0.04421986 0.04594929
v 0.01268332 0.03976121 0.05876766
v 0.02072477 0.03560884 0.05447238
v 0.02271628 0.03573543 0.04373090
v 0.02673380 0.02968935 0.05667817
v 0.01084808 0.03779288 0.06796452
v 0.02876452 0.02769243 0.05453590
v 0.02115657 0.02999976 0.06942049
v -0.01756490 0.04207365 0.05884264
v -0.01147035 0.04430275 0.05239157
v -0.01355195 0.04189219 0.06491434
v -0.02149297 0.03987981 0.06293499
v -0.01556939 0.03836467 0.06972259
v 0.00678952 0.04424457 0.04164011
v 0.01283297 0.04211230 0.04164296
v 0.02085930 0.03778829 0.03945053
v -0.01357983 0.04425835 0.05023803
v -0.01928869 0.03965999 0.06662329
v -0.02138513 0.03784539 0.06812146
f 6 5 4
f 9 6 4
f 13 4 5
f 14 1 8
f 14 2 11
f 14 13 2
f 14 8 13
f 17 6 9
f 19 5 10
f 19 13 5
f 19 2 13
f 20 10 5
f 20 5 6
f 20 6 18
f 21 14 11
f 21 1 14
f 22 7 12
f 23 21 11
f 24 13 8
f 24 4 13
f 25 8 1
f 26 9 4
f 27 26 16
f 28 17 9
f 28 27 3
f 29 6 17
f 31 19 10
f 31 10 20
f 31 2 19
f 32 22 3
f 32 27 16
f 32 3 27
f 33 23 11
f 33 11 2
f 34 12 7
f 34 21 23
f 34 30 12
f 36 24 8
f 37 16 15
f 37 32 16
f 38 25 1
f 39 9 26
f 39 26 27
f 39 27 28
f 40 28 3
f 40 3 22
f 40 22 12
f 40 12 29
f 41 29 12
f 41 12 30
f 42 30 18
f 42 18 6
f 42 41 30
f 43 18 30
f 43 23 33
f 43 34 23
f 43 30 34
f 44 7 22
f 44 22 32
f 44 38 7
f 44 32 37
f 44 37 25
f 44 25 38
f 45 33 2
f 45 2 31
f 45 43 33
f 45 31 20
f 45 20 18
f 45 18 43
f 46 34 7
f 46 21 34
f 46 7 38
f 46 38 1
f 46 1 21
f 47 4 24
f 48 26 4
f 48 16 26
f 49 15 16
f 49 48 35
f 49 16 48
f 50 24 36
f 50 47 24
f 50 35 47
f 51 37 15
f 51 25 37
f 51 36 8
f 51 8 25
f 52 39 28
f 52 28 9
f 52 9 39
f 53 17 28
f 53 28 40
f 53 40 29
f 53 29 17
f 54 6 29
f 54 29 41
f 54 42 6
f 54 41 42
f 55 47 35
f 55 4 47
f 55 48 4
f 55 35 48
f 56 49 35
f 56 15 49
f 56 35 50
f 57 51 15
f 57 36 51
f 57 15 56
f 57 56 50
f 57 50 36

