# https://github.com/mikedh/trimesh
v 0.03926191 0.00166306 0.05583512
v 0.03539589 -0.01469855 0.05676071
v 0.03528815 -0.02083435 0.03735386
v 0.00107627 0.00161683 0.03766930
v 0.00107627 0.00161683 0.05704208
v 0.03945117 0.00168820 0.03792323
v 0.00107627 -0.02206102 0.05704208
v 0.03286826 -0.02071224 0.05671202
v 0.00107627 -0.02206102 0.03766930
v 0.03499514 -0.02085895 0.03948791
v 0.03512331 -0.01672225 0.05242071
f 1 2 3
f 5 2 1
f 6 1 3
f 6 3 4
f 6 5 1
f 6 4 5
f 7 2 5
f 7 5 4
f 8 2 7
f 9 7 4
f 9 4 3
f 10 8 7
f 10 3 8
f 10 9 3
f 10 7 9
f 11 8 3
f 11 3 2
f 11 2 8

