# https://github.com/mikedh/trimesh
v 0.02560436 0.02437988 0.06986891
v 0.03822086 0.00169551 0.06845122
v 0.03347437 0.02411554 0.03740131
v 0.00107627 0.02529467 0.03766930
v 0.00107627 0.00161683 0.05704208
v 0.01216060 0.02578999 0.07101903
v 0.03817387 0.01034410 0.06584591
v 0.03945117 0.00168820 0.03792323
v 0.00115765 0.02568606 0.06704164
v 0.02437002 0.00172255 0.07063752
v 0.03822914 0.00741710 0.06785488
v 0.03076671 0.02355336 0.06091072
v 0.03219568 0.00153409 0.07013097
v 0.03561942 0.01996863 0.03740169
v 0.00107627 0.00161683 0.03766930
v 0.00108044 0.01454800 0.06595731
v 0.02910652 0.02382185 0.06673142
v 0.02947964 0.01811129 0.06962462
v 0.02733669 0.02215014 0.06967884
v 0.03061715 0.02159519 0.06657626
v 0.03144841 0.01188940 0.06967008
f 6 1 3
f 6 3 4
f 9 6 4
f 11 8 7
f 11 2 8
f 12 7 3
f 13 8 2
f 13 10 5
f 13 1 6
f 13 6 10
f 14 3 7
f 14 7 8
f 15 5 4
f 15 14 8
f 15 4 3
f 15 3 14
f 15 13 5
f 15 8 13
f 16 9 4
f 16 4 5
f 16 5 10
f 16 10 6
f 16 6 9
f 17 12 3
f 17 3 1
f 19 17 1
f 19 11 17
f 19 18 11
f 19 1 18
f 20 7 12
f 20 12 17
f 20 17 11
f 20 11 7
f 21 2 11
f 21 11 18
f 21 13 2
f 21 18 1
f 21 1 13

