# https://github.com/mikedh/trimesh
v 0.02931699 0.03005342 0.03736908
v 0.04864381 -0.00506665 0.02326364
v 0.03099956 0.02981621 0.00706644
v 0.00100705 0.03786939 0.00125130
v 0.00107627 -0.02206102 0.03766930
v 0.02262875 -0.02181052 0.00127479
v 0.00892022 0.04647145 0.01014800
v 0.04881587 0.01072766 0.02336560
v 0.03528815 -0.02083435 0.03735386
v 0.04796037 0.00744512 0.01208011
v 0.02463108 0.01662850 0.00119353
v 0.00103716 -0.02204851 0.00050592
v 0.01900614 0.04211130 0.01389784
v 0.02109440 0.03633192 0.00366322
v 0.00095035 0.04603130 0.03757330
v 0.03819180 0.01191268 0.03743595
v 0.03735560 -0.02089962 0.00855630
v 0.04903193 0.00915008 0.02463714
v 0.04804916 0.01029771 0.01379289
v 0.03593215 -0.01508771 0.00363539
v 0.03582678 0.01402170 0.00345463
v 0.02680366 -0.01125605 0.00118578
v 0.02030068 0.02518582 0.00123017
v 0.02892342 0.03390982 0.01592905
v 0.00087636 0.04354054 0.00284389
v 0.02285289 0.03804202 0.00687113
v 0.01085220 0.04406213 0.03302314
v 0.03719815 -0.02094787 0.02232690
v 0.04787890 -0.00493409 0.01358498
v 0.03094677 0.02793242 0.03733502
v 0.04878038 -0.00219718 0.02497246
v 0.03165505 0.02433350 0.00370735
v 0.03369877 -0.02115910 0.00378685
v 0.02680744 0.00805319 0.00116944
v 0.02460668 -0.01768886 0.00118590
v 0.01170707 0.03368059 0.00127985
v 0.02886142 0.03394196 0.01018468
v 0.02090801 0.03805755 0.03733669
v 0.02880382 0.03180326 0.03083185
v 0.00885573 0.04431044 0.00525955
v 0.00083109 0.04702998 0.00649721
v 0.02745085 0.03035051 0.00375311
v 0.01497155 0.04416509 0.01026745
v 0.00678501 0.04631651 0.02447385
v 0.04764020 -0.00339785 0.01235625
v 0.03709269 0.01594166 0.03733713
v 0.03505998 0.02375485 0.00699909
v 0.03372020 0.02007539 0.00355877
v 0.00895591 0.04260767 0.00356805
v 0.00314848 0.03785882 0.00131996
v 0.03506063 0.02583713 0.01019059
v 0.02692464 0.03590942 0.01008062
v 0.02294020 0.03781282 0.02872038
v 0.01690417 0.04206456 0.02658970
v 0.00887343 0.04419120 0.03734978
v 0.01687340 0.04191211 0.00679183
v 0.00476115 0.04645379 0.00681205
v 0.00075751 0.04683952 0.03096443
v 0.02098761 0.03826784 0.00527612
v 0.03105302 0.02793877 0.00523760
v 0.01486355 0.04422409 0.01589542
v 0.03541951 -0.02092795 0.00531066
v 0.02688867 0.03595803 0.01592897
v 0.01886488 0.04201297 0.01015750
f 9 5 6
f 12 6 5
f 16 5 9
f 16 15 5
f 16 1 15
f 19 18 10
f 19 8 18
f 21 10 20
f 22 21 20
f 23 12 4
f 23 11 12
f 25 4 12
f 28 9 6
f 28 17 2
f 28 2 9
f 29 2 17
f 29 18 2
f 29 10 18
f 30 18 8
f 30 8 1
f 30 1 16
f 31 18 16
f 31 16 9
f 31 9 2
f 31 2 18
f 33 28 6
f 33 17 28
f 34 22 12
f 34 12 11
f 34 11 21
f 34 21 22
f 35 6 12
f 35 12 22
f 35 22 20
f 35 33 6
f 35 20 33
f 36 23 4
f 36 14 23
f 37 24 8
f 37 8 19
f 38 15 1
f 39 1 8
f 39 8 24
f 41 40 25
f 41 25 12
f 42 26 3
f 42 32 23
f 42 23 14
f 45 20 10
f 45 10 29
f 46 30 16
f 46 16 18
f 46 18 30
f 47 19 10
f 47 3 19
f 48 10 21
f 48 21 11
f 48 11 23
f 48 23 32
f 48 47 10
f 48 32 47
f 49 14 36
f 49 25 40
f 50 36 4
f 50 4 25
f 50 49 36
f 50 25 49
f 51 37 19
f 51 19 3
f 51 3 37
f 52 37 3
f 52 3 26
f 52 24 37
f 53 38 1
f 53 1 39
f 54 27 38
f 54 53 13
f 54 38 53
f 55 38 27
f 55 15 38
f 55 44 15
f 55 27 44
f 56 49 40
f 56 40 7
f 56 7 43
f 57 41 7
f 57 7 40
f 57 40 41
f 58 5 15
f 58 15 44
f 58 44 7
f 58 7 41
f 58 41 12
f 58 12 5
f 59 42 14
f 59 26 42
f 59 56 26
f 59 14 49
f 59 49 56
f 60 42 3
f 60 32 42
f 60 47 32
f 60 3 47
f 61 43 7
f 61 7 44
f 61 44 27
f 61 27 54
f 61 54 13
f 61 13 43
f 62 33 20
f 62 20 45
f 62 17 33
f 62 45 29
f 62 29 17
f 63 52 13
f 63 24 52
f 63 13 53
f 63 53 39
f 63 39 24
f 64 43 13
f 64 13 52
f 64 52 26
f 64 56 43
f 64 26 56

