# https://github.com/mikedh/trimesh
v 0.00095035 0.04603130 0.03757330
v 0.00107627 -0.02206102 0.03766930
v 0.00104495 -0.03482868 0.00092057
v -0.03299727 0.02711119 0.00133976
v -0.05522026 0.00503666 0.03831882
v 0.00087636 0.04354054 0.00284389
v 0.00100705 0.03786939 0.00125130
v -0.03166657 0.03803332 0.03730168
v -0.03295128 -0.03665667 0.03759058
v 0.00083109 0.04702998 0.00649721
v -0.01602691 0.03785276 0.00135283
v -0.01966433 0.04432746 0.03736423
v -0.04581126 0.02584397 0.01007453
v 0.00107627 -0.03497621 0.02044905
v -0.05514776 -0.00849759 0.03831896
v -0.01962355 0.04454767 0.00507117
v -0.01959773 0.04644588 0.02018723
v -0.04153614 0.02774921 0.03725794
v -0.04439828 -0.02109569 0.00378955
v -0.03231686 -0.03997468 0.01813278
v -0.01399145 -0.03282367 0.03766930
v -0.00957002 0.04652108 0.00505524
v -0.03195121 0.03643325 0.00366444
v -0.01149217 0.04650315 0.03521490
v -0.02553810 0.04430093 0.01802946
v -0.04370632 0.02794586 0.02225635
v -0.04879599 0.00569034 0.00347796
v -0.03941392 -0.01758207 0.00138174
v -0.03229786 -0.03786984 0.03315722
v -0.03214090 -0.03975798 0.00828718
v -0.04165178 -0.03094216 0.01804018
v -0.00337226 0.04653397 0.00504972
v -0.00955835 0.04502137 0.00351276
v -0.01960807 0.04644066 0.00854272
v -0.01980065 0.04289962 0.00356856
v -0.02662528 0.03345466 0.00144876
v -0.01557610 0.04631757 0.03089467
v 0.00072151 0.04659861 0.03308904
v -0.02559802 0.04210844 0.03517877
v -0.02351675 0.04426899 0.02656833
v -0.03566110 0.03797129 0.01013792
v -0.04795794 0.02181648 0.01588808
v -0.03758012 0.03594474 0.01802961
v -0.04035132 0.02818017 0.00383270
v -0.05255809 -0.00670515 0.01021112
v -0.04156147 -0.01116194 0.00134746
v -0.03757951 -0.03491184 0.02226278
v -0.02445630 -0.03455295 0.00142455
v -0.04176382 -0.02693473 0.03728729
v -0.03352864 -0.03884378 0.00854612
v -0.00337167 0.04499438 0.00348614
v -0.01751627 0.04632611 0.00683499
v -0.02563328 0.04225324 0.00535930
v -0.02239901 0.03561400 0.00140691
v -0.01758137 0.04632353 0.02658565
v -0.00135049 0.04659454 0.03524833
v -0.02963664 0.04206582 0.01802142
v -0.02161434 0.04418580 0.03301661
v -0.02753241 0.04195639 0.02866812
v -0.02960405 0.04189352 0.00855510
v -0.04591818 0.02590096 0.01188072
v -0.05244443 0.00767382 0.01002959
v -0.04171056 0.02988002 0.02654007
v -0.03942854 0.01864829 0.00145162
f 5 2 1
f 7 1 2
f 7 3 4
f 10 7 6
f 10 1 7
f 11 7 4
f 11 6 7
f 12 8 5
f 12 5 1
f 14 7 2
f 14 3 7
f 15 2 5
f 18 5 8
f 20 3 14
f 21 14 2
f 21 15 9
f 21 2 15
f 24 12 1
f 24 10 17
f 26 5 18
f 29 20 14
f 29 21 9
f 29 14 21
f 30 3 20
f 32 22 10
f 32 10 6
f 33 6 11
f 33 16 22
f 33 22 32
f 34 17 10
f 34 10 22
f 34 25 17
f 35 33 11
f 35 16 33
f 36 4 23
f 36 23 35
f 37 24 17
f 37 12 24
f 38 1 10
f 39 8 12
f 40 17 25
f 42 5 26
f 44 23 4
f 44 27 13
f 44 41 23
f 44 13 41
f 45 27 19
f 45 15 5
f 45 31 15
f 45 19 31
f 46 4 3
f 46 3 28
f 46 28 19
f 46 19 27
f 47 29 9
f 47 20 29
f 48 28 3
f 48 3 30
f 48 30 19
f 48 19 28
f 49 9 15
f 49 15 31
f 49 47 9
f 49 31 47
f 50 30 20
f 50 47 31
f 50 20 47
f 50 31 19
f 50 19 30
f 51 33 32
f 51 32 6
f 51 6 33
f 52 34 22
f 52 22 16
f 52 16 34
f 53 35 23
f 53 16 35
f 53 34 16
f 54 11 4
f 54 4 36
f 54 36 35
f 54 35 11
f 55 37 17
f 55 17 12
f 55 12 37
f 56 24 1
f 56 1 38
f 56 38 10
f 56 10 24
f 57 43 8
f 57 41 43
f 58 12 17
f 58 17 40
f 58 40 39
f 58 39 12
f 59 40 25
f 59 39 40
f 59 25 57
f 59 57 8
f 59 8 39
f 60 25 34
f 60 34 53
f 60 53 23
f 60 23 41
f 60 57 25
f 60 41 57
f 61 42 26
f 61 13 42
f 61 26 43
f 61 43 41
f 61 41 13
f 62 42 13
f 62 13 27
f 62 27 45
f 62 45 5
f 62 5 42
f 63 43 26
f 63 26 18
f 63 18 8
f 63 8 43
f 64 44 4
f 64 27 44
f 64 46 27
f 64 4 46

