# https://github.com/mikedh/trimesh
v -0.02206881 0.03505833 0.07011664
v -0.01407324 -0.02221301 0.06638506
v -0.01399145 0.02529467 0.05704208
v -0.03197012 0.03444008 0.05673971
v -0.05080948 -0.01004612 0.06124249
v -0.02182520 0.04078404 0.05678489
v -0.01408601 0.02558354 0.06740451
v -0.03590874 -0.02304063 0.06967075
v -0.03754754 0.02378230 0.06808524
v -0.02212938 -0.04040995 0.05688284
v -0.02728185 0.03551758 0.06642445
v -0.02223108 -0.03424723 0.07040174
v -0.02170222 0.03853756 0.06678341
v -0.04984829 0.01040437 0.05609421
v -0.04218029 0.00367586 0.06977999
v -0.01399145 -0.02206102 0.05704208
v -0.03718479 -0.02652557 0.06477711
v -0.02935146 0.03573891 0.06091558
v -0.02780214 0.03216292 0.06973982
v -0.02109203 0.02637608 0.07091135
v -0.02159354 -0.03733356 0.06843343
v -0.02170792 0.04052258 0.05889858
v -0.03733469 0.02570534 0.06651820
v -0.05030963 -0.01431245 0.05642653
v -0.02350066 0.04004215 0.05666364
v -0.04211422 -0.00257415 0.06977977
v -0.05074861 0.00489976 0.06133176
v -0.02174680 -0.03956302 0.06311727
v -0.03534290 -0.02659399 0.06796981
v -0.02538935 0.03568581 0.06803918
v -0.03986849 0.01596242 0.06963390
v -0.02337023 0.03978486 0.05877679
v -0.03136311 0.03370052 0.06294770
v -0.03580870 0.02408482 0.06952312
v -0.02773321 -0.03732989 0.05671016
v -0.05024031 -0.01352492 0.05795794
v -0.02970585 0.03620964 0.05669273
v -0.04000388 -0.01487596 0.06949381
v -0.05014168 0.00824482 0.05929855
v -0.02924137 -0.03448894 0.06475944
v -0.02933770 -0.03259060 0.06804277
v -0.02331482 0.03785492 0.06657467
v -0.02389369 0.03464658 0.06980155
v -0.04156012 0.01578830 0.06796125
v -0.03992366 -0.02502473 0.05671474
v -0.02389555 -0.03959880 0.05676672
v -0.04152605 0.01973610 0.06481318
v -0.02519966 -0.03653205 0.06659366
v -0.02744166 -0.03678404 0.06089887
v -0.02575287 -0.03336285 0.06971376
v -0.02331773 -0.03673220 0.06802217
v -0.02339407 -0.03877588 0.06294244
f 7 2 3
f 7 3 6
f 12 2 7
f 13 1 7
f 16 3 2
f 20 12 7
f 20 7 1
f 20 1 19
f 21 2 12
f 22 13 7
f 22 7 6
f 23 4 14
f 23 19 11
f 25 6 3
f 25 3 16
f 25 22 6
f 26 8 12
f 26 20 15
f 26 12 20
f 26 15 5
f 27 5 15
f 27 24 5
f 27 14 24
f 28 16 2
f 28 10 16
f 28 2 21
f 29 8 5
f 30 11 19
f 31 15 20
f 31 27 15
f 32 22 25
f 33 18 4
f 33 4 23
f 33 23 11
f 33 11 18
f 34 23 9
f 34 19 23
f 34 9 31
f 34 31 20
f 34 20 19
f 35 24 14
f 36 24 17
f 36 5 24
f 36 29 5
f 36 17 29
f 37 25 14
f 37 14 4
f 37 4 18
f 37 32 25
f 37 18 32
f 38 26 5
f 38 5 8
f 38 8 26
f 39 14 27
f 40 17 35
f 41 29 17
f 41 17 40
f 42 30 13
f 42 11 30
f 42 13 22
f 42 22 32
f 42 32 18
f 42 18 11
f 43 30 19
f 43 19 1
f 43 1 13
f 43 13 30
f 44 31 9
f 44 27 31
f 45 35 17
f 45 17 24
f 45 24 35
f 46 10 28
f 46 16 10
f 46 25 16
f 46 35 14
f 46 14 25
f 47 23 14
f 47 14 39
f 47 9 23
f 47 39 27
f 47 44 9
f 47 27 44
f 48 28 21
f 48 41 40
f 49 40 35
f 49 35 46
f 50 21 12
f 50 12 8
f 50 8 29
f 50 29 41
f 51 48 21
f 51 41 48
f 51 50 41
f 51 21 50
f 52 28 48
f 52 48 40
f 52 40 49
f 52 49 46
f 52 46 28

