# https://github.com/mikedh/trimesh
v 0.05228494 0.00742933 0.06961596
v 0.05623157 -0.00486067 0.06644834
v 0.05648572 0.01073974 0.06659187
v 0.05792697 0.00796818 0.05090376
v 0.03743832 -0.00689796 0.05704974
v 0.05833164 -0.00377077 0.05344476
v 0.05411992 -0.00028165 0.06948635
v 0.03638838 0.01179975 0.05699926
v 0.05805891 -0.00482913 0.05578066
v 0.05840930 0.01095773 0.05326405
v 0.05783687 0.00379004 0.05085367
v 0.05601991 -0.00362710 0.06777407
v 0.05614035 0.00912718 0.06788571
v 0.03835743 -0.00383194 0.06746040
v 0.03817387 0.01034410 0.06584591
v 0.05429283 0.01030918 0.06774300
v 0.05415098 0.00562431 0.06950183
v 0.04437858 -0.00025785 0.06970258
v 0.03801708 -0.00542929 0.06621187
v 0.04446718 0.01022542 0.06766046
v 0.05227934 -0.00191056 0.06959698
v 0.03844059 0.00874534 0.06735204
v 0.05232473 -0.00471048 0.06801604
v 0.04667054 0.00738650 0.06959507
v 0.04658621 -0.00196745 0.06959176
v 0.04438623 0.00552339 0.06966465
v 0.04229468 -0.00500511 0.06757603
f 9 3 2
f 9 2 5
f 9 5 6
f 10 6 4
f 10 9 6
f 10 3 9
f 10 8 3
f 10 4 8
f 11 6 5
f 11 4 6
f 11 8 4
f 11 5 8
f 12 2 3
f 13 12 3
f 13 7 12
f 16 13 3
f 16 1 13
f 17 13 1
f 17 7 13
f 19 5 2
f 19 8 5
f 20 3 8
f 20 8 15
f 20 16 3
f 21 17 1
f 21 7 17
f 21 1 18
f 21 12 7
f 22 19 14
f 22 15 8
f 22 8 19
f 22 20 15
f 23 19 2
f 23 2 12
f 23 12 21
f 24 1 16
f 24 16 20
f 24 20 22
f 25 21 18
f 25 18 14
f 25 23 21
f 26 22 14
f 26 14 18
f 26 24 22
f 26 18 1
f 26 1 24
f 27 14 19
f 27 19 23
f 27 25 14
f 27 23 25

