# https://github.com/mikedh/trimesh
v 0.05614035 0.00912718 0.06788571
v 0.06957893 -0.00199397 0.04796153
v 0.06667524 0.01208196 0.02950879
v 0.04798195 0.00561004 0.01170034
v 0.05623157 -0.00486067 0.06644834
v 0.06553143 -0.00309242 0.02241707
v 0.04881587 0.01072766 0.02336560
v 0.06742241 0.01050333 0.05196588
v 0.06532142 -0.00192019 0.05981844
v 0.06951895 -0.00035024 0.02777294
v 0.06168299 0.00892910 0.01869242
v 0.04787890 -0.00493409 0.01358498
v 0.06843615 -0.00447356 0.04394368
v 0.06123149 0.01233614 0.05691881
v 0.04864381 -0.00506665 0.02326364
v 0.05780701 -0.00200237 0.06759473
v 0.06522710 0.00758626 0.05989009
v 0.06940240 0.00935673 0.04589758
v 0.05976861 -0.00013525 0.01658375
v 0.06744639 0.00738077 0.02411857
v 0.04804916 0.01029771 0.01379289
v 0.06629266 -0.00442784 0.02561758
v 0.06604431 -0.00457483 0.05427289
v 0.06969317 -0.00319279 0.03167146
v 0.05648572 0.01073974 0.06659187
v 0.05931817 0.01231078 0.02470163
v 0.06660143 0.01202852 0.04816286
v 0.05627049 -0.00214125 0.06834736
v 0.05975749 -0.00338250 0.06563718
v 0.05777324 0.00894650 0.06718359
v 0.06719599 0.00748630 0.05594390
v 0.05982448 0.00563768 0.01662456
v 0.04957720 -0.00194949 0.01242990
v 0.05818480 -0.00457731 0.01785170
v 0.06748367 -0.00193323 0.02429724
v 0.06729896 0.01046389 0.02616251
v 0.05792544 0.00917910 0.01652821
v 0.04781794 -0.00217632 0.01199194
v 0.06843646 -0.00440218 0.03154906
v 0.06743065 -0.00324144 0.05403705
v 0.06962662 -0.00331497 0.04382982
v 0.06935561 0.00924521 0.02975851
v 0.06130595 0.01040533 0.06344298
v 0.06316424 0.01222916 0.02512324
v 0.06475776 0.01193055 0.05450306
v 0.06348912 -0.00320163 0.06185739
v 0.05790959 -0.00453025 0.06590281
v 0.06724028 -0.00196403 0.05599291
v 0.06954410 0.00755144 0.04793186
v 0.06517185 0.01034452 0.05791347
v 0.04952876 0.00570800 0.01217885
v 0.06556346 0.00896445 0.02225109
v 0.06157528 -0.00312703 0.01866900
v 0.05366501 -0.00333895 0.01461258
v 0.06775616 -0.00321773 0.02587821
v 0.04983635 -0.00482761 0.01407942
v 0.06946623 0.00572621 0.02781369
v 0.06299483 0.01215133 0.05677836
v 0.05808099 0.01060655 0.06586622
v 0.05986833 0.01051187 0.01855691
v 0.06186968 -0.00459604 0.06213583
v 0.04991824 0.01012986 0.01410840
v 0.05615365 0.01025524 0.01636531
f 15 1 7
f 21 15 7
f 21 12 15
f 22 15 12
f 23 15 13
f 23 5 15
f 25 14 7
f 25 7 1
f 26 7 14
f 26 21 7
f 27 3 14
f 27 18 3
f 27 8 18
f 28 15 5
f 28 1 15
f 29 16 28
f 30 16 17
f 30 28 16
f 30 1 28
f 30 25 1
f 34 22 12
f 34 6 22
f 35 20 10
f 35 6 19
f 35 19 20
f 37 11 32
f 38 21 4
f 38 12 21
f 38 4 33
f 39 13 15
f 39 15 22
f 39 24 13
f 41 13 24
f 41 2 40
f 41 40 23
f 41 23 13
f 42 20 36
f 42 36 3
f 42 3 18
f 43 30 17
f 44 26 14
f 44 14 3
f 44 3 36
f 44 21 26
f 45 8 27
f 46 17 16
f 46 16 29
f 46 9 17
f 46 23 40
f 47 29 28
f 47 28 5
f 48 31 17
f 48 17 9
f 48 46 40
f 48 9 46
f 48 40 2
f 49 18 8
f 49 8 31
f 49 2 41
f 49 41 24
f 49 42 18
f 49 48 2
f 49 31 48
f 50 31 8
f 50 17 31
f 50 43 17
f 50 8 45
f 51 32 19
f 51 37 32
f 51 33 4
f 51 19 33
f 52 20 19
f 52 19 32
f 52 32 11
f 52 36 20
f 53 19 6
f 53 6 34
f 54 53 34
f 54 33 19
f 54 19 53
f 55 22 6
f 55 6 35
f 55 39 22
f 55 24 39
f 55 35 10
f 55 10 24
f 56 38 33
f 56 12 38
f 56 33 54
f 56 54 34
f 56 34 12
f 57 24 10
f 57 10 20
f 57 20 42
f 57 49 24
f 57 42 49
f 58 14 25
f 58 50 45
f 58 43 50
f 58 45 27
f 58 27 14
f 59 25 30
f 59 30 43
f 59 58 25
f 59 43 58
f 60 11 37
f 60 52 11
f 60 44 36
f 60 36 52
f 61 46 29
f 61 29 47
f 61 23 46
f 61 47 5
f 61 5 23
f 62 51 4
f 62 4 21
f 62 37 51
f 63 21 44
f 63 44 60
f 63 62 21
f 63 60 37
f 63 37 62

