# https://github.com/mikedh/trimesh
v 0.03914777 0.00913703 0.05807572
v 0.04171193 -0.00248964 0.05811615
v 0.04177585 0.00579083 0.05791941
v 0.03896924 0.01216074 0.03112732
v 0.03692580 -0.01743249 0.03542235
v 0.03976074 -0.00878647 0.03096754
v 0.03745502 0.01447369 0.03764322
v 0.03743832 -0.00689796 0.05704974
v 0.03985327 0.00784659 0.03096703
v 0.03740901 -0.01765223 0.03117559
v 0.03880170 0.01269395 0.03134278
v 0.03694877 -0.01531532 0.04187987
v 0.03778537 -0.00608518 0.05742557
v 0.03739530 0.00998567 0.05715042
v 0.03771605 -0.01695770 0.03092040
v 0.03692284 0.01433922 0.04187710
f 1 2 3
f 6 3 2
f 7 1 3
f 9 4 3
f 9 3 6
f 10 2 5
f 11 7 3
f 11 3 4
f 11 10 7
f 11 4 10
f 12 5 2
f 12 2 8
f 13 8 2
f 13 2 1
f 14 12 8
f 14 13 1
f 14 8 13
f 15 9 6
f 15 6 2
f 15 2 10
f 15 10 4
f 15 4 9
f 16 10 5
f 16 7 10
f 16 5 12
f 16 12 14
f 16 14 1
f 16 1 7

