# https://github.com/mikedh/trimesh
v 0.02325292 -0.03855497 0.02090524
v 0.01910901 -0.04149323 0.02024451
v 0.02020952 -0.03465119 0.00255970
v -0.03260811 -0.03410251 0.00296350
v -0.03537884 -0.03721348 0.02070102
v -0.01152586 -0.04741514 0.00675005
v 0.01906418 -0.04138358 0.00843198
v -0.01358596 -0.04777408 0.02021754
v -0.01389037 -0.03886032 0.00141694
v -0.02755113 -0.04329539 0.01014402
v 0.01688439 -0.04310506 0.01017411
v 0.01917722 -0.03932420 0.00518112
v 0.00284189 -0.04763441 0.02024343
v -0.02191482 -0.04191282 0.00358854
v -0.02031406 -0.03471012 0.00110482
v -0.03179401 -0.03921244 0.00679959
v -0.02171400 -0.04549123 0.02022256
v -0.01557194 -0.04753123 0.00848599
v 0.01686737 -0.04312725 0.01595751
v 0.00483154 -0.04383330 0.00365617
v 0.01089634 -0.04538023 0.02020128
v 0.00272462 -0.04760890 0.00847028
v 0.00744993 -0.03476188 0.00111541
v -0.02025538 -0.03671661 0.00140923
v -0.02566111 -0.04317809 0.00698124
v -0.03003298 -0.03754874 0.00376782
v -0.02982170 -0.04143857 0.02019049
v -0.02168691 -0.04554502 0.00838159
v -0.01559662 -0.04755418 0.01811006
v -0.01559614 -0.04571147 0.00522092
v 0.01117870 -0.04176796 0.00363948
v 0.00485161 -0.04754288 0.01598032
v -0.00135910 -0.04745600 0.00677864
v 0.00891254 -0.04524726 0.00672761
v -0.00110080 -0.03890934 0.00129909
v -0.01566317 -0.04398512 0.00357278
v -0.02943131 -0.04094794 0.00698672
v -0.03216069 -0.03564063 0.00357589
v -0.02168857 -0.04356803 0.00499501
v -0.03217218 -0.03983643 0.02026240
v -0.02766484 -0.04320243 0.01592357
v -0.01964721 -0.04558216 0.00678865
v 0.01937119 -0.03763054 0.00378260
v 0.00480117 -0.04750211 0.01001063
v 0.01090073 -0.04535006 0.00850669
v 0.01099486 -0.04339439 0.00514704
v 0.00473025 -0.04544034 0.00522138
v 0.00741373 -0.03676254 0.00133056
v 0.01480438 -0.04300976 0.00697456
f 5 1 3
f 5 3 4
f 8 1 5
f 11 7 1
f 12 3 1
f 12 1 7
f 13 1 8
f 16 10 5
f 16 5 4
f 17 8 5
f 19 11 1
f 19 1 2
f 21 2 1
f 21 1 13
f 21 19 2
f 22 18 6
f 22 13 8
f 22 8 18
f 23 15 4
f 23 4 3
f 24 14 4
f 24 4 15
f 24 15 9
f 26 4 14
f 27 17 5
f 28 17 10
f 28 10 25
f 29 18 8
f 29 8 17
f 29 28 18
f 29 17 28
f 30 6 18
f 32 21 13
f 32 13 22
f 33 22 6
f 35 9 15
f 35 15 23
f 36 24 9
f 36 14 24
f 36 20 33
f 36 33 6
f 36 6 30
f 36 35 20
f 36 9 35
f 37 25 10
f 37 10 16
f 37 26 25
f 37 16 26
f 38 26 16
f 38 16 4
f 38 4 26
f 39 26 14
f 39 25 26
f 39 36 30
f 39 14 36
f 40 27 5
f 40 5 10
f 41 10 17
f 41 17 27
f 41 40 10
f 41 27 40
f 42 30 18
f 42 18 28
f 42 39 30
f 42 28 25
f 42 25 39
f 43 31 3
f 43 3 12
f 43 12 31
f 44 32 22
f 45 21 32
f 45 11 19
f 45 19 21
f 45 32 44
f 45 44 22
f 45 22 34
f 46 20 31
f 46 31 12
f 47 33 20
f 47 46 34
f 47 20 46
f 47 34 22
f 47 22 33
f 48 31 20
f 48 20 35
f 48 3 31
f 48 35 23
f 48 23 3
f 49 7 11
f 49 11 45
f 49 45 34
f 49 34 46
f 49 46 12
f 49 12 7

