# https://github.com/mikedh/trimesh
v -0.06276241 0.00160127 0.06763833
v -0.05024031 -0.01352492 0.05795794
v -0.05014168 0.00824482 0.05929855
v -0.05005860 0.01188302 0.03776114
v -0.05459212 -0.00985459 0.03850058
v -0.04961592 -0.01616391 0.04416505
v -0.06849395 0.00212783 0.06626484
v -0.05176203 -0.00645563 0.06290567
v -0.04984829 0.01040437 0.05609421
v -0.05005945 -0.01500781 0.03779480
v -0.06518571 0.00234781 0.06760266
v -0.05669138 0.00312627 0.04069944
v -0.06825068 -0.00807896 0.06625862
v -0.05080948 -0.01004612 0.06124249
v -0.05166489 0.00098714 0.06285489
v -0.04982278 -0.01588757 0.05036173
v -0.05360983 0.00962379 0.05432866
v -0.05446479 0.00669796 0.03845041
v -0.06540417 0.00340061 0.06522765
v -0.06264128 -0.00727571 0.06798928
v -0.06698733 -0.00883676 0.06413052
v -0.06987442 -0.00570104 0.06290000
v -0.06051258 0.00049535 0.06719325
v -0.06678894 -0.00885340 0.06666744
v -0.07011363 0.00071875 0.06492839
v -0.06500303 -0.00828072 0.06756876
v -0.06066546 -0.00587363 0.06758565
v -0.05666377 -0.00634487 0.04073503
v -0.07022085 -0.00638704 0.06486083
v -0.05128048 -0.01397286 0.03806439
v -0.04978460 -0.01605184 0.04833680
v -0.05116058 0.01077177 0.03796182
v -0.06978648 0.00012454 0.06327324
v -0.06429057 -0.00893057 0.06678724
v -0.06846109 -0.00730253 0.06278736
f 9 3 2
f 9 6 4
f 10 4 6
f 11 1 3
f 11 3 9
f 14 2 3
f 15 14 3
f 15 8 14
f 16 9 2
f 16 6 9
f 17 9 4
f 17 4 7
f 18 10 5
f 18 4 10
f 18 5 12
f 19 11 9
f 19 7 11
f 19 17 7
f 19 9 17
f 20 1 11
f 20 2 14
f 21 10 6
f 23 15 3
f 23 3 1
f 24 16 2
f 24 13 21
f 25 7 4
f 26 20 11
f 26 13 24
f 26 11 7
f 26 7 13
f 27 20 14
f 27 14 8
f 27 8 15
f 27 15 23
f 27 23 1
f 27 1 20
f 28 22 12
f 28 12 5
f 28 5 22
f 29 21 13
f 29 25 22
f 29 13 7
f 29 7 25
f 30 22 5
f 30 5 10
f 30 29 22
f 31 24 21
f 31 21 6
f 31 6 16
f 31 16 24
f 32 25 4
f 32 4 18
f 32 18 25
f 33 25 18
f 33 18 12
f 33 12 22
f 33 22 25
f 34 26 24
f 34 24 2
f 34 2 20
f 34 20 26
f 35 10 21
f 35 21 29
f 35 30 10
f 35 29 30

