# https://github.com/mikedh/trimesh
v -0.03504845 0.02212383 0.07051454
v -0.01399145 -0.03282367 0.05704208
v -0.01382358 0.04585023 0.03755051
v -0.03985493 0.02997316 0.03729830
v -0.05030963 -0.01431245 0.05642653
v -0.01399145 -0.03282367 0.03766930
v -0.03204265 0.03241036 0.06510034
v -0.03233046 -0.03378347 0.05680899
v -0.04984829 0.01040437 0.05609421
v -0.01362271 0.04452814 0.04813439
v -0.01966433 0.04432746 0.03736423
v -0.04903811 -0.01592598 0.03800737
v -0.03295128 -0.03665667 0.03759058
v -0.04099028 0.02052317 0.06525401
v -0.01372993 0.04329652 0.05684194
v -0.04176382 -0.02693473 0.03728729
v -0.03166657 0.03803332 0.03730168
v -0.01548856 0.04414009 0.04807942
v -0.04872894 0.01338178 0.03761463
v -0.03225541 -0.03575967 0.04605577
v -0.03740326 -0.03082577 0.04586832
v -0.03940183 0.02369392 0.06490542
v -0.02350066 0.04004215 0.05666364
v -0.03416428 -0.03561794 0.03739284
v -0.04984707 -0.01522559 0.05416926
v -0.03540856 0.03375871 0.04371467
v -0.04389607 0.02395790 0.03732995
v -0.03346375 -0.03475778 0.04587912
v -0.03345905 -0.03281471 0.05662283
v -0.03313556 0.03152055 0.06477221
v -0.04153118 0.02579346 0.04590979
v -0.01763993 0.04233967 0.05672621
v -0.02748299 0.03777525 0.05662850
v -0.02347717 0.04200456 0.04374957
v -0.04597264 0.01989132 0.03732827
v -0.03729765 -0.02863814 0.05660988
v -0.03331242 0.03368442 0.05440584
v -0.03731475 0.02754318 0.06290018
v -0.01952837 0.04411100 0.03947765
v -0.02751623 0.03982768 0.04371431
v -0.01957059 0.04203856 0.05449781
v -0.04938195 0.01195380 0.05219675
v -0.03149506 0.03565544 0.05229606
v -0.03539245 0.03164741 0.05446125
v -0.03949135 0.02774117 0.05018465
v -0.02155177 0.04190982 0.05018885
v -0.03154811 0.03778501 0.03941756
v -0.04145102 0.02371985 0.05446422
v -0.03954447 0.02991638 0.03943780
f 8 2 1
f 8 1 5
f 10 6 3
f 10 2 6
f 11 3 6
f 13 6 2
f 14 9 5
f 14 5 1
f 15 7 1
f 15 1 2
f 15 2 10
f 17 16 4
f 17 11 16
f 18 10 3
f 18 15 10
f 19 16 12
f 19 12 5
f 19 5 9
f 20 13 2
f 20 2 8
f 22 14 1
f 22 9 14
f 24 16 11
f 24 11 6
f 24 6 13
f 24 21 16
f 25 5 12
f 25 12 16
f 25 21 5
f 25 16 21
f 26 17 4
f 28 20 8
f 28 13 20
f 28 24 13
f 29 28 8
f 29 21 24
f 29 24 28
f 30 22 1
f 30 1 7
f 31 27 9
f 31 4 27
f 32 23 7
f 32 7 15
f 32 15 18
f 33 7 23
f 34 11 17
f 35 16 19
f 35 27 4
f 35 4 16
f 36 29 8
f 36 8 5
f 36 5 21
f 36 21 29
f 37 30 7
f 38 22 30
f 38 9 22
f 39 32 18
f 39 11 34
f 39 18 3
f 39 3 11
f 40 33 23
f 40 23 34
f 40 34 17
f 41 23 32
f 41 32 39
f 42 35 19
f 42 19 9
f 42 9 27
f 42 27 35
f 43 37 7
f 43 7 33
f 43 26 37
f 44 37 26
f 44 38 30
f 44 30 37
f 45 4 31
f 45 38 44
f 46 34 23
f 46 23 41
f 46 41 39
f 46 39 34
f 47 43 33
f 47 17 26
f 47 26 43
f 47 40 17
f 47 33 40
f 48 45 31
f 48 31 9
f 48 9 38
f 48 38 45
f 49 45 44
f 49 4 45
f 49 44 26
f 49 26 4

