# https://github.com/mikedh/trimesh
v -0.01399145 -0.03282367 0.05704208
v -0.01391111 -0.04316740 0.05698857
v -0.01399145 -0.03282367 0.02044905
v -0.03644924 -0.03622711 0.02087487
v -0.03336423 -0.03282367 0.05704208
v -0.01395429 -0.04768639 0.02042826
v -0.01349694 -0.04560634 0.03952645
v -0.02543474 -0.04083308 0.04371873
v -0.02982170 -0.04143857 0.02019049
v -0.01355646 -0.04355220 0.05459389
v -0.02539890 -0.03876407 0.05660487
v -0.02147247 -0.04301432 0.04160555
v -0.03217218 -0.03983643 0.02026240
v -0.02171400 -0.04549123 0.02022256
v -0.01750025 -0.04518269 0.03518145
v -0.02133837 -0.04081492 0.05661588
v -0.03142309 -0.03887851 0.03083200
v -0.02559190 -0.04310444 0.02656093
v -0.01553245 -0.04314220 0.05453572
v -0.02163173 -0.04530398 0.02232497
v -0.01549562 -0.04516165 0.03946818
v -0.03136494 -0.03463708 0.05658474
v -0.02749358 -0.04087928 0.03511889
v -0.02957980 -0.04105119 0.02442641
v -0.02357543 -0.04297570 0.03517008
f 5 2 1
f 5 1 3
f 5 3 4
f 7 6 3
f 10 1 2
f 10 2 7
f 10 7 3
f 10 3 1
f 11 2 5
f 13 4 3
f 13 3 9
f 14 9 3
f 14 3 6
f 16 11 8
f 16 8 12
f 16 2 11
f 17 4 13
f 18 9 14
f 19 7 2
f 19 12 15
f 19 16 12
f 19 2 16
f 20 15 12
f 20 14 6
f 20 6 15
f 20 18 14
f 21 15 6
f 21 6 7
f 21 19 15
f 21 7 19
f 22 5 4
f 22 4 17
f 22 17 11
f 22 11 5
f 23 8 11
f 23 11 17
f 23 18 8
f 24 17 13
f 24 13 9
f 24 23 17
f 24 9 18
f 24 18 23
f 25 12 8
f 25 8 18
f 25 20 12
f 25 18 20

